<svg width="831" height="803" viewBox="0 0 831 803" fill="none" xmlns="http://www.w3.org/2000/svg">
<path d="M446.966 429.844C447.615 430.095 447.914 430.381 448.397 430.646C448.902 430.924 449.585 431.163 451.302 431.492C451.795 431.85 452.168 432.189 452.198 432.466C452.241 432.72 452.215 432.938 452.144 433.133C451.999 433.275 456.596 434.189 454.419 434.028C454.202 434.002 453.808 433.956 453.996 434.01C455.569 434.423 457.142 434.836 458.709 435.231C459.701 435.487 460.63 435.724 460.954 435.849C461.233 435.951 460.947 435.947 460.536 435.907L498.033 443.467C498.033 443.467 498.062 443.438 498.017 443.415C497.177 442.92 494.968 442.176 492.828 441.467C491.325 440.975 490.284 440.563 487.999 439.94C486.694 439.594 486.171 439.379 486.868 439.366C488.676 439.321 486.033 438.525 485.062 438.034C484.971 437.987 484.623 437.907 484.258 437.833C481.049 437.105 480.997 436.701 480.538 436.332C478.541 434.756 477.455 433.002 474.691 430.983C472.834 429.611 470.721 428.09 467.439 426.774C465.789 426.118 463.876 425.528 461.812 425.062C459.936 424.651 459.59 423.978 458.978 423.181C458.472 422.483 458.031 421.688 456.998 421.121L444.259 427.043C443.994 427.587 444.157 427.859 444.359 428.139C444.847 428.842 445.704 429.332 446.984 429.838L446.966 429.844Z" fill="#A78BFA"/>
<path d="M499.654 424.293C501.087 424.922 502.319 425.578 504.215 426.174C505.565 426.601 506.582 427.058 507.268 427.545C509.851 429.354 513.437 431.09 517.438 432.883C518.789 433.673 520.145 434.48 521.227 435.261C524.297 437.467 527.259 439.575 530.759 441.701C534.259 443.827 538.291 445.955 543.789 448.338C545.415 449.04 546.682 449.685 549.055 450.529C550.746 451.133 551.889 451.626 552.472 452.032C554.189 453.201 556.968 454.546 560.139 455.994L596.645 463.356L590.574 460.602C589.312 460.032 587.942 459.42 587.69 459.043C586.983 458.008 583.927 456.504 580.79 454.987C571.738 450.667 564.307 446.61 557.168 442.46C550.052 438.321 543.252 434.1 536.059 429.776C534.419 428.792 533.306 427.792 531.604 426.79C529.947 425.812 525.527 423.598 521.402 421.654C517.259 419.715 513.415 418.062 512.631 418.103C510.718 417.093 508.89 416.055 507.023 415.01C504.607 413.492 502.031 411.948 498.576 410.744C497.278 410.3 496.423 409.695 495.516 409.107C493.769 407.967 492.248 406.696 490.451 405.515L478.046 411.291C481.411 413.651 484.623 415.947 488.037 418.1C491.456 420.272 495.095 422.296 499.631 424.281L499.654 424.293Z" fill="#A78BFA"/>
<path d="M523.882 401.958C524.54 402.416 525.266 402.852 525.797 403.331C526.515 403.98 527.513 404.558 528.495 405.141C529.102 405.501 529.893 405.782 530.569 406.119C532.03 407.199 533.715 408.206 535.601 409.188C538.98 410.932 541.755 412.985 546.182 414.565C546.717 414.757 547.092 414.981 547.558 415.194C549.739 416.75 552.761 418.265 555.195 419.72L556.342 420.346C557.847 421.507 559.302 422.626 561.523 423.768C562.59 424.323 563.664 424.897 565.086 425.434C569.433 427.059 572.281 428.802 575.775 430.491C578.69 431.906 581.856 433.337 584.719 434.769C586.139 435.479 587.353 436.198 588.196 436.884C588.683 437.282 589.684 437.687 590.834 438.082C593.533 439.777 596.204 441.443 598.167 443.03C599.667 444.231 602.634 445.573 605.424 446.895C605.968 447.294 606.688 447.712 607.032 448.08C607.477 448.587 608.482 449.124 609.419 449.684C610.02 450.026 610.948 450.378 611.686 450.734C612.864 451.637 614.492 452.586 616.475 453.574C620.031 455.339 622.272 457.085 627.655 459.104C628.304 459.355 628.673 459.561 629.179 459.781C631.02 461.102 634.241 462.648 636.568 464.004L637.709 464.613C638.898 465.55 640.023 466.47 642.358 467.613C643.483 468.169 644.568 468.719 646.275 469.376C651.463 471.381 654.199 472.95 657.967 474.722L662.225 476.605L694.327 483.068C691.146 481.527 688.362 480.108 686.47 478.746C685.577 478.02 684.603 477.281 682.414 476.359C677.921 474.455 674.427 472.767 670.562 470.987C668.317 469.949 666.557 469.004 664.712 468.029C664.16 467.365 663.626 466.695 661.774 465.76C660.666 465.198 659.404 464.629 658.023 464.04C657.388 463.594 656.491 463.098 655.959 462.676C655.269 462.114 654.276 461.496 653.164 460.859C650.548 459.366 645.344 457.672 642.07 456.142C641.435 455.754 640.588 455.356 640.01 454.968C635.35 451.934 631.005 448.817 626.096 445.595C621.192 442.39 615.747 439.034 609.181 435.675L606.369 434.283L603.386 432.832C600.046 431.209 596.007 429.6 592.586 428.022C589.579 426.616 588.762 425.292 586.688 423.836C581.617 420.283 573.188 416.91 566.135 413.63C558.036 409.864 550.876 406.065 543.98 402.142C537.09 398.236 530.447 394.213 523.679 390.154L512.781 395.237C516.415 397.607 519.729 399.984 523.939 402.016L523.882 401.958Z" fill="#A78BFA"/>
<path d="M579.409 396.681C585.87 400.189 592.227 403.73 598.362 407.286C606.255 411.901 616.049 416.289 623.141 420.952C626.429 423.069 632.203 426.205 638.569 429.534L639.773 430.16L640.743 430.767L642.665 431.984C643.964 432.791 645.246 433.603 646.499 434.386C649.068 435.97 651.496 437.465 653.623 438.79C658.24 443.367 663.203 447.719 666.282 449.655C669.151 451.468 671.849 453.278 674.49 455.087C677.046 456.809 679.602 458.531 682.141 460.258C686.676 463.257 691.129 466.415 695.208 469.234C700.563 472.906 707.224 476.866 712.284 480.384C715.401 482.499 723.222 486.526 728.933 490.064L740.972 492.49C738.575 490.851 736.184 489.229 733.764 487.578C730.557 485.358 727.651 483.251 724.684 481.011C723.401 479.894 722.061 478.776 720.578 477.627C719.978 477.17 719.275 476.688 718.595 476.218C716.78 474.679 714.942 473.128 712.619 471.542C711.003 470.455 709.709 469.303 708.495 468.163C707.298 467.019 706.186 465.903 704.767 464.715C702.035 462.438 698.766 460.142 695.366 457.793C693.574 456.208 691.606 454.603 689.991 453.038C688.213 451.315 686.765 449.62 685.119 447.893C684.295 447.03 683.415 446.165 682.397 445.288C681.385 444.428 680.146 443.391 678.758 442.423C678.152 442.005 677.734 441.585 677.168 441.174L677.471 441.173C676.29 440.08 675.03 438.974 674.095 437.879C672.198 435.602 669.203 433.332 665.985 431.078L665.112 430.116L663.576 429.099C662.527 428.422 661.461 427.751 660.314 427.068C658.045 425.713 655.513 424.365 652.511 423.035C651.204 422.441 648.088 421.109 647.591 421.039L640.041 416.849C638.828 416.072 637.666 415.279 636.321 414.506C634.959 413.739 633.574 412.96 632.132 412.181C630.968 411.56 629.678 410.961 628.439 410.346C624.768 408.217 621.051 406.065 616.846 404.05C610.902 401.217 606.815 398.133 601.49 395.159C596.376 392.308 590.791 389.589 585.24 386.917C582.011 385.048 578.667 383.235 575.576 381.322C570.857 378.402 566.713 375.259 561.759 372.376L549.549 378.051C553.665 380.744 555.357 383.814 557.549 384.926C565.03 388.718 572.17 392.754 579.426 396.676L579.409 396.681Z" fill="#A78BFA"/>
<path d="M640.829 394.138C641.988 394.742 646.769 397.259 653.646 400.882C657.121 402.691 661.125 404.79 665.481 407.043C669.785 409.312 674.751 411.752 678.972 414.297C687.888 419.387 697.325 424.807 705.895 429.702L706.292 429.938L706.489 430.142L706.89 430.568L707.668 431.408C708.186 431.968 708.7 432.51 709.19 433.041C710.194 434.114 711.164 435.141 712.083 436.127C713.955 438.087 715.63 439.843 717.018 441.29C718.384 443.451 720.701 446.817 722.767 449.689C724.963 452.731 727.491 456.105 730.004 459.37C731.19 460.901 732.348 462.402 733.444 463.828C734.496 465.173 735.497 466.419 736.391 467.565C738.231 469.842 739.774 471.659 740.682 472.61C740.834 472.791 741.211 473.205 741.804 473.818C742.362 474.384 743.095 475.142 743.964 476.029C745.646 477.745 747.857 479.998 750.34 482.508C751.553 483.763 752.827 485.093 754.148 486.447C755.349 487.667 756.574 488.898 757.804 490.147C760.213 492.604 762.542 495.049 764.572 497.207L776.754 499.663C775.014 497.221 772.988 494.717 771.351 492.299C770.336 490.771 769.045 489.389 767.788 487.575C766.621 485.866 764.861 484.08 764.413 482.484C764.277 481.993 763.558 481.402 763.097 480.843C762.399 480.015 761.604 479.181 760.963 478.355L759.996 477.098L759.351 475.718C759.067 475.121 759.052 474.534 758.437 473.909C754.877 470.273 752.944 466.861 751.317 463.216C749.249 459.14 747.691 455.053 745.223 451.028C743.639 448.421 741.209 444.939 738.839 441.705C736.441 438.442 733.911 435.182 731.329 431.94L730.356 430.723L729.878 430.112L729.63 429.809L729.051 429.479L724.438 426.831L715.272 421.553C709.206 418.033 703.22 414.525 697.405 411.02L695.549 409.953L693.453 408.905L689.256 406.793C686.495 405.385 683.849 403.979 681.564 402.514C680.158 401.608 678.025 400.744 676.212 399.873C673.502 398.564 670.7 397.265 668.082 395.945L664.128 393.945L660.616 391.842C659.073 390.923 657.777 389.944 655.975 389.107C650.092 386.408 645.626 383.445 640.529 380.589C635.431 377.733 630.713 374.755 625.554 371.881C616.069 366.552 607.469 360.902 598.009 355.471L585.667 361.207C595.475 367.139 607.467 374.396 617.9 380.681C628.259 386.914 636.945 392.116 640.875 394.105L640.829 394.138Z" fill="#A78BFA"/>
<path d="M365.177 385.503C377.711 391.955 390.25 399.38 403.132 405.128C410.721 409.325 418.299 413.603 425.806 417.96L435.997 423.903L438.539 425.4C438.84 425.571 438.755 425.541 438.783 425.57L438.805 425.639L438.907 425.721C439.048 425.81 439.11 425.943 439.217 426.042C439.509 426.426 441.035 425.669 440.839 426.611C440.809 426.697 440.739 426.835 440.831 426.824C441.443 426.781 442.02 426.806 442.983 426.669C443.418 426.606 443.83 426.588 444.064 426.666C444.257 426.738 444.266 426.888 444.202 427.043L456.941 421.121C456.941 421.121 456.879 421.045 456.828 421.004C455.909 420.439 454.535 420.115 453.252 419.839C452.357 419.648 451.583 419.361 450.49 419.387C449.867 419.396 449.48 419.252 449.412 418.796C449.21 417.619 447.811 417.514 446.896 417.023C446.806 416.976 446.685 417.015 446.524 417.047C445.893 417.211 445.403 417.101 444.949 416.865C444.727 416.764 444.546 416.611 444.313 416.476C444.217 416.411 444.115 416.329 444.019 416.265L443.889 416.153L443.832 416.095L443.821 416.06L443.645 415.983C428.125 406.934 412.687 397.361 397.08 388.455C386.24 382.262 375.4 376.126 364.206 370.734C361.388 369.383 358.563 368.073 355.715 366.808L351.428 364.953L349.279 364.037L347.719 363.486C343.86 362.144 339.95 359.863 335.579 357.5C331.729 355.41 327.744 353.19 323.479 351.463L319.239 361.997C323.399 364.351 327.559 366.284 331.525 368.204C334.042 369.441 336.581 370.691 339.138 371.935L342.472 373.655L346.367 375.712C352.591 379.009 358.855 382.256 365.103 385.45L365.177 385.503Z" fill="#A78BFA"/>
<path d="M378.348 358.093C381.048 359.368 383.728 360.763 386.511 361.82C388.513 362.573 390.394 363.479 392.21 364.54C399.121 368.573 406.267 372.205 413.465 375.706C416.604 377.47 419.772 379.206 422.852 381.084C431.611 386.397 440.484 391.711 449.444 396.883L454.495 399.773L457.504 401.426C459.531 402.496 461.611 403.491 463.806 404.431C465.097 404.972 466.306 405.616 467.816 406.011C468.893 406.296 469.82 406.706 470.596 407.241C472.823 408.762 475.357 410.052 478.056 411.326L490.461 405.55L485.318 403.148C484.244 402.633 483.118 402.134 482.35 401.444C480.304 399.596 477.493 398.148 474.709 396.786C470.692 394.825 466.825 392.798 462.993 390.701L460.103 389.125L456.108 386.871L446.397 381.367C433.497 374 420.591 366.616 407.754 359.267C404.837 357.603 402.025 355.734 399.102 354.111C396.229 352.529 389.504 349.144 383.344 346.228C377.195 343.346 371.64 340.904 371.208 341.157L361.917 336.321C358.137 334.208 353.91 332.124 349.347 330.779C347.61 330.266 345.997 329.426 344.344 328.638C341.139 327.086 337.971 325.35 334.686 323.843L330.547 334.096C338.623 337.85 346.702 341.852 353.823 345.588L356.401 346.959L359.211 348.465L365.526 351.81C369.751 354.009 374.023 356.117 378.314 358.104L378.348 358.093Z" fill="#A78BFA"/>
<path d="M356.499 312.048C357.396 312.544 358.328 312.971 359.173 313.541C360.306 314.305 361.574 314.893 362.789 315.496C363.556 315.881 364.326 316.093 365.093 316.42C367.118 317.663 369.214 318.768 371.288 319.746C375.186 321.63 379.369 324.359 383.612 325.711C384.118 325.874 384.606 326.157 385.107 326.359C388.248 328.371 391.749 330.019 394.876 331.807L396.273 332.563C398.585 334.114 400.898 335.666 403.516 336.985C404.783 337.63 406.055 338.292 407.393 338.742C411.44 340.139 415.146 342.256 418.981 344.122C422.18 345.657 425.426 347.1 428.602 348.68C430.181 349.473 431.73 350.352 433.192 351.374C434.042 351.961 434.952 352.319 435.892 352.591C439.528 354.788 443.165 356.985 446.644 359.405C449.295 361.249 452.28 362.585 455.212 363.995C456.096 364.572 457.004 365.102 457.853 365.747C458.98 366.609 460.228 367.317 461.46 368.03C462.226 368.472 463.017 368.754 463.806 369.15C465.841 370.543 468.167 371.899 469.832 372.722C473.104 374.367 476.321 376.679 480.006 377.829C480.45 377.973 480.847 378.209 481.262 378.381C483.744 380.108 486.641 381.529 489.154 383.055L490.301 383.681C492.079 384.983 493.812 386.262 495.953 387.391C496.998 387.935 498.031 388.501 499.244 388.915C502.927 390.18 505.91 391.994 509.206 393.593C510.325 394.132 511.56 394.616 512.702 395.167L523.6 390.084C520.703 388.605 518.051 387.181 515.44 385.344C514.047 384.3 512.614 383.25 510.914 382.553C507.399 381.1 504.207 379.468 500.928 377.921C499.013 377.025 497.236 376.028 495.43 375.059C494.153 373.959 492.847 372.83 491.126 371.949C490.104 371.417 489.018 370.924 487.926 370.472C487.076 369.884 486.174 369.371 485.335 368.761C484.271 367.975 483.114 367.256 481.945 366.561C479.171 364.928 476.146 364.427 473.373 363.157C472.669 362.733 471.834 362.313 471.097 361.842C458.98 354.071 447.123 345.682 434.274 339.196L431.587 337.899L428.774 336.565C425.626 335.072 422.319 333.916 419.135 332.49C416.333 331.249 414.221 329.251 411.641 327.575C405.377 323.488 398.256 320.956 391.422 318.007C383.61 314.665 376.086 310.677 368.631 307.086C361.102 303.443 353.471 299.833 345.762 296.4L342.126 305.422C346.95 307.715 351.634 310.226 356.47 312.077L356.499 312.048Z" fill="#A78BFA"/>
<path d="M382.412 289.402C383.844 290.089 385.337 290.852 386.763 291.58L390.772 293.695C393.441 295.113 396.086 296.577 398.72 298.064C405.594 301.918 412.759 304.894 419.526 309.01C425.71 312.722 438.942 318.798 447.407 322.523C453.986 327.005 461.206 331.952 464.433 333.516C470.524 336.454 476.455 339.846 482.417 343.036L487.044 345.546L491.807 348.185C494.968 349.961 498.118 351.76 501.239 353.587C509.319 358.315 518.038 362.302 525.984 367.207C530.72 370.121 540.839 373.794 549.537 378.075L561.746 372.399C557.309 370.249 552.877 368.116 548.377 365.948C542.475 363.006 536.831 359.924 531.171 356.847C528.511 355.216 525.804 353.618 522.983 352.077C521.842 351.469 520.677 350.906 519.506 350.326C515.796 348.133 512.022 345.923 508.125 344.039C502.636 341.385 497.896 337.917 492.543 334.914C491.295 334.206 489.926 333.479 488.75 332.882L485.847 331.443C483.898 330.501 481.926 329.605 479.959 328.726C477.536 327.305 475.044 325.964 472.651 324.458C467.376 321.162 462.521 317.33 456.778 314.891C456.164 314.63 455.597 314.276 454.982 314.015L455.053 313.877C453.521 312.993 451.948 312.16 450.474 311.161C447.414 309.104 444.123 307.579 440.78 306.129C437.304 303.9 433.822 301.71 429.837 300.39C428.966 300.096 426.921 299.452 426.708 299.558L420.897 296.664C418.872 295.421 416.806 294.23 414.694 293.131C413.831 292.681 412.96 292.33 412.091 291.921C409.259 290.287 406.433 288.671 403.488 287.399C399.309 285.586 395.799 282.89 391.688 280.692C387.265 278.346 382.913 276.646 378.56 275.004C375.839 273.66 373.11 272.471 370.463 271.122C366.419 269.075 362.597 266.651 358.52 264.862L354.446 274.961C358.292 276.919 361.068 280.118 363.009 280.853C369.535 283.308 375.94 286.279 382.417 289.419L382.412 289.402Z" fill="#A78BFA"/>
<path d="M407.061 266.356C409.918 267.828 448.737 287.368 463.148 294.231C468.382 297.579 477.917 303.368 486.887 308.69C489.128 310.016 491.324 311.318 493.423 312.556C494.473 313.175 495.495 313.764 496.471 314.33C497.628 314.991 498.741 315.628 499.808 316.241C505.495 319.462 510.013 321.988 512.37 323.201C516.073 325.128 557.866 346.81 585.655 361.231L597.997 355.494C589.234 350.947 580.394 346.52 571.913 341.902C566.707 339.062 561.263 336.431 556.068 333.626C550.873 330.82 545.417 328.328 540.598 325.153C539.113 324.177 537.287 323.444 535.6 322.609C533.078 321.354 530.537 320.163 528.079 318.868L524.353 316.929L520.768 314.715C519.209 313.744 517.702 312.641 516.037 311.876C513.684 310.796 511.332 309.658 509.015 308.452C507.856 307.849 506.692 307.229 505.534 306.626L503.796 305.692L502.757 305.108C500.061 303.603 497.424 301.927 494.806 300.187C489.574 296.724 484.401 293.089 479.192 290.059C464.619 281.604 449.159 274.963 434.26 267.033C431.209 265.489 428 264.282 425.15 262.292C424.272 261.675 423.195 261.39 422.183 260.95C420.688 260.302 419.175 259.717 417.703 259.024L415.492 257.975L413.383 256.645C412.458 256.062 411.599 255.325 410.592 254.96C409.778 254.667 408.999 254.305 408.232 253.92L407.097 253.329L405.853 252.639C403.946 251.588 402.034 250.462 400.227 249.551C396.507 247.629 393.085 245.688 389.562 244.028C383.038 240.98 376.964 237.558 370.677 234.778L366.55 245.008C373.761 248.371 382.447 252.732 390.327 257.008C394.234 259.099 398.048 261.259 401.26 263.076C403.848 264.596 405.897 265.736 407.102 266.305L407.061 266.356Z" fill="#A78BFA"/>
<path d="M297.94 355.795C298.386 355.766 299.057 356.029 299.593 356.163C300.146 356.291 300.553 356.256 300.765 355.729C301.539 356.016 302.313 356.361 303.072 356.843C303.759 357.273 304.365 357.69 304.931 358.101C305.384 358.452 306.053 357.206 306.489 358.346C306.522 358.45 306.537 358.618 306.606 358.595C306.819 358.489 307.043 358.417 307.273 358.305L307.658 358.143L307.762 358.11L307.802 358.059C307.802 358.059 307.837 358.048 307.997 358.073L309.456 358.427C310.334 358.623 311.2 358.842 312.066 359.061C312.984 359.321 314.003 359.663 314.97 360.021C316.586 360.63 317.983 361.329 319.312 362.049L323.552 351.515L322.904 351.207C320.908 350.357 318.842 349.644 316.764 348.953C315.75 348.629 314.879 348.392 313.933 348.103L312.537 347.71L311.848 347.511C311.643 347.462 311.671 347.491 311.574 347.484C310.791 347.468 310.066 347.337 309.285 347.626C308.842 347.787 308.46 347.718 308.135 347.23C307.289 345.934 306.165 346.161 305.191 345.843C305.106 345.813 305.019 345.898 304.944 345.96C304.22 346.671 303.137 345.948 302.318 345.58C298.766 343.948 294.457 341.604 289.995 340.035C286.961 338.963 283.652 337.922 281.312 338.08C280.161 338.163 279.281 338.56 278.848 339.291C278.456 339.971 276.721 339.286 274.767 338.689C273.065 338.165 271.009 337.487 269.875 337.621L291.332 353.863C292.962 354.697 293.651 354.896 294.312 355.124C296.066 355.689 297.081 355.841 297.951 355.772L297.94 355.795Z" fill="#A78BFA"/>
<path d="M261.615 313.724C262.781 313.752 264.064 313.97 264.983 313.695C265.638 313.485 266.488 313.594 267.531 313.89C271.46 315.095 274.781 315.635 278.115 316.095C279.767 316.578 281.419 317.061 283.097 317.688C287.899 319.492 292.507 321.339 296.928 322.96C301.35 324.58 305.609 325.985 309.975 327.011C311.269 327.323 312.544 327.754 313.899 327.836C314.87 327.907 315.799 328.144 316.679 328.588L317.64 329.044L318.805 329.549L322.531 331.01L330.583 334.027L334.722 323.774L326.531 320.917C325.7 320.629 324.857 320.364 324.038 320.054C323.628 319.898 323.213 319.726 322.815 319.548C322.394 319.358 321.991 319.162 321.815 319.027C319.201 317.362 316.264 316.355 313.371 315.487C305.095 312.962 296.909 310.18 288.381 307.335C279.875 304.502 271.045 301.602 262.059 299.171C260.02 298.602 257.715 297.736 255.652 297.213C253.645 296.748 249.309 296.057 245.624 295.805C241.928 295.519 238.913 295.646 239.34 296.216C237.295 295.993 235.155 295.705 233.042 295.503C229.801 294.976 226.568 294.656 224.619 295.453C223.889 295.783 222.57 295.575 221.291 295.489C218.823 295.306 215.907 294.846 213.345 294.846L234.253 310.672C239.431 310.846 244.527 311.657 249.156 312.313C253.79 312.986 257.928 313.588 261.581 313.678L261.615 313.724Z" fill="#A78BFA"/>
<path d="M190.199 266.78C191.209 266.915 192.112 266.95 193.246 267.236C194.768 267.608 195.968 267.682 197.179 267.79C197.938 267.852 198.409 267.72 199.055 267.723C201.462 268.194 203.597 268.464 205.511 268.576C208.963 268.749 213.54 269.9 216.114 269.341C216.436 269.276 216.898 269.357 217.281 269.368C220.711 270.255 223.663 270.589 226.72 271.252L228.009 271.488C230.565 272.312 233.088 273.089 235.359 273.488C236.466 273.687 237.595 273.898 238.5 273.818C241.235 273.648 244.837 274.594 248.089 275.157C250.799 275.625 253.47 275.972 256.253 276.551C257.639 276.852 259.137 277.269 260.667 277.906C261.56 278.269 262.262 278.331 262.909 278.276C266.439 279.418 269.969 280.617 273.523 282.134C276.241 283.288 278.677 283.729 281.196 284.316C282.067 284.668 282.892 284.938 283.773 285.382C284.948 285.979 286.07 286.346 287.197 286.729C287.897 286.963 288.52 287.012 289.187 287.2C291.176 288.09 293.157 288.774 295.082 289.341C298.546 290.332 302.343 292.076 305.78 292.445C306.191 292.485 306.624 292.652 307.057 292.762C309.956 294.068 312.963 294.995 315.744 296.11L316.968 296.558C319.064 297.606 321.131 298.682 323.385 299.449C324.49 299.821 325.588 300.233 326.729 300.422C327.613 300.577 328.389 300.749 329.369 301.027C330.354 301.323 331.31 301.647 332.284 301.965L338.134 304.083L342.183 305.364L345.82 296.342C342.724 295.195 339.766 294.06 336.625 292.469C334.933 291.559 333.133 290.608 331.485 290.2C328.043 289.336 324.695 288.231 321.351 287.259C319.392 286.702 317.48 285.997 315.556 285.315C313.933 284.383 312.299 283.416 310.482 282.833C309.384 282.478 308.289 282.199 307.206 281.954C306.228 281.503 305.227 281.155 304.238 280.67C302.96 280.048 301.663 279.547 300.371 279.063C297.298 277.927 294.739 278.175 291.883 277.486C291.069 277.193 290.283 276.986 289.475 276.653C282.957 274.042 276.2 271.279 269.309 268.75C262.457 266.228 255.482 263.974 248.868 262.503L246.171 261.954L243.376 261.455C240.25 260.872 237.471 260.846 234.48 260.449C231.836 260.131 228.536 258.514 225.346 257.55C217.601 255.142 211.725 255.402 205.519 255.1C198.364 254.739 190.729 253.996 182.634 253.363C174.557 252.725 166.038 252.19 157.49 252.581L175.872 266.484C180.962 266.495 186.261 267.05 190.193 266.763L190.199 266.78Z" fill="#A78BFA"/>
<path d="M163.452 231.653C169.446 231.526 175.602 231.73 181.977 232.265C190.281 233.022 197.749 233.053 206.574 234.675C208.565 235.03 210.996 235.397 213.701 235.791C216.378 236.155 219.312 236.552 222.343 236.955C228.405 237.763 234.73 238.619 239.627 239.284C249.03 242.135 259.208 245.636 263.171 246.524C270.668 248.209 278.455 250.45 286.139 252.725C292.98 254.735 299.864 256.941 306.705 259.429C315.577 262.641 324.455 264.972 333.252 268.725C335.805 269.836 339.861 270.962 343.263 271.82C346.939 272.762 350.741 273.683 354.447 274.96L358.521 264.861C355.009 263.656 351.624 262.735 347.963 261.54L344.291 260.31L339.846 258.735L330.814 255.498C327.88 254.26 324.892 253.155 321.882 252.095C320.664 251.664 319.467 251.36 318.253 251.004C314.162 249.468 310.042 247.962 306.008 246.905C300.332 245.4 294.705 242.848 288.907 241.077C283.377 239.373 277.973 238.125 272.658 237.04C269.087 235.949 265.587 235.084 261.988 233.964C254.129 231.555 245.974 228.571 238.638 227.695C237.85 227.604 237.023 227.391 236.23 227.283L236.135 227.103C233.923 226.589 231.761 226.174 229.528 225.591C224.816 224.313 220.596 223.87 216.477 223.509C211.396 222.444 206.309 221.477 202.119 221.732C201.181 221.765 199.092 221.939 199.095 222.129L191.936 221.635C189.201 221.328 186.455 220.985 183.889 220.91C182.854 220.879 181.899 220.918 180.915 220.928C179.081 220.771 177.282 220.66 175.544 220.625C173.806 220.59 172.091 220.567 170.539 220.702C166.114 221.051 160.816 220.439 156.157 220.71C151.682 220.961 147.682 221.632 143.742 222.495C140.88 222.744 138.179 223.267 135.282 223.585C130.882 224.194 126.154 224.544 122.027 225.716L132.11 233.356C136.453 232.688 141.771 233.543 143.651 233.246C149.927 232.15 156.765 231.81 163.469 231.647L163.452 231.653Z" fill="#A78BFA"/>
<path d="M144.758 201.528C145.176 201.47 146.265 201.312 147.914 201.127C149.569 200.959 151.661 200.613 154.323 200.39C156.968 200.172 159.957 199.844 163.407 199.711C166.767 199.475 170.559 199.405 174.488 199.348C182.459 199.352 191.188 199.59 199.528 200.279C203.641 200.564 207.723 201.051 211.333 201.365C215.033 201.783 218.322 202.162 221.022 202.48C229.986 204.421 246.205 208.123 261.64 212.403C277.052 216.613 291.498 221.191 296.467 222.559C298.386 223.167 310.158 226.308 325.278 231.033C332.835 233.387 341.216 236.126 349.514 239.025C352.651 240.121 355.781 241.2 358.81 242.254C361.485 243.212 364.08 244.157 366.498 245.024L370.626 234.794C367.774 233.759 364.934 232.817 362.099 231.834L357.482 230.257L351.768 228.211C346.237 226.144 340.627 224.484 335.088 222.572C329.549 220.718 323.999 219.25 318.516 216.976C316.833 216.274 315.014 215.921 313.287 215.443C310.672 214.734 308.061 214.099 305.452 213.35L301.527 212.22L297.549 210.802C295.819 210.191 294.028 209.39 292.335 209.015C282.777 207.055 272.789 203.914 262.718 200.934C257.644 199.351 252.642 197.936 247.607 196.474C242.649 195.14 237.687 193.789 232.982 192.833C229.72 192.179 226.406 191.483 223.217 190.939L213.688 189.429L204.449 188.36C201.406 188.037 198.463 187.853 195.482 187.606C183.712 186.814 172.682 186.798 162.076 187.104C157.779 187.259 154.132 188.085 149.599 187.915C148.227 187.897 147.198 188.303 146.017 188.529C144.268 188.88 142.514 189.213 140.811 189.588L138.185 190.105L135.26 190.337C134.011 190.469 132.61 190.479 131.599 190.823C128.302 191.919 124.385 192.373 120.834 193.206C119.101 193.667 117.295 194.074 115.511 194.494C113.76 194.96 112.01 195.426 110.339 195.962C104.21 198.062 97.7449 200.002 92.0442 202.978L102.246 210.694C109.198 207.833 118.162 205.397 126.409 203.993C134.567 202.485 142.076 201.987 144.759 201.47L144.758 201.528Z" fill="#A78BFA"/>
<path d="M293.715 363.916C293.148 363.505 292.982 363.1 292.651 362.652C292.319 362.204 291.788 361.724 290.301 360.921C290.091 360.319 290.002 359.736 290.288 359.262C290.551 358.834 290.9 358.435 291.436 358.091C291.903 357.827 288.989 355.513 291.551 356.354C291.784 356.432 292.165 356.615 292.097 356.522C291.66 355.86 291.506 355.374 290.758 354.448C290.42 354.04 290.191 353.675 290.312 353.578C290.422 353.505 290.832 353.66 291.303 353.891L269.846 337.649C269.846 337.649 269.641 337.6 269.584 337.599C268.405 337.653 268.064 338.374 267.853 339.206C267.719 339.803 267.285 340.229 267.859 341.326C268.183 341.929 267.978 342.243 266.883 342.021C263.957 341.469 264.621 343.148 264.373 344.164C264.343 344.25 264.541 344.454 264.755 344.653C266.653 346.452 265.836 347.23 265.724 347.954C265.184 351.166 265.003 354.015 266.354 357.327C267.284 359.609 268.765 361.829 271.666 363.861C273.122 364.865 274.905 365.822 276.924 366.627C278.762 367.337 278.929 368.105 279.375 368.975C279.73 369.74 279.999 370.59 280.974 371.271L295.729 367.226C296.142 366.73 296.031 366.441 295.881 366.145C295.542 365.374 294.807 364.731 293.697 363.921L293.715 363.916Z" fill="#A78BFA"/>
<path d="M237.855 361.12C236.604 360.164 235.674 359.144 234.012 358.09C232.827 357.343 231.997 356.578 231.555 355.84C229.772 353.144 227.366 350.036 224.613 346.734C223.849 345.335 223.078 343.92 222.65 342.566C221.397 338.725 220.438 334.79 219.946 330.476C219.717 328.313 219.622 326.031 219.915 323.72C220.192 321.414 220.943 319.109 222.021 317.177C222.676 316.068 223.689 315.19 224.075 314.072C224.321 313.228 225.036 312.731 226.131 312.533C229.319 311.931 231.854 311.308 234.28 310.759L213.373 294.934C212.593 295.108 211.835 295.293 211.077 295.536C210.308 295.745 209.568 295.982 208.803 296.266C207.821 296.581 206.935 297.018 205.351 296.991C201.149 296.963 198.449 298.326 196.368 300.389C194.907 301.89 193.614 303.681 192.73 305.685C191.805 307.682 191.393 309.917 191.249 312.103C190.973 316.511 191.843 320.819 193.047 324.867C194.239 328.937 195.841 332.8 197.643 336.58C199.429 340.364 201.432 344.06 203.712 347.667C204.76 349.3 205.288 350.85 206.537 352.399C207.677 353.964 211.124 357.483 214.631 360.41C218.079 363.393 221.559 365.755 222.375 365.876C223.979 367.349 225.609 368.661 227.214 370.076C229.281 372.05 231.548 373.999 234.842 375.713C236.086 376.346 236.843 377.059 237.639 377.778C239.187 379.193 240.518 380.581 242.118 381.979L256.489 378.038C253.466 375.319 250.678 372.563 247.723 369.822C244.787 367.018 241.644 364.281 237.82 361.188L237.855 361.12Z" fill="#A78BFA"/>
<path d="M206.275 380.788C205.704 380.244 205.042 379.711 204.598 379.147C204.031 378.373 203.131 377.63 202.272 376.892C201.729 376.436 200.991 376.023 200.379 375.588C199.15 374.282 197.675 372.978 196.017 371.636C194.523 370.453 193.219 369.209 191.76 367.957C190.348 366.67 188.815 365.366 186.796 364.141C186.302 363.84 185.998 363.536 185.596 363.226C183.874 361.141 181.417 358.833 179.471 356.762L178.581 355.806C177.562 354.145 176.543 352.542 174.817 350.745C174.017 349.835 173.239 348.938 172.068 347.995C168.429 345.187 166.689 342.267 164.194 339.36C162.25 336.811 159.967 334.275 158.19 331.653C157.286 330.357 156.605 329.104 156.277 327.948C156.081 327.265 155.416 326.485 154.592 325.679C153.213 322.7 152.019 319.643 151.542 316.815C151.385 315.718 150.892 314.52 150.245 313.255C149.633 311.98 148.925 310.64 148.256 309.306C148.117 308.567 147.899 307.758 148.04 307.063C148.224 306.144 147.855 305.039 147.658 303.937C147.531 303.232 147.072 302.443 146.824 301.72C146.83 300.839 146.854 299.894 146.81 298.915C146.766 297.935 146.557 296.913 146.468 295.852C145.86 292.072 147.269 288.485 146.834 284.171C146.761 283.641 147.018 283.253 147.121 282.799C149.104 280.366 150.782 277.573 153.355 275.868C153.702 275.585 154.009 275.295 154.395 275.076C155.648 274.597 156.861 274.113 158.107 273.732C158.727 273.533 159.296 273.293 159.86 273.036C160.446 272.848 160.992 272.596 161.499 272.338C162.484 271.793 163.564 271.427 164.179 270.733C166.087 268.725 169.846 268.131 172.938 267.407C173.988 267.127 174.834 266.741 175.866 266.525L157.483 252.622C155.977 252.838 154.492 253.066 152.991 253.299C151.394 253.467 149.693 253.669 147.695 253.775C145.369 253.738 143.129 254.036 141.89 254.739C139.426 256.428 136.376 257.884 133.911 260.051C133.199 260.68 132.464 261.356 131.644 261.944C130.83 262.549 130.117 263.294 129.364 263.975C128.273 264.306 127.374 264.823 126.47 265.324C125.548 265.83 124.87 266.506 124.413 267.341C124.138 267.849 123.857 268.341 123.677 268.915C123.521 269.5 123.399 270.074 123.305 270.678C122.574 271.486 122.246 272.489 121.618 273.321C120.717 274.375 120.386 275.666 120.059 276.975C119.673 278.513 120.261 280.312 120.781 282.076C121.512 283.848 122.232 285.643 122.69 287.273C122.714 288.068 122.937 288.952 122.915 289.724C122.895 295.961 123.754 301.916 125.527 307.883C127.33 313.822 129.989 319.888 134.169 325.905C134.735 326.736 135.347 327.591 135.959 328.446L137.955 331.035C139.079 332.49 140.381 333.965 141.699 335.434C143.064 336.869 144.475 338.27 145.709 339.652C147.838 342.122 148.048 343.928 149.397 346.152C150.973 348.915 153.786 351.509 156.695 354.227C159.679 356.881 163.048 359.375 166.028 361.897C173.046 367.405 179.232 372.683 185.409 377.696L189.963 381.472L194.528 385.168C197.537 387.662 200.628 390.053 203.729 392.479L216.355 389.021C214.721 387.634 213.161 386.242 211.521 384.896C209.904 383.503 208.218 382.133 206.251 380.834L206.275 380.788Z" fill="#A78BFA"/>
<path d="M152.664 377.364C150.293 375.086 147.985 372.768 145.705 370.48C143.425 368.192 141.376 365.791 139.256 363.471C136.445 360.34 133.684 357.251 130.9 354.149C129.491 352.575 128.215 350.94 126.927 349.327C125.668 347.686 124.339 346.125 123.326 344.424C122.369 342.896 121.022 340.977 119.427 338.814C117.918 336.564 116.259 334.077 114.543 331.532C112.85 328.94 111.251 326.223 109.621 323.65C108.043 321.06 106.663 318.559 105.383 316.371C102.819 309.224 100.574 301.286 99.3746 297.734C96.9352 291.101 95.4355 284.319 94.9571 277.287C94.565 271.067 95.1895 264.522 97.9671 258.604C99.6826 254.728 102.137 251.208 104.966 248.274C107.818 245.353 111.104 242.961 114.827 241.231C119.299 239.051 125.302 235.291 132.08 233.383L121.997 225.743C120.44 226.281 118.962 226.946 117.477 227.652C115.993 228.3 114.519 229.098 113.005 229.832C108.895 231.896 104.673 234.206 100.681 237.245C98.5637 238.651 96.5804 240.3 94.811 242.206C94.1197 243.02 93.4636 243.765 92.8687 244.644C90.448 247.37 88.5411 250.581 87.2837 253.985C85.5669 258.817 83.9793 263.398 83.5775 268.247L83.4285 269.996L83.451 271.747C83.4756 272.905 83.4885 274.086 83.5876 275.239C83.8945 277.529 84.0919 279.893 84.6338 282.147C84.8207 283.578 84.9386 285.03 85.1944 286.439C85.4502 287.848 85.706 289.257 85.9046 290.664C86.1072 292.205 86.4366 293.666 86.6626 295.161C86.9059 296.65 87.1264 298.127 87.5185 299.607C87.8706 301.08 88.251 302.583 88.7112 304.098C89.2059 305.602 89.8603 307.131 90.6002 308.691C90.9231 309.351 91.1316 310.011 91.4145 310.665L91.232 310.628C91.7753 312.346 92.6218 314.062 93.1141 315.739C94.1146 319.202 96.12 322.783 98.1825 326.364C98.8997 328.332 99.8981 330.229 100.913 332.177C101.962 334.115 103.113 336.135 104.798 338.041C105.507 338.902 107.213 340.878 107.532 341.043L109.534 344.013L111.662 346.904C113.002 348.978 114.357 351.105 115.959 353.171C116.623 354.009 117.373 354.819 118.094 355.658C120.155 358.456 122.17 361.288 124.84 363.968C126.696 365.876 128.169 367.773 129.602 369.664C131.126 371.545 132.594 373.425 134.318 375.337C137.529 379.009 141.691 382.509 145.625 386.006C147.807 388.345 150.493 390.598 152.727 392.92C156.099 396.502 159.356 400.082 163.273 403.585L176.071 400.071C172.746 396.876 171.609 393.762 169.844 392.322C166.8 389.896 163.802 387.437 160.93 384.957C158.173 382.42 155.404 379.906 152.653 377.387L152.664 377.364Z" fill="#A78BFA"/>
<path d="M103.687 370.105C103.102 369.337 100.686 366.137 97.1844 361.546C93.8379 356.905 89.4634 350.874 85.4169 344.26C84.8903 343.435 84.3637 342.61 83.8317 341.768C83.3168 340.92 82.8592 340.073 82.3788 339.214C81.4181 337.496 80.4346 335.767 79.4739 334.049C77.5469 330.597 75.9872 327.045 74.3101 323.723C72.8796 320.34 71.5268 317.143 70.3072 314.247C69.2419 311.358 68.2927 308.777 67.5088 306.659C67.1182 305.064 66.8177 303.154 66.3487 301.011C66.1455 299.948 65.8804 298.81 65.6787 297.632C65.4998 296.467 65.3216 295.243 65.1324 293.985C64.2897 288.981 63.8837 283.377 63.6305 277.897C63.5778 272.39 63.8612 266.986 64.5113 262.382C65.2241 257.796 66.1541 254.076 66.6257 252.148C66.8871 251.414 67.5002 248.733 69.0097 244.865C70.5192 240.998 73.0959 236.005 76.6571 231.365C80.162 226.667 84.5974 222.511 89.0119 219.069C93.5118 215.657 98.0543 212.919 102.251 210.77L92.0495 203.053C87.4022 205.939 83.1372 209.314 78.5638 213.094C75.8164 215.447 73.3667 218.202 70.7204 221.115C68.1415 224.121 65.9693 227.512 63.2644 230.96C62.3876 231.968 61.9745 233.362 61.3468 234.557C60.4475 236.394 59.7354 238.342 58.9497 240.238L57.8479 243.114C57.3783 244.029 57.0513 244.975 56.6271 245.914L55.7967 247.728C55.5713 248.336 55.3687 248.955 55.2686 249.599C53.9991 256.925 52.872 263.861 52.1427 270.555C51.3961 277.254 51.0465 283.769 51.8295 290.264C52.9101 299.321 55.3269 308.522 59.0564 317.913L60.3936 321.422L61.9485 324.898C63.016 327.193 63.9339 329.555 65.122 331.811L68.589 338.573C69.6682 340.845 71.0575 343.018 72.2518 345.234C73.3143 347.034 74.4169 348.84 75.5657 350.612C76.7543 352.39 77.8631 354.156 78.6915 355.935C79.2033 357.013 80.2171 358.179 81.0257 359.295C82.2214 360.976 83.6803 362.648 84.8877 364.306L86.747 366.825L88.2571 369.379C88.8941 370.494 89.4106 371.647 90.4143 372.72C92.0149 374.481 93.3469 376.232 94.5927 378.011C95.873 379.779 96.9302 381.561 98.4392 383.333C101.366 386.885 103.811 390.477 106.897 394.055C109.953 397.356 112.813 400.7 115.657 404.05C116.337 404.883 117.115 405.722 117.933 406.569L120.359 409.078C121.989 410.753 123.631 412.405 125.319 414.08L138.255 410.522C136.432 408.718 134.519 406.809 132.538 404.865C131.584 403.89 130.511 402.897 129.604 401.888C128.696 400.879 127.789 399.871 126.876 398.845C125.056 396.811 123.231 394.759 121.434 392.736L120.104 391.232C119.699 390.732 119.311 390.225 118.911 389.742C118.124 388.752 117.342 387.78 116.583 386.819C115.053 384.921 113.579 383.082 112.201 381.364C110.823 379.647 109.729 378.048 108.644 376.599C106.515 373.708 104.784 371.474 103.714 370.192L103.687 370.105Z" fill="#A78BFA"/>
<path d="M357.982 400.195C345.671 394.091 333.534 386.977 321.216 381.449L310.53 375.321L305.889 372.529L303.569 371.133L302.417 370.432L302.134 370.255C302.134 370.255 302.105 370.226 302.077 370.197L302.026 370.156C301.587 369.666 301.21 369.195 300.879 368.747C300.643 368.364 298.846 368.921 299.235 368.051C299.288 367.977 299.386 367.869 299.289 367.861C298.615 367.829 298.021 367.752 296.975 367.744C296.5 367.743 296.054 367.714 295.81 367.602C295.611 367.512 295.642 367.369 295.747 367.221L280.991 371.266C280.991 371.266 281.018 371.353 281.087 371.389C281.924 372.056 283.325 372.524 284.617 372.951C285.54 373.228 286.295 373.578 287.449 373.686C288.112 373.741 288.51 373.919 288.493 374.345C288.466 375.462 289.95 375.712 290.835 376.231C290.909 376.284 291.075 376.269 291.235 376.236C292.639 376.054 293.331 376.863 293.988 377.379C294.701 377.953 295.413 378.527 296.16 379.148L296.443 379.382L296.596 379.505L297.208 379.882L299.652 381.429L304.546 384.542L305.782 385.33L307.172 386.184L309.945 387.874L315.493 391.255C319.244 393.453 322.994 395.652 326.745 397.851C337.25 403.826 347.877 409.706 358.948 414.831C364.518 417.382 370.153 419.779 375.918 421.924C381.141 423.918 385.657 426.559 390.538 429.389C394.845 431.849 399.088 434.463 403.589 436.574L408.42 426.29C403.968 423.494 399.465 421.135 394.887 418.782C382.768 412.502 370.259 406.252 358.022 400.201L357.982 400.195Z" fill="#A78BFA"/>
<path d="M345.161 427.758C342.484 426.553 339.825 425.227 337.077 424.217C335.102 423.494 333.255 422.634 331.445 421.59C324.641 417.657 317.631 414.153 310.609 410.73C307.526 409.024 304.484 407.267 301.507 405.412C299.426 404.111 297.327 402.816 295.228 401.521L289.348 397.808L286.535 396.054L285.107 395.078L282.244 393.168C278.429 390.646 274.571 388.348 270.249 386.141C268.982 385.497 267.791 384.79 266.271 384.245C265.179 383.85 264.264 383.36 263.546 382.768C261.493 381.076 259.089 379.535 256.519 377.951L242.148 381.893C243.764 382.922 245.433 383.878 247.05 384.85C248.082 385.474 249.166 386.082 249.82 386.828C251.635 388.788 254.288 390.517 257.013 392.051C264.793 396.55 272.109 401.083 279.625 405.705L287.919 410.689C290.783 412.427 294.04 414.325 297.144 416.158C303.397 419.847 309.724 423.474 316.048 427.027C318.948 428.638 321.685 430.512 324.61 432.078C330.246 435.2 351.485 445.052 352.356 444.505L361.9 449.241C366.379 451.645 370.901 453.941 375.734 455.601C377.544 456.224 379.247 457.169 380.956 458.073C384.284 459.834 387.505 461.801 390.833 463.562L395.523 453.553C378.824 444.672 362.152 435.399 345.133 427.729L345.161 427.758Z" fill="#A78BFA"/>
<path d="M368.095 474.106C367.187 473.575 366.256 473.09 365.4 472.486C364.25 471.67 362.966 471.03 361.7 470.386C360.904 469.972 360.107 469.731 359.317 469.392C357.201 468.102 355.004 466.915 352.759 465.877C348.746 464.049 344.6 461.442 340.323 460.157C339.799 460 339.316 459.735 338.816 459.532C335.645 457.606 332.162 455.953 329.016 454.228L327.614 453.513C325.283 452.024 322.971 450.473 320.368 449.205C319.107 448.578 317.823 447.938 316.486 447.488C312.455 446.144 308.783 444.016 304.947 442.207C301.759 440.707 298.542 439.236 295.389 437.667C293.816 436.891 292.284 436.007 290.856 434.974C290.024 434.381 289.113 434.024 288.191 433.746C284.612 431.55 280.97 429.335 277.697 426.907C276.434 425.974 275.084 425.184 273.692 424.446C272.347 423.731 270.756 422.96 269.648 422.398C268.934 421.882 268.203 421.429 267.547 420.855C266.677 420.084 265.672 419.488 264.68 418.87C264.062 418.476 263.402 418.248 262.748 417.923C261.129 416.703 259.446 415.58 257.635 414.594C254.399 412.823 251.377 410.409 247.645 408.988C247.19 408.81 246.81 408.568 246.401 408.355C244.046 406.55 241.26 404.883 238.841 403.232L237.741 402.514C236.089 401.133 234.519 399.706 232.443 398.423C231.445 397.787 230.447 397.152 229.236 396.623C225.575 395.007 222.83 392.868 219.681 390.954L216.345 388.986L203.719 392.444C206.41 394.294 208.945 395.947 211.307 398.017C212.55 399.186 213.838 400.378 215.513 401.236C218.955 402.998 222.024 404.9 225.219 406.723C227.081 407.75 228.799 408.861 230.534 409.967C231.679 411.129 232.847 412.302 234.515 413.315C235.519 413.911 236.587 414.466 237.661 414.982C238.465 415.603 239.344 416.162 240.113 416.794C241.097 417.625 242.213 418.395 243.341 419.141C246.023 420.9 249.21 421.616 251.97 423.024C252.667 423.489 253.4 423.884 254.085 424.372C264.838 431.911 276.913 440.69 289.648 447.173L292.335 448.471L295.148 449.804C298.285 451.321 301.598 452.437 304.793 453.839C307.613 455.075 309.702 457.061 312.294 458.714C318.587 462.773 325.749 465.138 332.596 468.007C348.247 474.529 363.191 482.54 378.292 490.328L382.418 481.532C377.649 478.934 373.014 476.159 368.089 474.088L368.095 474.106Z" fill="#A78BFA"/>
<path d="M341.906 496.364C336.446 493.739 331.021 490.988 325.684 488.094C318.736 484.303 311.471 481.435 304.623 477.363C298.359 473.697 285.007 467.602 276.48 463.802C273.171 461.499 269.698 459.097 266.66 457.052C263.571 454.966 260.873 453.213 259.22 452.367C257.658 451.569 256.13 450.759 254.529 449.897L249.2 446.848C245.682 444.785 242.101 442.761 238.635 440.624L229.35 434.964C226.293 433.04 223.323 431.03 220.359 429.038C216.47 426.463 212.564 423.951 208.617 421.433C204.642 418.943 200.794 416.317 197.257 413.534C195.112 411.852 191.621 409.876 187.867 407.545C184.101 405.236 179.702 402.729 176.095 400.026L163.297 403.539C166.799 406.334 170.911 408.894 174.667 411.588C179.662 415.261 184.864 418.809 189.882 422.436C192.19 424.333 194.728 426.118 197.312 427.869C198.372 428.58 199.467 429.223 200.556 429.906C202.261 431.155 203.966 432.405 205.728 433.598C207.525 434.78 209.346 435.916 211.224 436.995C213.869 438.516 216.277 440.19 218.661 441.91C221.058 443.606 223.494 445.309 226.074 446.928C228.536 448.47 231.072 449.95 233.615 451.389C236.198 452.777 238.788 454.125 241.389 455.45L246.228 458.389L248.633 459.873L250.555 461.091C253.327 462.897 255.984 464.816 258.722 466.632C261.46 468.449 264.075 469.998 267.009 471.293C267.628 471.572 268.213 471.92 268.838 472.216L268.767 472.354C270.328 473.267 271.894 474.141 273.391 475.152C276.502 477.25 279.826 478.821 283.215 480.294C286.765 482.519 290.31 484.727 294.318 486.059C295.206 486.348 297.268 486.986 297.481 486.879L303.378 489.746C305.438 490.978 307.538 492.158 309.697 493.223C310.571 493.65 311.464 494.013 312.346 494.399C315.206 496.004 318.102 497.598 321.093 498.837C325.307 500.581 328.966 503.268 333.067 505.316C336.98 507.309 341.03 508.953 345.103 510.552C347.625 511.864 350.181 513.108 352.668 514.489C356.465 516.596 360.005 519.149 363.845 521.09L368.471 511.235C364.816 509.101 362.275 505.807 360.433 505.022C354.172 502.386 348.049 499.286 341.912 496.324L341.906 496.364Z" fill="#A78BFA"/>
<path d="M317.953 519.988C316.498 519.289 305.833 514.129 293.708 508.253C281.533 502.278 267.898 495.586 260.552 491.98C246.562 483.205 210.227 460.421 202.65 455.666C201.811 455.113 198.737 453.194 194.177 450.357C191.909 448.944 189.214 447.324 186.334 445.477C183.5 443.596 180.387 441.556 177.105 439.398C170.38 435.115 163.665 430.083 156.679 425.157C153.327 422.658 150.165 420.099 146.995 417.637C145.428 416.401 143.866 415.182 142.372 413.998C140.889 412.792 139.567 411.611 138.216 410.458L125.279 414.016C126.924 415.438 128.421 416.869 130.209 418.263L135.478 422.441L140.706 426.612C142.437 428.006 144.1 429.422 145.974 430.789C150.441 434.172 155.179 437.392 159.64 440.758C164.268 444.051 169.335 447.051 173.554 450.609C174.866 451.698 176.529 452.636 178.123 453.596C180.511 455.028 182.929 456.431 185.266 457.88L188.776 460.098L192.089 462.533C193.544 463.595 194.86 464.816 196.513 465.662C205.775 470.527 214.463 476.397 223.518 482.226L230.241 486.682C231.93 487.822 233.602 488.968 235.285 490.091C238.209 492.076 241.129 493.988 244.062 495.761C259.176 504.787 275.068 511.596 290.385 519.525C293.532 521.076 296.822 522.238 299.752 524.241C300.647 524.852 301.764 525.144 302.788 525.561C304.318 526.197 305.866 526.771 307.372 527.454L309.651 528.481L311.813 529.794C312.754 530.371 313.648 531.097 314.673 531.457C317.997 532.607 320.905 534.541 323.977 536.155C327.066 537.763 330.05 539.577 333.146 541.145C338.905 544.056 344.349 547.527 350.08 550.467L354.764 540.497C341.557 533.42 322.886 522.266 317.947 520.028L317.953 519.988Z" fill="#A78BFA"/>
<path d="M441.779 439.726C441.322 439.72 440.68 439.429 440.144 439.295C439.603 439.144 439.168 439.149 438.818 439.663C438.079 439.365 437.335 438.992 436.644 438.488C436.026 438.036 435.49 437.539 435.004 437.083C434.615 436.692 433.651 437.785 433.437 436.688C433.404 436.584 433.469 436.429 433.314 436.421L426.396 433.748C424.041 432.841 421.697 431.968 419.317 431.165C417.171 430.439 415.059 429.702 413.019 428.77C411.313 427.999 409.832 427.155 408.403 426.295L403.571 436.579L404.258 436.951C408.479 439.018 412.872 440.667 417.277 442.293C420.355 443.446 423.42 444.737 426.639 445.615C427.095 445.736 427.562 445.893 428.011 446.054L428.939 446.406C429.161 446.507 429.296 446.636 429.413 446.885C430.036 448.195 431.226 448.119 432.17 448.523C432.256 448.553 432.353 448.503 432.463 448.429C433.363 447.854 434.324 448.673 435.073 449.121C438.345 451.186 442.432 453.488 446.715 455.21C449.644 456.372 452.854 457.521 455.267 457.531C456.462 457.529 457.421 457.26 457.984 456.64C458.489 456.077 460.113 456.893 461.944 457.701C463.535 458.414 465.444 459.349 466.592 459.497L448.07 442.276C446.597 441.277 445.972 440.98 445.329 440.689C443.687 439.936 442.706 439.715 441.797 439.72L441.779 439.726Z" fill="#A78BFA"/>
<path d="M470.504 481.826C469.333 481.724 468.033 481.453 467.053 481.653C466.342 481.805 465.468 481.683 464.467 481.336C460.647 480 457.305 479.333 453.916 478.758C452.288 478.229 450.677 477.695 449.033 476.999C444.387 475.03 439.919 473.081 435.738 470.962C431.552 468.827 427.465 467.004 423.132 465.546C421.385 464.941 419.638 464.336 417.89 463.73C415.868 463.098 413.946 462.301 412.066 461.337C406.66 458.523 401.106 456.023 395.557 453.599L390.867 463.608L399.209 467.124C400.983 467.874 402.809 468.607 404.425 469.637C406.585 471.008 408.845 472.213 411.147 473.309C412.289 473.86 413.465 474.4 414.614 474.911L416.046 475.541L417.11 475.964C421.171 477.585 425.134 479.314 429.119 481.113C433.11 482.872 437.04 484.917 441.175 486.591C449.445 489.939 458.142 492.959 466.963 495.71C468.962 496.33 471.18 497.281 473.208 497.873C475.185 498.424 479.519 499.288 483.241 499.776C486.968 500.281 490.031 500.426 489.719 499.858L495.924 501.116C499.086 501.936 502.251 502.641 504.309 502.248C505.077 502.098 506.365 502.449 507.601 502.759C510.012 503.362 512.785 504.269 515.288 504.861L497.246 488.078C492.454 486.787 487.628 485.506 482.813 484.203C478.311 483.048 474.217 482.164 470.51 481.843L470.504 481.826Z" fill="#A78BFA"/>
<path d="M533.65 532.016C532.67 531.738 531.797 531.559 530.699 531.147C529.259 530.615 528.067 530.386 526.881 530.116C526.129 529.956 525.653 530.013 525.002 529.935C522.685 529.207 520.593 528.713 518.698 528.422C515.268 527.898 510.856 526.427 508.124 526.73C507.792 526.761 507.319 526.645 506.931 526.617C503.623 525.518 500.656 525.017 497.665 524.2L496.394 523.9C493.924 522.992 491.494 522.089 489.231 521.592C488.13 521.353 487.002 521.084 486.063 521.118C483.192 521.16 479.661 520.075 476.376 519.409C473.639 518.854 470.934 518.403 468.141 517.732C466.762 517.391 465.282 516.91 463.798 516.239C462.934 515.847 462.209 515.774 461.528 515.782C458.074 514.521 454.626 513.219 451.239 511.572C448.643 510.322 446.18 509.736 443.668 508.994C442.839 508.591 442.031 508.258 441.209 507.757C440.12 507.074 439.028 506.622 437.96 506.124C437.289 505.804 436.667 505.697 436.013 505.429C434.164 504.322 432.3 503.41 430.441 502.63C427.102 501.255 423.545 499.128 420.084 498.384C419.656 498.292 419.247 498.079 418.826 497.947C416.108 496.373 413.184 495.17 410.52 493.827L409.338 493.27L407.852 492.351L406.065 491.319C404.844 490.64 403.578 489.996 402.236 489.413C400.934 488.837 399.632 488.261 398.271 487.857C394.175 486.667 390.363 484.755 386.445 483.107C385.132 482.554 383.754 482.098 382.423 481.55L378.298 490.346C381.351 491.66 384.221 492.995 387.279 494.804C388.958 495.852 390.631 496.882 392.351 497.458C395.88 498.657 399.315 500.097 402.779 501.451C404.765 502.21 406.572 503.063 408.454 503.912C409.926 504.969 411.427 506.054 413.201 506.804C414.253 507.25 415.329 507.65 416.411 508.01C417.336 508.535 418.279 508.997 419.198 509.563C420.383 510.31 421.61 510.949 422.843 511.547C425.78 512.974 428.455 513.091 431.243 514.108C432.01 514.492 432.772 514.802 433.527 515.21C439.618 518.626 446.1 521.783 452.754 524.58C459.407 527.376 466.242 529.847 472.847 531.531C473.759 531.773 474.654 531.964 475.549 532.155L478.36 532.763C481.514 533.433 484.394 533.598 487.418 534.1C490.082 534.545 493.194 536.222 496.273 537.318C503.797 539.988 509.863 540.086 516.154 540.839C523.354 541.702 530.929 543.094 538.885 544.67C546.824 546.251 555.138 548.056 563.545 549.679L547.684 534.929C542.69 533.779 537.603 532.334 533.661 531.993L533.65 532.016Z" fill="#A78BFA"/>
<path d="M557.566 570.193C551.083 569.254 544.447 568.133 537.638 566.706C528.811 564.836 520.8 563.985 511.677 561.541C507.534 560.443 501.564 559.205 495.33 557.975C489.079 556.751 482.548 555.482 477.489 554.487C468.161 551.153 458.241 547.207 454.281 546.088C446.778 544.023 439.18 541.243 431.822 538.137C428.528 536.843 425.208 535.405 421.899 533.944C418.584 532.523 415.3 530.958 412.022 529.353C407.761 527.28 403.479 525.443 399.187 523.571L395.969 522.157L393.042 520.821C391.263 519.997 389.49 519.132 387.735 518.204C383.511 515.947 375.519 514.077 368.471 511.235L363.846 521.09C367.128 522.407 370.475 523.57 373.791 524.876C378.262 526.652 382.633 528.652 387.016 530.629L388.589 531.462L390.378 532.379C391.792 533.072 393.242 533.753 394.702 534.412C395.879 534.952 397.063 535.394 398.24 535.877C402.154 537.813 406.108 539.755 410.045 541.282C415.591 543.517 420.887 546.462 426.47 548.875C431.783 550.974 437.066 552.796 442.318 554.284C445.772 555.603 449.251 556.704 452.756 558.006C460.461 560.828 468.377 564.195 475.952 565.587C476.757 565.73 477.599 565.995 478.409 566.156L478.47 566.346C480.703 566.987 482.908 567.541 485.18 568.303C489.911 569.881 494.337 570.736 498.668 571.41C503.92 572.955 509.196 574.397 513.819 574.672C514.847 574.744 517.15 574.827 517.204 574.637L524.946 576.014C527.899 576.711 530.846 577.39 533.676 577.877C534.822 578.082 535.879 578.183 536.986 578.325C540.967 579.15 544.959 579.953 548.535 580.277C553.56 580.748 559.44 582.359 564.783 583.111C569.891 583.842 574.554 584.066 579.116 584.208C582.37 584.597 585.624 584.987 588.878 585.376C593.987 586.107 599.496 587.206 604.306 587.594L591.907 576.052C587.056 575.296 581.09 572.872 579.085 572.712C572.281 572.258 564.838 571.167 557.572 570.153L557.566 570.193Z" fill="#A78BFA"/>
<path d="M574.708 604.713C572.618 604.466 557.565 602.95 539.469 600.155C530.435 598.772 520.702 597.098 511.764 595.416C502.831 593.753 494.687 592.065 489.013 590.923C479.871 588.237 463.505 583.473 448.408 578.34C444.628 577.068 440.946 575.745 437.492 574.484C434.015 573.152 430.733 571.893 427.757 570.765C424.798 569.688 422.109 568.506 419.89 567.612C417.667 566.701 415.886 565.991 414.663 565.543C414.19 565.37 413.127 564.946 411.562 564.321C409.987 563.66 407.929 562.792 405.455 561.75C400.502 559.651 393.957 556.896 386.639 553.797C384.819 553.024 382.937 552.232 381.026 551.412C379.764 550.9 378.473 550.358 377.187 549.834C374.656 548.792 372.08 547.727 369.527 546.673C364.391 544.536 359.291 542.388 354.782 540.433L350.098 550.402C355.295 552.615 360.575 554.609 365.708 556.919C368.857 558.355 372.118 559.487 375.268 560.866L382.666 564.035C385.349 565.2 388.009 566.411 390.609 567.851C392.216 568.731 394.004 569.285 395.705 569.981C398.27 571.012 400.83 571.968 403.367 573.028L407.182 574.651C408.449 575.296 409.726 575.976 411 576.523C412.665 577.288 414.363 578.215 416.026 578.733C418.401 579.461 420.786 580.283 423.187 581.156C425.555 581.983 427.94 582.804 430.348 583.637C435.145 585.423 439.987 587.233 444.847 589.038C454.606 592.654 464.617 596.227 474.154 598.901C487.457 602.622 500.52 605.407 513.235 607.749C525.968 610.086 538.374 611.993 550.757 613.945C555.756 614.692 560.318 614.834 565.614 616.04C567.227 616.401 568.601 616.305 570.075 616.405L576.634 616.804L579.982 617.068C581.203 617.269 582.435 617.504 583.622 617.659C585.18 617.904 586.925 618.319 588.269 618.309C592.626 618.287 597.59 619.102 602.297 619.523C606.901 619.861 611.821 620.538 616.257 620.701C624.606 621.119 633.304 621.921 641.162 621.866L628.611 610.202C619.568 609.873 607.939 608.864 597.537 607.595C587.169 606.372 578.073 604.914 574.714 604.673L574.708 604.713Z" fill="#A78BFA"/>
<path d="M457.029 439.459C456.975 440.011 456.11 440.155 455.593 440.379C455.069 440.585 454.9 440.888 455.865 441.839C454.921 441.855 453.853 441.72 452.566 441.369C451.403 441.054 450.31 440.716 449.263 440.345C448.364 440.022 450.697 442.179 448.246 440.671C448.014 440.536 447.668 440.283 447.713 440.365C448.004 440.864 448.091 441.199 448.674 442.025C448.944 442.397 449.123 442.722 448.979 442.749C448.859 442.787 448.479 442.546 448.053 442.281L466.575 459.503C466.575 459.503 466.769 459.575 466.831 459.593C468.006 459.828 468.435 459.384 468.784 458.928C469.023 458.603 469.522 458.5 469.161 457.718C468.944 457.272 469.236 457.235 470.349 457.815C473.267 459.363 473.204 458.561 474.181 458.592C474.278 458.599 474.137 458.453 474.013 458.302C472.819 456.926 474.716 457.522 475.777 457.698C480.49 458.498 487.223 459.989 492.639 459.532C494.483 459.361 496.334 459.034 497.779 458.322C499.206 457.616 500.193 456.477 500.066 454.875C499.956 453.266 498.747 451.303 496.543 449.316C494.554 447.526 495.729 446.863 496.627 445.982C497.455 445.239 498.597 444.529 498.033 443.467L460.535 435.907C458.722 435.934 458.382 436.177 458.057 436.472C457.184 437.192 457.204 438.333 457.063 439.448L457.029 439.459Z" fill="#A78BFA"/>
<path d="M558.679 479.875C558.347 481.166 557.409 482.098 557.613 483.466C557.726 484.424 557.226 485.119 556.077 485.449C551.817 486.797 548.957 488.135 546.377 489.46C544.584 489.729 542.82 489.913 540.717 489.862C534.771 489.724 528.98 489.174 523.896 488.817C518.8 488.426 514.388 488.217 510.855 488.567C509.808 488.674 508.522 488.57 507.927 489.028C507.494 489.339 506.71 489.38 505.57 489.135C502.32 488.4 499.75 488.192 497.281 488.067L515.323 504.85L519.986 505.017C520.987 505.059 521.93 505.043 523.473 505.542C527.607 506.911 530.515 507.105 533.225 507.153C541.011 507.293 549.758 507.889 559.185 508.056C568.567 508.2 578.742 508.031 588.21 505.625C590.339 505.037 593.293 504.778 595.261 503.86C597.216 503.08 600.587 500.24 602.01 496.458C603.478 492.699 602.733 488.485 601.306 487.873C601.677 485.747 601.763 483.617 601.677 481.485C602.018 478.604 601.56 475.655 598.523 472.234C597.327 470.974 597.381 469.943 597.165 468.961C596.831 467.005 597.094 465.257 596.64 463.339L560.134 455.977C560.755 459.619 560.849 463.335 560.738 467.365C560.599 471.366 559.859 475.865 558.668 479.84L558.679 479.875Z" fill="#A78BFA"/>
<path d="M665.845 488.591C665.835 489.34 666.104 490.133 665.74 490.842C665.293 491.769 665.553 492.89 665.767 493.987C665.838 494.69 666.428 495.476 666.704 496.228C666.354 498.003 666.282 499.995 666.683 502.102C667.336 505.906 665.282 509.432 666.682 513.799C666.852 514.337 666.664 514.761 666.658 515.221C664.423 517.696 663.11 520.564 660.789 522.647C660.425 522.935 660.186 523.26 659.845 523.561C658.607 524.207 657.256 524.736 656.036 525.318C654.85 525.947 653.67 526.478 652.792 527.181C651.959 527.907 650.928 528.428 650.642 529.323C649.693 531.902 645.989 533.09 643.21 534.383C640.913 535.521 638.834 536.628 636.296 537.423C635.038 537.826 633.395 537.971 631.388 537.927C630.222 537.9 629.784 538.193 629.555 538.611C625.549 538.845 621.472 538.853 616.789 538.387C613.22 538.022 611.246 538.56 608.977 538.886C607.898 538.774 606.983 538.762 605.694 538.526C603.982 538.215 602.771 538.164 601.525 538.124C600.736 538.09 600.384 538.299 599.76 538.365C597.146 537.961 594.958 537.822 593.076 537.872C589.724 537.953 584.727 537.034 582.77 537.986C582.523 538.104 582.049 538.046 581.682 538.087C577.975 537.404 575.105 537.33 571.931 536.896C571.475 536.832 571.069 536.809 570.635 536.758C567.808 536.097 565.014 535.426 562.775 535.246C561.684 535.157 560.553 535.061 559.819 535.258C557.603 535.874 553.838 535.189 550.702 534.992C549.633 534.914 548.751 535.006 547.694 534.963L563.555 549.712C566.479 550.017 569.368 550.39 573.3 551.364C575.568 551.994 577.819 552.571 579.147 552.451C581.872 552.246 585.14 552.439 588.154 552.428C589.893 552.405 591.96 552.641 593.965 552.8C596.42 553.484 598.927 554.209 600.733 554.279C601.824 554.311 602.797 554.267 603.651 554.146C604.9 554.376 605.974 554.471 607.319 554.765C609.047 555.128 610.566 555.31 612.011 555.439C615.432 555.756 615.944 554.254 618.463 554C619.4 554.081 620.144 554.034 621.126 554.139C629.017 555.029 637.541 556.002 645.749 556.331C653.939 556.666 661.839 556.387 668.066 554.714C668.916 554.46 669.72 554.183 670.501 553.894C671.323 553.612 672.139 553.312 672.933 552.942C674.285 552.356 675.368 551.702 676.352 550.852C677.357 550.07 678.312 549.248 679.455 548.423C679.951 548.072 680.635 547.834 681.444 547.632C682.219 547.383 683.119 547.228 684.059 547.079C685.038 546.937 686.001 546.8 686.981 546.658C687.944 546.464 688.884 546.257 689.751 545.998C691.886 545.428 693.518 544.408 694.944 543.396C696.258 542.21 697.423 541.034 698.197 539.524C699.085 538.13 699.582 536.461 700.13 534.833C700.49 533.093 700.964 531.412 701.171 529.606C701.825 525.555 702.207 521.361 701.993 517.206C702.047 516.176 701.855 515.148 701.812 514.111C701.751 513.079 701.696 512.065 701.532 511.066L701.188 508.061L700.673 505.111C699.301 497.295 697.139 490.038 694.31 483.014L662.208 476.552C663.208 480.435 663.571 484.103 665.874 488.563L665.845 488.591Z" fill="#A78BFA"/>
<path d="M734.549 519.339C734.964 525.57 734.277 532.04 731.905 537.98C730.333 541.829 728.42 545.501 726.022 548.717C723.572 551.892 720.722 554.641 717.38 556.974C714.305 559.012 709.841 561.878 705.109 564.256C700.383 566.651 695.443 568.733 691.628 570.11C683.537 571.769 674.343 572.52 671.144 573.145C665.13 574.349 658.506 574.945 652.037 575.434C646.279 575.886 640.346 576.088 634.166 575.988C626.111 575.839 619.27 576.409 610.715 575.58C605.558 575.055 599.354 576.319 591.906 576.11L604.304 587.651C606.083 587.635 607.805 587.56 609.55 587.497C611.244 587.393 612.944 587.307 614.711 587.256C619.443 587.095 624.36 587.103 629.21 587.019C631.811 587.14 634.293 587.128 636.684 587.068C637.662 587.041 638.47 586.896 639.357 586.822C641.062 586.81 642.766 586.798 644.379 586.739C645.982 586.646 647.533 586.511 648.954 586.323C652.959 585.726 658.119 585.963 662.506 585.492C666.686 585.03 670.369 584.193 673.989 583.28C676.682 582.855 679.37 582.413 682.046 581.994C688.165 581.121 694.757 580.305 699.555 578.135C700.067 577.895 700.699 577.73 701.233 577.501L701.415 577.596C703.023 577.099 704.541 576.498 706.274 576.037C708.065 575.52 709.652 574.839 711.148 574.168C712.639 573.422 714.033 572.612 715.422 571.784C719.184 570.118 722.834 568.278 725.426 565.555C726.017 565.021 727.238 563.483 727.189 563.326C728.847 562.03 730.338 560.443 731.907 558.927C732.811 558.063 733.72 557.217 734.573 556.313C735.386 555.345 736.182 554.382 736.95 553.391C737.516 552.54 737.997 551.66 738.5 550.791C739.041 550.102 739.458 549.318 739.919 548.559C740.358 547.787 740.848 547.056 741.219 546.249C741.921 544.629 742.692 543.044 743.075 541.316C744.356 536.547 746.006 531.985 746.237 527.133C746.481 522.506 745.971 517.834 744.927 513.334C744.68 510.451 743.939 507.63 743.531 504.837C743.095 502.741 742.808 500.692 742.469 498.661C742.038 496.639 741.59 494.623 740.977 492.565L728.938 490.139C729.496 492.082 729.604 493.805 729.693 495.287C729.782 496.768 729.696 498.057 730.078 499.024C732.553 505.588 734.063 512.404 734.536 519.419L734.549 519.339Z" fill="#A78BFA"/>
<path d="M764.146 540.861C763.912 541.739 763.141 545.484 761.231 550.665C759.316 555.828 755.909 562.157 751.611 567.588C742.991 578.552 731.786 585.664 726.003 589.278C723.305 590.468 719.539 592.001 715.298 593.591C710.984 595.071 706.262 596.7 701.476 597.949C692.051 600.609 682.685 602.257 679.696 603.006C678.435 603.219 671.491 605.084 661.788 606.744C652.13 608.428 639.554 609.826 628.604 610.243L641.155 621.907C644.332 621.633 647.487 621.347 650.472 620.944C653.485 620.57 656.52 620.207 659.533 619.833C660.466 619.725 661.377 619.605 662.288 619.485L664.868 619.001C666.565 618.667 668.33 618.368 670.055 618.063C673.523 617.447 676.526 616.503 680.447 616.239C681.654 616.157 682.495 615.754 683.425 615.456C684.838 615.002 686.2 614.508 687.663 614.096C688.415 613.893 689.15 613.696 689.873 613.463L692.418 613.048C693.518 612.867 694.868 612.817 695.679 612.442C700.249 610.269 706.158 608.793 712.053 607.151C717.97 605.52 723.872 603.722 728.821 601.37C735.659 598.029 741.633 593.877 747.366 588.903C750.23 586.379 753.004 583.692 755.79 580.62C758.575 577.605 761.25 574.243 763.908 570.466C764.997 568.989 765.826 567.232 766.791 565.604C767.661 563.853 768.678 562.208 769.748 560.432C770.391 559.346 770.807 558.142 771.178 556.915C771.797 555.092 772.359 553.268 772.881 551.38C773.157 550.451 773.472 549.528 773.685 548.58L774.671 545.818C775.144 544.615 775.549 543.434 775.703 542.18C776.123 538.108 777.013 534.383 777.441 530.576L777.921 524.956C778.026 523.126 778.09 521.289 778.115 519.447C777.851 512.613 777.816 506.202 776.719 499.674L764.537 497.218C764.856 499.065 765.19 501.022 765.546 503.048C765.862 505.068 766.017 507.178 766.27 509.295C766.482 511.406 766.533 513.606 766.676 515.739C766.693 517.893 766.67 520.041 766.62 522.102C766.395 530.45 764.678 537.862 764.152 540.879L764.146 540.861Z" fill="#A78BFA"/>
</svg>
