<svg width="375" height="787" viewBox="0 0 375 787" fill="none" xmlns="http://www.w3.org/2000/svg">
<g clip-path="url(#clip0_179_3634)">
<rect width="375" height="787" fill="url(#paint0_linear_179_3634)"/>
<path d="M95.2468 583.319C80.0921 604.075 62.5972 660.042 43.108 671.953C5.01222 695.187 -1.55785 630.197 -4.91383 599.68C-8.61753 566.145 -10.6697 574.032 -39.0325 552.185C-50.752 543.136 -81.064 519.313 -80.9543 503.719C-80.7063 470.761 -44.953 468.105 -12.2074 474.016C3.57241 476.866 18.9586 467.843 24.369 452.77C34.1993 425.509 52.001 395.403 80.8764 390.57C128.447 382.649 107.673 454.228 112.604 483.833C115.542 501.515 127.204 502.853 141.678 508.252C160.98 515.443 220.115 554.625 179.8 573.426C166.275 579.712 150.168 581.738 135.496 583.152C131.123 583.582 96.6724 581.395 95.2737 583.325L95.2468 583.319Z" fill="#FFBF86"/>
<path d="M358.442 511.531C340.679 535.883 320.144 601.531 297.261 615.516C252.562 642.799 244.851 566.521 240.893 530.724C236.557 491.382 234.119 500.638 200.87 474.996C187.116 464.391 151.549 436.425 151.688 418.106C151.965 379.448 193.93 376.322 232.337 383.265C250.83 386.606 268.906 376.022 275.281 358.331C286.802 326.333 307.702 291.009 341.57 285.379C397.368 276.057 373.024 360.076 378.81 394.795C382.278 415.533 395.912 417.104 412.926 423.451C435.554 431.885 504.953 477.857 457.647 499.919C441.796 507.32 422.891 509.684 405.683 511.351C400.559 511.848 360.147 509.307 358.464 511.562L358.442 511.531Z" fill="#FFBF86"/>
<path d="M183.521 281.508C174.361 294.051 163.776 327.904 151.978 335.111C128.943 349.174 124.958 309.849 122.935 291.423C120.684 271.148 119.449 275.923 102.292 262.694C95.2023 257.226 76.8652 242.804 76.9353 233.372C77.0717 213.442 98.6953 211.817 118.5 215.423C128.035 217.152 137.353 211.684 140.635 202.571C146.578 186.076 157.341 167.876 174.803 164.949C203.563 160.148 191.019 203.461 193.998 221.343C195.774 232.048 202.821 232.839 211.583 236.105C223.24 240.445 259.012 264.139 234.632 275.528C226.465 279.344 216.721 280.549 207.839 281.409C205.193 281.668 184.357 280.339 183.516 281.534L183.521 281.508Z" fill="#FFBF86"/>
</g>
<defs>
<linearGradient id="paint0_linear_179_3634" x1="187.5" y1="0" x2="187.5" y2="787" gradientUnits="userSpaceOnUse">
<stop stop-color="#FFBF85"/>
<stop offset="0.45" stop-color="#FFB7DE"/>
</linearGradient>
<clipPath id="clip0_179_3634">
<rect width="375" height="787" fill="white"/>
</clipPath>
</defs>
</svg>
