<svg width="1920" height="1080" viewBox="0 0 1920 1080" fill="none" xmlns="http://www.w3.org/2000/svg">
<g clip-path="url(#clip0_1_1311)">
<rect width="1920" height="1080" fill="url(#paint0_linear_1_1311)"/>
<path d="M1839.98 434.204C1813.98 447.814 1793.13 469.564 1775.17 492.78C1748 527.91 1726.03 568.103 1718.37 611.859C1710.71 655.614 1718.64 703.259 1745.9 738.325C1778.92 780.782 1833.93 799.047 1875.12 833.604C1894.67 849.996 1911.27 870.207 1933.22 883.185C1960.59 899.362 1993.54 902.694 2025.32 903.359C2071.46 904.324 2125 896.203 2148.57 856.505C2162.76 832.596 2161.57 800.411 2145.64 777.609C2134.9 762.222 2118.75 751.642 2105.15 738.715C2057.35 693.257 2044.35 622.657 2039.98 556.821C2038.19 529.693 2037.32 502.01 2028.18 476.402C2000.4 398.554 1902.59 401.432 1839.97 434.212L1839.98 434.204Z" fill="#A78BFA"/>
<path d="M1912.33 488.628C1891.26 472.449 1864.21 472.689 1839.04 475.422C1810.65 478.498 1782.79 485.702 1756.47 496.806C1743.58 502.247 1730.79 508.436 1719.13 516.215C1707.85 523.738 1698.14 532.94 1690.07 543.833C1675.27 563.808 1665.18 587.693 1659.32 611.772C1647.69 659.58 1652.26 711.229 1673.25 755.824C1684.18 779.044 1699.44 800.566 1720.89 815.142C1741.13 828.895 1764.67 836.581 1786.62 847.046C1797.83 852.395 1808.74 858.493 1818.54 866.145C1829.17 874.445 1838.57 884.182 1848.07 893.716C1857.06 902.716 1866.28 911.415 1876.6 918.878C1886.1 925.745 1896.26 931.632 1906.92 936.498C1949.71 956.038 2001.42 959.862 2045.69 942.751C2057.68 938.111 2068.93 931.458 2077.32 921.566C2084.77 912.788 2090.06 902.153 2092.62 890.936C2098.25 866.235 2090.73 840.347 2074.98 820.846C2060.56 802.992 2040.01 791.777 2019.84 781.633C1999.5 771.394 1978.35 761.717 1961.02 746.658C1924.21 714.696 1912.84 663.256 1918.01 616.428C1920.98 589.476 1931.9 563.501 1931.85 536.212C1931.82 523.929 1929.46 511.071 1922.92 500.506C1916.88 490.736 1907.63 484.345 1897.04 480.279C1886.59 476.266 1875.38 474.496 1864.23 473.787C1859.23 473.472 1860.27 465.746 1865.26 466.062C1888.29 467.527 1914.55 473.988 1928.16 494.313C1943.98 517.943 1940.39 547.68 1934.41 573.861C1931.34 587.304 1927.83 600.651 1926.1 614.35C1924.57 626.424 1924.16 638.627 1925.04 650.769C1926.78 674.749 1933.4 698.865 1946.89 718.986C1960.16 738.761 1979.32 752.01 2000.1 762.949C2020.94 773.906 2042.98 783.145 2061.8 797.511C2082.35 813.195 2097.45 835.579 2101.37 861.413C2105.07 885.76 2097.66 911.768 2080.47 929.658C2062.18 948.699 2034.33 956.53 2008.83 959.79C1984.84 962.847 1960.21 961.241 1936.8 955.236C1913.03 949.137 1890.42 938.765 1870.64 924.202C1848.95 908.235 1832.65 886.251 1811.02 870.252C1790.6 855.14 1766.19 847.07 1743.38 836.427C1732.08 831.153 1720.97 825.216 1711 817.674C1700.14 809.46 1690.8 799.307 1682.96 788.205C1653.32 746.206 1641.37 692.479 1646.34 641.659C1648.79 616.548 1655.45 591.721 1666.27 568.914C1672.05 556.74 1678.94 544.94 1687.45 534.456C1696.21 523.688 1706.71 514.708 1718.49 507.392C1743.24 492.02 1771.2 481.365 1799.44 474.463C1813.77 470.964 1828.35 468.522 1843.05 467.191C1856.4 465.981 1869.93 465.338 1883.17 467.849C1895.38 470.165 1907.12 474.812 1917.01 482.412C1920.99 485.472 1916.29 491.683 1912.3 488.624L1912.33 488.628Z" fill="#F5D0FE"/>
<path d="M1855.7 570.817C1852.01 588.609 1847.09 606.319 1846.2 624.56C1845.31 642.896 1849.55 660.947 1856.66 677.759C1863.86 694.81 1873.73 710.537 1884.3 725.672C1894.88 740.844 1905.83 756.171 1919.63 768.601C1933.46 781.06 1949.22 791.186 1962.48 804.316C1974.41 816.138 1984.53 830.948 1986.45 848.02C1988.17 863.328 1983.37 879.775 1970.61 889.214C1957.7 898.768 1940.47 899.502 1925.47 895.258C1909.03 890.606 1895.49 879.061 1883.55 867.303C1871.06 854.991 1859.33 841.981 1845.99 830.535C1839.27 824.767 1832.25 819.357 1824.8 814.566C1817.35 809.767 1809.46 805.81 1801.31 802.362C1784.7 795.336 1767.37 789.9 1751.99 780.258C1738.22 771.632 1726.25 759.918 1717.19 746.42C1706.95 731.146 1701.09 714.027 1697.56 696.067C1695.68 686.507 1694.28 676.841 1692.93 667.199C1691.65 658.03 1690.58 648.807 1690.32 639.543C1689.83 621.596 1692.71 604.073 1700.99 588.021C1708.7 573.065 1719.65 560.177 1731.68 548.528C1738.07 542.336 1744.73 536.272 1752.06 531.196C1760.05 525.667 1768.69 521.916 1778.07 519.444C1787.34 517.002 1797.06 515.273 1806.64 514.642C1815.64 514.044 1824.79 514.665 1833.29 517.882C1840.58 520.644 1847.51 525.35 1851.99 531.829C1857.32 539.547 1859.02 548.801 1858.42 558.042C1857.79 567.61 1854.94 576.916 1852.33 586.081C1851.75 588.109 1849.02 588.944 1847.23 588.198C1845.1 587.317 1844.53 585.132 1845.11 583.095C1849.62 567.327 1855.91 547.362 1843.39 533.563C1832.2 521.227 1813.69 521.183 1798.53 523.382C1789.43 524.704 1780.2 526.367 1771.56 529.612C1763.2 532.755 1755.88 537.656 1749.05 543.334C1736.68 553.61 1725.1 565.315 1715.85 578.505C1706.5 591.826 1700.3 606.77 1698.62 623.031C1696.77 640.916 1699.54 658.911 1702.19 676.575C1704.91 694.648 1708.14 712.825 1716.27 729.353C1723.1 743.244 1732.98 755.682 1744.91 765.524C1757.97 776.292 1773.19 782.864 1788.82 788.961C1796.94 792.129 1805.09 795.253 1812.96 799.032C1820.85 802.831 1828.4 807.355 1835.55 812.417C1849.79 822.493 1862.44 834.601 1874.61 847.054C1886.11 858.825 1897.26 871.284 1911.26 880.178C1923.7 888.089 1938.76 892.159 1953.36 888.736C1959.9 887.208 1966.2 883.758 1970.6 878.645C1975.13 873.397 1977.71 866.888 1978.61 860.059C1983.2 825.192 1949.2 802.634 1925.64 783.846C1918.43 778.098 1911.49 772.037 1905.19 765.298C1898.96 758.635 1893.32 751.455 1887.91 744.119C1877.15 729.532 1866.79 714.535 1858.1 698.596C1849.52 682.864 1842.74 665.974 1839.8 648.233C1836.86 630.552 1838.79 612.87 1842.38 595.447C1844.14 586.874 1846.17 578.351 1847.95 569.783C1848.38 567.72 1850.13 566.13 1852.33 566.425C1854.3 566.688 1856.11 568.733 1855.68 570.812L1855.7 570.817Z" fill="#F5D0FE"/>
<path d="M1805.57 604.984C1804.89 606.603 1804.26 608.252 1803.71 609.931C1803.44 610.766 1803.19 611.606 1802.95 612.452C1802.89 612.665 1802.84 612.878 1802.77 613.085C1802.79 613.035 1802.93 612.463 1802.82 612.904C1802.71 613.385 1802.58 613.861 1802.48 614.341C1801.68 617.767 1801.15 621.25 1800.86 624.756C1800.72 626.52 1800.64 628.284 1800.61 630.048C1800.61 630.491 1800.6 630.934 1800.61 631.375C1800.61 630.491 1800.62 631.744 1800.62 631.989C1800.65 632.878 1800.67 633.766 1800.73 634.651C1800.91 638.209 1801.32 641.745 1801.9 645.256C1802.49 648.767 1803.28 652.234 1804.2 655.667C1803.99 654.875 1804.33 656.153 1804.41 656.404C1804.54 656.874 1804.69 657.352 1804.83 657.821C1805.12 658.769 1805.41 659.707 1805.72 660.643C1806.33 662.516 1806.99 664.375 1807.68 666.222C1810.45 673.623 1813.78 680.796 1817.35 687.833C1820.91 694.856 1824.83 701.696 1828.46 708.686C1832.05 715.617 1834.82 723.011 1834.49 730.944C1834.2 737.78 1831.04 744.611 1825.3 748.46C1819.86 752.109 1813.17 753.303 1806.73 752.457C1792.68 750.602 1782.81 739.155 1774.87 728.325C1765.71 715.839 1757.06 702.824 1750.44 688.773C1743.78 674.662 1739.19 659.248 1738.59 643.582C1738.02 628.536 1740.53 612.241 1750.27 600.3C1754.78 594.775 1760.37 590.284 1766.18 586.235C1769.13 584.178 1772.12 582.161 1775.16 580.226C1778.74 577.938 1782.38 575.927 1786.49 574.798C1793.03 573.011 1800.9 574.401 1805.32 579.963C1807.48 582.688 1808.68 586.335 1809.17 589.741C1809.71 593.502 1809.19 597.017 1807.77 600.512C1806.37 603.983 1804.74 607.357 1803.44 610.868C1802.74 612.782 1800.24 613.853 1798.38 612.981C1796.42 612.06 1795.51 609.92 1796.27 607.873C1797.57 604.362 1799.2 600.988 1800.6 597.517C1800.77 597.108 1800.94 596.697 1801.09 596.289C1801.14 596.155 1801.54 595.027 1801.36 595.581C1801.19 596.094 1801.44 595.191 1801.47 594.997C1801.54 594.577 1801.6 594.159 1801.63 593.728C1801.65 593.433 1801.76 592.999 1801.68 592.719C1801.86 593.332 1801.69 593.237 1801.68 592.884C1801.67 592.689 1801.66 592.492 1801.65 592.288C1801.59 591.491 1801.49 590.7 1801.35 589.915C1801.28 589.568 1801.2 589.232 1801.13 588.895C1800.89 587.894 1801.28 589.308 1801.05 588.622C1800.81 587.889 1800.55 587.175 1800.23 586.47C1800.07 586.136 1799.9 585.812 1799.74 585.487C1799.43 584.866 1800.13 586.064 1799.63 585.328C1799.43 585.033 1799.21 584.754 1798.98 584.487C1798.9 584.388 1798.81 584.29 1798.72 584.191C1798.16 583.551 1799.16 584.548 1798.77 584.248C1798.48 584.027 1797.57 583.031 1797.19 583.069C1797.21 583.066 1798.03 583.505 1797.36 583.172C1797.2 583.091 1797.05 583.009 1796.89 582.929C1796.57 582.776 1796.24 582.64 1795.91 582.512C1795.64 582.414 1795.1 582.347 1794.89 582.171C1794.9 582.185 1795.62 582.346 1795.21 582.261C1795.03 582.223 1794.85 582.177 1794.67 582.146C1793.96 581.999 1793.24 581.902 1792.51 581.853C1792.19 581.833 1791.87 581.855 1791.56 581.818C1792.6 581.958 1791.56 581.842 1791.23 581.863C1790.46 581.923 1789.69 582.045 1788.94 582.204C1788.71 582.251 1788.49 582.307 1788.26 582.362C1788.2 582.369 1787.65 582.541 1788.08 582.409C1788.56 582.265 1787.86 582.488 1787.75 582.527C1787.52 582.597 1787.31 582.675 1787.09 582.752C1786.21 583.071 1785.35 583.434 1784.51 583.835C1783.71 584.214 1782.93 584.622 1782.16 585.06C1782.01 585.144 1781.86 585.236 1781.7 585.321C1781.61 585.373 1780.97 585.745 1781.36 585.509C1781.73 585.294 1781.22 585.6 1781.19 585.62C1780.89 585.804 1780.59 585.996 1780.29 586.187C1778.84 587.106 1777.41 588.061 1775.98 589.017C1770.42 592.715 1764.87 596.521 1760.04 601.16C1759.77 601.419 1759.5 601.685 1759.24 601.942C1759.16 602.024 1758.68 602.508 1759.02 602.153C1759.35 601.824 1758.97 602.208 1758.93 602.261C1758.34 602.887 1757.77 603.511 1757.21 604.164C1756.1 605.463 1755.06 606.822 1754.1 608.241C1753.67 608.877 1753.28 609.524 1752.88 610.178C1752.5 610.807 1752.81 610.307 1752.88 610.178C1752.78 610.374 1752.67 610.563 1752.56 610.759C1752.35 611.152 1752.15 611.543 1751.95 611.941C1751.19 613.484 1750.51 615.061 1749.92 616.682C1749.63 617.464 1749.37 618.259 1749.11 619.052C1749 619.422 1748.89 619.793 1748.78 620.172C1748.71 620.386 1748.65 620.599 1748.59 620.813C1748.5 621.142 1748.41 621.501 1748.55 620.961C1748.12 622.638 1747.76 624.33 1747.46 626.03C1746.82 629.615 1746.45 633.251 1746.31 636.886C1746.28 637.79 1746.25 638.686 1746.25 639.593C1746.25 639.704 1746.25 640.462 1746.25 639.973C1746.25 639.483 1746.26 640.24 1746.26 640.351C1746.26 640.832 1746.27 641.312 1746.29 641.791C1746.35 643.654 1746.46 645.525 1746.63 647.38C1746.98 651.106 1747.54 654.818 1748.29 658.488C1748.67 660.33 1749.09 662.158 1749.55 663.973C1749.66 664.385 1749.77 664.795 1749.88 665.198C1749.92 665.336 1750.09 665.943 1749.89 665.237C1749.95 665.473 1750.02 665.7 1750.08 665.936C1750.35 666.87 1750.63 667.795 1750.92 668.717C1752.03 672.235 1753.29 675.7 1754.7 679.105C1757.54 685.968 1760.91 692.598 1764.65 699.005C1764.75 699.18 1765.32 700.144 1764.96 699.531C1765.2 699.947 1765.45 700.355 1765.69 700.763C1766.19 701.587 1766.68 702.402 1767.19 703.217C1768.14 704.743 1769.1 706.259 1770.08 707.774C1772.11 710.888 1774.2 713.962 1776.35 717.005C1780.27 722.588 1784.24 728.228 1788.85 733.276C1789.34 733.822 1789.85 734.36 1790.36 734.89C1790.49 735.014 1791.43 735.926 1790.76 735.3C1791.07 735.589 1791.37 735.879 1791.67 736.169C1792.86 737.268 1794.09 738.313 1795.38 739.28C1796 739.747 1796.63 740.196 1797.28 740.628C1797.58 740.831 1797.89 741.025 1798.19 741.22C1798.37 741.329 1798.55 741.431 1798.72 741.541C1799.11 741.795 1798.15 741.241 1798.8 741.593C1800.13 742.317 1801.49 742.99 1802.91 743.512C1803.47 743.719 1804.36 743.817 1804.85 744.151C1804.84 744.145 1804.11 743.969 1804.54 744.068C1804.72 744.106 1804.9 744.16 1805.08 744.199C1805.47 744.294 1805.88 744.381 1806.29 744.458C1807.64 744.713 1809 744.864 1810.37 744.911C1810.56 744.918 1810.73 744.917 1810.92 744.922C1811.67 744.945 1810.75 744.945 1810.7 744.921C1810.92 745.025 1811.41 744.903 1811.65 744.884C1812.38 744.847 1813.1 744.772 1813.81 744.673C1814.48 744.581 1815.13 744.458 1815.79 744.305C1815.96 744.265 1816.13 744.217 1816.3 744.178C1816.6 744.106 1816.81 743.895 1816.07 744.242C1816.38 744.097 1816.75 744.029 1817.07 743.914C1817.69 743.694 1818.3 743.452 1818.9 743.172C1819.18 743.047 1819.45 742.907 1819.72 742.767C1819.87 742.683 1820.02 742.598 1820.17 742.514C1820.81 742.181 1819.69 742.833 1820.1 742.564C1820.64 742.197 1821.18 741.839 1821.69 741.437C1821.93 741.246 1822.16 741.048 1822.39 740.842C1822.52 740.729 1822.64 740.609 1822.78 740.489C1823.09 740.193 1823.29 740.291 1822.73 740.55C1823.19 740.345 1823.72 739.411 1824.01 739.016C1824.2 738.744 1824.39 738.465 1824.58 738.187C1824.66 738.065 1824.88 737.79 1824.9 737.676C1824.84 737.788 1824.77 737.908 1824.71 738.019C1824.78 737.89 1824.85 737.755 1824.92 737.619C1825.26 736.955 1825.56 736.267 1825.81 735.561C1825.93 735.229 1826.04 734.898 1826.15 734.568C1826.17 734.477 1826.3 734.231 1826.27 734.131C1826.16 734.582 1826.14 734.664 1826.21 734.385C1826.24 734.239 1826.28 734.092 1826.31 733.945C1826.64 732.455 1826.78 730.951 1826.85 729.426C1826.88 728.688 1826.86 729.424 1826.86 729.558C1826.87 729.36 1826.85 729.149 1826.85 728.944C1826.84 728.583 1826.82 728.23 1826.79 727.87C1826.74 727.057 1826.64 726.242 1826.51 725.438C1826.39 724.666 1826.24 723.898 1826.05 723.141C1826 722.904 1825.94 722.676 1825.88 722.439C1825.84 722.294 1825.65 721.705 1825.87 722.408C1825.73 721.946 1825.6 721.483 1825.44 721.031C1824.85 719.258 1824.15 717.523 1823.38 715.831C1820.25 708.984 1816.33 702.501 1812.83 695.848C1805.71 682.299 1799.27 668.3 1795.7 653.337C1792.5 639.91 1791.73 625.459 1795.15 612.015C1796.03 608.586 1797.09 605.234 1798.46 601.981C1799.26 600.102 1801.61 598.964 1803.53 599.868C1805.41 600.752 1806.49 602.963 1805.64 604.976L1805.57 604.984Z" fill="#F5D0FE"/>
<path d="M68.6421 709.397C68.7238 707.21 69.1607 705.048 70.0468 703.027C72.1375 698.263 76.5926 695.845 80.917 693.385C85.6211 690.706 90.3089 687.999 95.009 685.316C103.915 680.227 112.878 675.227 122.095 670.707C126.893 668.353 131.756 666.126 136.689 664.061C141.822 661.914 147.044 659.683 152.488 658.443C157.269 657.353 162.129 657.39 166.788 658.971C170.798 660.333 174.416 662.711 177.589 665.475C184.571 671.569 189.345 679.369 194.678 686.816C200.701 695.227 207.398 703.133 213.384 711.572C216.271 715.641 219.007 719.836 221.331 724.251C221.915 725.36 222.392 726.555 223.038 727.624C223.769 728.836 224.642 729.982 225.435 731.157C227.031 733.515 228.624 735.872 230.212 738.23C236.734 747.921 243.194 757.652 249.588 767.424C255.852 776.997 262.116 786.583 268.193 796.278C273.66 805.009 278.924 814.269 280.643 824.553C282.08 833.143 280.778 842.756 275.404 849.842C272.411 853.789 268.209 856.451 263.803 858.597C258.817 861.028 253.651 863.126 248.567 865.345C237.795 870.053 227.093 874.979 216.218 879.451C211.567 881.365 206.643 883.048 201.571 883.121C199.974 883.134 198.398 882.999 196.834 882.662C196.797 882.654 196.761 882.646 196.724 882.638C196.405 882.564 196.087 882.487 195.772 882.402C195.678 882.377 195.58 882.345 195.487 882.321C195.278 882.26 195.066 882.199 194.862 882.134C194.727 882.093 194.596 882.048 194.462 882.004C194.29 881.947 194.119 881.886 193.947 881.821C193.812 881.772 193.678 881.723 193.543 881.67C193.265 881.565 192.992 881.451 192.722 881.337C192.632 881.296 192.542 881.256 192.453 881.215C192.232 881.117 192.016 881.016 191.799 880.914C191.722 880.878 191.648 880.841 191.571 880.804C188.1 879.093 185.021 876.597 182.301 873.837C177.907 869.374 174.334 864.219 170.729 859.13C170.034 858.15 169.34 857.167 168.642 856.187C162.096 846.943 155.554 837.7 149.009 828.456C138.53 813.659 128.06 798.855 117.435 784.16C117.194 783.827 116.958 783.497 116.717 783.164C116.423 782.758 116.125 782.351 115.831 781.945C114.267 779.786 112.694 777.628 111.122 775.473C110.555 774.693 109.987 773.912 109.415 773.136C109.138 772.754 108.86 772.372 108.578 771.989C106.81 769.579 105.038 767.177 103.258 764.774C102.98 764.4 102.702 764.026 102.425 763.652C100.64 761.25 98.8515 758.851 97.0548 756.461C96.4178 755.612 95.7767 754.762 95.1356 753.917C93.5839 751.86 92.024 749.807 90.46 747.754C90.0517 747.218 89.6474 746.677 89.235 746.14C89.0512 745.901 88.8675 745.665 88.6837 745.429C88.406 745.067 88.1284 744.701 87.8507 744.34C84.4451 739.913 80.9415 735.559 77.5767 731.1C77.2705 730.694 76.9683 730.287 76.6661 729.876C76.4334 729.555 76.1965 729.234 75.9638 728.909C75.8984 728.82 75.8372 728.73 75.7718 728.641C75.5717 728.356 75.3716 728.072 75.1756 727.787C75.1307 727.722 75.0899 727.657 75.045 727.596C71.3617 722.198 68.4665 716.222 68.6421 709.535C68.6421 709.491 68.638 709.446 68.6339 709.401L68.6421 709.397ZM98.3656 740.088C101.281 743.689 104.164 747.315 107.01 750.974C118.583 765.831 129.441 781.188 139.976 796.786C149.96 811.566 159.858 826.427 170.859 840.492C176.372 847.541 182.17 854.374 188.365 860.841C191.183 863.78 194.115 867.158 198.116 868.455C202.637 869.922 207.202 867.89 211.232 865.963C219.991 861.772 228.685 857.443 237.301 852.968C245.942 848.48 254.586 843.935 263.023 839.073C264.738 838.086 266.416 836.899 267.584 835.277C267.927 834.797 268.262 834.269 268.323 833.675C268.372 833.208 268.331 832.708 268.315 832.236C268.282 831.342 268.201 830.452 268.086 829.566C267.547 825.342 266.318 821.24 264.881 817.237C263.464 813.289 261.871 809.424 259.838 805.745C257.629 801.749 255.064 797.96 252.488 794.196C241.221 777.749 229.939 761.311 218.664 744.868C207.406 728.454 196.152 712.039 184.894 695.625C183.461 693.536 182.027 691.446 180.594 689.357C179.353 687.548 178.169 685.666 176.739 683.995C175.453 682.491 173.877 681.243 171.978 680.613C169.945 679.934 167.764 680.036 165.677 680.365C161.81 680.975 157.911 682.199 154.203 683.438C150.642 684.629 147.106 686.097 143.982 688.198C140.915 690.263 138.445 692.865 136.542 696.023C134.864 698.812 133.218 702.568 129.682 703.308C127.403 703.783 125.014 702.962 122.813 702.442C120.616 701.922 118.387 701.531 116.141 701.296C111.71 700.832 107.116 701.06 102.861 702.454C95.8624 704.743 89.6433 710.58 88.6715 718.096C87.5771 726.572 93.3511 733.897 98.3615 740.088H98.3656Z" fill="#F5D0FE"/>
<path d="M66.4416 715.043C66.4661 715.173 66.4988 715.299 66.5233 715.43C66.5478 715.552 66.5723 715.673 66.6008 715.791C67.8749 721.657 71.1539 726.872 74.7188 731.665C74.7514 731.706 74.78 731.75 74.8127 731.795C74.8617 731.86 74.9107 731.921 74.9556 731.986C75.3272 732.482 75.6988 732.974 76.0745 733.462C76.1153 733.515 76.1561 733.567 76.2011 733.624C77.6384 735.515 79.0921 737.388 80.5581 739.254C83.343 742.836 86.1238 746.413 88.8802 750.018C89.3743 750.669 89.8725 751.315 90.3666 751.965C92.4981 754.774 94.6215 757.591 96.7327 760.416C97.2921 761.16 97.8434 761.912 98.4028 762.656C99.9954 764.799 101.588 766.941 103.172 769.087C103.842 769.994 104.512 770.904 105.177 771.811C106.807 774.026 108.432 776.245 110.049 778.469C110.523 779.119 111 779.77 111.47 780.42C113.503 783.217 115.529 786.018 117.55 788.827C120.343 792.7 123.12 796.582 125.897 800.469C132.373 809.537 138.813 818.631 145.252 827.728C149.883 834.265 154.51 840.805 159.14 847.346C163.53 853.545 167.842 859.801 172.33 865.931C172.709 866.451 173.097 866.971 173.485 867.492C173.51 867.524 173.534 867.557 173.559 867.589C173.759 867.857 173.967 868.126 174.171 868.394C175.409 870.016 176.683 871.605 178.03 873.138C180.542 876 183.371 878.682 186.507 880.837C186.634 880.926 186.765 881.012 186.895 881.097C186.997 881.166 187.1 881.231 187.202 881.3C189.313 882.686 191.563 883.821 193.964 884.601C194.021 884.621 194.078 884.638 194.135 884.654C194.421 884.743 194.707 884.833 194.993 884.91C195.258 884.983 195.524 885.052 195.789 885.117C195.859 885.134 195.928 885.15 195.997 885.166C196.038 885.174 196.079 885.186 196.124 885.195C182.763 888.451 169.659 879.378 160.316 870.845C150.295 861.691 142.329 850.626 134.378 839.716C125.17 827.078 115.958 814.44 106.741 801.802C102.151 795.509 97.5616 789.213 92.9759 782.92C88.9496 777.396 84.9519 771.851 81.2115 766.128C73.7632 754.73 67.3195 742.51 64.4652 729.112C63.7873 725.836 63.2851 722.373 63.8894 719.043C64.2651 716.97 65.09 715.096 66.1762 713.356C66.2415 713.873 66.3191 714.385 66.4171 714.893C66.4252 714.946 66.4334 714.999 66.4416 715.052V715.043Z" fill="#F472B6"/>
<path d="M91.4153 717.657C92.0932 714.222 94.0655 711.234 96.6707 708.926C102.947 703.369 111.927 702.974 119.804 704.495C123.924 705.291 128.411 707.198 132.45 705.1C135.566 703.483 137.175 700.105 138.906 697.243C142.72 690.934 149.294 687.747 156.122 685.589C157.869 685.036 159.634 684.544 161.402 684.072C163.337 683.556 165.301 682.975 167.302 682.796C169.34 682.617 171.373 682.865 173.052 684.105C174.497 685.17 175.555 686.694 176.564 688.154C182.088 696.174 187.581 704.214 193.089 712.247C204.033 728.202 214.973 744.157 225.912 760.112C231.4 768.115 236.888 776.119 242.377 784.119C245.08 788.058 247.783 791.997 250.482 795.94C252.994 799.615 255.485 803.318 257.628 807.22C259.613 810.83 261.152 814.619 262.52 818.493C263.852 822.261 265.06 826.171 265.501 830.155C265.612 831.13 265.579 832.118 265.673 833.094C265.681 833.183 265.689 833.248 265.697 833.293C265.685 833.305 265.673 833.321 265.656 833.354C265.563 833.557 265.42 833.752 265.285 833.931C265.036 834.256 264.738 834.553 264.44 834.83C262.929 836.236 261.005 837.159 259.217 838.155C255.109 840.443 250.98 842.699 246.836 844.927C238.44 849.435 229.971 853.805 221.437 858.041C217.243 860.122 213.041 862.203 208.798 864.183C206.814 865.109 204.703 866.004 202.502 866.24C200.411 866.463 198.475 865.963 196.699 864.866C194.964 863.788 193.514 862.313 192.089 860.862C190.615 859.362 189.165 857.837 187.732 856.297C184.763 853.098 181.884 849.813 179.083 846.468C173.513 839.809 168.262 832.899 163.186 825.862C153.002 811.737 143.545 797.115 133.638 782.798C123.07 767.522 111.918 752.648 100.227 738.205C97.761 735.161 95.3191 732.051 93.4979 728.567C91.7624 725.246 90.6639 721.397 91.399 717.649L91.4153 717.657ZM211.73 849.378C214.466 848.094 217.169 846.748 219.84 845.338C224.605 842.821 229.261 840.102 233.793 837.187C236.064 835.728 238.277 834.183 240.515 832.679C241.576 831.964 242.662 831.293 243.822 830.752C245.01 830.204 246.305 829.862 247.595 829.651C248.306 829.533 248.698 828.655 248.522 828.025C248.318 827.285 247.595 826.984 246.889 827.102C243.765 827.614 241.078 829.078 238.506 830.85C230.404 836.427 221.963 841.439 213.131 845.768C212.62 845.081 211.457 844.846 210.91 845.813C210.579 846.398 210.244 846.984 209.913 847.569C209.223 848.789 210.571 849.923 211.73 849.378ZM192.967 806.391C195.225 809.411 199.235 811.314 203.033 810.737C204.686 810.485 206.116 809.611 207.1 808.269C208.133 806.863 208.484 805.046 208.823 803.375C209.231 801.375 209.521 799.286 209.003 797.277C208.778 796.408 208.398 795.534 207.888 794.79C207.251 793.859 205.842 793.834 204.801 793.753C202.837 793.603 200.766 793.92 198.863 794.4C197.083 794.847 195.376 795.611 194 796.838C192.705 797.993 191.799 799.558 191.583 801.281C191.354 803.078 191.926 804.924 192.971 806.391H192.967ZM178.291 801.16C178.503 800.952 178.716 800.749 178.924 800.542C179.557 799.924 179.357 799.131 178.85 798.668C179.169 796.615 179.863 794.623 180.9 792.818C183.195 788.822 187.087 785.944 191.57 784.839C194.192 784.192 196.895 784.294 199.562 784.595C200.942 784.749 202.322 784.953 203.69 785.184C204.396 785.302 205.099 785.432 205.805 785.566C206.156 785.635 206.508 785.705 206.859 785.778C206.928 785.794 207.091 785.847 207.21 785.859C207.778 786.892 209.709 786.68 209.709 785.229C209.709 783.172 206.94 783.087 205.458 782.818C203.649 782.489 201.824 782.217 199.999 781.997C196.92 781.627 193.808 781.546 190.782 782.31C188.091 782.989 185.584 784.249 183.403 785.948C178.997 789.379 176.351 794.692 176.029 800.225C175.959 801.403 177.511 801.92 178.295 801.16H178.291ZM162.341 798.131C162.986 798.306 163.848 797.912 163.974 797.208C164.717 793.091 165.469 788.794 167.719 785.184C169.793 781.851 173.207 779.701 176.437 777.603C179.806 775.416 183.338 773.396 187.332 772.628C191.501 771.827 195.923 771.855 200.133 772.274C204.347 772.697 208.5 773.689 212.473 775.14C213.151 775.388 213.927 774.863 214.107 774.217C214.307 773.489 213.854 772.839 213.18 772.591C208.431 770.855 203.437 769.819 198.39 769.485C196.164 769.339 193.935 769.335 191.709 769.477C189.402 769.624 187.062 769.867 184.837 770.506C180.725 771.68 177.074 773.997 173.55 776.343C170.05 778.672 166.743 781.229 164.762 785.022C162.896 788.595 162.124 792.578 161.418 796.505C161.291 797.208 161.602 797.928 162.345 798.131H162.341ZM149.605 788.278C150.274 788.461 151.075 788.05 151.238 787.355C152.516 781.896 154.664 776.68 157.62 771.908C158.919 769.811 160.36 767.798 161.961 765.92C162.77 764.969 163.627 764.022 164.624 763.262C165.64 762.49 166.808 761.925 167.964 761.396C172.856 759.164 177.883 756.925 183.256 756.185C186.033 755.803 188.855 755.774 191.652 755.831C194.265 755.88 196.879 756.026 199.476 756.331C204.519 756.925 209.546 758.193 214.046 760.575C214.683 760.912 215.487 760.738 215.863 760.099C216.214 759.502 216.018 758.628 215.385 758.29C209.921 755.396 203.845 754.055 197.72 753.502C194.996 753.254 192.26 753.156 189.529 753.165C186.56 753.173 183.575 753.368 180.659 753.957C177.874 754.522 175.183 755.461 172.558 756.534C171.214 757.083 169.879 757.66 168.552 758.25C167.286 758.811 166 759.351 164.783 760.022C162.369 761.355 160.556 763.384 158.878 765.522C157.253 767.587 155.767 769.754 154.456 772.03C151.83 776.587 149.87 781.538 148.674 786.652C148.51 787.351 148.886 788.083 149.6 788.278H149.605Z" fill="#A78BFA"/>
<path d="M198.12 868.447C194.118 867.146 191.186 863.772 188.369 860.833C182.174 854.37 176.376 847.532 170.863 840.484C159.862 826.423 149.964 811.562 139.98 796.777C129.445 781.18 118.587 765.823 107.014 750.965C104.168 747.311 101.285 743.681 98.3695 740.079C93.3591 733.892 87.5851 726.567 88.6795 718.088C89.6513 710.572 95.8704 704.734 102.869 702.446C107.124 701.056 111.718 700.824 116.149 701.287C118.395 701.523 120.624 701.913 122.821 702.434C125.022 702.954 127.407 703.775 129.69 703.3C133.226 702.56 134.872 698.8 136.55 696.015C138.453 692.857 140.923 690.255 143.99 688.19C147.114 686.089 150.65 684.621 154.211 683.43C157.919 682.19 161.818 680.967 165.685 680.357C167.772 680.028 169.953 679.926 171.986 680.605C173.885 681.239 175.465 682.483 176.747 683.987C178.177 685.662 179.361 687.54 180.602 689.349C182.035 691.438 183.469 693.527 184.902 695.617C196.16 712.031 207.414 728.445 218.672 744.86C229.947 761.302 241.229 777.737 252.496 794.188C255.076 797.952 257.641 801.741 259.846 805.737C261.875 809.415 263.468 813.277 264.889 817.228C266.326 821.228 267.551 825.33 268.094 829.557C268.209 830.443 268.29 831.334 268.323 832.228C268.339 832.695 268.38 833.195 268.331 833.667C268.27 834.26 267.935 834.789 267.592 835.268C266.424 836.89 264.746 838.073 263.031 839.065C254.594 843.927 245.95 848.471 237.309 852.959C228.693 857.435 219.999 861.764 211.24 865.955C207.214 867.882 202.645 869.91 198.124 868.447H198.12ZM202.506 866.248C204.707 866.012 206.818 865.113 208.803 864.191C213.049 862.211 217.247 860.13 221.441 858.049C229.979 853.813 238.444 849.443 246.84 844.935C250.985 842.711 255.113 840.455 259.221 838.163C261.01 837.167 262.933 836.244 264.444 834.838C264.746 834.557 265.04 834.264 265.289 833.939C265.424 833.764 265.567 833.565 265.661 833.362C265.677 833.33 265.689 833.309 265.701 833.301C265.693 833.256 265.685 833.195 265.677 833.102C265.583 832.126 265.612 831.143 265.505 830.163C265.064 826.179 263.852 822.269 262.524 818.501C261.157 814.623 259.613 810.838 257.632 807.228C255.489 803.326 252.998 799.623 250.486 795.948C247.787 792.005 245.084 788.066 242.381 784.127C236.893 776.123 231.404 768.119 225.916 760.12C214.977 744.165 204.033 728.21 193.093 712.255C187.585 704.222 182.093 696.182 176.568 688.162C175.563 686.702 174.506 685.178 173.056 684.113C171.374 682.873 169.34 682.621 167.306 682.804C165.301 682.983 163.341 683.564 161.406 684.08C159.638 684.552 157.874 685.044 156.126 685.597C149.298 687.755 142.72 690.942 138.91 697.251C137.179 700.113 135.57 703.491 132.454 705.108C128.411 707.206 123.928 705.3 119.808 704.503C111.935 702.982 102.955 703.381 96.6749 708.934C94.0696 711.238 92.0932 714.226 91.4195 717.665C90.6804 721.417 91.7829 725.263 93.5184 728.584C95.3355 732.067 97.7815 735.177 100.248 738.222C111.939 752.664 123.091 767.538 133.659 782.814C143.561 797.131 153.022 811.753 163.207 825.878C168.278 832.915 173.534 839.829 179.104 846.484C181.905 849.829 184.784 853.114 187.752 856.313C189.182 857.853 190.635 859.378 192.109 860.878C193.53 862.325 194.98 863.805 196.72 864.882C198.496 865.983 200.431 866.479 202.522 866.256L202.506 866.248Z" fill="#A78BFA" stroke="#A78BFA" stroke-width="3"/>
<path d="M210.91 845.817C211.457 844.849 212.621 845.085 213.131 845.772C221.96 841.443 230.404 836.427 238.506 830.854C241.079 829.081 243.766 827.618 246.889 827.106C247.596 826.992 248.319 827.289 248.523 828.029C248.698 828.659 248.306 829.537 247.596 829.655C246.305 829.866 245.011 830.203 243.823 830.756C242.663 831.293 241.573 831.968 240.515 832.683C238.277 834.191 236.064 835.732 233.794 837.191C229.261 840.102 224.606 842.821 219.841 845.341C217.17 846.752 214.467 848.097 211.731 849.382C210.571 849.927 209.224 848.792 209.914 847.573C210.244 846.988 210.579 846.402 210.91 845.817Z" fill="#A78BFA" stroke="#A78BFA" stroke-width="3"/>
<path d="M61.333 718.328C61.9701 714.816 63.8158 711.816 66.0045 709.064C66.1066 706.999 66.4864 704.958 67.2051 703.019C69.0385 698.088 72.8157 694.995 77.2585 692.422C86.675 686.962 96.12 681.523 105.667 676.288C115.059 671.138 124.631 666.312 134.5 662.13C144.248 658 154.995 653.04 165.78 655.898C174.559 658.223 181.513 664.76 187.059 671.629C189.999 675.268 192.579 679.141 195.226 682.991C198.182 687.292 201.367 691.434 204.568 695.556C211.029 703.881 217.701 712.169 222.813 721.413C223.422 722.515 224.006 723.628 224.561 724.758C225.186 726.031 225.921 727.157 226.717 728.336C228.4 730.815 230.078 733.295 231.752 735.779C235.1 740.746 238.429 745.725 241.744 750.713C248.372 760.693 254.934 770.717 261.427 780.782C267.482 790.172 274.049 799.493 278.667 809.696C282.73 818.675 284.96 828.423 283.163 838.244C282.358 842.646 280.696 846.971 278.095 850.634C275.212 854.691 271.284 857.679 266.902 859.992C261.896 862.638 256.563 864.723 251.377 866.987C245.791 869.43 240.201 871.869 234.615 874.312C229.094 876.723 223.597 879.198 218.044 881.536C212.956 883.678 207.643 885.572 202.069 885.755C195.912 888.95 188.668 889.129 182.065 887.247C175.343 885.328 169.316 881.52 163.848 877.276C152.978 868.837 144.448 857.878 136.354 846.882C127.052 834.248 117.864 821.525 108.619 808.85C103.928 802.411 99.2316 795.972 94.5397 789.534C90.2643 783.672 85.9563 777.831 81.8606 771.843C74.053 760.424 66.9315 748.258 63.1584 734.872C62.6847 733.197 62.2722 731.506 61.9088 729.803C61.1289 726.031 60.6389 722.153 61.333 718.328ZM248.568 865.349C253.652 863.13 258.817 861.032 263.803 858.601C268.209 856.451 272.411 853.792 275.404 849.845C280.778 842.76 282.081 833.147 280.643 824.557C278.924 814.273 273.661 805.009 268.193 796.281C262.117 786.586 255.853 777.005 249.589 767.428C243.194 757.656 236.734 747.925 230.213 738.234C228.624 735.872 227.032 733.514 225.435 731.161C224.643 729.99 223.769 728.84 223.038 727.628C222.393 726.559 221.915 725.364 221.331 724.254C219.008 719.836 216.272 715.645 213.385 711.576C207.398 703.137 200.701 695.231 194.678 686.82C189.345 679.373 184.572 671.572 177.589 665.479C174.42 662.715 170.798 660.337 166.788 658.975C162.125 657.394 157.27 657.357 152.488 658.447C147.045 659.687 141.822 661.918 136.689 664.064C131.756 666.129 126.893 668.357 122.095 670.711C112.879 675.231 103.919 680.231 95.0093 685.32C90.3093 688.003 85.6215 690.71 80.9173 693.389C76.5929 695.852 72.142 698.267 70.0471 703.031C69.161 705.051 68.7241 707.214 68.6424 709.401C68.6465 709.446 68.6506 709.486 68.6506 709.535C68.475 716.222 71.3702 722.197 75.0535 727.596C75.0984 727.661 75.1392 727.726 75.1841 727.787C75.3801 728.075 75.5802 728.36 75.7803 728.64C75.8456 728.73 75.9069 728.819 75.9722 728.909C76.205 729.234 76.4418 729.555 76.6746 729.876C76.9768 730.287 77.2789 730.693 77.5852 731.1C80.95 735.555 84.4536 739.909 87.8592 744.339C88.1369 744.701 88.4145 745.067 88.6922 745.429C88.876 745.665 89.0597 745.904 89.2435 746.14C89.6559 746.677 90.0602 747.217 90.4685 747.754C92.0325 749.803 93.5924 751.855 95.1441 753.916C95.7852 754.766 96.4263 755.611 97.0633 756.461C98.86 758.851 100.649 761.25 102.433 763.652C102.711 764.026 102.992 764.4 103.266 764.774C105.046 767.176 106.819 769.579 108.587 771.989C108.864 772.371 109.142 772.753 109.424 773.136C109.996 773.916 110.563 774.692 111.131 775.473C112.703 777.627 114.271 779.782 115.839 781.944C116.133 782.351 116.431 782.757 116.725 783.164C116.966 783.497 117.203 783.826 117.444 784.16C119.861 787.501 122.27 790.855 124.672 794.208C125.839 795.838 127.007 797.477 128.175 799.107C129.363 800.773 130.556 802.436 131.74 804.102C133.226 806.188 134.709 808.273 136.191 810.358C136.967 811.452 137.743 812.541 138.514 813.635C142.018 818.574 145.518 823.513 149.017 828.456C155.563 837.699 162.105 846.943 168.65 856.187C169.345 857.166 170.039 858.15 170.737 859.13C174.343 864.223 177.916 869.378 182.31 873.837C184.686 876.251 187.336 878.459 190.285 880.121C190.293 880.121 190.297 880.129 190.305 880.133C190.726 880.369 191.15 880.593 191.579 880.808C191.657 880.845 191.73 880.881 191.808 880.918C192.024 881.024 192.245 881.121 192.461 881.219C192.551 881.259 192.641 881.3 192.731 881.341C193.004 881.459 193.278 881.568 193.551 881.674C193.686 881.727 193.821 881.776 193.956 881.824C194.127 881.885 194.299 881.946 194.47 882.007C194.601 882.052 194.736 882.097 194.87 882.137C195.079 882.202 195.287 882.268 195.495 882.324C195.589 882.353 195.687 882.381 195.781 882.406C196.095 882.491 196.414 882.568 196.732 882.642C196.769 882.65 196.806 882.658 196.843 882.666C198.402 883.003 199.983 883.137 201.579 883.125C206.651 883.056 211.576 881.369 216.227 879.455C227.097 874.979 237.804 870.056 248.576 865.349H248.568ZM92.9758 782.908C97.5615 789.204 102.151 795.497 106.741 801.789C115.953 814.427 125.166 827.065 134.378 839.703C142.324 850.614 150.295 861.678 160.316 870.833C169.655 879.365 182.763 888.438 196.124 885.182C196.083 885.174 196.042 885.162 195.997 885.154C195.928 885.137 195.858 885.121 195.789 885.105C195.524 885.04 195.258 884.971 194.993 884.893C194.703 884.812 194.417 884.727 194.135 884.637C194.078 884.621 194.021 884.601 193.964 884.585C191.563 883.804 189.313 882.67 187.202 881.284C187.099 881.219 186.997 881.15 186.895 881.081C186.765 880.995 186.638 880.906 186.507 880.82C186.201 880.609 185.899 880.394 185.601 880.17C182.824 878.138 180.296 875.703 178.03 873.121C176.683 871.589 175.409 869.995 174.171 868.378C173.967 868.109 173.763 867.841 173.559 867.573C173.534 867.54 173.51 867.508 173.485 867.475C173.093 866.955 172.705 866.434 172.33 865.914C167.846 859.784 163.53 853.528 159.14 847.329C154.509 840.789 149.883 834.252 145.252 827.712C138.813 818.618 132.373 809.521 125.897 800.452C123.12 796.566 120.339 792.684 117.55 788.81C115.529 786.005 113.503 783.204 111.47 780.404C110.996 779.753 110.522 779.103 110.049 778.452C108.428 776.229 106.806 774.009 105.177 771.794C104.507 770.884 103.842 769.977 103.172 769.071C101.588 766.924 99.9993 764.778 98.4027 762.64C97.8473 761.892 97.292 761.144 96.7325 760.4C94.6214 757.575 92.5021 754.758 90.3664 751.949C89.8723 751.299 89.3742 750.652 88.8801 750.002C86.1237 746.4 83.3388 742.819 80.558 739.238C79.092 737.372 77.6342 735.494 76.2009 733.608C76.1601 733.555 76.1192 733.502 76.0743 733.445C75.6986 732.957 75.3271 732.466 74.9555 731.97C74.9065 731.905 74.8575 731.844 74.8125 731.779C74.7799 731.738 74.7513 731.693 74.7186 731.649C71.7173 727.612 68.9242 723.279 67.3521 718.511C67.348 718.494 67.3398 718.478 67.3357 718.462C67.3276 718.433 67.3194 718.405 67.3112 718.376C67.1887 717.994 67.0703 717.608 66.9641 717.222C66.9519 717.177 66.9396 717.137 66.9274 717.092C66.809 716.657 66.6987 716.218 66.6007 715.775C66.5721 715.653 66.5476 715.535 66.5231 715.413C66.4986 715.283 66.466 715.157 66.4414 715.027C66.4333 714.974 66.4251 714.921 66.4169 714.868C66.3557 714.523 66.3026 714.173 66.2536 713.824C66.2291 713.657 66.1965 713.494 66.176 713.332C65.0939 715.072 64.2691 716.946 63.8893 719.019C63.2849 722.348 63.7872 725.811 64.4651 729.088C67.3194 742.486 73.7631 754.701 81.2113 766.103C84.9518 771.823 88.9495 777.371 92.9758 782.895V782.908Z" fill="#A78BFA" stroke="#A78BFA" stroke-width="3"/>
<path d="M192.967 806.391C191.921 804.928 191.354 803.078 191.578 801.281C191.799 799.558 192.701 797.993 193.996 796.838C195.372 795.611 197.079 794.846 198.859 794.399C200.762 793.92 202.832 793.599 204.797 793.753C205.838 793.834 207.247 793.859 207.884 794.79C208.39 795.533 208.774 796.407 208.999 797.277C209.517 799.285 209.227 801.375 208.819 803.375C208.48 805.049 208.129 806.862 207.096 808.269C206.112 809.61 204.682 810.484 203.028 810.736C199.231 811.31 195.225 809.411 192.963 806.391H192.967Z" fill="#FDE68A"/>
<path d="M207.206 785.859C207.092 785.842 206.925 785.79 206.855 785.777C206.504 785.704 206.153 785.635 205.802 785.566C205.099 785.428 204.393 785.302 203.686 785.184C202.314 784.952 200.938 784.749 199.558 784.595C196.892 784.294 194.188 784.192 191.567 784.838C187.083 785.944 183.196 788.822 180.897 792.818C179.859 794.623 179.165 796.615 178.847 798.667C179.353 799.131 179.553 799.923 178.92 800.541C178.708 800.749 178.496 800.952 178.287 801.159C177.503 801.919 175.952 801.403 176.021 800.224C176.344 794.692 178.99 789.379 183.396 785.948C185.576 784.249 188.084 782.985 190.775 782.31C193.804 781.546 196.912 781.631 199.991 781.997C201.82 782.216 203.642 782.489 205.451 782.814C206.933 783.082 211.644 783.96 211.648 786.021C211.474 787.348 208.466 786.021 207.202 785.855L207.206 785.859Z" fill="#A78BFA" stroke="#FDE68A" stroke-width="3"/>
<path d="M164.758 785.018C166.739 781.225 170.046 778.672 173.546 776.339C177.07 773.993 180.72 771.676 184.833 770.502C187.058 769.863 189.398 769.619 191.705 769.473C193.93 769.331 196.164 769.335 198.386 769.481C203.433 769.815 208.427 770.851 213.176 772.587C213.85 772.835 214.303 773.485 214.103 774.213C213.923 774.859 213.147 775.384 212.469 775.136C208.496 773.68 204.343 772.688 200.129 772.27C195.919 771.847 191.497 771.823 187.328 772.623C183.334 773.392 179.802 775.416 176.433 777.599C173.203 779.696 169.793 781.847 167.715 785.18C165.465 788.79 164.713 793.086 163.97 797.204C163.844 797.908 162.982 798.306 162.337 798.127C161.594 797.924 161.283 797.204 161.41 796.501C162.116 792.574 162.888 788.591 164.754 785.018H164.758Z" fill="#A78BFA" stroke="#FDE68A" stroke-width="3"/>
<path d="M214.05 760.575C209.55 758.193 204.523 756.921 199.48 756.331C196.883 756.026 194.27 755.88 191.656 755.831C188.859 755.778 186.037 755.803 183.261 756.185C177.887 756.929 172.86 759.168 167.968 761.396C166.812 761.925 165.64 762.49 164.628 763.262C163.631 764.022 162.774 764.969 161.965 765.92C160.365 767.802 158.923 769.811 157.625 771.908C154.668 776.68 152.52 781.896 151.242 787.355C151.079 788.05 150.279 788.461 149.609 788.278C148.894 788.083 148.519 787.351 148.682 786.652C149.878 781.538 151.838 776.587 154.464 772.03C155.775 769.754 157.261 767.591 158.886 765.522C160.569 763.384 162.378 761.355 164.791 760.022C166.004 759.351 167.29 758.815 168.56 758.25C169.887 757.66 171.218 757.083 172.566 756.534C175.192 755.461 177.883 754.522 180.668 753.957C183.583 753.368 186.564 753.177 189.537 753.165C192.269 753.156 195.009 753.254 197.728 753.502C203.853 754.059 209.93 755.396 215.393 758.29C216.026 758.624 216.222 759.502 215.871 760.099C215.495 760.738 214.691 760.908 214.054 760.575H214.05Z" fill="#A78BFA" stroke="#FDE68A" stroke-width="3"/>
<path d="M141.903 873.162C146.199 877.45 150.793 881.442 155.673 885.056C158.204 886.93 160.814 888.694 163.447 890.422C165.963 892.068 168.491 893.722 171.247 894.938C174.06 896.178 177.196 896.832 180.202 895.922C181.839 895.426 182.542 897.978 180.908 898.47C174.775 900.324 168.691 896.966 163.692 893.735C158.245 890.214 152.945 886.503 147.979 882.328C145.223 880.011 142.569 877.572 140.021 875.028C138.812 873.82 140.69 871.951 141.899 873.158L141.903 873.162Z" fill="#A78BFA" stroke="#A78BFA" stroke-width="3"/>
<path d="M111.649 831.899C116.974 838.716 121.785 845.899 126.57 853.098C127.955 855.179 129.339 857.264 130.723 859.345C131.119 859.943 130.842 860.809 130.246 861.154C129.596 861.532 128.824 861.276 128.428 860.679C123.696 853.557 119.036 846.374 114.022 839.443C112.638 837.529 111.225 835.63 109.771 833.769C109.33 833.208 109.22 832.448 109.771 831.899C110.228 831.444 111.204 831.334 111.649 831.899Z" fill="#A78BFA" stroke="#A78BFA" stroke-width="3"/>
<path d="M220.653 694.43C219.91 694.633 219.269 694.178 219.02 693.507C218.06 690.938 216.243 688.751 214.606 686.584C212.711 684.076 210.812 681.568 208.918 679.06C205.149 674.072 201.375 669.085 197.606 664.097C195.838 661.756 194.127 659.077 191.583 657.491C190.138 656.593 191.469 654.304 192.923 655.207C195.365 656.727 197.067 659.016 198.774 661.272C200.714 663.841 202.654 666.406 204.597 668.975C208.477 674.109 212.36 679.243 216.239 684.377C218.252 687.04 220.404 689.649 221.584 692.808C221.834 693.478 221.307 694.255 220.658 694.434L220.653 694.43Z" fill="#A78BFA" stroke="#A78BFA" stroke-width="3"/>
<path d="M238.759 723.368C238.599 722.864 238.693 722.38 238.938 722.01C238.82 721.819 238.701 721.628 238.579 721.437C238.134 720.726 237.693 720.019 237.248 719.307C236.362 717.889 235.471 716.466 234.585 715.047C233.699 713.628 232.809 712.206 231.923 710.787C231.498 710.108 231.078 709.425 230.649 708.75C230.502 708.519 230.359 708.295 230.204 708.137C230.179 708.112 229.91 707.86 230.008 707.958C230.685 708.807 229.967 707.925 229.946 707.917C229.93 707.917 229.91 707.913 229.906 707.909C229.224 707.82 228.656 707.332 228.656 706.6C228.656 705.933 229.264 705.214 229.983 705.279C231.992 705.454 232.858 707.283 233.809 708.807C234.871 710.507 235.933 712.202 236.994 713.901C238.056 715.6 239.118 717.295 240.18 718.994C240.698 719.823 241.278 720.636 241.744 721.494C242.209 722.356 242.193 723.445 241.441 724.144C240.518 724.998 239.118 724.518 238.759 723.368Z" fill="#A78BFA" stroke="#A78BFA" stroke-width="3"/>
</g>
<defs>
<linearGradient id="paint0_linear_1_1311" x1="960" y1="0" x2="960" y2="1080" gradientUnits="userSpaceOnUse">
<stop stop-color="#FFBF85"/>
<stop offset="0.45" stop-color="#FFB7DE"/>
</linearGradient>
<clipPath id="clip0_1_1311">
<rect width="1920" height="1080" fill="white"/>
</clipPath>
</defs>
</svg>
