<svg width="1024" height="2316" viewBox="0 0 1024 2316" fill="none" xmlns="http://www.w3.org/2000/svg">
<g clip-path="url(#clip0_437_1838)">
<rect width="1024" height="2315.61" transform="translate(0 0.332031)" fill="white"/>
<rect width="1024" height="2315.61" transform="translate(0 0.332031)" fill="url(#paint0_linear_437_1838)"/>
<path d="M3266.4 -808.277C3206.22 -712.931 3149.98 -600.701 3055.35 -538.931C2945.31 -467.108 2809.93 -494.178 2683.76 -511.508C2571.21 -527.038 2458.13 -528.427 2363.19 -465.287C2263.3 -398.804 2195.12 -279.965 2131.68 -177.017C2068.61 -74.8665 2003.55 25.7306 1898.39 83.0512C1801.47 135.866 1698.75 121.849 1592.94 87.3551C1492.83 54.7446 1393.8 16.3584 1289.92 19.8453C1162.51 24.0692 1052.97 90.2847 965.785 178.989C873.401 272.981 807.066 396.37 753.574 524.63C593.001 481.975 416.366 540.138 282.974 624.053C85.8094 748.153 -53.9595 951.514 -163.595 1162.02C-234.739 1121.67 -320.208 1115.79 -397.755 1132.95C-538.519 1164.09 -663.017 1250.96 -772.844 1341.06C-884.939 1433.02 -984.085 1540.63 -1070.82 1659.3C-1385.16 2089.46 -1537.12 2663.86 -1570.09 3217.94C-1573.33 3272.27 -1574.85 3326.95 -1575.28 3381.58C-1575.87 3454.42 -1468.97 3465.73 -1468.34 3392.99C-1463.91 2828.78 -1324.04 2253.64 -1031.53 1800.96C-946.087 1668.71 -842.844 1552.95 -726.121 1451.48C-624.16 1362.9 -505.9 1276.61 -372.909 1244.75C-311.789 1230.11 -257.709 1234.72 -212.772 1261.21C-255.098 1351.36 -293.086 1444.2 -328.791 1537.84C-361.272 1622.93 -395.303 1708.67 -417.479 1798.2C-454.051 1945.83 -485.424 2105.58 -467.808 2262.88C-460.251 2329.69 -432.293 2397.68 -371.593 2430C-302.668 2466.59 -217.238 2429.89 -162.89 2390.55C5.14105 2268.78 34.9876 1998.3 39.9741 1792.4C44.3338 1614.33 32.9794 1402.76 -72.7579 1246.63C-74.5756 1243.89 -76.6507 1241.53 -78.5083 1238.93C14.836 1055.24 130.882 883.265 288.966 759.317C398.068 673.726 565.519 600.578 712.502 629.609C703.026 655.67 693.815 681.597 684.957 707.347C651.628 804.178 625.038 904.076 611.881 1007.82C601.225 1092.53 605.217 1181.08 656.043 1255.85C700.898 1321.82 777.201 1342.04 839.941 1307.73C906.204 1271.41 949.05 1194.63 981.272 1125.98C1015.19 1053.44 1040.97 975.497 1050.96 893.429C1063.28 791.325 988.708 674.561 913.967 610.098C894.815 593.548 874.903 579.447 854.526 567.285C886.097 495.802 922.102 427.205 962.567 364.402C1031.82 256.952 1131.56 163.284 1257.22 137.537C1359.21 116.623 1464 160.758 1563.09 193.759C1664.97 227.675 1768.08 247.095 1868.87 218.745C1985.48 185.982 2074.18 103.82 2145.96 6.90773C2224.68 -99.3281 2282.87 -221.307 2370.38 -320.394C2464.38 -427.009 2594.19 -411.259 2725.7 -392.107C2862.64 -372.274 3000.58 -366.088 3117.3 -442.238C3224.75 -512.395 3289.54 -634.032 3358.03 -742.559C3394.93 -801.015 3303.09 -866.263 3266.1 -807.763L3266.4 -808.277ZM-121.168 1372.46C-84.4768 1455.42 -75.6365 1551.65 -69.554 1639.52C-61.6898 1752.3 -65.5064 1866.93 -82.8423 1976.66C-99.1559 2080.28 -128.193 2192.49 -196.568 2268.21C-222.294 2296.71 -256.25 2317.42 -293.007 2327.48C-305.082 2330.75 -315.536 2331.74 -327.846 2330.13C-333.864 2329.38 -336.426 2326.04 -339.957 2322.09C-350.023 2311.08 -356.94 2284.98 -361.165 2260.93C-367.677 2224.4 -366.304 2186.83 -364.748 2150.5C-361.297 2070.38 -347.879 1991.83 -331.934 1914.56C-292.252 1723.13 -217.138 1540.8 -138.961 1366.55C-136.646 1361.25 -134.105 1355.95 -131.741 1350.75C-128.137 1357.7 -124.614 1364.94 -121.257 1372.5L-121.168 1372.46ZM895.386 743.341C922.354 777.875 948.246 830.967 945.037 874.571C942.463 910.189 931.44 945.059 921.116 978.24C897.933 1052.33 864.027 1129.73 811.99 1184.47C775.223 1223.14 738.788 1219.53 721.423 1154.12C698.688 1068.78 724.805 970.576 744.715 891.074C763.261 817.004 786.229 742.052 813.5 668.834C842.991 687.252 870.696 711.801 895.435 743.438L895.386 743.341Z" fill="#F5C7F7"/>
<path d="M829.241 581.949C826.785 571.775 820.242 562.642 811.402 557.047C807.099 554.326 800.812 552.696 797.407 556.472C795.188 558.931 795.247 562.628 795.553 565.923C796.51 576.124 798.71 586.213 802.084 595.881C798.289 588.572 794.392 581.119 788.479 575.388C782.566 569.656 774.169 565.835 766.103 567.454C763.207 578.439 767.294 590.328 774.169 599.371C781.044 608.413 790.456 615.143 799.719 621.719C802.885 623.972 806.38 626.322 810.259 626.114C826.95 625.218 832.008 593.437 829.237 581.935L829.241 581.949Z" fill="#F5F3FF"/>
<path d="M964.449 406.888C963.388 404.928 961.994 403.08 960.084 401.933C958.167 400.794 955.658 400.478 953.715 401.552C951.787 402.617 950.759 404.771 950.039 406.852C946.959 415.856 947.71 425.667 948.507 435.148C945.229 426.976 941.866 418.648 936.141 411.955C934.636 410.195 932.742 408.458 930.431 408.42C927.47 408.366 925.282 411.06 923.577 413.488C921.625 416.268 919.59 419.306 919.64 422.71C919.693 426.476 922.274 429.673 924.727 432.531C930.276 439.01 940.395 454.676 950.473 452.431C960.508 450.198 965.759 434.467 967.127 425.719C968.121 419.368 967.567 412.604 964.455 406.88L964.449 406.888Z" fill="#F5F3FF"/>
<path d="M778.392 412.436C777.519 404.774 773.039 397.116 765.82 394.403C761.647 396.897 759.731 402.124 759.874 406.986C760.016 411.848 761.853 416.49 763.67 421.005C760.412 415.274 756.548 409.055 750.211 407.245C748.108 406.644 745.639 406.671 743.956 408.076C741.561 410.086 741.836 413.949 743.269 416.736C745.967 422.006 751.558 425.099 757.068 427.266C760.44 428.594 763.911 429.685 767.204 431.205C769.565 432.295 772.821 434.904 775.123 432.469C777.01 430.472 777.498 425.361 777.956 422.736C778.553 419.335 778.781 415.864 778.39 412.428L778.392 412.436Z" fill="#F5F3FF"/>
<path d="M125.307 412.558C126.384 418.567 124.298 432.339 127.221 436.91C132.94 445.835 141.103 432.639 144.995 426.471C149.274 419.695 148.892 421.592 157.222 419.877C160.666 419.164 169.618 417.23 171.216 413.888C174.592 406.824 167.233 402.537 159.625 400.393C155.959 399.36 153.611 395.833 154.024 392.051C154.76 385.207 154.091 376.925 148.427 372.889C139.092 366.249 136.082 383.696 131.949 389.506C129.482 392.976 126.853 392.049 123.2 391.696C118.33 391.224 101.625 393.44 108.279 401.649C110.513 404.398 113.742 406.507 116.728 408.335C117.618 408.882 125.202 411.998 125.3 412.556L125.307 412.558Z" fill="#FDE68A"/>
<path d="M76.5769 369.84C77.8369 376.889 75.3932 393.045 78.8252 398.412C85.5329 408.888 95.1147 393.401 99.6839 386.167C104.703 378.217 104.26 380.447 114.029 378.43C118.069 377.596 128.574 375.323 130.45 371.397C134.412 363.112 125.775 358.079 116.851 355.566C112.554 354.356 109.795 350.216 110.274 345.774C111.142 337.742 110.353 328.024 103.706 323.299C92.7598 315.503 89.2185 335.979 84.3711 342.792C81.4731 346.859 78.3979 345.777 74.1041 345.362C68.3945 344.809 48.7914 347.408 56.5989 357.04C59.2141 360.27 63.0054 362.741 66.5069 364.888C67.5494 365.527 76.4442 369.188 76.569 369.845L76.5769 369.84Z" fill="#FDE68A"/>
<path d="M137.866 338.923C138.517 342.555 137.256 350.886 139.026 353.652C142.482 359.052 147.424 351.068 149.773 347.343C152.363 343.248 152.13 344.396 157.17 343.356C159.253 342.925 164.669 341.753 165.636 339.731C167.68 335.461 163.231 332.865 158.626 331.574C156.41 330.952 154.989 328.815 155.236 326.527C155.683 322.386 155.278 317.38 151.853 314.938C146.211 310.921 144.384 321.476 141.887 324.985C140.394 327.086 138.807 326.522 136.596 326.308C133.655 326.022 123.551 327.361 127.573 332.329C128.92 333.994 130.875 335.265 132.683 336.372C133.221 336.703 137.809 338.587 137.864 338.93L137.866 338.923Z" fill="#FDE68A"/>
</g>
<defs>
<linearGradient id="paint0_linear_437_1838" x1="512" y1="-318.627" x2="512" y2="2821.02" gradientUnits="userSpaceOnUse">
<stop stop-color="#F5D0FE"/>
<stop offset="0.691698" stop-color="#F5D0FE"/>
<stop offset="1" stop-color="#F472B6"/>
</linearGradient>
<clipPath id="clip0_437_1838">
<rect width="1024" height="2315.61" fill="white" transform="translate(0 0.332031)"/>
</clipPath>
</defs>
</svg>
