<svg width="1680" height="5706" viewBox="0 0 1680 5706" fill="none" xmlns="http://www.w3.org/2000/svg">
<path d="M1489.01 5679.21C1488.81 5672.06 1491.48 5664.86 1496.31 5659.59C1498.66 5657.03 1502.51 5654.82 1505.43 5656.7C1507.33 5657.93 1507.96 5660.37 1508.35 5662.6C1509.54 5669.5 1509.9 5676.54 1509.41 5683.52C1510.6 5678.02 1511.84 5672.41 1514.71 5667.57C1517.58 5662.73 1522.43 5658.71 1528.04 5658.33C1531.91 5665.05 1531.35 5673.63 1528.44 5680.82C1525.53 5688.01 1520.53 5694.14 1515.6 5700.13C1513.92 5702.18 1512.04 5704.36 1509.44 5704.92C1498.28 5707.32 1489.25 5687.27 1489.01 5679.2V5679.21Z" fill="#FDE68A"/>
<path d="M1392.95 5611.46C1393.29 5609.97 1393.88 5608.51 1394.94 5607.41C1395.99 5606.31 1397.59 5605.65 1399.06 5606.01C1400.53 5606.37 1401.59 5607.61 1402.44 5608.85C1406.08 5614.23 1407.35 5620.83 1408.52 5627.23C1409.22 5621.25 1409.94 5615.16 1412.52 5609.72C1413.19 5608.29 1414.13 5606.81 1415.65 5606.37C1417.59 5605.8 1419.51 5607.19 1421.07 5608.48C1422.86 5609.96 1424.74 5611.6 1425.32 5613.85C1425.96 5616.35 1424.83 5618.92 1423.73 5621.24C1421.23 5626.51 1417.37 5638.65 1410.32 5638.97C1403.31 5639.3 1397.03 5629.87 1394.56 5624.35C1392.76 5620.34 1391.91 5615.78 1392.94 5611.45L1392.95 5611.46Z" fill="#FDE68A"/>
<path d="M1655.2 5602.14C1654.4 5596.93 1655.98 5591.08 1660.25 5588C1663.45 5588.9 1665.65 5592 1666.43 5595.23C1667.21 5598.46 1666.83 5601.85 1666.44 5605.15C1667.56 5600.79 1668.99 5596 1672.85 5593.67C1674.13 5592.89 1675.76 5592.47 1677.12 5593.09C1679.06 5593.99 1679.57 5596.59 1679.12 5598.68C1678.29 5602.64 1675.16 5605.68 1671.92 5608.1C1669.93 5609.58 1667.84 5610.92 1665.94 5612.51C1664.58 5613.65 1662.9 5615.96 1660.95 5614.76C1659.34 5613.78 1658.11 5610.5 1657.33 5608.85C1656.33 5606.72 1655.56 5604.47 1655.2 5602.14V5602.14Z" fill="#FDE68A"/>
<path d="M1664.92 3984.93C1665.3 3986.13 1665.68 3987.35 1665.67 3988.61C1665.67 3989.86 1665.2 3991.18 1664.18 3991.91C1662.65 3992.99 1660.56 3992.44 1658.78 3991.85C1654.72 3990.49 1650.65 3989.14 1646.58 3987.78C1644.43 3987.06 1641.88 3985.85 1641.76 3983.59C1641.67 3981.78 1643.22 3980.37 1644.64 3979.25C1647.46 3977 1654.78 3968.79 1658.63 3970.09C1662.49 3971.4 1663.83 3981.54 1664.91 3984.94L1664.92 3984.93Z" fill="#FAAFCD"/>
<path d="M1629.3 3995.42C1627.98 3995.89 1627 3997 1626.08 3998.07C1622.47 4002.29 1618.85 4006.51 1615.24 4010.73C1622.15 4014.9 1630.12 4017.32 1638.2 4017.67C1639.68 4017.74 1637.1 4005.22 1636.69 4004.14C1635.68 4001.48 1633.14 3994.07 1629.3 3995.42Z" fill="#FAAFCD"/>
<path d="M1619.23 3972.23C1619.33 3973.35 1618.35 3974.27 1617.24 3974.11C1610.23 3973.09 1603.41 3970.79 1597.22 3967.35C1596.7 3967.07 1603.21 3960.09 1603.85 3959.54C1606.01 3957.72 1609.86 3954.45 1612.85 3954.46C1616.34 3954.47 1617 3959.95 1617.63 3962.5C1618.43 3965.69 1618.96 3968.95 1619.23 3972.23L1619.23 3972.23Z" fill="#FAAFCD"/>
<path d="M1542.02 3999.12C1542.11 4000.24 1541.13 4001.16 1540.02 4001C1533.01 3999.98 1526.19 3997.68 1520 3994.25C1519.48 3993.96 1525.99 3986.98 1526.63 3986.44C1528.79 3984.61 1532.64 3981.35 1535.64 3981.35C1539.12 3981.36 1539.78 3986.84 1540.42 3989.39C1541.21 3992.58 1541.75 3995.84 1542.02 3999.12L1542.02 3999.12Z" fill="#FAAFCD"/>
<path d="M1595.4 3931.28C1595.49 3932.4 1594.51 3933.32 1593.41 3933.16C1586.4 3932.14 1579.57 3929.84 1573.38 3926.41C1572.87 3926.12 1579.37 3919.14 1580.01 3918.6C1582.17 3916.77 1586.03 3913.51 1589.02 3913.51C1592.5 3913.52 1593.17 3919 1593.8 3921.55C1594.59 3924.74 1595.13 3928 1595.4 3931.28L1595.4 3931.28Z" fill="#FAAFCD"/>
<path d="M1594.92 4017.25C1595.05 4018.16 1595.13 4019.21 1594.48 4019.85C1593.85 4020.48 1592.83 4020.42 1591.96 4020.3C1586.49 4019.53 1581.15 4017.85 1576.22 4015.35C1575.12 4014.79 1573.96 4014.1 1573.53 4012.94C1572.94 4011.32 1574.04 4009.6 1575.14 4008.27C1577.76 4005.11 1585.42 3995.73 1590.21 3996.99C1593.27 3997.79 1592.88 4002.76 1593.23 4005.23C1593.79 4009.23 1594.35 4013.24 1594.92 4017.25L1594.92 4017.25Z" fill="#FAAFCD"/>
<path d="M1646.03 3940.58C1646.16 3941.49 1646.24 3942.54 1645.59 3943.18C1644.97 3943.81 1643.95 3943.75 1643.07 3943.63C1637.6 3942.86 1632.26 3941.18 1627.34 3938.68C1626.24 3938.12 1625.07 3937.43 1624.65 3936.27C1624.05 3934.65 1625.15 3932.93 1626.25 3931.6C1628.88 3928.44 1636.54 3919.06 1641.33 3920.32C1644.39 3921.12 1643.99 3926.09 1644.34 3928.56C1644.9 3932.56 1645.47 3936.57 1646.03 3940.58L1646.03 3940.58Z" fill="#FAAFCD"/>
<path d="M1579.46 3957.22L1580.99 3977.77C1581.08 3979.46 1579.52 3980.81 1577.66 3980.62C1573.88 3980.25 1570.12 3979.56 1566.45 3978.59C1565.28 3978.29 1564.06 3977.91 1563.25 3977.08C1561.51 3975.31 1562.49 3972.56 1563.8 3970.59C1566.52 3966.46 1570.24 3962.99 1573.93 3959.57C1575.43 3958.18 1577.36 3956.68 1579.46 3957.22" fill="#FAAFCD"/>
<path d="M1554.86 3956.43C1554.92 3957.38 1554.85 3958.56 1553.99 3958.97C1553.58 3959.17 1553.1 3959.12 1552.65 3959.05C1548.24 3958.45 1543.93 3957.2 1539.88 3955.36C1538.17 3954.58 1536.31 3953.46 1535.94 3951.61C1535.55 3949.68 1536.93 3947.87 1538.32 3946.47C1540.63 3944.13 1549 3935.6 1552.5 3938.21C1554.61 3939.78 1554.12 3944.12 1554.26 3946.38C1554.46 3949.73 1554.66 3953.08 1554.86 3956.43L1554.86 3956.43Z" fill="#FAAFCD"/>
<path d="M47.3643 1656.15C41.4731 1663.91 39.3847 1671.82 38.6835 1680.38C18.8845 1680.1 1.90413 1695.85 19.5463 1716.34C34.119 1733.26 59.2186 1753.76 79.0402 1764.18C163.272 1808.48 106.634 1578.15 47.3643 1656.15Z" fill="#F5D0FE"/>
<path d="M109.48 1493.82C106.595 1487.28 106.36 1479.61 108.84 1472.9C110.048 1469.64 112.785 1466.15 116.2 1466.79C118.424 1467.2 119.926 1469.24 121.126 1471.15C124.836 1477.09 127.824 1483.48 130.001 1490.13C129.032 1484.58 128.057 1478.92 128.891 1473.36C129.725 1467.79 132.699 1462.24 137.75 1459.77C143.878 1464.53 146.589 1472.69 146.606 1480.45C146.622 1488.21 144.302 1495.76 142 1503.17C141.215 1505.71 140.292 1508.44 138.1 1509.93C128.665 1516.37 112.741 1501.21 109.476 1493.81L109.48 1493.82Z" fill="#F5D0FE"/>
<path d="M1469.44 1205.1C1496.85 1229.65 1555.2 1194.84 1567.24 1168.18C1587.06 1124.3 1517.92 1109.15 1496.66 1142.69C1504.71 1130.47 1491.03 1106.66 1476.84 1105.55C1462.08 1104.39 1454.14 1125.48 1451.08 1136.53C1447.67 1148.89 1446.58 1162.8 1451.39 1175.34C1455.71 1186.61 1467.94 1202.24 1469.44 1205.1Z" fill="#F5D0FE"/>
<path d="M1440.81 69.5955C1439.06 73.3959 1438.06 82.8926 1435.33 85.4204C1430 90.354 1426.86 80.1904 1425.34 75.4268C1423.67 70.1926 1423.6 71.5175 1418.37 68.9417C1416.21 67.874 1410.6 65.0454 1410.12 62.5525C1409.1 57.2833 1414.72 55.71 1420.14 55.601C1422.75 55.5487 1424.92 53.6137 1425.3 51.0336C1425.99 46.3659 1427.86 40.9877 1432.32 39.288C1439.66 36.4943 1438.64 48.5886 1440.38 53.1561C1441.42 55.8843 1443.32 55.7231 1445.81 56.1197C1449.12 56.647 1459.82 61.001 1453.99 65.2982C1452.03 66.7364 1449.52 67.5776 1447.23 68.2749C1446.54 68.4841 1440.97 69.2425 1440.81 69.5955H1440.81Z" fill="#FDE68A"/>
<path d="M1480.51 49.6733C1478.46 54.1319 1477.29 65.2716 1474.09 68.2396C1467.83 74.0317 1464.15 62.1031 1462.36 56.5158C1460.41 50.375 1460.31 51.9309 1454.18 48.9063C1451.65 47.6554 1445.07 44.3344 1444.5 41.4056C1443.3 35.2256 1449.9 33.3777 1456.26 33.2513C1459.32 33.1903 1461.86 30.9197 1462.31 27.8907C1463.12 22.4123 1465.32 16.1015 1470.55 14.1141C1479.16 10.8323 1477.97 25.0273 1480.01 30.3836C1481.23 33.5826 1483.46 33.3952 1486.38 33.8615C1490.26 34.4804 1502.82 39.5883 1495.97 44.6308C1493.68 46.3218 1490.74 47.3068 1488.05 48.1261C1487.24 48.3702 1480.71 49.2637 1480.52 49.6777L1480.51 49.6733Z" fill="#FDE68A"/>
<path d="M1445.19 18.5772C1444.13 20.874 1443.53 26.6183 1441.87 28.148C1438.65 31.1334 1436.75 24.9839 1435.83 22.1075C1434.82 18.9433 1434.78 19.7453 1431.62 18.185C1430.31 17.54 1426.92 15.8272 1426.63 14.3192C1426.01 11.1333 1429.41 10.1788 1432.68 10.1178C1434.26 10.0873 1435.57 8.9149 1435.8 7.35464C1436.22 4.53047 1437.36 1.27923 1440.05 0.250675C1444.49 -1.44034 1443.88 5.87721 1444.93 8.636C1445.55 10.2878 1446.7 10.1875 1448.21 10.4272C1450.21 10.7454 1456.68 13.3778 1453.15 15.9797C1451.97 16.8513 1450.46 17.3569 1449.07 17.7797C1448.65 17.906 1445.28 18.3637 1445.19 18.5816V18.5772Z" fill="#FDE68A"/>
</svg>
