<svg width="1920" height="4527" viewBox="0 0 1920 4527" fill="none" xmlns="http://www.w3.org/2000/svg">
<g clip-path="url(#clip0_128_2698)">
<rect width="1920" height="4527" fill="white"/>
<rect width="1920" height="4527" fill="url(#paint0_radial_128_2698)"/>
<g filter="url(#filter0_f_128_2698)">
<circle cx="1840.5" cy="4028.5" r="355.5" fill="#FFB7DE"/>
</g>
<g filter="url(#filter1_f_128_2698)">
<circle cx="1388.5" cy="1375.5" r="355.5" fill="#FFB7DE"/>
</g>
<g filter="url(#filter2_f_128_2698)">
<circle cx="-89.5" cy="3269.5" r="355.5" fill="#FFFF33"/>
</g>
<path d="M-475.411 12.9011C-433.496 60.5217 -392.271 117.875 -334.201 143.777C-266.674 173.894 -193.868 146.814 -125.309 125.964C-64.1595 107.325 -1.45741 96.4964 56.9044 123.133C118.318 151.186 166.767 211.147 211.17 262.702C255.294 313.846 300.389 363.951 363.913 386.444C422.456 407.168 478.279 390.245 534 361.67C586.72 334.648 638.327 304.513 696.353 297.211C767.512 288.227 834.262 315.273 890.591 356.802C950.278 400.806 998.107 463.46 1039.23 529.962C1124.65 491.983 1227.96 508.588 1309.54 543.347C1430.12 594.76 1525.86 695.314 1605.49 802.515C1641.43 773.773 1688.39 762.903 1733 765.54C1813.98 770.322 1890.88 807.515 1959.91 847.802C2030.37 888.926 2095.02 939.897 2153.77 998.112C2366.66 1209.15 2502.18 1514.76 2569.78 1819.67C2576.41 1849.57 2582.11 1879.82 2587.22 1910.13C2594.02 1950.54 2535.64 1966.34 2528.82 1925.98C2476.17 1612.9 2347.31 1305.8 2144.53 1080.31C2085.3 1014.43 2017.64 959.303 1943.77 913.309C1879.24 873.164 1805.86 835.736 1729.14 829.863C1693.88 827.17 1664.25 834.54 1641.64 853.251C1673.17 899.574 1702.53 947.777 1730.7 996.628C1756.31 1041.01 1782.84 1085.62 1803.13 1133.39C1836.58 1212.16 1868.22 1298.13 1872.42 1387.09C1874.16 1424.88 1864.68 1465.14 1833.83 1488.5C1798.79 1514.95 1748.06 1502.16 1714.36 1485.14C1610.18 1432.43 1569.54 1284.81 1548.46 1170.86C1530.2 1072.31 1517.69 953.755 1562.55 857.606C1563.32 855.923 1564.26 854.424 1565.06 852.816C1496.86 759.059 1417.09 673.835 1318.24 619.031C1250.01 581.18 1150.47 555.433 1071.39 584.635C1078.97 598.271 1086.4 611.857 1093.61 625.375C1120.74 676.209 1144.39 729.347 1160.93 785.814C1174.39 831.932 1180.04 881.487 1158.46 927.549C1139.4 968.186 1098.81 986.209 1060.9 972.726C1020.85 958.439 990.218 919.59 966.211 884.318C940.916 847.033 919.661 806.02 906.81 761.312C890.884 705.681 921.931 634.175 957.723 591.713C966.892 580.814 976.701 571.209 986.94 562.64C963.042 525.733 936.937 490.823 908.869 459.529C860.836 405.99 797.094 362.82 724.986 359.692C666.463 357.142 612.166 390.983 560.047 418.132C506.464 446.036 450.905 465.996 392.382 459.209C324.681 451.378 268.092 413.618 219.592 366.159C166.412 314.136 123.229 251.542 65.8012 204.273C4.08943 153.4 -66.6266 173.694 -137.99 196.031C-212.31 219.23 -288.398 234.935 -360.019 203.008C-425.958 173.586 -472.77 111.768 -520.475 57.5628C-546.174 28.3671 -500.952 -16.0522 -475.201 13.1603L-475.411 12.9011ZM1600.64 923.209C1587.63 972.567 1591.28 1026.81 1595.71 1076.17C1601.37 1139.53 1613.69 1202.88 1633.08 1262.31C1651.36 1318.43 1677.47 1378.18 1722.19 1414.17C1739.02 1427.72 1759.73 1436.2 1781.05 1438.53C1788.05 1439.27 1793.94 1438.89 1800.64 1436.9C1803.92 1435.95 1805.04 1433.86 1806.65 1431.36C1811.27 1424.34 1812.79 1409.23 1813 1395.49C1813.36 1374.61 1809.26 1353.86 1805.17 1333.82C1796.12 1289.61 1781.68 1247.16 1765.95 1205.65C1726.88 1102.82 1668.93 1008.2 1610 918.342C1608.24 915.602 1606.36 912.887 1604.58 910.206C1603.2 914.391 1601.88 918.725 1600.69 923.226L1600.64 923.209ZM979.897 664.088C967.985 685.674 958.322 717.474 963.983 741.415C968.58 760.975 977.806 779.367 986.493 796.884C1005.96 835.984 1031.68 875.973 1065.46 901.757C1089.33 919.973 1109.25 914.727 1113.08 876.844C1118.12 827.403 1094.88 775.167 1076.75 732.767C1059.86 693.264 1040.43 653.664 1018.77 615.411C1004.02 628.266 990.809 644.369 979.878 664.147L979.897 664.088Z" fill="#FFBF85"/>
<path d="M436.733 2749.62C394.919 2746.27 356.825 2737.49 321.291 2724.93C285.604 2712.53 252.938 2695.89 223.173 2675.22C194.297 2653.53 168.192 2627.54 151.577 2592.68C143.612 2575.14 138.333 2555.32 138.133 2533.51C137.621 2511.75 143.882 2488 154.546 2465.95C159.339 2454.74 166.005 2444.4 172.763 2434.02C176.334 2429 180.256 2424.25 184.019 2419.4L189.87 2412.2L196.11 2405.61L208.843 2392.47C213.188 2388.39 217.724 2384.49 222.261 2380.58C231.169 2372.41 240.61 2365.64 249.886 2358.51C287.158 2330.62 334.397 2306.18 385.843 2293.84C438.584 2283.32 490.909 2287.63 532.003 2301.7C552.906 2308.53 571.777 2317.33 588.512 2327.63C605.401 2337.78 620.62 2349.21 634.006 2361.58C647.765 2373.77 659.91 2386.88 670.687 2400.71C681.744 2414.4 691.187 2429.02 699.509 2444.14C716.187 2474.47 728.297 2507.17 733.658 2543.14C735.162 2552.06 735.952 2561.39 736.523 2570.74C736.72 2580.26 736.707 2590.31 735.938 2598.71C735.334 2607.47 734.918 2616.15 733.627 2625.14C732.617 2634 731.513 2642.91 729.63 2652.09C722.998 2688.3 711.873 2726.06 690.232 2764.08C669.404 2801.89 635.952 2839.8 593.799 2868.65C551.393 2897.43 502.489 2915.79 456.589 2924.46C433.592 2928.81 411.025 2931.15 389.024 2932.01C367.144 2932.65 345.989 2931.91 325.346 2930.07C284.334 2926.01 245.871 2917.66 209.98 2906.05C128.796 2879.36 59.1672 2837.21 5.94227 2781.81C-29.9081 2749.4 -59.8543 2710.89 -78.724 2665.72C-97.7475 2620.72 -104.92 2568.52 -95.6136 2514.28C-90.6158 2493.2 -83.8608 2471.99 -74.7079 2451.33C-70.052 2441.05 -65.0834 2430.71 -59.5714 2420.81C-53.8069 2410.97 -48.3285 2401 -42.0591 2391.27C-17.0144 2352.3 15.1099 2315.43 52.1936 2282.95C127.573 2218.9 219.155 2174.31 310.413 2147.45C401.733 2117.53 495.618 2103.74 585.885 2104.95C674.9 2109.34 759.896 2129.08 831.197 2166.99L857.942 2181.34L883.188 2197.59L906.647 2215.63L927.773 2234.73C954.862 2261.13 977.776 2290.75 995.935 2322.83C1029.64 2388.17 1043.48 2462.23 1038.92 2537.83C1036.23 2605.22 1019.32 2674.39 989.454 2741.47C960.784 2808.69 919.557 2874.69 865.796 2934.59C810.828 2993.83 743.778 3046 670.421 3087.91C634.168 3108.93 596.083 3127.93 556.529 3144.24C516.745 3160.04 475.42 3172.75 433.444 3181.34C349.537 3199.1 263.206 3196.86 189.21 3175.95C152.819 3164.48 118.993 3149.49 88.9633 3131.19C59.9537 3113.64 33.3763 3095.23 6.90927 3076.07C-45.4977 3037.43 -94.9494 2995.87 -137.975 2947.63C-159.631 2924.18 -179.814 2899.01 -195.994 2870.01C-203.96 2855.41 -210.971 2839.94 -215.818 2822.78C-220.632 2805.69 -223.287 2786.65 -220.896 2765.55C-187.925 2777.21 -152.78 2780.08 -117.231 2778.17C-112.242 2803.75 -96.0998 2830.95 -76.1082 2855.94C-56.018 2881.15 -31.9028 2905.03 -5.77285 2927.63C19.5055 2951.58 47.0839 2974.38 75.8986 2996.17C90.2895 3007.04 105.055 3017.73 120.094 3028.03L142.835 3043.28C150.446 3048.26 158.342 3053.37 165.618 3057.38L182.414 3066.09C188.187 3068.8 194.202 3071.06 200.002 3073.58C211.421 3078.97 224.208 3082.18 236.232 3086.42C242.488 3088.22 248.955 3089.48 255.239 3091.09L264.679 3093.41C267.895 3094.01 271.264 3094.45 274.447 3094.98L293.986 3098.1L314.06 3099.68C340.532 3102.39 367.878 3103.3 396.051 3100.12L406.617 3099.23C410.158 3098.82 413.693 3098.14 417.201 3097.65C424.277 3096.56 431.387 3095.54 438.523 3094.33C452.808 3090.95 467.114 3088.61 481.438 3084.09C497.766 3079.26 513.865 3072.46 530.007 3066.24C545.875 3058.93 561.913 3052.24 577.348 3043.75C593.052 3036.09 608.219 3026.76 623.462 3018.1C638.157 3008.74 652.984 2999.66 666.812 2989.4C725.241 2951.68 776.7 2904.96 819.548 2853.54C839.293 2827.14 856.251 2799.59 870.782 2771.69C885.407 2743.75 897.287 2715.25 906.056 2686.62C915.861 2658.04 923.027 2629.37 927.305 2600.82C931.363 2572.29 932.414 2544.1 930.62 2516.62C927.28 2461.44 910.067 2409.8 882.338 2364.56C868.861 2341.68 852.275 2320.39 833.153 2300.97C828.155 2296.26 823.404 2291.35 818.346 2286.75L802.848 2273.98L786.02 2262.24C780.287 2258.39 773.939 2255.16 767.958 2251.51C717.223 2225.35 656.15 2209.65 590.997 2204.76C525.817 2200.05 456.711 2204.51 389.025 2219.91C321.646 2236.47 255.849 2262.61 199.803 2298.63C146.143 2330 98.8776 2369.85 65.7971 2416.68C32.8918 2464.39 15.5524 2514.45 17.2721 2562.66C18.5197 2610.83 38.2777 2656.45 69.7105 2695.48C115.325 2745.91 180.231 2784.42 252.964 2806.52C305.658 2825.64 364.736 2836.01 421.496 2831.52C435.631 2830.04 449.373 2827.7 462.719 2824.49C475.873 2821.12 488.347 2816.76 499.987 2811.58C511.661 2806.46 522.051 2800.04 531.832 2793.02C541.612 2786.01 550.333 2777.92 558.216 2768.75C590.96 2732.99 608.313 2680.5 613.063 2627.66L615.162 2607.65C615.358 2601.93 615.932 2596.3 615.59 2590.4C615.444 2578.78 613.815 2566.89 611.089 2555.07C605.983 2531.44 596.272 2508.38 583.705 2486.98C569.397 2466.47 551.987 2447.82 531.918 2432.73C521.927 2425.04 511.144 2418.57 500.219 2412.78C488.959 2407.49 477.458 2402.66 465.554 2399.65C418.548 2386.75 370.671 2397.01 323.136 2428.42C317.151 2432.13 311.433 2436.67 305.579 2440.66C299.95 2444.9 295.171 2449.26 289.855 2453.44C281.083 2462.15 272.34 2470.68 267.394 2479.11C265.867 2481.19 264.432 2483.24 263.596 2485.36L260.426 2491.49C259.161 2495.62 257.264 2499.61 256.816 2503.8C255.258 2511.97 255.027 2520.56 257.568 2529.52C260.324 2538.2 264.622 2547.05 271.11 2555.49C277.098 2564.07 285.151 2572.23 293.918 2579.97C311.857 2595.34 333.623 2608.96 357.905 2619.68C381.166 2631.14 406.553 2640.57 432.81 2646.5C445.882 2649.83 459.236 2651.56 472.271 2653.09C485.329 2654.18 497.993 2654.41 509.63 2653.64C501.359 2669.83 490.458 2686.45 477.559 2702.17C465.401 2718.76 451.805 2734.2 436.584 2750.04L436.733 2749.62Z" fill="#F79976"/>
<path d="M1977.75 2341.41C1964.79 2315.08 1943.57 2293.68 1920.81 2275.15C1886.37 2247.11 1846.74 2224.14 1803.19 2215.39C1759.64 2206.64 1711.81 2213.37 1676.08 2239.74C1632.81 2271.69 1613.17 2326.23 1577.59 2366.54C1560.72 2385.67 1540.1 2401.76 1526.57 2423.38C1509.72 2450.34 1505.56 2483.2 1504.1 2514.95C1501.98 2561.05 1508.76 2614.78 1547.86 2639.33C1571.4 2654.12 1603.61 2653.73 1626.8 2638.38C1642.45 2628.03 1653.43 2612.15 1666.7 2598.87C1713.33 2552.23 1784.24 2541 1850.16 2538.28C1877.33 2537.16 1905.02 2536.99 1930.85 2528.49C2009.37 2502.67 2008.94 2404.82 1977.74 2341.4L1977.75 2341.41Z" fill="#F2826D"/>
<path d="M1921.53 2412.38C1938.23 2391.71 1938.67 2364.67 1936.57 2339.44C1934.2 2310.98 1927.7 2282.94 1917.25 2256.36C1912.14 2243.33 1906.27 2230.4 1898.79 2218.54C1891.55 2207.08 1882.59 2197.14 1871.9 2188.8C1852.31 2173.5 1828.68 2162.82 1804.76 2156.36C1757.25 2143.54 1705.51 2146.81 1660.4 2166.68C1636.91 2177.03 1615.02 2191.74 1599.91 2212.82C1585.65 2232.71 1577.38 2256.05 1566.37 2277.73C1560.74 2288.8 1554.37 2299.56 1546.48 2309.16C1537.91 2319.58 1527.94 2328.74 1518.18 2338C1508.95 2346.75 1500.03 2355.76 1492.31 2365.89C1485.21 2375.21 1479.07 2385.22 1473.93 2395.76C1453.33 2438.05 1448.21 2489.64 1464.21 2534.33C1468.55 2546.43 1474.92 2557.84 1484.6 2566.48C1493.19 2574.14 1503.69 2579.7 1514.84 2582.54C1539.39 2588.78 1565.46 2581.92 1585.35 2566.65C1603.55 2552.69 1615.28 2532.42 1625.93 2512.52C1636.67 2492.44 1646.87 2471.54 1662.36 2454.59C1695.23 2418.6 1746.94 2408.51 1793.63 2414.85C1820.5 2418.5 1846.19 2430.07 1873.47 2430.69C1885.75 2430.97 1898.66 2428.93 1909.39 2422.66C1919.31 2416.87 1925.93 2407.78 1930.26 2397.3C1934.53 2386.95 1936.58 2375.78 1937.57 2364.66C1938.01 2359.67 1945.71 2360.9 1945.27 2365.88C1943.23 2388.87 1936.11 2414.96 1915.45 2428.06C1891.43 2443.28 1861.79 2438.95 1835.77 2432.31C1822.41 2428.91 1809.15 2425.07 1795.5 2422.99C1783.47 2421.16 1771.28 2420.44 1759.12 2421.02C1735.11 2422.16 1710.83 2428.17 1690.38 2441.16C1670.28 2453.93 1656.55 2472.75 1645.1 2493.26C1633.62 2513.81 1623.83 2535.61 1609 2554.07C1592.81 2574.22 1570.05 2588.76 1544.13 2592.03C1519.7 2595.11 1493.88 2587.06 1476.43 2569.43C1457.85 2550.66 1450.72 2522.63 1448.1 2497.05C1445.64 2472.99 1447.87 2448.41 1454.46 2425.15C1461.15 2401.55 1472.08 2379.2 1487.14 2359.79C1503.64 2338.51 1526.02 2322.77 1542.56 2301.55C1558.18 2281.51 1566.86 2257.31 1578.07 2234.77C1583.62 2223.6 1589.84 2212.65 1597.62 2202.87C1606.11 2192.22 1616.49 2183.13 1627.79 2175.58C1670.51 2147 1724.52 2136.39 1775.2 2142.63C1800.24 2145.72 1824.9 2152.99 1847.43 2164.39C1859.45 2170.47 1871.08 2177.65 1881.34 2186.42C1891.89 2195.44 1900.6 2206.16 1907.62 2218.12C1922.37 2243.25 1932.32 2271.47 1938.51 2299.87C1941.65 2314.28 1943.73 2328.93 1944.69 2343.65C1945.57 2357.03 1945.87 2370.57 1943.03 2383.74C1940.41 2395.89 1935.47 2407.51 1927.63 2417.2C1924.47 2421.11 1918.38 2416.26 1921.53 2412.34L1921.53 2412.38Z" fill="#F89E79"/>
<path d="M1840.78 2353.7C1823.09 2349.57 1805.51 2344.21 1787.29 2342.86C1768.99 2341.51 1750.83 2345.3 1733.85 2351.99C1716.62 2358.76 1700.65 2368.24 1685.26 2378.42C1669.83 2388.62 1654.23 2399.18 1641.46 2412.67C1628.66 2426.18 1618.14 2441.68 1604.69 2454.6C1592.57 2466.24 1577.51 2475.98 1560.39 2477.47C1545.05 2478.81 1528.73 2473.6 1519.61 2460.61C1510.38 2447.46 1510.08 2430.22 1514.7 2415.33C1519.76 2399.01 1531.64 2385.77 1543.69 2374.13C1556.31 2361.94 1569.61 2350.54 1581.39 2337.5C1587.32 2330.93 1592.91 2324.04 1597.88 2316.71C1602.87 2309.39 1607.02 2301.6 1610.67 2293.54C1618.11 2277.11 1623.98 2259.92 1634 2244.78C1642.97 2231.23 1654.98 2219.56 1668.7 2210.85C1684.23 2200.99 1701.49 2195.56 1719.53 2192.48C1729.13 2190.84 1738.83 2189.68 1748.5 2188.57C1757.7 2187.52 1766.95 2186.68 1776.22 2186.66C1794.17 2186.62 1811.62 2189.93 1827.46 2198.61C1842.21 2206.69 1854.82 2217.96 1866.17 2230.28C1872.2 2236.82 1878.09 2243.64 1882.98 2251.09C1888.31 2259.21 1891.85 2267.95 1894.08 2277.38C1896.29 2286.71 1897.78 2296.47 1898.17 2306.06C1898.54 2315.08 1897.69 2324.2 1894.26 2332.63C1891.32 2339.85 1886.44 2346.65 1879.85 2350.97C1872 2356.11 1862.71 2357.58 1853.49 2356.74C1843.94 2355.87 1834.7 2352.79 1825.61 2349.95C1823.59 2349.32 1822.83 2346.57 1823.62 2344.8C1824.55 2342.69 1826.75 2342.18 1828.77 2342.81C1844.42 2347.72 1864.22 2354.5 1878.33 2342.33C1890.95 2331.45 1891.45 2312.95 1889.63 2297.74C1888.54 2288.61 1887.11 2279.34 1884.08 2270.62C1881.15 2262.19 1876.43 2254.75 1870.93 2247.77C1860.96 2235.15 1849.55 2223.28 1836.6 2213.7C1823.51 2204.03 1808.73 2197.45 1792.52 2195.36C1774.68 2193.07 1756.62 2195.39 1738.9 2197.6C1720.76 2199.86 1702.51 2202.63 1685.79 2210.35C1671.73 2216.83 1659.05 2226.4 1648.91 2238.08C1637.82 2250.86 1630.87 2265.91 1624.38 2281.39C1621.01 2289.42 1617.68 2297.5 1613.71 2305.27C1609.71 2313.06 1605 2320.5 1599.76 2327.51C1589.33 2341.49 1576.91 2353.84 1564.16 2365.69C1552.1 2376.89 1539.37 2387.73 1530.13 2401.5C1521.91 2413.74 1517.46 2428.69 1520.52 2443.37C1521.88 2449.95 1525.17 2456.33 1530.18 2460.87C1535.31 2465.52 1541.75 2468.26 1548.56 2469.33C1583.3 2474.8 1606.7 2441.37 1626.07 2418.29C1632 2411.23 1638.23 2404.44 1645.12 2398.31C1651.94 2392.25 1659.26 2386.79 1666.73 2381.57C1681.58 2371.17 1696.83 2361.19 1712.98 2352.9C1728.93 2344.72 1745.98 2338.37 1763.79 2335.87C1781.54 2333.38 1799.17 2335.75 1816.49 2339.77C1825.02 2341.74 1833.49 2343.99 1842.01 2345.98C1844.06 2346.46 1845.61 2348.25 1845.26 2350.44C1844.95 2352.41 1842.86 2354.17 1840.79 2353.69L1840.78 2353.7Z" fill="#F89E79"/>
<path d="M1807.88 2302.74C1806.28 2302.01 1804.65 2301.35 1802.98 2300.75C1802.15 2300.46 1801.32 2300.18 1800.48 2299.93C1800.27 2299.87 1800.06 2299.8 1799.85 2299.73C1799.9 2299.75 1800.47 2299.91 1800.03 2299.79C1799.55 2299.67 1799.08 2299.52 1798.6 2299.41C1795.2 2298.53 1791.73 2297.91 1788.23 2297.53C1786.47 2297.35 1784.71 2297.22 1782.95 2297.15C1782.51 2297.13 1782.06 2297.12 1781.62 2297.12C1782.51 2297.13 1781.25 2297.12 1781.01 2297.11C1780.12 2297.11 1779.23 2297.12 1778.35 2297.15C1774.78 2297.25 1771.24 2297.56 1767.71 2298.06C1764.19 2298.56 1760.7 2299.26 1757.25 2300.09C1758.05 2299.9 1756.76 2300.22 1756.51 2300.29C1756.03 2300.41 1755.55 2300.54 1755.08 2300.67C1754.13 2300.94 1753.18 2301.21 1752.24 2301.49C1750.35 2302.06 1748.47 2302.67 1746.61 2303.31C1739.14 2305.89 1731.89 2309.04 1724.76 2312.44C1717.65 2315.82 1710.72 2319.57 1703.64 2323.02C1696.62 2326.44 1689.16 2329.02 1681.24 2328.49C1674.41 2328.03 1667.66 2324.71 1663.96 2318.87C1660.45 2313.34 1659.42 2306.62 1660.43 2300.2C1662.63 2286.21 1674.32 2276.62 1685.35 2268.95C1698.06 2260.11 1711.29 2251.8 1725.5 2245.52C1739.77 2239.22 1755.3 2235.02 1770.97 2234.81C1786.03 2234.61 1802.25 2237.53 1813.95 2247.57C1819.36 2252.21 1823.71 2257.91 1827.61 2263.83C1829.59 2266.83 1831.53 2269.87 1833.39 2272.95C1835.59 2276.59 1837.51 2280.28 1838.54 2284.42C1840.16 2290.99 1838.57 2298.83 1832.9 2303.11C1830.12 2305.2 1826.45 2306.31 1823.03 2306.71C1819.26 2307.16 1815.76 2306.55 1812.3 2305.05C1808.86 2303.56 1805.53 2301.85 1802.05 2300.46C1800.16 2299.71 1799.15 2297.18 1800.07 2295.35C1801.04 2293.41 1803.2 2292.56 1805.23 2293.37C1808.7 2294.75 1812.04 2296.46 1815.47 2297.96C1815.88 2298.13 1816.28 2298.31 1816.69 2298.47C1816.82 2298.53 1817.94 2298.96 1817.39 2298.76C1816.88 2298.58 1817.78 2298.85 1817.97 2298.88C1818.39 2298.97 1818.8 2299.03 1819.23 2299.08C1819.53 2299.11 1819.96 2299.23 1820.24 2299.15C1819.62 2299.32 1819.72 2299.15 1820.07 2299.15C1820.27 2299.14 1820.47 2299.14 1820.67 2299.13C1821.47 2299.1 1822.26 2299.02 1823.05 2298.89C1823.4 2298.83 1823.74 2298.76 1824.08 2298.69C1825.08 2298.48 1823.66 2298.83 1824.35 2298.62C1825.09 2298.4 1825.81 2298.16 1826.52 2297.86C1826.86 2297.71 1827.19 2297.55 1827.52 2297.39C1828.15 2297.1 1826.93 2297.77 1827.68 2297.29C1827.98 2297.09 1828.26 2296.89 1828.54 2296.66C1828.64 2296.58 1828.74 2296.49 1828.84 2296.41C1829.49 2295.86 1828.47 2296.84 1828.78 2296.45C1829.01 2296.17 1830.03 2295.29 1830 2294.9C1830 2294.93 1829.54 2295.74 1829.89 2295.07C1829.98 2294.91 1830.06 2294.76 1830.15 2294.61C1830.31 2294.29 1830.45 2293.96 1830.59 2293.63C1830.69 2293.37 1830.77 2292.83 1830.95 2292.63C1830.94 2292.64 1830.76 2293.36 1830.86 2292.94C1830.9 2292.76 1830.95 2292.59 1830.99 2292.41C1831.15 2291.71 1831.27 2290.98 1831.33 2290.26C1831.36 2289.94 1831.35 2289.62 1831.39 2289.31C1831.22 2290.35 1831.37 2289.31 1831.35 2288.98C1831.31 2288.21 1831.21 2287.44 1831.07 2286.68C1831.03 2286.45 1830.98 2286.22 1830.93 2285.99C1830.92 2285.94 1830.77 2285.38 1830.89 2285.82C1831.02 2286.3 1830.81 2285.59 1830.78 2285.48C1830.71 2285.25 1830.64 2285.03 1830.57 2284.82C1830.27 2283.93 1829.93 2283.06 1829.55 2282.21C1829.19 2281.4 1828.8 2280.61 1828.39 2279.83C1828.31 2279.68 1828.22 2279.52 1828.14 2279.36C1828.09 2279.27 1827.73 2278.63 1827.96 2279.02C1828.16 2279.39 1827.87 2278.88 1827.85 2278.85C1827.67 2278.54 1827.49 2278.23 1827.31 2277.93C1826.42 2276.46 1825.5 2275.01 1824.58 2273.55C1821.03 2267.9 1817.36 2262.26 1812.84 2257.31C1812.59 2257.04 1812.33 2256.76 1812.08 2256.49C1812 2256.41 1811.53 2255.92 1811.88 2256.27C1812.2 2256.6 1811.82 2256.22 1811.77 2256.18C1811.16 2255.57 1810.55 2254.99 1809.91 2254.41C1808.64 2253.27 1807.31 2252.19 1805.91 2251.2C1805.29 2250.76 1804.65 2250.34 1804.01 2249.93C1803.88 2249.85 1803.39 2249.54 1804.01 2249.93C1803.81 2249.82 1803.63 2249.71 1803.43 2249.6C1803.05 2249.38 1802.66 2249.16 1802.27 2248.96C1800.75 2248.16 1799.19 2247.44 1797.58 2246.81C1796.81 2246.5 1796.02 2246.21 1795.23 2245.94C1794.86 2245.82 1794.5 2245.7 1794.12 2245.58C1793.91 2245.51 1793.7 2245.45 1793.48 2245.38C1793.16 2245.27 1792.8 2245.18 1793.34 2245.33C1791.67 2244.86 1789.99 2244.46 1788.3 2244.11C1784.73 2243.39 1781.1 2242.93 1777.47 2242.69C1776.57 2242.64 1775.68 2242.59 1774.77 2242.57C1774.66 2242.57 1773.9 2242.54 1774.39 2242.56C1774.88 2242.57 1774.12 2242.56 1774.01 2242.55C1773.53 2242.55 1773.05 2242.55 1772.57 2242.55C1770.71 2242.56 1768.83 2242.63 1766.97 2242.76C1763.24 2243.01 1759.52 2243.47 1755.83 2244.13C1753.98 2244.46 1752.14 2244.84 1750.31 2245.26C1749.9 2245.35 1749.49 2245.46 1749.08 2245.56C1748.94 2245.59 1748.33 2245.75 1749.04 2245.56C1748.8 2245.62 1748.57 2245.68 1748.34 2245.74C1747.4 2245.99 1746.47 2246.24 1745.54 2246.51C1741.99 2247.53 1738.5 2248.7 1735.06 2250.03C1728.13 2252.69 1721.41 2255.9 1714.91 2259.47C1714.74 2259.57 1713.76 2260.11 1714.38 2259.77C1713.96 2260 1713.54 2260.24 1713.13 2260.47C1712.29 2260.95 1711.47 2261.42 1710.64 2261.91C1709.09 2262.81 1707.55 2263.75 1706.01 2264.68C1702.85 2266.63 1699.72 2268.65 1696.63 2270.72C1690.95 2274.5 1685.21 2278.33 1680.05 2282.8C1679.49 2283.29 1678.94 2283.78 1678.4 2284.28C1678.27 2284.4 1677.33 2285.32 1677.98 2284.67C1677.68 2284.97 1677.38 2285.26 1677.09 2285.56C1675.96 2286.72 1674.88 2287.92 1673.88 2289.18C1673.4 2289.79 1672.94 2290.41 1672.49 2291.05C1672.28 2291.35 1672.08 2291.65 1671.87 2291.95C1671.76 2292.12 1671.65 2292.3 1671.54 2292.47C1671.28 2292.86 1671.85 2291.91 1671.49 2292.55C1670.73 2293.86 1670.02 2295.2 1669.46 2296.6C1669.24 2297.16 1669.12 2298.05 1668.78 2298.53C1668.78 2298.52 1668.98 2297.8 1668.87 2298.23C1668.82 2298.4 1668.77 2298.58 1668.72 2298.76C1668.62 2299.15 1668.52 2299.55 1668.43 2299.96C1668.14 2301.3 1667.96 2302.67 1667.88 2304.03C1667.87 2304.22 1667.86 2304.4 1667.85 2304.58C1667.81 2305.33 1667.83 2304.41 1667.86 2304.36C1667.75 2304.58 1667.86 2305.07 1667.87 2305.32C1667.89 2306.04 1667.95 2306.76 1668.03 2307.48C1668.11 2308.15 1668.21 2308.81 1668.35 2309.46C1668.38 2309.64 1668.43 2309.81 1668.46 2309.98C1668.53 2310.28 1668.73 2310.49 1668.4 2309.74C1668.54 2310.06 1668.6 2310.43 1668.71 2310.76C1668.91 2311.38 1669.14 2311.99 1669.4 2312.6C1669.52 2312.88 1669.65 2313.15 1669.79 2313.43C1669.87 2313.58 1669.95 2313.74 1670.03 2313.89C1670.35 2314.54 1669.72 2313.4 1669.98 2313.81C1670.33 2314.37 1670.68 2314.91 1671.07 2315.43C1671.25 2315.67 1671.45 2315.91 1671.64 2316.15C1671.75 2316.28 1671.87 2316.41 1671.99 2316.54C1672.28 2316.86 1672.17 2317.06 1671.93 2316.5C1672.12 2316.96 1673.04 2317.51 1673.43 2317.81C1673.7 2318.01 1673.97 2318.21 1674.25 2318.4C1674.36 2318.48 1674.63 2318.71 1674.75 2318.74C1674.64 2318.67 1674.52 2318.6 1674.41 2318.53C1674.54 2318.61 1674.67 2318.68 1674.8 2318.76C1675.46 2319.12 1676.14 2319.43 1676.84 2319.7C1677.17 2319.83 1677.5 2319.95 1677.82 2320.06C1677.91 2320.09 1678.16 2320.22 1678.26 2320.2C1677.81 2320.07 1677.73 2320.05 1678 2320.13C1678.15 2320.16 1678.3 2320.2 1678.44 2320.24C1679.92 2320.6 1681.42 2320.79 1682.95 2320.89C1683.68 2320.94 1682.95 2320.9 1682.81 2320.9C1683.01 2320.91 1683.22 2320.9 1683.43 2320.9C1683.79 2320.9 1684.14 2320.89 1684.5 2320.88C1685.32 2320.84 1686.13 2320.76 1686.94 2320.66C1687.72 2320.55 1688.49 2320.42 1689.25 2320.26C1689.49 2320.2 1689.72 2320.15 1689.95 2320.1C1690.1 2320.07 1690.69 2319.89 1689.99 2320.09C1690.45 2319.96 1690.92 2319.84 1691.37 2319.7C1693.16 2319.15 1694.91 2318.49 1696.62 2317.76C1703.55 2314.81 1710.13 2311.05 1716.86 2307.72C1730.59 2300.94 1744.74 2294.85 1759.79 2291.66C1773.29 2288.79 1787.76 2288.38 1801.11 2292.14C1804.52 2293.1 1807.84 2294.25 1811.06 2295.71C1812.92 2296.55 1814 2298.93 1813.05 2300.82C1812.12 2302.68 1809.88 2303.71 1807.89 2302.8L1807.88 2302.74Z" fill="#F89E79"/>
</g>
<defs>
<filter id="filter0_f_128_2698" x="785" y="2973" width="2111" height="2111" filterUnits="userSpaceOnUse" color-interpolation-filters="sRGB">
<feFlood flood-opacity="0" result="BackgroundImageFix"/>
<feBlend mode="normal" in="SourceGraphic" in2="BackgroundImageFix" result="shape"/>
<feGaussianBlur stdDeviation="350" result="effect1_foregroundBlur_128_2698"/>
</filter>
<filter id="filter1_f_128_2698" x="332.999" y="320" width="2111" height="2111" filterUnits="userSpaceOnUse" color-interpolation-filters="sRGB">
<feFlood flood-opacity="0" result="BackgroundImageFix"/>
<feBlend mode="normal" in="SourceGraphic" in2="BackgroundImageFix" result="shape"/>
<feGaussianBlur stdDeviation="350" result="effect1_foregroundBlur_128_2698"/>
</filter>
<filter id="filter2_f_128_2698" x="-1145" y="2214" width="2111" height="2111" filterUnits="userSpaceOnUse" color-interpolation-filters="sRGB">
<feFlood flood-opacity="0" result="BackgroundImageFix"/>
<feBlend mode="normal" in="SourceGraphic" in2="BackgroundImageFix" result="shape"/>
<feGaussianBlur stdDeviation="350" result="effect1_foregroundBlur_128_2698"/>
</filter>
<radialGradient id="paint0_radial_128_2698" cx="0" cy="0" r="1" gradientUnits="userSpaceOnUse" gradientTransform="translate(1643 298.535) rotate(99.8817) scale(5273.44 5488.96)">
<stop stop-color="#FFBF85"/>
<stop offset="1" stop-color="#EB5F60"/>
</radialGradient>
<clipPath id="clip0_128_2698">
<rect width="1920" height="4527" fill="white"/>
</clipPath>
</defs>
</svg>
