<svg width="1920" height="4527" viewBox="0 0 1920 4527" fill="none" xmlns="http://www.w3.org/2000/svg">
    <g clip-path="url(#clip0_128_2698)">
        <rect width="1920" height="4527" fill="transparent"/>
        <rect width="1920" height="4527" fill="url(#paint0_radial_128_2698)"/>
        <path d="M209.902 1396.16C208.78 1402.42 210.952 1416.76 207.909 1421.52C201.955 1430.81 193.455 1417.07 189.404 1410.65C184.948 1403.59 185.346 1405.57 176.674 1403.78C173.088 1403.04 163.768 1401.03 162.103 1397.55C158.589 1390.19 166.251 1385.73 174.172 1383.5C177.989 1382.42 180.433 1378.75 180.003 1374.81C179.236 1367.69 179.934 1359.06 185.831 1354.86C195.55 1347.95 198.683 1366.11 202.986 1372.16C205.554 1375.78 208.292 1374.81 212.095 1374.44C217.166 1373.95 234.558 1376.26 227.63 1384.81C225.304 1387.67 221.942 1389.86 218.833 1391.77C217.907 1392.34 210.01 1395.58 209.909 1396.16L209.902 1396.16Z"
              fill="#FDE68A"/>
        <path d="M260.641 1351.69C259.329 1359.03 261.873 1375.85 258.3 1381.44C251.316 1392.35 241.34 1376.22 236.583 1368.69C231.358 1360.41 231.818 1362.74 221.648 1360.64C217.442 1359.77 206.505 1357.4 204.552 1353.31C200.426 1344.69 209.418 1339.45 218.71 1336.83C223.183 1335.57 226.056 1331.26 225.557 1326.64C224.653 1318.28 225.475 1308.16 232.395 1303.24C243.792 1295.12 247.479 1316.44 252.526 1323.53C255.543 1327.77 258.745 1326.64 263.215 1326.21C269.16 1325.63 289.569 1328.34 281.44 1338.37C278.718 1341.73 274.77 1344.3 271.125 1346.54C270.039 1347.2 260.779 1351.01 260.649 1351.7L260.641 1351.69Z"
              fill="#FDE68A"/>
        <path d="M196.826 1319.5C196.148 1323.28 197.461 1331.95 195.618 1334.83C192.019 1340.45 186.874 1332.14 184.429 1328.26C181.732 1324 181.975 1325.2 176.727 1324.11C174.559 1323.66 168.92 1322.44 167.914 1320.34C165.785 1315.89 170.417 1313.19 175.211 1311.85C177.519 1311.2 178.998 1308.97 178.741 1306.59C178.276 1302.28 178.698 1297.07 182.263 1294.53C188.138 1290.34 190.04 1301.33 192.639 1304.99C194.193 1307.17 195.846 1306.59 198.148 1306.36C201.21 1306.07 211.73 1307.46 207.542 1312.63C206.14 1314.37 204.104 1315.69 202.222 1316.84C201.662 1317.19 196.885 1319.15 196.827 1319.5L196.826 1319.5Z"
              fill="#FDE68A"/>
        <path d="M1592.59 3124.16C1593.71 3130.42 1591.54 3144.76 1594.58 3149.52C1600.54 3158.81 1609.04 3145.07 1613.09 3138.65C1617.54 3131.59 1617.15 3133.57 1625.82 3131.78C1629.4 3131.04 1638.72 3129.03 1640.39 3125.55C1643.9 3118.19 1636.24 3113.73 1628.32 3111.5C1624.5 3110.42 1622.06 3106.75 1622.49 3102.81C1623.26 3095.69 1622.56 3087.06 1616.66 3082.86C1606.94 3075.95 1603.81 3094.11 1599.51 3100.16C1596.94 3103.78 1594.2 3102.81 1590.4 3102.44C1585.33 3101.95 1567.93 3104.26 1574.86 3112.81C1577.19 3115.67 1580.55 3117.86 1583.66 3119.77C1584.59 3120.34 1592.48 3123.58 1592.58 3124.16L1592.59 3124.16Z"
              fill="#FDE68A"/>
        <path d="M1541.85 3079.69C1543.16 3087.03 1540.62 3103.85 1544.19 3109.44C1551.18 3120.35 1561.15 3104.22 1565.91 3096.69C1571.13 3088.41 1570.67 3090.74 1580.84 3088.64C1585.05 3087.77 1595.99 3085.4 1597.94 3081.31C1602.07 3072.69 1593.07 3067.45 1583.78 3064.83C1579.31 3063.57 1576.44 3059.26 1576.93 3054.64C1577.84 3046.28 1577.02 3036.16 1570.1 3031.24C1558.7 3023.12 1555.01 3044.44 1549.97 3051.53C1546.95 3055.77 1543.75 3054.64 1539.28 3054.21C1533.33 3053.63 1512.92 3056.34 1521.05 3066.37C1523.77 3069.73 1527.72 3072.3 1531.37 3074.54C1532.45 3075.2 1541.71 3079.01 1541.84 3079.7L1541.85 3079.69Z"
              fill="#FDE68A"/>
        <path d="M1605.67 3047.5C1606.35 3051.28 1605.03 3059.95 1606.87 3062.83C1610.47 3068.45 1615.62 3060.14 1618.06 3056.26C1620.76 3052 1620.52 3053.2 1625.77 3052.11C1627.93 3051.66 1633.57 3050.44 1634.58 3048.34C1636.71 3043.89 1632.08 3041.19 1627.28 3039.85C1624.97 3039.2 1623.49 3036.97 1623.75 3034.59C1624.22 3030.28 1623.79 3025.07 1620.23 3022.53C1614.35 3018.34 1612.45 3029.33 1609.85 3032.99C1608.3 3035.17 1606.65 3034.59 1604.35 3034.36C1601.28 3034.07 1590.76 3035.46 1594.95 3040.63C1596.35 3042.37 1598.39 3043.69 1600.27 3044.84C1600.83 3045.19 1605.61 3047.15 1605.67 3047.5L1605.67 3047.5Z"
              fill="#FDE68A"/>
        <path d="M1338.63 236.204C1343.61 223.031 1354.59 212.254 1368.55 206.816C1375.35 204.173 1384.98 203.485 1389.6 209.415C1392.61 213.277 1392.05 218.264 1391.17 222.649C1388.43 236.218 1383.84 249.336 1377.54 261.603C1384.17 252.63 1390.96 243.488 1400.56 237.16C1410.15 230.832 1423.23 227.688 1435.11 231.824C1438.04 247.384 1430.39 262.484 1418.93 273.059C1407.47 283.634 1392.5 290.467 1377.78 297.129C1372.74 299.414 1367.2 301.75 1361.42 300.533C1336.52 295.294 1333.01 251.078 1338.63 236.185L1338.63 236.204Z"
              fill="#F5F3FF"/>
        <path d="M1595.63 1896.2C1600.61 1883.03 1611.59 1872.25 1625.55 1866.82C1632.35 1864.17 1641.98 1863.48 1646.6 1869.41C1649.61 1873.28 1649.05 1878.26 1648.17 1882.65C1645.43 1896.22 1640.84 1909.34 1634.54 1921.6C1641.17 1912.63 1647.96 1903.49 1657.56 1897.16C1667.15 1890.83 1680.23 1887.69 1692.11 1891.82C1695.04 1907.38 1687.39 1922.48 1675.93 1933.06C1664.47 1943.63 1649.5 1950.47 1634.78 1957.13C1629.74 1959.41 1624.2 1961.75 1618.42 1960.53C1593.52 1955.29 1590.01 1911.08 1595.63 1896.18L1595.63 1896.2Z"
              fill="#F472B6"/>
        <path d="M923.826 734.48C923.323 731.406 923.339 728.132 924.642 725.1C925.96 722.071 928.774 719.339 932.175 718.61C935.55 717.885 938.819 719.165 941.638 720.663C953.794 727.177 961.953 738.202 969.75 748.924C966.239 737.204 962.688 725.239 963.577 712.733C963.811 709.446 964.548 705.809 967.375 703.56C970.992 700.671 976.196 701.409 980.557 702.329C985.549 703.383 990.885 704.63 993.977 708.253C997.4 712.26 997.165 718.088 996.776 723.435C995.906 735.548 997.888 761.682 983.327 768.961C968.832 776.212 947.754 764.707 937.955 756.825C930.841 751.102 925.261 743.467 923.811 734.478L923.826 734.48Z"
              fill="#F5F3FF"/>
        <path d="M221.826 2718.48C221.323 2715.41 221.339 2712.13 222.642 2709.1C223.96 2706.07 226.774 2703.34 230.175 2702.61C233.55 2701.88 236.819 2703.16 239.638 2704.66C251.794 2711.18 259.953 2722.2 267.75 2732.92C264.239 2721.2 260.688 2709.24 261.577 2696.73C261.811 2693.45 262.548 2689.81 265.375 2687.56C268.992 2684.67 274.196 2685.41 278.557 2686.33C283.549 2687.38 288.885 2688.63 291.977 2692.25C295.4 2696.26 295.165 2702.09 294.776 2707.44C293.906 2719.55 295.888 2745.68 281.327 2752.96C266.832 2760.21 245.754 2748.71 235.955 2740.82C228.841 2735.1 223.261 2727.47 221.811 2718.48L221.826 2718.48Z"
              fill="#F0B7FD"/>
        <path d="M1238.02 396.251C1233.12 391.653 1230.49 384.335 1233.07 377.498C1237.45 375.634 1242.36 376.878 1245.72 379.486C1249.08 382.094 1251.23 385.867 1253.3 389.559C1251.27 384.155 1249.27 378.043 1251.94 372.334C1252.83 370.439 1254.39 368.592 1256.44 368.046C1259.37 367.274 1261.94 369.468 1263.02 371.982C1265.08 376.726 1263.78 382.533 1261.87 387.802C1260.71 391.027 1259.31 394.205 1258.33 397.47C1257.63 399.81 1257.45 403.607 1254.28 404.09C1251.69 404.486 1247.75 402.225 1245.6 401.22C1242.82 399.921 1240.21 398.307 1238.01 396.246L1238.02 396.251Z"
              fill="#F5F3FF"/>
        <path d="M1654.37 576.664C1655.68 584.002 1653.14 600.823 1656.71 606.41C1663.69 617.318 1673.67 601.193 1678.43 593.663C1683.65 585.385 1683.19 587.707 1693.36 585.607C1697.57 584.738 1708.5 582.372 1710.46 578.284C1714.58 569.659 1705.59 564.419 1696.3 561.803C1691.83 560.543 1688.95 556.232 1689.45 551.608C1690.36 543.245 1689.53 533.128 1682.61 528.208C1671.22 520.092 1667.53 541.409 1662.48 548.502C1659.47 552.738 1656.26 551.61 1651.79 551.179C1645.85 550.603 1625.44 553.308 1633.57 563.337C1636.29 566.7 1640.24 569.273 1643.88 571.507C1644.97 572.173 1654.23 575.985 1654.36 576.668L1654.37 576.664Z"
              fill="#FDE68A"/>
    </g>
</svg>
