<svg width="1920" height="1162" viewBox="0 0 1920 1162" fill="none" xmlns="http://www.w3.org/2000/svg">
<g clip-path="url(#clip0_22_2441)">
<rect width="1920" height="1162" fill="white"/>
<rect width="1920" height="1457" transform="matrix(-1 -8.74228e-08 -8.74228e-08 1 1920.01 0)" fill="url(#paint0_radial_22_2441)"/>
<path d="M573.145 694.591C595.122 626.095 627.644 562.045 667.5 501.046C707.067 439.844 754.835 382.302 810.349 328.291C867.765 275.426 933.597 225.797 1015.44 188.949C1056.49 171.046 1101.56 156.827 1149.19 150.239C1196.8 143.163 1246.38 146.456 1290.71 157.345C1313.47 161.868 1333.68 169.663 1353.95 177.596C1363.64 181.922 1372.62 186.892 1381.87 191.578L1395.51 198.961L1407.7 207.145L1431.86 223.939C1439.23 229.784 1446.15 235.989 1453.08 242.194C1467.77 254.236 1479.21 267.54 1491.49 280.474C1539.23 332.663 1575.92 401.942 1584.77 481.49C1589.18 563.654 1561.41 649.404 1516.31 719.816C1494.09 755.539 1468.27 788.546 1439.93 818.535C1411.88 848.727 1381.61 876.592 1349.95 901.762C1318.53 927.487 1285.68 950.869 1251.75 972.247C1218.01 994.039 1182.83 1013.49 1146.92 1031.27C1074.94 1066.92 999.408 1095.87 919.094 1114.86C899.122 1119.85 878.494 1123.81 857.913 1127.42C837.088 1130.47 815.183 1133.33 797.126 1134.51C778.233 1136.05 759.463 1137.87 740.31 1138.37C721.34 1139.28 702.306 1140.05 682.955 1139.65C606.328 1139.34 527.904 1132.22 452.618 1108.18C377.485 1085.4 306.568 1042.26 258.479 982.461C210.603 922.238 187.746 848.524 184.97 776.877C183.552 740.984 186.377 705.206 192.216 669.92C198.511 634.764 207.547 600.384 218.802 566.515C242.057 499.108 273.771 434.586 311.694 373.281C398.396 234.492 514.724 109.928 654.218 8.04791C737.473 -59.1645 831.947 -118.592 937.045 -162.041C1041.85 -205.693 1158.17 -232.269 1273.17 -232.816C1317.39 -230.801 1361.25 -225.98 1403.09 -217.132C1423.87 -212.565 1444.67 -207.51 1464.31 -201.45C1483.74 -194.965 1503.56 -188.981 1522.56 -181.648C1598.75 -152.392 1667.85 -111.095 1725.66 -60.5295C1838.85 42.8224 1903.91 177.934 1930.44 317.613C1963.61 456.514 1960.71 604.191 1926.37 750.334C1885.56 895.365 1812.67 1038.32 1704.99 1164.36L1664.3 1211.68L1619.99 1257.13L1572.45 1300.2L1523.37 1339.81C1456.3 1391.14 1383.67 1436.66 1307.36 1475.2C1153.05 1548.41 986.72 1592.04 823.478 1606.39C677.503 1621.39 532.628 1613.94 396.853 1584.97C260.349 1557.97 130.94 1510.34 19.2103 1440.71C-90.6644 1368.95 -180.866 1275.64 -246.489 1169.19C-279.59 1116.68 -307.655 1060.62 -329.319 1001.42C-349.812 941.702 -363.004 878.605 -366.994 813.276C-376.266 682.856 -341.063 542.775 -269.491 417.255C-231.705 355.184 -187.147 296.246 -136.714 242.488C-88.2578 190.592 -38.7806 142.377 12.279 94.1275C114.931 -1.61566 222.91 -93.4241 343.2 -176.772C401.931 -218.484 463.888 -258.311 532.799 -292.773C567.43 -309.833 603.628 -325.601 642.749 -338.359C681.703 -351.042 724.139 -360.798 769.305 -362.997C732.307 -306.395 713.717 -248.808 705.395 -191.939C647.868 -176.533 582.898 -142.65 521.382 -103.182C459.365 -63.493 398.842 -17.6864 340.389 31.0088C279.304 78.7144 219.909 129.806 162.264 182.607C133.526 208.97 105.031 235.889 77.2818 263.139L36.0611 304.248C22.5289 317.97 8.61561 332.191 -2.6809 345.095L-27.5824 374.726C-35.5182 384.829 -42.5418 395.19 -50.0821 405.284C-65.8474 425.276 -77.3208 446.848 -90.8038 467.489C-96.9139 478.109 -101.944 488.917 -107.658 499.529L-116.033 515.442C-118.464 520.808 -120.606 526.376 -122.87 531.669L-136.543 564.124L-147.037 596.999C-162.227 640.533 -173.829 684.965 -176.772 729.552L-178.558 746.365C-178.89 751.964 -178.657 757.479 -178.821 763.004C-178.922 774.119 -179.19 785.308 -179.062 796.488C-176.723 818.591 -176.637 841.025 -171.818 862.863C-167.013 887.846 -157.827 911.893 -149.934 936.179C-139.577 959.71 -130.618 983.691 -117.523 1006.18C-106.33 1029.35 -91.3336 1051.17 -77.7976 1073.3C-62.5434 1094.34 -47.9579 1115.68 -30.4378 1135.07C31.2942 1218.61 115.09 1288.3 212.146 1342.74C262.787 1367.05 316.894 1386.52 372.627 1401.98C428.421 1417.58 486.392 1428.58 545.725 1434.52C604.603 1442.15 664.589 1445.49 725.334 1444.2C786.123 1442.56 847.211 1436.16 907.768 1425.37C1029.23 1404.13 1147.87 1361.49 1256.25 1303.71C1310.88 1275.37 1363.1 1242.47 1412.16 1206.01C1424.19 1196.58 1436.56 1187.5 1448.36 1178.01L1481.67 1149.31L1513.16 1118.76C1523.57 1108.39 1532.83 1097.21 1542.9 1086.5C1617.76 997.042 1673.41 893.894 1706.96 787.257C1740.12 680.629 1754.66 570.293 1744.84 465.396C1732.39 361.326 1698.5 262.56 1639.65 182.384C1590.09 104.726 1519.79 39.8321 1429.29 -0.147049C1336.84 -39.5929 1233.78 -53.2206 1128.06 -36.596C1022.6 -20.746 916.194 24.2687 820.05 86.2482C694.088 174.406 587.323 290.299 513.605 414.12C453.425 504.719 410.061 603.118 399.916 693.505C398.194 715.909 398.477 737.431 400.77 758.068C403.503 778.345 408.625 797.24 415.845 814.551C422.897 831.936 433.265 846.872 445.123 860.655C456.981 874.438 471.548 886.201 488.774 896.299C555.262 938.912 663.613 951.865 777.143 944.361L820.041 942.003C832.439 940.677 844.517 939.988 857.508 937.74C882.896 934.166 909.394 928.12 936.119 920.323C989.417 905.291 1043.11 882.983 1094.18 856.539C1143.93 827.538 1190.7 794.061 1230.65 757.313C1250.93 738.966 1268.81 719.694 1285.28 700.384C1300.77 680.678 1315.35 660.714 1326.08 640.625C1370.71 560.997 1365.14 486.617 1313.35 418.864C1307.36 410.261 1299.48 402.329 1292.83 394.021C1285.57 386.146 1277.73 379.681 1270.49 372.295C1254.57 360.63 1239.04 348.957 1222.41 343.389C1218.4 341.522 1214.44 339.792 1210.12 339.05L1197.85 335.692C1189.29 334.835 1181.26 332.917 1172.28 333.398C1155.03 333.225 1136.38 335.32 1115.95 341.998C1096.04 348.943 1075.25 358.425 1054.57 371.329C1033.75 383.467 1013.14 398.815 993.192 415.197C953.367 448.588 916.039 487.654 884.13 529.953C850.987 570.813 821.496 614.528 799.369 658.635C787.515 680.707 779.055 702.771 771.14 724.265C764.184 745.668 759.235 766.188 756.826 784.763C724.433 776.053 692.025 763.219 662.275 746.902C630.366 732.03 601.48 714.505 572.292 694.47L573.145 694.591Z" fill="#FFBF85"/>
<path d="M1146.91 1087.43C1139.72 1053.83 1078.28 1034.65 1050.74 1024.31C1011.56 1009.6 969.383 1003.42 927.713 1008.04C896.565 1011.47 866.53 1021.01 838.678 1034.98L989.552 840.801C1007.54 866.067 1055.87 881.386 1079.45 890.225C1118.63 904.937 1160.79 911.14 1202.46 906.517C1245.09 901.795 1285.63 885.775 1321.41 862.393C1352.14 842.292 1381.24 817.189 1403.71 787.974C1446.88 731.869 1328.27 711.055 1291.95 704.227C1222.47 691.129 1147.99 695.619 1083.39 725.979C1081.16 727.019 1078.63 728.291 1075.89 729.675L1175.29 601.75C1177.38 599.058 1179.29 596.302 1181.01 593.592C1260.71 644.687 1359.65 664.368 1453.62 639.603C1498.36 627.807 1597.67 578.515 1587.34 519.927C1579.92 477.851 1512.81 442.744 1482.73 420.34C1476.49 415.68 1470.26 411.039 1464.02 406.379C1527.81 347.643 1546.14 254.357 1463.72 182.999C1412.36 138.542 1351.23 132.247 1294.32 170.622C1275.06 183.602 1254.59 207.512 1241.71 233.811C1198.89 196.61 1149.41 156.97 1112.95 154.303C1108.39 153.964 1104.03 154.273 1099.84 155.145C1050.97 165.27 1028.3 252.291 1024.06 292.513C1016.72 362.231 1037.21 432.144 1075.63 490.176C1094.42 518.529 1117.21 543.755 1142.88 565.39C1140.93 567.499 1139 569.737 1137.15 572.117L943.514 821.333C949.091 797.34 951.839 772.573 951.656 748.305C951.186 679.762 924.451 579.249 864.225 537.466C832.698 515.592 803.748 595.809 794.745 616.177C769.419 673.426 765.664 744.776 778.478 806.261C785.569 840.29 814.196 919.418 853.531 937.146L659.766 1186.53C672.549 1137.69 672.775 1083.33 662.725 1035.05C654.936 997.707 621.185 905.926 575.817 900.776C542.132 896.958 525.051 945.082 514.061 970.189C497.377 1008.33 489.228 1051.41 489.524 1092.99C489.974 1159.48 515.151 1256.04 571.646 1299.9L528.979 1354.81C512.192 1376.42 507.117 1400.61 517.667 1408.81C528.217 1417 550.385 1406.13 567.191 1384.5L730.799 1173.93C757.195 1195.71 814.872 1205.95 838.307 1210.36C907.794 1223.46 982.274 1218.97 1046.87 1188.61C1076.63 1174.62 1155.51 1127.3 1147 1087.47L1146.91 1087.43ZM1234.07 289.578C1273.55 238.773 1344.41 227.775 1392.36 265.026C1440.3 302.278 1447.16 373.663 1407.69 424.468C1368.21 475.273 1297.35 486.271 1249.4 449.019C1201.46 411.768 1194.6 340.382 1234.07 289.578Z" fill="#F086A9"/>
</g>
<defs>
<radialGradient id="paint0_radial_22_2441" cx="0" cy="0" r="1" gradientUnits="userSpaceOnUse" gradientTransform="translate(474.5 -235) rotate(73.9898) scale(1760.28 2319.65)">
<stop stop-color="#FFB7DE"/>
<stop offset="1" stop-color="#FFBF85"/>
</radialGradient>
<clipPath id="clip0_22_2441">
<rect width="1920" height="1162" fill="white"/>
</clipPath>
</defs>
</svg>
