<svg width="1920" height="2996" viewBox="0 0 1920 2996" fill="none" xmlns="http://www.w3.org/2000/svg">
<g clip-path="url(#clip0_444_2790)">
<rect width="1920" height="2996" fill="url(#paint0_radial_444_2790)"/>
<path d="M204.873 1913C203.06 1916.93 202.032 1926.76 199.209 1929.37C193.69 1934.48 190.444 1923.96 188.875 1919.04C187.148 1913.62 187.071 1914.99 181.66 1912.33C179.424 1911.22 173.625 1908.3 173.125 1905.72C172.07 1900.26 177.886 1898.64 183.491 1898.52C186.192 1898.47 188.433 1896.47 188.825 1893.8C189.542 1888.97 191.481 1883.41 196.089 1881.65C203.682 1878.76 202.632 1891.27 204.431 1895.99C205.504 1898.82 207.475 1898.65 210.045 1899.06C213.472 1899.61 224.541 1904.11 218.508 1908.56C216.484 1910.04 213.891 1910.91 211.515 1911.64C210.807 1911.85 205.044 1912.64 204.877 1913H204.873Z" fill="#FDE68A"/>
<path d="M245.95 1892.39C243.826 1897 242.618 1908.53 239.304 1911.6C232.829 1917.59 229.018 1905.25 227.174 1899.47C225.15 1893.12 225.055 1894.73 218.711 1891.6C216.087 1890.3 209.282 1886.87 208.696 1883.84C207.456 1877.44 214.283 1875.53 220.857 1875.4C224.023 1875.34 226.656 1872.99 227.12 1869.86C227.959 1864.19 230.236 1857.66 235.642 1855.6C244.548 1852.21 243.321 1866.89 245.431 1872.43C246.694 1875.74 248.998 1875.55 252.019 1876.03C256.037 1876.67 269.027 1881.96 261.948 1887.17C259.576 1888.92 256.533 1889.94 253.746 1890.79C252.916 1891.04 246.157 1891.97 245.955 1892.4L245.95 1892.39Z" fill="#FDE68A"/>
<path d="M209.404 1860.22C208.308 1862.6 207.686 1868.54 205.977 1870.12C202.641 1873.21 200.675 1866.85 199.728 1863.87C198.682 1860.6 198.637 1861.43 195.363 1859.81C194.01 1859.15 190.502 1857.37 190.2 1855.81C189.56 1852.52 193.077 1851.53 196.468 1851.47C198.1 1851.44 199.457 1850.22 199.696 1848.61C200.129 1845.69 201.301 1842.32 204.088 1841.26C208.678 1839.51 208.047 1847.08 209.134 1849.93C209.783 1851.64 210.973 1851.54 212.529 1851.79C214.598 1852.12 221.294 1854.84 217.647 1857.53C216.425 1858.43 214.856 1858.96 213.417 1859.39C212.989 1859.53 209.503 1860 209.404 1860.22V1860.22Z" fill="#FDE68A"/>
<path d="M1709.44 1657.64C1709.23 1650.49 1711.91 1643.3 1716.73 1638.02C1719.08 1635.46 1722.93 1633.26 1725.86 1635.13C1727.76 1636.36 1728.38 1638.81 1728.77 1641.03C1729.97 1647.93 1730.33 1654.97 1729.84 1661.95C1731.03 1656.45 1732.26 1650.84 1735.13 1646C1738 1641.17 1742.85 1637.14 1748.46 1636.76C1752.34 1643.49 1751.78 1652.06 1748.87 1659.25C1745.95 1666.44 1740.95 1672.57 1736.03 1678.56C1734.34 1680.62 1732.46 1682.79 1729.87 1683.35C1718.7 1685.75 1709.67 1665.71 1709.44 1657.63V1657.64Z" fill="#F5F3FF"/>
<path d="M1588.95 1566.46C1589.29 1564.97 1589.88 1563.51 1590.94 1562.41C1591.99 1561.31 1593.59 1560.65 1595.06 1561.01C1596.53 1561.37 1597.59 1562.61 1598.44 1563.85C1602.08 1569.23 1603.35 1575.83 1604.52 1582.23C1605.22 1576.25 1605.94 1570.16 1608.52 1564.72C1609.19 1563.29 1610.13 1561.81 1611.65 1561.37C1613.59 1560.8 1615.51 1562.19 1617.07 1563.48C1618.86 1564.96 1620.74 1566.6 1621.32 1568.85C1621.96 1571.35 1620.83 1573.92 1619.73 1576.24C1617.23 1581.51 1613.37 1593.65 1606.32 1593.97C1599.31 1594.3 1593.03 1584.87 1590.56 1579.35C1588.76 1575.34 1587.91 1570.78 1588.94 1566.45L1588.95 1566.46Z" fill="#F5F3FF"/>
<path d="M1718.2 1500.14C1717.4 1494.93 1718.98 1489.08 1723.25 1486C1726.45 1486.9 1728.65 1490 1729.43 1493.23C1730.21 1496.46 1729.83 1499.85 1729.44 1503.15C1730.56 1498.79 1731.99 1494 1735.85 1491.67C1737.13 1490.89 1738.76 1490.47 1740.12 1491.09C1742.06 1491.99 1742.57 1494.59 1742.12 1496.68C1741.29 1500.64 1738.16 1503.68 1734.92 1506.1C1732.93 1507.58 1730.84 1508.92 1728.94 1510.51C1727.58 1511.65 1725.9 1513.96 1723.95 1512.76C1722.34 1511.78 1721.11 1508.5 1720.33 1506.85C1719.33 1504.72 1718.56 1502.47 1718.2 1500.14V1500.14Z" fill="#F5F3FF"/>
<path d="M231.436 957.637C231.232 950.489 233.908 943.296 238.733 938.022C241.081 935.457 244.934 933.256 247.856 935.135C249.759 936.358 250.383 938.806 250.772 941.033C251.969 947.929 252.328 954.975 251.836 961.953C253.029 956.454 254.262 950.843 257.132 946.004C260.003 941.166 264.853 937.142 270.461 936.763C274.339 943.485 273.777 952.056 270.865 959.25C267.954 966.443 262.955 972.567 258.028 978.562C256.344 980.616 254.461 982.792 251.867 983.35C240.703 985.751 231.672 965.706 231.436 957.627V957.637Z" fill="#F5F3FF"/>
<path d="M110.946 866.456C111.293 864.973 111.882 863.505 112.935 862.407C113.994 861.312 115.592 860.654 117.065 861.014C118.527 861.37 119.591 862.606 120.439 863.849C124.083 869.232 125.346 875.835 126.521 882.228C127.217 876.253 127.941 870.16 130.515 864.721C131.192 863.292 132.13 861.807 133.646 861.368C135.589 860.801 137.514 862.185 139.073 863.48C140.858 864.963 142.744 866.601 143.322 868.854C143.962 871.346 142.833 873.916 141.729 876.24C139.232 881.506 135.369 893.647 128.323 893.974C121.307 894.301 115.025 884.872 112.555 879.35C110.762 875.341 109.915 870.783 110.94 866.451L110.946 866.456Z" fill="#F5F3FF"/>
<path d="M240.199 800.141C239.401 794.934 240.982 789.082 245.255 786C248.453 786.896 250.653 789.999 251.431 793.229C252.208 796.46 251.83 799.85 251.441 803.152C252.561 798.79 253.994 793.997 257.847 791.668C259.126 790.895 260.758 790.47 262.119 791.094C264.058 791.99 264.57 794.586 264.125 796.68C263.291 800.638 260.16 803.679 256.916 806.096C254.93 807.576 252.838 808.917 250.939 810.509C249.578 811.651 247.9 813.955 245.945 812.762C244.344 811.784 243.106 808.502 242.333 806.854C241.33 804.719 240.558 802.471 240.199 800.136V800.141Z" fill="#F5F3FF"/>
<path d="M1655.79 605.702C1653.13 611.474 1651.62 625.898 1647.48 629.737C1639.37 637.23 1634.61 621.793 1632.3 614.559C1629.77 606.609 1629.66 608.621 1621.71 604.709C1618.43 603.087 1609.92 598.791 1609.18 595.005C1607.63 587.002 1616.17 584.613 1624.4 584.447C1628.37 584.368 1631.66 581.429 1632.23 577.51C1633.28 570.421 1636.13 562.252 1642.9 559.671C1654.04 555.428 1652.5 573.796 1655.14 580.734C1656.72 584.877 1659.61 584.632 1663.38 585.235C1668.41 586.036 1684.66 592.648 1675.81 599.175C1672.84 601.36 1669.03 602.637 1665.54 603.696C1664.5 604.014 1656.04 605.166 1655.8 605.702H1655.79Z" fill="#FDE68A"/>
<path d="M1716.09 575.444C1712.97 582.216 1711.2 599.135 1706.34 603.643C1696.83 612.44 1691.24 594.323 1688.53 585.836C1685.56 576.51 1685.42 578.873 1676.1 574.279C1672.25 572.379 1662.26 567.335 1661.4 562.887C1659.58 553.501 1669.6 550.694 1679.26 550.502C1683.9 550.41 1687.77 546.961 1688.45 542.361C1689.68 534.04 1693.02 524.455 1700.96 521.437C1714.03 516.452 1712.23 538.012 1715.33 546.147C1717.18 551.005 1720.57 550.721 1725 551.429C1730.9 552.369 1749.97 560.127 1739.58 567.785C1736.1 570.354 1731.63 571.85 1727.54 573.094C1726.32 573.465 1716.4 574.822 1716.1 575.451L1716.09 575.444Z" fill="#FDE68A"/>
<path d="M1662.44 528.215C1660.83 531.704 1659.92 540.428 1657.41 542.751C1652.51 547.286 1649.63 537.946 1648.24 533.577C1646.7 528.771 1646.64 529.989 1641.83 527.619C1639.84 526.64 1634.69 524.038 1634.25 521.748C1633.31 516.909 1638.47 515.46 1643.45 515.367C1645.85 515.321 1647.84 513.54 1648.19 511.17C1648.83 506.881 1650.55 501.943 1654.64 500.381C1661.38 497.812 1660.45 508.926 1662.05 513.116C1663 515.625 1664.75 515.473 1667.03 515.837C1670.07 516.32 1679.9 520.318 1674.54 524.27C1672.75 525.594 1670.45 526.362 1668.33 527.004C1667.7 527.196 1662.59 527.891 1662.44 528.222V528.215Z" fill="#FDE68A"/>
<path d="M331.645 264.616C275.331 291.158 211.167 297.543 154.856 324.087C158.937 305.179 148.934 277.075 155.424 258.856C163.166 267.195 185.231 285.101 192.973 293.439C195.975 276.893 195.066 246.178 199.372 229.923C207.328 242.809 220.581 269.53 229.938 281.438C238.797 266.736 241.209 229.287 244.46 212.427C253.216 224.65 265.811 258.046 274.567 270.269C283.927 254.163 283.454 216.089 289.814 198.58C299.425 213.921 319.307 251.37 331.648 264.619L331.645 264.616Z" fill="#FDE68A"/>
</g>
</svg>
