<svg width="1024" height="1942" viewBox="0 0 1024 1942" fill="none" xmlns="http://www.w3.org/2000/svg">
<g clip-path="url(#clip0_437_1465)">
<rect width="1024" height="1941.5" transform="translate(0 0.121094)" fill="url(#paint0_radial_437_1465)"/>
<path d="M636.393 1424.65C659.67 1456.53 686.542 1542.5 716.477 1560.79C774.992 1596.48 785.084 1496.66 790.239 1449.78C795.927 1398.27 799.08 1410.39 842.645 1376.83C860.646 1362.93 907.205 1326.34 907.036 1302.39C906.655 1251.77 851.738 1247.69 801.441 1256.77C777.204 1261.14 753.571 1247.28 745.26 1224.13C730.161 1182.26 702.818 1136.02 658.465 1128.59C585.397 1116.43 617.307 1226.37 609.731 1271.84C605.22 1299 587.307 1301.06 565.074 1309.35C535.427 1320.4 444.596 1380.58 506.52 1409.46C527.293 1419.11 552.033 1422.22 574.571 1424.4C581.287 1425.06 634.203 1421.7 636.351 1424.66L636.393 1424.65Z" fill="#C399F1"/>
<path d="M232.166 1314.36C259.45 1351.76 290.992 1452.6 326.14 1474.08C394.797 1515.99 406.641 1398.82 412.721 1343.84C419.381 1283.41 423.125 1297.63 474.197 1258.24C495.323 1241.95 549.953 1199 549.738 1170.86C549.314 1111.48 484.856 1106.68 425.862 1117.34C397.457 1122.48 369.693 1106.22 359.902 1079.05C342.205 1029.9 310.103 975.639 258.081 966.992C172.376 952.673 209.769 1081.73 200.882 1135.05C195.555 1166.91 174.612 1169.32 148.479 1179.07C113.723 1192.02 7.12725 1262.64 79.7891 1296.52C104.136 1307.89 133.173 1311.52 159.605 1314.08C167.475 1314.85 229.548 1310.94 232.133 1314.41L232.166 1314.36Z" fill="#C399F1"/>
<path d="M500.733 961.085C514.803 980.351 531.061 1032.35 549.184 1043.42C584.565 1065.02 590.685 1004.62 593.793 976.314C597.251 945.172 599.148 952.506 625.501 932.187C636.39 923.788 664.556 901.636 664.448 887.148C664.239 856.536 631.025 854.04 600.605 859.578C585.959 862.234 571.647 853.835 566.606 839.837C557.478 814.501 540.945 786.547 514.124 782.052C469.949 774.676 489.217 841.205 484.641 868.672C481.913 885.114 471.088 886.329 457.631 891.346C439.725 898.013 384.779 934.406 422.228 951.9C434.772 957.761 449.738 959.612 463.381 960.932C467.445 961.33 499.449 959.289 500.742 961.125L500.733 961.085Z" fill="#C399F1"/>
<path d="M390.521 597.261C367.244 629.141 340.372 715.107 310.437 733.401C251.922 769.089 241.83 669.264 236.676 622.391C230.987 570.882 227.835 582.995 184.27 549.439C166.268 535.54 119.71 498.949 119.878 474.996C120.259 424.373 175.176 420.293 225.473 429.373C249.71 433.75 273.343 419.89 281.654 396.738C296.753 354.866 324.096 308.623 368.449 301.2C441.517 289.033 409.607 398.978 417.183 444.451C421.694 471.611 439.607 473.666 461.84 481.959C491.487 493.003 582.318 553.187 520.394 582.065C499.621 591.721 474.881 594.832 452.344 597.004C445.627 597.664 392.711 594.306 390.563 597.27L390.521 597.261Z" fill="#EAACE5"/>
<path d="M794.748 486.967C767.464 524.372 735.922 625.207 700.774 646.687C632.117 688.593 620.273 571.432 614.193 516.447C607.533 456.019 603.789 470.236 552.718 430.849C531.591 414.56 476.961 371.604 477.176 343.467C477.6 284.089 542.058 279.288 601.052 289.951C629.457 295.084 657.221 278.827 667.012 251.654C684.709 202.505 716.811 148.247 768.833 139.6C854.538 125.281 817.145 254.334 826.032 307.662C831.359 339.515 852.302 341.928 878.435 351.678C913.191 364.631 1019.79 435.244 947.125 469.131C922.778 480.499 893.741 484.13 867.309 486.691C859.44 487.455 797.366 483.552 794.781 487.015L794.748 486.967Z" fill="#EAACE5"/>
<path d="M526.181 133.692C512.111 152.959 495.853 204.956 477.73 216.026C442.349 237.627 436.229 177.224 433.121 148.921C429.663 117.78 427.766 125.114 401.413 104.794C390.524 96.3953 362.358 74.2433 362.466 59.7554C362.676 29.1431 395.889 26.6473 426.309 32.1857C440.955 34.8414 455.267 26.4425 460.308 12.4448C469.436 -12.8911 485.969 -40.8452 512.79 -45.341C556.965 -52.7164 537.697 13.8127 542.273 41.2789C545.001 57.7216 555.826 58.9368 569.283 63.9532C587.189 70.62 642.135 107.013 604.687 124.507C592.142 130.368 577.176 132.219 563.533 133.54C559.469 133.938 527.465 131.896 526.172 133.732L526.181 133.692Z" fill="#EAACE5"/>
</g>
<defs>
<radialGradient id="paint0_radial_437_1465" cx="0" cy="0" r="1" gradientUnits="userSpaceOnUse" gradientTransform="translate(512 2141.09) rotate(-90) scale(2141.09 1129.27)">
<stop stop-color="#A78BFA"/>
<stop offset="1" stop-color="#FFB7DE"/>
</radialGradient>
<clipPath id="clip0_437_1465">
<rect width="1024" height="1941.5" fill="white" transform="translate(0 0.121094)"/>
</clipPath>
</defs>
</svg>
