<svg width="1920" height="1143" viewBox="0 0 1920 1143" fill="none" xmlns="http://www.w3.org/2000/svg">
<g clip-path="url(#clip0_1_1883)">
<rect width="1920" height="1143" fill="url(#paint0_radial_1_1883)"/>
<path d="M448.536 251.217C386.671 289.598 312.985 305.614 251.124 343.998C253.331 321.485 237.944 290.176 243.042 268.141C253.153 276.79 281.187 294.636 291.299 303.285C292.568 283.661 287.397 248.099 290.22 228.639C301.19 242.543 320.167 271.809 332.634 284.389C340.955 266.122 338.739 222.293 340.256 202.271C352.066 215.297 371.174 252.406 382.984 265.433C391.7 245.468 386.048 201.299 391.09 180.106C404.311 196.64 432.428 237.481 448.54 251.22L448.536 251.217Z" fill="#FFFF33"/>
<path fill-rule="evenodd" clip-rule="evenodd" d="M1785.59 893.183C1786.24 892.538 1786.16 891.485 1786.03 890.58L1786.03 890.577C1785.47 886.572 1784.9 882.565 1784.34 878.56C1784.27 878.074 1784.23 877.493 1784.19 876.865L1784.19 876.865C1784.01 874.298 1783.78 870.964 1781.33 870.317C1776.63 869.083 1769.17 878.083 1766.41 881.416L1766.25 881.603C1765.15 882.934 1764.05 884.651 1764.65 886.274C1765.07 887.431 1766.24 888.123 1767.34 888.682C1772.26 891.185 1777.6 892.864 1783.07 893.631C1783.95 893.754 1784.97 893.81 1785.59 893.183ZM1733.41 883.161C1734.51 883.322 1735.49 882.401 1735.4 881.284L1735.4 881.282C1735.13 878.003 1734.59 874.743 1733.8 871.551C1733.72 871.218 1733.63 870.836 1733.54 870.423C1732.95 867.666 1732.05 863.521 1729.02 863.513C1726.04 863.506 1722.21 866.745 1720.04 868.575L1720.01 868.597C1719.37 869.141 1712.87 876.122 1713.38 876.407C1719.57 879.843 1726.4 882.142 1733.41 883.161ZM1757.24 924.108C1758.35 924.269 1759.33 923.348 1759.23 922.231L1759.23 922.228C1758.96 918.95 1758.43 915.689 1757.63 912.497C1757.55 912.165 1757.47 911.783 1757.38 911.369C1756.78 908.612 1755.88 904.467 1752.85 904.46C1749.86 904.453 1746.02 907.704 1743.86 909.535L1743.85 909.544C1743.21 910.088 1736.7 917.069 1737.22 917.354C1743.41 920.79 1750.23 923.088 1757.24 924.108ZM1804.92 934.934C1805.3 936.13 1805.68 937.35 1805.67 938.605C1805.67 939.862 1805.2 941.178 1804.18 941.907C1802.65 942.99 1800.56 942.44 1798.78 941.849C1796.84 941.202 1794.9 940.555 1792.96 939.907L1792.96 939.906L1792.95 939.905L1792.95 939.902L1792.94 939.899L1792.93 939.896L1792.92 939.893L1792.91 939.889C1790.8 939.186 1788.69 938.483 1786.58 937.78C1784.43 937.062 1781.88 935.854 1781.76 933.587C1781.67 931.782 1783.22 930.368 1784.64 929.245C1785.26 928.749 1786.11 927.961 1787.09 927.048L1787.09 927.048L1787.09 927.048L1787.09 927.048C1790.53 923.835 1795.63 919.079 1798.63 920.094C1801.63 921.11 1803.11 927.47 1804.13 931.844C1804.42 933.094 1804.67 934.181 1804.91 934.936L1804.92 934.934ZM1769.3 945.42C1767.98 945.888 1767 947.001 1766.08 948.069C1762.47 952.287 1758.85 956.505 1755.24 960.726C1762.15 964.903 1770.12 967.316 1778.2 967.675C1779.68 967.74 1777.1 955.217 1776.69 954.142C1776.63 954 1776.58 953.845 1776.51 953.679C1775.4 950.717 1772.94 944.138 1769.3 945.42ZM1682.02 949.124C1682.11 950.241 1681.13 951.162 1680.02 951C1673.01 949.981 1666.19 947.683 1660 944.246C1659.48 943.961 1665.99 936.981 1666.63 936.437L1666.66 936.414L1666.66 936.414C1668.82 934.584 1672.65 931.346 1675.64 931.353C1678.66 931.36 1679.56 935.505 1680.16 938.262C1680.25 938.675 1680.33 939.058 1680.42 939.39C1681.21 942.582 1681.75 945.842 1682.02 949.121L1682.02 949.124ZM1734.92 967.25C1735.05 968.155 1735.13 969.208 1734.48 969.853C1733.85 970.48 1732.83 970.424 1731.96 970.301C1726.49 969.534 1721.15 967.855 1716.22 965.352C1715.12 964.793 1713.96 964.1 1713.53 962.944C1712.94 961.321 1714.04 959.604 1715.14 958.273L1715.29 958.086C1718.06 954.753 1725.51 945.753 1730.21 946.987C1732.67 947.633 1732.9 950.968 1733.07 953.535C1733.12 954.163 1733.16 954.744 1733.23 955.23C1733.79 959.234 1734.35 963.242 1734.92 967.246L1734.92 967.25ZM1719.46 907.22L1720.99 927.766C1721.08 929.463 1719.52 930.809 1717.66 930.624C1713.88 930.245 1710.12 929.565 1706.45 928.593C1705.28 928.286 1704.06 927.911 1703.25 927.08C1701.51 925.306 1702.49 922.562 1703.8 920.586C1706.52 916.463 1710.24 912.994 1713.93 909.565C1715.43 908.18 1717.36 906.677 1719.46 907.222L1719.46 907.22ZM1693.99 908.972C1694.85 908.563 1694.92 907.38 1694.86 906.425L1694.86 906.426C1694.76 904.751 1694.66 903.076 1694.56 901.402C1694.46 899.728 1694.36 898.055 1694.26 896.381C1694.23 895.937 1694.23 895.414 1694.22 894.848C1694.21 892.525 1694.2 889.474 1692.5 888.206C1689.02 885.62 1680.74 894.018 1678.36 896.426L1678.32 896.472C1676.93 897.874 1675.55 899.679 1675.94 901.607C1676.31 903.456 1678.17 904.575 1679.88 905.357C1683.93 907.197 1688.24 908.447 1692.65 909.055C1693.1 909.116 1693.58 909.169 1693.99 908.972Z" fill="#F5F3FF"/>
</g>
<defs>
<radialGradient id="paint0_radial_1_1883" cx="0" cy="0" r="1" gradientUnits="userSpaceOnUse" gradientTransform="translate(960 1260.5) rotate(-90) scale(1260.5 2117.38)">
<stop stop-color="#A78BFA"/>
<stop offset="1" stop-color="#FFB7DE"/>
</radialGradient>
<clipPath id="clip0_1_1883">
<rect width="1920" height="1143" fill="white"/>
</clipPath>
</defs>
</svg>
