<svg width="1920" height="1080" viewBox="0 0 1920 1080" fill="none" xmlns="http://www.w3.org/2000/svg">
<g clip-path="url(#clip0_22_1689)">
<rect width="1920" height="1080" fill="#FFBF85"/>
<rect width="1920" height="1080" fill="url(#paint0_radial_22_1689)"/>
<path d="M973.032 198.201C1007.31 171.554 1035.19 142.564 1058.66 111.931C1082.34 81.3409 1100.93 48.9844 1114.67 14.9807C1127.04 -19.3497 1134.49 -55.6379 1128.55 -93.7959C1125.22 -112.773 1118.23 -132.087 1105.68 -150.135C1093.43 -168.316 1074.15 -184.263 1052.05 -196.3C1041.35 -202.779 1029.54 -207.472 1017.63 -212.148C1011.61 -214.235 1005.44 -215.899 999.347 -217.736L990.079 -220.309L980.825 -222.165L962.131 -225.687C955.988 -226.557 949.777 -227.178 943.567 -227.797C931.082 -229.424 918.953 -229.595 906.758 -230.154C858.189 -231.79 803.004 -224.884 751.227 -205.633C699.395 -184.138 656.572 -150.692 629.173 -115.642C615.043 -98.083 603.827 -80.0624 595.338 -62.0269C586.624 -44.0328 580.107 -25.9349 575.723 -8.11852C570.915 9.76995 568.041 27.491 566.769 45.0177C565.179 62.5984 565.522 80.0086 567.137 97.2041C570.38 131.673 578.96 165.473 595.3 198.114C599.2 206.306 603.96 214.432 608.92 222.444C614.303 230.383 620.176 238.638 625.745 245.11C631.381 251.97 636.803 258.865 643.167 265.521C649.213 272.231 655.366 278.924 662.353 285.395C689.226 311.379 720.893 336.069 761.821 354.958C801.928 374.146 853.031 386.201 906.382 385.827C959.918 385.262 1013 372.409 1057.83 353.302C1080.29 343.74 1101.21 332.765 1120.78 320.904C1140.11 308.923 1158.01 296.227 1174.82 282.919C1207.99 256.141 1236.44 227.294 1260.76 197.234C1315.53 128.892 1351.28 54.4519 1365.07 -21.5221C1377.22 -68.6591 1380.71 -117.434 1370.71 -165.353C1360.93 -213.23 1336.7 -260.243 1296.99 -299.522C1280.36 -314.005 1262.14 -327.579 1242.15 -339.338C1232.12 -345.131 1221.78 -350.793 1211.23 -355.78C1200.5 -360.576 1189.93 -365.643 1178.83 -370.057C1134.39 -387.791 1085.05 -399.745 1033.97 -405.261C931.284 -414.849 825.921 -399.172 731.179 -369.107C634.599 -341.521 545.209 -299.204 467.703 -246.621C393.135 -192.145 331.007 -127.34 291.343 -55.4238L276.544 -28.3377L264.153 -0.545142L254.345 27.6867L247.186 55.4683C239.118 92.6572 236.545 130.107 239.521 166.855C248.44 239.845 279.65 308.649 327.709 368.206C369.35 422.073 424.358 469.28 489.371 507.368C553.429 546.256 627.65 576.956 709.177 595.485C791.367 612.784 879.898 617.359 967.908 609.897C1011.58 606.462 1055.67 600.323 1099.45 591.125C1143.14 581.385 1186.36 568.215 1227.74 551.289C1310.81 517.944 1384.3 466.763 1436.22 407.283C1461.06 377.055 1481.62 345.4 1496.97 313.196C1511.86 282.185 1524.15 251.858 1535.91 220.982C1558.77 159.26 1577.37 96.8276 1586.51 32.5741C1591.59 0.917971 1594.4 -31.3086 1591.5 -64.3996C1589.88 -80.9569 1586.93 -97.6858 1581.12 -114.567C1575.32 -131.37 1566.51 -148.539 1552.13 -164.522C1530.37 -136.092 1501.59 -113.651 1469.67 -94.9038C1480.27 -71.0192 1482.15 -39.431 1479.41 -7.45531C1476.71 24.7529 1469.75 58.165 1460.29 91.681C1452.36 125.816 1441.77 160.323 1429.52 194.713C1423.38 211.869 1416.83 229.098 1409.81 246.165L1399 271.695C1395.31 280.14 1391.45 288.854 1387.48 296.308L1378.02 313.074C1374.6 318.601 1370.7 323.891 1367.15 329.281C1360.4 340.24 1351.19 350.181 1343.25 360.545C1338.87 365.596 1334.01 370.332 1329.5 375.246L1322.68 382.549C1320.24 384.878 1317.58 387.165 1315.12 389.417L1300.02 403.152L1283.55 415.923C1262.19 433.275 1239.03 449.657 1212.76 463.137L1203.09 468.45C1199.78 470.129 1196.32 471.594 1192.99 473.196C1186.23 476.341 1179.47 479.563 1172.58 482.649C1158.24 488.039 1144.47 494.288 1129.43 498.76C1112.46 504.117 1094.54 507.722 1076.93 511.833C1058.92 514.895 1041.12 518.558 1022.79 520.397C1004.71 523.071 986.132 524.075 967.87 525.664C949.676 526.364 931.534 527.373 913.565 526.838C840.933 529.213 769.091 520.208 701.97 502.421C669.456 491.993 638.693 479.035 609.825 464.398C580.851 449.779 553.929 433.135 529.633 414.61C504.461 396.712 481.529 377.237 461.167 356.208C441.004 335.066 423.649 312.49 409.169 288.866C379.876 241.595 364.663 189.297 362.296 136.253C360.622 109.734 362.577 82.758 367.816 55.8618C369.397 49.1315 370.649 42.378 372.349 35.7073L378.323 16.3439L386.059 -2.91972C388.778 -9.3649 392.397 -15.6436 395.448 -22.0653C424.144 -72.5726 467.906 -120.377 521.502 -161.635C575.23 -202.757 637.707 -238.585 705.34 -264.6C773.383 -289.489 845.642 -305.6 915.215 -308.014C980.011 -312.886 1044.22 -307.128 1100.2 -287.527C1156.54 -267.11 1200.77 -235.859 1227.4 -195.236C1254.42 -154.918 1263.92 -106.117 1259.46 -56.0594C1249.35 11.4701 1215.58 80.2304 1165.46 139.965C1130.95 185.796 1085.81 228.088 1034.02 256.836C1020.9 263.693 1007.63 269.619 994.198 274.615C980.833 279.359 967.483 282.905 954.372 285.293C941.274 287.759 928.521 288.412 915.955 288.234C903.388 288.057 891.115 286.393 878.935 283.358C829.698 272.662 784.04 239.422 749.102 198.694L735.607 183.439C732.102 178.849 728.319 174.547 725.171 169.498C718.518 159.86 712.993 149.152 708.46 137.877C699.103 115.536 694.063 91.0245 692.467 66.2474C692.898 41.2056 697.103 15.921 705.689 -7.95447C709.857 -19.9905 715.429 -31.4675 721.515 -42.4736C728.185 -53.2597 735.33 -63.8065 743.891 -73.0795C777.092 -110.552 824.565 -129.471 884.074 -130.812C891.424 -131.184 899.025 -130.721 906.427 -130.783C913.776 -130.516 920.462 -129.659 927.506 -129.261C940.19 -127.11 952.741 -125.095 961.94 -120.995C964.482 -120.151 966.919 -119.288 968.878 -118.026L975.204 -114.793C978.711 -112.119 982.682 -109.922 985.513 -106.734C991.626 -100.913 996.838 -93.9809 999.863 -85.1618C1002.54 -76.4438 1003.98 -66.7165 1003.28 -56.0682C1003.1 -45.5874 1000.88 -34.2809 997.8 -22.9081C991.227 -0.0130954 980.311 23.6201 965.528 46.3153C952.056 69.0269 935.565 91.2951 916.27 111.168C906.886 121.378 896.325 130.431 885.924 139.14C875.244 147.496 864.406 154.923 853.874 160.941C870.486 169.525 889.627 176.96 909.975 182.515C930.189 189.21 950.976 194.133 973.403 198.457L973.032 198.201Z" fill="#FFBF85"/>
</g>
<defs>
<radialGradient id="paint0_radial_22_1689" cx="0" cy="0" r="1" gradientUnits="userSpaceOnUse" gradientTransform="translate(980 253.5) rotate(91.3862) scale(826.742 1469.76)">
<stop stop-color="#FFB7DE"/>
<stop offset="1" stop-color="#FFBF85"/>
</radialGradient>
<clipPath id="clip0_22_1689">
<rect width="1920" height="1080" fill="white"/>
</clipPath>
</defs>
</svg>
