<svg width="1920" height="7770" viewBox="0 0 1920 7770" fill="none" xmlns="http://www.w3.org/2000/svg">
<path d="M1150.7 7483.79C1150.4 7488.35 1153.08 7498.42 1151.28 7502.06C1147.77 7509.16 1140.61 7500.02 1137.21 7495.76C1133.47 7491.07 1133.91 7492.45 1127.58 7491.86C1124.96 7491.62 1118.14 7490.92 1116.68 7488.56C1113.59 7483.59 1118.71 7479.8 1124.19 7477.58C1126.83 7476.51 1128.28 7473.69 1127.66 7470.91C1126.55 7465.88 1126.37 7459.67 1130.25 7456.21C1136.64 7450.5 1140.31 7463.22 1143.87 7467.2C1145.99 7469.58 1147.86 7468.67 1150.55 7468.11C1154.13 7467.36 1166.73 7467.63 1162.46 7474.28C1161.03 7476.51 1158.8 7478.34 1156.73 7479.95C1156.12 7480.43 1150.73 7483.37 1150.71 7483.79L1150.7 7483.79Z" fill="#FDE68A"/>
<path d="M1189.04 7416.49C1188.68 7421.84 1191.83 7433.64 1189.72 7437.92C1185.6 7446.26 1177.2 7435.53 1173.21 7430.53C1168.82 7425.03 1169.33 7426.66 1161.9 7425.96C1158.83 7425.67 1150.83 7424.85 1149.12 7422.08C1145.49 7416.25 1151.49 7411.8 1157.92 7409.2C1161.02 7407.94 1162.73 7404.64 1162.01 7401.37C1160.7 7395.47 1160.48 7388.18 1165.04 7384.12C1172.53 7377.43 1176.85 7392.36 1181.02 7397.02C1183.51 7399.81 1185.7 7398.75 1188.86 7398.09C1193.06 7397.21 1207.85 7397.53 1202.84 7405.33C1201.16 7407.95 1198.54 7410.1 1196.12 7411.98C1195.4 7412.54 1189.08 7416 1189.05 7416.49L1189.04 7416.49Z" fill="#FDE68A"/>
<path d="M1108.23 7409.83C1108.04 7412.58 1109.67 7418.67 1108.58 7420.87C1106.46 7425.17 1102.12 7419.64 1100.07 7417.07C1097.81 7414.24 1098.08 7415.07 1094.24 7414.71C1092.66 7414.57 1088.54 7414.14 1087.65 7412.72C1085.78 7409.71 1088.87 7407.41 1092.19 7406.07C1093.79 7405.43 1094.67 7403.72 1094.29 7402.04C1093.62 7399 1093.51 7395.25 1095.86 7393.15C1099.72 7389.7 1101.95 7397.39 1104.09 7399.8C1105.37 7401.24 1106.51 7400.69 1108.13 7400.35C1110.3 7399.89 1117.92 7400.05 1115.34 7404.08C1114.47 7405.43 1113.13 7406.53 1111.87 7407.51C1111.5 7407.8 1108.24 7409.57 1108.23 7409.83L1108.23 7409.83Z" fill="#FDE68A"/>
<path d="M1157.56 5396.78C1155.06 5391.29 1155.21 5384.66 1157.96 5378.7C1159.31 5375.8 1162.15 5372.61 1165.46 5372.95C1167.61 5373.18 1168.98 5374.85 1170.06 5376.43C1173.39 5381.35 1176 5386.71 1177.8 5392.33C1177.13 5387.59 1176.45 5382.75 1177.54 5377.87C1178.63 5373 1181.81 5368.01 1186.87 5365.57C1192.62 5369.32 1194.87 5376.22 1194.51 5382.94C1194.14 5389.66 1191.5 5396.35 1188.89 5402.91C1188 5405.15 1186.96 5407.57 1184.74 5409C1175.21 5415.15 1160.39 5402.98 1157.56 5396.77L1157.56 5396.78Z" fill="#F5F3FF"/>
<path d="M1016.79 5371.85C1016.64 5370.56 1016.7 5369.19 1017.32 5367.93C1017.95 5366.67 1019.21 5365.55 1020.69 5365.26C1022.15 5364.98 1023.54 5365.54 1024.72 5366.18C1029.83 5368.98 1033.13 5373.65 1036.28 5378.18C1034.99 5373.26 1033.69 5368.23 1034.31 5363C1034.47 5361.63 1034.86 5360.11 1036.12 5359.19C1037.73 5358.01 1039.96 5358.35 1041.82 5358.76C1043.94 5359.23 1046.22 5359.79 1047.48 5361.32C1048.87 5363.02 1048.66 5365.45 1048.39 5367.69C1047.79 5372.75 1048.14 5383.69 1041.74 5386.64C1035.36 5389.59 1026.51 5384.64 1022.45 5381.28C1019.49 5378.85 1017.24 5375.62 1016.79 5371.85L1016.79 5371.85Z" fill="#F5F3FF"/>
<path d="M1114.77 5270.66C1112.35 5266.91 1111.92 5261.74 1114.87 5257.71C1118.11 5257.18 1121.15 5258.75 1122.91 5260.98C1124.67 5263.2 1125.42 5265.98 1126.13 5268.71C1125.75 5264.88 1125.53 5260.59 1128.33 5257.3C1129.26 5256.21 1130.63 5255.25 1132.09 5255.22C1134.17 5255.17 1135.49 5257 1135.75 5258.8C1136.26 5262.21 1134.35 5265.78 1132.13 5268.9C1130.78 5270.82 1129.28 5272.66 1128.04 5274.63C1127.15 5276.04 1126.35 5278.48 1124.15 5278.3C1122.36 5278.15 1120.15 5276.07 1118.91 5275.08C1117.29 5273.8 1115.85 5272.34 1114.77 5270.66L1114.77 5270.66Z" fill="#F5F3FF"/>
<path d="M1707.52 1484.98C1666.95 1464.02 1634.62 1429.51 1594.06 1408.54C1606.89 1402.5 1618.8 1384.16 1632.3 1379.83C1630.9 1388.05 1630.31 1408.87 1628.9 1417.09C1639.88 1411.47 1657.36 1397.26 1668.75 1392.53C1664.79 1402.9 1655.14 1422.51 1652.37 1433.26C1664.89 1431.87 1687.78 1416.6 1699.05 1410.99C1695.83 1421.53 1681.99 1443.73 1678.78 1454.27C1692.33 1452.55 1714.3 1435.32 1727.33 1431.22C1722.68 1443.65 1709.74 1471.9 1707.52 1484.99L1707.52 1484.98Z" fill="#F5F3FF"/>
<path d="M237.964 847.198C235.588 840.454 235.942 832.787 238.928 826.293C240.382 823.133 243.379 819.861 246.735 820.759C248.921 821.344 250.262 823.484 251.312 825.487C254.556 831.689 257.047 838.289 258.708 845.085C258.166 839.484 257.628 833.764 258.886 828.281C260.143 822.797 263.535 817.485 268.759 815.413C274.504 820.632 276.583 828.966 276.005 836.705C275.427 844.443 272.535 851.8 269.672 859.013C268.695 861.482 267.566 864.129 265.266 865.452C255.366 871.145 240.65 854.811 237.961 847.189L237.964 847.198Z" fill="#F5F3FF"/>
<path d="M95.3996 797.126C95.2784 795.608 95.3908 794.031 96.0589 792.663C96.7339 791.298 98.0538 790.183 99.5667 790.076C101.068 789.97 102.458 790.822 103.645 791.747C108.758 795.762 111.975 801.664 115.044 807.394C113.884 801.492 112.715 795.468 113.507 789.503C113.716 787.936 114.155 786.236 115.466 785.355C117.143 784.223 119.398 784.953 121.278 785.71C123.43 786.578 125.726 787.562 126.964 789.532C128.333 791.709 128.043 794.502 127.7 797.052C126.929 802.829 126.955 815.569 120.344 818.03C113.763 820.482 104.903 813.419 100.867 808.914C97.9357 805.643 95.7382 801.561 95.3927 797.124L95.3996 797.126Z" fill="#F5F3FF"/>
<path d="M198.258 694.539C195.909 689.823 195.629 683.768 198.758 679.529C202.076 679.407 205.118 681.69 206.845 684.53C208.571 687.369 209.244 690.712 209.882 693.976C209.618 689.48 209.52 684.479 212.479 681.085C213.461 679.958 214.886 679.056 216.372 679.235C218.492 679.497 219.772 681.813 219.987 683.943C220.4 687.966 218.346 691.818 215.994 695.109C214.555 697.124 212.971 699.04 211.649 701.136C210.701 702.638 209.806 705.344 207.581 704.804C205.757 704.362 203.576 701.614 202.338 700.28C200.731 698.553 199.31 696.648 198.256 694.534L198.258 694.539Z" fill="#F5F3FF"/>
<path d="M1562.79 478.702C1560.13 484.474 1558.62 498.898 1554.48 502.737C1546.37 510.23 1541.61 494.793 1539.3 487.559C1536.77 479.609 1536.66 481.621 1528.71 477.709C1525.43 476.087 1516.92 471.791 1516.18 468.005C1514.63 460.002 1523.17 457.613 1531.4 457.447C1535.37 457.368 1538.66 454.429 1539.23 450.51C1540.28 443.421 1543.13 435.252 1549.9 432.671C1561.04 428.428 1559.5 446.796 1562.14 453.734C1563.72 457.877 1566.61 457.632 1570.38 458.235C1575.41 459.036 1591.66 465.648 1582.81 472.175C1579.84 474.36 1576.03 475.637 1572.54 476.696C1571.5 477.014 1563.04 478.166 1562.8 478.702H1562.79Z" fill="#FDE68A"/>
<path d="M1623.09 448.444C1619.97 455.216 1618.2 472.135 1613.34 476.642C1603.83 485.44 1598.24 467.322 1595.53 458.836C1592.56 449.51 1592.42 451.873 1583.1 447.279C1579.25 445.379 1569.26 440.335 1568.4 435.887C1566.58 426.501 1576.6 423.694 1586.26 423.502C1590.9 423.41 1594.77 419.961 1595.45 415.36C1596.68 407.04 1600.02 397.455 1607.96 394.437C1621.03 389.452 1619.23 411.011 1622.33 419.147C1624.18 424.005 1627.57 423.721 1632 424.429C1637.9 425.369 1656.97 433.127 1646.58 440.785C1643.1 443.354 1638.63 444.85 1634.54 446.094C1633.32 446.465 1623.4 447.822 1623.1 448.451L1623.09 448.444Z" fill="#FDE68A"/>
<path d="M1569.44 401.215C1567.83 404.704 1566.92 413.428 1564.41 415.751C1559.51 420.286 1556.63 410.946 1555.24 406.577C1553.7 401.771 1553.64 402.989 1548.83 400.619C1546.84 399.64 1541.69 397.038 1541.25 394.748C1540.31 389.909 1545.47 388.46 1550.45 388.367C1552.85 388.321 1554.84 386.54 1555.19 384.17C1555.83 379.881 1557.55 374.943 1561.64 373.381C1568.38 370.812 1567.45 381.926 1569.05 386.116C1570 388.625 1571.75 388.473 1574.03 388.837C1577.07 389.32 1586.9 393.318 1581.54 397.27C1579.75 398.594 1577.45 399.362 1575.33 400.004C1574.7 400.196 1569.59 400.891 1569.44 401.222V401.215Z" fill="#FDE68A"/>
</svg>
