<svg width="1920" height="7770" viewBox="0 0 1920 7770" fill="none" xmlns="http://www.w3.org/2000/svg">
<g clip-path="url(#clip0_6_389)">
<rect width="1920" height="7770" fill="white"/>
<rect width="1920" height="7770" fill="url(#paint0_radial_6_389)"/>
<path fill-rule="evenodd" clip-rule="evenodd" d="M472.248 2881.82C473.974 2880.1 473.756 2877.29 473.415 2874.88L473.41 2874.87C471.912 2864.19 470.409 2853.51 468.904 2842.83C468.722 2841.53 468.616 2839.98 468.501 2838.31C468.033 2831.46 467.426 2822.57 460.872 2820.85C448.342 2817.55 428.45 2841.56 421.084 2850.44L420.67 2850.94C417.732 2854.49 414.802 2859.07 416.393 2863.4C417.529 2866.48 420.629 2868.33 423.56 2869.82C436.696 2876.49 450.941 2880.97 465.524 2883.02C467.862 2883.34 470.574 2883.49 472.248 2881.82ZM333.081 2855.1C336.037 2855.53 338.645 2853.07 338.399 2850.09L338.401 2850.08C337.678 2841.34 336.245 2832.65 334.132 2824.13C333.913 2823.25 333.692 2822.23 333.453 2821.13C331.859 2813.77 329.462 2802.72 321.387 2802.7C313.433 2802.68 303.216 2811.32 297.442 2816.2L297.372 2816.26C295.659 2817.71 278.316 2836.32 279.684 2837.08C296.197 2846.25 314.39 2852.38 333.081 2855.1ZM396.638 2964.29C399.593 2964.72 402.201 2962.26 401.956 2959.28L401.957 2959.27C401.234 2950.53 399.802 2941.84 397.689 2933.33C397.47 2932.44 397.249 2931.42 397.01 2930.32L397.01 2930.32L397.01 2930.32C395.415 2922.97 393.019 2911.91 384.944 2911.89C376.971 2911.87 366.726 2920.54 360.958 2925.43L360.928 2925.45C359.216 2926.9 341.873 2945.52 343.241 2946.28C359.754 2955.44 377.947 2961.57 396.638 2964.29ZM523.777 2993.16C524.793 2996.34 525.823 2999.6 525.796 3002.95C525.776 3006.3 524.524 3009.81 521.803 3011.75C517.739 3014.64 512.154 3013.17 507.418 3011.6C502.195 3009.86 496.971 3008.11 491.747 3006.37L491.731 3006.37L491.711 3006.36L491.684 3006.35L491.657 3006.34C486.068 3004.48 480.477 3002.61 474.884 3000.75C469.138 2998.83 462.349 2995.61 462.028 2989.56C461.782 2984.75 465.927 2980.98 469.704 2977.99C471.372 2976.66 473.625 2974.56 476.235 2972.13L476.236 2972.13L476.236 2972.13C485.422 2963.56 499.02 2950.88 507.009 2953.58C515.017 2956.29 518.96 2973.25 521.672 2984.92C522.447 2988.25 523.121 2991.15 523.761 2993.16L523.777 2993.16ZM428.809 3021.12C425.267 3022.37 422.663 3025.33 420.215 3028.18C410.578 3039.43 400.94 3050.68 391.3 3061.93C409.745 3073.07 430.996 3079.51 452.527 3080.47C456.487 3080.64 449.587 3047.25 448.498 3044.38C448.355 3044 448.201 3043.59 448.034 3043.14C445.075 3035.24 438.504 3017.7 428.809 3021.12ZM196.043 3031C196.289 3033.97 193.681 3036.43 190.726 3036C172.035 3033.28 153.842 3027.15 137.328 3017.99C135.96 3017.23 153.303 2998.61 155.016 2997.16L155.086 2997.1C160.86 2992.22 171.077 2983.59 179.031 2983.61C187.106 2983.63 189.503 2994.68 191.097 3002.03L191.097 3002.03L191.098 3002.03L191.099 3002.04C191.337 3003.14 191.558 3004.16 191.777 3005.04C193.89 3013.55 195.322 3022.25 196.045 3030.99L196.043 3031ZM337.112 3079.33C337.453 3081.75 337.671 3084.55 335.945 3086.28C334.271 3087.95 331.559 3087.8 329.221 3087.47C314.638 3085.42 300.393 3080.95 287.257 3074.27C284.326 3072.78 281.225 3070.93 280.09 3067.85C278.499 3063.52 281.429 3058.94 284.367 3055.39L284.781 3054.89C292.146 3046.01 312.039 3022.01 324.569 3025.3C331.122 3027.02 331.73 3035.92 332.198 3042.76L332.198 3042.76C332.312 3044.43 332.418 3045.98 332.601 3047.28C334.106 3057.96 335.609 3068.65 337.106 3079.32L337.112 3079.33ZM295.903 2919.25L299.982 2974.04C300.207 2978.57 296.053 2982.16 291.101 2981.66C281.013 2980.65 270.994 2978.84 261.195 2976.25C258.087 2975.43 254.836 2974.43 252.667 2972.21C248.037 2967.48 250.645 2960.17 254.125 2954.89C261.38 2943.9 271.315 2934.65 281.159 2925.51C285.136 2921.81 290.305 2917.8 295.901 2919.26L295.903 2919.25ZM227.968 2923.93C230.264 2922.83 230.446 2919.68 230.295 2917.13L230.302 2917.14C230.031 2912.67 229.762 2908.21 229.492 2903.74C229.222 2899.28 228.953 2894.81 228.682 2890.35C228.611 2889.17 228.604 2887.77 228.597 2886.26C228.568 2880.07 228.53 2871.93 223.988 2868.55C214.723 2861.65 192.629 2884.05 186.293 2890.47L186.173 2890.59C182.491 2894.33 178.788 2899.14 179.837 2904.28C180.837 2909.22 185.782 2912.2 190.358 2914.28C201.142 2919.19 212.643 2922.52 224.387 2924.15C225.592 2924.31 226.872 2924.45 227.968 2923.93Z" fill="#B59CFB"/>
<path d="M1092.68 3732.47C1072.01 3699.77 1057.37 3666.21 1046.91 3632.05C1036.25 3597.87 1030.36 3563.11 1029.02 3527.83C1028.91 3492.53 1033.48 3456.42 1049.79 3421.42C1058.21 3404.09 1069.79 3387.23 1085.63 3372.76C1101.25 3358.11 1122.08 3347.09 1144.1 3340.39C1154.94 3336.53 1166.19 3334.6 1177.52 3332.71C1183.17 3332.02 1188.81 3331.77 1194.43 3331.33L1202.93 3330.87L1211.2 3331.1L1227.84 3331.76C1233.23 3332.26 1238.59 3333 1243.96 3333.74C1254.86 3334.88 1265.02 3337.32 1275.36 3339.41C1316.37 3348.29 1360.35 3366.71 1397.82 3396.14C1434.66 3427.71 1460.44 3468.71 1472.87 3507.92C1479.43 3527.65 1483.43 3547.2 1485.15 3566.17C1487.07 3585.15 1487.12 3603.76 1485.48 3621.64C1484.17 3639.68 1481.29 3657.15 1477.14 3674.09C1473.24 3691.15 1467.78 3707.63 1461.31 3723.63C1448.36 3755.71 1431.15 3786.01 1407.81 3813.53C1402.12 3820.48 1395.73 3827.19 1389.21 3833.74C1382.36 3840.13 1375 3846.72 1368.43 3851.68C1361.69 3856.99 1355.12 3862.38 1347.83 3867.34C1340.79 3872.42 1333.67 3877.46 1325.91 3882.12C1295.77 3901.05 1262.01 3917.72 1222.25 3926.89C1183.08 3936.52 1136.87 3937 1092.47 3925.19C1047.98 3913.15 1007.52 3889.53 975.811 3861.73C959.914 3847.81 945.729 3832.88 932.933 3817.4C920.372 3801.86 909.217 3785.94 899.148 3769.67C879.446 3737.09 864.289 3703.55 852.94 3669.74C827.577 3592.99 819.897 3514.53 830.988 3439.33C834.868 3391.9 846.47 3344.77 869.063 3301.36C891.456 3257.94 925.655 3218.44 970.461 3189.62C988.644 3179.43 1007.88 3170.43 1028.05 3163.55C1038.14 3160.19 1048.45 3157.03 1058.73 3154.55C1069.12 3152.3 1079.44 3149.75 1090.01 3147.94C1132.36 3140.62 1177.07 3139.86 1221.33 3145.59C1309.84 3158.53 1393.07 3196.07 1463.16 3245.01C1535.52 3291.98 1597.51 3351.42 1646.52 3418.07C1692.53 3485.89 1725.08 3560.85 1736.78 3637.75L1741.07 3666.69L1743.14 3695.78L1742.92 3724.73L1740.63 3752.68C1736.3 3789.77 1727.31 3825.94 1713.9 3860.24C1684.75 3927.72 1638.25 3986.44 1580.44 4032.74C1529.69 4075.02 1469.76 4108.09 1404.2 4130.34C1339.19 4153.55 1268.15 4166.8 1194.63 4166.9C1120.92 4165.69 1045.7 4151.03 974.505 4125.02C939.094 4112.38 904.143 4097.07 870.353 4078.92C836.802 4060.27 804.666 4038.46 775.181 4013.48C715.805 3963.93 669.719 3899.48 644.102 3831.77C632.371 3797.69 624.632 3763.18 621.408 3729.26C618.205 3696.57 616.976 3665.1 616.351 3633.21C615.634 3569.61 618.686 3506.26 630.175 3443.2C635.35 3412.01 642.594 3380.76 654.854 3349.92C661.126 3334.52 668.565 3319.25 678.434 3304.45C688.27 3289.72 700.721 3275.28 717.472 3263.18C727.173 3294.88 744.506 3322.41 765.554 3347.09C749.607 3367.52 738.642 3397.15 731.418 3428.14C724.091 3459.35 719.965 3492.61 717.884 3526.51C714.349 3560.67 712.924 3595.76 712.914 3631.09C712.926 3648.72 713.272 3666.51 714.05 3684.25L715.476 3710.84C716.041 3719.67 716.67 3728.78 717.761 3736.72L720.673 3754.7C721.882 3760.69 723.56 3766.55 724.921 3772.44C727.292 3784.31 732.018 3795.74 735.559 3807.3C737.706 3813.04 740.355 3818.59 742.653 3824.23L746.174 3832.64C747.516 3835.38 749.057 3838.13 750.432 3840.8L758.949 3857.1L768.89 3872.78C781.548 3893.87 795.995 3914.42 813.899 3932.88L820.386 3940.01C822.649 3942.32 825.098 3944.45 827.395 3946.69C832.107 3951.14 836.784 3955.65 841.612 3960.06C851.976 3968.27 861.598 3977.17 872.82 3984.65C885.38 3993.39 899.256 4000.67 912.728 4008.36C926.842 4015.14 940.601 4022.45 955.343 4028.14C969.628 4034.56 984.828 4039.51 999.589 4044.94C1014.56 4049.51 1029.39 4054.37 1044.54 4057.72C1104.43 4075.58 1167.03 4082.45 1228.32 4079.96C1258.54 4077.03 1288.06 4071.32 1316.49 4063.6C1345.01 4055.93 1372.42 4045.88 1398.2 4033.49C1424.52 4021.88 1449.44 4008.29 1472.68 3992.67C1495.79 3976.9 1516.98 3959.16 1536.09 3939.81C1574.58 3901.15 1602.83 3854.69 1620.58 3804.76C1629.86 3779.91 1636.26 3753.84 1639.88 3727.14C1640.57 3720.4 1641.53 3713.71 1642.1 3707L1642.87 3687.31L1642.15 3667.33C1641.8 3660.62 1640.65 3653.87 1640.01 3647.11C1631.09 3592.92 1608.81 3538.07 1576.37 3487.32C1543.78 3436.68 1502.31 3389.19 1453.63 3349.93C1404.27 3311.65 1348.79 3280.8 1291.47 3263.56C1238.86 3245.01 1183.59 3236.69 1131.06 3243.3C1077.99 3250.61 1031.8 3270.83 997.496 3303.73C962.964 3336.26 940.529 3380.62 929.364 3429.18C917.709 3495.56 925.427 3568.19 949.478 3635.76C964.631 3686.75 989.704 3736.66 1024.36 3775.12C1033.27 3784.46 1042.58 3792.94 1052.29 3800.58C1062.03 3807.96 1072.11 3814.2 1082.34 3819.29C1092.53 3824.45 1102.98 3827.81 1113.51 3830.34C1124.05 3832.87 1134.78 3833.92 1145.85 3833.65C1190.1 3834.06 1238.07 3812.26 1279.33 3781.04L1295.13 3769.44C1299.42 3765.83 1303.85 3762.55 1307.98 3758.42C1316.4 3750.69 1324.19 3741.69 1331.33 3731.95C1345.78 3712.71 1357.27 3690.49 1365.97 3667.27C1373.06 3643.37 1377.07 3618.43 1377.01 3593.88C1377.11 3581.54 1375.88 3569.43 1374.07 3557.66C1371.72 3545.97 1368.9 3534.41 1364.51 3523.75C1347.96 3480.99 1313.98 3452.8 1264.74 3438.74C1258.72 3436.81 1252.24 3435.62 1246.09 3433.97C1239.88 3432.64 1234.04 3432.02 1228.05 3430.89C1216.83 3430.21 1205.76 3429.43 1196.86 3431.35C1194.49 3431.61 1192.2 3431.9 1190.19 3432.68L1183.96 3434.4C1180.24 3436.19 1176.27 3437.42 1172.96 3439.84C1166.13 3444.07 1159.72 3449.54 1154.57 3457.27C1149.74 3464.99 1145.65 3473.93 1143.07 3484.2C1140.1 3494.21 1138.59 3505.43 1137.78 3516.91C1136.45 3540.09 1138.53 3564.91 1144.11 3589.66C1148.59 3614.15 1155.73 3638.87 1165.91 3661.91C1170.7 3673.63 1176.82 3684.51 1182.91 3695.02C1189.33 3705.26 1196.16 3714.65 1203.16 3722.64C1186.75 3727.23 1168.57 3730.19 1149.95 3731.1C1131.09 3733.12 1112.29 3733.34 1092.29 3732.63L1092.68 3732.47Z" fill="#AD93FA"/>
<path d="M204.368 7780.54C194.922 7736.39 114.19 7711.19 78.0039 7697.6C26.5345 7678.27 -28.885 7670.16 -83.6347 7676.23C-124.56 7680.74 -164.023 7693.27 -200.618 7711.63L-2.38458 7456.49C21.2454 7489.69 84.755 7509.82 115.736 7521.43C167.205 7540.76 222.6 7548.91 277.35 7542.84C333.366 7536.63 386.635 7515.58 433.646 7484.86C474.017 7458.45 512.252 7425.47 541.773 7387.08C598.492 7313.37 442.658 7286.02 394.939 7277.05C303.641 7259.84 205.781 7265.74 120.908 7305.63C117.973 7307 114.65 7308.67 111.059 7310.49L241.653 7142.4C244.4 7138.87 246.91 7135.25 249.17 7131.69C353.887 7198.82 483.887 7224.68 607.356 7192.14C666.138 7176.64 796.618 7111.88 783.053 7034.9C773.293 6979.61 685.118 6933.49 645.603 6904.05C637.396 6897.93 629.222 6891.83 621.016 6885.71C704.828 6808.53 728.913 6685.97 620.626 6592.21C553.137 6533.8 472.821 6525.53 398.047 6575.95C372.744 6593 345.854 6624.42 328.932 6658.97C272.671 6610.09 207.658 6558.01 159.742 6554.51C153.759 6554.06 148.025 6554.47 142.527 6555.61C78.3115 6568.91 48.52 6683.25 42.9563 6736.1C33.3089 6827.7 60.2267 6919.56 110.718 6995.81C135.399 7033.06 165.349 7066.21 199.066 7094.63C196.508 7097.4 193.97 7100.34 191.541 7103.47L-62.8739 7430.92C-55.5459 7399.39 -51.936 7366.85 -52.1765 7334.96C-52.7936 7244.9 -87.9209 7112.84 -167.051 7057.94C-208.474 7029.2 -246.511 7134.6 -258.341 7161.36C-291.617 7236.58 -296.55 7330.33 -279.714 7411.11C-270.397 7455.82 -232.784 7559.79 -181.102 7583.08L-435.689 7910.75C-418.894 7846.57 -418.597 7775.15 -431.802 7711.72C-442.036 7662.65 -486.381 7542.06 -545.991 7535.3C-590.249 7530.28 -612.691 7593.51 -627.131 7626.5C-649.053 7676.61 -659.759 7733.21 -659.371 7787.85C-658.779 7875.2 -625.7 8002.08 -551.471 8059.7L-607.53 8131.85C-629.586 8160.24 -636.255 8192.02 -622.393 8202.79C-608.531 8213.56 -579.404 8199.28 -557.324 8170.86L-342.359 7894.19C-307.677 7922.81 -231.896 7936.26 -201.104 7942.06C-109.806 7959.27 -11.947 7953.37 72.9257 7913.48C112.024 7895.09 215.673 7832.93 204.487 7780.59L204.368 7780.54ZM318.893 6732.24C370.757 6665.49 463.867 6651.04 526.862 6699.98C589.857 6748.93 598.864 6842.72 547 6909.47C495.136 6976.23 402.026 6990.68 339.031 6941.73C276.037 6892.79 267.029 6798.99 318.893 6732.24Z" fill="#AD93FA"/>
<path d="M1600.86 6153.45C1609.08 6130.36 1654.31 6122.54 1674.75 6117.81C1703.82 6111.07 1734.21 6110.64 1763.24 6117.81C1784.94 6123.15 1805.28 6132.7 1823.67 6145.18L1735.16 5993.8C1720.08 6009.98 1684.48 6016.29 1666.98 6020.33C1637.91 6027.07 1607.53 6027.52 1578.5 6020.35C1548.8 6013.03 1521.64 5997.92 1498.53 5978.04C1478.68 5960.96 1460.46 5940.49 1447.3 5917.74C1422.03 5874.04 1507.82 5870.41 1534.14 5868.98C1584.49 5866.21 1636.72 5876.35 1679.55 5903.85C1681.03 5904.79 1682.7 5905.93 1684.5 5907.16L1626.19 5807.44C1624.97 5805.34 1623.87 5803.21 1622.91 5801.13C1561.79 5829.81 1490 5834.47 1425.88 5808.18C1395.36 5795.66 1329.76 5751.53 1342.53 5711.08C1351.72 5682.02 1402.44 5663.48 1425.8 5650.45C1430.65 5647.74 1435.48 5645.04 1440.33 5642.33C1400.73 5594.84 1396.49 5527.18 1461.42 5484.44C1501.89 5457.81 1545.69 5459.07 1582.34 5491.52C1594.74 5502.5 1606.98 5521.32 1613.62 5541.11C1647.37 5518.81 1686.06 5495.42 1712.09 5496.94C1715.34 5497.12 1718.4 5497.75 1721.27 5498.76C1754.88 5510.48 1762.77 5574.12 1762.01 5602.95C1760.68 5652.93 1739.66 5700.44 1707.07 5737.87C1691.14 5756.16 1672.67 5771.87 1652.51 5784.76C1653.68 5786.43 1654.84 5788.2 1655.93 5790.05L1769.52 5984.34C1767.82 5966.85 1768.19 5949.09 1770.59 5931.95C1777.33 5883.53 1805.63 5814.98 1852.11 5791.07C1876.44 5778.55 1889.41 5837.96 1893.87 5853.21C1906.42 5896.05 1902.41 5946.84 1887.6 5989.11C1879.41 6012.5 1851.78 6065.77 1822.31 6074.62L1935.98 6269.04C1931.51 6233.31 1936.43 6194.86 1948.05 6161.67C1957.05 6136 1989.49 6074.27 2022.04 6074.87C2046.21 6075.32 2053.79 6110.94 2059.21 6129.71C2067.44 6158.24 2069.18 6189.45 2065.08 6218.82C2058.55 6265.78 2031.72 6331.7 1987.68 6357.42L2012.72 6400.23C2022.56 6417.07 2023.89 6434.65 2015.67 6439.46C2007.44 6444.27 1992.79 6434.51 1982.93 6417.65L1886.94 6253.49C1866.25 6266.42 1824.52 6268.27 1807.54 6269.2C1757.19 6271.96 1704.95 6261.83 1662.12 6234.32C1642.39 6221.65 1591.05 6180.83 1600.79 6153.46L1600.86 6153.45ZM1613.81 5581.25C1590.65 5541.64 1541.58 5527.24 1504.21 5549.1C1466.83 5570.95 1455.31 5620.78 1478.47 5660.38C1501.63 5699.99 1550.7 5714.39 1588.07 5692.54C1625.45 5670.68 1636.97 5620.86 1613.81 5581.25Z" fill="#AD93FA"/>
<path d="M1889.7 1245.96C1850.24 1247.83 1806.73 1254.22 1769.99 1239.46C1727.27 1222.29 1707.86 1177.98 1687.5 1138.28C1669.36 1102.85 1647.06 1070.1 1609.87 1055.53C1570.72 1040.2 1522.91 1044.48 1480.62 1046.94C1438.63 1049.35 1396.68 1050.87 1359.11 1032.18C1324.48 1014.96 1307.88 982.66 1296.54 945.355C1285.8 910.065 1276.94 873.925 1255.08 844.801C1228.28 809.072 1187.28 790.918 1144.3 783.698C1098.77 776.048 1050.02 781.779 1002.46 792.175C982.463 737.51 930.297 698.477 879.42 677.03C804.201 645.343 717.752 646.049 635.303 656.841C632.6 628.315 617.128 602.595 596.63 583.777C559.425 549.616 509.485 531.317 461.567 517.876C412.656 504.159 361.852 497.303 310.367 496.228C123.752 492.357 -71.671 564.066 -237.367 665.855C-253.616 675.834 -269.62 686.379 -285.392 697.223C-306.42 711.681 -288.205 744.641 -267.194 730.216C-104.32 618.2 88.8864 542.869 277.585 535.955C332.712 533.929 386.676 540.326 439.245 553.463C485.149 564.95 533.671 581.574 569.522 613.359C585.995 627.968 595.531 644.42 596.95 662.639C562.569 668.589 528.287 676.325 494.233 684.877C463.283 692.636 431.833 700.083 401.678 711.692C351.948 730.837 299.784 753.907 258.16 790.55C240.499 806.133 226.591 827.813 229.5 851.73C232.835 878.865 260.525 896.023 282.734 903.725C351.432 927.518 435.08 881.776 495.194 841.864C547.195 807.359 605.656 761.618 629.249 699.91C629.67 698.839 629.933 697.768 630.306 696.713C701.787 686.627 774.461 685.413 841.789 705.911C888.269 720.048 942.893 753.435 964.072 801.463C954.687 803.975 945.394 806.537 936.223 809.164C901.73 819.039 867.71 831.464 835.285 848.517C808.824 862.467 784.202 881.395 772.941 911C763.01 937.123 772.524 963.091 794.973 974.214C818.706 985.944 849.354 982.828 875.531 978.295C903.167 973.467 930.722 965.217 956.29 951.608C988.078 934.643 1006.63 889.788 1010.13 855.386C1011.03 846.564 1011.08 838.016 1010.48 829.723C1037.34 824.434 1064.27 820.997 1090.42 820.004C1135.18 818.312 1182.1 828.138 1214.72 859.046C1241.2 884.127 1249.58 923.075 1260 958.15C1270.72 994.208 1285.84 1027.71 1314.22 1050.96C1347.04 1077.86 1388.44 1086.82 1430.68 1087.97C1476.99 1089.24 1523.69 1081.46 1569.71 1086.68C1619.19 1092.26 1640.74 1132.69 1661.64 1174.29C1683.45 1217.59 1709.37 1258.44 1754.67 1276.66C1796.39 1293.42 1844.32 1287.6 1889.23 1285.47C1913.42 1284.32 1913.71 1244.85 1889.49 1245.98L1889.7 1245.96ZM583.403 711.277C566.952 738.47 541.101 760.33 517.095 779.72C486.295 804.623 452.619 826.544 417.633 843.601C384.608 859.724 346.564 873.918 311.094 869.493C297.745 867.83 284.983 862.238 274.713 853.706C271.351 850.895 268.968 848.093 266.957 844.235C265.964 842.357 266.409 840.951 266.833 839.145C267.973 834.044 274.078 826.816 280.134 820.775C289.315 811.57 300.377 804.42 311.118 797.573C334.814 782.476 360.06 770.555 385.445 759.618C448.374 732.572 515.803 717.526 581.528 704.982C583.515 704.582 585.545 704.249 587.514 703.883C586.241 706.313 584.871 708.778 583.373 711.261L583.403 711.277ZM968.142 876.806C963.642 891.482 953.598 909.576 940.435 917.411C929.693 923.824 917.468 927.661 905.869 931.359C879.944 939.579 850.913 945.387 824.749 941.439C806.264 938.648 799.984 927.463 815.275 909.344C835.214 885.679 868.651 873.459 895.474 863.212C920.463 853.664 946.594 845.208 973.09 838.336C973.724 850.501 972.239 863.384 968.124 876.839L968.142 876.806Z" fill="#A88DFA"/>
<path d="M2058.72 1515.23C1997.22 1499.68 1930.78 1475.71 1868.24 1487.21C1795.52 1500.58 1750.81 1564.11 1706.08 1620.09C1666.2 1670.05 1620.63 1714.46 1557.44 1725.52C1490.93 1737.14 1417.05 1715.11 1351.27 1697.72C1285.95 1680.52 1220.42 1664.72 1155.31 1682.11C1095.32 1698.15 1058.86 1743.69 1029.09 1798.78C1000.91 1850.89 975.406 1904.93 931.692 1943.78C878.101 1991.45 807.761 2006.92 737.818 2004.55C663.706 2002.04 588.819 1977.44 517.281 1945.87C468.339 2025.52 373.76 2070.28 286.832 2087.77C158.319 2113.61 22.4835 2084.87 -103.833 2041.53C-117.203 2085.56 -149.775 2121.1 -188.051 2144.16C-257.525 2186.04 -341.973 2198.88 -421.687 2204.72C-503.051 2210.67 -585.201 2205.23 -666.577 2190.47C-961.524 2136.91 -1246.18 1961.6 -1474.43 1748.43C-1496.82 1727.53 -1518.64 1705.82 -1539.99 1683.72C-1568.47 1654.24 -1529.27 1608.19 -1500.81 1637.6C-1280.26 1865.96 -1000.25 2046.27 -705.475 2117.46C-619.359 2138.27 -532.381 2145.45 -445.444 2141.57C-369.526 2138.17 -287.845 2127.51 -221.261 2088.94C-190.665 2071.21 -170.398 2048.37 -162.342 2020.15C-214.552 1999.79 -266.036 1976.66 -316.9 1952.32C-363.132 1930.21 -410.25 1908.44 -454.001 1880.53C-526.151 1834.51 -600.878 1781.53 -654.678 1710.55C-677.494 1680.38 -692.454 1641.81 -680.233 1605.1C-666.311 1563.46 -617.246 1545.3 -579.829 1540.28C-464.103 1524.79 -347.071 1623.52 -265.213 1705.55C-194.398 1776.47 -117.007 1867.15 -99.5953 1971.81C-99.2749 1973.63 -99.2038 1975.4 -98.9544 1977.18C10.3261 2015.9 124.319 2041.04 236.836 2030.29C314.509 2022.9 411.151 1987.81 459.833 1918.99C445.866 1912.03 432.058 1905.03 418.463 1897.97C367.332 1871.4 317.76 1840.97 272.176 1803.77C234.988 1773.35 202.285 1735.7 194.024 1685.5C186.742 1641.21 210.017 1603.38 248.903 1593.05C290.006 1582.18 337.245 1596.87 376.997 1612.38C418.95 1628.81 459.681 1650.6 495.573 1680.19C540.181 1717.05 555.039 1793.57 549.552 1848.84C548.159 1863.01 545.505 1876.48 541.911 1889.34C582.498 1906.25 623.775 1920.26 664.624 1930.19C734.521 1947.16 811.506 1946.69 872.731 1908.47C922.428 1877.46 948.051 1818.83 975.665 1766.96C1004.06 1713.63 1038.58 1665.74 1090.67 1638.22C1150.92 1606.37 1218.95 1605.49 1285.79 1617.18C1359.07 1629.99 1430.1 1657.17 1504.19 1663.65C1583.86 1670.68 1630.69 1613.93 1676.89 1555.14C1725.04 1493.96 1778.9 1437.96 1856.02 1423.76C1927.03 1410.71 2000.61 1435.2 2070.61 1452.9C2108.32 1462.44 2096.17 1524.65 2058.4 1515.13L2058.72 1515.23ZM-168.118 1939.27C-185.32 1891.21 -219.02 1848.54 -250.605 1810.35C-291.122 1761.31 -337.118 1716.05 -386.73 1678.02C-433.555 1642.09 -488.896 1607.59 -546.136 1603.22C-567.677 1601.57 -589.55 1606.29 -608.44 1616.44C-614.63 1619.79 -619.277 1623.44 -623.674 1628.87C-625.837 1631.51 -625.587 1633.86 -625.497 1636.84C-625.332 1645.23 -618.033 1658.56 -610.433 1670C-598.926 1687.43 -583.8 1702.21 -569.083 1716.42C-536.614 1747.76 -500.689 1774.59 -464.231 1799.91C-373.833 1862.59 -272.516 1907.83 -173.081 1948.57C-170.082 1949.84 -166.994 1951.01 -164.012 1952.22C-165.239 1947.99 -166.608 1943.67 -168.171 1939.28L-168.118 1939.27ZM490.319 1801.71C487.928 1777.17 477.903 1745.48 459.69 1728.94C444.831 1715.42 426.818 1705.47 409.744 1695.94C371.568 1674.72 327.733 1656.3 285.292 1654.15C255.306 1652.64 241.848 1668.23 260.124 1701.64C283.942 1745.26 332.662 1775.18 371.603 1799.88C407.882 1822.89 446.306 1844.55 485.812 1863.84C490.698 1844.89 492.478 1824.14 490.301 1801.65L490.319 1801.71Z" fill="#AC91FA"/>
</g>
<defs>
<radialGradient id="paint0_radial_6_389" cx="0" cy="0" r="1" gradientUnits="userSpaceOnUse" gradientTransform="translate(960 161.712) rotate(90) scale(1247.14 1180.23)">
<stop stop-color="#C1B1F3"/>
<stop offset="1" stop-color="#A78BFA"/>
</radialGradient>
<clipPath id="clip0_6_389">
<rect width="1920" height="7770" fill="white"/>
</clipPath>
</defs>
</svg>
