<svg width="3773" height="6400" viewBox="0 0 3773 6400" fill="none" xmlns="http://www.w3.org/2000/svg">
<path d="M1754.04 2876C1754.29 2878.97 1751.68 2881.43 1748.73 2881C1730.03 2878.28 1711.84 2872.15 1695.33 2862.99C1693.96 2862.23 1711.3 2843.62 1713.02 2842.16C1718.78 2837.29 1729.04 2828.59 1737.03 2828.61C1746.32 2828.63 1748.09 2843.24 1749.78 2850.04C1751.89 2858.55 1753.32 2867.25 1754.04 2875.99L1754.04 2876Z" fill="#FAAFCD"/>
<path d="M1896.4 2695.09C1896.64 2698.07 1894.04 2700.53 1891.08 2700.1C1872.39 2697.38 1854.2 2691.25 1837.68 2682.08C1836.32 2681.32 1853.66 2662.71 1855.37 2661.26C1861.13 2656.39 1871.4 2647.68 1879.39 2647.7C1888.67 2647.72 1890.45 2662.34 1892.13 2669.13C1894.24 2677.65 1895.68 2686.34 1896.4 2695.08L1896.4 2695.09Z" fill="#FAAFCD"/>
<path d="M1895.11 2924.33C1895.45 2926.75 1895.67 2929.55 1893.94 2931.27C1892.27 2932.95 1889.56 2932.8 1887.22 2932.47C1872.64 2930.42 1858.39 2925.95 1845.26 2919.27C1842.33 2917.78 1839.23 2915.93 1838.09 2912.85C1836.5 2908.52 1839.43 2903.94 1842.37 2900.39C1849.37 2891.95 1869.8 2866.94 1882.57 2870.3C1890.72 2872.44 1889.67 2885.69 1890.6 2892.28C1892.11 2902.96 1893.61 2913.65 1895.11 2924.32L1895.11 2924.33Z" fill="#FAAFCD"/>
<path d="M1853.9 2764.25L1857.98 2819.04C1858.21 2823.57 1854.05 2827.16 1849.1 2826.66C1839.01 2825.65 1828.99 2823.84 1819.19 2821.25C1816.09 2820.43 1812.84 2819.43 1810.67 2817.21C1806.04 2812.48 1808.64 2805.17 1812.13 2799.89C1819.38 2788.9 1829.31 2779.65 1839.16 2770.51C1843.14 2766.81 1848.3 2762.8 1853.9 2764.26" fill="#FAAFCD"/>
<path d="M1788.29 2762.13C1788.45 2764.68 1788.26 2767.83 1785.97 2768.93C1784.87 2769.45 1783.59 2769.31 1782.39 2769.15C1770.64 2767.52 1759.14 2764.19 1748.36 2759.28C1743.78 2757.2 1738.84 2754.22 1737.84 2749.28C1736.79 2744.14 1740.49 2739.33 1744.17 2735.59C1750.35 2729.34 1772.66 2706.61 1781.99 2713.55C1787.64 2717.75 1786.32 2729.31 1786.68 2735.35C1787.22 2744.28 1787.76 2753.2 1788.3 2762.14L1788.29 2762.13Z" fill="#FAAFCD"/>
<path d="M2650.68 3577.47C2630.01 3544.77 2615.37 3511.21 2604.91 3477.05C2594.25 3442.87 2588.36 3408.11 2587.02 3372.83C2586.91 3337.53 2591.48 3301.42 2607.79 3266.42C2616.21 3249.09 2627.79 3232.23 2643.63 3217.76C2659.25 3203.11 2680.08 3192.09 2702.1 3185.39C2712.94 3181.53 2724.19 3179.6 2735.52 3177.71C2741.17 3177.02 2746.81 3176.77 2752.43 3176.33L2760.93 3175.87L2769.2 3176.1L2785.84 3176.76C2791.23 3177.26 2796.59 3178 2801.96 3178.74C2812.86 3179.88 2823.02 3182.32 2833.36 3184.41C2874.37 3193.29 2918.35 3211.71 2955.82 3241.14C2992.66 3272.71 3018.44 3313.71 3030.87 3352.92C3037.43 3372.65 3041.43 3392.2 3043.15 3411.17C3045.07 3430.15 3045.12 3448.76 3043.48 3466.64C3042.17 3484.68 3039.29 3502.15 3035.14 3519.09C3031.24 3536.15 3025.78 3552.63 3019.31 3568.63C3006.36 3600.71 2989.15 3631.01 2965.81 3658.53C2960.12 3665.48 2953.73 3672.19 2947.21 3678.74C2940.36 3685.13 2933 3691.72 2926.43 3696.68C2919.69 3701.99 2913.12 3707.38 2905.83 3712.34C2898.79 3717.42 2891.67 3722.46 2883.91 3727.12C2853.77 3746.05 2820.01 3762.72 2780.25 3771.89C2741.08 3781.52 2694.87 3782 2650.47 3770.19C2605.98 3758.15 2565.52 3734.53 2533.81 3706.73C2517.91 3692.81 2503.73 3677.88 2490.93 3662.4C2478.37 3646.86 2467.22 3630.94 2457.15 3614.67C2437.45 3582.09 2422.29 3548.55 2410.94 3514.74C2385.58 3437.99 2377.9 3359.53 2388.99 3284.33C2392.87 3236.9 2404.47 3189.77 2427.06 3146.36C2449.46 3102.94 2483.66 3063.44 2528.46 3034.62C2546.64 3024.43 2565.88 3015.43 2586.05 3008.55C2596.14 3005.19 2606.45 3002.03 2616.73 2999.55C2627.12 2997.3 2637.44 2994.75 2648.01 2992.94C2690.36 2985.62 2735.07 2984.86 2779.33 2990.59C2867.84 3003.53 2951.07 3041.07 3021.16 3090.01C3093.52 3136.98 3155.51 3196.42 3204.52 3263.07C3250.53 3330.89 3283.08 3405.85 3294.78 3482.75L3299.07 3511.69L3301.14 3540.78L3300.92 3569.73L3298.63 3597.68C3294.3 3634.77 3285.31 3670.94 3271.9 3705.24C3242.75 3772.72 3196.25 3831.44 3138.44 3877.74C3087.69 3920.02 3027.76 3953.09 2962.2 3975.34C2897.19 3998.55 2826.15 4011.8 2752.63 4011.9C2678.92 4010.69 2603.7 3996.03 2532.51 3970.02C2497.09 3957.38 2462.14 3942.07 2428.35 3923.92C2394.8 3905.27 2362.67 3883.46 2333.18 3858.48C2273.8 3808.93 2227.72 3744.48 2202.1 3676.77C2190.37 3642.69 2182.63 3608.18 2179.41 3574.26C2176.21 3541.57 2174.98 3510.1 2174.35 3478.21C2173.63 3414.61 2176.69 3351.26 2188.18 3288.2C2193.35 3257.01 2200.59 3225.76 2212.85 3194.92C2219.13 3179.52 2226.56 3164.25 2236.43 3149.45C2246.27 3134.72 2258.72 3120.28 2275.47 3108.18C2285.17 3139.88 2302.51 3167.41 2323.55 3192.09C2307.61 3212.52 2296.64 3242.15 2289.42 3273.14C2282.09 3304.35 2277.97 3337.61 2275.88 3371.51C2272.35 3405.67 2270.92 3440.76 2270.91 3476.09C2270.93 3493.72 2271.27 3511.51 2272.05 3529.25L2273.48 3555.84C2274.04 3564.67 2274.67 3573.78 2275.76 3581.72L2278.67 3599.7C2279.88 3605.69 2281.56 3611.55 2282.92 3617.44C2285.29 3629.31 2290.02 3640.74 2293.56 3652.3C2295.71 3658.04 2298.36 3663.59 2300.65 3669.23L2304.17 3677.64C2305.52 3680.38 2307.06 3683.13 2308.43 3685.8L2316.95 3702.1L2326.89 3717.78C2339.55 3738.87 2353.99 3759.42 2371.9 3777.88L2378.39 3785.01C2380.65 3787.32 2383.1 3789.45 2385.4 3791.69C2390.11 3796.14 2394.78 3800.65 2399.61 3805.06C2409.98 3813.27 2419.6 3822.17 2430.82 3829.65C2443.38 3838.39 2457.26 3845.67 2470.73 3853.36C2484.84 3860.14 2498.6 3867.45 2513.34 3873.14C2527.63 3879.56 2542.83 3884.51 2557.59 3889.94C2572.56 3894.51 2587.39 3899.37 2602.54 3902.72C2662.43 3920.58 2725.03 3927.45 2786.32 3924.96C2816.54 3922.03 2846.06 3916.32 2874.49 3908.6C2903.01 3900.93 2930.42 3890.88 2956.2 3878.49C2982.52 3866.88 3007.44 3853.29 3030.68 3837.67C3053.79 3821.9 3074.98 3804.16 3094.09 3784.81C3132.58 3746.15 3160.83 3699.69 3178.58 3649.76C3187.86 3624.91 3194.26 3598.84 3197.88 3572.14C3198.57 3565.4 3199.53 3558.71 3200.1 3552L3200.87 3532.31L3200.15 3512.33C3199.8 3505.62 3198.65 3498.87 3198.01 3492.11C3189.09 3437.92 3166.81 3383.07 3134.37 3332.32C3101.78 3281.68 3060.31 3234.19 3011.63 3194.93C2962.27 3156.65 2906.79 3125.8 2849.47 3108.56C2796.86 3090.01 2741.59 3081.69 2689.06 3088.3C2635.99 3095.61 2589.8 3115.83 2555.5 3148.73C2520.96 3181.26 2498.53 3225.62 2487.36 3274.18C2475.71 3340.56 2483.43 3413.19 2507.48 3480.76C2522.63 3531.75 2547.7 3581.66 2582.36 3620.12C2591.27 3629.46 2600.58 3637.94 2610.29 3645.58C2620.03 3652.96 2630.11 3659.2 2640.34 3664.29C2650.53 3669.45 2660.98 3672.81 2671.51 3675.34C2682.05 3677.87 2692.78 3678.92 2703.85 3678.65C2748.1 3679.06 2796.07 3657.26 2837.33 3626.04L2853.13 3614.44C2857.42 3610.83 2861.85 3607.55 2865.98 3603.42C2874.4 3595.69 2882.19 3586.69 2889.33 3576.95C2903.78 3557.71 2915.27 3535.49 2923.97 3512.27C2931.06 3488.37 2935.07 3463.43 2935.01 3438.88C2935.11 3426.54 2933.88 3414.43 2932.07 3402.66C2929.72 3390.97 2926.9 3379.41 2922.51 3368.75C2905.96 3325.99 2871.98 3297.8 2822.74 3283.74C2816.72 3281.81 2810.24 3280.62 2804.09 3278.97C2797.88 3277.64 2792.04 3277.02 2786.05 3275.89C2774.83 3275.21 2763.76 3274.43 2754.86 3276.35C2752.49 3276.61 2750.2 3276.9 2748.19 3277.68L2741.96 3279.4C2738.24 3281.19 2734.27 3282.42 2730.96 3284.84C2724.13 3289.07 2717.72 3294.54 2712.57 3302.27C2707.74 3309.99 2703.65 3318.93 2701.07 3329.2C2698.1 3339.21 2696.59 3350.43 2695.78 3361.91C2694.45 3385.09 2696.53 3409.91 2702.11 3434.66C2706.59 3459.15 2713.73 3483.87 2723.91 3506.91C2728.7 3518.63 2734.82 3529.51 2740.91 3540.02C2747.33 3550.26 2754.16 3559.65 2761.16 3567.64C2744.75 3572.23 2726.57 3575.19 2707.95 3576.1C2689.09 3578.12 2670.29 3578.34 2650.29 3577.63L2650.68 3577.47Z" fill="#AD93FA"/>
<path d="M3158.86 5998.45C3167.08 5975.36 3212.31 5967.54 3232.75 5962.81C3261.82 5956.07 3292.21 5955.64 3321.24 5962.81C3342.94 5968.15 3363.28 5977.7 3381.67 5990.18L3293.16 5838.8C3278.08 5854.98 3242.48 5861.29 3224.98 5865.33C3195.91 5872.07 3165.53 5872.52 3136.5 5865.35C3106.8 5858.03 3079.64 5842.92 3056.53 5823.04C3036.68 5805.96 3018.46 5785.49 3005.3 5762.74C2980.03 5719.04 3065.82 5715.41 3092.14 5713.98C3142.49 5711.21 3194.72 5721.35 3237.55 5748.85C3239.03 5749.79 3240.7 5750.93 3242.5 5752.16L3184.19 5652.44C3182.97 5650.34 3181.87 5648.21 3180.91 5646.13C3119.79 5674.81 3048 5679.47 2983.88 5653.18C2953.36 5640.66 2887.76 5596.53 2900.53 5556.08C2909.72 5527.02 2960.44 5508.48 2983.8 5495.45C2988.65 5492.74 2993.48 5490.04 2998.33 5487.33C2958.73 5439.84 2954.49 5372.18 3019.42 5329.44C3059.89 5302.81 3103.69 5304.07 3140.34 5336.52C3152.74 5347.5 3164.98 5366.32 3171.62 5386.11C3205.37 5363.81 3244.06 5340.42 3270.09 5341.94C3273.34 5342.12 3276.4 5342.75 3279.27 5343.76C3312.88 5355.48 3320.77 5419.12 3320.01 5447.95C3318.68 5497.93 3297.66 5545.44 3265.07 5582.87C3249.14 5601.16 3230.67 5616.87 3210.51 5629.76C3211.68 5631.43 3212.84 5633.2 3213.93 5635.05L3327.52 5829.34C3325.82 5811.85 3326.19 5794.09 3328.59 5776.95C3335.33 5728.53 3363.63 5659.98 3410.11 5636.07C3434.44 5623.55 3447.41 5682.96 3451.87 5698.21C3464.42 5741.05 3460.41 5791.84 3445.6 5834.11C3437.41 5857.5 3409.78 5910.77 3380.31 5919.62L3493.98 6114.04C3489.51 6078.31 3494.43 6039.86 3506.05 6006.67C3515.05 5981 3547.49 5919.27 3580.04 5919.87C3604.21 5920.32 3611.79 5955.94 3617.21 5974.71C3625.44 6003.24 3627.18 6034.45 3623.08 6063.82C3616.55 6110.78 3589.72 6176.7 3545.68 6202.42L3570.72 6245.23C3580.56 6262.07 3581.89 6279.65 3573.67 6284.46C3565.44 6289.27 3550.79 6279.51 3540.93 6262.65L3444.94 6098.49C3424.25 6111.42 3382.52 6113.27 3365.54 6114.2C3315.19 6116.96 3262.95 6106.83 3220.12 6079.32C3200.39 6066.65 3149.05 6025.83 3158.79 5998.46L3158.86 5998.45ZM3171.81 5426.25C3148.65 5386.64 3099.58 5372.24 3062.21 5394.1C3024.83 5415.95 3013.31 5465.78 3036.47 5505.38C3059.63 5544.99 3108.7 5559.39 3146.07 5537.54C3183.45 5515.68 3194.97 5465.86 3171.81 5426.25Z" fill="#AD93FA"/>
<path d="M3447.7 1090.96C3408.24 1092.83 3364.73 1099.22 3327.99 1084.46C3285.27 1067.29 3265.86 1022.98 3245.5 983.279C3227.36 947.848 3205.06 915.104 3167.87 900.526C3128.72 885.196 3080.91 889.483 3038.62 891.941C2996.63 894.346 2954.68 895.866 2917.11 877.184C2882.49 859.965 2865.88 827.66 2854.54 790.355C2843.8 755.065 2834.94 718.925 2813.08 689.801C2786.28 654.072 2745.28 635.918 2702.3 628.698C2656.77 621.048 2608.02 626.779 2560.46 637.175C2540.46 582.51 2488.3 543.477 2437.42 522.03C2362.2 490.343 2275.75 491.049 2193.3 501.841C2190.6 473.315 2175.13 447.595 2154.63 428.777C2117.43 394.616 2067.49 376.317 2019.57 362.876C1970.66 349.159 1919.85 342.303 1868.37 341.228C1681.75 337.357 1486.33 409.066 1320.63 510.855C1304.38 520.834 1288.38 531.379 1272.61 542.223C1251.58 556.681 1269.8 589.641 1290.81 575.216C1453.68 463.2 1646.89 387.869 1835.59 380.955C1890.71 378.929 1944.68 385.326 1997.25 398.463C2043.15 409.95 2091.67 426.574 2127.52 458.359C2144 472.968 2153.53 489.42 2154.95 507.639C2120.57 513.589 2086.29 521.325 2052.23 529.877C2021.28 537.636 1989.83 545.083 1959.68 556.692C1909.95 575.837 1857.78 598.907 1816.16 635.55C1798.5 651.133 1784.59 672.813 1787.5 696.73C1790.84 723.865 1818.53 741.023 1840.73 748.725C1909.43 772.518 1993.08 726.776 2053.19 686.864C2105.2 652.359 2163.66 606.618 2187.25 544.91C2187.67 543.839 2187.93 542.768 2188.31 541.713C2259.79 531.627 2332.46 530.413 2399.79 550.911C2446.27 565.048 2500.89 598.435 2522.07 646.463C2512.69 648.975 2503.39 651.537 2494.22 654.164C2459.73 664.039 2425.71 676.464 2393.29 693.517C2366.82 707.467 2342.2 726.395 2330.94 756C2321.01 782.123 2330.52 808.091 2352.97 819.214C2376.71 830.944 2407.35 827.828 2433.53 823.295C2461.17 818.467 2488.72 810.217 2514.29 796.608C2546.08 779.643 2564.63 734.788 2568.13 700.386C2569.03 691.564 2569.08 683.016 2568.48 674.723C2595.34 669.434 2622.27 665.997 2648.42 665.004C2693.18 663.312 2740.1 673.138 2772.72 704.046C2799.21 729.127 2807.58 768.075 2818 803.15C2828.72 839.208 2843.85 872.71 2872.22 895.956C2905.04 922.856 2946.44 931.824 2988.68 932.973C3034.99 934.24 3081.69 926.456 3127.71 931.681C3177.19 937.263 3198.74 977.692 3219.65 1019.29C3241.45 1062.59 3267.37 1103.44 3312.67 1121.66C3354.39 1138.42 3402.32 1132.6 3447.23 1130.47C3471.42 1129.32 3471.71 1089.85 3447.49 1090.98L3447.7 1090.96ZM2141.4 556.277C2124.95 583.47 2099.1 605.33 2075.1 624.72C2044.3 649.623 2010.62 671.544 1975.63 688.601C1942.61 704.724 1904.56 718.918 1869.09 714.493C1855.75 712.83 1842.98 707.238 1832.71 698.706C1829.35 695.895 1826.97 693.093 1824.96 689.235C1823.96 687.357 1824.41 685.951 1824.83 684.145C1825.97 679.044 1832.08 671.816 1838.13 665.775C1847.32 656.57 1858.38 649.42 1869.12 642.573C1892.81 627.476 1918.06 615.555 1943.45 604.618C2006.37 577.572 2073.8 562.526 2139.53 549.982C2141.52 549.582 2143.55 549.249 2145.51 548.883C2144.24 551.313 2142.87 553.778 2141.37 556.261L2141.4 556.277ZM2526.14 721.806C2521.64 736.482 2511.6 754.576 2498.44 762.411C2487.69 768.824 2475.47 772.661 2463.87 776.359C2437.94 784.579 2408.91 790.387 2382.75 786.439C2364.26 783.648 2357.98 772.463 2373.28 754.344C2393.21 730.679 2426.65 718.459 2453.47 708.212C2478.46 698.664 2504.59 690.208 2531.09 683.336C2531.72 695.501 2530.24 708.384 2526.12 721.839L2526.14 721.806Z" fill="#A88DFA"/>
<path d="M3616.72 1360.23C3555.22 1344.68 3488.78 1320.71 3426.24 1332.21C3353.52 1345.58 3308.81 1409.11 3264.08 1465.09C3224.21 1515.05 3178.63 1559.46 3115.44 1570.52C3048.93 1582.14 2975.05 1560.11 2909.27 1542.72C2843.95 1525.52 2778.42 1509.72 2713.32 1527.11C2653.32 1543.15 2616.87 1588.69 2587.09 1643.78C2558.91 1695.89 2533.41 1749.93 2489.69 1788.78C2436.1 1836.45 2365.76 1851.92 2295.82 1849.55C2221.71 1847.04 2146.82 1822.44 2075.28 1790.87C2026.34 1870.52 1931.76 1915.28 1844.83 1932.77C1716.32 1958.61 1580.48 1929.87 1454.17 1886.53C1440.8 1930.56 1408.23 1966.1 1369.95 1989.16C1300.48 2031.04 1216.03 2043.88 1136.31 2049.72C1054.95 2055.67 972.8 2050.23 891.424 2035.47C596.477 1981.91 311.822 1806.6 83.568 1593.43C61.1828 1572.53 39.3648 1550.82 18.008 1528.72C-10.4678 1499.24 28.7352 1453.19 57.1931 1482.6C277.738 1710.96 557.746 1891.27 852.526 1962.46C938.642 1983.27 1025.62 1990.45 1112.56 1986.57C1188.48 1983.17 1270.16 1972.51 1336.74 1933.94C1367.34 1916.21 1387.6 1893.37 1395.66 1865.15C1343.45 1844.79 1291.96 1821.66 1241.1 1797.32C1194.87 1775.21 1147.75 1753.44 1104 1725.53C1031.85 1679.51 957.123 1626.53 903.323 1555.55C880.507 1525.38 865.547 1486.81 877.768 1450.1C891.69 1408.46 940.755 1390.3 978.172 1385.28C1093.9 1369.79 1210.93 1468.52 1292.79 1550.55C1363.6 1621.47 1440.99 1712.15 1458.41 1816.81C1458.73 1818.63 1458.8 1820.4 1459.05 1822.18C1568.33 1860.9 1682.32 1886.04 1794.84 1875.29C1872.51 1867.9 1969.15 1832.81 2017.83 1763.99C2003.87 1757.03 1990.06 1750.03 1976.46 1742.97C1925.33 1716.4 1875.76 1685.97 1830.18 1648.77C1792.99 1618.35 1760.29 1580.7 1752.02 1530.5C1744.74 1486.21 1768.02 1448.38 1806.9 1438.05C1848.01 1427.18 1895.25 1441.87 1935 1457.38C1976.95 1473.81 2017.68 1495.6 2053.57 1525.19C2098.18 1562.05 2113.04 1638.57 2107.55 1693.84C2106.16 1708.01 2103.51 1721.48 2099.91 1734.34C2140.5 1751.25 2181.78 1765.26 2222.62 1775.19C2292.52 1792.16 2369.51 1791.69 2430.73 1753.47C2480.43 1722.46 2506.05 1663.83 2533.67 1611.96C2562.06 1558.63 2596.58 1510.74 2648.67 1483.22C2708.92 1451.37 2776.95 1450.49 2843.79 1462.18C2917.08 1474.99 2988.1 1502.17 3062.19 1508.65C3141.86 1515.68 3188.69 1458.93 3234.89 1400.14C3283.05 1338.96 3336.9 1282.96 3414.02 1268.76C3485.03 1255.71 3558.61 1280.2 3628.61 1297.9C3666.32 1307.44 3654.17 1369.65 3616.4 1360.13L3616.72 1360.23ZM1389.88 1784.27C1372.68 1736.21 1338.98 1693.54 1307.4 1655.35C1266.88 1606.31 1220.88 1561.05 1171.27 1523.02C1124.45 1487.09 1069.1 1452.59 1011.86 1448.22C990.324 1446.57 968.451 1451.29 949.561 1461.44C943.371 1464.79 938.724 1468.44 934.327 1473.87C932.164 1476.51 932.414 1478.86 932.504 1481.84C932.669 1490.23 939.968 1503.56 947.568 1515C959.075 1532.43 974.201 1547.21 988.918 1561.42C1021.39 1592.76 1057.31 1619.59 1093.77 1644.91C1184.17 1707.59 1285.49 1752.83 1384.92 1793.57C1387.92 1794.84 1391.01 1796.01 1393.99 1797.22C1392.76 1792.99 1391.39 1788.67 1389.83 1784.28L1389.88 1784.27ZM2048.32 1646.71C2045.93 1622.17 2035.9 1590.48 2017.69 1573.94C2002.83 1560.42 1984.82 1550.47 1967.75 1540.94C1929.57 1519.72 1885.73 1501.3 1843.29 1499.15C1813.31 1497.64 1799.85 1513.23 1818.13 1546.64C1841.94 1590.26 1890.66 1620.18 1929.6 1644.88C1965.88 1667.89 2004.31 1689.55 2043.81 1708.84C2048.7 1689.89 2050.48 1669.14 2048.3 1646.65L2048.32 1646.71Z" fill="#AC91FA"/>
<path d="M3265.52 1419.98C3224.95 1399.02 3192.62 1364.51 3152.06 1343.54C3164.89 1337.5 3176.8 1319.16 3190.3 1314.83C3188.9 1323.05 3188.31 1343.87 3186.9 1352.09C3197.88 1346.47 3215.36 1332.26 3226.75 1327.53C3222.79 1337.9 3213.14 1357.51 3210.37 1368.26C3222.89 1366.87 3245.78 1351.6 3257.05 1345.99C3253.83 1356.53 3239.99 1378.73 3236.78 1389.27C3250.33 1387.55 3272.3 1370.32 3285.33 1366.22C3280.68 1378.65 3267.74 1406.9 3265.52 1419.99L3265.52 1419.98Z" fill="#F5F3FF"/>
<path d="M3120.79 323.702C3118.13 329.474 3116.62 343.898 3112.48 347.737C3104.37 355.23 3099.61 339.793 3097.3 332.559C3094.77 324.609 3094.66 326.621 3086.71 322.709C3083.43 321.087 3074.92 316.791 3074.18 313.005C3072.63 305.002 3081.17 302.613 3089.4 302.447C3093.37 302.368 3096.66 299.429 3097.23 295.51C3098.28 288.421 3101.13 280.252 3107.9 277.671C3119.04 273.428 3117.5 291.796 3120.14 298.734C3121.72 302.877 3124.61 302.632 3128.38 303.235C3133.41 304.036 3149.66 310.648 3140.81 317.175C3137.84 319.36 3134.03 320.637 3130.54 321.696C3129.5 322.014 3121.04 323.166 3120.8 323.702H3120.79Z" fill="#FDE68A"/>
<path d="M3181.09 293.444C3177.97 300.216 3176.2 317.135 3171.34 321.642C3161.83 330.44 3156.24 312.322 3153.53 303.836C3150.56 294.51 3150.42 296.873 3141.1 292.279C3137.25 290.379 3127.26 285.335 3126.4 280.887C3124.58 271.501 3134.6 268.694 3144.26 268.502C3148.9 268.41 3152.77 264.961 3153.45 260.36C3154.68 252.04 3158.02 242.455 3165.96 239.437C3179.03 234.452 3177.23 256.011 3180.33 264.147C3182.18 269.005 3185.57 268.721 3190 269.429C3195.9 270.369 3214.97 278.127 3204.58 285.785C3201.1 288.354 3196.63 289.85 3192.54 291.094C3191.32 291.465 3181.4 292.822 3181.1 293.451L3181.09 293.444Z" fill="#FDE68A"/>
<path d="M3127.44 246.215C3125.83 249.704 3124.92 258.428 3122.41 260.751C3117.51 265.286 3114.63 255.946 3113.24 251.577C3111.7 246.771 3111.64 247.989 3106.83 245.619C3104.84 244.64 3099.69 242.038 3099.25 239.748C3098.31 234.909 3103.47 233.46 3108.45 233.367C3110.85 233.321 3112.84 231.54 3113.19 229.17C3113.83 224.881 3115.55 219.943 3119.64 218.381C3126.38 215.812 3125.45 226.926 3127.05 231.116C3128 233.625 3129.75 233.473 3132.03 233.837C3135.07 234.32 3144.9 238.318 3139.54 242.27C3137.75 243.594 3135.45 244.362 3133.33 245.004C3132.7 245.196 3127.59 245.891 3127.44 246.222V246.215Z" fill="#FDE68A"/>
<path d="M2714.56 5016.78C2712.06 5011.29 2712.21 5004.66 2714.96 4998.7C2716.31 4995.8 2719.15 4992.61 2722.46 4992.95C2724.61 4993.18 2725.98 4994.85 2727.06 4996.43C2730.39 5001.35 2733 5006.71 2734.8 5012.33C2734.13 5007.59 2733.45 5002.74 2734.54 4997.87C2735.63 4993 2738.81 4988.01 2743.87 4985.57C2749.62 4989.32 2751.87 4996.22 2751.51 5002.94C2751.14 5009.66 2748.5 5016.35 2745.89 5022.91C2745 5025.15 2743.96 5027.57 2741.74 5029C2732.21 5035.15 2717.39 5022.98 2714.56 5016.77L2714.56 5016.78Z" fill="#F5F3FF"/>
<path d="M2573.79 4991.85C2573.64 4990.56 2573.7 4989.19 2574.32 4987.93C2574.95 4986.67 2576.21 4985.55 2577.69 4985.26C2579.15 4984.98 2580.54 4985.54 2581.72 4986.18C2586.83 4988.98 2590.13 4993.64 2593.28 4998.18C2591.99 4993.25 2590.69 4988.23 2591.31 4983C2591.47 4981.63 2591.86 4980.11 2593.12 4979.19C2594.73 4978 2596.96 4978.35 2598.82 4978.76C2600.94 4979.23 2603.22 4979.79 2604.48 4981.32C2605.87 4983.02 2605.66 4985.45 2605.39 4987.69C2604.79 4992.75 2605.14 5003.69 2598.74 5006.64C2592.36 5009.59 2583.51 5004.64 2579.45 5001.28C2576.49 4998.84 2574.24 4995.62 2573.79 4991.85L2573.79 4991.85Z" fill="#F5F3FF"/>
<path d="M2671.77 4890.66C2669.35 4886.91 2668.92 4881.74 2671.87 4877.7C2675.11 4877.18 2678.15 4878.75 2679.91 4880.97C2681.67 4883.2 2682.42 4885.98 2683.13 4888.71C2682.75 4884.88 2682.53 4880.59 2685.33 4877.3C2686.26 4876.21 2687.63 4875.25 2689.09 4875.22C2691.17 4875.17 2692.49 4877 2692.75 4878.8C2693.26 4882.21 2691.35 4885.78 2689.13 4888.9C2687.78 4890.82 2686.28 4892.66 2685.04 4894.63C2684.15 4896.04 2683.35 4898.48 2681.15 4898.3C2679.36 4898.15 2677.15 4896.07 2675.91 4895.08C2674.29 4893.8 2672.85 4892.34 2671.77 4890.66L2671.77 4890.66Z" fill="#F5F3FF"/>
</svg>
