<svg width="375" height="711" viewBox="0 0 375 711" fill="none" xmlns="http://www.w3.org/2000/svg">
<g clip-path="url(#clip0_175_2363)">
<rect width="375" height="711" fill="url(#paint0_linear_175_2363)"/>
<path d="M355.639 461.245C355.606 461.283 355.577 461.324 355.545 461.362C356.073 460.721 355.97 460.848 355.639 461.245Z" fill="#A78BFA"/>
<path d="M343.458 530.759C343.794 529.68 343.46 528.603 343.227 527.543C342.795 525.592 342.255 523.663 341.896 521.698C341.39 518.923 340.97 513.007 340.518 507.534C340.43 503.492 340.368 499.417 340.882 495.4C341.43 491.921 342.559 488.576 343.497 485.188C344.599 481.576 345.299 477.832 346.674 474.31C346.695 474.266 346.709 474.234 346.733 474.181C348.581 470.203 351.29 466.727 353.944 463.265C354.093 463.103 355.132 461.856 355.636 461.244L356.099 460.668C357.487 459.059 358.95 457.514 360.408 455.97C361.03 455.335 361.717 454.758 361.965 453.867C362.368 452.409 361.358 450.739 359.819 450.595C358.675 450.37 357.607 451.141 356.641 451.657C354.874 452.752 353.122 453.88 351.37 455.002C344.508 459.395 337.66 463.821 331.037 468.569C322.899 474.289 314.879 480.497 305.515 484.092C303.166 485.065 292.231 488.588 286.945 489.607C283.852 490.437 284.922 495.059 288.112 494.379C296.356 492.783 304.555 490.615 312.324 487.401C318.651 484.598 324.477 480.826 330.088 476.811C334.417 473.841 338.605 470.882 342.675 467.994C341.951 469.12 341.269 470.27 340.653 471.464C338.633 475.779 337.611 480.464 336.167 484.984C331.809 496.598 332.882 509.155 333.999 521.251C334.287 523.61 334.769 525.939 335.319 528.253C335.695 530.036 335.848 532.148 337.644 533.112C339.797 534.437 342.812 533.207 343.461 530.768L343.458 530.759Z" fill="#A78BFA"/>
<path d="M357.563 454.94C352.961 457.979 347.336 458.865 341.949 459.437C325.05 461.228 309.736 455.774 297.351 444.1C296.889 443.663 296.418 443.199 296.206 442.6C294.262 437.147 322.383 429.421 326.659 428.533C331.449 427.536 336.63 428.484 341.356 429.47C348.541 430.966 357.69 435.747 362.141 441.663C366.715 447.75 362.972 451.345 357.566 454.943L357.563 454.94Z" fill="#A78BFA"/>
<path d="M387.198 501.981C386.349 502.49 385.732 501.98 384.968 499.928C383.363 495.623 378.078 493.657 374.409 491.512C362.306 484.432 349.451 475.041 354.558 459.251C356.017 454.593 358.793 450.432 361.375 446.324C361.443 446.233 361.513 446.156 361.595 446.091C361.602 444.837 363.467 444.438 363.951 445.653C364.633 448.17 365.553 450.442 367.389 452.302C371.025 455.775 374.771 456.366 379.234 458.222C391.436 463.307 398.065 484.033 391.93 495.699C391.124 497.231 390.131 498.78 389.031 500.113C388.283 501.016 387.699 501.672 387.198 501.975L387.198 501.981Z" fill="#A78BFA"/>
<path d="M359.053 446.098C359.132 445.701 358.723 445.335 358.335 445.441C354.961 446.083 351.274 446.115 347.472 446.215C343.101 446.256 338.764 445.616 334.438 445.065C327.859 444.137 319.441 442.83 312.718 439.876C311.824 439.589 310.747 438.704 309.846 438.796C308.994 438.979 308.796 440.231 309.572 440.653C313.124 442.775 317.13 443.835 321.121 444.781C324.959 445.692 328.853 446.377 332.769 446.821C339.542 447.595 346.37 448.173 353.17 447.337C354.994 447.179 356.842 447.05 358.619 446.586C358.845 446.53 359.039 446.33 359.059 446.098L359.053 446.098Z" fill="#F5D0FE"/>
<path d="M319.668 442.997C317.803 443.696 315.091 445.004 312.679 445.357C312.371 445.408 311.962 445.341 311.669 445.641C311.117 446.141 311.513 447.139 312.256 447.13C313.925 447.151 315.433 446.332 316.94 445.715C318.126 445.156 319.462 444.769 320.527 444.018C321.005 443.48 320.287 442.635 319.668 443.003L319.668 442.997Z" fill="#F5D0FE"/>
<path d="M331.058 445.521C331.033 445.004 330.392 444.682 329.952 444.941C328.47 445.851 326.855 446.512 325.193 447.019C324.415 447.352 323.125 447.322 322.618 448.007C322.301 448.519 322.596 449.235 323.175 449.39C323.663 449.513 324.133 449.207 324.594 449.091C326.72 448.395 328.819 447.537 330.677 446.268C330.935 446.127 331.114 445.818 331.058 445.521Z" fill="#F5D0FE"/>
<path d="M339.177 447.067C339.379 446.875 339.464 446.549 339.34 446.291C339.189 445.818 338.516 445.681 338.176 446.034C336.346 448.346 333.489 449.434 331.142 451.065C330.848 451.389 330.905 451.914 331.196 452.222C331.679 452.739 332.333 452.376 332.823 452.073C333.411 451.726 334.003 451.39 334.582 451.028C336.275 449.918 337.971 448.722 339.177 447.067Z" fill="#F5D0FE"/>
<path d="M348.206 447.72C349.034 446.914 347.81 445.653 346.974 446.45C345.73 447.832 344.269 448.91 343.23 449.634C342.933 449.796 342.731 450.152 342.793 450.49C342.814 450.916 343.214 451.25 343.635 451.258C344.09 451.266 344.407 450.872 344.776 450.66C345.994 449.768 347.192 448.838 348.209 447.717L348.206 447.72Z" fill="#F5D0FE"/>
<path d="M348.054 446.307C346.154 444.635 344.582 442.534 342.488 441.104C341.388 440.559 340.321 442.123 341.201 442.971C342.364 444.447 343.773 445.705 345.149 446.978C345.794 447.45 346.303 448.31 347.155 448.368C348.201 448.419 348.801 447.035 348.048 446.307L348.054 446.307Z" fill="#F5D0FE"/>
<path d="M338.636 445.84C337.341 444.114 336.081 442.348 334.616 440.763C334.21 440.4 333.86 439.904 333.354 439.675C332.784 439.382 332.061 439.665 331.742 440.198C331.194 441.083 331.976 441.851 332.594 442.426C333.3 443.13 333.965 443.87 334.601 444.638C335.313 445.507 336.034 446.367 336.726 447.25C336.944 447.479 337.252 447.611 337.567 447.613C338.457 447.644 339.084 446.615 338.636 445.84Z" fill="#F5D0FE"/>
<path d="M330.09 444.889C327.875 442.938 327.371 441.726 325.332 439.681C324.649 439.165 324.122 438.182 323.258 438.013C322.809 438.004 322.424 438.378 322.416 438.828C322.461 439.424 322.982 439.861 323.282 440.348C324.177 441.592 325.224 442.719 326.228 443.878C327.205 444.799 328.531 445.769 329.175 446.218C329.96 446.608 330.722 445.49 330.093 444.886L330.09 444.889Z" fill="#F5D0FE"/>
<path d="M319.405 442.425C318.426 441.554 317.784 440.38 316.877 439.435C316.163 438.805 315.606 437.939 314.812 437.429C313.78 436.916 312.781 438.384 313.61 439.176C314.561 440.27 315.552 441.335 316.512 442.421C317.141 442.995 317.698 443.861 318.547 444.092C319.446 444.279 320.064 443.053 319.402 442.422L319.405 442.425Z" fill="#F5D0FE"/>
<path d="M378.999 477.156C374.625 473.264 371.799 471.303 368.1 466.975C364.761 463.88 362.425 459.715 362.765 455.014C362.76 453.877 362.991 452.734 363.012 451.617C362.888 451.106 362.089 451.084 361.934 451.593C360.304 457.9 361.358 463.627 366.286 468.117C369.176 471.509 371.605 473.68 374.72 476.322C377.097 478.175 378.312 479.346 380.208 481.834C381.394 483.433 382.442 484.819 382.934 486.284C383.12 486.809 383.074 487.426 383.363 487.908C383.634 488.424 384.327 488.594 384.847 488.361C387.677 486.688 380.514 478.702 379.002 477.159L378.999 477.156Z" fill="#F5D0FE"/>
<path d="M361.287 468.936C361.425 468.521 361.239 468.09 361.241 467.664C361.181 467.018 361.377 465.869 361.525 465.06C361.583 464.197 362.532 462.151 362.64 461.965C362.795 461.627 363.092 461.307 363.009 460.907C362.911 460.199 361.906 459.972 361.513 460.572C360.17 462.718 359.125 465.22 359.314 467.796C359.38 468.442 359.369 469.406 360.18 469.54C360.639 469.668 361.126 469.368 361.284 468.933L361.287 468.936Z" fill="#F5D0FE"/>
<path d="M367.843 473.853C367.293 471.979 367.385 470.469 367.62 468.515C367.649 467.981 367.948 467.428 367.771 466.905C367.463 465.666 365.504 465.889 365.444 467.155C364.969 469.609 364.682 472.339 365.593 474.714C366.227 475.868 368.118 475.136 367.848 473.853L367.843 473.853Z" fill="#F5D0FE"/>
<path d="M373.641 478.554C373.434 477.485 373.303 476.404 373.21 475.32C373.15 474.369 373.15 474.451 373.123 473.619C373.14 473.402 373.072 473.176 372.934 473.009C372.486 472.428 371.473 472.743 371.436 473.475C371.491 475.114 371.626 476.75 371.922 478.366C372.032 479.132 372.207 480.31 373.27 479.915C373.825 479.676 373.797 479.045 373.644 478.551L373.641 478.554Z" fill="#F5D0FE"/>
<path d="M379.426 484.045C379.345 483.279 379.345 482.62 379.382 481.807C379.433 480.943 379.546 480.088 379.639 479.23C379.657 479.024 379.592 478.819 379.462 478.66C379.044 478.114 378.099 478.409 378.058 479.097C377.82 480.825 377.626 482.567 377.796 484.309C377.808 484.791 377.921 485.408 378.491 485.489C379.375 485.667 379.624 484.735 379.426 484.045Z" fill="#F5D0FE"/>
<path d="M370.068 461.669C368.268 460.379 366.092 460.45 363.985 460.585C363.398 460.674 362.619 460.455 362.22 460.996C361.857 461.496 362.208 462.262 362.827 462.3C364.434 462.324 366.276 462.236 367.708 462.589C368.774 462.831 369.042 463.351 369.794 463.309C370.59 463.199 370.794 462.024 370.068 461.669Z" fill="#F5D0FE"/>
<path d="M375.352 466.55C374.905 466.233 374.383 466.299 373.889 466.452C372.973 466.671 372.048 466.84 371.114 466.976C369.807 467.228 368.291 467.013 367.125 467.723C366.456 468.205 366.887 469.315 367.721 468.985C367.985 468.879 369.381 469.091 370.233 469.166C371.555 469.229 372.88 469.101 374.193 468.955C375.65 469.017 376.561 467.58 375.355 466.547L375.352 466.55Z" fill="#F5D0FE"/>
<path d="M381.864 472.126C382.051 471.473 381.389 470.802 380.728 470.935C379.727 471.209 378.719 471.437 377.724 471.724C375.897 472.284 373.911 471.999 372.087 472.41C371.532 472.714 371.757 473.636 372.389 473.662C375.127 473.775 377.889 473.906 380.531 473.039C381.066 472.908 381.777 472.778 381.864 472.12L381.864 472.126Z" fill="#F5D0FE"/>
<path d="M360.84 564.092C356.495 570.139 349.888 574.246 342.285 576.405C333.42 578.918 324.874 579.163 316.858 574.168C310.589 570.264 304.868 565.334 301.148 558.862C297.266 552.117 296.203 544.268 298.157 536.73C299.337 532.175 300.411 527.426 303.291 523.59C306.921 518.749 311.205 515.758 317.419 515.547C321.293 515.415 324.29 517.129 327.38 519.248C332.247 522.587 336.932 527.628 338.99 533.254C342.465 530.71 348.284 528.34 352.674 528.944C357.382 529.596 360.966 533.78 363.081 537.737C365.709 542.645 366.696 548.634 365.391 554.079C364.485 557.859 362.922 561.192 360.846 564.086L360.84 564.092Z" fill="#F086A9" stroke="#A78BFA" stroke-width="2.90828" stroke-linejoin="round"/>
<path d="M358.028 545.576C357.594 542.445 355.895 539.313 353.453 537.331C350.254 535.161 346.373 539.306 348.622 542.417C350.068 544.798 349.39 543.148 350.222 545.367L350.237 545.417C350.281 545.696 350.361 546.204 350.391 546.639C350.316 547.444 350.064 548.22 349.927 549.017C349.619 550.762 350.788 552.732 352.539 553.134C356.822 554.394 358.347 548.863 358.022 545.576L358.028 545.576Z" fill="#FDE68A"/>
<path d="M279.898 530.528C272.588 531.94 264.962 530.391 257.953 526.741C249.782 522.484 243.402 516.791 241.003 507.658C239.124 500.516 238.355 493.003 240.089 485.744C241.9 478.173 246.515 471.739 253.11 467.601C257.096 465.098 261.137 462.387 265.863 461.572C271.825 460.547 276.997 461.315 281.659 465.424C284.565 467.987 285.566 471.291 286.359 474.956C287.604 480.727 287.55 487.607 285.184 493.11C289.456 493.645 295.315 495.919 298.09 499.372C301.066 503.079 300.797 508.579 299.617 512.911C298.156 518.283 294.764 523.315 290.074 526.377C286.822 528.503 283.399 529.853 279.898 530.528Z" fill="#F086A9" stroke="#A78BFA" stroke-width="2.90828" stroke-linejoin="round"/>
<path d="M290.563 515.133C292.398 512.563 293.313 509.116 292.897 505.996C292.063 502.219 286.393 502.569 285.891 506.38C285.304 509.104 285.945 507.437 285.026 509.624L285.002 509.671C284.847 509.904 284.554 510.333 284.278 510.668C283.674 511.204 282.955 511.596 282.312 512.081C280.889 513.138 280.384 515.374 281.388 516.868C283.635 520.722 288.543 517.748 290.563 515.139L290.563 515.133Z" fill="#FDE68A"/>
<path d="M276.112 516.764C274.159 517.264 275.463 517.027 273.017 517.421C271.219 517.424 269.566 518.375 269.757 520.384C269.906 521.588 270.929 522.551 272.116 522.637C272.175 522.643 272.263 522.654 272.41 522.666C274.141 522.901 275.862 522.775 277.536 522.285C281.783 521.545 280.188 515.348 276.112 516.77L276.112 516.764Z" fill="#FDE68A"/>
</g>
<defs>
<linearGradient id="paint0_linear_175_2363" x1="187.5" y1="0" x2="187.5" y2="711" gradientUnits="userSpaceOnUse">
<stop offset="0.55" stop-color="#FFB7DE"/>
<stop offset="1" stop-color="#FFBF85"/>
</linearGradient>
<clipPath id="clip0_175_2363">
<rect width="375" height="711" fill="white"/>
</clipPath>
</defs>
</svg>
