<svg width="1280" height="1080" viewBox="0 0 1280 1080" fill="none" xmlns="http://www.w3.org/2000/svg">
<g clip-path="url(#clip0_192_759)">
<rect x="-320" width="1920" height="1080" fill="url(#paint0_linear_192_759)"/>
<path d="M-11.4727 546.666C-10.0826 536.924 -9.48801 526.619 -9.98662 516.083C-10.448 505.567 -11.9456 494.821 -14.4284 484.494C-15.5552 478.199 -17.3587 471.214 -18.5973 466.597L-19.1133 464.696L-19.5661 463.12L-20.4713 459.969C-21.0842 457.865 -21.7553 455.797 -22.3878 453.711C-24.7703 446.218 -27.4804 438.846 -30.5265 431.566C-33.3996 424.729 -37.6097 418.564 -40.6339 411.702C-40.9317 411.045 -41.1808 410.361 -41.5567 409.757C-44.3606 405.327 -47.2593 400.893 -50.5561 396.681C-52.0323 394.791 -53.4993 392.911 -54.9535 390.945C-56.1257 389.304 -57.1491 387.745 -58.1549 386.224L-64.8649 391.249C-64.712 391.474 -64.5592 391.698 -64.3972 391.933C-61.4872 395.825 -58.6144 399.698 -55.7226 403.571L-52.8305 407.681C-51.8955 409.066 -50.95 410.423 -49.9369 411.754C-48.7786 413.262 -47.8006 415.009 -47.1169 416.755C-46.2359 419.05 -45.2077 421.227 -44.0734 423.361C-42.9967 425.511 -41.8043 427.609 -40.7951 429.786C-40.6192 430.153 -40.3856 430.504 -40.1331 430.856C-37.9508 433.904 -35.9667 439.148 -34.6304 442.705C-33.0665 446.765 -31.6662 450.885 -30.3441 455.059C-29.6827 457.136 -29.0799 459.25 -28.467 461.354L-26.7296 467.833L-25.7832 471.641L-24.8024 475.802C-24.0938 478.879 -23.462 481.972 -22.934 485.052L-22.0945 489.673L-21.4167 494.297C-20.9175 497.385 -20.6264 500.446 -20.2882 503.518C-18.6223 520.531 -19.1569 537.203 -22.2017 552.686C-23.7164 560.476 -25.8563 567.966 -28.6591 575.155C-31.2285 581.707 -34.8335 587.022 -39.2544 592.306C-40.2299 593.466 -41.2881 594.556 -42.3001 595.676C-43.3403 596.786 -44.4718 597.797 -45.5392 598.877C-46.6341 599.928 -47.8216 600.918 -48.9255 601.958C-50.0759 602.969 -51.3084 603.891 -52.477 604.882L-47.4912 611.628C-46.1125 610.608 -44.6607 609.666 -43.3732 608.546C-42.1047 607.426 -40.7526 606.357 -39.576 605.158C-37.1211 602.829 -34.8409 600.351 -32.7166 597.725C-27.0729 590.778 -22.4021 582.939 -18.908 574.322C-15.3767 565.727 -12.8643 556.446 -11.5129 546.721L-11.4727 546.666Z" fill="#F086A9"/>
<path d="M-33.359 539.1C-33.1888 537.387 -33.0284 535.683 -32.9896 533.927C-32.9325 532.191 -32.8186 530.456 -32.9505 528.694C-33.0822 526.18 -33.0367 523.759 -33.056 521.288C-32.9272 511.983 -34.0497 502.353 -36.0058 492.911C-36.3137 490.78 -36.7924 488.643 -37.1951 486.509C-37.588 484.366 -38.0385 482.24 -38.4981 480.103C-39.1827 476.894 -39.7754 474.515 -40.4149 471.869L-40.887 470.055L-41.3345 468.347C-41.6521 467.213 -41.931 466.063 -42.2683 464.948C-43.5773 460.432 -45.0009 455.931 -46.6368 451.517C-49.8601 442.663 -53.8342 434.064 -58.5574 425.922C-59.9479 423.531 -61.3269 421.093 -62.9607 418.855C-64.1442 417.261 -65.1547 415.617 -66.1722 413.906C-69.0028 408.933 -72.3544 404.168 -75.9873 399.554L-82.5216 404.453C-80.7514 406.601 -79.1068 408.811 -77.4624 411.022C-76.453 412.447 -75.3777 413.885 -74.5912 415.426C-72.5262 419.553 -70.1094 423.426 -67.8285 427.371C-61.2682 438.643 -56.047 450.644 -51.9899 463.026C-50.9974 466.133 -50.0436 469.258 -49.1763 472.407C-48.2768 475.71 -47.3748 479.193 -46.4687 483.313C-44.7503 491.274 -43.4606 499.266 -42.766 507.169C-42.5878 508.962 -42.495 510.761 -42.4777 512.538C-42.4322 514.326 -42.3672 516.096 -42.3589 517.863C-42.1976 521.337 -42.0857 529.322 -42.6424 536.407C-43.133 543.504 -44.2998 549.654 -44.1162 550.07L-44.7599 552.734C-44.9929 553.608 -45.273 554.471 -45.5251 555.345C-46.0101 557.094 -46.6357 558.79 -47.2612 560.485C-49.1726 565.238 -51.447 569.797 -53.8859 574.435C-54.3656 575.3 -54.8356 576.156 -55.4353 576.931C-56.0442 577.696 -56.6439 578.471 -57.2528 579.236C-59.7379 582.105 -62.5179 584.735 -65.5618 587.06L-60.7022 593.631C-52.4127 587.308 -46.0589 578.934 -41.5605 569.644C-39.2923 565 -37.4698 560.091 -36.1328 554.955C-34.7495 549.849 -33.8053 544.546 -33.3681 539.09L-33.359 539.1Z" fill="#F086A9"/>
<path d="M92.3204 335.046C89.8292 332.87 87.3288 330.684 84.8094 328.497L81.0314 325.189L77.0687 321.996C74.4136 319.88 71.7477 317.793 69.0609 315.761C66.3157 313.765 63.4509 311.917 60.6226 310.108L55.5943 306.456C53.9212 305.243 52.1206 304.129 50.3793 302.96C46.8664 300.668 43.4133 298.303 39.8223 296.066C33.1976 292.173 26.7125 288.115 19.6704 284.7C18.0397 283.868 16.387 283.111 14.7147 282.372C13.0318 281.662 11.3982 280.906 9.64492 280.297C6.1876 279.034 2.7703 277.715 -0.509383 276.031C-1.13372 275.713 -1.75591 275.338 -2.41198 275.104C-4.79106 274.214 -7.32219 273.576 -9.80269 272.853C-12.2839 272.15 -14.7765 271.494 -17.2712 270.895C-18.391 270.615 -19.5017 270.344 -20.6124 270.073C-21.7224 269.784 -22.864 269.578 -23.993 269.288C-25.8659 268.827 -27.5554 268.287 -29.178 267.74L-31.2849 275.859L-30.5431 276.087C-28.2859 276.686 -26.0168 277.22 -23.7272 277.716L-17.0217 279.503C-13.8709 280.336 -10.7344 281.292 -7.52013 281.957C-5.72307 282.416 -3.8975 283.122 -2.28939 284.048C-0.208009 285.268 1.97844 286.226 4.19588 287.119L7.52823 288.424C8.62254 288.875 9.68586 289.391 10.759 289.897C11.1228 290.073 11.5267 290.193 11.9313 290.294C15.4656 291.284 20.3821 293.886 23.6567 295.703C38.6427 304.039 52.3847 314.095 65.3188 324.406C74.2288 331.635 82.7288 339.153 91.0882 346.618C95.2971 350.333 99.5159 354.038 103.707 357.733C107.52 361.1 110.651 364.697 113.747 368.673L117.889 373.896L122.1 379.036L128.466 373.579C127.145 371.6 125.658 369.757 124.16 367.942C122.662 366.127 121.125 364.329 119.578 362.541C118.55 361.352 117.522 360.163 116.475 358.973C115.39 357.801 114.294 356.638 113.19 355.465C110.97 353.147 108.751 350.81 106.513 348.473C104.274 346.154 101.832 343.933 99.4769 341.667C97.0827 339.437 94.776 337.164 92.2931 335.016L92.3204 335.046Z" fill="#F086A9"/>
<path d="M77.9144 352.25C75.8778 350.604 73.8913 348.894 71.7632 347.406C70.2459 346.341 68.8264 345.204 67.478 343.945C64.9083 341.586 62.1119 339.436 59.3642 337.259L55.1828 334.068C53.7885 333.017 52.2667 332.066 50.8224 331.079C48.2634 329.186 45.7035 327.311 43.1656 325.361C28.6339 314.591 12.3161 304.816 -5.24378 298.442C-7.82098 297.517 -10.3651 296.469 -12.9981 295.76C-14.9104 295.335 -16.7418 294.781 -18.5779 294.102C-21.2197 293.127 -23.8826 292.208 -26.5478 291.345C-29.2432 290.53 -32.0141 289.948 -34.7631 289.292L-36.8143 297.194C-34.1959 297.788 -31.5456 298.298 -28.9407 298.997C-27.2969 299.487 -25.6236 299.951 -24.0637 300.647C-19.9277 302.544 -15.5666 303.775 -11.4036 305.465C-8.38811 306.606 -5.36411 307.777 -2.35084 308.975C0.621569 310.248 3.50165 311.698 6.4219 313.093C12.3328 315.78 17.7987 319.172 23.3856 322.379C24.8 323.156 26.1136 324.08 27.4484 324.948L31.4507 327.61L35.443 330.281L37.4245 331.63L39.327 333.052C44.3966 336.866 49.5458 340.588 54.2919 344.665C56.4926 346.488 58.5744 348.44 60.7654 350.272C62.8227 352.118 67.7306 356.192 72.1799 359.83C76.4724 363.595 80.3739 366.899 80.7562 366.838C82.9961 368.881 85.0692 371.06 87.162 373.221C88.6217 374.797 90.0815 376.373 91.5904 377.904C92.3498 378.664 93.1191 379.416 93.8982 380.158C94.6485 380.909 95.4275 381.651 96.227 382.357C97.421 383.428 98.4643 384.713 99.5 385.95C101.506 388.392 103.492 390.872 105.372 393.377L111.57 388.075C101.5 375.424 90.5129 362.889 77.9242 352.241L77.9144 352.25Z" fill="#F086A9"/>
<path d="M85.9197 392.983C85.404 392.308 84.858 391.679 84.3818 390.967C83.7632 390.003 82.978 389.174 82.1836 388.336C81.6909 387.804 81.165 387.395 80.6512 386.919C79.3904 385.36 78.022 383.882 76.6028 382.488C75.3106 381.251 74.1015 379.827 72.7357 378.531C71.3698 377.234 69.9837 375.974 68.4839 374.947C68.123 374.696 67.812 374.38 67.4708 374.11C65.4273 371.904 63.1819 369.756 60.9855 367.819L60.0204 366.975C58.4772 365.348 56.9247 363.711 55.1017 362.197C54.2178 361.46 53.3349 360.704 52.3799 360.088C49.3885 358.32 46.7468 356.1 43.9553 354.074C42.7905 353.232 41.6256 352.389 40.4503 351.574L36.8358 349.212C35.6407 348.416 34.4963 347.536 33.4209 346.592C32.7962 346.036 32.0982 345.658 31.3888 345.327L29.35 343.738C28.6669 343.218 27.9442 342.734 27.2513 342.223C25.8555 341.21 24.4697 340.188 23.1141 339.119C21.0282 337.519 18.7424 336.178 16.3757 334.966C15.6624 334.492 14.9188 334.064 14.2364 333.525C13.323 332.816 12.3098 332.235 11.3063 331.646C10.6743 331.279 10.0379 331.027 9.41356 330.709C7.71786 329.589 6.00381 328.45 4.13483 327.637C0.82963 326.123 -2.65407 324.061 -6.14749 322.996C-6.5704 322.875 -6.97063 322.66 -7.38223 322.493C-10.1135 321.124 -13.1015 320.012 -15.8203 318.815L-17.0269 318.322C-18.0424 317.799 -19.0672 317.266 -20.1123 316.77C-21.1777 316.311 -22.2742 315.917 -23.4382 315.55C-24.5551 315.193 -25.6909 314.836 -26.8326 314.631C-30.3063 314.042 -33.5604 312.682 -37.0227 312.045C-38.182 311.801 -39.3631 311.633 -40.5224 311.389L-42.3276 318.331C-41.0371 318.618 -39.7942 318.913 -38.5339 319.246C-37.2743 319.598 -35.9859 319.942 -34.707 320.533C-33.2883 321.195 -31.8688 321.839 -30.4742 322.139C-27.6015 322.791 -24.7423 323.547 -21.936 324.443C-20.3133 324.989 -18.7239 325.658 -17.133 326.289C-15.862 327.089 -14.5909 327.888 -13.1018 328.449C-12.2126 328.796 -11.2832 329.088 -10.3729 329.38C-9.62992 329.826 -8.83712 330.208 -8.10477 330.683C-7.15894 331.289 -6.16317 331.831 -5.17576 332.344C-2.8189 333.565 -0.371497 333.915 2.01307 334.909C2.61625 335.284 3.24054 335.602 3.83388 335.986C8.58746 339.123 13.3827 342.166 17.8765 345.635C20.1491 347.319 22.4718 348.937 24.7747 350.574C27.0178 352.285 29.3002 353.959 31.6341 355.531L33.5986 356.822L35.6567 358.155C37.876 359.741 40.2551 361.125 42.5139 362.674C44.4938 364.061 45.9091 365.807 47.5808 367.552C49.6279 369.664 51.875 371.517 54.2199 373.298L57.748 375.942L61.1667 378.704C63.7262 380.836 66.2744 383.014 68.7044 385.302C71.0752 387.644 73.4158 390.033 75.7177 392.44C78.0682 394.82 80.1929 397.39 82.3667 399.915L85.6027 403.726C86.6946 404.984 87.747 406.278 88.7699 407.6L94.2217 402.935C92.9401 401.176 91.5796 399.489 90.2001 397.802C88.82 396.134 87.4005 394.503 85.9007 392.982L85.9197 392.983Z" fill="#F086A9"/>
<path d="M61.573 401.036C59.9911 399.427 58.4192 397.809 56.8478 396.171C55.2265 394.599 53.6242 393.027 52.0423 391.417C51.0085 390.38 49.955 389.361 48.8811 388.379C47.8177 387.37 46.7331 386.416 45.5993 385.508C43.3621 383.645 41.1439 381.784 39.0277 379.736C37.1546 377.793 33.8518 375.471 30.4509 372.985C27.0712 370.442 23.2902 368.198 20.3739 366.452C16.072 362.439 10.9077 358.621 8.63256 357.251C7.5645 356.612 6.48655 355.981 5.40864 355.351L2.12333 353.563C-0.0536513 352.358 -2.23977 351.144 -4.40689 349.93C-5.36402 349.371 -6.36259 348.905 -7.35145 348.43L-10.3266 346.976C-12.2937 345.998 -14.2692 344.991 -16.2251 343.966C-18.799 342.709 -21.4999 341.788 -24.1494 340.765C-25.479 340.258 -26.8088 339.751 -28.1279 339.216C-29.4575 338.709 -30.8188 338.286 -32.147 337.741C-33.7569 337.109 -36.0564 336.622 -38.5836 336.126C-39.2152 335.997 -39.8568 335.878 -40.5263 335.748C-41.1875 335.646 -41.8781 335.572 -42.5492 335.48C-43.9102 335.295 -45.2802 335.1 -46.6193 334.839L-48.6372 342.619C-47.4583 342.845 -46.2591 343.033 -45.0597 343.222L-43.256 343.51C-42.6616 343.618 -42.0793 343.792 -41.4863 343.938C-38.3074 344.782 -35.1541 345.796 -31.9909 346.801C-30.4864 347.457 -29.0039 348.189 -27.4593 348.79C-26.8419 349.041 -26.2126 349.227 -25.5839 349.432C-24.557 349.908 -23.5295 350.365 -22.4914 350.795C-21.4434 351.215 -20.4045 351.625 -19.3755 352.045C-16.4367 353.202 -13.8951 355.057 -11.0606 356.458C-9.68821 357.09 -8.35895 357.854 -6.98731 358.505C-5.61641 359.175 -4.23486 359.817 -2.84352 360.45L-0.278883 361.954C0.57644 362.443 1.43007 362.97 2.21426 363.58C3.98843 364.883 5.68314 366.278 7.41864 367.598C9.14428 368.928 10.9623 370.081 12.8653 371.246C13.2838 371.481 13.6524 371.78 14.0513 372.033L13.9906 372.126C14.9875 372.886 16.014 373.619 16.9609 374.444C18.9081 376.191 21.1291 377.482 23.2762 378.971C25.4409 380.992 27.598 382.965 30.2322 384.387C30.8193 384.685 32.1586 385.439 32.3209 385.417L35.9215 388.396C37.1392 389.592 38.3865 390.761 39.6929 391.875C40.2173 392.323 40.7719 392.724 41.3258 393.144C42.9709 394.841 44.6158 396.539 46.4122 398.004C48.9549 400.078 50.9271 402.661 53.1706 405.104C55.3532 407.401 57.7146 409.496 60.0949 411.592C61.4309 413.173 62.826 414.699 64.1128 416.325C65.0915 417.56 66.0011 418.859 66.9215 420.129C67.8517 421.39 68.7623 422.67 69.7214 423.922L75.8218 418.693C74.0507 416.07 73.1444 413.194 72.1037 412.09C70.3203 410.283 68.5869 408.412 66.8543 406.521C65.1209 404.65 63.3179 402.861 61.5444 401.045L61.573 401.036Z" fill="#F086A9"/>
<path d="M39.3348 411.899C38.9312 411.522 37.2514 409.985 34.8474 407.765C33.6351 406.674 32.2602 405.367 30.7251 404.025C29.1596 402.73 27.4739 401.345 25.7428 399.91C24.8772 399.193 24.0027 398.466 23.1091 397.738C22.2351 396.992 21.3314 396.274 20.4159 395.621C18.5961 394.269 16.7946 392.936 15.0668 391.663C11.6808 389.035 8.42807 387.143 6.20362 385.689C4.62977 384.365 2.43196 382.467 -0.197529 380.675C-1.50133 379.741 -2.87048 378.777 -4.26697 377.782C-5.66346 376.788 -7.07739 375.755 -8.54648 374.92C-11.4431 373.156 -14.2471 371.452 -16.5496 370.053C-18.9261 368.85 -20.8187 367.913 -21.8097 367.495C-22.1827 367.31 -23.5474 366.725 -25.5568 365.86C-26.5457 365.385 -27.7575 365.025 -29.0605 364.566C-30.3733 364.117 -31.7987 363.625 -33.3082 363.102C-34.0584 362.845 -34.827 362.569 -35.6144 362.292C-36.4018 362.014 -37.1885 361.718 -38.0266 361.524C-39.6628 361.082 -41.3362 360.619 -43.0103 360.174C-44.6745 359.721 -46.3176 359.212 -47.9271 358.817C-49.5486 358.489 -51.113 358.163 -52.5934 357.869L-54.6339 365.743C-53.0405 366.06 -51.4169 366.332 -49.8128 366.621C-48.2238 367.052 -46.6345 367.484 -45.0575 367.981C-43.1342 368.616 -41.103 368.912 -39.1727 369.613C-37.2629 370.351 -35.248 370.828 -33.4651 371.903C-32.9174 372.238 -32.2268 372.312 -31.6163 372.497C-30.6764 372.761 -29.7166 373.006 -28.8113 373.431L-27.4376 374.025L-26.1378 374.816C-25.5809 375.16 -25.0475 375.618 -24.4279 375.812C-23.5358 376.084 -22.6638 376.393 -21.7943 376.759C-20.924 377.106 -20.0653 377.5 -19.2395 378.016C-17.5858 378.991 -15.9455 380.071 -14.3447 381.187C-11.1 383.287 -8.12804 386.061 -4.98732 388.148C-3.90538 388.921 -2.78047 389.563 -1.69998 390.374C-0.618767 391.166 0.473132 391.93 1.5839 392.695L4.9183 394.932C6.03964 395.668 7.16167 396.386 8.24143 397.216L14.8405 402.029C15.9506 402.813 17.019 403.69 18.0678 404.585L21.223 407.281C22.9245 408.742 24.895 409.882 26.3066 411.722C26.7507 412.281 27.4016 412.648 27.9541 413.106C28.8022 413.785 29.6708 414.426 30.4893 415.132L31.721 416.205L32.8139 417.444C33.2967 417.985 33.6999 418.618 34.2827 419.03C36.1185 420.459 37.4708 422.354 39.04 424.048C40.5894 425.761 42.0714 427.499 43.5702 429.295C44.9897 430.927 46.3107 432.65 47.6226 434.363L51.5866 439.512L57.7559 434.219C56.2225 432.089 54.3961 429.919 52.6134 427.599C51.7168 426.453 50.8111 425.298 49.9144 424.152C49.0276 422.997 48.1393 421.879 47.2475 420.857C43.7102 416.722 40.7324 413.111 39.3143 411.936L39.3348 411.899Z" fill="#F086A9"/>
<path d="M199.167 476.495C196.215 471.213 193.209 465.854 190.213 460.504C188.652 457.85 187.071 455.215 185.451 452.616C183.841 450.009 182.172 447.455 180.385 444.993L174.558 435.421L168.558 425.88L165.854 421.558L163.035 417.288L157.377 408.749C155.531 406.103 153.43 403.638 151.408 401.138C149.356 398.646 147.439 396.103 145.682 393.375C145.36 392.85 145.059 392.287 144.649 391.825C141.643 388.441 138.812 384.97 135.571 381.786C134.125 380.344 132.707 378.912 131.37 377.369C130.26 376.091 129.339 374.84 128.474 373.609L122.108 379.066L122.524 379.614C125.175 382.832 128.053 385.821 130.931 388.829C132.872 390.984 134.744 393.203 136.851 395.222C138.052 396.379 139.178 397.734 139.968 399.18C142.055 402.974 144.83 406.168 147.389 409.563C147.606 409.857 147.891 410.105 148.166 410.363C150.675 412.577 153.259 416.79 155.118 419.588C159.434 425.967 163.342 432.578 167.346 439.154C171.157 445.798 175.065 452.408 178.715 459.056L182.593 465.95L186.366 472.869L190.207 479.743C191.458 482.042 192.739 484.315 194.048 486.597C196.705 491.146 199.363 495.656 202.128 500.104C204.69 504.154 206.356 508.284 208.191 512.715L210.58 518.555C211.36 520.504 212.169 522.445 213.066 524.341L220.651 520.775C219.915 518.656 219.101 516.592 218.248 514.545C217.357 512.516 216.446 510.505 215.516 508.493C210.654 497.789 205.007 486.97 199.186 476.477L199.167 476.495Z" fill="#F086A9"/>
<path d="M179.857 487.972C178.618 485.844 177.361 483.696 175.918 481.702C174.889 480.276 173.986 478.806 173.19 477.256C172.439 475.792 171.659 474.337 170.868 472.892C170.04 471.463 169.201 470.044 168.343 468.624C166.627 465.803 164.863 463.009 163.06 460.232C161.514 457.674 159.978 455.126 158.5 452.523C150.115 437.817 140.857 423.059 129.926 409.814C128.299 407.88 126.703 405.9 124.948 404.104C123.686 402.82 122.55 401.475 121.493 400.038C119.997 397.929 118.335 395.936 116.663 393.953C114.991 391.97 113.279 390.023 111.558 388.085L105.36 393.387L110.437 398.987C111.512 400.187 112.625 401.389 113.514 402.725C115.779 406.336 118.427 409.63 121.134 412.888C136.487 431.718 149.172 452.745 160.911 473.64C162.265 476.01 163.424 478.487 164.7 480.892C165.94 483.239 169.15 488.464 171.932 493.226C174.733 497.969 177.328 502.154 177.706 502.207C179.061 504.777 180.368 507.373 181.703 509.961C182.6 511.838 183.507 513.706 184.463 515.548C185.389 517.398 186.393 519.214 187.513 520.976C188.356 522.3 188.974 523.759 189.613 525.199C190.883 527.993 191.903 530.892 193.087 533.712L200.468 530.242C194.406 515.892 187.962 501.346 179.857 487.972Z" fill="#F086A9"/>
<path d="M174.628 528.226C174.315 527.454 173.964 526.699 173.719 525.901C173.39 524.834 172.897 523.808 172.414 522.792C172.115 522.154 171.747 521.598 171.399 521.005C170.661 519.181 169.808 517.391 168.858 515.654C167.162 512.577 165.733 508.941 163.552 506.13C163.289 505.788 163.095 505.4 162.862 505.03C161.674 502.324 160.132 499.672 158.843 497.114C158.658 496.737 158.434 496.376 158.239 496.008C157.338 493.988 156.446 491.977 155.269 489.975C154.698 489.003 154.128 488.012 153.44 487.131C151.386 484.439 149.732 481.488 147.893 478.652L143.233 471.605C142.461 470.435 141.738 469.22 141.131 467.952C140.77 467.207 140.289 466.609 139.76 466.037C138.076 463.113 136.499 460.145 134.912 457.187C133.726 454.918 132.142 452.853 130.626 450.762C130.218 450.024 129.769 449.323 129.419 448.549C128.955 447.515 128.317 446.569 127.688 445.633C127.292 445.047 126.836 444.555 126.42 444.007C125.431 442.287 124.346 440.621 123.172 439.018C122.115 437.6 121.13 436.023 120.048 434.518C118.946 433.013 117.796 431.553 116.523 430.298C116.222 429.992 115.96 429.63 115.678 429.306C114.083 426.794 112.22 424.328 110.494 422.029L109.715 421.03C108.514 419.16 107.312 417.29 105.833 415.476C105.116 414.602 104.391 413.701 103.575 412.919C101.091 410.572 98.9211 407.933 96.6425 405.413C95.8579 404.566 95.024 403.765 94.2486 402.927L88.7968 407.592C90.5371 409.531 92.1651 411.427 93.7497 413.711C94.6026 415.007 95.466 416.275 96.4823 417.274C98.521 419.357 100.392 421.613 102.332 423.787C103.471 425.057 104.502 426.407 105.563 427.731C106.234 429.067 106.886 430.404 107.854 431.647C108.443 432.401 109.061 433.128 109.69 433.827C110.137 434.566 110.652 435.26 111.079 436.018C111.631 436.989 112.251 437.915 112.88 438.832C114.393 440.999 116.274 442.497 117.879 444.487C118.256 445.071 118.671 445.638 119.038 446.232C124.891 455.872 129.869 466.048 136.017 475.452L137.31 477.401L138.648 479.438C140.147 481.709 141.871 483.827 143.418 486.091C144.806 488.063 145.358 490.26 146.357 492.446C147.576 495.105 149.067 497.604 150.674 500.05C152.262 502.496 153.859 504.951 155.437 507.387C159.032 512.987 162.075 518.88 165.078 524.81C167.936 530.8 170.725 536.836 173.322 542.959L179.814 539.911C179.007 537.913 178.238 535.917 177.401 533.947C176.545 531.995 175.65 530.061 174.62 528.197L174.628 528.226Z" fill="#F086A9"/>
<path d="M148.999 528.887C146.847 524.823 144.84 520.661 142.755 516.572C141.423 513.889 139.935 511.314 138.457 508.731C136.969 506.156 135.433 503.608 134.111 500.916C132.904 498.447 130.788 494.898 128.38 491.29C126.001 487.675 123.476 483.92 121.35 481.131C120.019 478.429 118.608 475.582 117.352 473.139C116.088 470.687 114.882 468.693 114.088 467.58C112.581 465.499 111.134 463.362 109.705 461.227C108.267 459.082 106.77 456.991 105.302 454.892C103.977 453.027 102.681 451.153 101.385 449.26L97.4478 443.665C95.7453 441.234 93.9643 438.876 92.1042 436.591C90.2245 434.325 88.3643 432.04 86.6528 429.599C84.6397 426.596 79.7106 422.834 75.841 418.696L69.7407 423.925C71.5605 425.771 73.3613 427.617 75.1903 429.473C77.6494 431.99 79.8126 434.799 82.0255 437.545C83.0251 438.979 84.0631 440.397 85.1506 441.769C85.6144 442.309 86.0693 442.839 86.524 443.37C87.8819 445.37 89.2405 447.35 90.7863 449.158C91.8774 450.435 92.8033 451.81 93.6905 453.202C94.577 454.614 95.3854 456.079 96.3484 457.475C98.1651 460.148 100.197 462.658 102.229 465.168C103.338 466.959 104.506 468.714 105.538 470.539C106.687 472.55 107.729 474.604 108.84 476.613C109.921 478.65 111.051 480.641 112.471 482.491C112.779 482.883 113.019 483.319 113.308 483.73L113.219 483.812C113.879 484.939 114.586 486.059 115.168 487.24C116.395 489.691 117.865 491.971 119.453 494.179C120.8 496.957 122.245 499.663 124.194 502.103C124.62 502.642 125.646 503.869 125.816 503.895L128.307 508.066C129.082 509.673 129.924 511.235 130.786 512.797C131.132 513.428 131.518 514.022 131.903 514.636C132.969 516.833 134.053 519.031 135.343 521.057C137.181 523.911 138.188 527.152 139.723 530.213C141.179 533.147 142.906 535.921 144.536 538.748C145.412 540.682 146.374 542.59 147.183 544.55C148.455 547.544 149.313 550.684 150.587 553.64L157.872 550.223C156.752 547.216 156.826 544.055 156.07 542.725C153.564 538.201 151.409 533.444 148.98 528.886L148.999 528.887Z" fill="#F086A9"/>
<path d="M124.358 532.274C124.112 531.732 122.939 529.616 121.231 526.587C119.504 523.556 117.321 519.558 114.819 515.434C112.346 511.282 109.721 506.888 107.2 503.019C104.718 499.114 102.477 495.627 100.78 493.301C99.7352 491.303 98.2354 488.538 96.5198 485.461C94.7648 482.42 92.7451 479.093 90.7978 475.864C88.88 472.608 86.8277 469.641 85.204 467.137C83.5418 464.651 82.2392 462.691 81.4765 461.769C80.9251 461.035 77.3622 456.576 72.7755 451.07C70.4374 448.368 67.8629 445.39 65.3066 442.433C62.6897 439.568 60.0912 436.722 57.7937 434.202L51.6243 439.495C54.2046 442.321 56.9327 445.009 59.4131 447.964C60.9006 449.807 62.5548 451.514 64.0711 453.349C65.5684 455.183 67.3302 456.809 68.4638 458.961C68.8185 459.621 69.4264 460.119 69.9176 460.689C70.6543 461.544 71.4396 462.372 72.156 463.264L73.226 464.597L74.1384 466.076C74.5318 466.719 74.8464 467.434 75.3474 467.994C78.2098 471.144 80.5943 474.865 82.7832 478.73C84.9033 482.659 86.9067 486.66 89.1226 490.317C95.2063 500.64 102.322 510.319 108.166 520.936C109.435 523.037 110.878 525.05 111.757 527.382C112.024 528.105 112.562 528.705 112.992 529.368C113.629 530.352 114.286 531.318 114.893 532.329L115.794 533.855L116.5 535.507C116.805 536.231 117.003 537.018 117.434 537.661C118.847 539.72 119.679 542.061 120.752 544.287C121.855 546.505 122.696 548.855 123.75 551.1C125.718 555.261 127.223 559.632 129.018 563.862L136.381 560.41C134.371 555.336 131.822 549.205 129.615 543.838C127.348 538.526 125.344 534.05 124.384 532.341L124.358 532.274Z" fill="#F086A9"/>
<path d="M138.097 563.213C140.053 566.195 140.772 568.769 142.283 571.981C143.161 573.858 143.922 575.806 145.177 577.517C145.53 577.996 145.648 578.637 145.796 579.232C146.083 580.411 145.682 581.441 144.804 582.291C144.35 582.73 143.814 583.098 143.278 583.448C142.654 583.862 141.326 583.811 140.735 583.37C139.128 582.168 137.891 580.715 137.262 578.79C136.897 577.646 136.428 576.507 135.89 575.432C134.814 573.262 133.67 571.119 132.556 568.967C131.591 567.134 129.939 565.608 128.925 563.802L136.287 560.35C136.668 561.077 137.62 562.52 138.059 563.211L138.097 563.213Z" fill="#F086A9"/>
<path d="M159.766 555.369C160.153 556.676 160.725 559.092 161.499 560.224C163.514 563.171 163.057 564.929 164.483 568.129C164.79 568.796 164.826 569.586 164.93 570.331C165.02 570.981 164.806 571.6 164.406 572.116C164.007 572.614 163.552 573.071 163.071 573.481C162.227 574.189 161.093 574.27 160.221 573.723C159.377 573.187 158.514 572.65 157.72 572.05C157.341 571.76 157.036 571.311 156.824 570.885C156.603 570.449 156.489 569.951 156.385 569.462C155.685 566.395 155.513 564.707 153.895 562.032C153.646 561.604 152.759 559.955 152.568 559.492C151.831 557.63 151.275 555.547 150.558 553.686L157.862 550.251C158.381 551.601 159.363 553.967 159.766 555.369Z" fill="#F086A9"/>
<path d="M182.826 547.627L186.347 555.419C186.742 556.261 186.918 557.123 187.007 558.029C187.091 558.811 187.115 559.667 186.635 560.276C185.936 561.161 185.117 561.975 184.143 562.584C183.949 562.709 183.636 562.688 183.399 562.669C182.613 562.611 181.9 562.374 181.262 561.903C179.837 560.899 178.95 559.525 178.326 557.943L176.442 553.32C175.636 551.303 175.637 550.277 174.956 548.218C174.513 546.89 173.92 544.254 173.313 543.005L179.804 539.958C181.098 542.383 181.783 545.097 182.845 547.627L182.826 547.627Z" fill="#F086A9"/>
<path d="M202.262 533.798C202.902 534.962 203.17 536.122 203.877 537.261C205.889 540.559 206.603 543.721 208.236 547.223C209.213 549.265 209.995 551.395 211.292 553.269C211.651 553.796 211.805 554.495 211.971 555.128C212.303 556.395 211.928 557.493 211.058 558.371C210.613 558.82 210.086 559.199 209.54 559.558C208.906 559.98 207.57 559.881 206.953 559.392C205.285 558.045 203.978 556.456 203.308 554.35C202.919 553.1 202.415 551.864 201.833 550.683C200.68 548.311 199.439 545.983 198.246 543.629C196.835 540.801 196.926 540.643 195.176 537.982C194.871 537.514 193.286 534.242 193.02 533.738L200.402 530.268C200.909 531.171 201.717 532.893 202.233 533.806L202.262 533.798Z" fill="#F086A9"/>
<path d="M223.252 529.767C223.654 531.188 224.263 532.637 225.081 533.856C227.209 537.082 228.457 540.702 229.919 544.198C230.233 544.932 230.305 545.78 230.417 546.573C230.524 547.261 230.337 547.928 229.936 548.464C229.556 548.981 229.1 549.458 228.628 549.877C227.793 550.595 226.651 550.647 225.743 550.042C224.863 549.448 223.974 548.843 223.164 548.166C222.768 547.838 222.464 547.351 222.245 546.877C222.006 546.402 221.885 545.856 221.772 545.339C221.006 542.022 219.584 538.965 217.872 536.031C217.605 535.564 217.28 535.115 217.091 534.613C215.807 531.173 214.263 527.826 213.037 524.368L220.622 520.802C221.694 523.085 222.327 524.896 222.5 525.358C223.423 527.778 222.55 527.27 223.271 529.768L223.252 529.767Z" fill="#F086A9"/>
<path d="M1313.71 726.771C1314.52 724.175 1313.72 721.581 1313.15 719.029C1312.11 714.336 1310.81 709.692 1309.95 704.963C1308.73 698.282 1307.72 684.043 1306.63 670.871C1306.42 661.141 1306.27 651.334 1307.51 641.666C1308.83 633.292 1311.54 625.241 1313.8 617.085C1316.46 608.391 1318.14 599.38 1321.45 590.904C1321.5 590.797 1321.54 590.72 1321.59 590.592C1326.04 581.019 1332.56 572.651 1338.95 564.319C1339.31 563.93 1341.81 560.928 1343.02 559.455L1344.14 558.068C1347.48 554.195 1351 550.477 1354.51 546.76C1356 545.23 1357.66 543.842 1358.25 541.699C1359.22 538.19 1356.79 534.17 1353.09 533.822C1350.34 533.282 1347.77 535.138 1345.44 536.379C1341.19 539.015 1336.97 541.73 1332.75 544.43C1316.24 555.004 1299.75 565.656 1283.81 577.085C1264.22 590.853 1244.92 605.794 1222.38 614.447C1216.73 616.788 1190.41 625.27 1177.69 627.721C1170.24 629.719 1172.82 640.845 1180.5 639.207C1200.34 635.367 1220.07 630.148 1238.77 622.413C1254 615.666 1268.02 606.588 1281.53 596.923C1291.95 589.773 1302.03 582.652 1311.83 575.701C1310.08 578.411 1308.44 581.179 1306.96 584.052C1302.1 594.439 1299.64 605.714 1296.16 616.594C1285.67 644.548 1288.25 674.773 1290.94 703.887C1291.64 709.564 1292.8 715.17 1294.12 720.74C1295.02 725.031 1295.39 730.115 1299.72 732.435C1304.9 735.623 1312.15 732.664 1313.72 726.793L1313.71 726.771Z" fill="#A78BFA"/>
<path d="M1347.66 544.281C1336.58 551.595 1323.04 553.729 1310.08 555.105C1269.4 559.415 1232.55 546.288 1202.74 518.189C1201.62 517.137 1200.49 516.021 1199.98 514.579C1195.3 501.455 1262.99 482.858 1273.28 480.722C1284.81 478.322 1297.28 480.602 1308.65 482.975C1325.94 486.578 1347.97 498.085 1358.68 512.325C1369.69 526.974 1360.68 535.628 1347.67 544.288L1347.66 544.281Z" fill="#A78BFA"/>
<path d="M1351.24 522.999C1351.43 522.044 1350.45 521.162 1349.51 521.417C1341.39 522.964 1332.52 523.04 1323.37 523.28C1312.85 523.38 1302.41 521.84 1292 520.512C1276.16 518.279 1255.9 515.134 1239.72 508.023C1237.57 507.333 1234.97 505.201 1232.8 505.424C1230.75 505.865 1230.28 508.878 1232.15 509.894C1240.69 515.001 1250.34 517.553 1259.94 519.83C1269.18 522.023 1278.55 523.671 1287.98 524.739C1304.28 526.603 1320.72 527.993 1337.08 525.982C1341.47 525.601 1345.92 525.291 1350.2 524.174C1350.74 524.039 1351.21 523.558 1351.26 522.999L1351.24 522.999Z" fill="#F5D0FE"/>
<path d="M1256.46 515.535C1251.97 517.218 1245.44 520.367 1239.64 521.217C1238.89 521.338 1237.91 521.177 1237.2 521.899C1235.88 523.103 1236.83 525.506 1238.62 525.482C1242.63 525.533 1246.26 523.562 1249.89 522.079C1252.74 520.731 1255.96 519.8 1258.52 517.993C1259.68 516.697 1257.95 514.663 1256.46 515.549L1256.46 515.535Z" fill="#F5D0FE"/>
<path d="M1283.87 521.612C1283.81 520.368 1282.27 519.592 1281.21 520.216C1277.64 522.406 1273.75 523.996 1269.75 525.218C1267.88 526.02 1264.77 525.946 1263.55 527.596C1262.79 528.827 1263.5 530.551 1264.89 530.924C1266.07 531.219 1267.2 530.482 1268.31 530.205C1273.43 528.529 1278.48 526.464 1282.95 523.409C1283.57 523.069 1284 522.326 1283.87 521.612Z" fill="#F5D0FE"/>
<path d="M1281.53 520.088C1276.2 515.393 1274.99 512.475 1270.08 507.553C1268.44 506.311 1267.17 503.944 1265.09 503.537C1264 503.518 1263.08 504.417 1263.06 505.499C1263.17 506.934 1264.42 507.986 1265.14 509.159C1267.3 512.154 1269.82 514.865 1272.23 517.655C1274.59 519.872 1277.78 522.208 1279.33 523.287C1281.22 524.225 1283.05 521.535 1281.54 520.081L1281.53 520.088Z" fill="#F5D0FE"/>
<path d="M1255.82 514.158C1253.47 512.061 1251.92 509.235 1249.74 506.961C1248.02 505.444 1246.68 503.36 1244.77 502.132C1242.29 500.898 1239.88 504.43 1241.88 506.336C1244.16 508.971 1246.55 511.534 1248.86 514.147C1250.38 515.531 1251.71 517.615 1253.76 518.17C1255.92 518.62 1257.41 515.669 1255.82 514.151L1255.82 514.158Z" fill="#F5D0FE"/>
<path d="M1355.55 807.002C1345.1 821.556 1329.19 831.443 1310.89 836.639C1289.55 842.688 1268.99 843.276 1249.69 831.256C1234.6 821.859 1220.83 809.993 1211.88 794.414C1202.54 778.178 1199.98 759.288 1204.68 741.144C1207.52 730.18 1210.11 718.749 1217.04 709.518C1225.77 697.866 1236.09 690.667 1251.04 690.157C1260.37 689.84 1267.58 693.966 1275.02 699.067C1286.73 707.104 1298.01 719.236 1302.96 732.777C1311.33 726.655 1325.33 720.949 1335.9 722.405C1347.23 723.972 1355.86 734.043 1360.95 743.567C1367.27 755.381 1369.65 769.795 1366.51 782.902C1364.33 791.999 1360.56 800.023 1355.57 806.988L1355.55 807.002Z" fill="#F086A9" stroke="#A78BFA" stroke-width="7" stroke-linejoin="round"/>
<path d="M1160.72 726.217C1143.12 729.616 1124.77 725.888 1107.9 717.102C1088.23 706.856 1072.88 693.154 1067.1 671.171C1062.58 653.981 1060.73 635.896 1064.9 618.424C1069.26 600.203 1080.37 584.715 1096.24 574.757C1105.84 568.733 1115.56 562.206 1126.94 560.245C1141.29 557.777 1153.74 559.626 1164.96 569.516C1171.95 575.686 1174.36 583.637 1176.27 592.459C1179.27 606.349 1179.14 622.91 1173.44 636.155C1183.72 637.441 1197.83 642.915 1204.51 651.228C1211.67 660.148 1211.02 673.386 1208.18 683.813C1204.66 696.744 1196.5 708.855 1185.21 716.225C1177.38 721.342 1169.14 724.592 1160.72 726.217Z" fill="#F086A9" stroke="#A78BFA" stroke-width="7" stroke-linejoin="round"/>
<path d="M1186.4 689.163C1190.81 682.976 1193.01 674.678 1192.01 667.17C1190.01 658.08 1176.36 658.92 1175.15 668.093C1173.74 674.65 1175.28 670.638 1173.07 675.903L1173.01 676.016C1172.64 676.575 1171.93 677.608 1171.27 678.415C1169.81 679.704 1168.08 680.647 1166.54 681.816C1163.11 684.36 1161.9 689.743 1164.31 693.339C1169.72 702.615 1181.53 695.456 1186.4 689.177L1186.4 689.163Z" fill="#FDE68A"/>
<path d="M1151.61 693.088C1146.91 694.29 1150.05 693.72 1144.16 694.669C1139.83 694.675 1135.86 696.965 1136.32 701.801C1136.67 704.699 1139.14 707.015 1141.99 707.223C1142.14 707.237 1142.35 707.265 1142.7 707.293C1146.87 707.859 1151.01 707.556 1155.04 706.377C1165.26 704.594 1161.42 689.68 1151.61 693.102L1151.61 693.088Z" fill="#FDE68A"/>
<path d="M1307.81 304.595C1306.06 308.396 1305.06 317.893 1302.33 320.42C1297 325.354 1293.86 315.19 1292.34 310.427C1290.67 305.193 1290.6 306.517 1285.37 303.942C1283.21 302.874 1277.6 300.045 1277.12 297.552C1276.1 292.283 1281.72 290.71 1287.14 290.601C1289.75 290.549 1291.92 288.614 1292.3 286.034C1292.99 281.366 1294.86 275.988 1299.32 274.288C1306.66 271.494 1305.64 283.589 1307.38 288.156C1308.42 290.884 1310.32 290.723 1312.81 291.12C1316.12 291.647 1326.82 296.001 1320.99 300.298C1319.03 301.736 1316.52 302.578 1314.23 303.275C1313.54 303.484 1307.97 304.242 1307.81 304.595H1307.81Z" fill="#F086A9"/>
</g>
<defs>
<linearGradient id="paint0_linear_192_759" x1="640" y1="0" x2="640" y2="1080" gradientUnits="userSpaceOnUse">
<stop offset="0.55" stop-color="#FFB7DE"/>
<stop offset="1" stop-color="#FFBF85"/>
</linearGradient>
<clipPath id="clip0_192_759">
<rect width="1920" height="1080" fill="white"/>
</clipPath>
</defs>
</svg>
