<svg width="768" height="1457" viewBox="0 0 768 1457" fill="none" xmlns="http://www.w3.org/2000/svg">
<rect y="0.000976562" width="768" height="1456.13" fill="url(#paint0_linear_498_446)"/>
<path d="M728.346 944.63C728.28 944.708 728.22 944.793 728.154 944.871C729.235 943.558 729.025 943.817 728.346 944.63Z" fill="#A78BFA"/>
<path d="M703.4 1087C704.088 1084.79 703.405 1082.58 702.927 1080.41C702.042 1076.41 700.936 1072.46 700.202 1068.44C699.165 1062.75 698.304 1050.64 697.38 1039.43C697.199 1031.15 697.072 1022.81 698.125 1014.58C699.246 1007.46 701.558 1000.6 703.48 993.665C705.737 986.267 707.17 978.6 709.987 971.388C710.029 971.298 710.059 971.231 710.107 971.123C713.892 962.977 719.441 955.857 724.875 948.768C725.182 948.436 727.308 945.882 728.341 944.629L729.29 943.449C732.131 940.153 735.128 936.99 738.114 933.827C739.388 932.526 740.794 931.344 741.303 929.521C742.129 926.535 740.06 923.115 736.907 922.818C734.566 922.359 732.378 923.938 730.4 924.994C726.781 927.237 723.193 929.547 719.604 931.845C705.55 940.842 691.527 949.905 677.961 959.63C661.294 971.345 644.87 984.058 625.693 991.42C620.883 993.413 598.488 1000.63 587.661 1002.71C581.328 1004.41 583.52 1013.88 590.052 1012.49C606.935 1009.22 623.727 1004.78 639.638 998.199C652.595 992.458 664.527 984.733 676.019 976.51C684.884 970.426 693.461 964.367 701.798 958.452C700.315 960.759 698.916 963.113 697.657 965.558C693.518 974.396 691.426 983.99 688.468 993.248C679.544 1017.03 681.741 1042.75 684.028 1067.52C684.618 1072.35 685.606 1077.12 686.732 1081.86C687.501 1085.51 687.815 1089.84 691.494 1091.81C695.902 1094.53 702.077 1092.01 703.406 1087.01L703.4 1087Z" fill="#A78BFA"/>
<path d="M732.287 931.719C722.862 937.942 711.342 939.758 700.31 940.929C665.701 944.596 634.338 933.426 608.973 909.517C608.027 908.622 607.063 907.673 606.628 906.446C602.647 895.279 660.239 879.455 668.997 877.638C678.807 875.596 689.417 877.536 699.095 879.555C713.81 882.62 732.548 892.412 741.663 904.528C751.031 916.993 743.364 924.356 732.293 931.725L732.287 931.719Z" fill="#A78BFA"/>
<path d="M792.979 1028.06C791.242 1029.1 789.977 1028.06 788.412 1023.85C785.126 1015.04 774.303 1011.01 766.787 1006.62C742.002 992.117 715.675 972.884 726.133 940.547C729.121 931.006 734.806 922.485 740.095 914.072C740.233 913.885 740.377 913.728 740.545 913.596C740.559 911.027 744.379 910.209 745.369 912.698C746.767 917.852 748.651 922.506 752.41 926.316C759.857 933.428 767.53 934.638 776.669 938.44C801.659 948.854 815.235 991.3 802.671 1015.19C801.021 1018.33 798.986 1021.5 796.734 1024.23C795.202 1026.08 794.007 1027.42 792.979 1028.05L792.979 1028.06Z" fill="#A78BFA"/>
<path d="M735.341 913.61C735.503 912.797 734.665 912.046 733.871 912.264C726.96 913.58 719.409 913.645 711.624 913.849C702.672 913.934 693.789 912.623 684.931 911.493C671.457 909.594 654.215 906.917 640.446 900.867C638.617 900.28 636.412 898.466 634.565 898.655C632.821 899.031 632.415 901.595 634.005 902.459C641.279 906.804 649.483 908.976 657.657 910.913C665.517 912.779 673.491 914.181 681.513 915.09C695.383 916.676 709.368 917.859 723.294 916.148C727.03 915.824 730.814 915.56 734.452 914.61C734.915 914.495 735.312 914.085 735.353 913.61L735.341 913.61Z" fill="#F5D0FE"/>
<path d="M654.679 907.259C650.861 908.69 645.305 911.37 640.367 912.093C639.735 912.196 638.898 912.059 638.298 912.674C637.168 913.698 637.977 915.743 639.5 915.722C642.917 915.766 646.007 914.088 649.092 912.826C651.521 911.68 654.257 910.887 656.439 909.35C657.418 908.248 655.948 906.517 654.679 907.271L654.679 907.259Z" fill="#F5D0FE"/>
<path d="M678.007 912.428C677.957 911.369 676.645 910.709 675.743 911.24C672.707 913.104 669.4 914.456 665.996 915.496C664.403 916.178 661.762 916.116 660.723 917.519C660.074 918.567 660.678 920.034 661.864 920.352C662.863 920.603 663.825 919.976 664.769 919.74C669.123 918.313 673.422 916.556 677.227 913.957C677.756 913.668 678.122 913.036 678.007 912.428Z" fill="#F5D0FE"/>
<path d="M694.633 915.593C695.047 915.202 695.221 914.534 694.967 914.004C694.659 913.036 693.281 912.755 692.584 913.478C688.836 918.213 682.986 920.442 678.177 923.782C677.576 924.445 677.692 925.521 678.289 926.152C679.277 927.21 680.618 926.468 681.622 925.847C682.824 925.135 684.038 924.447 685.222 923.705C688.691 921.432 692.165 918.984 694.633 915.593Z" fill="#F5D0FE"/>
<path d="M713.126 916.932C714.82 915.281 712.314 912.697 710.601 914.33C708.054 917.162 705.061 919.368 702.934 920.851C702.326 921.183 701.912 921.912 702.04 922.604C702.083 923.476 702.902 924.161 703.763 924.177C704.695 924.194 705.344 923.387 706.101 922.953C708.596 921.126 711.048 919.221 713.132 916.926L713.126 916.932Z" fill="#F5D0FE"/>
<path d="M712.813 914.038C708.921 910.615 705.702 906.311 701.414 903.381C699.162 902.266 696.977 905.47 698.778 907.206C701.159 910.229 704.045 912.806 706.864 915.413C708.183 916.38 709.227 918.141 710.972 918.259C713.114 918.364 714.343 915.528 712.801 914.038L712.813 914.038Z" fill="#F5D0FE"/>
<path d="M693.526 913.081C690.874 909.547 688.293 905.929 685.292 902.684C684.461 901.939 683.744 900.923 682.708 900.456C681.54 899.856 680.061 900.435 679.406 901.525C678.284 903.338 679.887 904.912 681.152 906.089C682.598 907.531 683.96 909.045 685.262 910.62C686.721 912.399 688.197 914.159 689.614 915.968C690.06 916.437 690.692 916.707 691.336 916.712C693.159 916.775 694.443 914.668 693.526 913.081Z" fill="#F5D0FE"/>
<path d="M676.022 911.133C671.485 907.139 670.453 904.656 666.277 900.468C664.88 899.411 663.8 897.397 662.031 897.051C661.11 897.034 660.323 897.799 660.306 898.72C660.398 899.941 661.465 900.836 662.08 901.834C663.912 904.382 666.058 906.69 668.113 909.063C670.113 910.95 672.83 912.937 674.149 913.856C675.756 914.654 677.317 912.365 676.028 911.127L676.022 911.133Z" fill="#F5D0FE"/>
<path d="M654.141 906.087C652.135 904.303 650.82 901.899 648.964 899.964C647.5 898.672 646.36 896.899 644.734 895.855C642.621 894.805 640.573 897.81 642.273 899.432C644.219 901.674 646.25 903.855 648.215 906.078C649.504 907.255 650.644 909.028 652.383 909.501C654.225 909.884 655.491 907.373 654.135 906.081L654.141 906.087Z" fill="#F5D0FE"/>
<path d="M776.19 977.216C767.232 969.245 761.444 965.229 753.868 956.365C747.03 950.028 742.246 941.497 742.942 931.869C742.933 929.541 743.405 927.2 743.449 924.913C743.195 923.867 741.559 923.821 741.241 924.862C737.903 937.779 740.062 949.508 750.153 958.705C756.072 965.652 761.048 970.097 767.427 975.508C772.294 979.304 774.783 981.701 778.665 986.797C781.094 990.073 783.241 992.909 784.25 995.91C784.63 996.986 784.536 998.25 785.127 999.236C785.682 1000.29 787.102 1000.64 788.167 1000.16C793.962 996.738 779.293 980.382 776.196 977.222L776.19 977.216Z" fill="#F5D0FE"/>
<path d="M739.918 960.381C740.199 959.532 739.819 958.648 739.824 957.776C739.701 956.452 740.101 954.099 740.406 952.444C740.523 950.675 742.467 946.485 742.689 946.105C743.006 945.413 743.613 944.756 743.443 943.938C743.243 942.489 741.184 942.022 740.38 943.251C737.631 947.647 735.49 952.77 735.877 958.046C736.011 959.37 735.99 961.343 737.651 961.618C738.59 961.881 739.588 961.266 739.912 960.375L739.918 960.381Z" fill="#F5D0FE"/>
<path d="M753.34 970.452C752.216 966.615 752.404 963.522 752.885 959.52C752.944 958.425 753.556 957.293 753.193 956.223C752.564 953.685 748.551 954.142 748.429 956.735C747.456 961.761 746.868 967.351 748.734 972.216C750.031 974.578 753.904 973.08 753.352 970.452L753.34 970.452Z" fill="#F5D0FE"/>
<path d="M765.218 980.08C764.794 977.891 764.526 975.677 764.336 973.457C764.213 971.508 764.213 971.676 764.156 969.974C764.192 969.528 764.053 969.065 763.77 968.723C762.853 967.533 760.779 968.18 760.703 969.678C760.816 973.035 761.091 976.386 761.698 979.694C761.923 981.264 762.281 983.676 764.458 982.867C765.595 982.378 765.539 981.084 765.224 980.074L765.218 980.08Z" fill="#F5D0FE"/>
<path d="M777.063 991.326C776.898 989.756 776.896 988.408 776.972 986.741C777.078 984.972 777.31 983.221 777.5 981.464C777.535 981.043 777.402 980.622 777.137 980.297C776.281 979.179 774.345 979.784 774.262 981.192C773.774 984.73 773.376 988.299 773.725 991.866C773.75 992.853 773.981 994.116 775.148 994.283C776.96 994.647 777.468 992.739 777.063 991.326Z" fill="#F5D0FE"/>
<path d="M757.899 945.5C754.213 942.858 749.755 943.003 745.441 943.28C744.238 943.462 742.643 943.013 741.827 944.121C741.082 945.145 741.8 946.714 743.07 946.791C746.361 946.84 750.133 946.66 753.064 947.384C755.249 947.88 755.798 948.944 757.338 948.858C758.968 948.633 759.386 946.225 757.899 945.5Z" fill="#F5D0FE"/>
<path d="M768.722 955.495C767.807 954.846 766.736 954.98 765.726 955.295C763.849 955.743 761.955 956.088 760.042 956.368C757.365 956.883 754.26 956.443 751.873 957.896C750.503 958.885 751.385 961.158 753.093 960.482C753.634 960.264 756.492 960.699 758.237 960.853C760.945 960.981 763.658 960.719 766.347 960.42C769.332 960.548 771.198 957.603 768.728 955.489L768.722 955.495Z" fill="#F5D0FE"/>
<path d="M782.059 966.915C782.442 965.579 781.086 964.203 779.733 964.475C777.682 965.038 775.619 965.504 773.58 966.091C769.84 967.24 765.771 966.656 762.036 967.498C760.9 968.119 761.36 970.008 762.654 970.06C768.262 970.292 773.918 970.561 779.33 968.784C780.425 968.518 781.88 968.251 782.059 966.903L782.059 966.915Z" fill="#F5D0FE"/>
<path d="M739.002 1155.26C730.104 1167.64 716.572 1176.06 701.002 1180.48C682.845 1185.62 665.343 1186.13 648.927 1175.9C636.088 1167.9 624.371 1157.81 616.753 1144.55C608.802 1130.74 606.625 1114.66 610.627 1099.22C613.045 1089.89 615.244 1080.17 621.141 1072.31C628.575 1062.4 637.351 1056.27 650.075 1055.84C658.011 1055.57 664.147 1059.08 670.477 1063.42C680.444 1070.26 690.038 1080.58 694.254 1092.1C701.37 1086.89 713.288 1082.04 722.279 1083.28C731.919 1084.61 739.26 1093.18 743.592 1101.29C748.974 1111.34 750.995 1123.6 748.322 1134.75C746.468 1142.49 743.265 1149.32 739.014 1155.25L739.002 1155.26Z" fill="#F086A9" stroke="#A78BFA" stroke-width="5.95615" stroke-linejoin="round"/>
<path d="M733.242 1117.34C732.354 1110.93 728.873 1104.51 723.874 1100.45C717.321 1096.01 709.373 1104.5 713.979 1110.87C716.941 1115.75 715.552 1112.37 717.255 1116.91L717.286 1117.02C717.377 1117.59 717.541 1118.63 717.602 1119.52C717.448 1121.17 716.933 1122.76 716.653 1124.39C716.02 1127.96 718.415 1132 722.002 1132.82C730.772 1135.4 733.896 1124.07 733.23 1117.34L733.242 1117.34Z" fill="#FDE68A"/>
<path d="M573.23 1086.52C558.259 1089.41 542.641 1086.24 528.287 1078.77C511.554 1070.05 498.487 1058.39 493.574 1039.69C489.726 1025.06 488.151 1009.67 491.703 994.804C495.411 979.3 504.862 966.122 518.369 957.648C526.532 952.522 534.808 946.969 544.487 945.3C556.698 943.201 567.289 944.773 576.838 953.189C582.79 958.439 584.839 965.204 586.463 972.711C589.013 984.53 588.901 998.621 584.056 1009.89C592.806 1010.99 604.804 1015.64 610.488 1022.72C616.582 1030.31 616.033 1041.57 613.615 1050.44C610.623 1061.44 603.677 1071.75 594.071 1078.02C587.411 1082.37 580.4 1085.14 573.23 1086.52Z" fill="#F086A9" stroke="#A78BFA" stroke-width="5.95615" stroke-linejoin="round"/>
<path d="M595.074 1054.99C598.832 1049.73 600.705 1042.67 599.853 1036.28C598.145 1028.55 586.534 1029.26 585.505 1037.07C584.304 1042.65 585.616 1039.23 583.734 1043.71L583.686 1043.81C583.368 1044.28 582.767 1045.16 582.203 1045.85C580.965 1046.95 579.492 1047.75 578.176 1048.74C575.261 1050.91 574.227 1055.49 576.283 1058.55C580.885 1066.44 590.936 1060.35 595.074 1055.01L595.074 1054.99Z" fill="#FDE68A"/>
<path d="M565.478 1058.33C561.479 1059.36 564.149 1058.87 559.139 1059.68C555.457 1059.68 552.072 1061.63 552.463 1065.75C552.768 1068.21 554.864 1070.18 557.295 1070.36C557.416 1070.37 557.596 1070.4 557.897 1070.42C561.442 1070.9 564.967 1070.64 568.395 1069.64C577.093 1068.12 573.825 1055.43 565.478 1058.35L565.478 1058.33Z" fill="#FDE68A"/>
<defs>
<linearGradient id="paint0_linear_498_446" x1="384" y1="0.000976562" x2="384" y2="1456.13" gradientUnits="userSpaceOnUse">
<stop offset="0.55" stop-color="#FFB7DE"/>
<stop offset="1" stop-color="#FFBF85"/>
</linearGradient>
</defs>
</svg>
