<svg width="1440" height="1080" viewBox="0 0 1440 1080" fill="none" xmlns="http://www.w3.org/2000/svg">
<g clip-path="url(#clip0_173_30174)">
<rect x="-240" width="1920" height="1080" fill="url(#paint0_linear_173_30174)"/>
<path d="M-23.6997 342.049C-25.1812 341.042 -26.6626 340.035 -28.1533 339.018L-30.3846 337.498L-32.7046 336.06C-35.8238 334.154 -38.943 332.248 -42.0622 330.343C-45.2707 328.538 -48.5602 326.863 -51.8315 325.208C-55.0725 323.507 -58.4868 322.113 -61.8843 320.776L-67.9898 317.958C-70.0555 317.071 -72.1717 316.268 -74.2677 315.427L-80.566 312.934C-82.6725 312.122 -84.8601 311.439 -87.0075 310.701C-90.9096 309.393 -94.7714 308.028 -98.799 307.019L-104.79 305.412L-107.79 304.622L-110.843 303.973C-114.671 303.199 -118.536 302.662 -122.396 302.248C-126.289 301.918 -130.15 301.542 -133.978 300.768C-134.713 300.607 -135.458 300.455 -136.198 300.445L-144.365 300.341L-148.432 300.356C-149.784 300.437 -151.146 300.528 -152.49 300.638C-154.92 300.839 -157.322 301.032 -159.756 301.091C-161.78 301.099 -163.626 301.18 -165.431 301.168L-164.963 309.537L-164.155 309.52C-159.281 309.251 -154.435 308.99 -149.598 308.72C-146.182 308.575 -142.768 308.744 -139.33 308.524C-137.368 308.41 -135.29 308.461 -133.41 308.989C-130.944 309.616 -128.45 309.977 -125.953 310.263C-124.714 310.415 -123.454 310.511 -122.206 310.673C-120.969 310.862 -119.732 311.052 -118.495 311.261C-118.071 311.344 -117.634 311.342 -117.188 311.35C-115.231 311.368 -112.831 311.707 -110.425 312.15C-108.03 312.622 -105.673 313.349 -103.745 313.851C-86.1385 318.516 -69.3373 325.848 -53.8189 334.424C-42.9267 340.257 -32.9313 347.177 -22.9209 353.954C-20.4903 355.729 -18.0303 357.477 -15.5602 359.215L-11.8404 361.809L-7.51131 365.119C-2.36611 369.193 1.62455 373.64 5.55372 378.456C8.93479 382.699 12.0747 387.038 15.1643 391.204L21.8744 386.178C18.8307 381.311 15.2231 376.784 11.3301 372.264C10.0003 370.769 8.68948 369.275 7.28308 367.796C5.84859 366.306 4.44206 364.827 2.94007 363.363C1.40012 361.898 -0.111555 360.444 -1.70914 358.995L-4.18214 356.839L-5.4241 355.775C-5.83826 355.426 -6.27899 355.029 -6.60266 354.798C-12.2022 350.432 -17.6836 345.956 -23.6815 342.068L-23.6997 342.049Z" fill="#F086A9"/>
<path d="M-35.7219 361.016C-38.0405 359.54 -40.328 357.998 -42.729 356.69C-44.5017 355.843 -46.1752 354.886 -47.8063 353.816C-50.9028 351.817 -53.9896 349.808 -57.3277 348.16L-62.2858 345.651C-63.9552 344.837 -65.5853 343.986 -67.3265 343.311C-70.3591 341.874 -73.3925 340.456 -76.3949 338.973C-93.6033 330.865 -112.83 325.102 -132.194 323.656L-136.456 323.303C-137.878 323.229 -139.304 323.251 -140.722 323.301C-142.748 323.385 -144.723 323.347 -146.731 323.175L-148.909 322.996L-151.093 322.97L-155.464 322.973C-158.381 323.004 -161.291 323.063 -164.192 323.389L-163.744 331.539C-161.004 331.197 -158.245 331.094 -155.486 330.991C-153.725 330.916 -151.936 330.832 -150.185 331.004C-147.866 331.235 -145.55 331.543 -143.237 331.669C-140.926 331.853 -138.589 331.848 -136.279 332.069C-122.973 332.921 -109.765 335.841 -97.1084 340.022L-92.3622 341.61C-90.7866 342.145 -89.2638 342.821 -87.7192 343.422L-83.1073 345.299C-81.5634 345.919 -80.0294 346.548 -78.5567 347.289C-75.581 348.723 -72.6145 350.148 -69.6388 351.583C-66.7637 353.166 -63.8985 354.758 -61.0326 356.33C-58.3878 357.724 -56.0346 359.534 -53.5292 361.093C-52.3046 361.862 -50.261 363.08 -47.8636 364.483C-45.5458 365.978 -42.8945 367.695 -40.3913 369.311C-39.1302 370.12 -37.9055 370.889 -36.7645 371.607C-35.6628 372.362 -34.654 373.056 -33.7841 373.659C-32.0428 374.828 -30.8547 375.558 -30.6628 375.508L-26.9256 378.397L-25.9941 379.126L-24.9916 379.991L-22.996 381.712C-19.3264 385.12 -15.8586 388.588 -12.2879 391.851C-10.9093 393.063 -9.76787 394.513 -8.63477 395.934C-7.50933 397.307 -6.48082 398.733 -5.47142 400.159C-4.43319 401.577 -3.47235 403.029 -2.49104 404.444L4.04329 399.545C-1.17969 392.049 -7.12801 384.638 -14.2844 377.761C-16.0327 376.031 -17.9448 374.362 -19.8577 372.711C-20.354 372.274 -20.7688 371.945 -21.1928 371.605L-22.4749 370.597L-25.0485 368.588C-26.7742 367.259 -28.5097 365.938 -30.2558 364.646C-31.992 363.344 -33.8773 362.217 -35.6938 361.026L-35.7219 361.016Z" fill="#F086A9"/>
<path d="M68.5273 546.666C69.9174 536.924 70.512 526.619 70.0134 516.083C69.552 505.567 68.0544 494.821 65.5716 484.494C64.4448 478.199 62.6413 471.214 61.4027 466.597L60.8867 464.696L60.4339 463.12L59.5287 459.969C58.9158 457.865 58.2447 455.797 57.6122 453.711C55.2297 446.218 52.5196 438.846 49.4735 431.566C46.6004 424.729 42.3903 418.564 39.3661 411.702C39.0683 411.045 38.8192 410.361 38.4433 409.757C35.6394 405.327 32.7407 400.893 29.4439 396.681C27.9677 394.791 26.5007 392.911 25.0465 390.945C23.8743 389.304 22.8509 387.745 21.8451 386.224L15.1351 391.249C15.288 391.474 15.4408 391.698 15.6028 391.933C18.5128 395.825 21.3856 399.698 24.2774 403.571L27.1695 407.681C28.1045 409.066 29.05 410.423 30.0631 411.754C31.2214 413.262 32.1994 415.009 32.8831 416.755C33.7641 419.05 34.7923 421.227 35.9266 423.361C37.0033 425.511 38.1957 427.609 39.2049 429.786C39.3808 430.153 39.6144 430.504 39.8669 430.856C42.0492 433.904 44.0333 439.148 45.3696 442.705C46.9335 446.765 48.3338 450.885 49.6559 455.059C50.3173 457.136 50.9201 459.25 51.533 461.354L53.2704 467.833L54.2168 471.641L55.1976 475.802C55.9062 478.879 56.538 481.972 57.066 485.052L57.9055 489.673L58.5833 494.297C59.0825 497.385 59.3736 500.446 59.7118 503.518C61.3777 520.531 60.8431 537.203 57.7983 552.686C56.2836 560.476 54.1437 567.966 51.3409 575.155C48.7715 581.707 45.1665 587.022 40.7456 592.306C39.7701 593.466 38.7119 594.556 37.6999 595.676C36.6597 596.786 35.5282 597.797 34.4608 598.877C33.3659 599.928 32.1784 600.918 31.0745 601.958C29.9241 602.969 28.6916 603.891 27.523 604.882L32.5088 611.628C33.8875 610.608 35.3393 609.666 36.6268 608.546C37.8953 607.426 39.2474 606.357 40.424 605.158C42.8789 602.829 45.1591 600.351 47.2834 597.725C52.9271 590.778 57.5979 582.939 61.092 574.322C64.6233 565.727 67.1357 556.446 68.4871 546.721L68.5273 546.666Z" fill="#F086A9"/>
<path d="M46.641 539.1C46.8112 537.387 46.9716 535.683 47.0104 533.927C47.0675 532.191 47.1814 530.456 47.0495 528.694C46.9178 526.18 46.9633 523.759 46.944 521.288C47.0728 511.983 45.9503 502.353 43.9942 492.911C43.6863 490.78 43.2076 488.643 42.8049 486.509C42.412 484.366 41.9615 482.24 41.5019 480.103C40.8173 476.894 40.2246 474.515 39.5851 471.869L39.113 470.055L38.6655 468.347C38.3479 467.213 38.069 466.063 37.7317 464.948C36.4227 460.432 34.9991 455.931 33.3632 451.517C30.1399 442.663 26.1658 434.064 21.4426 425.922C20.0521 423.531 18.6731 421.093 17.0393 418.855C15.8558 417.261 14.8453 415.617 13.8278 413.906C10.9972 408.933 7.64556 404.168 4.01269 399.554L-2.52163 404.453C-0.751374 406.601 0.893222 408.811 2.53761 411.022C3.54702 412.447 4.62231 413.885 5.4088 415.426C7.47375 419.553 9.89057 423.426 12.1715 427.371C18.7318 438.643 23.953 450.644 28.0101 463.026C29.0026 466.133 29.9564 469.258 30.8237 472.407C31.7232 475.71 32.6252 479.193 33.5313 483.313C35.2497 491.274 36.5394 499.266 37.234 507.169C37.4122 508.962 37.505 510.761 37.5223 512.538C37.5678 514.326 37.6328 516.096 37.6411 517.863C37.8024 521.337 37.9143 529.322 37.3576 536.407C36.867 543.504 35.7002 549.654 35.8838 550.07L35.2401 552.734C35.0071 553.608 34.727 554.471 34.4749 555.345C33.9899 557.094 33.3643 558.79 32.7388 560.485C30.8274 565.238 28.553 569.797 26.1141 574.435C25.6344 575.3 25.1644 576.156 24.5647 576.931C23.9558 577.696 23.3561 578.471 22.7472 579.236C20.2621 582.105 17.4821 584.735 14.4382 587.06L19.2978 593.631C27.5873 587.308 33.9411 578.934 38.4395 569.644C40.7077 565 42.5302 560.091 43.8672 554.955C45.2505 549.849 46.1947 544.546 46.6319 539.09L46.641 539.1Z" fill="#F086A9"/>
<path d="M14.9431 564.725C15.4374 563.974 15.9506 563.224 16.4449 562.473C17.0906 561.491 17.7216 560.394 18.2206 559.273C18.5329 558.563 18.7411 557.84 19.0063 557.118C19.5261 556.198 19.879 555.176 20.2879 554.175C20.6968 553.174 21.0031 552.122 21.2905 551.068C21.8467 549.199 22.3313 547.213 22.8251 545.237C23.1974 543.208 23.5986 541.172 23.5739 539.09C23.5837 538.587 23.6588 538.115 23.6967 537.622C24.0417 536.058 24.1913 534.382 24.3691 532.717C24.481 531.04 24.6011 529.391 24.71 527.79L24.7458 526.366C24.8584 525.164 25.0095 523.944 25.0666 522.702C25.1146 521.45 25.1256 520.177 25.0817 518.845C25.0173 517.55 24.9157 516.235 24.6897 514.944C23.9668 511.002 23.6287 507.179 22.978 503.335L22.0214 498.548L20.9587 493.805C20.6199 492.234 20.2818 490.643 20.1046 489.069C19.9976 488.143 19.7072 487.296 19.3492 486.475C18.5858 482.845 17.8217 479.234 17.0667 475.633C16.5683 473.02 15.5427 470.529 14.593 468.042C14.3685 467.207 14.0863 466.388 13.9194 465.536C13.6876 464.397 13.3221 463.271 12.9173 462.182C12.6779 461.489 12.34 460.887 12.0611 460.23C11.5191 458.262 10.7661 456.342 9.95474 454.459C9.24011 452.778 8.49064 451.02 7.73186 449.252C6.93439 447.502 6.07835 445.788 5.04448 444.257C4.79267 443.886 4.59923 443.48 4.36712 443.091C3.2415 440.235 1.66694 437.448 0.31477 434.802L-0.325392 433.657C-1.24185 431.541 -2.22656 429.47 -3.5057 427.398C-4.11297 426.386 -4.78791 425.401 -5.53237 424.498C-7.81278 421.779 -9.70275 418.79 -11.8945 415.989C-12.6178 415.03 -13.4387 414.143 -14.2113 413.23L-19.9536 417.542C-19.1186 418.562 -18.3315 419.59 -17.5943 420.682C-16.8473 421.765 -16.1011 422.867 -15.4463 424.128C-14.7398 425.523 -13.9846 426.891 -13.1161 428.027C-11.2666 430.34 -9.68015 432.823 -8.04522 435.28C-7.12228 436.731 -6.26766 438.227 -5.46147 439.749C-5.00375 441.192 -4.53539 442.607 -3.78175 444.013C-3.33942 444.866 -2.85843 445.702 -2.34787 446.51C-2.02778 447.33 -1.64925 448.114 -1.37696 448.941C-1.02837 450.009 -0.603067 451.061 -0.148308 452.085C0.859765 454.537 2.49892 456.386 3.60623 458.728C3.83727 459.392 4.14488 460.041 4.36608 460.714C7.87274 471.594 9.99392 482.677 12.6855 494.001L13.2511 496.35C13.4384 497.165 13.6637 497.981 13.8411 498.805C14.1394 500.194 14.5143 501.567 14.8786 502.968C15.2148 504.358 15.5593 505.778 15.847 507.195C16.2829 509.701 15.9815 511.865 15.946 514.277C15.9124 520.109 16.8328 526.338 16.7467 532.548C16.6592 536.07 16.3826 539.565 15.7394 542.96C15.1524 546.377 14.2268 549.705 13.0118 552.898C11.8249 556.102 10.2536 559.168 8.34052 561.982C6.41835 564.787 4.18948 567.419 1.52253 569.578L5.79471 575.357C9.52591 572.45 12.7667 568.954 14.997 564.803L14.9431 564.725Z" fill="#F086A9"/>
<path d="M-1.58096 537.043C-0.616312 533.441 0.0081866 529.789 0.479526 526.168C1.08937 521.413 0.492222 516.421 0.463917 511.707C0.432999 509.54 0.0304384 506.161 -0.72965 502.693C-1.47077 499.225 -2.46553 495.682 -3.37986 493.015C-3.48655 491.833 -3.62963 490.611 -3.79251 489.408C-3.87395 488.806 -3.9371 488.224 -4.03678 487.603C-4.15472 486.962 -4.26352 486.33 -4.37379 485.737C-4.58446 484.541 -4.80712 483.412 -5.08054 482.366C-5.33571 481.339 -5.56949 480.494 -5.79286 479.878C-7.49665 475.252 -9.11181 470.544 -10.9794 465.979C-12.6284 461.907 -14.4222 457.895 -16.1872 453.875C-18.5136 448.636 -21.66 443.974 -24.3275 438.96C-25.9687 435.924 -30.1512 431.764 -33.6077 427.755L-40.0442 432.581C-39.2793 433.447 -38.5051 434.322 -37.7417 435.225C-36.9684 436.119 -36.1854 437.005 -35.472 437.973C-33.4886 440.509 -31.7514 443.274 -30.0635 446.084C-29.3106 447.51 -28.6076 449 -27.7971 450.408C-27.4577 450.973 -27.1183 451.537 -26.769 452.092C-25.792 454.115 -24.8826 456.164 -23.7488 458.06C-22.9648 459.42 -22.3931 460.867 -21.8405 462.313C-21.3364 463.786 -20.8325 465.259 -20.2328 466.717C-19.105 469.515 -17.7929 472.216 -16.5399 474.972C-15.9275 476.838 -15.2666 478.679 -14.7982 480.587C-14.5248 481.633 -14.2893 482.678 -14.0925 483.74L-13.4886 486.822C-13.3246 487.75 -13.1411 488.66 -12.8998 489.553C-12.6676 490.435 -12.4829 491.07 -12.1697 491.823C-12.0394 492.141 -11.9849 492.457 -11.8735 492.774L-11.9882 492.789C-11.8312 493.65 -11.6264 494.504 -11.5742 495.37C-11.4718 497.16 -10.9681 498.89 -10.4476 500.677C-10.3441 502.685 -10.3043 504.625 -9.54033 506.754C-9.3779 507.226 -8.99283 508.333 -8.83556 508.444C-8.68728 509.532 -8.55864 510.639 -8.47714 511.735C-8.51239 512.902 -8.58569 514.068 -8.53665 515.267C-8.53659 515.761 -8.47956 516.257 -8.43244 516.763C-8.56031 518.363 -8.72548 519.944 -8.69609 521.655C-8.62756 524.08 -9.55419 525.945 -10.0939 528.128C-10.5928 530.237 -11.0117 532.492 -11.6295 534.729C-11.9389 535.364 -12.2391 536.008 -12.5947 536.611C-12.9322 537.235 -13.297 537.829 -13.7545 538.363C-15.1003 540.012 -16.9 541.111 -18.5644 542.397L-11.9169 551.392C-9.82304 550.057 -7.23424 549.69 -6.56519 548.595C-4.32641 544.966 -2.67617 541.077 -1.57183 537.053L-1.58096 537.043Z" fill="#F086A9"/>
<path d="M-140.135 576.098C-137.261 578.707 -134.369 581.336 -131.449 583.975C-130.695 584.631 -130.045 585.273 -129.197 585.952L-126.69 587.967L-121.626 591.933L-119.069 593.884L-117.786 594.855L-117.472 595.095L-117.046 595.377L-116.193 595.923C-113.912 597.378 -111.63 598.834 -109.358 600.28C-107.085 601.706 -104.802 603.124 -102.529 604.551L-100.831 605.595C-100.264 605.93 -99.6573 606.21 -99.0801 606.517C-97.9058 607.113 -96.7414 607.718 -95.5672 608.314L-91.3262 610.7L-89.2152 611.892L-87.0621 612.972L-78.4484 617.274L-69.7263 620.981C-68.2787 621.635 -66.8165 622.147 -65.354 622.659L-60.9679 624.233C-58.3283 625.266 -55.6938 625.937 -53.0531 626.693L-49.0869 627.815C-47.769 628.131 -46.4587 628.4 -45.1393 628.679C-42.5096 629.226 -39.8707 629.783 -37.2702 630.101C-34.6613 630.448 -32.0454 630.862 -29.465 630.961C-19.69 631.735 -10.5886 630.003 -1.26189 628.594C-0.372719 628.447 0.579096 628.408 1.41644 628.126L6.07255 626.614L10.6367 624.784C12.1435 624.139 13.6161 623.397 15.0963 622.703C16.5681 621.981 17.9787 621.113 19.4064 620.303C21.9264 618.756 24.3826 617.141 26.8409 615.468C27.8832 614.795 28.8498 614.119 29.7965 613.462C30.7342 612.795 31.678 612.214 32.558 611.563L27.5722 604.817C27.3267 605.026 27.0637 605.196 26.79 605.395C22.1971 608.972 17.3327 612.196 12.1963 614.83C8.56495 616.62 4.80952 618.176 1.08798 619.592C0.027713 619.988 -1.08883 620.363 -2.24034 620.661C-3.39878 620.892 -4.57471 621.085 -5.73719 621.173C-11.8137 621.567 -17.5445 622.611 -23.5909 622.465C-24.1039 622.464 -24.6101 622.53 -25.1169 622.615C-27.3521 622.929 -30.29 622.74 -33.2476 622.57C-36.2353 622.189 -39.2579 621.731 -41.7092 621.238C-52.9293 619.003 -64.3376 614.984 -75.4665 609.626C-86.5826 604.184 -97.4233 597.754 -107.673 590.54L-110.378 588.726C-111.248 588.122 -112.278 587.484 -112.876 586.977L-117.008 583.721L-121.109 580.419C-122.482 579.312 -123.874 578.204 -125.011 577.115L-132.236 570.558C-133.468 569.485 -134.592 568.311 -135.745 567.165L-139.195 563.717L-142.682 560.268L-146.012 556.672C-148.199 554.251 -150.513 551.911 -152.651 549.425C-156.485 544.851 -159.632 540.227 -162.461 534.941C-163.731 532.64 -165.05 530.367 -166.233 528.022C-167.387 525.669 -168.561 523.316 -169.812 521.016L-177.239 524.912C-176.068 527.56 -174.827 530.144 -173.537 532.682C-172.18 535.195 -170.677 537.628 -169.204 540.088C-161.255 553.057 -151.287 565.401 -140.145 576.127L-140.135 576.098Z" fill="#F086A9"/>
<path d="M-125.174 559.314C-123.055 561.286 -120.809 563.177 -118.51 564.909C-117.687 565.52 -116.885 566.149 -116.102 566.797C-115.339 567.444 -114.576 568.129 -113.71 568.827C-110.543 571.475 -107.428 573.989 -103.999 576.467C-99.929 579.103 -95.8282 581.673 -91.745 584.205C-89.9292 585.415 -88.0196 586.409 -86.163 587.545C-84.2754 588.615 -82.4499 589.815 -80.5404 590.81C-69.8777 596.929 -58.5832 601.932 -47.2531 605.017C-35.9209 608.045 -24.5744 609.211 -13.7984 607.667C-10.627 607.219 -7.44122 606.647 -4.44756 605.632C-3.3621 605.322 -2.31928 604.887 -1.25135 604.538C-0.182684 604.17 0.911705 603.871 1.98183 603.465C8.28548 601.36 14.2472 598.016 19.3079 593.64L14.4483 587.07C13.2889 588.07 12.0923 589.05 10.8599 589.972C9.58258 590.826 8.3584 591.777 7.00043 592.504C6.14596 592.984 5.30837 593.522 4.41813 593.944C3.51877 594.356 2.611 594.739 1.68645 595.065C-3.31431 596.64 -8.25713 597.942 -13.2926 598.69C-27.7034 600.873 -42.8412 597.984 -57.5495 592.318C-64.9291 589.527 -72.1401 585.812 -79.2013 581.902L-84.4208 578.776L-87.021 577.213C-87.8741 576.667 -88.697 576.075 -89.5396 575.501C-92.8628 573.217 -96.1859 570.933 -99.4999 568.659C-102.017 566.653 -104.404 564.49 -106.892 562.476C-107.481 561.978 -108.35 561.356 -109.232 560.581C-110.106 559.816 -111.117 558.941 -112.202 557.987C-113.296 557.043 -114.455 556.048 -115.651 555.015C-116.847 554 -118.07 552.955 -119.159 551.859C-121.394 549.702 -123.539 547.663 -125.164 546.166C-125.991 545.431 -126.64 544.788 -127.117 544.333C-127.593 543.878 -127.907 543.638 -128.002 543.634C-130.129 541.12 -132.294 538.605 -134.323 536.019C-135.674 534.086 -137.025 532.153 -138.425 530.266C-139.12 529.318 -139.835 528.388 -140.579 527.466C-141.264 526.509 -141.959 525.561 -142.693 524.63C-143.789 523.229 -144.679 521.656 -145.579 520.111L-146.86 517.839L-147.986 515.477L-150.247 510.764L-157.479 514.553C-149.524 531.066 -138.757 546.86 -125.155 559.315L-125.174 559.314Z" fill="#F086A9"/>
<path d="M-130.802 515.852C-130.386 516.637 -129.93 517.386 -129.562 518.199C-129.091 519.3 -128.388 520.277 -127.703 521.253C-127.28 521.868 -126.786 522.381 -126.333 522.949C-125.252 524.729 -124.055 526.476 -122.769 528.121C-120.291 530.895 -117.983 534.357 -115.061 536.72C-114.692 537 -114.392 537.344 -114.052 537.652C-112.034 540.028 -109.778 542.386 -107.626 544.511L-106.645 545.413C-105.057 547.127 -103.47 548.841 -101.622 550.46C-100.75 551.263 -99.743 551.996 -98.6932 552.615C-97.1041 553.541 -95.6147 554.595 -94.1453 555.668L-91.9465 557.292C-91.255 557.841 -90.3434 558.351 -89.5366 558.866C-86.7707 560.569 -83.992 562.186 -81.2739 563.896C-79.8792 564.69 -78.5056 565.541 -77.1927 566.484C-76.4161 567.046 -75.6317 567.399 -74.826 567.696C-73.1836 568.718 -71.5004 569.667 -69.8481 570.68C-68.1966 571.712 -66.514 572.679 -64.8322 573.665C-63.55 574.418 -62.2274 575.114 -60.8901 575.669C-59.5429 576.215 -58.1943 576.723 -56.8457 577.23C-55.9784 577.653 -55.1019 578.086 -54.2345 578.508C-53.0702 579.114 -51.8628 579.588 -50.6743 580.061C-49.9263 580.374 -49.2286 580.515 -48.4952 580.714C-46.3894 581.545 -44.2639 582.359 -42.1338 582.801C-40.2418 583.263 -38.2404 583.844 -36.2204 584.187C-35.2108 584.368 -34.2126 584.597 -33.2282 584.691C-32.2339 584.777 -31.2761 584.823 -30.3541 584.811C-29.9071 584.8 -29.4258 584.885 -28.9614 584.912C-27.3165 585.127 -25.6517 585.324 -24.0102 585.377C-23.1837 585.38 -22.3764 585.383 -21.5599 585.395C-20.7531 585.417 -19.9448 585.4 -19.1542 585.345L-17.7731 585.255C-16.5208 585.303 -15.2917 585.208 -14.0428 585.094C-13.4228 585.033 -12.7845 584.991 -12.1723 584.881C-11.5593 584.752 -10.9365 584.615 -10.313 584.458C-9.09615 584.191 -7.90233 583.781 -6.81799 583.253C-3.52558 581.631 -0.0844553 580.091 2.90029 577.82C3.88096 577.022 4.81684 576.155 5.74278 575.298L1.47059 569.519C-0.526145 571.295 -2.60081 572.869 -5.30987 573.895C-6.77805 574.523 -8.36804 574.861 -9.62895 575.535C-10.9796 576.072 -12.3614 576.675 -13.8081 576.99C-14.5272 577.162 -15.2386 577.381 -15.9662 577.525L-18.1465 577.897C-18.9893 578.074 -19.8552 578.107 -20.7309 578.149C-21.6058 578.173 -22.4738 578.263 -23.3459 578.211C-24.9386 577.874 -26.5265 577.661 -28.1243 577.457C-29.0898 577.363 -30.0387 577.327 -30.9881 577.31C-31.8817 577.076 -32.7591 576.919 -33.6421 576.657C-34.2153 576.492 -34.7893 576.347 -35.3541 576.211L-37.0366 575.738C-39.6907 575.085 -41.8589 575.135 -44.3832 574.564C-45.0765 574.309 -45.7523 574.093 -46.4441 573.8C-49.2235 572.696 -51.9266 571.339 -54.6024 570.01C-57.2358 568.57 -59.8812 567.195 -62.4063 565.654C-67.5473 562.711 -72.3945 559.533 -77.3965 556.681L-79.4293 555.435L-81.5647 554.137C-82.7627 553.416 -83.9909 552.742 -85.229 552.077C-85.8526 551.74 -86.4861 551.411 -87.09 551.056L-88.823 549.916C-90.8508 548.536 -92.263 546.715 -94.0423 545.051C-98.1837 540.816 -103.141 537.538 -107.44 533.45C-117.387 524.271 -125.011 512.758 -130.921 500.627L-137.281 503.956C-136.296 506.008 -135.33 508.059 -134.353 510.101C-133.28 512.09 -132.08 513.998 -130.802 515.852Z" fill="#F086A9"/>
<path d="M-7.76906 259.073C-11.4014 258.905 -15.0017 259.147 -18.6351 259.254C-22.27 259.4 -25.905 259.546 -29.5497 259.701C-33.1447 260.047 -36.7244 260.49 -40.2768 260.962C-42.0529 261.197 -43.8296 261.452 -45.5883 261.727L-48.2173 262.149C-49.0882 262.315 -49.9325 262.529 -50.7859 262.734C-59.3299 264.297 -67.3246 265.406 -77.1076 268.062C-79.2285 268.617 -81.3351 269.049 -83.4619 269.756L-89.8315 271.849L-96.1754 274.01C-98.2784 274.841 -100.384 275.749 -102.48 276.647C-106.422 278.339 -110.219 280.245 -113.919 282.574C-115.776 283.69 -117.633 284.788 -119.517 285.855C-120.449 286.39 -121.4 286.904 -122.351 287.419C-123.284 287.972 -124.227 288.534 -125.179 289.068C-125.916 289.477 -126.682 289.856 -127.346 290.344C-129.801 292.159 -132.272 293.936 -134.654 295.849C-136.983 297.86 -139.275 299.89 -141.493 302C-142.498 302.931 -143.475 303.872 -144.479 304.802C-145.448 305.772 -146.416 306.742 -147.385 307.731C-149.024 309.34 -150.597 310.724 -152.13 312.053L-146.171 317.953C-145.945 317.743 -145.728 317.542 -145.511 317.342C-143.548 315.45 -141.65 313.528 -139.743 311.596C-137.799 309.723 -135.764 307.949 -133.765 306.116L-129.469 302.338C-127.989 301.15 -126.5 299.991 -125.056 298.764C-123.407 297.364 -121.503 296.04 -119.595 295.078L-115.856 293.207C-114.625 292.579 -113.421 291.904 -112.217 291.228C-109.81 289.895 -107.461 288.36 -105.004 287.2C-104.578 287.008 -104.179 286.747 -103.788 286.477C-102.033 285.31 -99.6699 284.127 -97.2433 283.032C-96.0254 282.49 -94.8082 281.967 -93.6305 281.48C-92.4465 281.079 -91.3105 280.685 -90.3093 280.344C-87.9998 279.577 -85.6804 278.802 -83.3617 278.045L-79.8704 276.934L-76.3793 276.08L-69.3806 274.429L-65.8728 273.633L-62.6605 273.11L-49.8438 271.121C-47.7203 270.747 -45.5473 270.564 -43.3734 270.362L-36.8706 269.757C-33.8589 269.511 -30.8704 269.122 -27.8351 269.001L-18.7037 268.724L-14.1377 268.576C-12.6154 268.52 -11.1015 268.436 -9.56541 268.514L-0.383439 268.647L4.23297 268.672C5.00249 268.673 5.77272 268.655 6.54079 268.694L8.85404 268.821C11.946 268.958 15.0281 269.105 18.1011 269.242C23.7603 269.326 28.8745 270.738 34.374 272.013C36.7731 272.627 39.2146 273.13 41.5805 273.866C43.9472 274.584 46.3144 275.283 48.7135 275.898L50.8204 267.779C48.2706 266.883 45.7073 266.092 43.1327 265.347C40.5573 264.621 37.9241 264.168 35.2951 263.602C31.7977 262.889 28.2705 262.202 24.714 261.544C21.1305 261.093 17.5276 260.66 13.9131 260.274C6.68235 259.303 -0.585561 259.3 -7.78928 259.11L-7.76906 259.073Z" fill="#F086A9"/>
<path d="M-7.08167 281.549L-11.2341 281.57C-12.606 281.669 -13.9887 281.797 -15.3452 281.992C-17.2845 282.269 -19.1996 282.414 -21.1477 282.425C-28.5433 282.284 -35.7552 283.546 -42.9682 284.59C-43.7793 284.683 -44.5988 284.746 -45.4205 284.867L-47.8301 285.269L-52.6668 286.033C-54.9505 286.373 -57.2441 286.722 -59.5376 287.071C-60.6946 287.265 -61.8114 287.402 -63.0078 287.632L-66.6786 288.47L-74.0424 290.221C-74.647 290.378 -75.2698 290.516 -75.8751 290.692L-77.7028 291.287L-81.3595 292.496C-83.7949 293.324 -86.229 294.114 -88.6308 295.058C-91.0173 296.097 -93.3947 297.146 -95.7454 298.243L-99.267 299.894C-100.429 300.458 -101.558 301.156 -102.703 301.796C-104.967 303.106 -107.222 304.444 -109.441 305.803C-110.762 306.551 -111.995 307.51 -113.264 308.393C-114.515 309.295 -115.747 310.217 -116.925 311.198C-118.594 312.616 -120.378 313.792 -122.074 315.161C-124.598 317.06 -127.078 319.045 -129.502 321.071C-131.845 323.205 -134.052 325.486 -136.285 327.737L-130.491 333.479C-128.444 331.363 -126.422 329.198 -124.302 327.161C-122.886 325.923 -121.45 324.648 -119.9 323.615C-115.84 320.806 -111.779 317.979 -107.709 315.161C-95.9407 307.299 -82.7877 301.742 -69.4729 298.158L-64.4654 296.906L-61.9622 296.289L-60.7157 295.995L-59.52 295.784L-49.9386 294.175C-43.6017 292.936 -37.0713 292.598 -30.6613 291.931C-27.75 291.577 -24.7643 291.758 -21.8252 291.672C-20.3796 291.632 -18.0091 291.504 -15.2477 291.344C-13.8674 291.274 -12.39 291.15 -10.8769 291.084C-9.36599 291.076 -7.82696 291.078 -6.31603 291.069C-0.31095 291.052 5.0633 290.888 5.33766 290.67L14.8474 291.671L18.2413 292.115C19.376 292.253 20.5016 292.382 21.6243 292.587C23.8712 292.958 26.1203 293.272 28.3935 293.454C30.1081 293.587 31.8125 293.984 33.4987 294.362C35.149 294.682 36.7633 295.2 38.3585 295.717L43.1746 297.223L45.2257 289.321C28.4392 284.335 10.4805 280.93 -7.09128 281.557L-7.08167 281.549Z" fill="#F086A9"/>
<path d="M26.5872 308.101C25.7498 307.889 24.8919 307.713 24.0665 307.435C22.9594 307.069 21.7995 306.844 20.6494 306.61C19.9237 306.459 19.2406 306.433 18.5317 306.339C16.5343 305.901 14.4726 305.652 12.4271 305.478C10.5994 305.323 8.69037 305.059 6.77915 304.853C5.82353 304.75 4.85811 304.656 3.91928 304.61C2.96003 304.602 2.01695 304.67 1.11026 304.778C0.661839 304.827 0.216342 304.801 -0.24048 304.821C-3.29633 304.486 -6.49813 304.486 -9.46565 304.325L-10.7748 304.275C-13.0578 304.102 -15.3444 304.024 -17.7628 304.159C-18.9344 304.238 -20.1145 304.287 -21.2532 304.5C-22.9852 304.823 -24.7296 304.975 -26.4649 305.136L-31.6616 305.868C-34.5385 306.319 -37.3993 306.845 -40.2847 307.267C-41.7256 307.43 -43.1517 307.708 -44.5812 307.824C-45.4197 307.887 -46.1798 308.133 -46.9223 308.418C-50.3524 308.924 -53.7727 309.42 -57.2426 309.724C-59.9171 310.096 -62.5275 311.031 -65.133 311.834C-66.0039 312 -66.8673 312.214 -67.7551 312.323C-68.9562 312.429 -70.0944 312.879 -71.239 313.244C-71.9512 313.482 -72.5905 313.8 -73.2662 314.078C-75.3006 314.608 -77.3311 315.281 -79.2984 316.041C-82.7229 317.639 -86.7 319.035 -89.8504 321.166C-90.2226 321.456 -90.6298 321.668 -91.0384 321.919C-93.9032 323.291 -96.8058 324.899 -99.46 326.479L-100.591 327.234C-102.678 328.399 -104.775 329.553 -106.826 331.014C-107.831 331.707 -108.738 332.565 -109.598 333.434C-112.105 336.141 -115.094 338.269 -117.546 341.015C-118.398 341.914 -119.203 342.862 -120.036 343.761L-114.938 348.811C-114.008 347.859 -113.098 346.924 -112.132 346.011C-111.649 345.564 -111.157 345.108 -110.654 344.643C-110.408 344.415 -110.134 344.197 -109.869 343.97C-109.576 343.772 -109.293 343.565 -109 343.367C-107.666 342.515 -106.35 341.644 -105.322 340.619C-104.256 339.577 -103.208 338.496 -102.032 337.572L-98.4701 334.859C-97.0808 333.81 -95.6732 332.781 -94.1758 331.888C-92.731 331.373 -91.3059 330.877 -89.9063 330.057C-89.0701 329.557 -88.2522 329.037 -87.4518 328.479C-86.6495 328.12 -85.8813 327.665 -85.0265 327.422C-83.9396 327.074 -82.8787 326.659 -81.8359 326.224C-80.5998 325.701 -79.5194 325.03 -78.4475 324.33C-77.9116 323.98 -77.3856 323.639 -76.8398 323.28C-76.2954 322.959 -75.7152 322.696 -75.1161 322.434C-74.4335 322.223 -73.7676 321.954 -73.0857 321.762L-68.9273 320.6L-66.8535 320.034C-66.1534 319.861 -65.4461 319.755 -64.7375 319.611L-56.306 318.006C-53.4965 317.582 -50.6725 317.272 -47.8805 316.809C-45.0718 316.404 -42.3127 315.806 -39.5306 315.352L-37.2083 314.995L-34.7895 314.603C-32.084 314.165 -29.4154 313.45 -26.6979 312.947C-24.2975 312.535 -22.0487 313.106 -19.6292 313.189C-16.6891 313.321 -13.7639 313.101 -10.8267 312.814C-7.88549 312.67 -4.93512 312.536 -1.99389 312.393C-0.310015 312.334 1.37319 312.294 3.04576 312.282C4.72455 312.356 6.40024 312.506 8.07685 312.636C11.4188 312.945 14.7912 313.207 18.1159 313.715C21.4265 314.345 24.7355 315.014 28.0249 315.7L30.4945 316.213C31.3144 316.387 32.1208 316.665 32.9294 316.886L37.7779 318.288L39.5832 311.345C37.4428 310.674 35.3115 310.013 33.1901 309.343C31.0467 308.748 28.8467 308.388 26.6644 308.067L26.5872 308.101Z" fill="#F086A9"/>
<path d="M12.2825 329.309C10.1148 329.102 7.93869 328.867 5.76328 328.613L2.5107 328.203C1.423 328.076 0.331039 328.062 -0.758121 327.973C-3.60123 327.788 -6.43271 327.793 -9.25355 327.771C-9.96614 327.772 -10.6585 327.736 -11.3725 327.775L-13.4956 327.893C-14.9139 327.962 -16.3397 327.984 -17.7642 327.967C-23.0155 327.652 -33.5017 329.568 -40.0112 331.095C-42.8801 331.336 -45.9206 331.59 -48.5626 331.86C-49.8791 331.999 -51.1097 332.132 -52.1507 332.273C-53.2015 332.423 -53.9904 332.678 -54.6049 332.844C-56.875 333.574 -59.1802 334.227 -61.4938 334.851C-63.764 335.581 -65.9723 336.437 -68.2067 337.225C-69.1903 337.605 -70.2092 337.908 -71.1655 338.318L-74.0266 339.596L-76.9052 340.834C-77.8622 341.263 -78.8725 341.595 -79.7664 342.112C-82.1616 343.378 -84.4931 344.714 -86.7712 346.147C-88.9314 347.727 -91.1273 349.248 -93.4518 350.651C-94.7714 351.617 -96.3046 353.201 -97.9591 354.972C-98.3659 355.422 -98.81 355.851 -99.2183 356.339C-99.5984 356.838 -100.007 357.344 -100.397 357.852C-101.196 358.866 -102.032 359.86 -102.876 360.807L-97.1646 366.46C-96.4404 365.661 -95.7534 364.842 -95.0657 364.004C-94.3689 363.175 -93.7079 362.289 -92.8826 361.579C-91.7991 360.576 -90.6881 359.602 -89.5772 358.628C-89.0081 358.156 -88.4839 357.615 -87.8699 357.211L-86.0254 355.942C-84.7426 355.193 -83.4971 354.424 -82.2767 353.568C-81.8068 353.206 -81.2823 352.903 -80.785 352.571C-78.9454 351.672 -77.133 350.744 -75.4646 349.602C-72.9961 348.157 -70.1604 347.544 -67.5495 346.352C-64.8934 345.466 -62.3607 344.328 -59.8067 343.134C-58.0226 342.689 -56.2284 342.235 -54.4191 341.877C-52.4185 341.488 -50.4876 341.182 -48.2674 341.011C-46.1308 340.789 -44.0093 340.471 -41.9143 339.848C-41.4721 339.713 -41.0041 339.646 -40.5626 339.529L-40.5382 339.635C-39.3243 339.444 -38.1082 339.196 -36.8888 339.11C-34.3328 339.103 -31.8739 338.656 -29.4031 338.143C-26.5498 338.062 -23.7286 337.828 -20.9345 337.308C-20.3215 337.18 -18.8923 336.826 -18.8015 336.687L-14.3338 336.374C-12.7014 336.417 -11.0546 336.338 -9.4243 336.438C-8.76935 336.454 -8.11239 336.413 -7.45599 336.39C-5.22987 336.561 -2.99389 336.723 -0.794824 336.608C-0.0238491 336.571 0.764649 336.573 1.53198 336.63C2.29786 336.726 3.05254 336.869 3.81696 337.003C5.33596 337.28 6.85336 337.595 8.39498 337.777C9.87966 337.958 11.3582 338.052 12.8563 338.129C14.3454 338.195 15.8091 338.432 17.296 338.555C19.1901 338.961 21.106 339.29 22.9881 339.762C23.7033 339.941 24.4176 340.14 25.1222 340.347C25.8268 340.555 26.508 340.875 27.2013 341.13C28.5773 341.667 29.9541 342.186 31.3633 342.601L33.3812 334.821C30.5406 333.828 28.2734 331.756 26.8281 331.539C24.3893 331.217 21.9722 330.821 19.5468 330.395C17.1207 329.989 14.7188 329.45 12.2643 329.289L12.2825 329.309Z" fill="#F086A9"/>
<path d="M2.40322 351.856C2.15729 351.828 1.51378 351.765 0.577131 351.663C-0.37154 351.626 -1.63583 351.644 -3.11722 351.625C-4.60845 351.616 -6.30841 351.598 -8.16999 351.584C-9.09129 351.577 -10.0597 351.559 -11.0478 351.559C-12.0388 351.635 -13.0677 351.71 -14.1065 351.793C-18.2532 352.157 -22.6258 352.217 -26.6087 353.014C-28.5874 353.328 -30.4795 353.617 -32.1714 353.884C-33.0128 354.023 -33.8155 354.144 -34.5613 354.268C-35.3085 354.429 -35.9905 354.622 -36.6141 354.778C-38.5793 354.988 -41.338 355.329 -44.4405 355.713C-45.2137 355.807 -46.0156 355.909 -46.8274 356.021C-47.6765 356.112 -48.2733 356.317 -49.0289 356.449C-50.4658 356.755 -51.9315 357.07 -53.3775 357.366C-54.8592 357.603 -56.1789 358.075 -57.4486 358.483C-58.7275 358.88 -59.9297 359.262 -61.0257 359.6C-62.1484 359.889 -63.0118 360.359 -63.7846 360.691C-64.5391 361.042 -65.139 361.323 -65.5363 361.526C-65.8457 361.666 -66.9778 362.203 -68.5602 363.082C-70.0338 364.1 -72.0564 365.314 -74.1933 366.781C-75.1937 367.597 -76.2517 368.431 -77.3477 369.263C-77.8774 369.699 -78.4802 370.056 -78.9741 370.55L-80.4729 371.974C-81.4602 372.944 -82.547 373.786 -83.4394 374.758C-84.3135 375.751 -85.1764 376.697 -85.9885 377.558L-80.2129 383.281C-79.4001 382.4 -78.6327 381.47 -77.8549 380.511C-77.0048 379.651 -76.0622 378.851 -75.1566 378.031C-74.5685 377.559 -74.1173 376.94 -73.492 376.489C-72.8849 376.018 -72.2961 375.528 -71.6707 375.077C-71.0454 374.626 -70.4748 374.115 -69.8761 373.616C-69.2774 373.116 -68.5153 372.813 -67.7644 372.557C-67.2934 372.413 -66.9358 372.009 -66.5348 371.711C-65.9284 371.259 -65.3397 370.769 -64.7151 370.336C-64.3845 370.14 -64.0173 369.983 -63.6777 369.797L-62.5338 369.451C-62.034 369.299 -61.481 369.244 -61.0611 368.947C-60.4653 368.523 -59.8511 368.119 -59.2006 367.755C-58.5318 367.41 -57.7823 367.191 -57.0603 366.944C-55.5979 366.468 -54.0817 366.07 -52.557 365.701C-50.9341 365.497 -49.3203 365.283 -47.7262 365.088C-46.9333 364.976 -46.1585 364.844 -45.3649 364.713C-44.4301 364.616 -43.5045 364.509 -42.5971 364.382C-40.0555 364.004 -37.5483 363.53 -35.0479 362.99C-34.4258 362.871 -33.7914 362.686 -33.1799 362.596L-31.3173 362.335L-27.5898 361.755L-23.861 361.139L-21.9869 360.83L-20.1296 360.702C-17.643 360.522 -15.1662 360.351 -12.6726 360.237C-12.1771 360.199 -11.662 360.143 -11.1658 360.086C-10.6605 360.039 -10.1572 360.049 -9.6632 360.049C-8.66528 360.039 -7.65963 360.078 -6.65074 360.278C-6.0381 360.406 -5.38567 360.241 -4.74751 360.199C-3.7952 360.141 -2.83163 360.035 -1.88005 359.996L-0.434408 359.956C0.0475984 360.022 0.517456 360.154 0.988886 360.248C1.61064 360.386 2.22814 360.638 2.85644 360.605C4.88403 360.502 6.83901 361.052 8.81555 361.289C9.31653 361.356 9.80834 361.413 10.2987 361.508L11.7566 361.896C12.7253 362.152 13.6941 362.407 14.6741 362.616C16.4938 362.98 18.2803 363.467 20.0766 363.944C21.839 364.563 23.5901 365.228 25.3562 365.752L27.3967 357.878C26.3087 357.513 25.1545 357.137 23.9631 356.739C23.3724 356.536 22.7726 356.323 22.1628 356.119C21.5524 355.934 20.9306 355.797 20.3004 355.63C17.7988 354.964 15.2591 354.297 12.898 353.684C12.305 353.537 11.7234 353.344 11.148 353.236C10.5726 353.129 10.0154 353.041 9.46812 352.944C8.3826 352.76 7.36299 352.588 6.44751 352.429C4.61581 352.131 3.17055 351.914 2.34557 351.873L2.40322 351.856Z" fill="#F086A9"/>
<path d="M172.32 335.046C169.829 332.87 167.329 330.684 164.809 328.497L161.031 325.189L157.069 321.996C154.414 319.88 151.748 317.793 149.061 315.761C146.316 313.765 143.451 311.917 140.623 310.108L135.594 306.456C133.921 305.243 132.121 304.129 130.379 302.96C126.866 300.668 123.413 298.303 119.822 296.066C113.198 292.173 106.712 288.115 99.6704 284.7C98.0397 283.868 96.387 283.111 94.7147 282.372C93.0318 281.662 91.3982 280.906 89.6449 280.297C86.1876 279.034 82.7703 277.715 79.4906 276.031C78.8663 275.713 78.2441 275.338 77.588 275.104C75.2089 274.214 72.6778 273.576 70.1973 272.853C67.7161 272.15 65.2235 271.494 62.7288 270.895C61.609 270.615 60.4983 270.344 59.3876 270.073C58.2776 269.784 57.136 269.578 56.007 269.288C54.1341 268.827 52.4446 268.287 50.822 267.74L48.7151 275.859L49.4569 276.087C51.7141 276.686 53.9832 277.22 56.2728 277.716L62.9783 279.503C66.1291 280.336 69.2656 281.292 72.4799 281.957C74.2769 282.416 76.1025 283.122 77.7106 284.048C79.792 285.268 81.9784 286.226 84.1959 287.119L87.5282 288.424C88.6225 288.875 89.6859 289.391 90.759 289.897C91.1228 290.073 91.5267 290.193 91.9313 290.294C95.4656 291.284 100.382 293.886 103.657 295.703C118.643 304.039 132.385 314.095 145.319 324.406C154.229 331.635 162.729 339.153 171.088 346.618C175.297 350.333 179.516 354.038 183.707 357.733C187.52 361.1 190.651 364.697 193.747 368.673L197.889 373.896L202.1 379.036L208.466 373.579C207.145 371.6 205.658 369.757 204.16 367.942C202.662 366.127 201.125 364.329 199.578 362.541C198.55 361.352 197.522 360.163 196.475 358.973C195.39 357.801 194.294 356.638 193.19 355.465C190.97 353.147 188.751 350.81 186.513 348.473C184.274 346.154 181.832 343.933 179.477 341.667C177.083 339.437 174.776 337.164 172.293 335.016L172.32 335.046Z" fill="#F086A9"/>
<path d="M157.914 352.25C155.878 350.604 153.891 348.894 151.763 347.406C150.246 346.341 148.826 345.204 147.478 343.945C144.908 341.586 142.112 339.436 139.364 337.259L135.183 334.068C133.789 333.017 132.267 332.066 130.822 331.079C128.263 329.186 125.704 327.311 123.166 325.361C108.634 314.591 92.3161 304.816 74.7562 298.442C72.179 297.517 69.6349 296.469 67.0019 295.76C65.0896 295.335 63.2582 294.781 61.4221 294.102C58.7803 293.127 56.1174 292.208 53.4522 291.345C50.7568 290.53 47.9859 289.948 45.2369 289.292L43.1857 297.194C45.8041 297.788 48.4544 298.298 51.0593 298.997C52.7031 299.487 54.3764 299.951 55.9363 300.647C60.0723 302.544 64.4334 303.775 68.5964 305.465C71.6119 306.606 74.6359 307.777 77.6492 308.975C80.6216 310.248 83.5016 311.698 86.4219 313.093C92.3328 315.78 97.7987 319.172 103.386 322.379C104.8 323.156 106.114 324.08 107.448 324.948L111.451 327.61L115.443 330.281L117.425 331.63L119.327 333.052C124.397 336.866 129.546 340.588 134.292 344.665C136.493 346.488 138.574 348.44 140.765 350.272C142.823 352.118 147.731 356.192 152.18 359.83C156.472 363.595 160.374 366.899 160.756 366.838C162.996 368.881 165.069 371.06 167.162 373.221C168.622 374.797 170.081 376.373 171.59 377.904C172.35 378.664 173.119 379.416 173.898 380.158C174.648 380.909 175.427 381.651 176.227 382.357C177.421 383.428 178.464 384.713 179.5 385.95C181.506 388.392 183.492 390.872 185.372 393.377L191.57 388.075C181.5 375.424 170.513 362.889 157.924 352.241L157.914 352.25Z" fill="#F086A9"/>
<path d="M165.92 392.983C165.404 392.308 164.858 391.679 164.382 390.967C163.763 390.003 162.978 389.174 162.184 388.336C161.691 387.804 161.165 387.395 160.651 386.919C159.39 385.36 158.022 383.882 156.603 382.488C155.311 381.251 154.102 379.827 152.736 378.531C151.37 377.234 149.984 375.974 148.484 374.947C148.123 374.696 147.812 374.38 147.471 374.11C145.427 371.904 143.182 369.756 140.985 367.819L140.02 366.975C138.477 365.348 136.925 363.711 135.102 362.197C134.218 361.46 133.335 360.704 132.38 360.088C129.388 358.32 126.747 356.1 123.955 354.074C122.791 353.232 121.626 352.389 120.45 351.574L116.836 349.212C115.641 348.416 114.496 347.536 113.421 346.592C112.796 346.036 112.098 345.658 111.389 345.327L109.35 343.738C108.667 343.218 107.944 342.734 107.251 342.223C105.856 341.21 104.47 340.188 103.114 339.119C101.028 337.519 98.7424 336.178 96.3757 334.966C95.6624 334.492 94.9188 334.064 94.2364 333.525C93.323 332.816 92.3098 332.235 91.3063 331.646C90.6743 331.279 90.0379 331.027 89.4136 330.709C87.7179 329.589 86.0038 328.45 84.1348 327.637C80.8296 326.123 77.3459 324.061 73.8525 322.996C73.4296 322.875 73.0294 322.66 72.6178 322.493C69.8865 321.124 66.8985 320.012 64.1797 318.815L62.9731 318.322C61.9576 317.799 60.9328 317.266 59.8877 316.77C58.8223 316.311 57.7258 315.917 56.5618 315.55C55.4449 315.193 54.3091 314.836 53.1674 314.631C49.6937 314.042 46.4396 312.682 42.9773 312.045C41.818 311.801 40.6369 311.633 39.4776 311.389L37.6724 318.331C38.9629 318.618 40.2058 318.913 41.4661 319.246C42.7257 319.598 44.0141 319.942 45.293 320.533C46.7117 321.195 48.1312 321.839 49.5258 322.139C52.3985 322.791 55.2577 323.547 58.064 324.443C59.6867 324.989 61.2761 325.658 62.867 326.289C64.138 327.089 65.4091 327.888 66.8982 328.449C67.7874 328.796 68.7168 329.088 69.6271 329.38C70.3701 329.826 71.1629 330.208 71.8952 330.683C72.8411 331.289 73.8368 331.831 74.8242 332.344C77.1811 333.565 79.6285 333.915 82.0131 334.909C82.6162 335.284 83.2405 335.602 83.8339 335.986C88.5875 339.123 93.3827 342.166 97.8765 345.635C100.149 347.319 102.472 348.937 104.775 350.574C107.018 352.285 109.3 353.959 111.634 355.531L113.599 356.822L115.657 358.155C117.876 359.741 120.255 361.125 122.514 362.674C124.494 364.061 125.909 365.807 127.581 367.552C129.628 369.664 131.875 371.517 134.22 373.298L137.748 375.942L141.167 378.704C143.726 380.836 146.274 383.014 148.704 385.302C151.075 387.644 153.416 390.033 155.718 392.44C158.068 394.82 160.193 397.39 162.367 399.915L165.603 403.726C166.695 404.984 167.747 406.278 168.77 407.6L174.222 402.935C172.94 401.176 171.58 399.489 170.2 397.802C168.82 396.134 167.401 394.503 165.901 392.982L165.92 392.983Z" fill="#F086A9"/>
<path d="M141.573 401.037C139.991 399.428 138.419 397.81 136.848 396.172C135.227 394.6 133.624 393.028 132.042 391.418C131.008 390.381 129.955 389.362 128.881 388.38C127.818 387.37 126.733 386.417 125.599 385.509C123.362 383.646 121.144 381.785 119.028 379.737C117.155 377.794 113.852 375.472 110.451 372.986C107.071 370.443 103.29 368.199 100.374 366.453C96.072 362.44 90.9077 358.622 88.6326 357.252C87.5645 356.613 86.4866 355.982 85.4086 355.352L82.1233 353.563C79.9463 352.359 77.7602 351.144 75.5931 349.931C74.636 349.372 73.6374 348.906 72.6485 348.431L69.6734 346.977C67.7063 345.999 65.7308 344.992 63.7749 343.967C61.201 342.71 58.5001 341.789 55.8506 340.766C54.521 340.259 53.1912 339.752 51.8721 339.217C50.5425 338.71 49.1812 338.287 47.853 337.742C46.2431 337.11 43.9436 336.623 41.4164 336.127C40.7848 335.998 40.1432 335.879 39.4737 335.749C38.8125 335.647 38.1219 335.573 37.4508 335.481C36.0898 335.296 34.7198 335.101 33.3807 334.84L31.3628 342.62C32.5417 342.846 33.7409 343.034 34.9403 343.223L36.744 343.511C37.3384 343.619 37.9207 343.793 38.5137 343.939C41.6926 344.783 44.8459 345.797 48.0091 346.802C49.5136 347.458 50.9961 348.19 52.5407 348.791C53.1581 349.042 53.7874 349.228 54.4161 349.433C55.443 349.909 56.4705 350.366 57.5086 350.796C58.5566 351.216 59.5955 351.626 60.6245 352.046C63.5633 353.203 66.1049 355.058 68.9394 356.459C70.3118 357.091 71.641 357.855 73.0127 358.506C74.3836 359.176 75.7651 359.818 77.1565 360.451L79.7211 361.955C80.5764 362.444 81.4301 362.971 82.2143 363.581C83.9884 364.884 85.6831 366.279 87.4186 367.599C89.1443 368.929 90.9623 370.082 92.8653 371.247C93.2838 371.482 93.6524 371.781 94.0513 372.034L93.9906 372.127C94.9875 372.887 96.014 373.62 96.9609 374.445C98.9081 376.192 101.129 377.483 103.276 378.972C105.441 380.993 107.598 382.966 110.232 384.388C110.819 384.686 112.159 385.44 112.321 385.418L115.921 388.397C117.139 389.593 118.387 390.762 119.693 391.876C120.217 392.324 120.772 392.725 121.326 393.145C122.971 394.842 124.616 396.54 126.412 398.005C128.955 400.079 130.927 402.662 133.171 405.105C135.353 407.402 137.715 409.497 140.095 411.593C141.431 413.174 142.826 414.7 144.113 416.326C145.091 417.561 146.001 418.859 146.922 420.13C147.852 421.391 148.762 422.671 149.721 423.923L155.822 418.694C154.051 416.071 153.144 413.195 152.104 412.091C150.32 410.284 148.587 408.413 146.854 406.522C145.121 404.651 143.318 402.862 141.544 401.046L141.573 401.037Z" fill="#F086A9"/>
<path d="M119.335 411.899C118.931 411.522 117.251 409.985 114.847 407.765C113.635 406.674 112.26 405.367 110.725 404.025C109.16 402.73 107.474 401.345 105.743 399.91C104.877 399.193 104.003 398.466 103.109 397.738C102.235 396.992 101.331 396.274 100.416 395.621C98.5961 394.269 96.7946 392.936 95.0668 391.663C91.6808 389.035 88.4281 387.143 86.2036 385.689C84.6298 384.365 82.432 382.467 79.8025 380.675C78.4987 379.741 77.1295 378.777 75.733 377.782C74.3365 376.788 72.9226 375.755 71.4535 374.92C68.5569 373.156 65.7529 371.452 63.4504 370.053C61.0739 368.85 59.1813 367.913 58.1903 367.495C57.8173 367.31 56.4526 366.725 54.4432 365.86C53.4543 365.385 52.2425 365.025 50.9395 364.566C49.6267 364.117 48.2013 363.625 46.6918 363.102C45.9416 362.845 45.173 362.569 44.3856 362.292C43.5982 362.014 42.8115 361.718 41.9734 361.524C40.3372 361.082 38.6638 360.619 36.9897 360.174C35.3255 359.721 33.6824 359.212 32.0729 358.817C30.4514 358.489 28.887 358.163 27.4066 357.869L25.3661 365.743C26.9595 366.06 28.5831 366.332 30.1872 366.621C31.7762 367.052 33.3655 367.484 34.9425 367.981C36.8658 368.616 38.897 368.912 40.8273 369.613C42.7371 370.351 44.752 370.828 46.5349 371.903C47.0826 372.238 47.7732 372.312 48.3837 372.497C49.3236 372.761 50.2834 373.006 51.1887 373.431L52.5624 374.025L53.8622 374.816C54.4191 375.16 54.9525 375.618 55.5721 375.812C56.4642 376.084 57.3362 376.393 58.2057 376.759C59.076 377.106 59.9347 377.5 60.7605 378.016C62.4142 378.991 64.0545 380.071 65.6553 381.187C68.9 383.287 71.872 386.061 75.0127 388.148C76.0946 388.921 77.2195 389.563 78.3 390.374C79.3812 391.166 80.4731 391.93 81.5839 392.695L84.9183 394.932C86.0396 395.668 87.1617 396.386 88.2414 397.216L94.8405 402.029C95.9506 402.813 97.019 403.69 98.0678 404.585L101.223 407.281C102.925 408.742 104.895 409.882 106.307 411.722C106.751 412.281 107.402 412.648 107.954 413.106C108.802 413.785 109.671 414.426 110.489 415.132L111.721 416.205L112.814 417.444C113.297 417.985 113.7 418.618 114.283 419.03C116.119 420.459 117.471 422.354 119.04 424.048C120.589 425.761 122.071 427.499 123.57 429.295C124.99 430.927 126.311 432.65 127.623 434.363L131.587 439.512L137.756 434.219C136.222 432.089 134.396 429.919 132.613 427.599C131.717 426.453 130.811 425.298 129.914 424.152C129.028 422.997 128.139 421.879 127.247 420.857C123.71 416.722 120.732 413.111 119.314 411.936L119.335 411.899Z" fill="#F086A9"/>
<path d="M279.166 476.494C276.215 471.213 273.209 465.853 270.212 460.503C268.652 457.849 267.071 455.214 265.451 452.615C263.841 450.008 262.172 447.454 260.385 444.992L254.557 435.42L248.558 425.879L245.854 421.557L243.035 417.288L237.377 408.748C235.53 406.103 233.43 403.637 231.407 401.137C229.356 398.645 227.439 396.102 225.682 393.374C225.36 392.849 225.058 392.286 224.648 391.824C221.643 388.44 218.812 384.969 215.571 381.785C214.125 380.343 212.707 378.911 211.37 377.368C210.26 376.09 209.339 374.839 208.474 373.608L202.108 379.065L202.524 379.613C205.175 382.831 208.053 385.82 210.93 388.828C212.871 390.983 214.743 393.202 216.851 395.221C218.051 396.378 219.178 397.733 219.968 399.179C222.055 402.973 224.83 406.167 227.389 409.562C227.605 409.856 227.89 410.104 228.166 410.362C230.674 412.576 233.259 416.789 235.118 419.587C239.434 425.966 243.341 432.577 247.346 439.153C251.157 445.797 255.065 452.407 258.715 459.055L262.593 465.949L266.366 472.868L270.206 479.742C271.458 482.041 272.739 484.314 274.048 486.597C276.705 491.145 279.363 495.655 282.128 500.103C284.69 504.153 286.356 508.283 288.191 512.714L290.579 518.554C291.36 520.503 292.169 522.444 293.065 524.34L300.651 520.774C299.915 518.655 299.101 516.591 298.248 514.544C297.357 512.515 296.446 510.504 295.516 508.492C290.653 497.788 285.007 486.969 279.186 476.476L279.166 476.494Z" fill="#F086A9"/>
<path d="M259.857 487.972C258.618 485.844 257.361 483.696 255.918 481.702C254.889 480.276 253.986 478.806 253.19 477.256C252.439 475.792 251.659 474.337 250.868 472.892C250.04 471.463 249.201 470.044 248.343 468.624C246.627 465.803 244.863 463.009 243.06 460.232C241.514 457.674 239.978 455.126 238.5 452.523C230.115 437.817 220.857 423.059 209.926 409.814C208.299 407.88 206.703 405.9 204.948 404.104C203.686 402.82 202.55 401.475 201.493 400.038C199.997 397.929 198.335 395.936 196.663 393.953C194.991 391.97 193.279 390.023 191.558 388.085L185.36 393.387L190.437 398.987C191.512 400.187 192.625 401.389 193.514 402.725C195.779 406.336 198.427 409.63 201.134 412.888C216.487 431.718 229.172 452.745 240.911 473.64C242.265 476.01 243.424 478.487 244.7 480.892C245.94 483.239 249.15 488.464 251.932 493.226C254.733 497.969 257.328 502.154 257.706 502.207C259.061 504.777 260.368 507.373 261.703 509.961C262.6 511.838 263.507 513.706 264.463 515.548C265.389 517.398 266.393 519.214 267.513 520.976C268.356 522.3 268.974 523.759 269.613 525.199C270.883 527.993 271.903 530.892 273.087 533.712L280.468 530.242C274.406 515.892 267.962 501.346 259.857 487.972Z" fill="#F086A9"/>
<path d="M254.628 528.225C254.315 527.453 253.964 526.698 253.719 525.9C253.39 524.833 252.897 523.807 252.414 522.791C252.115 522.153 251.747 521.597 251.399 521.004C250.661 519.18 249.808 517.39 248.858 515.653C247.162 512.576 245.733 508.94 243.552 506.129C243.289 505.787 243.095 505.399 242.862 505.029C241.674 502.323 240.132 499.671 238.843 497.113C238.658 496.736 238.434 496.375 238.239 496.007C237.338 493.987 236.446 491.976 235.269 489.974C234.698 489.002 234.128 488.011 233.44 487.13C231.386 484.438 229.732 481.487 227.893 478.651L223.233 471.604C222.461 470.434 221.738 469.219 221.131 467.951C220.77 467.206 220.289 466.608 219.76 466.036C218.076 463.112 216.499 460.144 214.912 457.186C213.726 454.917 212.142 452.852 210.626 450.761C210.218 450.023 209.769 449.322 209.419 448.548C208.955 447.514 208.317 446.568 207.688 445.632C207.292 445.046 206.836 444.554 206.42 444.006C205.431 442.286 204.346 440.62 203.172 439.017C202.115 437.599 201.13 436.022 200.048 434.517C198.946 433.012 197.796 431.552 196.523 430.297C196.222 429.991 195.96 429.629 195.678 429.305C194.083 426.793 192.22 424.327 190.494 422.028L189.715 421.029C188.514 419.159 187.312 417.289 185.833 415.475C185.116 414.602 184.391 413.7 183.575 412.918C181.091 410.571 178.921 407.932 176.642 405.412C175.858 404.565 175.024 403.764 174.249 402.927L168.797 407.591C170.537 409.53 172.165 411.426 173.75 413.71C174.603 415.006 175.466 416.274 176.482 417.273C178.521 419.356 180.392 421.612 182.332 423.786C183.471 425.056 184.502 426.406 185.563 427.73C186.234 429.066 186.886 430.403 187.854 431.646C188.443 432.4 189.061 433.127 189.69 433.826C190.137 434.565 190.652 435.259 191.079 436.017C191.631 436.988 192.251 437.914 192.88 438.831C194.393 440.998 196.274 442.496 197.879 444.486C198.256 445.07 198.671 445.637 199.038 446.231C204.891 455.871 209.869 466.047 216.017 475.451L217.31 477.4L218.648 479.437C220.147 481.708 221.871 483.826 223.418 486.09C224.806 488.062 225.358 490.259 226.357 492.445C227.576 495.104 229.067 497.603 230.674 500.049C232.262 502.495 233.859 504.95 235.437 507.386C239.032 512.986 242.075 518.879 245.078 524.809C247.936 530.799 250.725 536.835 253.322 542.958L259.814 539.91C259.007 537.912 258.238 535.916 257.401 533.946C256.545 531.994 255.65 530.06 254.62 528.196L254.628 528.225Z" fill="#F086A9"/>
<path d="M228.999 528.886C226.847 524.822 224.84 520.66 222.755 516.571C221.423 513.888 219.935 511.313 218.457 508.73C216.969 506.155 215.433 503.607 214.111 500.915C212.904 498.446 210.788 494.897 208.38 491.29C206.001 487.674 203.476 483.919 201.35 481.13C200.019 478.428 198.608 475.581 197.352 473.139C196.088 470.686 194.882 468.692 194.088 467.579C192.581 465.498 191.134 463.361 189.705 461.226C188.267 459.081 186.77 456.99 185.302 454.891C183.977 453.026 182.681 451.152 181.385 449.259L177.448 443.664C175.745 441.233 173.964 438.875 172.104 436.59C170.224 434.324 168.364 432.039 166.653 429.598C164.64 426.595 159.711 422.833 155.841 418.695L149.741 423.924C151.561 425.77 153.361 427.616 155.19 429.472C157.649 431.989 159.813 434.799 162.026 437.544C163.025 438.978 164.063 440.396 165.151 441.768C165.614 442.308 166.069 442.838 166.524 443.369C167.882 445.369 169.24 447.349 170.786 449.157C171.877 450.434 172.803 451.809 173.69 453.201C174.577 454.613 175.385 456.078 176.348 457.474C178.165 460.147 180.197 462.657 182.229 465.167C183.338 466.958 184.506 468.713 185.538 470.538C186.687 472.549 187.729 474.603 188.84 476.612C189.921 478.649 191.051 480.64 192.471 482.49C192.779 482.882 193.019 483.318 193.308 483.729L193.219 483.811C193.879 484.938 194.586 486.058 195.168 487.239C196.395 489.69 197.865 491.97 199.453 494.178C200.8 496.956 202.245 499.662 204.194 502.102C204.62 502.641 205.646 503.868 205.816 503.894L208.307 508.065C209.082 509.672 209.924 511.234 210.786 512.796C211.132 513.427 211.518 514.021 211.903 514.635C212.969 516.832 214.053 519.03 215.343 521.056C217.181 523.91 218.188 527.151 219.723 530.212C221.179 533.146 222.906 535.92 224.536 538.747C225.412 540.681 226.374 542.589 227.183 544.549C228.455 547.543 229.313 550.683 230.587 553.639L237.872 550.222C236.752 547.215 236.826 544.054 236.07 542.724C233.564 538.2 231.409 533.443 228.98 528.885L228.999 528.886Z" fill="#F086A9"/>
<path d="M204.358 532.273C204.112 531.731 202.939 529.615 201.231 526.586C199.504 523.555 197.321 519.557 194.819 515.433C192.346 511.281 189.721 506.887 187.2 503.018C184.718 499.113 182.477 495.626 180.78 493.3C179.735 491.302 178.235 488.537 176.52 485.46C174.765 482.419 172.745 479.092 170.798 475.863C168.88 472.607 166.828 469.64 165.204 467.136C163.542 464.65 162.239 462.69 161.477 461.768C160.925 461.034 157.362 456.575 152.775 451.069C150.437 448.367 147.863 445.389 145.307 442.432C142.69 439.567 140.091 436.721 137.794 434.201L131.624 439.494C134.205 442.32 136.933 445.008 139.413 447.963C140.901 449.806 142.555 451.513 144.071 453.348C145.568 455.182 147.33 456.808 148.464 458.96C148.819 459.62 149.426 460.118 149.918 460.688C150.654 461.543 151.44 462.371 152.156 463.263L153.226 464.596L154.138 466.075C154.532 466.718 154.846 467.433 155.347 467.993C158.21 471.143 160.594 474.864 162.783 478.729C164.903 482.658 166.907 486.659 169.123 490.316C175.206 500.639 182.322 510.318 188.166 520.936C189.435 523.036 190.878 525.049 191.757 527.381C192.024 528.104 192.562 528.704 192.992 529.367C193.629 530.351 194.286 531.317 194.893 532.328L195.794 533.854L196.5 535.506C196.805 536.23 197.003 537.017 197.434 537.66C198.847 539.719 199.679 542.06 200.752 544.286C201.855 546.504 202.696 548.854 203.75 551.099C205.718 555.26 207.223 559.631 209.018 563.861L216.381 560.409C214.371 555.335 211.822 549.204 209.615 543.837C207.348 538.525 205.344 534.049 204.384 532.34L204.358 532.273Z" fill="#F086A9"/>
<path d="M218.097 563.212C220.053 566.194 220.772 568.768 222.283 571.98C223.161 573.857 223.922 575.805 225.177 577.516C225.53 577.995 225.648 578.636 225.796 579.231C226.083 580.41 225.682 581.44 224.804 582.29C224.35 582.729 223.814 583.097 223.278 583.447C222.654 583.861 221.326 583.81 220.735 583.369C219.128 582.167 217.891 580.714 217.262 578.789C216.897 577.645 216.428 576.506 215.89 575.431C214.814 573.261 213.67 571.118 212.556 568.966C211.591 567.133 209.939 565.607 208.925 563.801L216.287 560.349C216.668 561.076 217.62 562.519 218.059 563.21L218.097 563.212Z" fill="#F086A9"/>
<path d="M239.765 555.369C240.152 556.676 240.725 559.092 241.498 560.224C243.514 563.171 243.057 564.929 244.483 568.129C244.79 568.796 244.826 569.586 244.93 570.331C245.019 570.981 244.806 571.6 244.406 572.116C244.007 572.614 243.552 573.071 243.071 573.481C242.227 574.189 241.093 574.27 240.221 573.723C239.377 573.187 238.514 572.65 237.72 572.05C237.341 571.76 237.036 571.311 236.824 570.885C236.603 570.449 236.489 569.951 236.384 569.462C235.685 566.395 235.512 564.707 233.895 562.032C233.646 561.604 232.759 559.955 232.567 559.492C231.831 557.63 231.275 555.547 230.557 553.686L237.862 550.251C238.38 551.601 239.363 553.967 239.765 555.369Z" fill="#F086A9"/>
<path d="M262.826 547.627L266.347 555.419C266.742 556.261 266.918 557.123 267.007 558.029C267.091 558.811 267.115 559.667 266.635 560.276C265.936 561.161 265.117 561.975 264.143 562.584C263.949 562.709 263.636 562.688 263.399 562.669C262.613 562.611 261.9 562.374 261.262 561.903C259.837 560.899 258.95 559.525 258.326 557.943L256.442 553.32C255.636 551.303 255.637 550.277 254.956 548.218C254.513 546.89 253.92 544.254 253.313 543.005L259.804 539.958C261.098 542.383 261.783 545.097 262.845 547.627L262.826 547.627Z" fill="#F086A9"/>
<path d="M282.262 533.798C282.902 534.962 283.171 536.122 283.878 537.261C285.889 540.559 286.604 543.721 288.237 547.223C289.213 549.265 289.996 551.395 291.292 553.269C291.652 553.796 291.806 554.495 291.971 555.128C292.303 556.395 291.928 557.493 291.058 558.371C290.614 558.82 290.086 559.199 289.54 559.558C288.907 559.98 287.571 559.881 286.953 559.392C285.285 558.045 283.978 556.456 283.308 554.35C282.919 553.1 282.415 551.864 281.833 550.683C280.68 548.311 279.439 545.983 278.246 543.629C276.835 540.801 276.927 540.643 275.176 537.982C274.871 537.514 273.286 534.242 273.021 533.738L280.403 530.268C280.909 531.171 281.717 532.893 282.234 533.806L282.262 533.798Z" fill="#F086A9"/>
<path d="M303.252 529.767C303.654 531.188 304.263 532.637 305.081 533.856C307.209 537.082 308.457 540.702 309.919 544.198C310.233 544.932 310.305 545.78 310.417 546.573C310.524 547.261 310.337 547.928 309.936 548.464C309.556 548.981 309.1 549.458 308.628 549.877C307.793 550.595 306.651 550.647 305.743 550.042C304.863 549.448 303.974 548.843 303.164 548.166C302.768 547.838 302.464 547.351 302.245 546.877C302.006 546.402 301.885 545.856 301.772 545.339C301.006 542.022 299.584 538.965 297.872 536.031C297.605 535.564 297.28 535.115 297.091 534.613C295.807 531.173 294.263 527.826 293.037 524.368L300.622 520.802C301.694 523.085 302.327 524.896 302.5 525.358C303.423 527.778 302.55 527.27 303.271 529.768L303.252 529.767Z" fill="#F086A9"/>
<path d="M1432.71 789.771C1433.52 787.175 1432.72 784.581 1432.15 782.029C1431.11 777.336 1429.81 772.692 1428.95 767.963C1427.73 761.282 1426.72 747.043 1425.63 733.871C1425.42 724.141 1425.27 714.334 1426.51 704.666C1427.83 696.292 1430.54 688.241 1432.8 680.085C1435.46 671.391 1437.14 662.38 1440.45 653.904C1440.5 653.797 1440.54 653.72 1440.59 653.592C1445.04 644.019 1451.56 635.651 1457.95 627.319C1458.31 626.93 1460.81 623.928 1462.02 622.455L1463.14 621.068C1466.48 617.195 1470 613.477 1473.51 609.76C1475 608.23 1476.66 606.842 1477.25 604.699C1478.22 601.19 1475.79 597.17 1472.09 596.822C1469.34 596.282 1466.77 598.138 1464.44 599.379C1460.19 602.015 1455.97 604.73 1451.75 607.43C1435.24 618.004 1418.75 628.656 1402.81 640.085C1383.22 653.853 1363.92 668.794 1341.38 677.447C1335.73 679.788 1309.41 688.27 1296.69 690.721C1289.24 692.719 1291.82 703.845 1299.5 702.207C1319.34 698.367 1339.07 693.148 1357.77 685.413C1373 678.666 1387.02 669.588 1400.53 659.923C1410.95 652.773 1421.03 645.652 1430.83 638.701C1429.08 641.411 1427.44 644.179 1425.96 647.052C1421.1 657.439 1418.64 668.714 1415.16 679.594C1404.67 707.548 1407.25 737.773 1409.94 766.887C1410.64 772.564 1411.8 778.17 1413.12 783.74C1414.02 788.031 1414.39 793.115 1418.72 795.435C1423.9 798.623 1431.15 795.664 1432.72 789.793L1432.71 789.771Z" fill="#A78BFA"/>
<path d="M1466.66 607.281C1455.58 614.595 1442.04 616.729 1429.08 618.105C1388.4 622.415 1351.55 609.288 1321.74 581.189C1320.62 580.137 1319.49 579.021 1318.98 577.579C1314.3 564.455 1381.99 545.858 1392.28 543.722C1403.81 541.322 1416.28 543.602 1427.65 545.975C1444.94 549.578 1466.97 561.085 1477.68 575.325C1488.69 589.974 1479.68 598.628 1466.67 607.288L1466.66 607.281Z" fill="#A78BFA"/>
<path d="M1537.98 720.505C1535.94 721.731 1534.45 720.503 1532.61 715.563C1528.75 705.203 1516.03 700.469 1507.2 695.306C1478.07 678.265 1447.13 655.662 1459.42 617.658C1462.93 606.445 1469.61 596.43 1475.83 586.543C1475.99 586.323 1476.16 586.139 1476.36 585.983C1476.37 582.964 1480.86 582.003 1482.03 584.928C1483.67 590.986 1485.88 596.456 1490.3 600.932C1499.05 609.292 1508.07 610.714 1518.81 615.181C1548.18 627.421 1564.14 677.305 1549.37 705.385C1547.43 709.071 1545.04 712.801 1542.39 716.009C1540.59 718.182 1539.19 719.761 1537.98 720.491L1537.98 720.505Z" fill="#A78BFA"/>
<path d="M1470.24 585.999C1470.43 585.044 1469.45 584.162 1468.51 584.417C1460.39 585.964 1451.52 586.04 1442.37 586.28C1431.85 586.38 1421.41 584.84 1411 583.512C1395.16 581.279 1374.9 578.134 1358.72 571.023C1356.57 570.333 1353.97 568.201 1351.8 568.424C1349.75 568.865 1349.28 571.878 1351.15 572.894C1359.69 578.001 1369.34 580.553 1378.94 582.83C1388.18 585.023 1397.55 586.671 1406.98 587.739C1423.28 589.603 1439.72 590.993 1456.08 588.982C1460.47 588.601 1464.92 588.291 1469.2 587.174C1469.74 587.039 1470.21 586.558 1470.26 585.999L1470.24 585.999Z" fill="#F5D0FE"/>
<path d="M1375.46 578.535C1370.97 580.218 1364.44 583.367 1358.64 584.217C1357.89 584.338 1356.91 584.177 1356.2 584.899C1354.88 586.103 1355.83 588.506 1357.62 588.482C1361.63 588.533 1365.26 586.562 1368.89 585.079C1371.74 583.731 1374.96 582.8 1377.52 580.993C1378.68 579.697 1376.95 577.663 1375.46 578.549L1375.46 578.535Z" fill="#F5D0FE"/>
<path d="M1402.87 584.612C1402.81 583.368 1401.27 582.592 1400.21 583.216C1396.64 585.406 1392.75 586.996 1388.75 588.218C1386.88 589.02 1383.77 588.946 1382.55 590.596C1381.79 591.827 1382.5 593.551 1383.89 593.924C1385.07 594.219 1386.2 593.482 1387.31 593.205C1392.43 591.529 1397.48 589.464 1401.95 586.409C1402.57 586.069 1403 585.326 1402.87 584.612Z" fill="#F5D0FE"/>
<path d="M1422.4 588.331C1422.89 587.871 1423.09 587.086 1422.8 586.464C1422.43 585.326 1420.81 584.996 1419.99 585.846C1415.59 591.41 1408.71 594.029 1403.06 597.955C1402.36 598.734 1402.49 599.999 1403.19 600.741C1404.36 601.984 1405.93 601.112 1407.11 600.382C1408.52 599.545 1409.95 598.737 1411.34 597.865C1415.42 595.193 1419.5 592.317 1422.4 588.331Z" fill="#F5D0FE"/>
<path d="M1444.13 589.904C1446.12 587.964 1443.18 584.928 1441.17 586.847C1438.17 590.175 1434.66 592.768 1432.15 594.511C1431.44 594.901 1430.95 595.757 1431.1 596.57C1431.16 597.596 1432.12 598.4 1433.13 598.42C1434.23 598.44 1434.99 597.491 1435.88 596.981C1438.81 594.834 1441.69 592.595 1444.14 589.897L1444.13 589.904Z" fill="#F5D0FE"/>
<path d="M1443.77 586.504C1439.19 582.481 1435.41 577.423 1430.37 573.98C1427.72 572.669 1425.16 576.434 1427.27 578.475C1430.07 582.027 1433.46 585.056 1436.78 588.12C1438.33 589.256 1439.55 591.326 1441.6 591.464C1444.12 591.588 1445.57 588.255 1443.75 586.504L1443.77 586.504Z" fill="#F5D0FE"/>
<path d="M1421.1 585.377C1417.98 581.224 1414.95 576.972 1411.42 573.159C1410.44 572.283 1409.6 571.089 1408.38 570.54C1407.01 569.835 1405.27 570.516 1404.5 571.797C1403.18 573.927 1405.07 575.777 1406.55 577.161C1408.25 578.855 1409.85 580.635 1411.38 582.485C1413.1 584.576 1414.83 586.645 1416.5 588.771C1417.02 589.322 1417.77 589.639 1418.52 589.645C1420.66 589.72 1422.17 587.243 1421.1 585.377Z" fill="#F5D0FE"/>
<path d="M1400.53 583.088C1395.2 578.393 1393.99 575.475 1389.08 570.553C1387.44 569.311 1386.17 566.944 1384.09 566.537C1383 566.518 1382.08 567.417 1382.06 568.499C1382.17 569.934 1383.42 570.986 1384.14 572.159C1386.3 575.154 1388.82 577.865 1391.23 580.655C1393.59 582.872 1396.78 585.208 1398.33 586.287C1400.22 587.225 1402.05 584.535 1400.54 583.081L1400.53 583.088Z" fill="#F5D0FE"/>
<path d="M1374.82 577.158C1372.47 575.061 1370.92 572.235 1368.74 569.961C1367.02 568.444 1365.68 566.36 1363.77 565.132C1361.29 563.898 1358.88 567.43 1360.88 569.336C1363.16 571.971 1365.55 574.534 1367.86 577.147C1369.38 578.531 1370.71 580.615 1372.76 581.17C1374.92 581.62 1376.41 578.669 1374.82 577.151L1374.82 577.158Z" fill="#F5D0FE"/>
<path d="M1474.55 870.002C1464.1 884.556 1448.19 894.443 1429.89 899.639C1408.55 905.688 1387.99 906.276 1368.69 894.256C1353.6 884.859 1339.83 872.993 1330.88 857.414C1321.54 841.178 1318.98 822.288 1323.68 804.144C1326.52 793.18 1329.11 781.749 1336.04 772.518C1344.77 760.866 1355.09 753.667 1370.04 753.157C1379.37 752.84 1386.58 756.966 1394.02 762.067C1405.73 770.104 1417.01 782.236 1421.96 795.777C1430.33 789.655 1444.33 783.949 1454.9 785.405C1466.23 786.972 1474.86 797.043 1479.95 806.567C1486.27 818.381 1488.65 832.795 1485.51 845.902C1483.33 854.999 1479.56 863.023 1474.57 869.988L1474.55 870.002Z" fill="#F086A9" stroke="#A78BFA" stroke-width="7" stroke-linejoin="round"/>
<path d="M1467.78 825.436C1466.74 817.9 1462.65 810.361 1456.77 805.59C1449.07 800.368 1439.73 810.345 1445.15 817.832C1448.63 823.562 1446.99 819.591 1449 824.933L1449.03 825.053C1449.14 825.725 1449.33 826.948 1449.4 827.994C1449.22 829.932 1448.62 831.8 1448.29 833.717C1447.54 837.918 1450.36 842.659 1454.57 843.628C1464.88 846.661 1468.55 833.348 1467.77 825.436L1467.78 825.436Z" fill="#FDE68A"/>
<path d="M1279.72 789.217C1262.12 792.616 1243.77 788.888 1226.9 780.102C1207.23 769.856 1191.87 756.154 1186.1 734.171C1181.58 716.981 1179.73 698.896 1183.9 681.424C1188.26 663.203 1199.37 647.715 1215.24 637.757C1224.83 631.733 1234.56 625.206 1245.94 623.245C1260.29 620.777 1272.74 622.626 1283.96 632.516C1290.95 638.686 1293.36 646.637 1295.27 655.459C1298.27 669.349 1298.14 685.91 1292.44 699.155C1302.72 700.441 1316.82 705.915 1323.51 714.228C1330.67 723.148 1330.02 736.386 1327.18 746.813C1323.66 759.744 1315.5 771.855 1304.21 779.225C1296.38 784.342 1288.14 787.592 1279.72 789.217Z" fill="#F086A9" stroke="#A78BFA" stroke-width="7" stroke-linejoin="round"/>
<path d="M1305.4 752.163C1309.81 745.976 1312.01 737.678 1311.01 730.17C1309.01 721.08 1295.36 721.92 1294.15 731.093C1292.74 737.65 1294.28 733.638 1292.07 738.903L1292.01 739.016C1291.64 739.575 1290.93 740.608 1290.27 741.415C1288.81 742.704 1287.08 743.647 1285.54 744.816C1282.11 747.36 1280.9 752.743 1283.31 756.339C1288.72 765.615 1300.53 758.456 1305.4 752.177L1305.4 752.163Z" fill="#FDE68A"/>
<path d="M1270.61 756.088C1265.91 757.29 1269.05 756.72 1263.16 757.669C1258.83 757.675 1254.86 759.965 1255.32 764.801C1255.67 767.699 1258.14 770.015 1260.99 770.223C1261.14 770.237 1261.35 770.265 1261.7 770.293C1265.87 770.859 1270.01 770.556 1274.04 769.377C1284.26 767.594 1280.42 752.68 1270.61 756.102L1270.61 756.088Z" fill="#FDE68A"/>
<path d="M1387.81 304.595C1386.06 308.396 1385.06 317.893 1382.33 320.42C1377 325.354 1373.86 315.19 1372.34 310.427C1370.67 305.193 1370.6 306.517 1365.37 303.942C1363.21 302.874 1357.6 300.045 1357.12 297.552C1356.1 292.283 1361.72 290.71 1367.14 290.601C1369.75 290.549 1371.92 288.614 1372.3 286.034C1372.99 281.366 1374.86 275.988 1379.32 274.288C1386.66 271.494 1385.64 283.589 1387.38 288.156C1388.42 290.884 1390.32 290.723 1392.81 291.12C1396.12 291.647 1406.82 296.001 1400.99 300.298C1399.03 301.736 1396.52 302.578 1394.23 303.275C1393.54 303.484 1387.97 304.242 1387.81 304.595H1387.81Z" fill="#F086A9"/>
<path d="M1427.51 284.673C1425.46 289.131 1424.29 300.271 1421.09 303.239C1414.83 309.031 1411.14 297.103 1409.36 291.515C1407.4 285.375 1407.31 286.93 1401.18 283.906C1398.64 282.655 1392.07 279.334 1391.5 276.405C1390.3 270.225 1396.9 268.377 1403.26 268.251C1406.32 268.19 1408.86 265.919 1409.31 262.89C1410.12 257.412 1412.32 251.101 1417.55 249.114C1426.15 245.832 1424.97 260.027 1427.01 265.383C1428.23 268.582 1430.46 268.395 1433.38 268.861C1437.26 269.48 1449.82 274.588 1442.97 279.63C1440.68 281.321 1437.74 282.306 1435.05 283.126C1434.24 283.37 1427.71 284.263 1427.51 284.677L1427.51 284.673Z" fill="#F086A9"/>
<path d="M1392.19 253.577C1391.13 255.874 1390.53 261.618 1388.88 263.148C1385.65 266.133 1383.75 259.984 1382.84 257.107C1381.82 253.943 1381.78 254.745 1378.62 253.185C1377.31 252.54 1373.92 250.827 1373.63 249.319C1373.01 246.133 1376.41 245.179 1379.68 245.118C1381.26 245.087 1382.57 243.915 1382.8 242.355C1383.22 239.53 1384.36 236.279 1387.05 235.251C1391.49 233.56 1390.88 240.877 1391.93 243.636C1392.55 245.288 1393.7 245.188 1395.21 245.427C1397.21 245.745 1403.68 248.378 1400.16 250.98C1398.97 251.851 1397.46 252.357 1396.07 252.78C1395.65 252.906 1392.28 253.364 1392.19 253.582V253.577Z" fill="#F086A9"/>
</g>
<defs>
<linearGradient id="paint0_linear_173_30174" x1="720" y1="0" x2="720" y2="1080" gradientUnits="userSpaceOnUse">
<stop offset="0.55" stop-color="#FFB7DE"/>
<stop offset="1" stop-color="#FFBF85"/>
</linearGradient>
<clipPath id="clip0_173_30174">
<rect width="1440" height="1080" fill="white"/>
</clipPath>
</defs>
</svg>
