<svg width="1024" height="1942" viewBox="0 0 1024 1942" fill="none" xmlns="http://www.w3.org/2000/svg">
<g clip-path="url(#clip0_437_1324)">
<rect y="0.267578" width="1024" height="1941.5" fill="url(#paint0_linear_437_1324)"/>
<path d="M971.127 1259.77C971.039 1259.88 970.959 1259.99 970.871 1260.09C972.312 1258.34 972.032 1258.69 971.127 1259.77Z" fill="#A78BFA"/>
<path d="M937.873 1449.6C938.791 1446.65 937.88 1443.71 937.242 1440.81C936.063 1435.49 934.587 1430.22 933.609 1424.85C932.226 1417.27 931.079 1401.12 929.846 1386.18C929.605 1375.14 929.436 1364.01 930.84 1353.04C932.335 1343.54 935.418 1334.41 937.979 1325.16C940.989 1315.29 942.9 1305.07 946.656 1295.45C946.712 1295.33 946.752 1295.24 946.816 1295.1C951.862 1284.24 959.261 1274.75 966.507 1265.29C966.915 1264.85 969.75 1261.45 971.127 1259.77L972.393 1258.2C976.181 1253.81 980.178 1249.59 984.158 1245.37C985.857 1243.64 987.731 1242.06 988.41 1239.63C989.511 1235.65 986.753 1231.09 982.549 1230.69C979.427 1230.08 976.51 1232.19 973.873 1233.59C969.048 1236.59 964.263 1239.67 959.478 1242.73C940.74 1254.73 922.042 1266.81 903.955 1279.78C881.733 1295.4 859.833 1312.35 834.265 1322.16C827.851 1324.82 797.99 1334.44 783.555 1337.22C775.111 1339.49 778.033 1352.11 786.743 1350.25C809.254 1345.9 831.643 1339.98 852.857 1331.2C870.134 1323.55 886.043 1313.25 901.365 1302.28C913.186 1294.17 924.621 1286.09 935.737 1278.21C933.76 1281.28 931.895 1284.42 930.215 1287.68C924.697 1299.46 921.908 1312.26 917.963 1324.6C906.065 1356.31 908.995 1390.6 912.043 1423.63C912.831 1430.07 914.148 1436.43 915.649 1442.75C916.675 1447.62 917.093 1453.39 921.998 1456.02C927.876 1459.64 936.109 1456.28 937.881 1449.62L937.873 1449.6Z" fill="#A78BFA"/>
<path d="M976.387 1242.56C963.82 1250.86 948.462 1253.28 933.751 1254.84C887.607 1259.73 845.79 1244.84 811.97 1212.96C810.709 1211.77 809.423 1210.5 808.843 1208.86C803.535 1193.97 880.324 1172.88 892.001 1170.45C905.081 1167.73 919.228 1170.32 932.131 1173.01C951.751 1177.1 976.735 1190.15 988.889 1206.31C1001.38 1222.93 991.157 1232.74 976.395 1242.57L976.387 1242.56Z" fill="#A78BFA"/>
<path d="M1057.31 1371.01C1055 1372.4 1053.31 1371.01 1051.22 1365.4C1046.84 1353.65 1032.41 1348.28 1022.39 1342.42C989.342 1323.09 954.24 1297.44 968.183 1254.33C972.168 1241.61 979.748 1230.24 986.799 1219.03C986.983 1218.78 987.176 1218.57 987.4 1218.39C987.419 1214.97 992.512 1213.88 993.832 1217.2C995.695 1224.07 998.207 1230.27 1003.22 1235.35C1013.15 1244.84 1023.38 1246.45 1035.57 1251.52C1068.89 1265.4 1086.99 1322 1070.23 1353.85C1068.03 1358.04 1065.32 1362.27 1062.32 1365.91C1060.28 1368.37 1058.68 1370.16 1057.31 1370.99L1057.31 1371.01Z" fill="#A78BFA"/>
<path d="M980.459 1218.41C980.674 1217.33 979.558 1216.33 978.499 1216.62C969.285 1218.37 959.217 1218.46 948.837 1218.73C936.9 1218.85 925.057 1217.1 913.246 1215.59C895.281 1213.06 872.293 1209.49 853.935 1201.42C851.495 1200.64 848.555 1198.22 846.093 1198.47C843.767 1198.98 843.226 1202.39 845.346 1203.55C855.045 1209.34 865.983 1212.24 876.881 1214.82C887.362 1217.31 897.994 1219.18 908.689 1220.39C927.183 1222.5 945.828 1224.08 964.396 1221.8C969.377 1221.37 974.423 1221.01 979.274 1219.75C979.891 1219.59 980.42 1219.05 980.475 1218.41L980.459 1218.41Z" fill="#F5D0FE"/>
<path d="M872.908 1209.95C867.817 1211.86 860.41 1215.43 853.825 1216.39C852.983 1216.53 851.868 1216.35 851.067 1217.17C849.561 1218.53 850.64 1221.26 852.669 1221.23C857.226 1221.29 861.346 1219.05 865.458 1217.37C868.697 1215.84 872.345 1214.78 875.254 1212.73C876.56 1211.26 874.599 1208.96 872.908 1209.96L872.908 1209.95Z" fill="#F5D0FE"/>
<path d="M904.007 1216.84C903.94 1215.43 902.19 1214.55 900.988 1215.25C896.941 1217.74 892.531 1219.54 887.993 1220.93C885.868 1221.84 882.347 1221.75 880.962 1223.62C880.097 1225.02 880.902 1226.98 882.483 1227.4C883.815 1227.74 885.098 1226.9 886.357 1226.59C892.162 1224.68 897.894 1222.34 902.967 1218.88C903.672 1218.49 904.16 1217.65 904.007 1216.84Z" fill="#F5D0FE"/>
<path d="M926.177 1221.06C926.729 1220.54 926.961 1219.64 926.623 1218.94C926.212 1217.65 924.374 1217.27 923.445 1218.24C918.449 1224.55 910.648 1227.52 904.237 1231.98C903.436 1232.86 903.59 1234.29 904.386 1235.14C905.703 1236.55 907.491 1235.56 908.829 1234.73C910.432 1233.78 912.051 1232.86 913.63 1231.87C918.254 1228.84 922.886 1225.58 926.177 1221.06Z" fill="#F5D0FE"/>
<path d="M950.842 1222.84C953.101 1220.64 949.759 1217.2 947.476 1219.37C944.08 1223.15 940.09 1226.09 937.253 1228.07C936.443 1228.51 935.891 1229.48 936.061 1230.4C936.119 1231.57 937.211 1232.48 938.358 1232.5C939.602 1232.52 940.467 1231.45 941.477 1230.87C944.802 1228.43 948.071 1225.89 950.85 1222.83L950.842 1222.84Z" fill="#F5D0FE"/>
<path d="M950.424 1218.98C945.236 1214.42 940.943 1208.68 935.226 1204.77C932.224 1203.29 929.31 1207.56 931.712 1209.87C934.887 1213.9 938.734 1217.34 942.493 1220.82C944.252 1222.1 945.643 1224.45 947.97 1224.61C950.826 1224.75 952.465 1220.97 950.408 1218.98L950.424 1218.98Z" fill="#F5D0FE"/>
<path d="M924.706 1217.71C921.17 1213 917.729 1208.17 913.728 1203.85C912.62 1202.85 911.663 1201.5 910.283 1200.87C908.725 1200.07 906.753 1200.85 905.881 1202.3C904.384 1204.72 906.521 1206.82 908.208 1208.39C910.136 1210.31 911.952 1212.33 913.688 1214.43C915.632 1216.8 917.601 1219.15 919.49 1221.56C920.084 1222.18 920.927 1222.54 921.786 1222.55C924.216 1222.63 925.929 1219.82 924.706 1217.71Z" fill="#F5D0FE"/>
<path d="M901.368 1215.11C895.32 1209.79 893.943 1206.47 888.376 1200.89C886.513 1199.48 885.073 1196.8 882.714 1196.33C881.487 1196.31 880.437 1197.33 880.415 1198.56C880.538 1200.19 881.959 1201.38 882.779 1202.71C885.223 1206.11 888.083 1209.19 890.823 1212.35C893.49 1214.87 897.112 1217.52 898.871 1218.74C901.014 1219.8 903.095 1216.75 901.376 1215.1L901.368 1215.11Z" fill="#F5D0FE"/>
<path d="M872.195 1208.38C869.521 1206.01 867.767 1202.8 865.293 1200.22C863.341 1198.5 861.821 1196.13 859.653 1194.74C856.836 1193.34 854.106 1197.35 856.371 1199.51C858.967 1202.5 861.674 1205.41 864.294 1208.37C866.013 1209.94 867.532 1212.31 869.852 1212.94C872.307 1213.45 873.995 1210.1 872.187 1208.38L872.195 1208.38Z" fill="#F5D0FE"/>
<path d="M1034.93 1303.22C1022.98 1292.59 1015.27 1287.23 1005.16 1275.42C996.048 1266.97 989.669 1255.59 990.597 1242.76C990.585 1239.65 991.214 1236.53 991.274 1233.48C990.935 1232.09 988.753 1232.03 988.329 1233.41C983.878 1250.64 986.757 1266.27 1000.21 1278.54C1008.1 1287.8 1014.74 1293.73 1023.24 1300.94C1029.73 1306 1033.05 1309.2 1038.23 1315.99C1041.47 1320.36 1044.33 1324.14 1045.67 1328.14C1046.18 1329.58 1046.05 1331.26 1046.84 1332.58C1047.58 1333.99 1049.48 1334.45 1050.9 1333.82C1058.62 1329.25 1039.06 1307.44 1034.94 1303.23L1034.93 1303.22Z" fill="#F5D0FE"/>
<path d="M986.553 1280.78C986.929 1279.64 986.421 1278.47 986.428 1277.3C986.265 1275.54 986.798 1272.4 987.204 1270.19C987.36 1267.84 989.951 1262.25 990.247 1261.74C990.671 1260.82 991.48 1259.94 991.254 1258.85C990.986 1256.92 988.242 1256.3 987.17 1257.94C983.504 1263.8 980.65 1270.63 981.166 1277.66C981.345 1279.43 981.317 1282.06 983.531 1282.43C984.783 1282.78 986.114 1281.96 986.545 1280.77L986.553 1280.78Z" fill="#F5D0FE"/>
<path d="M1004.46 1294.2C1002.96 1289.09 1003.21 1284.96 1003.85 1279.63C1003.93 1278.17 1004.75 1276.66 1004.27 1275.23C1003.43 1271.85 998.077 1272.46 997.913 1275.91C996.615 1282.61 995.832 1290.07 998.32 1296.55C1000.05 1299.7 1005.21 1297.71 1004.48 1294.2L1004.46 1294.2Z" fill="#F5D0FE"/>
<path d="M1020.29 1307.04C1019.72 1304.12 1019.37 1301.17 1019.11 1298.21C1018.95 1295.61 1018.95 1295.83 1018.88 1293.56C1018.92 1292.97 1018.74 1292.35 1018.36 1291.89C1017.14 1290.31 1014.37 1291.17 1014.27 1293.17C1014.42 1297.64 1014.79 1302.11 1015.6 1306.52C1015.9 1308.62 1016.38 1311.83 1019.28 1310.75C1020.79 1310.1 1020.72 1308.38 1020.3 1307.03L1020.29 1307.04Z" fill="#F5D0FE"/>
<path d="M1036.09 1322.03C1035.87 1319.94 1035.87 1318.14 1035.97 1315.92C1036.11 1313.56 1036.42 1311.23 1036.67 1308.89C1036.72 1308.32 1036.54 1307.76 1036.19 1307.33C1035.05 1305.84 1032.46 1306.65 1032.35 1308.52C1031.7 1313.24 1031.17 1318 1031.64 1322.76C1031.67 1324.07 1031.98 1325.75 1033.53 1325.98C1035.95 1326.46 1036.63 1323.92 1036.09 1322.03Z" fill="#F5D0FE"/>
<path d="M1010.53 1260.93C1005.62 1257.41 999.674 1257.6 993.923 1257.97C992.319 1258.22 990.192 1257.62 989.104 1259.09C988.111 1260.46 989.069 1262.55 990.761 1262.65C995.149 1262.72 1000.18 1262.48 1004.09 1263.44C1007 1264.11 1007.73 1265.53 1009.79 1265.41C1011.96 1265.11 1012.52 1261.9 1010.53 1260.93Z" fill="#F5D0FE"/>
<path d="M1024.97 1274.26C1023.75 1273.4 1022.32 1273.58 1020.98 1274C1018.47 1274.59 1015.95 1275.06 1013.4 1275.43C1009.83 1276.11 1005.69 1275.53 1002.51 1277.47C1000.68 1278.78 1001.85 1281.81 1004.13 1280.91C1004.85 1280.62 1008.66 1281.2 1010.99 1281.41C1014.6 1281.58 1018.22 1281.23 1021.8 1280.83C1025.78 1281 1028.27 1277.07 1024.98 1274.26L1024.97 1274.26Z" fill="#F5D0FE"/>
<path d="M1042.75 1289.49C1043.26 1287.71 1041.45 1285.87 1039.64 1286.23C1036.91 1286.98 1034.16 1287.61 1031.44 1288.39C1026.45 1289.92 1021.03 1289.14 1016.05 1290.26C1014.54 1291.09 1015.15 1293.61 1016.87 1293.68C1024.35 1293.99 1031.89 1294.35 1039.11 1291.98C1040.57 1291.62 1042.51 1291.27 1042.75 1289.47L1042.75 1289.49Z" fill="#F5D0FE"/>
<path d="M985.34 1540.62C973.475 1557.13 955.434 1568.34 934.673 1574.24C910.464 1581.1 887.129 1581.77 865.24 1568.13C848.121 1557.47 832.499 1544.01 822.341 1526.34C811.741 1507.92 808.837 1486.48 814.174 1465.9C817.397 1453.46 820.33 1440.49 828.192 1430.02C838.105 1416.8 849.805 1408.63 866.771 1408.06C877.352 1407.7 885.533 1412.38 893.973 1418.16C907.263 1427.28 920.054 1441.05 925.676 1456.41C935.164 1449.46 951.055 1442.99 963.042 1444.64C975.896 1446.42 985.684 1457.84 991.459 1468.65C998.635 1482.05 1001.33 1498.4 997.766 1513.28C995.294 1523.6 991.024 1532.7 985.356 1540.6L985.34 1540.62Z" fill="#F086A9" stroke="#A78BFA" stroke-width="7.94154" stroke-linejoin="round"/>
<path d="M977.656 1490.06C976.472 1481.51 971.831 1472.95 965.165 1467.54C956.428 1461.62 945.831 1472.93 951.973 1481.43C955.921 1487.93 954.069 1483.42 956.34 1489.49L956.381 1489.62C956.502 1490.38 956.721 1491.77 956.803 1492.96C956.597 1495.16 955.911 1497.28 955.537 1499.45C954.693 1504.22 957.886 1509.59 962.669 1510.69C974.362 1514.13 978.527 1499.03 977.64 1490.06L977.656 1490.06Z" fill="#FDE68A"/>
<path d="M764.315 1448.96C744.353 1452.82 723.53 1448.59 704.39 1438.62C682.08 1427 664.657 1411.45 658.107 1386.51C652.976 1367.01 650.876 1346.49 655.612 1326.67C660.556 1306 673.157 1288.43 691.166 1277.13C702.05 1270.3 713.086 1262.89 725.99 1260.67C742.271 1257.87 756.393 1259.96 769.125 1271.19C777.061 1278.18 779.793 1287.21 781.958 1297.21C785.358 1312.97 785.209 1331.76 778.75 1346.79C790.416 1348.25 806.413 1354.46 813.992 1363.89C822.117 1374.01 821.385 1389.03 818.161 1400.86C814.172 1415.53 804.91 1429.27 792.103 1437.63C783.223 1443.43 773.874 1447.12 764.315 1448.96Z" fill="#F086A9" stroke="#A78BFA" stroke-width="7.94154" stroke-linejoin="round"/>
<path d="M793.433 1406.93C798.444 1399.91 800.941 1390.49 799.806 1381.98C797.528 1371.66 782.047 1372.62 780.675 1383.02C779.073 1390.46 780.823 1385.91 778.313 1391.88L778.249 1392.01C777.825 1392.65 777.024 1393.82 776.272 1394.73C774.621 1396.2 772.657 1397.27 770.903 1398.59C767.016 1401.48 765.637 1407.58 768.379 1411.66C774.515 1422.19 787.916 1414.07 793.433 1406.94L793.433 1406.93Z" fill="#FDE68A"/>
<path d="M753.974 1411.38C748.641 1412.74 752.202 1412.1 745.521 1413.17C740.612 1413.18 736.099 1415.78 736.621 1421.26C737.027 1424.55 739.822 1427.18 743.063 1427.41C743.224 1427.43 743.464 1427.46 743.866 1427.49C748.591 1428.14 753.292 1427.79 757.862 1426.45C769.459 1424.43 765.102 1407.51 753.974 1411.39L753.974 1411.38Z" fill="#FDE68A"/>
</g>
<defs>
<linearGradient id="paint0_linear_437_1324" x1="512" y1="0.267578" x2="512" y2="1941.77" gradientUnits="userSpaceOnUse">
<stop offset="0.55" stop-color="#FFB7DE"/>
<stop offset="1" stop-color="#FFBF85"/>
</linearGradient>
<clipPath id="clip0_437_1324">
<rect width="1024" height="1941.5" fill="white" transform="translate(0 0.267578)"/>
</clipPath>
</defs>
</svg>
