<svg width="1024" height="1942" viewBox="0 0 1024 1942" fill="none" xmlns="http://www.w3.org/2000/svg">
<g clip-path="url(#clip0_437_2107)">
<rect width="1024" height="1941.5" fill="url(#paint0_radial_437_2107)"/>
<path d="M931.61 1454.58C926.56 1461.5 920.73 1480.14 914.236 1484.11C901.542 1491.86 899.352 1470.2 898.234 1460.03C897 1448.86 896.316 1451.48 886.865 1444.2C882.96 1441.19 872.859 1433.25 872.896 1428.05C872.979 1417.07 884.892 1416.19 895.804 1418.16C901.062 1419.11 906.189 1416.1 907.992 1411.08C911.267 1401.99 917.199 1391.96 926.821 1390.35C942.673 1387.71 935.75 1411.56 937.393 1421.43C938.372 1427.32 942.258 1427.77 947.081 1429.57C953.513 1431.96 973.218 1445.02 959.784 1451.28C955.278 1453.38 949.91 1454.05 945.021 1454.52C943.564 1454.67 932.085 1453.94 931.619 1454.58L931.61 1454.58Z" fill="#F472B6"/>
<path d="M1019.31 1430.65C1013.39 1438.77 1006.54 1460.64 998.919 1465.3C984.025 1474.4 981.455 1448.98 980.136 1437.05C978.691 1423.94 977.879 1427.03 966.8 1418.48C962.217 1414.95 950.365 1405.63 950.412 1399.52C950.504 1386.64 964.487 1385.6 977.285 1387.91C983.448 1389.03 989.471 1385.5 991.595 1379.61C995.434 1368.94 1002.4 1357.17 1013.68 1355.3C1032.28 1352.19 1024.16 1380.19 1026.09 1391.76C1027.25 1398.67 1031.79 1399.19 1037.46 1401.31C1045 1404.12 1068.13 1419.43 1052.36 1426.79C1047.08 1429.25 1040.78 1430.04 1035.05 1430.59C1033.34 1430.76 1019.87 1429.91 1019.31 1430.67L1019.31 1430.65Z" fill="#F472B6"/>
<path d="M961.016 1354C957.964 1358.18 954.437 1369.46 950.505 1371.87C942.83 1376.55 941.502 1363.45 940.828 1357.31C940.078 1350.55 939.666 1352.14 933.949 1347.73C931.587 1345.91 925.477 1341.11 925.5 1337.96C925.545 1331.32 932.751 1330.78 939.35 1331.98C942.527 1332.56 945.632 1330.74 946.726 1327.7C948.706 1322.2 952.293 1316.14 958.111 1315.16C967.695 1313.56 963.515 1328 964.507 1333.96C965.099 1337.52 967.447 1337.79 970.367 1338.87C974.251 1340.32 986.171 1348.22 978.047 1352.01C975.326 1353.28 972.079 1353.68 969.119 1353.97C968.238 1354.06 961.295 1353.61 961.014 1354.01L961.016 1354Z" fill="#F472B6"/>
</g>
<defs>
<radialGradient id="paint0_radial_437_2107" cx="0" cy="0" r="1" gradientUnits="userSpaceOnUse" gradientTransform="translate(48.7997 -1134.34) rotate(81.2919) scale(2878.02 1878.46)">
<stop stop-color="#F472B6"/>
<stop offset="1" stop-color="#FFBF85"/>
</radialGradient>
<clipPath id="clip0_437_2107">
<rect width="1024" height="1941.5" fill="white"/>
</clipPath>
</defs>
</svg>
