<svg width="1440" height="1080" viewBox="0 0 1440 1080" fill="none" xmlns="http://www.w3.org/2000/svg">
<g clip-path="url(#clip0_191_2425)">
<rect width="1440" height="1080" fill="white"/>
<g clip-path="url(#clip1_191_2425)">
<rect x="-240" width="1920" height="1080" fill="url(#paint0_radial_191_2425)"/>
<path d="M-23.6992 342.049C-25.1808 341.042 -26.6621 340.035 -28.1528 339.018L-30.3841 337.498L-32.7042 336.06C-35.8233 334.154 -38.9425 332.248 -42.0617 330.343C-45.2702 328.538 -48.5597 326.863 -51.831 325.208C-55.072 323.507 -58.4863 322.113 -61.8838 320.776L-67.9893 317.958C-70.055 317.071 -72.1712 316.268 -74.2672 315.427L-80.5655 312.934C-82.672 312.122 -84.8596 311.439 -87.007 310.701C-90.9091 309.393 -94.7709 308.028 -98.7985 307.019L-104.789 305.412L-107.789 304.622L-110.843 303.973C-114.67 303.199 -118.536 302.662 -122.396 302.248C-126.288 301.918 -130.15 301.542 -133.977 300.768C-134.712 300.607 -135.457 300.455 -136.198 300.445L-144.364 300.341L-148.431 300.356C-149.783 300.437 -151.146 300.528 -152.489 300.638C-154.92 300.839 -157.321 301.032 -159.756 301.091C-161.78 301.099 -163.626 301.18 -165.431 301.168L-164.963 309.537L-164.155 309.52C-159.28 309.251 -154.434 308.99 -149.597 308.72C-146.181 308.575 -142.767 308.744 -139.329 308.524C-137.368 308.41 -135.289 308.461 -133.409 308.989C-130.944 309.616 -128.45 309.977 -125.953 310.263C-124.714 310.415 -123.454 310.511 -122.206 310.673C-120.969 310.862 -119.731 311.052 -118.495 311.261C-118.07 311.344 -117.633 311.342 -117.187 311.35C-115.231 311.368 -112.83 311.707 -110.425 312.15C-108.03 312.622 -105.673 313.349 -103.744 313.851C-86.138 318.516 -69.3368 325.848 -53.8184 334.424C-42.9263 340.257 -32.9308 347.177 -22.9204 353.954C-20.4898 355.729 -18.0298 357.477 -15.5597 359.215L-11.8399 361.809L-7.51082 365.119C-2.36562 369.193 1.62504 373.64 5.55421 378.456C8.93527 382.699 12.0752 387.038 15.1648 391.204L21.8749 386.178C18.8312 381.311 15.2236 376.784 11.3306 372.264C10.0008 370.769 8.68996 369.275 7.28357 367.796C5.84907 366.306 4.44255 364.827 2.94056 363.363C1.40061 361.898 -0.111067 360.444 -1.70866 358.995L-4.18166 356.839L-5.42361 355.775C-5.83778 355.426 -6.2785 355.029 -6.60217 354.798C-12.2017 350.432 -17.6831 345.956 -23.681 342.068L-23.6992 342.049Z" fill="white"/>
<path d="M-35.7224 361.016C-38.041 359.54 -40.3285 357.998 -42.7295 356.69C-44.5022 355.843 -46.1756 354.886 -47.8068 353.816C-50.9033 351.817 -53.9901 349.808 -57.3282 348.16L-62.2863 345.651C-63.9557 344.837 -65.5857 343.986 -67.327 343.311C-70.3596 341.874 -73.393 340.456 -76.3954 338.973C-93.6038 330.865 -112.831 325.102 -132.195 323.656L-136.456 323.303C-137.879 323.229 -139.305 323.251 -140.722 323.301C-142.749 323.385 -144.724 323.347 -146.731 323.175L-148.91 322.996L-151.094 322.97L-155.464 322.973C-158.382 323.004 -161.291 323.063 -164.192 323.389L-163.745 331.539C-161.005 331.197 -158.246 331.094 -155.486 330.991C-153.726 330.916 -151.937 330.832 -150.186 331.004C-147.867 331.235 -145.551 331.543 -143.237 331.669C-140.926 331.853 -138.589 331.848 -136.279 332.069C-122.973 332.921 -109.765 335.841 -97.1089 340.022L-92.3627 341.61C-90.7871 342.145 -89.2643 342.821 -87.7197 343.422L-83.1078 345.299C-81.5639 345.919 -80.0299 346.548 -78.5572 347.289C-75.5815 348.723 -72.615 350.148 -69.6392 351.583C-66.7642 353.166 -63.899 354.758 -61.0331 356.33C-58.3883 357.724 -56.0351 359.534 -53.5297 361.093C-52.3051 361.862 -50.2615 363.08 -47.8641 364.483C-45.5463 365.978 -42.895 367.695 -40.3918 369.311C-39.1307 370.12 -37.906 370.889 -36.765 371.607C-35.6633 372.362 -34.6545 373.056 -33.7846 373.659C-32.0433 374.828 -30.8552 375.558 -30.6632 375.508L-26.9261 378.397L-25.9946 379.126L-24.9921 379.991L-22.9964 381.712C-19.3269 385.12 -15.8591 388.588 -12.2884 391.851C-10.9097 393.063 -9.76835 394.513 -8.63526 395.934C-7.50982 397.307 -6.48131 398.733 -5.47191 400.159C-4.43367 401.577 -3.47284 403.029 -2.49153 404.444L4.0428 399.545C-1.18018 392.049 -7.1285 384.638 -14.2849 377.761C-16.0332 376.031 -17.9453 374.362 -19.8582 372.711C-20.3545 372.274 -20.7693 371.945 -21.1933 371.605L-22.4754 370.597L-25.049 368.588C-26.7746 367.259 -28.5102 365.938 -30.2563 364.646C-31.9925 363.344 -33.8778 362.217 -35.6943 361.026L-35.7224 361.016Z" fill="white"/>
<path d="M68.5268 546.666C69.9169 536.924 70.5115 526.619 70.0129 516.083C69.5515 505.567 68.0539 494.821 65.5711 484.494C64.4444 478.199 62.6408 471.214 61.4022 466.597L60.8862 464.696L60.4335 463.12L59.5282 459.969C58.9154 457.865 58.2443 455.797 57.6117 453.711C55.2292 446.218 52.5191 438.846 49.473 431.566C46.5999 424.729 42.3898 418.564 39.3656 411.702C39.0678 411.045 38.8187 410.361 38.4428 409.757C35.639 405.327 32.7402 400.893 29.4434 396.681C27.9673 394.791 26.5002 392.911 25.046 390.945C23.8738 389.304 22.8504 387.745 21.8446 386.224L15.1346 391.249C15.2875 391.474 15.4403 391.698 15.6023 391.933C18.5123 395.825 21.3852 399.698 24.2769 403.571L27.169 407.681C28.104 409.066 29.0496 410.423 30.0626 411.754C31.2209 413.262 32.199 415.009 32.8826 416.755C33.7637 419.05 34.7919 421.227 35.9261 423.361C37.0028 425.511 38.1952 427.609 39.2044 429.786C39.3803 430.153 39.6139 430.504 39.8664 430.856C42.0487 433.904 44.0328 439.148 45.3691 442.705C46.9331 446.765 48.3333 450.885 49.6554 455.059C50.3168 457.136 50.9197 459.25 51.5325 461.354L53.2699 467.833L54.2163 471.641L55.1971 475.802C55.9057 478.879 56.5375 481.972 57.0655 485.052L57.905 489.673L58.5828 494.297C59.082 497.385 59.3731 500.446 59.7113 503.518C61.3772 520.531 60.8426 537.203 57.7978 552.686C56.2831 560.476 54.1432 567.966 51.3404 575.155C48.771 581.707 45.166 587.022 40.7451 592.306C39.7696 593.466 38.7114 594.556 37.6994 595.676C36.6593 596.786 35.5278 597.797 34.4603 598.877C33.3654 599.928 32.1779 600.918 31.074 601.958C29.9236 602.969 28.6911 603.891 27.5225 604.882L32.5083 611.628C33.887 610.608 35.3388 609.666 36.6263 608.546C37.8948 607.426 39.247 606.357 40.4235 605.158C42.8785 602.829 45.1586 600.351 47.2829 597.725C52.9267 590.778 57.5974 582.939 61.0915 574.322C64.6228 565.727 67.1352 556.446 68.4866 546.721L68.5268 546.666Z" fill="white"/>
<path d="M46.6425 539.1C46.8127 537.387 46.973 535.683 47.0119 533.927C47.0689 532.191 47.1829 530.456 47.051 528.694C46.9193 526.18 46.9648 523.759 46.9455 521.288C47.0742 511.983 45.9518 502.353 43.9957 492.911C43.6878 490.78 43.2091 488.643 42.8064 486.509C42.4135 484.366 41.963 482.24 41.5033 480.103C40.8188 476.894 40.2261 474.515 39.5865 471.869L39.1145 470.055L38.667 468.347C38.3494 467.213 38.0705 466.063 37.7332 464.948C36.4242 460.432 35.0006 455.931 33.3647 451.517C30.1414 442.663 26.1672 434.064 21.444 425.922C20.0536 423.531 18.6746 421.093 17.0408 418.855C15.8573 417.261 14.8467 415.617 13.8293 413.906C10.9987 408.933 7.64703 404.168 4.01416 399.554L-2.52017 404.453C-0.749909 406.601 0.894687 408.811 2.53907 411.022C3.54848 412.447 4.62377 413.885 5.41026 415.426C7.47522 419.553 9.89203 423.426 12.173 427.371C18.7333 438.643 23.9545 450.644 28.0116 463.026C29.0041 466.133 29.9579 469.258 30.8252 472.407C31.7246 475.71 32.6267 479.193 33.5328 483.313C35.2512 491.274 36.5408 499.266 37.2354 507.169C37.4137 508.962 37.5064 510.761 37.5238 512.538C37.5693 514.326 37.6343 516.096 37.6425 517.863C37.8039 521.337 37.9158 529.322 37.3591 536.407C36.8685 543.504 35.7016 549.654 35.8852 550.07L35.2416 552.734C35.0086 553.608 34.7284 554.471 34.4764 555.345C33.9914 557.094 33.3658 558.79 32.7403 560.485C30.8289 565.238 28.5545 569.797 26.1155 574.435C25.6358 575.3 25.1659 576.156 24.5661 576.931C23.9573 577.696 23.3576 578.471 22.7487 579.236C20.2635 582.105 17.4835 584.735 14.4397 587.06L19.2992 593.631C27.5887 587.308 33.9425 578.934 38.441 569.644C40.7092 565 42.5317 560.091 43.8687 554.955C45.252 549.849 46.1962 544.546 46.6333 539.09L46.6425 539.1Z" fill="white"/>
<path d="M14.9446 564.725C15.4389 563.974 15.9521 563.224 16.4464 562.473C17.0921 561.491 17.7231 560.394 18.2221 559.273C18.5343 558.563 18.7426 557.84 19.0077 557.118C19.5276 556.198 19.8805 555.176 20.2894 554.175C20.6983 553.174 21.0045 552.122 21.2919 551.068C21.8481 549.199 22.3328 547.213 22.8266 545.237C23.1989 543.208 23.6 541.172 23.5753 539.09C23.5851 538.587 23.6603 538.115 23.6982 537.622C24.0432 536.058 24.1928 534.382 24.3706 532.717C24.4824 531.04 24.6025 529.391 24.7114 527.79L24.7473 526.366C24.8599 525.164 25.0109 523.944 25.0681 522.702C25.1161 521.45 25.1271 520.177 25.0831 518.845C25.0188 517.55 24.9172 516.235 24.6912 514.944C23.9682 511.002 23.6302 507.179 22.9795 503.335L22.0229 498.548L20.9602 493.805C20.6214 492.234 20.2833 490.643 20.1061 489.069C19.9991 488.143 19.7087 487.296 19.3507 486.475C18.5873 482.845 17.8231 479.234 17.0681 475.633C16.5698 473.02 15.5442 470.529 14.5945 468.042C14.37 467.207 14.0877 466.388 13.9209 465.536C13.689 464.397 13.3236 463.271 12.9188 462.182C12.6794 461.489 12.3414 460.887 12.0626 460.23C11.5205 458.262 10.7675 456.342 9.95621 454.459C9.24158 452.778 8.49211 451.02 7.73332 449.252C6.93586 447.502 6.07981 445.788 5.04595 444.257C4.79414 443.886 4.60069 443.48 4.36859 443.091C3.24297 440.235 1.66841 437.448 0.316234 434.802L-0.323928 433.657C-1.24038 431.541 -2.22509 429.47 -3.50423 427.398C-4.1115 426.386 -4.78645 425.401 -5.5309 424.498C-7.81132 421.779 -9.70128 418.79 -11.893 415.989C-12.6163 415.03 -13.4373 414.143 -14.2098 413.23L-19.9521 417.542C-19.1171 418.562 -18.3301 419.59 -17.5929 420.682C-16.8459 421.765 -16.0996 422.867 -15.4449 424.128C-14.7383 425.523 -13.9832 426.891 -13.1146 428.027C-11.2652 430.34 -9.67868 432.823 -8.04376 435.28C-7.12082 436.731 -6.2662 438.227 -5.46001 439.749C-5.00228 441.192 -4.53392 442.607 -3.78028 444.013C-3.33795 444.866 -2.85696 445.702 -2.34641 446.51C-2.02631 447.33 -1.64779 448.114 -1.3755 448.941C-1.02691 450.009 -0.601602 451.061 -0.146843 452.085C0.86123 454.537 2.50038 456.386 3.60769 458.728C3.83873 459.392 4.14634 460.041 4.36754 460.714C7.8742 471.594 9.99539 482.677 12.687 494.001L13.2526 496.35C13.4399 497.165 13.6652 497.981 13.8426 498.805C14.1409 500.194 14.5157 501.567 14.88 502.968C15.2162 504.358 15.5607 505.778 15.8484 507.195C16.2844 509.701 15.9829 511.865 15.9475 514.277C15.9139 520.109 16.8343 526.338 16.7482 532.548C16.6607 536.07 16.3841 539.565 15.7409 542.96C15.1538 546.377 14.2282 549.705 13.0132 552.898C11.8263 556.102 10.255 559.168 8.34199 561.982C6.41981 564.787 4.19095 567.419 1.52399 569.578L5.79618 575.357C9.52738 572.45 12.7682 568.954 14.9985 564.803L14.9446 564.725Z" fill="white"/>
<path d="M-1.58047 537.043C-0.615824 533.441 0.00867488 529.789 0.480014 526.168C1.08986 521.413 0.492711 516.421 0.464405 511.707C0.433487 509.54 0.0309266 506.161 -0.729162 502.693C-1.47028 499.225 -2.46504 495.682 -3.37938 493.015C-3.48606 491.833 -3.62914 490.611 -3.79202 489.408C-3.87346 488.806 -3.93661 488.224 -4.0363 487.603C-4.15423 486.962 -4.26303 486.33 -4.3733 485.737C-4.58398 484.541 -4.80663 483.412 -5.08005 482.366C-5.33522 481.339 -5.569 480.494 -5.79237 479.878C-7.49616 475.252 -9.11133 470.544 -10.9789 465.979C-12.6279 461.907 -14.4217 457.895 -16.1868 453.875C-18.5131 448.636 -21.6595 443.974 -24.327 438.96C-25.9682 435.924 -30.1507 431.764 -33.6072 427.755L-40.0437 432.581C-39.2788 433.447 -38.5046 434.322 -37.7412 435.225C-36.9679 436.119 -36.1849 437.005 -35.4715 437.973C-33.4881 440.509 -31.7509 443.274 -30.063 446.084C-29.3101 447.51 -28.6071 449 -27.7966 450.408C-27.4572 450.973 -27.1178 451.537 -26.7685 452.092C-25.7915 454.115 -24.8822 456.164 -23.7483 458.06C-22.9644 459.42 -22.3926 460.867 -21.84 462.313C-21.336 463.786 -20.832 465.259 -20.2323 466.717C-19.1045 469.515 -17.7924 472.216 -16.5395 474.972C-15.927 476.838 -15.2661 478.679 -14.7977 480.587C-14.5243 481.633 -14.2888 482.678 -14.092 483.74L-13.4881 486.822C-13.3242 487.75 -13.1406 488.66 -12.8993 489.553C-12.6671 490.435 -12.4824 491.07 -12.1692 491.823C-12.0389 492.141 -11.9844 492.457 -11.873 492.774L-11.9877 492.789C-11.8307 493.65 -11.626 494.504 -11.5737 495.37C-11.4713 497.16 -10.9676 498.89 -10.4471 500.677C-10.3436 502.685 -10.3038 504.625 -9.53984 506.754C-9.37741 507.226 -8.99234 508.333 -8.83507 508.444C-8.6868 509.532 -8.55815 510.639 -8.47666 511.735C-8.5119 512.902 -8.5852 514.068 -8.53616 515.267C-8.5361 515.761 -8.47907 516.257 -8.43195 516.763C-8.55982 518.363 -8.72499 519.944 -8.6956 521.655C-8.62707 524.08 -9.5537 525.945 -10.0934 528.128C-10.5923 530.237 -11.0112 532.492 -11.629 534.729C-11.9384 535.364 -12.2386 536.008 -12.5942 536.611C-12.9317 537.235 -13.2965 537.829 -13.754 538.363C-15.0998 540.012 -16.8995 541.111 -18.5639 542.397L-11.9164 551.392C-9.82256 550.057 -7.23375 549.69 -6.56471 548.595C-4.32593 544.966 -2.67568 541.077 -1.57134 537.053L-1.58047 537.043Z" fill="white"/>
<path d="M-140.134 576.098C-137.26 578.707 -134.369 581.336 -131.448 583.975C-130.695 584.631 -130.045 585.273 -129.197 585.952L-126.69 587.967L-121.626 591.933L-119.069 593.884L-117.786 594.855L-117.472 595.095L-117.046 595.377L-116.193 595.923C-113.911 597.378 -111.63 598.834 -109.358 600.28C-107.085 601.706 -104.802 603.124 -102.529 604.551L-100.83 605.595C-100.264 605.93 -99.6568 606.21 -99.0796 606.517C-97.9053 607.113 -96.7409 607.718 -95.5667 608.314L-91.3257 610.7L-89.2147 611.892L-87.0616 612.972L-78.4479 617.274L-69.7258 620.981C-68.2782 621.635 -66.816 622.147 -65.3535 622.659L-60.9674 624.233C-58.3278 625.266 -55.6933 625.937 -53.0526 626.693L-49.0864 627.815C-47.7685 628.131 -46.4582 628.4 -45.1388 628.679C-42.5091 629.226 -39.8702 629.783 -37.2697 630.101C-34.6608 630.448 -32.0449 630.862 -29.4645 630.961C-19.6895 631.735 -10.5881 630.003 -1.26141 628.594C-0.372231 628.447 0.579584 628.408 1.41693 628.126L6.07303 626.614L10.6372 624.784C12.144 624.139 13.6165 623.397 15.0967 622.703C16.5685 621.981 17.9792 621.113 19.4069 620.303C21.9269 618.756 24.383 617.141 26.8413 615.468C27.8837 614.795 28.8503 614.119 29.797 613.462C30.7347 612.795 31.6785 612.214 32.5585 611.563L27.5727 604.817C27.3272 605.026 27.0642 605.196 26.7905 605.395C22.1976 608.972 17.3332 612.196 12.1968 614.83C8.56544 616.62 4.81 618.176 1.08847 619.592C0.0282013 619.988 -1.08835 620.363 -2.23985 620.661C-3.39829 620.892 -4.57422 621.085 -5.7367 621.173C-11.8132 621.567 -17.544 622.611 -23.5904 622.465C-24.1034 622.464 -24.6096 622.53 -25.1164 622.615C-27.3516 622.929 -30.2895 622.74 -33.2472 622.57C-36.2348 622.189 -39.2574 621.731 -41.7087 621.238C-52.9288 619.003 -64.3371 614.984 -75.466 609.626C-86.5821 604.184 -97.4229 597.754 -107.673 590.54L-110.378 588.726C-111.248 588.122 -112.278 587.484 -112.876 586.977L-117.007 583.721L-121.108 580.419C-122.482 579.312 -123.874 578.204 -125.01 577.115L-132.236 570.558C-133.468 569.485 -134.591 568.311 -135.744 567.165L-139.194 563.717L-142.682 560.268L-146.011 556.672C-148.199 554.251 -150.513 551.911 -152.65 549.425C-156.484 544.851 -159.632 540.227 -162.46 534.941C-163.73 532.64 -165.049 530.367 -166.233 528.022C-167.387 525.669 -168.56 523.316 -169.812 521.016L-177.239 524.912C-176.067 527.56 -174.826 530.144 -173.537 532.682C-172.179 535.195 -170.677 537.628 -169.203 540.088C-161.255 553.057 -151.286 565.401 -140.145 576.127L-140.134 576.098Z" fill="white"/>
<path d="M-125.173 559.314C-123.054 561.286 -120.808 563.177 -118.509 564.909C-117.687 565.52 -116.885 566.149 -116.102 566.797C-115.338 567.444 -114.576 568.129 -113.71 568.827C-110.543 571.475 -107.428 573.989 -103.998 576.467C-99.9285 579.103 -95.8277 581.673 -91.7445 584.205C-89.9288 585.415 -88.0191 586.409 -86.1625 587.545C-84.2749 588.615 -82.4494 589.815 -80.5399 590.81C-69.8772 596.929 -58.5827 601.932 -47.2526 605.017C-35.9204 608.045 -24.5739 609.211 -13.7979 607.667C-10.6265 607.219 -7.44073 606.647 -4.44708 605.632C-3.36162 605.322 -2.31879 604.887 -1.25086 604.538C-0.182196 604.17 0.912194 603.871 1.98232 603.465C8.28596 601.36 14.2477 598.016 19.3083 593.64L14.4488 587.07C13.2894 588.07 12.0928 589.05 10.8604 589.972C9.58306 590.826 8.35889 591.777 7.00092 592.504C6.14645 592.984 5.30886 593.522 4.41862 593.944C3.51925 594.356 2.61148 594.739 1.68694 595.065C-3.31383 596.64 -8.25664 597.942 -13.2922 598.69C-27.7029 600.873 -42.8407 597.984 -57.549 592.318C-64.9286 589.527 -72.1397 585.812 -79.2008 581.902L-84.4204 578.776L-87.0205 577.213C-87.8736 576.667 -88.6965 576.075 -89.5391 575.501C-92.8623 573.217 -96.1854 570.933 -99.4994 568.659C-102.016 566.653 -104.404 564.49 -106.892 562.476C-107.481 561.978 -108.35 561.356 -109.232 560.581C-110.105 559.816 -111.117 558.941 -112.201 557.987C-113.296 557.043 -114.455 556.048 -115.65 555.015C-116.846 554 -118.07 552.955 -119.158 551.859C-121.394 549.702 -123.539 547.663 -125.163 546.166C-125.99 545.431 -126.64 544.788 -127.116 544.333C-127.593 543.878 -127.907 543.638 -128.002 543.634C-130.129 541.12 -132.293 538.605 -134.322 536.019C-135.673 534.086 -137.024 532.153 -138.424 530.266C-139.12 529.318 -139.835 528.388 -140.578 527.466C-141.264 526.509 -141.959 525.561 -142.693 524.63C-143.789 523.229 -144.678 521.656 -145.579 520.111L-146.86 517.839L-147.985 515.477L-150.246 510.764L-157.479 514.553C-149.523 531.066 -138.757 546.86 -125.154 559.315L-125.173 559.314Z" fill="white"/>
<path d="M-130.804 515.851C-130.387 516.636 -129.931 517.385 -129.563 518.198C-129.093 519.299 -128.389 520.276 -127.704 521.252C-127.281 521.867 -126.788 522.38 -126.335 522.948C-125.253 524.728 -124.057 526.475 -122.771 528.12C-120.293 530.894 -117.984 534.356 -115.063 536.719C-114.694 536.999 -114.393 537.343 -114.053 537.651C-112.035 540.027 -109.779 542.385 -107.628 544.51L-106.646 545.412C-105.059 547.126 -103.471 548.84 -101.624 550.459C-100.752 551.262 -99.7445 551.995 -98.6947 552.615C-97.1055 553.54 -95.6162 554.594 -94.1467 555.667L-91.9479 557.291C-91.2564 557.84 -90.3449 558.35 -89.5381 558.865C-86.7721 560.568 -83.9935 562.185 -81.2753 563.895C-79.8807 564.689 -78.5071 565.54 -77.1941 566.483C-76.4176 567.045 -75.6331 567.398 -74.8274 567.695C-73.185 568.717 -71.5018 569.666 -69.8496 570.679C-68.198 571.711 -66.5155 572.678 -64.8337 573.664C-63.5514 574.417 -62.2289 575.113 -60.8916 575.668C-59.5444 576.214 -58.1958 576.722 -56.8472 577.229C-55.9798 577.652 -55.1034 578.085 -54.236 578.508C-53.0716 579.113 -51.8643 579.587 -50.6758 580.06C-49.9278 580.373 -49.2301 580.514 -48.4966 580.713C-46.3909 581.544 -44.2654 582.358 -42.1352 582.8C-40.2433 583.262 -38.2419 583.843 -36.2219 584.186C-35.2123 584.367 -34.2141 584.596 -33.2297 584.69C-32.2354 584.776 -31.2775 584.822 -30.3555 584.81C-29.9085 584.799 -29.4273 584.884 -28.9628 584.911C-27.3179 585.126 -25.6532 585.323 -24.0116 585.376C-23.1852 585.379 -22.3779 585.382 -21.5613 585.394C-20.7546 585.416 -19.9463 585.399 -19.1556 585.344L-17.7745 585.254C-16.5223 585.302 -15.2932 585.207 -14.0442 585.093C-13.4243 585.032 -12.786 584.99 -12.1738 584.88C-11.5608 584.751 -10.938 584.614 -10.3144 584.457C-9.09761 584.19 -7.90379 583.78 -6.81946 583.252C-3.52704 581.63 -0.0859202 580.09 2.89882 577.82C3.8795 577.021 4.81537 576.154 5.74131 575.297L1.46912 569.518C-0.52761 571.294 -2.60228 572.868 -5.31134 573.894C-6.77951 574.522 -8.3695 574.86 -9.63042 575.534C-10.9811 576.071 -12.3628 576.674 -13.8095 576.989C-14.5287 577.161 -15.2401 577.38 -15.9676 577.524L-18.148 577.896C-18.9908 578.073 -19.8567 578.106 -20.7323 578.148C-21.6073 578.172 -22.4753 578.262 -23.3473 578.21C-24.94 577.873 -26.528 577.66 -28.1258 577.456C-29.0912 577.362 -30.0402 577.326 -30.9896 577.309C-31.8832 577.075 -32.7605 576.918 -33.6436 576.656C-34.2168 576.491 -34.7908 576.346 -35.3556 576.21L-37.038 575.737C-39.6922 575.084 -41.8604 575.134 -44.3847 574.563C-45.0779 574.308 -45.7537 574.092 -46.4456 573.799C-49.2249 572.695 -51.9281 571.338 -54.6038 570.009C-57.2373 568.569 -59.8826 567.194 -62.4077 565.653C-67.5488 562.711 -72.3959 559.532 -77.3979 556.68L-79.4308 555.434L-81.5662 554.136C-82.7642 553.415 -83.9924 552.741 -85.2305 552.076C-85.8541 551.739 -86.4876 551.41 -87.0915 551.055L-88.8245 549.915C-90.8523 548.535 -92.2644 546.714 -94.0438 545.05C-98.1852 540.815 -103.142 537.537 -107.441 533.449C-117.388 524.27 -125.013 512.757 -130.923 500.626L-137.283 503.955C-136.298 506.007 -135.331 508.058 -134.355 510.1C-133.282 512.089 -132.082 513.997 -130.804 515.851Z" fill="white"/>
<path d="M-7.76858 259.073C-11.4009 258.905 -15.0012 259.147 -18.6346 259.254C-22.2695 259.4 -25.9045 259.546 -29.5492 259.701C-33.1442 260.047 -36.7239 260.49 -40.2763 260.962C-42.0524 261.197 -43.8291 261.452 -45.5878 261.727L-48.2168 262.149C-49.0877 262.315 -49.932 262.529 -50.7854 262.734C-59.3294 264.297 -67.3241 265.406 -77.1071 268.062C-79.228 268.617 -81.3346 269.049 -83.4614 269.756L-89.8311 271.849L-96.1749 274.01C-98.2779 274.841 -100.384 275.749 -102.48 276.647C-106.421 278.339 -110.218 280.245 -113.918 282.574C-115.775 283.69 -117.632 284.788 -119.516 285.855C-120.449 286.39 -121.4 286.904 -122.35 287.419C-123.284 287.972 -124.227 288.534 -125.178 289.068C-125.916 289.477 -126.681 289.856 -127.346 290.344C-129.8 292.159 -132.272 293.936 -134.654 295.849C-136.983 297.86 -139.274 299.89 -141.493 302C-142.497 302.931 -143.474 303.872 -144.479 304.802C-145.447 305.772 -146.415 306.742 -147.384 307.731C-149.023 309.34 -150.596 310.724 -152.129 312.053L-146.171 317.953C-145.944 317.743 -145.727 317.542 -145.51 317.342C-143.547 315.45 -141.65 313.528 -139.742 311.596C-137.799 309.723 -135.764 307.949 -133.765 306.116L-129.468 302.338C-127.988 301.15 -126.5 299.991 -125.056 298.764C-123.406 297.364 -121.503 296.04 -119.594 295.078L-115.855 293.207C-114.625 292.579 -113.421 291.904 -112.217 291.228C-109.809 289.895 -107.461 288.36 -105.003 287.2C-104.578 287.008 -104.178 286.747 -103.788 286.477C-102.033 285.31 -99.6694 284.127 -97.2428 283.032C-96.0249 282.49 -94.8078 281.967 -93.63 281.48C-92.4461 281.079 -91.31 280.685 -90.3088 280.344C-87.9993 279.577 -85.6799 278.802 -83.3612 278.045L-79.8699 276.934L-76.3788 276.08L-69.3801 274.429L-65.8723 273.633L-62.66 273.11L-49.8434 271.121C-47.7198 270.747 -45.5468 270.564 -43.3729 270.362L-36.8701 269.757C-33.8584 269.511 -30.87 269.122 -27.8346 269.001L-18.7032 268.724L-14.1372 268.576C-12.6149 268.52 -11.101 268.436 -9.56492 268.514L-0.382951 268.647L4.23346 268.672C5.00298 268.673 5.77321 268.655 6.54127 268.694L8.85452 268.821C11.9465 268.958 15.0286 269.105 18.1016 269.242C23.7608 269.326 28.875 270.738 34.3745 272.013C36.7736 272.627 39.2151 273.13 41.581 273.866C43.9477 274.584 46.3149 275.283 48.714 275.898L50.8209 267.779C48.2711 266.883 45.7078 266.092 43.1332 265.347C40.5578 264.621 37.9246 264.168 35.2956 263.602C31.7982 262.889 28.271 262.202 24.7145 261.544C21.131 261.093 17.5281 260.66 13.9136 260.274C6.68284 259.303 -0.585073 259.3 -7.78879 259.11L-7.76858 259.073Z" fill="white"/>
<path d="M-7.08118 281.549L-11.2336 281.57C-12.6055 281.669 -13.9882 281.797 -15.3447 281.992C-17.284 282.269 -19.1991 282.414 -21.1472 282.425C-28.5428 282.284 -35.7547 283.546 -42.9678 284.59C-43.7789 284.683 -44.5984 284.746 -45.42 284.867L-47.8296 285.269L-52.6663 286.033C-54.95 286.373 -57.2436 286.722 -59.5371 287.071C-60.6941 287.265 -61.8109 287.402 -63.0073 287.632L-66.6781 288.47L-74.0419 290.221C-74.6465 290.378 -75.2693 290.516 -75.8746 290.692L-77.7023 291.287L-81.359 292.496C-83.7944 293.324 -86.2285 294.114 -88.6303 295.058C-91.0168 296.097 -93.3942 297.146 -95.7449 298.243L-99.2665 299.894C-100.428 300.458 -101.557 301.156 -102.703 301.796C-104.967 303.106 -107.222 304.444 -109.44 305.803C-110.761 306.551 -111.995 307.51 -113.264 308.393C-114.514 309.295 -115.747 310.217 -116.924 311.198C-118.594 312.616 -120.378 313.792 -122.074 315.161C-124.598 317.06 -127.078 319.045 -129.502 321.071C-131.845 323.205 -134.051 325.486 -136.285 327.737L-130.491 333.479C-128.443 331.363 -126.422 329.198 -124.301 327.161C-122.886 325.923 -121.45 324.648 -119.899 323.615C-115.839 320.806 -111.779 317.979 -107.709 315.161C-95.9402 307.299 -82.7872 301.742 -69.4724 298.158L-64.4649 296.906L-61.9617 296.289L-60.7152 295.995L-59.5195 295.784L-49.9382 294.175C-43.6012 292.936 -37.0708 292.598 -30.6608 291.931C-27.7495 291.577 -24.7638 291.758 -21.8247 291.672C-20.3791 291.632 -18.0086 291.504 -15.2472 291.344C-13.8669 291.274 -12.3896 291.15 -10.8764 291.084C-9.3655 291.076 -7.82647 291.078 -6.31554 291.069C-0.310462 291.052 5.06379 290.888 5.33814 290.67L14.8479 291.671L18.2417 292.115C19.3765 292.253 20.5021 292.382 21.6248 292.587C23.8717 292.958 26.1208 293.272 28.394 293.454C30.1086 293.587 31.813 293.984 33.4991 294.362C35.1495 294.682 36.7637 295.2 38.359 295.717L43.1751 297.223L45.2262 289.321C28.4396 284.335 10.481 280.93 -7.09079 281.557L-7.08118 281.549Z" fill="white"/>
<path d="M26.5877 308.101C25.7503 307.889 24.8924 307.713 24.067 307.435C22.9599 307.069 21.8 306.844 20.6499 306.61C19.9242 306.459 19.2411 306.433 18.5322 306.339C16.5348 305.901 14.4731 305.652 12.4276 305.478C10.5999 305.323 8.69086 305.059 6.77963 304.853C5.82402 304.75 4.8586 304.656 3.91977 304.61C2.96052 304.602 2.01744 304.67 1.11075 304.778C0.662328 304.827 0.21683 304.801 -0.239991 304.821C-3.29584 304.486 -6.49764 304.486 -9.46516 304.325L-10.7743 304.275C-13.0573 304.102 -15.344 304.024 -17.7623 304.159C-18.9339 304.238 -20.114 304.287 -21.2527 304.5C-22.9848 304.823 -24.7291 304.975 -26.4644 305.136L-31.6611 305.868C-34.538 306.319 -37.3988 306.845 -40.2842 307.267C-41.7251 307.43 -43.1512 307.708 -44.5808 307.824C-45.4192 307.887 -46.1793 308.133 -46.9218 308.418C-50.3519 308.924 -53.7722 309.42 -57.2421 309.724C-59.9166 310.096 -62.527 311.031 -65.1325 311.834C-66.0034 312 -66.8668 312.214 -67.7546 312.323C-68.9557 312.429 -70.0939 312.879 -71.2385 313.244C-71.9507 313.482 -72.59 313.8 -73.2657 314.078C-75.3001 314.608 -77.3306 315.281 -79.2979 316.041C-82.7224 317.639 -86.6995 319.035 -89.85 321.166C-90.2221 321.456 -90.6293 321.668 -91.0379 321.919C-93.9027 323.291 -96.8053 324.899 -99.4595 326.479L-100.591 327.234C-102.678 328.399 -104.774 329.553 -106.825 331.014C-107.83 331.707 -108.737 332.565 -109.597 333.434C-112.105 336.141 -115.094 338.269 -117.546 341.015C-118.397 341.914 -119.203 342.862 -120.035 343.761L-114.937 348.811C-114.008 347.859 -113.098 346.924 -112.132 346.011C-111.649 345.564 -111.156 345.108 -110.654 344.643C-110.408 344.415 -110.133 344.197 -109.868 343.97C-109.576 343.772 -109.292 343.565 -109 343.367C-107.665 342.515 -106.349 341.644 -105.322 340.619C-104.256 339.577 -103.207 338.496 -102.032 337.572L-98.4696 334.859C-97.0803 333.81 -95.6727 332.781 -94.1754 331.888C-92.7305 331.373 -91.3054 330.877 -89.9059 330.057C-89.0696 329.557 -88.2518 329.037 -87.4513 328.479C-86.649 328.12 -85.8808 327.665 -85.026 327.422C-83.9391 327.074 -82.8782 326.659 -81.8354 326.224C-80.5993 325.701 -79.519 325.03 -78.4471 324.33C-77.9111 323.98 -77.3851 323.639 -76.8393 323.28C-76.2949 322.959 -75.7147 322.696 -75.1156 322.434C-74.433 322.223 -73.7671 321.954 -73.0852 321.762L-68.9268 320.6L-66.853 320.034C-66.1529 319.861 -65.4456 319.755 -64.7371 319.611L-56.3055 318.006C-53.496 317.582 -50.672 317.272 -47.88 316.809C-45.0713 316.404 -42.3122 315.806 -39.5301 315.352L-37.2078 314.995L-34.789 314.603C-32.0836 314.165 -29.415 313.45 -26.6975 312.947C-24.297 312.535 -22.0482 313.106 -19.6287 313.189C-16.6886 313.321 -13.7634 313.101 -10.8262 312.814C-7.885 312.67 -4.93463 312.536 -1.99341 312.393C-0.309526 312.334 1.37367 312.294 3.04625 312.282C4.72504 312.356 6.40073 312.506 8.07734 312.636C11.4192 312.945 14.7917 313.207 18.1164 313.715C21.427 314.345 24.736 315.014 28.0254 315.7L30.495 316.213C31.3149 316.387 32.1213 316.665 32.9299 316.886L37.7784 318.288L39.5837 311.345C37.4432 310.674 35.312 310.013 33.1906 309.343C31.0472 308.748 28.8472 308.388 26.6648 308.067L26.5877 308.101Z" fill="white"/>
<path d="M12.284 329.309C10.1162 329.102 7.94015 328.867 5.76475 328.613L2.51216 328.203C1.42446 328.076 0.332504 328.062 -0.756656 327.973C-3.59977 327.788 -6.43125 327.793 -9.25208 327.771C-9.96467 327.772 -10.657 327.736 -11.3711 327.775L-13.4942 327.893C-14.9124 327.962 -16.3383 327.984 -17.7627 327.967C-23.014 327.652 -33.5002 329.568 -40.0097 331.095C-42.8787 331.336 -45.9192 331.59 -48.5612 331.86C-49.8776 331.999 -51.1082 332.132 -52.1492 332.273C-53.2 332.423 -53.989 332.678 -54.6034 332.844C-56.8735 333.574 -59.1788 334.227 -61.4924 334.851C-63.7625 335.581 -65.9708 336.437 -68.2052 337.225C-69.1889 337.605 -70.2077 337.908 -71.164 338.318L-74.0251 339.596L-76.9038 340.834C-77.8608 341.263 -78.871 341.595 -79.7649 342.112C-82.1601 343.378 -84.4916 344.714 -86.7697 346.147C-88.93 347.727 -91.1259 349.248 -93.4503 350.651C-94.7699 351.617 -96.3032 353.201 -97.9576 354.972C-98.3644 355.422 -98.8086 355.851 -99.2168 356.339C-99.5969 356.838 -100.006 357.344 -100.396 357.852C-101.195 358.866 -102.031 359.86 -102.875 360.807L-97.1631 366.46C-96.439 365.661 -95.7519 364.842 -95.0642 364.004C-94.3674 363.175 -93.7064 362.289 -92.8812 361.579C-91.7976 360.576 -90.6867 359.602 -89.5757 358.628C-89.0066 358.156 -88.4825 357.615 -87.8684 357.211L-86.024 355.942C-84.7412 355.193 -83.4956 354.424 -82.2752 353.568C-81.8053 353.206 -81.2808 352.903 -80.7835 352.571C-78.9439 351.672 -77.1316 350.744 -75.4632 349.602C-72.9946 348.157 -70.1589 347.544 -67.5481 346.352C-64.8919 345.466 -62.3592 344.328 -59.8053 343.134C-58.0211 342.689 -56.227 342.235 -54.4176 341.877C-52.4171 341.488 -50.4862 341.182 -48.266 341.011C-46.1293 340.789 -44.0079 340.471 -41.9129 339.848C-41.4707 339.713 -41.0026 339.646 -40.5611 339.529L-40.5367 339.635C-39.3228 339.444 -38.1067 339.196 -36.8873 339.11C-34.3314 339.103 -31.8725 338.656 -29.4016 338.143C-26.5483 338.062 -23.7271 337.828 -20.933 337.308C-20.32 337.18 -18.8908 336.826 -18.8 336.687L-14.3324 336.374C-12.6999 336.417 -11.0531 336.338 -9.42283 336.438C-8.76788 336.454 -8.11092 336.413 -7.45452 336.39C-5.22841 336.561 -2.99243 336.723 -0.793359 336.608C-0.0223842 336.571 0.766114 336.573 1.53345 336.63C2.29933 336.726 3.05401 336.869 3.81843 337.003C5.33743 337.28 6.85483 337.595 8.39644 337.777C9.88112 337.958 11.3596 338.052 12.8578 338.129C14.3469 338.195 15.8106 338.432 17.2974 338.555C19.1915 338.961 21.1075 339.29 22.9896 339.762C23.7048 339.941 24.4191 340.14 25.1237 340.347C25.8283 340.555 26.5095 340.875 27.2028 341.13C28.5788 341.667 29.9556 342.186 31.3648 342.601L33.3827 334.821C30.542 333.828 28.2749 331.756 26.8296 331.539C24.3908 331.217 21.9737 330.821 19.5483 330.395C17.1222 329.989 14.7203 329.45 12.2658 329.289L12.284 329.309Z" fill="white"/>
<path d="M2.40273 351.856C2.1568 351.828 1.51329 351.765 0.576643 351.663C-0.372028 351.626 -1.63632 351.644 -3.11771 351.625C-4.60894 351.616 -6.30889 351.598 -8.17048 351.584C-9.09178 351.577 -10.0602 351.559 -11.0483 351.559C-12.0392 351.635 -13.0682 351.71 -14.107 351.793C-18.2537 352.157 -22.6263 352.217 -26.6092 353.014C-28.5878 353.328 -30.48 353.617 -32.1719 353.884C-33.0132 354.023 -33.816 354.144 -34.5617 354.268C-35.309 354.429 -35.991 354.622 -36.6146 354.778C-38.5798 354.988 -41.3385 355.329 -44.441 355.713C-45.2142 355.807 -46.0161 355.909 -46.8279 356.021C-47.6769 356.112 -48.2738 356.317 -49.0294 356.449C-50.4662 356.755 -51.932 357.07 -53.378 357.366C-54.8597 357.603 -56.1794 358.075 -57.4491 358.483C-58.7279 358.88 -59.9302 359.262 -61.0262 359.6C-62.1489 359.889 -63.0123 360.359 -63.7851 360.691C-64.5396 361.042 -65.1395 361.323 -65.5368 361.526C-65.8462 361.666 -66.9783 362.203 -68.5606 363.082C-70.0342 364.1 -72.0569 365.314 -74.1938 366.781C-75.1942 367.597 -76.2522 368.431 -77.3481 369.263C-77.8779 369.699 -78.4806 370.056 -78.9746 370.55L-80.4734 371.974C-81.4607 372.944 -82.5475 373.786 -83.4399 374.758C-84.314 375.751 -85.1769 376.697 -85.989 377.558L-80.2134 383.281C-79.4005 382.4 -78.6332 381.47 -77.8554 380.511C-77.0053 379.651 -76.0626 378.851 -75.1571 378.031C-74.569 377.559 -74.1178 376.94 -73.4925 376.489C-72.8854 376.018 -72.2965 375.528 -71.6712 375.077C-71.0459 374.626 -70.4753 374.115 -69.8766 373.616C-69.2779 373.116 -68.5158 372.813 -67.7649 372.557C-67.2939 372.413 -66.9362 372.009 -66.5353 371.711C-65.9289 371.259 -65.3402 370.769 -64.7155 370.336C-64.385 370.14 -64.0178 369.983 -63.6782 369.797L-62.5343 369.451C-62.0345 369.299 -61.4815 369.244 -61.0615 368.947C-60.4658 368.523 -59.8516 368.119 -59.2011 367.755C-58.5323 367.41 -57.7828 367.191 -57.0608 366.944C-55.5984 366.468 -54.0822 366.07 -52.5575 365.701C-50.9345 365.497 -49.3207 365.283 -47.7266 365.088C-46.9338 364.976 -46.159 364.844 -45.3654 364.713C-44.4306 364.616 -43.505 364.509 -42.5976 364.382C-40.0559 364.004 -37.5488 363.53 -35.0484 362.99C-34.4263 362.871 -33.7919 362.686 -33.1804 362.596L-31.3178 362.335L-27.5903 361.755L-23.8615 361.139L-21.9874 360.83L-20.13 360.702C-17.6435 360.522 -15.1666 360.351 -12.6731 360.237C-12.1776 360.199 -11.6625 360.143 -11.1663 360.086C-10.661 360.039 -10.1577 360.049 -9.66369 360.049C-8.66577 360.039 -7.66012 360.078 -6.65123 360.278C-6.03859 360.406 -5.38616 360.241 -4.748 360.199C-3.79569 360.141 -2.83212 360.035 -1.88054 359.996L-0.434896 359.956C0.0471101 360.022 0.516968 360.154 0.988398 360.248C1.61015 360.386 2.22765 360.638 2.85596 360.605C4.88354 360.502 6.83853 361.052 8.81507 361.289C9.31605 361.356 9.80785 361.413 10.2983 361.508L11.7561 361.896C12.7248 362.152 13.6936 362.407 14.6737 362.616C16.4933 362.98 18.2798 363.467 20.0761 363.944C21.8385 364.563 23.5896 365.228 25.3557 365.752L27.3963 357.878C26.3082 357.513 25.154 357.137 23.9626 356.739C23.3719 356.536 22.7721 356.323 22.1624 356.119C21.5519 355.934 20.9301 355.797 20.2999 355.63C17.7983 354.964 15.2586 354.297 12.8975 353.684C12.3045 353.537 11.7229 353.344 11.1475 353.236C10.5721 353.129 10.0149 353.041 9.46763 352.944C8.38211 352.76 7.3625 352.588 6.44702 352.429C4.61532 352.131 3.17006 351.914 2.34508 351.873L2.40273 351.856Z" fill="white"/>
<path d="M172.321 335.046C169.83 332.87 167.329 330.684 164.81 328.497L161.032 325.189L157.069 321.996C154.414 319.88 151.748 317.793 149.061 315.761C146.316 313.765 143.451 311.917 140.623 310.108L135.595 306.456C133.922 305.243 132.121 304.129 130.38 302.96C126.867 300.668 123.414 298.303 119.823 296.066C113.198 292.173 106.713 288.115 99.6709 284.7C98.0401 283.868 96.3875 283.111 94.7152 282.372C93.0323 281.662 91.3987 280.906 89.6454 280.297C86.1881 279.034 82.7708 277.715 79.4911 276.031C78.8668 275.713 78.2446 275.338 77.5885 275.104C75.2094 274.214 72.6783 273.576 70.1978 272.853C67.7166 272.15 65.224 271.494 62.7293 270.895C61.6095 270.615 60.4988 270.344 59.3881 270.073C58.2781 269.784 57.1365 269.578 56.0075 269.288C54.1346 268.827 52.4451 268.287 50.8225 267.74L48.7156 275.859L49.4574 276.087C51.7146 276.686 53.9837 277.22 56.2733 277.716L62.9788 279.503C66.1296 280.336 69.2661 281.292 72.4804 281.957C74.2774 282.416 76.103 283.122 77.7111 284.048C79.7925 285.268 81.9789 286.226 84.1964 287.119L87.5287 288.424C88.623 288.875 89.6863 289.391 90.7595 289.897C91.1233 290.073 91.5272 290.193 91.9318 290.294C95.4661 291.284 100.383 293.886 103.657 295.703C118.643 304.039 132.385 314.095 145.319 324.406C154.229 331.635 162.729 339.153 171.089 346.618C175.298 350.333 179.516 354.038 183.707 357.733C187.521 361.1 190.651 364.697 193.748 368.673L197.889 373.896L202.101 379.036L208.466 373.579C207.146 371.6 205.658 369.757 204.16 367.942C202.662 366.127 201.125 364.329 199.579 362.541C198.551 361.352 197.523 360.163 196.476 358.973C195.39 357.801 194.295 356.638 193.19 355.465C190.97 353.147 188.751 350.81 186.513 348.473C184.274 346.154 181.832 343.933 179.477 341.667C177.083 339.437 174.776 337.164 172.294 335.016L172.321 335.046Z" fill="white"/>
<path d="M157.914 352.25C155.877 350.604 153.891 348.894 151.763 347.406C150.245 346.341 148.826 345.204 147.478 343.945C144.908 341.586 142.111 339.436 139.364 337.259L135.182 334.068C133.788 333.017 132.266 332.066 130.822 331.079C128.263 329.186 125.703 327.311 123.165 325.361C108.633 314.591 92.3156 304.816 74.7557 298.442C72.1785 297.517 69.6344 296.469 67.0014 295.76C65.0891 295.335 63.2577 294.781 61.4216 294.102C58.7798 293.127 56.1169 292.208 53.4518 291.345C50.7563 290.53 47.9854 289.948 45.2364 289.292L43.1852 297.194C45.8036 297.788 48.4539 298.298 51.0588 298.997C52.7026 299.487 54.3759 299.951 55.9358 300.647C60.0718 302.544 64.4329 303.775 68.596 305.465C71.6114 306.606 74.6354 307.777 77.6487 308.975C80.6211 310.248 83.5012 311.698 86.4214 313.093C92.3323 315.78 97.7982 319.172 103.385 322.379C104.799 323.156 106.113 324.08 107.448 324.948L111.45 327.61L115.442 330.281L117.424 331.63L119.326 333.052C124.396 336.866 129.545 340.588 134.291 344.665C136.492 346.488 138.574 348.44 140.765 350.272C142.822 352.118 147.73 356.192 152.179 359.83C156.472 363.595 160.373 366.899 160.756 366.838C162.996 368.881 165.069 371.06 167.162 373.221C168.621 374.797 170.081 376.373 171.59 377.904C172.349 378.664 173.119 379.416 173.898 380.158C174.648 380.909 175.427 381.651 176.227 382.357C177.421 383.428 178.464 384.713 179.499 385.95C181.505 388.392 183.491 390.872 185.371 393.377L191.569 388.075C181.499 375.424 170.512 362.889 157.924 352.241L157.914 352.25Z" fill="white"/>
<path d="M165.92 392.983C165.405 392.308 164.859 391.679 164.382 390.967C163.764 390.003 162.978 389.174 162.184 388.336C161.691 387.804 161.165 387.395 160.652 386.919C159.391 385.36 158.022 383.882 156.603 382.488C155.311 381.251 154.102 379.827 152.736 378.531C151.37 377.234 149.984 375.974 148.484 374.947C148.124 374.696 147.813 374.38 147.471 374.11C145.428 371.904 143.182 369.756 140.986 367.819L140.021 366.975C138.478 365.348 136.925 363.711 135.102 362.197C134.218 361.46 133.335 360.704 132.38 360.088C129.389 358.32 126.747 356.1 123.956 354.074C122.791 353.232 121.626 352.389 120.451 351.574L116.836 349.212C115.641 348.416 114.497 347.536 113.421 346.592C112.797 346.036 112.099 345.658 111.389 345.327L109.35 343.738C108.667 343.218 107.945 342.734 107.252 342.223C105.856 341.21 104.47 340.188 103.115 339.119C101.029 337.519 98.7429 336.178 96.3762 334.966C95.6628 334.492 94.9192 334.064 94.2369 333.525C93.3235 332.816 92.3103 332.235 91.3068 331.646C90.6748 331.279 90.0384 331.027 89.4141 330.709C87.7184 329.589 86.0043 328.45 84.1353 327.637C80.8301 326.123 77.3464 324.061 73.853 322.996C73.4301 322.875 73.0299 322.66 72.6183 322.493C69.887 321.124 66.899 320.012 64.1802 318.815L62.9735 318.322C61.958 317.799 60.9333 317.266 59.8882 316.77C58.8228 316.311 57.7263 315.917 56.5623 315.55C55.4454 315.193 54.3096 314.836 53.1679 314.631C49.6942 314.042 46.4401 312.682 42.9778 312.045C41.8185 311.801 40.6373 311.633 39.4781 311.389L37.6728 318.331C38.9634 318.618 40.2063 318.913 41.4666 319.246C42.7262 319.598 44.0146 319.942 45.2935 320.533C46.7122 321.195 48.1317 321.839 49.5263 322.139C52.399 322.791 55.2582 323.547 58.0645 324.443C59.6872 324.989 61.2766 325.658 62.8675 326.289C64.1385 327.089 65.4095 327.888 66.8987 328.449C67.7879 328.796 68.7172 329.088 69.6276 329.38C70.3706 329.826 71.1634 330.208 71.8957 330.683C72.8415 331.289 73.8373 331.831 74.8247 332.344C77.1816 333.565 79.629 333.915 82.0136 334.909C82.6167 335.284 83.241 335.602 83.8344 335.986C88.5879 339.123 93.3832 342.166 97.877 345.635C100.15 347.319 102.472 348.937 104.775 350.574C107.018 352.285 109.301 353.959 111.635 355.531L113.599 356.822L115.657 358.155C117.877 359.741 120.256 361.125 122.514 362.674C124.494 364.061 125.91 365.807 127.581 367.552C129.628 369.664 131.876 371.517 134.22 373.298L137.748 375.942L141.167 378.704C143.727 380.836 146.275 383.014 148.705 385.302C151.076 387.644 153.416 390.033 155.718 392.44C158.069 394.82 160.193 397.39 162.367 399.915L165.603 403.726C166.695 404.984 167.748 406.278 168.77 407.6L174.222 402.935C172.941 401.176 171.58 399.489 170.201 397.802C168.82 396.134 167.401 394.503 165.901 392.982L165.92 392.983Z" fill="white"/>
<path d="M141.574 401.036C139.993 399.427 138.421 397.809 136.849 396.171C135.228 394.599 133.626 393.027 132.044 391.417C131.01 390.38 129.956 389.361 128.883 388.379C127.819 387.37 126.735 386.416 125.601 385.508C123.364 383.645 121.145 381.784 119.029 379.736C117.156 377.793 113.853 375.471 110.452 372.985C107.073 370.442 103.292 368.198 100.375 366.452C96.0734 362.439 90.9092 358.621 88.634 357.251C87.566 356.612 86.488 355.981 85.4101 355.351L82.1248 353.563C79.9478 352.358 77.7617 351.144 75.5946 349.93C74.6374 349.371 73.6389 348.905 72.65 348.43L69.6749 346.976C67.7078 345.998 65.7323 344.991 63.7764 343.966C61.2024 342.709 58.5016 341.788 55.8521 340.765C54.5225 340.258 53.1927 339.751 51.8736 339.216C50.5439 338.709 49.1826 338.286 47.8544 337.741C46.2445 337.109 43.9451 336.622 41.4179 336.126C40.7863 335.997 40.1447 335.878 39.4752 335.748C38.814 335.646 38.1233 335.572 37.4523 335.48C36.0913 335.295 34.7213 335.1 33.3821 334.839L31.3643 342.619C32.5432 342.845 33.7424 343.033 34.9418 343.222L36.7455 343.51C37.3399 343.618 37.9222 343.792 38.5152 343.938C41.694 344.782 44.8474 345.796 48.0106 346.801C49.515 347.457 50.9976 348.189 52.5421 348.79C53.1595 349.041 53.7889 349.227 54.4176 349.432C55.4444 349.908 56.472 350.365 57.5101 350.795C58.558 351.215 59.597 351.625 60.6259 352.045C63.5648 353.202 66.1064 355.057 68.9409 356.458C70.3133 357.09 71.6425 357.854 73.0142 358.505C74.3851 359.175 75.7666 359.817 77.1579 360.45L79.7226 361.954C80.5779 362.443 81.4315 362.97 82.2157 363.58C83.9899 364.883 85.6846 366.278 87.4201 367.598C89.1457 368.928 90.9638 370.081 92.8668 371.246C93.2853 371.481 93.6539 371.78 94.0527 372.033L93.992 372.126C94.989 372.886 96.0154 373.619 96.9624 374.444C98.9095 376.191 101.131 377.482 103.278 378.971C105.442 380.992 107.599 382.965 110.234 384.387C110.821 384.685 112.16 385.439 112.322 385.417L115.923 388.396C117.141 389.592 118.388 390.761 119.694 391.875C120.219 392.323 120.773 392.724 121.327 393.144C122.972 394.841 124.617 396.539 126.414 398.004C128.956 400.078 130.929 402.661 133.172 405.104C135.355 407.401 137.716 409.496 140.096 411.592C141.432 413.173 142.827 414.699 144.114 416.325C145.093 417.56 146.003 418.859 146.923 420.129C147.853 421.39 148.764 422.67 149.723 423.922L155.823 418.693C154.052 416.07 153.146 413.194 152.105 412.09C150.322 410.283 148.588 408.412 146.856 406.521C145.122 404.65 143.319 402.861 141.546 401.045L141.574 401.036Z" fill="white"/>
<path d="M119.334 411.899C118.931 411.522 117.251 409.985 114.847 407.765C113.635 406.674 112.26 405.367 110.725 404.025C109.159 402.73 107.473 401.345 105.742 399.91C104.877 399.193 104.002 398.466 103.109 397.738C102.235 396.992 101.331 396.274 100.415 395.621C98.5956 394.269 96.7942 392.936 95.0663 391.663C91.6804 389.035 88.4276 387.143 86.2031 385.689C84.6293 384.365 82.4315 382.467 79.802 380.675C78.4982 379.741 77.129 378.777 75.7325 377.782C74.3361 376.788 72.9221 375.755 71.453 374.92C68.5565 373.156 65.7525 371.452 63.4499 370.053C61.0734 368.85 59.1808 367.913 58.1898 367.495C57.8169 367.31 56.4522 366.725 54.4427 365.86C53.4538 365.385 52.2421 365.025 50.939 364.566C49.6262 364.117 48.2008 363.625 46.6913 363.102C45.9411 362.845 45.1725 362.569 44.3851 362.292C43.5977 362.014 42.811 361.718 41.9729 361.524C40.3368 361.082 38.6633 360.619 36.9893 360.174C35.325 359.721 33.682 359.212 32.0725 358.817C30.4509 358.489 28.8865 358.163 27.4061 357.869L25.3656 365.743C26.959 366.06 28.5827 366.332 30.1867 366.621C31.7757 367.052 33.365 367.484 34.942 367.981C36.8654 368.616 38.8965 368.912 40.8268 369.613C42.7366 370.351 44.7515 370.828 46.5344 371.903C47.0821 372.238 47.7727 372.312 48.3832 372.497C49.3231 372.761 50.2829 373.006 51.1882 373.431L52.5619 374.025L53.8618 374.816C54.4186 375.16 54.952 375.618 55.5716 375.812C56.4637 376.084 57.3357 376.393 58.2052 376.759C59.0755 377.106 59.9342 377.5 60.76 378.016C62.4137 378.991 64.054 380.071 65.6548 381.187C68.8995 383.287 71.8715 386.061 75.0122 388.148C76.0941 388.921 77.219 389.563 78.2995 390.374C79.3807 391.166 80.4726 391.93 81.5834 392.695L84.9178 394.932C86.0392 395.668 87.1612 396.386 88.2409 397.216L94.84 402.029C95.9501 402.813 97.0185 403.69 98.0673 404.585L101.222 407.281C102.924 408.742 104.895 409.882 106.306 411.722C106.75 412.281 107.401 412.648 107.954 413.106C108.802 413.785 109.67 414.426 110.489 415.132L111.721 416.205L112.813 417.444C113.296 417.985 113.699 418.618 114.282 419.03C116.118 420.459 117.47 422.354 119.039 424.048C120.589 425.761 122.071 427.499 123.57 429.295C124.989 430.927 126.31 432.65 127.622 434.363L131.586 439.512L137.755 434.219C136.222 432.089 134.396 429.919 132.613 427.599C131.716 426.453 130.811 425.298 129.914 424.152C129.027 422.997 128.139 421.879 127.247 420.857C123.71 416.722 120.732 413.111 119.314 411.936L119.334 411.899Z" fill="white"/>
<path d="M279.167 476.495C276.215 471.213 273.21 465.854 270.213 460.504C268.652 457.85 267.072 455.215 265.452 452.616C263.841 450.009 262.172 447.455 260.386 444.993L254.558 435.421L248.558 425.88L245.855 421.558L243.036 417.288L237.377 408.749C235.531 406.103 233.431 403.638 231.408 401.138C229.357 398.646 227.44 396.103 225.682 393.375C225.36 392.85 225.059 392.287 224.649 391.825C221.644 388.441 218.813 384.97 215.571 381.786C214.126 380.344 212.708 378.912 211.371 377.369C210.26 376.091 209.339 374.84 208.474 373.609L202.109 379.066L202.525 379.614C205.176 382.832 208.054 385.821 210.931 388.829C212.872 390.984 214.744 393.203 216.852 395.222C218.052 396.379 219.178 397.734 219.968 399.18C222.056 402.974 224.831 406.168 227.389 409.563C227.606 409.857 227.891 410.105 228.166 410.363C230.675 412.577 233.259 416.79 235.119 419.588C239.435 425.967 243.342 432.578 247.346 439.154C251.158 445.798 255.066 452.408 258.716 459.056L262.594 465.95L266.366 472.869L270.207 479.743C271.459 482.042 272.739 484.315 274.049 486.597C276.705 491.146 279.364 495.656 282.129 500.104C284.691 504.154 286.357 508.284 288.191 512.715L290.58 518.555C291.361 520.504 292.17 522.445 293.066 524.341L300.651 520.775C299.915 518.656 299.102 516.592 298.249 514.545C297.358 512.516 296.447 510.505 295.517 508.493C290.654 497.789 285.007 486.97 279.187 476.477L279.167 476.495Z" fill="white"/>
<path d="M259.858 487.972C258.619 485.844 257.362 483.696 255.919 481.702C254.89 480.276 253.987 478.806 253.191 477.256C252.44 475.792 251.66 474.337 250.869 472.892C250.041 471.463 249.202 470.044 248.344 468.624C246.628 465.803 244.864 463.009 243.061 460.232C241.515 457.674 239.979 455.126 238.501 452.523C230.116 437.817 220.858 423.059 209.927 409.814C208.3 407.88 206.704 405.9 204.949 404.104C203.687 402.82 202.551 401.475 201.494 400.038C199.998 397.929 198.336 395.936 196.664 393.953C194.992 391.97 193.28 390.023 191.559 388.085L185.361 393.387L190.438 398.987C191.513 400.187 192.626 401.389 193.515 402.725C195.78 406.336 198.428 409.63 201.135 412.888C216.488 431.718 229.173 452.745 240.912 473.64C242.266 476.01 243.425 478.487 244.701 480.892C245.941 483.239 249.151 488.464 251.933 493.226C254.734 497.969 257.329 502.154 257.707 502.207C259.062 504.777 260.369 507.373 261.704 509.961C262.601 511.838 263.508 513.706 264.464 515.548C265.39 517.398 266.394 519.214 267.514 520.976C268.357 522.3 268.975 523.759 269.614 525.199C270.884 527.993 271.904 530.892 273.088 533.712L280.469 530.242C274.407 515.892 267.963 501.346 259.858 487.972Z" fill="white"/>
<path d="M254.629 528.226C254.317 527.454 253.966 526.699 253.721 525.901C253.391 524.834 252.899 523.808 252.415 522.792C252.116 522.154 251.748 521.598 251.4 521.005C250.663 519.181 249.81 517.391 248.86 515.654C247.163 512.577 245.735 508.941 243.553 506.13C243.291 505.788 243.097 505.4 242.864 505.03C241.675 502.324 240.133 499.672 238.844 497.114C238.659 496.737 238.436 496.376 238.241 496.008C237.34 493.988 236.448 491.977 235.27 489.975C234.7 489.003 234.13 488.012 233.441 487.131C231.388 484.439 229.734 481.488 227.895 478.652L223.234 471.605C222.462 470.435 221.739 469.22 221.132 467.952C220.771 467.207 220.29 466.609 219.761 466.037C218.078 463.113 216.501 460.145 214.913 457.187C213.727 454.918 212.144 452.853 210.628 450.762C210.219 450.024 209.771 449.323 209.421 448.549C208.957 447.515 208.318 446.569 207.689 445.633C207.294 445.047 206.838 444.555 206.422 444.007C205.433 442.287 204.347 440.621 203.174 439.018C202.116 437.6 201.132 436.023 200.049 434.518C198.948 433.013 197.797 431.553 196.525 430.298C196.223 429.992 195.961 429.63 195.679 429.306C194.084 426.794 192.222 424.328 190.495 422.029L189.717 421.03C188.515 419.16 187.314 417.29 185.835 415.476C185.118 414.602 184.392 413.701 183.577 412.919C181.092 410.572 178.923 407.933 176.644 405.413C175.859 404.566 175.025 403.765 174.25 402.927L168.798 407.592C170.539 409.531 172.167 411.427 173.751 413.711C174.604 415.007 175.467 416.275 176.484 417.274C178.523 419.357 180.393 421.613 182.333 423.787C183.472 425.057 184.504 426.407 185.564 427.731C186.235 429.067 186.887 430.404 187.856 431.647C188.445 432.401 189.063 433.128 189.692 433.827C190.138 434.566 190.653 435.26 191.08 436.018C191.632 436.989 192.252 437.915 192.882 438.832C194.395 440.999 196.276 442.497 197.881 444.487C198.257 445.071 198.673 445.638 199.04 446.232C204.893 455.872 209.871 466.048 216.018 475.452L217.311 477.401L218.649 479.438C220.149 481.709 221.873 483.827 223.42 486.091C224.807 488.063 225.36 490.26 226.359 492.446C227.578 495.105 229.068 497.604 230.675 500.05C232.263 502.496 233.86 504.951 235.439 507.387C239.034 512.987 242.076 518.88 245.079 524.81C247.937 530.8 250.727 536.836 253.323 542.959L259.815 539.911C259.008 537.913 258.239 535.917 257.403 533.947C256.546 531.995 255.652 530.061 254.621 528.197L254.629 528.226Z" fill="white"/>
<path d="M229 528.887C226.847 524.823 224.84 520.661 222.755 516.572C221.423 513.889 219.935 511.314 218.457 508.731C216.969 506.156 215.433 503.608 214.111 500.916C212.904 498.447 210.789 494.898 208.381 491.29C206.002 487.675 203.476 483.92 201.35 481.131C200.019 478.429 198.608 475.582 197.353 473.139C196.088 470.687 194.882 468.693 194.089 467.58C192.582 465.499 191.134 463.362 189.705 461.227C188.268 459.082 186.771 456.991 185.303 454.892C183.977 453.027 182.681 451.153 181.386 449.26L177.448 443.665C175.746 441.234 173.965 438.876 172.105 436.591C170.225 434.325 168.365 432.04 166.653 429.599C164.64 426.596 159.711 422.834 155.842 418.696L149.741 423.925C151.561 425.771 153.362 427.617 155.191 429.473C157.65 431.99 159.813 434.799 162.026 437.545C163.026 438.979 164.064 440.397 165.151 441.769C165.615 442.309 166.07 442.839 166.524 443.37C167.882 445.37 169.241 447.35 170.787 449.158C171.878 450.435 172.804 451.81 173.691 453.202C174.577 454.614 175.386 456.079 176.349 457.475C178.166 460.148 180.197 462.658 182.229 465.168C183.339 466.959 184.507 468.714 185.539 470.539C186.687 472.55 187.729 474.604 188.84 476.613C189.921 478.65 191.051 480.641 192.472 482.491C192.78 482.883 193.02 483.319 193.308 483.73L193.219 483.812C193.879 484.939 194.587 486.059 195.169 487.24C196.395 489.691 197.866 491.971 199.453 494.179C200.8 496.957 202.245 499.663 204.194 502.103C204.62 502.642 205.647 503.869 205.817 503.895L208.308 508.066C209.082 509.673 209.925 511.235 210.786 512.797C211.133 513.428 211.519 514.022 211.904 514.636C212.969 516.833 214.053 519.031 215.344 521.057C217.182 523.911 218.188 527.152 219.724 530.213C221.179 533.147 222.906 535.921 224.537 538.748C225.413 540.682 226.375 542.59 227.183 544.55C228.456 547.544 229.314 550.684 230.588 553.64L237.873 550.223C236.753 547.216 236.827 544.055 236.07 542.725C233.564 538.201 231.409 533.444 228.981 528.886L229 528.887Z" fill="white"/>
<path d="M204.358 532.274C204.113 531.732 202.94 529.616 201.232 526.587C199.505 523.556 197.321 519.558 194.819 515.434C192.347 511.282 189.722 506.888 187.2 503.019C184.718 499.114 182.477 495.627 180.78 493.301C179.736 491.303 178.236 488.538 176.52 485.461C174.765 482.42 172.746 479.093 170.798 475.864C168.88 472.608 166.828 469.641 165.205 467.137C163.542 464.651 162.24 462.691 161.477 461.769C160.926 461.035 157.363 456.576 152.776 451.07C150.438 448.368 147.863 445.39 145.307 442.433C142.69 439.568 140.092 436.722 137.794 434.202L131.625 439.495C134.205 442.321 136.933 445.009 139.414 447.964C140.901 449.807 142.555 451.514 144.072 453.349C145.569 455.183 147.331 456.809 148.464 458.961C148.819 459.621 149.427 460.119 149.918 460.689C150.655 461.544 151.44 462.372 152.156 463.264L153.227 464.597L154.139 466.076C154.532 466.719 154.847 467.434 155.348 467.994C158.21 471.144 160.595 474.865 162.784 478.73C164.904 482.659 166.907 486.66 169.123 490.317C175.207 500.64 182.322 510.319 188.167 520.936C189.435 523.037 190.878 525.05 191.758 527.382C192.025 528.105 192.562 528.705 192.993 529.368C193.63 530.352 194.286 531.318 194.893 532.329L195.794 533.855L196.501 535.507C196.806 536.231 197.003 537.018 197.435 537.661C198.847 539.72 199.679 542.061 200.753 544.287C201.855 546.505 202.696 548.855 203.75 551.1C205.719 555.261 207.224 559.632 209.019 563.862L216.381 560.41C214.371 555.336 211.823 549.205 209.615 543.838C207.349 538.526 205.345 534.05 204.384 532.341L204.358 532.274Z" fill="white"/>
<path d="M218.098 563.213C220.055 566.195 220.773 568.769 222.284 571.981C223.163 573.858 223.924 575.806 225.179 577.517C225.531 577.996 225.649 578.637 225.797 579.232C226.084 580.411 225.684 581.441 224.806 582.291C224.352 582.73 223.815 583.098 223.279 583.448C222.655 583.862 221.328 583.811 220.736 583.37C219.129 582.168 217.893 580.715 217.264 578.79C216.899 577.646 216.43 576.507 215.891 575.432C214.815 573.262 213.672 571.119 212.557 568.967C211.592 567.134 209.94 565.608 208.927 563.802L216.289 560.35C216.67 561.077 217.621 562.52 218.06 563.211L218.098 563.213Z" fill="white"/>
<path d="M239.766 555.369C240.153 556.676 240.725 559.092 241.499 560.224C243.514 563.171 243.057 564.929 244.483 568.129C244.79 568.796 244.826 569.586 244.93 570.331C245.02 570.981 244.806 571.6 244.406 572.116C244.007 572.614 243.552 573.071 243.071 573.481C242.227 574.189 241.093 574.27 240.221 573.723C239.377 573.187 238.514 572.65 237.72 572.05C237.341 571.76 237.036 571.311 236.824 570.885C236.603 570.449 236.489 569.951 236.385 569.462C235.685 566.395 235.513 564.707 233.895 562.032C233.646 561.604 232.759 559.955 232.568 559.492C231.831 557.63 231.275 555.547 230.558 553.686L237.862 550.251C238.381 551.601 239.363 553.967 239.766 555.369Z" fill="white"/>
<path d="M262.827 547.627L266.347 555.419C266.742 556.261 266.918 557.123 267.007 558.029C267.091 558.811 267.115 559.667 266.636 560.276C265.937 561.161 265.117 561.975 264.144 562.584C263.949 562.709 263.636 562.688 263.399 562.669C262.613 562.611 261.9 562.374 261.263 561.903C259.838 560.899 258.95 559.525 258.327 557.943L256.442 553.32C255.636 551.303 255.638 550.277 254.957 548.218C254.513 546.89 253.921 544.254 253.313 543.005L259.805 539.958C261.099 542.383 261.783 545.097 262.846 547.627L262.827 547.627Z" fill="white"/>
<path d="M282.263 533.798C282.902 534.962 283.171 536.122 283.878 537.261C285.889 540.559 286.604 543.721 288.237 547.223C289.213 549.265 289.996 551.395 291.292 553.269C291.652 553.796 291.806 554.495 291.972 555.128C292.303 556.395 291.928 557.493 291.059 558.371C290.614 558.82 290.086 559.199 289.541 559.558C288.907 559.98 287.571 559.881 286.953 559.392C285.285 558.045 283.978 556.456 283.308 554.35C282.919 553.1 282.415 551.864 281.834 550.683C280.68 548.311 279.439 545.983 278.247 543.629C276.835 540.801 276.927 540.643 275.176 537.982C274.871 537.514 273.286 534.242 273.021 533.738L280.403 530.268C280.91 531.171 281.718 532.893 282.234 533.806L282.263 533.798Z" fill="white"/>
<path d="M303.253 529.767C303.654 531.188 304.264 532.637 305.082 533.856C307.21 537.082 308.458 540.702 309.92 544.198C310.234 544.932 310.306 545.78 310.418 546.573C310.525 547.261 310.337 547.928 309.937 548.464C309.556 548.981 309.101 549.458 308.629 549.877C307.794 550.595 306.651 550.647 305.744 550.042C304.864 549.448 303.975 548.843 303.165 548.166C302.769 547.838 302.464 547.351 302.245 546.877C302.007 546.402 301.885 545.856 301.772 545.339C301.006 542.022 299.584 538.965 297.873 536.031C297.605 535.564 297.281 535.115 297.091 534.613C295.807 531.173 294.263 527.826 293.037 524.368L300.623 520.802C301.694 523.085 302.328 524.896 302.5 525.358C303.424 527.778 302.55 527.27 303.272 529.768L303.253 529.767Z" fill="white"/>
<path d="M1451.71 899.771C1452.52 897.175 1451.72 894.581 1451.15 892.029C1450.11 887.336 1448.81 882.692 1447.95 877.963C1446.73 871.282 1445.72 857.043 1444.63 843.871C1444.42 834.141 1444.27 824.334 1445.51 814.666C1446.83 806.292 1449.54 798.241 1451.8 790.085C1454.46 781.391 1456.14 772.38 1459.45 763.904C1459.5 763.797 1459.54 763.72 1459.59 763.592C1464.04 754.019 1470.56 745.651 1476.95 737.319C1477.31 736.93 1479.81 733.928 1481.02 732.455L1482.14 731.068C1485.48 727.195 1489 723.477 1492.51 719.76C1494 718.23 1495.66 716.842 1496.25 714.699C1497.22 711.19 1494.79 707.17 1491.09 706.822C1488.34 706.282 1485.77 708.138 1483.44 709.379C1479.19 712.015 1474.97 714.73 1470.75 717.43C1454.24 728.004 1437.75 738.656 1421.81 750.085C1402.22 763.853 1382.92 778.794 1360.38 787.447C1354.73 789.788 1328.41 798.27 1315.69 800.721C1308.24 802.719 1310.82 813.845 1318.5 812.207C1338.34 808.367 1358.07 803.148 1376.77 795.413C1392 788.666 1406.02 779.588 1419.53 769.923C1429.95 762.773 1440.03 755.652 1449.83 748.701C1448.08 751.411 1446.44 754.179 1444.96 757.052C1440.1 767.439 1437.64 778.714 1434.16 789.594C1423.67 817.548 1426.25 847.773 1428.94 876.887C1429.64 882.564 1430.8 888.17 1432.12 893.74C1433.02 898.031 1433.39 903.115 1437.72 905.435C1442.9 908.623 1450.15 905.664 1451.72 899.793L1451.71 899.771Z" fill="#A78BFA"/>
<path d="M1485.66 717.281C1474.58 724.595 1461.04 726.729 1448.08 728.105C1407.4 732.415 1370.54 719.288 1340.73 691.189C1339.62 690.137 1338.49 689.021 1337.98 687.579C1333.3 674.455 1400.98 655.858 1411.28 653.722C1422.81 651.322 1435.28 653.602 1446.65 655.975C1463.94 659.578 1485.97 671.085 1496.68 685.325C1507.69 699.974 1498.68 708.628 1485.67 717.288L1485.66 717.281Z" fill="#A78BFA"/>
<path d="M1489.24 695.999C1489.43 695.044 1488.45 694.162 1487.51 694.417C1479.39 695.964 1470.52 696.04 1461.37 696.28C1450.85 696.38 1440.41 694.84 1430 693.512C1414.16 691.279 1393.9 688.134 1377.72 681.023C1375.56 680.333 1372.97 678.201 1370.8 678.424C1368.75 678.865 1368.28 681.878 1370.14 682.894C1378.69 688.001 1388.34 690.553 1397.94 692.83C1407.18 695.023 1416.55 696.671 1425.98 697.739C1442.28 699.603 1458.72 700.993 1475.08 698.982C1479.47 698.601 1483.92 698.291 1488.2 697.174C1488.74 697.039 1489.21 696.558 1489.25 695.999L1489.24 695.999Z" fill="#F5D0FE"/>
<path d="M1394.46 688.535C1389.97 690.218 1383.44 693.367 1377.64 694.217C1376.89 694.338 1375.91 694.177 1375.2 694.899C1373.88 696.103 1374.83 698.506 1376.62 698.482C1380.63 698.533 1384.26 696.562 1387.89 695.079C1390.74 693.731 1393.96 692.8 1396.52 690.993C1397.68 689.697 1395.95 687.663 1394.46 688.549L1394.46 688.535Z" fill="#F5D0FE"/>
<path d="M1421.87 694.612C1421.81 693.368 1420.27 692.592 1419.21 693.216C1415.64 695.406 1411.75 696.996 1407.75 698.218C1405.88 699.02 1402.77 698.946 1401.55 700.596C1400.79 701.827 1401.5 703.551 1402.89 703.924C1404.07 704.219 1405.2 703.482 1406.31 703.205C1411.43 701.529 1416.48 699.464 1420.95 696.409C1421.57 696.069 1422 695.326 1421.87 694.612Z" fill="#F5D0FE"/>
<path d="M1441.4 698.331C1441.89 697.871 1442.09 697.086 1441.79 696.464C1441.43 695.326 1439.81 694.996 1438.99 695.846C1434.59 701.41 1427.71 704.029 1422.06 707.955C1421.36 708.734 1421.49 709.999 1422.19 710.741C1423.35 711.984 1424.93 711.112 1426.11 710.382C1427.52 709.545 1428.95 708.737 1430.34 707.865C1434.42 705.193 1438.5 702.317 1441.4 698.331Z" fill="#F5D0FE"/>
<path d="M1440.1 695.377C1436.98 691.224 1433.95 686.972 1430.42 683.159C1429.44 682.283 1428.6 681.089 1427.38 680.54C1426.01 679.835 1424.27 680.516 1423.5 681.797C1422.18 683.927 1424.07 685.777 1425.55 687.161C1427.25 688.855 1428.85 690.635 1430.38 692.485C1432.1 694.576 1433.83 696.645 1435.5 698.771C1436.02 699.322 1436.76 699.639 1437.52 699.645C1439.66 699.72 1441.17 697.243 1440.1 695.377Z" fill="#F5D0FE"/>
<path d="M1419.53 693.088C1414.2 688.393 1412.99 685.475 1408.08 680.553C1406.44 679.311 1405.17 676.944 1403.09 676.537C1402 676.518 1401.08 677.417 1401.06 678.499C1401.17 679.934 1402.42 680.986 1403.14 682.159C1405.3 685.154 1407.82 687.865 1410.23 690.655C1412.59 692.872 1415.78 695.208 1417.33 696.287C1419.22 697.225 1421.05 694.535 1419.54 693.081L1419.53 693.088Z" fill="#F5D0FE"/>
<path d="M1393.82 687.158C1391.47 685.061 1389.92 682.235 1387.74 679.961C1386.02 678.444 1384.68 676.36 1382.77 675.132C1380.29 673.898 1377.88 677.43 1379.88 679.336C1382.16 681.971 1384.55 684.534 1386.86 687.147C1388.38 688.531 1389.71 690.615 1391.76 691.17C1393.92 691.62 1395.41 688.669 1393.82 687.151L1393.82 687.158Z" fill="#F5D0FE"/>
<path d="M1493.55 980.002C1483.09 994.556 1467.19 1004.44 1448.89 1009.64C1427.55 1015.69 1406.99 1016.28 1387.69 1004.26C1372.6 994.859 1358.83 982.993 1349.88 967.414C1340.53 951.178 1337.98 932.288 1342.68 914.144C1345.52 903.18 1348.11 891.749 1355.04 882.518C1363.77 870.866 1374.09 863.667 1389.04 863.157C1398.37 862.84 1405.58 866.966 1413.02 872.067C1424.73 880.104 1436.01 892.236 1440.96 905.777C1449.33 899.655 1463.33 893.949 1473.9 895.405C1485.23 896.972 1493.86 907.043 1498.95 916.567C1505.27 928.381 1507.65 942.795 1504.51 955.902C1502.33 964.999 1498.56 973.023 1493.57 979.988L1493.55 980.002Z" fill="#F086A9" stroke="#A78BFA" stroke-width="7" stroke-linejoin="round"/>
<path d="M1298.72 899.217C1281.12 902.616 1262.77 898.888 1245.9 890.102C1226.23 879.856 1210.88 866.154 1205.1 844.171C1200.58 826.981 1198.73 808.896 1202.9 791.424C1207.26 773.203 1218.37 757.715 1234.24 747.757C1243.84 741.733 1253.56 735.206 1264.94 733.245C1279.29 730.777 1291.74 732.626 1302.96 742.516C1309.95 748.686 1312.36 756.637 1314.27 765.459C1317.27 779.349 1317.14 795.91 1311.44 809.155C1321.72 810.441 1335.83 815.915 1342.51 824.228C1349.67 833.148 1349.02 846.386 1346.18 856.813C1342.66 869.744 1334.5 881.855 1323.21 889.225C1315.38 894.342 1307.14 897.592 1298.72 899.217Z" fill="#F086A9" stroke="#A78BFA" stroke-width="7" stroke-linejoin="round"/>
<path d="M1324.4 862.163C1328.81 855.976 1331.01 847.678 1330.01 840.17C1328.01 831.08 1314.36 831.92 1313.15 841.093C1311.74 847.65 1313.28 843.638 1311.07 848.903L1311.01 849.016C1310.64 849.575 1309.93 850.608 1309.27 851.415C1307.81 852.704 1306.08 853.647 1304.54 854.816C1301.11 857.36 1299.9 862.743 1302.31 866.339C1307.72 875.615 1319.53 868.456 1324.4 862.177L1324.4 862.163Z" fill="#FDE68A"/>
<path d="M1289.61 866.088C1284.91 867.29 1288.05 866.72 1282.16 867.669C1277.83 867.675 1273.86 869.965 1274.32 874.801C1274.67 877.699 1277.14 880.015 1279.99 880.223C1280.14 880.237 1280.35 880.265 1280.7 880.293C1284.87 880.859 1289.01 880.556 1293.04 879.377C1303.26 877.594 1299.42 862.68 1289.61 866.102L1289.61 866.088Z" fill="#FDE68A"/>
<path d="M1356.07 360.616C1353.63 364.015 1350.85 373.15 1347.69 375.114C1341.52 378.945 1340.36 368.371 1339.78 363.406C1339.13 357.95 1338.81 359.237 1334.16 355.715C1332.24 354.257 1327.28 350.416 1327.28 347.876C1327.28 342.509 1333.09 342.032 1338.43 342.953C1341.01 343.397 1343.5 341.909 1344.36 339.447C1345.93 334.996 1348.79 330.071 1353.49 329.248C1361.22 327.898 1357.93 339.58 1358.77 344.394C1359.27 347.27 1361.17 347.473 1363.53 348.334C1366.69 349.48 1376.37 355.786 1369.82 358.898C1367.63 359.939 1365.01 360.289 1362.62 360.538C1361.91 360.613 1356.3 360.301 1356.07 360.617L1356.07 360.616Z" fill="#F086A9"/>
<path d="M1398.83 348.592C1395.97 352.58 1392.71 363.295 1389 365.601C1381.76 370.1 1380.4 357.69 1379.72 351.866C1378.96 345.465 1378.57 346.975 1373.13 342.842C1370.87 341.132 1365.05 336.623 1365.05 333.64C1365.04 327.345 1371.87 326.783 1378.14 327.865C1381.15 328.386 1384.08 326.64 1385.1 323.751C1386.93 318.526 1390.29 312.748 1395.8 311.788C1404.87 310.2 1401.02 323.912 1402 329.558C1402.59 332.93 1404.81 333.169 1407.59 334.181C1411.29 335.526 1422.65 342.924 1414.97 346.576C1412.4 347.801 1409.32 348.21 1406.52 348.503C1405.69 348.591 1399.11 348.228 1398.84 348.597L1398.83 348.592Z" fill="#F086A9"/>
<path d="M1370.05 311.357C1368.58 313.411 1366.9 318.936 1364.98 320.125C1361.25 322.444 1360.55 316.045 1360.2 313.048C1359.81 309.749 1359.61 310.528 1356.8 308.396C1355.64 307.514 1352.64 305.189 1352.64 303.653C1352.63 300.407 1356.15 300.116 1359.38 300.678C1360.94 300.947 1362.45 300.045 1362.97 298.557C1363.92 295.864 1365.65 292.887 1368.49 292.388C1373.16 291.57 1371.18 298.639 1371.68 301.547C1371.99 303.287 1373.13 303.407 1374.57 303.928C1376.47 304.62 1382.32 308.433 1378.37 310.319C1377.04 310.95 1375.46 311.159 1374.01 311.31C1373.58 311.355 1370.19 311.165 1370.05 311.361L1370.05 311.357Z" fill="#F086A9"/>
</g>
</g>
<defs>
<radialGradient id="paint0_radial_191_2425" cx="0" cy="0" r="1" gradientUnits="userSpaceOnUse" gradientTransform="translate(-148.5 -631) rotate(62.694) scale(1780.95 3166.14)">
<stop stop-color="#F472B6"/>
<stop offset="1" stop-color="#FFBF85"/>
</radialGradient>
<clipPath id="clip0_191_2425">
<rect width="1440" height="1080" fill="white"/>
</clipPath>
<clipPath id="clip1_191_2425">
<rect width="1440" height="1080" fill="white"/>
</clipPath>
</defs>
</svg>
