<svg width="1920" height="1661" viewBox="0 0 1920 1661" fill="none" xmlns="http://www.w3.org/2000/svg">
<path d="M1604.46 402.537C1606.43 394.389 1611.67 387.075 1618.75 382.594C1622.19 380.415 1627.23 379.11 1629.95 382.134C1631.73 384.103 1631.68 387.064 1631.44 389.703C1630.67 397.872 1628.91 405.951 1626.21 413.694C1629.25 407.84 1632.37 401.872 1637.1 397.282C1641.84 392.692 1648.56 389.632 1655.02 390.928C1657.34 399.725 1654.07 409.247 1648.56 416.488C1643.06 423.73 1635.52 429.119 1628.1 434.385C1625.57 436.19 1622.77 438.072 1619.66 437.905C1606.3 437.187 1602.25 411.737 1604.46 402.525L1604.46 402.537Z" fill="#F5F3FF"/>
<path d="M1496.22 262.339C1497.07 260.769 1498.18 259.29 1499.71 258.371C1501.25 257.459 1503.26 257.205 1504.81 258.065C1506.36 258.918 1507.18 260.643 1507.76 262.31C1510.22 269.52 1509.62 277.377 1508.98 284.97C1511.61 278.426 1514.3 271.756 1518.89 266.396C1520.09 264.987 1521.61 263.596 1523.46 263.566C1525.83 263.523 1527.58 265.68 1528.95 267.624C1530.51 269.85 1532.14 272.284 1532.1 275.009C1532.06 278.025 1529.99 280.586 1528.03 282.874C1523.58 288.063 1515.48 300.608 1507.41 298.81C1499.37 297.023 1495.17 284.425 1494.07 277.419C1493.28 272.333 1493.72 266.917 1496.21 262.332L1496.22 262.339Z" fill="#F5F3FF"/>
<path d="M1682.2 290.632C1682.89 284.497 1686.48 278.363 1692.26 276.191C1695.61 278.188 1697.14 282.374 1697.03 286.268C1696.91 290.161 1695.44 293.879 1693.99 297.495C1696.6 292.905 1699.69 287.925 1704.76 286.475C1706.45 285.994 1708.43 286.015 1709.77 287.14C1711.69 288.75 1711.47 291.844 1710.32 294.076C1708.16 298.296 1703.69 300.773 1699.27 302.509C1696.57 303.572 1693.79 304.445 1691.16 305.663C1689.26 306.536 1686.66 308.626 1684.81 306.675C1683.3 305.076 1682.91 300.983 1682.55 298.881C1682.07 296.157 1681.88 293.377 1682.2 290.626L1682.2 290.632Z" fill="#F5F3FF"/>
<path d="M239.989 653.511C241.066 647.503 238.98 633.735 241.902 629.165C247.62 620.242 255.781 633.435 259.672 639.601C263.95 646.376 263.568 644.478 271.896 646.193C275.339 646.906 284.288 648.84 285.887 652.181C289.261 659.243 281.904 663.529 274.298 665.672C270.633 666.705 268.286 670.231 268.699 674.012C269.435 680.855 268.765 689.134 263.103 693.169C253.77 699.808 250.761 682.365 246.629 676.557C244.163 673.087 241.534 674.014 237.882 674.367C233.014 674.839 216.313 672.624 222.965 664.417C225.199 661.668 228.427 659.56 231.413 657.733C232.302 657.186 239.884 654.07 239.982 653.513L239.989 653.511Z" fill="#FDE68A"/>
<path d="M191.267 696.212C192.527 689.165 190.084 673.013 193.515 667.648C200.221 657.174 209.8 672.657 214.368 679.889C219.386 687.837 218.943 685.607 228.709 687.624C232.749 688.458 243.251 690.73 245.126 694.656C249.088 702.938 240.453 707.97 231.531 710.482C227.235 711.692 224.477 715.831 224.956 720.271C225.824 728.301 225.035 738.017 218.39 742.741C207.446 750.535 203.906 730.064 199.06 723.253C196.162 719.187 193.088 720.269 188.795 720.683C183.087 721.236 163.489 718.638 171.294 709.008C173.909 705.78 177.699 703.309 181.2 701.163C182.242 700.524 191.135 696.864 191.259 696.207L191.267 696.212Z" fill="#FDE68A"/>
<path d="M252.545 727.127C253.197 723.497 251.936 715.168 253.705 712.403C257.161 707.004 262.101 714.986 264.449 718.71C267.039 722.804 266.806 721.656 271.845 722.696C273.927 723.126 279.342 724.299 280.308 726.32C282.352 730.589 277.904 733.185 273.3 734.475C271.085 735.097 269.664 737.234 269.911 739.521C270.358 743.66 269.953 748.665 266.529 751.106C260.888 755.123 259.061 744.571 256.566 741.063C255.073 738.962 253.486 739.526 251.276 739.74C248.336 740.025 238.234 738.687 242.255 733.72C243.602 732.056 245.557 730.785 247.364 729.678C247.902 729.347 252.488 727.464 252.544 727.121L252.545 727.127Z" fill="#FDE68A"/>
<path d="M1636.99 1061.07C1633.94 1063.94 1629.46 1072.37 1625.98 1073.69C1619.18 1076.26 1620.09 1065.66 1620.47 1060.68C1620.88 1055.2 1620.31 1056.4 1616.43 1052.05C1614.83 1050.25 1610.69 1045.53 1611.18 1043.04C1612.21 1037.77 1618.01 1038.42 1623.07 1040.35C1625.51 1041.28 1628.25 1040.3 1629.57 1038.05C1631.96 1033.98 1635.71 1029.69 1640.48 1029.79C1648.33 1029.95 1642.85 1040.78 1642.75 1045.67C1642.69 1048.59 1644.52 1049.15 1646.67 1050.45C1649.55 1052.18 1657.83 1060.23 1650.82 1062.03C1648.46 1062.63 1645.82 1062.47 1643.43 1062.25C1642.72 1062.19 1637.27 1060.8 1636.99 1061.07L1636.99 1061.07Z" fill="#F086A9"/>
<path d="M1681.26 1057.49C1677.69 1060.85 1672.43 1070.74 1668.35 1072.29C1660.37 1075.31 1661.43 1062.87 1661.87 1057.02C1662.36 1050.6 1661.69 1052.01 1657.14 1046.9C1655.26 1044.79 1650.41 1039.25 1650.98 1036.32C1652.19 1030.14 1659 1030.9 1664.94 1033.17C1667.79 1034.26 1671.01 1033.11 1672.56 1030.47C1675.36 1025.69 1679.77 1020.67 1685.36 1020.78C1694.57 1020.97 1688.15 1033.68 1688.03 1039.41C1687.96 1042.84 1690.1 1043.5 1692.63 1045.03C1696 1047.06 1705.72 1056.5 1697.49 1058.61C1694.73 1059.32 1691.63 1059.13 1688.83 1058.88C1687.99 1058.8 1681.6 1057.18 1681.27 1057.49L1681.26 1057.49Z" fill="#F086A9"/>
<path d="M1660.17 1015.41C1658.33 1017.15 1655.62 1022.25 1653.52 1023.05C1649.41 1024.6 1649.95 1018.19 1650.18 1015.18C1650.43 1011.87 1650.09 1012.6 1647.74 1009.96C1646.77 1008.87 1644.27 1006.02 1644.56 1004.51C1645.18 1001.32 1648.69 1001.71 1651.75 1002.88C1653.23 1003.45 1654.88 1002.85 1655.68 1001.49C1657.13 999.031 1659.4 996.442 1662.28 996.498C1667.03 996.594 1663.72 1003.15 1663.66 1006.1C1663.62 1007.87 1664.73 1008.2 1666.03 1008.99C1667.77 1010.04 1672.78 1014.9 1668.53 1015.99C1667.11 1016.36 1665.52 1016.26 1664.07 1016.13C1663.64 1016.09 1660.34 1015.25 1660.17 1015.42L1660.17 1015.41Z" fill="#F086A9"/>
<path d="M277.454 1275.19C272.5 1268.43 270.295 1259.71 271.441 1251.41C272 1247.37 274.253 1242.68 278.323 1242.55C280.974 1242.47 283.205 1244.41 285.062 1246.3C290.808 1252.16 295.842 1258.72 300.012 1265.78C297.503 1259.68 294.958 1253.45 294.508 1246.87C294.058 1240.29 296.06 1233.18 301.22 1229.08C309.436 1232.99 314.597 1241.63 316.575 1250.51C318.553 1259.39 317.805 1268.62 317.04 1277.69C316.782 1280.79 316.413 1284.14 314.281 1286.41C305.106 1296.16 283.052 1282.82 277.448 1275.18L277.454 1275.19Z" fill="#F5F3FF"/>
</svg>
