<svg width="1920" height="1661" viewBox="0 0 1920 1661" fill="none" xmlns="http://www.w3.org/2000/svg">
<g clip-path="url(#clip0_21_362)">
<rect width="1920" height="1661" fill="white"/>
<rect width="1920" height="1661" transform="matrix(-1 -8.74228e-08 -8.74228e-08 1 1920 0)" fill="url(#paint0_radial_21_362)"/>
<path d="M451.735 1799.62C409.921 1796.27 371.827 1787.49 336.293 1774.93C300.606 1762.53 267.94 1745.89 238.174 1725.22C209.299 1703.53 183.193 1677.54 166.579 1642.68C158.614 1625.14 153.335 1605.32 153.135 1583.51C152.622 1561.75 158.884 1538 169.548 1515.95C174.341 1504.74 181.007 1494.4 187.765 1484.02C191.336 1479 195.258 1474.25 199.021 1469.4L204.872 1462.2L211.112 1455.61L223.845 1442.47C228.19 1438.39 232.726 1434.49 237.263 1430.58C246.171 1422.41 255.612 1415.64 264.888 1408.51C302.16 1380.62 349.399 1356.18 400.845 1343.84C453.586 1333.33 505.911 1337.63 547.005 1351.7C567.908 1358.53 586.779 1367.33 603.514 1377.63C620.403 1387.78 635.622 1399.21 649.008 1411.58C662.766 1423.77 674.912 1436.88 685.689 1450.71C696.746 1464.4 706.189 1479.02 714.511 1494.14C731.189 1524.47 743.299 1557.17 748.66 1593.14C750.164 1602.06 750.954 1611.39 751.525 1620.74C751.722 1630.26 751.709 1640.31 750.94 1648.71C750.336 1657.47 749.92 1666.15 748.629 1675.14C747.619 1684 746.515 1692.91 744.632 1702.09C738 1738.3 726.875 1776.06 705.234 1814.08C684.406 1851.89 650.954 1889.8 608.801 1918.65C566.395 1947.43 517.491 1965.79 471.591 1974.46C448.594 1978.81 426.027 1981.15 404.026 1982.01C382.146 1982.65 360.991 1981.91 340.348 1980.07C299.336 1976.01 260.873 1967.66 224.982 1956.05C143.798 1929.36 74.1691 1887.22 20.9443 1831.81C-14.9062 1799.4 -44.8523 1760.89 -63.722 1715.72C-82.7455 1670.72 -89.918 1618.52 -80.6116 1564.28C-75.6138 1543.2 -68.8588 1521.99 -59.706 1501.33C-55.05 1491.05 -50.0815 1480.71 -44.5695 1470.81C-38.805 1460.97 -33.3266 1451 -27.0571 1441.28C-2.01242 1402.3 30.1119 1365.43 67.1955 1332.95C142.575 1268.9 234.157 1224.31 325.415 1197.45C416.735 1167.53 510.62 1153.74 600.887 1154.95C689.902 1159.34 774.898 1179.08 846.199 1216.99L872.944 1231.34L898.19 1247.6L921.649 1265.63L942.775 1284.73C969.863 1311.13 992.778 1340.75 1010.94 1372.83C1044.64 1438.17 1058.49 1512.23 1053.92 1587.84C1051.24 1655.22 1034.32 1724.39 1004.46 1791.47C975.786 1858.69 934.559 1924.69 880.798 1984.59C825.83 2043.83 758.78 2096 685.423 2137.91C649.17 2158.93 611.085 2177.93 571.531 2194.24C531.747 2210.05 490.422 2222.75 448.446 2231.34C364.539 2249.1 278.208 2246.86 204.212 2225.95C167.821 2214.48 133.995 2199.49 103.965 2181.2C74.9557 2163.64 48.3783 2145.23 21.9112 2126.07C-30.4957 2087.43 -79.9475 2045.87 -122.973 1997.63C-144.629 1974.18 -164.812 1949.01 -180.992 1920.01C-188.958 1905.41 -195.969 1889.94 -200.816 1872.78C-205.63 1855.69 -208.285 1836.65 -205.894 1815.55C-172.923 1827.21 -137.778 1830.08 -102.229 1828.17C-97.2397 1853.75 -81.0979 1880.95 -61.1063 1905.94C-41.016 1931.15 -16.9009 1955.03 9.22911 1977.63C34.5074 2001.58 62.0859 2024.38 90.9005 2046.17C105.292 2057.04 120.057 2067.73 135.096 2078.03L157.837 2093.28C165.447 2098.26 173.344 2103.37 180.62 2107.38L197.416 2116.09C203.189 2118.8 209.204 2121.06 215.004 2123.58C226.423 2128.97 239.21 2132.18 251.234 2136.42C257.49 2138.22 263.957 2139.48 270.241 2141.09L279.681 2143.41C282.897 2144.01 286.266 2144.45 289.449 2144.98L308.988 2148.1L329.062 2149.68C355.534 2152.39 382.88 2153.3 411.053 2150.12L421.619 2149.23C425.16 2148.82 428.695 2148.14 432.203 2147.65C439.279 2146.56 446.388 2145.54 453.525 2144.33C467.81 2140.95 482.116 2138.61 496.44 2134.09C512.768 2129.26 528.867 2122.46 545.009 2116.24C560.877 2108.93 576.915 2102.24 592.35 2093.75C608.054 2086.09 623.221 2076.77 638.464 2068.1C653.159 2058.74 667.986 2049.66 681.814 2039.4C740.243 2001.68 791.702 1954.96 834.55 1903.55C854.295 1877.14 871.253 1849.59 885.784 1821.69C900.409 1793.75 912.289 1765.25 921.058 1736.62C930.863 1708.04 938.029 1679.37 942.307 1650.82C946.365 1622.29 947.416 1594.1 945.622 1566.62C942.282 1511.44 925.069 1459.8 897.34 1414.56C883.863 1391.68 867.277 1370.4 848.155 1350.97C843.157 1346.26 838.406 1341.35 833.348 1336.75L817.85 1323.98L801.022 1312.24C795.289 1308.39 788.941 1305.16 782.96 1301.51C732.225 1275.35 671.152 1259.65 605.999 1254.76C540.819 1250.05 471.713 1254.51 404.027 1269.91C336.648 1286.47 270.851 1312.61 214.805 1348.63C161.145 1380 113.88 1419.85 80.7991 1466.68C47.8937 1514.39 30.5543 1564.45 32.274 1612.66C33.5217 1660.83 53.2797 1706.45 84.7125 1745.48C130.327 1795.91 195.233 1834.42 267.966 1856.52C320.66 1875.64 379.738 1886.01 436.498 1881.52C450.633 1880.04 464.375 1877.7 477.721 1874.49C490.875 1871.12 503.349 1866.77 514.989 1861.58C526.662 1856.46 537.053 1850.04 546.834 1843.02C556.614 1836.01 565.335 1827.92 573.218 1818.75C605.962 1782.99 623.315 1730.5 628.065 1677.66L630.164 1657.65C630.36 1651.93 630.934 1646.3 630.592 1640.4C630.446 1628.78 628.817 1616.89 626.091 1605.07C620.985 1581.44 611.274 1558.38 598.707 1536.98C584.399 1516.47 566.989 1497.82 546.919 1482.73C536.929 1475.04 526.146 1468.57 515.221 1462.78C503.961 1457.49 492.46 1452.66 480.556 1449.65C433.55 1436.75 385.673 1447.02 338.138 1478.42C332.153 1482.13 326.435 1486.67 320.581 1490.66C314.952 1494.9 310.173 1499.26 304.857 1503.44C296.085 1512.15 287.342 1520.68 282.396 1529.11C280.869 1531.19 279.434 1533.24 278.598 1535.36L275.428 1541.49C274.163 1545.62 272.266 1549.61 271.818 1553.8C270.26 1561.97 270.029 1570.56 272.57 1579.52C275.326 1588.2 279.624 1597.05 286.112 1605.49C292.1 1614.07 300.153 1622.23 308.92 1629.97C326.859 1645.34 348.625 1658.96 372.907 1669.68C396.168 1681.14 421.555 1690.58 447.812 1696.5C460.884 1699.83 474.238 1701.56 487.273 1703.09C500.331 1704.18 512.995 1704.41 524.632 1703.64C516.361 1719.83 505.46 1736.45 492.561 1752.17C480.403 1768.76 466.807 1784.2 451.586 1800.04L451.735 1799.62Z" fill="#F5B27E"/>
<path d="M-431.565 157.895C-388.372 196.232 -344.714 243.44 -289.354 260.349C-224.978 280.009 -162.228 247.403 -102.618 220.901C-49.4548 197.224 5.98392 180.431 61.6901 197.971C120.312 216.449 170.788 265.206 216.669 306.819C262.252 348.094 308.596 388.32 368.503 401.54C423.711 413.718 472.254 392.187 519.401 360.14C564.011 329.832 607.267 296.837 658.875 283.752C722.161 267.679 785.492 284.651 841.026 315.873C899.871 348.957 950.089 400.216 994.681 455.7C1067.61 411.836 1162.8 415.288 1240.39 437.571C1355.08 470.54 1452.82 550.684 1536.75 638.633C1566.01 608.648 1607.22 593.576 1647.82 590.971C1721.51 586.237 1795.14 611.243 1862.02 639.923C1930.27 669.201 1994.39 708.022 2053.97 754.05C2269.91 920.912 2426.51 1181.88 2521.67 1449.79C2531.01 1476.06 2539.55 1502.75 2547.54 1529.57C2558.21 1565.32 2507.23 1586.12 2496.55 1550.42C2413.99 1273.45 2263.23 1010.4 2054.82 829.349C1993.94 776.451 1926.65 734.206 1854.76 700.911C1791.98 671.856 1721.49 646.245 1651.52 649.516C1619.37 651.026 1593.41 660.998 1575.08 680.431C1608.75 718.756 1640.66 759.023 1671.57 800.01C1699.68 837.246 1728.64 874.583 1752.3 915.472C1791.33 982.9 1829.53 1057.03 1843.27 1136.93C1849.07 1170.88 1845 1208.32 1819.74 1232.87C1791.04 1260.69 1743.78 1254.8 1711.43 1243.19C1611.41 1207.22 1558.19 1078.39 1526.4 977.797C1498.89 890.802 1474.33 785.09 1504.11 693.208C1504.62 691.601 1505.3 690.141 1505.84 688.599C1433.75 611.517 1352.15 543.438 1256.71 504.977C1190.84 478.408 1098.03 466.275 1029.85 501.5C1038.22 512.972 1046.45 524.416 1054.47 535.824C1084.67 578.718 1111.98 624.081 1133.24 673.248C1150.55 713.41 1161.2 757.549 1146.85 801.578C1134.17 840.423 1099.51 861.245 1063.76 853.302C1025.98 844.871 993.959 813.198 968.325 784.014C941.303 753.156 917.515 718.478 900.905 679.523C880.297 631.042 900.352 562.968 927.942 520.603C935.007 509.732 942.795 499.957 951.088 491.07C925.371 460.397 897.882 431.776 869.025 406.641C819.643 363.641 757.227 331.764 691.73 337C638.571 341.24 593.299 377.885 549.247 408.24C503.956 439.441 455.991 463.686 402.359 464.098C340.317 464.592 284.969 436.804 235.845 399.348C181.982 358.293 135.969 306.569 78.8001 270.283C17.3572 231.221 -44.2632 257.463 -106.241 285.622C-170.793 314.891 -237.78 337.587 -306.057 316.749C-368.92 297.54 -418.125 246.923 -467.286 203.284C-493.768 179.779 -457.878 134.592 -431.346 158.105L-431.565 157.895ZM1545.86 748.22C1539.63 794.267 1548.98 842.87 1558.51 886.969C1570.71 943.579 1588.92 999.435 1613.08 1050.96C1635.87 1099.62 1666.14 1150.68 1710.57 1178.2C1727.29 1188.56 1746.95 1193.91 1766.47 1193.62C1772.87 1193.51 1778.16 1192.51 1783.99 1189.96C1786.84 1188.73 1787.62 1186.73 1788.8 1184.28C1792.18 1177.43 1791.87 1163.6 1790.52 1151.17C1788.52 1132.27 1782.49 1113.98 1776.55 1096.33C1763.44 1057.4 1745.65 1020.66 1726.79 984.914C1679.99 896.379 1617.06 817.372 1553.77 742.775C1551.88 740.497 1549.87 738.255 1547.97 736.031C1547.18 739.966 1546.48 744.029 1545.91 748.229L1545.86 748.22ZM956.067 583.513C947.718 604.347 942.544 634.157 950.334 655.154C956.675 672.312 967.067 687.898 976.874 702.753C998.836 735.901 1026.55 769.154 1059.95 788.673C1083.55 802.462 1100.96 795.495 1100.18 760.84C1099.21 715.608 1072.37 671.013 1051.25 634.734C1031.57 600.933 1009.59 567.327 985.741 535.189C973.855 548.452 963.721 564.477 956.057 583.568L956.067 583.513Z" fill="#F5B27E"/>
<path d="M1387.29 1244.94C1387.22 1245.06 1387.15 1245.18 1387.08 1245.29C1388.26 1243.36 1388.03 1243.74 1387.29 1244.94Z" fill="#A78BFA"/>
<path d="M1380.89 1437.21C1381.38 1434.17 1380.07 1431.39 1379.04 1428.61C1377.13 1423.51 1374.94 1418.51 1373.22 1413.35C1370.8 1406.05 1367.41 1390.24 1364.11 1375.64C1362.33 1364.76 1360.61 1353.79 1360.47 1342.75C1360.63 1333.15 1362.4 1323.69 1363.64 1314.19C1365.24 1304.02 1365.7 1293.65 1368.08 1283.62C1368.11 1283.49 1368.14 1283.4 1368.18 1283.25C1371.66 1271.81 1377.65 1261.39 1383.49 1251.04C1383.83 1250.55 1386.16 1246.78 1387.29 1244.94L1388.32 1243.21C1391.45 1238.34 1394.81 1233.61 1398.16 1228.89C1399.6 1226.93 1401.23 1225.12 1401.56 1222.62C1402.1 1218.53 1398.73 1214.41 1394.52 1214.6C1391.35 1214.43 1388.76 1216.92 1386.35 1218.68C1382 1222.31 1377.7 1226.02 1373.4 1229.72C1356.55 1244.19 1339.75 1258.74 1323.68 1274.08C1303.89 1292.62 1284.61 1312.42 1260.71 1325.69C1254.74 1329.21 1226.56 1342.89 1212.68 1347.65C1204.65 1351.07 1209.3 1363.14 1217.65 1360.09C1239.29 1352.64 1260.6 1343.67 1280.34 1332.03C1296.35 1322.06 1310.64 1309.66 1324.26 1296.68C1334.81 1287.02 1344.99 1277.44 1354.88 1268.09C1353.35 1271.41 1351.95 1274.77 1350.74 1278.23C1346.93 1290.65 1345.96 1303.68 1343.78 1316.43C1336.44 1349.44 1344.12 1382.92 1351.74 1415.15C1353.41 1421.4 1355.6 1427.51 1357.97 1433.54C1359.66 1438.21 1360.88 1443.85 1366.09 1445.77C1372.41 1448.53 1380.08 1444.06 1380.9 1437.23L1380.89 1437.21Z" fill="#A78BFA"/>
<path d="M1390.09 1227.19C1378.83 1237.14 1363.98 1241.68 1349.66 1245.27C1304.73 1256.54 1261.32 1247.65 1223.44 1220.86C1222.03 1219.85 1220.58 1218.78 1219.78 1217.25C1212.46 1203.27 1285.42 1171.71 1296.62 1167.68C1309.17 1163.17 1323.52 1163.75 1336.65 1164.61C1356.61 1165.92 1383.13 1175.34 1397.39 1189.61C1412.06 1204.3 1403.32 1215.43 1390.1 1227.2L1390.09 1227.19Z" fill="#A78BFA"/>
<path d="M1487.98 1342.88C1485.89 1344.58 1484.03 1343.43 1481.18 1338.18C1475.21 1327.18 1460.2 1323.88 1449.48 1319.49C1414.12 1304.99 1375.84 1284.53 1383.61 1239.97C1385.78 1226.84 1391.69 1214.55 1397.09 1202.48C1397.24 1202.21 1397.4 1201.98 1397.6 1201.77C1397.14 1198.38 1402.02 1196.6 1403.79 1199.69C1406.59 1206.23 1409.94 1212.01 1415.6 1216.33C1426.74 1224.32 1437.07 1224.49 1449.82 1227.8C1484.7 1236.88 1510.48 1290.29 1498.36 1324.12C1496.77 1328.56 1494.68 1333.12 1492.22 1337.14C1490.55 1339.86 1489.22 1341.85 1487.98 1342.86L1487.98 1342.88Z" fill="#A78BFA"/>
<path d="M1390.74 1202.76C1390.8 1201.66 1389.56 1200.82 1388.55 1201.26C1379.69 1204.28 1369.75 1205.77 1359.53 1207.48C1347.74 1209.26 1335.79 1209.18 1323.91 1209.34C1305.8 1209.34 1282.58 1209.02 1263.3 1203.61C1260.78 1203.17 1257.54 1201.19 1255.14 1201.79C1252.91 1202.61 1252.85 1206.06 1255.11 1206.9C1265.51 1211.28 1276.72 1212.61 1287.85 1213.65C1298.56 1214.65 1309.33 1215.01 1320.07 1214.72C1338.65 1214.23 1357.3 1213.19 1375.33 1208.34C1380.2 1207.22 1385.13 1206.17 1389.75 1204.24C1390.34 1204 1390.79 1203.39 1390.76 1202.76L1390.74 1202.76Z" fill="#F5D0FE"/>
<path d="M1283.27 1209.38C1278.5 1211.98 1271.68 1216.54 1265.3 1218.42C1264.49 1218.67 1263.36 1218.64 1262.68 1219.57C1261.38 1221.13 1262.83 1223.67 1264.83 1223.36C1269.35 1222.78 1273.11 1220 1276.94 1217.76C1279.93 1215.8 1283.38 1214.24 1285.97 1211.81C1287.06 1210.18 1284.8 1208.17 1283.27 1209.4L1283.27 1209.38Z" fill="#F5D0FE"/>
<path d="M1314.96 1211.86C1314.7 1210.48 1312.85 1209.85 1311.76 1210.72C1308.11 1213.74 1304 1216.14 1299.71 1218.14C1297.73 1219.33 1294.24 1219.74 1293.13 1221.79C1292.47 1223.29 1293.54 1225.11 1295.16 1225.31C1296.53 1225.45 1297.68 1224.45 1298.88 1223.96C1304.35 1221.27 1309.69 1218.15 1314.22 1214.02C1314.86 1213.54 1315.23 1212.64 1314.96 1211.86Z" fill="#F5D0FE"/>
<path d="M1337.46 1212.94C1337.93 1212.35 1338.04 1211.44 1337.61 1210.79C1337.02 1209.57 1335.15 1209.45 1334.37 1210.54C1330.31 1217.47 1323.01 1221.5 1317.3 1226.79C1316.63 1227.78 1316.98 1229.18 1317.88 1229.9C1319.38 1231.11 1321.01 1229.88 1322.22 1228.87C1323.67 1227.71 1325.14 1226.58 1326.57 1225.38C1330.72 1221.74 1334.84 1217.87 1337.46 1212.94Z" fill="#F5D0FE"/>
<path d="M1362.08 1211.27C1364.01 1208.78 1360.22 1205.84 1358.27 1208.31C1355.44 1212.51 1351.9 1215.98 1349.38 1218.33C1348.64 1218.88 1348.23 1219.92 1348.52 1220.8C1348.74 1221.95 1349.95 1222.7 1351.09 1222.56C1352.32 1222.41 1353.02 1221.22 1353.94 1220.51C1356.89 1217.64 1359.77 1214.67 1362.09 1211.26L1362.08 1211.27Z" fill="#F5D0FE"/>
<path d="M1361.13 1207.51C1355.37 1203.72 1350.32 1198.65 1344.13 1195.59C1340.95 1194.53 1338.67 1199.16 1341.37 1201.12C1345.07 1204.66 1349.35 1207.52 1353.55 1210.43C1355.47 1211.46 1357.17 1213.59 1359.49 1213.42C1362.33 1213.16 1363.43 1209.19 1361.12 1207.51L1361.13 1207.51Z" fill="#F5D0FE"/>
<path d="M1335.53 1209.84C1331.38 1205.67 1327.3 1201.38 1322.74 1197.66C1321.51 1196.84 1320.38 1195.63 1318.92 1195.21C1317.27 1194.63 1315.43 1195.67 1314.77 1197.23C1313.63 1199.83 1316.03 1201.61 1317.92 1202.92C1320.09 1204.55 1322.17 1206.3 1324.18 1208.13C1326.43 1210.2 1328.71 1212.25 1330.91 1214.37C1331.58 1214.9 1332.47 1215.14 1333.32 1215.03C1335.73 1214.77 1337.03 1211.76 1335.53 1209.84Z" fill="#F5D0FE"/>
<path d="M1312.1 1210.52C1305.38 1206.1 1303.56 1203.02 1297.28 1198.28C1295.24 1197.14 1293.44 1194.69 1291.05 1194.56C1289.83 1194.71 1288.93 1195.87 1289.08 1197.08C1289.43 1198.68 1291 1199.66 1292 1200.86C1294.89 1203.88 1298.15 1206.52 1301.3 1209.26C1304.28 1211.38 1308.23 1213.49 1310.14 1214.46C1312.41 1215.21 1314.04 1211.9 1312.11 1210.51L1312.1 1210.52Z" fill="#F5D0FE"/>
<path d="M1282.34 1207.94C1279.37 1205.96 1277.18 1203.04 1274.38 1200.83C1272.21 1199.4 1270.38 1197.28 1268.04 1196.2C1265.06 1195.21 1262.92 1199.55 1265.46 1201.37C1268.44 1203.97 1271.53 1206.46 1274.53 1209.03C1276.45 1210.34 1278.28 1212.47 1280.66 1212.76C1283.16 1212.93 1284.36 1209.38 1282.33 1207.93L1282.34 1207.94Z" fill="#F5D0FE"/>
<path d="M1456.4 1278.99C1443.12 1270.15 1434.74 1265.94 1423.11 1255.66C1412.92 1248.58 1405.03 1238.23 1404.15 1225.41C1403.71 1222.34 1403.89 1219.17 1403.53 1216.15C1403 1214.82 1400.83 1215.06 1400.61 1216.49C1398.61 1234.14 1403.64 1249.19 1418.65 1259.44C1427.74 1267.49 1435.12 1272.43 1444.54 1278.37C1451.66 1282.47 1455.38 1285.17 1461.45 1291.16C1465.26 1295.03 1468.61 1298.37 1470.5 1302.13C1471.2 1303.48 1471.31 1305.16 1472.28 1306.35C1473.2 1307.64 1475.14 1307.84 1476.45 1307.01C1483.46 1301.42 1461.08 1282.59 1456.41 1279L1456.4 1278.99Z" fill="#F5D0FE"/>
<path d="M1405.47 1263.55C1405.68 1262.38 1405.01 1261.29 1404.86 1260.13C1404.45 1258.41 1404.54 1255.24 1404.63 1253C1404.46 1250.65 1406.24 1244.76 1406.46 1244.22C1406.75 1243.25 1407.43 1242.27 1407.05 1241.22C1406.52 1239.35 1403.72 1239.12 1402.89 1240.89C1400.08 1247.19 1398.22 1254.34 1399.71 1261.22C1400.13 1262.94 1400.47 1265.55 1402.71 1265.6C1403.99 1265.77 1405.2 1264.78 1405.46 1263.54L1405.47 1263.55Z" fill="#F5D0FE"/>
<path d="M1425.03 1274.33C1422.84 1269.48 1422.51 1265.37 1422.4 1260C1422.27 1258.55 1422.87 1256.94 1422.19 1255.6C1420.89 1252.37 1415.69 1253.72 1416.01 1257.16C1415.66 1263.97 1415.92 1271.44 1419.29 1277.51C1421.44 1280.38 1426.26 1277.69 1425.05 1274.32L1425.03 1274.33Z" fill="#F5D0FE"/>
<path d="M1442.47 1284.81C1441.5 1282 1440.74 1279.13 1440.08 1276.24C1439.55 1273.7 1439.58 1273.92 1439.19 1271.68C1439.16 1271.09 1438.89 1270.51 1438.45 1270.11C1437.02 1268.71 1434.41 1269.95 1434.58 1271.94C1435.36 1276.34 1436.34 1280.71 1437.76 1284.95C1438.35 1286.98 1439.27 1290.09 1441.99 1288.62C1443.39 1287.77 1443.08 1286.07 1442.48 1284.8L1442.47 1284.81Z" fill="#F5D0FE"/>
<path d="M1460.19 1297.42C1459.68 1295.39 1459.43 1293.61 1459.22 1291.4C1459.03 1289.05 1459.01 1286.7 1458.93 1284.35C1458.9 1283.78 1458.64 1283.25 1458.23 1282.87C1456.9 1281.56 1454.46 1282.72 1454.61 1284.59C1454.63 1289.34 1454.77 1294.12 1455.89 1298.76C1456.11 1300.05 1456.64 1301.67 1458.21 1301.68C1460.67 1301.82 1460.98 1299.21 1460.19 1297.42Z" fill="#F5D0FE"/>
<path d="M1426.4 1240.59C1421.05 1237.8 1415.2 1238.82 1409.57 1239.98C1408.02 1240.45 1405.83 1240.15 1404.96 1241.77C1404.17 1243.25 1405.41 1245.19 1407.1 1245.05C1411.45 1244.51 1416.38 1243.57 1420.38 1243.98C1423.35 1244.22 1424.27 1245.52 1426.29 1245.12C1428.39 1244.52 1428.5 1241.27 1426.4 1240.59Z" fill="#F5D0FE"/>
<path d="M1442.52 1251.76C1441.2 1251.07 1439.81 1251.45 1438.54 1252.05C1436.15 1252.99 1433.71 1253.8 1431.24 1254.52C1427.81 1255.7 1423.64 1255.69 1420.76 1258.05C1419.14 1259.61 1420.73 1262.44 1422.85 1261.23C1423.52 1260.85 1427.37 1260.89 1429.7 1260.77C1433.29 1260.43 1436.82 1259.58 1440.31 1258.69C1444.26 1258.3 1446.18 1254.07 1442.53 1251.75L1442.52 1251.76Z" fill="#F5D0FE"/>
<path d="M1462.23 1264.32C1462.49 1262.49 1460.44 1260.93 1458.71 1261.54C1456.11 1262.66 1453.48 1263.66 1450.9 1264.81C1446.19 1267.02 1440.72 1267.01 1435.95 1268.81C1434.57 1269.84 1435.53 1272.25 1437.24 1272.08C1444.68 1271.34 1452.18 1270.64 1458.98 1267.29C1460.38 1266.74 1462.24 1266.12 1462.23 1264.31L1462.23 1264.32Z" fill="#F5D0FE"/>
<path d="M1473.31 1279.54C1470.87 1278.59 1468.13 1279.58 1465.57 1279.39C1462.4 1279.55 1458.99 1278.53 1455.96 1279.4C1452.48 1280.81 1453.93 1286.4 1457.64 1286.07C1462.4 1286.21 1467.22 1287.07 1471.93 1286.07C1475.37 1285.98 1476.41 1281.02 1473.32 1279.53L1473.31 1279.54Z" fill="#F5D0FE"/>
<path d="M1440.5 1520.56C1431.08 1538.53 1414.81 1552.14 1395.11 1560.86C1372.14 1571.02 1349.17 1574.93 1325.63 1564.5C1307.22 1556.35 1289.9 1545.23 1277.4 1529.17C1264.35 1512.44 1258.49 1491.66 1260.9 1470.57C1262.35 1457.83 1263.44 1444.6 1269.75 1433.15C1277.7 1418.7 1288.13 1409 1304.82 1406.06C1315.23 1404.23 1323.97 1407.72 1333.12 1412.26C1347.52 1419.42 1362.09 1431.24 1369.79 1445.64C1378.2 1437.45 1393 1428.84 1405.08 1428.8C1418.03 1428.77 1429.3 1438.69 1436.52 1448.57C1445.48 1460.82 1450.42 1476.6 1448.98 1491.8C1447.97 1502.35 1445.02 1511.94 1440.52 1520.54L1440.5 1520.56Z" fill="#F472B6" stroke="#A78BFA" stroke-width="7" stroke-linejoin="round"/>
<path d="M1425.86 1471.65C1423.5 1463.37 1417.72 1455.56 1410.38 1451.14C1400.92 1446.5 1392.02 1459.17 1399.27 1466.71C1404.08 1472.58 1401.62 1468.39 1404.71 1474.06L1404.77 1474.19C1405 1474.93 1405.41 1476.27 1405.66 1477.43C1405.76 1479.63 1405.38 1481.82 1405.31 1484.02C1405.14 1488.85 1409.05 1493.72 1413.93 1494.14C1425.97 1495.91 1427.98 1480.4 1425.85 1471.66L1425.86 1471.65Z" fill="#FDE68A"/>
<path d="M1209.24 1460.79C1190.04 1467.38 1168.87 1466.11 1148.56 1458.92C1124.89 1450.55 1105.5 1437.61 1095.54 1413.87C1087.75 1395.31 1082.82 1375.32 1084.73 1355.07C1086.74 1333.95 1096.74 1314.82 1112.97 1301.14C1122.78 1292.87 1132.65 1284.01 1145.1 1280.01C1160.8 1274.97 1175.05 1275.08 1189.2 1284.39C1198.02 1290.21 1201.98 1298.74 1205.51 1308.33C1211.07 1323.43 1213.55 1342.03 1209.26 1357.78C1220.99 1357.6 1237.67 1361.5 1246.48 1369.77C1255.92 1378.64 1257.29 1393.59 1255.75 1405.73C1253.85 1420.79 1246.62 1435.66 1235.12 1445.71C1227.15 1452.69 1218.43 1457.63 1209.24 1460.79Z" fill="#F472B6" stroke="#A78BFA" stroke-width="7" stroke-linejoin="round"/>
<path d="M1232.17 1415.17C1236.14 1407.54 1237.3 1397.88 1234.99 1389.62C1231.3 1379.75 1216.13 1382.85 1216.22 1393.33C1215.68 1400.9 1216.77 1396.16 1215.13 1402.41L1215.08 1402.55C1214.75 1403.23 1214.12 1404.51 1213.5 1405.52C1212.08 1407.19 1210.29 1408.52 1208.74 1410.08C1205.3 1413.47 1204.79 1419.7 1208.06 1423.35C1215.6 1432.9 1227.71 1423 1232.17 1415.19L1232.17 1415.17Z" fill="#FDE68A"/>
<path d="M1193.78 1425.08C1188.7 1427.17 1192.13 1426.04 1185.68 1428.03C1180.83 1428.72 1176.73 1431.92 1178.01 1437.27C1178.87 1440.46 1182 1442.67 1185.23 1442.45C1185.39 1442.45 1185.64 1442.44 1186.04 1442.42C1190.8 1442.4 1195.4 1441.4 1199.73 1439.44C1210.91 1435.82 1204.24 1419.71 1193.78 1425.1L1193.78 1425.08Z" fill="#FDE68A"/>
</g>
<defs>
<radialGradient id="paint0_radial_21_362" cx="0" cy="0" r="1" gradientUnits="userSpaceOnUse" gradientTransform="translate(960 830.5) rotate(90) scale(1116 1290.02)">
<stop stop-color="#FFFF33"/>
<stop offset="1" stop-color="#F086A9"/>
</radialGradient>
<clipPath id="clip0_21_362">
<rect width="1920" height="1661" fill="white"/>
</clipPath>
</defs>
</svg>
