<svg width="1920" height="3082" viewBox="0 0 1920 3082" fill="none" xmlns="http://www.w3.org/2000/svg">
    <g clip-path="url(#clip0_22_1578)">
        <path d="M208.902 762.163C207.78 768.419 209.952 782.758 206.909 787.517C200.955 796.809 192.455 783.07 188.404 776.648C183.948 769.593 184.346 771.569 175.674 769.784C172.088 769.041 162.768 767.027 161.103 763.548C157.589 756.193 165.251 751.73 173.172 749.498C176.989 748.422 179.433 744.75 179.003 740.812C178.236 733.686 178.934 725.065 184.831 720.863C194.55 713.949 197.683 732.114 201.986 738.163C204.554 741.776 207.292 740.81 211.095 740.443C216.166 739.951 233.558 742.258 226.63 750.805C224.304 753.668 220.942 755.863 217.833 757.766C216.907 758.335 209.01 761.58 208.909 762.161L208.902 762.163Z"
              fill="#FDE68A"/>
        <path d="M259.64 717.694C258.328 725.032 260.872 741.853 257.299 747.44C250.315 758.348 240.339 742.223 235.582 734.693C230.357 726.415 230.817 728.737 220.647 726.637C216.441 725.768 205.504 723.402 203.551 719.314C199.425 710.689 208.417 705.449 217.709 702.833C222.182 701.573 225.055 697.262 224.556 692.638C223.653 684.275 224.474 674.158 231.394 669.238C242.791 661.122 246.478 682.439 251.525 689.532C254.542 693.768 257.744 692.64 262.214 692.209C268.159 691.633 288.568 694.338 280.439 704.367C277.717 707.73 273.769 710.303 270.124 712.537C269.038 713.203 259.778 717.015 259.648 717.698L259.64 717.694Z"
              fill="#FDE68A"/>
        <path d="M195.825 685.498C195.147 689.279 196.46 697.952 194.617 700.833C191.019 706.454 185.874 698.142 183.428 694.264C180.732 690 180.974 691.196 175.727 690.113C173.558 689.665 167.919 688.444 166.913 686.339C164.785 681.893 169.417 679.19 174.211 677.847C176.518 677.198 177.998 674.973 177.74 672.592C177.275 668.281 177.697 663.068 181.263 660.526C187.137 656.344 189.039 667.333 191.638 670.986C193.193 673.174 194.845 672.586 197.147 672.364C200.209 672.066 210.729 673.46 206.542 678.633C205.139 680.366 203.103 681.689 201.221 682.842C200.661 683.186 195.885 685.147 195.827 685.504L195.825 685.498Z"
              fill="#FDE68A"/>
        <path d="M1250.59 2966.16C1251.71 2972.42 1249.54 2986.76 1252.58 2991.52C1258.54 3000.81 1267.04 2987.07 1271.09 2980.65C1275.54 2973.59 1275.15 2975.57 1283.82 2973.78C1287.4 2973.04 1296.72 2971.03 1298.39 2967.55C1301.9 2960.19 1294.24 2955.73 1286.32 2953.5C1282.5 2952.42 1280.06 2948.75 1280.49 2944.81C1281.26 2937.69 1280.56 2929.06 1274.66 2924.86C1264.94 2917.95 1261.81 2936.11 1257.51 2942.16C1254.94 2945.78 1252.2 2944.81 1248.4 2944.44C1243.33 2943.95 1225.93 2946.26 1232.86 2954.81C1235.19 2957.67 1238.55 2959.86 1241.66 2961.77C1242.59 2962.34 1250.48 2965.58 1250.58 2966.16L1250.59 2966.16Z"
              fill="#FDE68A"/>
        <path d="M1199.85 2921.69C1201.16 2929.03 1198.62 2945.85 1202.19 2951.44C1209.18 2962.35 1219.15 2946.22 1223.91 2938.69C1229.14 2930.41 1228.67 2932.74 1238.84 2930.64C1243.05 2929.77 1253.99 2927.4 1255.94 2923.31C1260.07 2914.69 1251.08 2909.45 1241.78 2906.83C1237.31 2905.57 1234.44 2901.26 1234.94 2896.64C1235.84 2888.28 1235.02 2878.16 1228.1 2873.24C1216.7 2865.12 1213.01 2886.44 1207.97 2893.53C1204.95 2897.77 1201.75 2896.64 1197.28 2896.21C1191.33 2895.63 1170.92 2898.34 1179.05 2908.37C1181.78 2911.73 1185.72 2914.3 1189.37 2916.54C1190.45 2917.2 1199.71 2921.01 1199.84 2921.7L1199.85 2921.69Z"
              fill="#FDE68A"/>
        <path d="M1263.67 2889.5C1264.35 2893.28 1263.03 2901.95 1264.87 2904.83C1268.47 2910.45 1273.62 2902.14 1276.06 2898.26C1278.76 2894 1278.52 2895.2 1283.77 2894.11C1285.93 2893.66 1291.57 2892.44 1292.58 2890.34C1294.71 2885.89 1290.08 2883.19 1285.28 2881.85C1282.97 2881.2 1281.49 2878.97 1281.75 2876.59C1282.22 2872.28 1281.79 2867.07 1278.23 2864.53C1272.35 2860.34 1270.45 2871.33 1267.85 2874.99C1266.3 2877.17 1264.65 2876.59 1262.35 2876.36C1259.28 2876.07 1248.76 2877.46 1252.95 2882.63C1254.35 2884.37 1256.39 2885.69 1258.27 2886.84C1258.83 2887.19 1263.61 2889.15 1263.67 2889.5L1263.67 2889.5Z"
              fill="#FDE68A"/>
        <path d="M1566.63 1639.2C1571.61 1626.03 1582.59 1615.25 1596.55 1609.82C1603.35 1607.17 1612.98 1606.48 1617.6 1612.41C1620.61 1616.28 1620.05 1621.26 1619.17 1625.65C1616.43 1639.22 1611.84 1652.34 1605.54 1664.6C1612.17 1655.63 1618.96 1646.49 1628.56 1640.16C1638.15 1633.83 1651.23 1630.69 1663.11 1634.82C1666.04 1650.38 1658.39 1665.48 1646.93 1676.06C1635.47 1686.63 1620.5 1693.47 1605.77 1700.13C1600.74 1702.41 1595.2 1704.75 1589.42 1703.53C1564.51 1698.29 1561.01 1654.08 1566.63 1639.18L1566.63 1639.2Z"
              fill="#F472B6"/>
        <path d="M1594.83 2451.48C1594.32 2448.41 1594.34 2445.13 1595.64 2442.1C1596.96 2439.07 1599.77 2436.34 1603.17 2435.61C1606.55 2434.88 1609.82 2436.16 1612.64 2437.66C1624.79 2444.18 1632.95 2455.2 1640.75 2465.92C1637.24 2454.2 1633.69 2442.24 1634.58 2429.73C1634.81 2426.45 1635.55 2422.81 1638.37 2420.56C1641.99 2417.67 1647.2 2418.41 1651.56 2419.33C1656.55 2420.38 1661.88 2421.63 1664.98 2425.25C1668.4 2429.26 1668.17 2435.09 1667.78 2440.44C1666.91 2452.55 1668.89 2478.68 1654.33 2485.96C1639.83 2493.21 1618.75 2481.71 1608.96 2473.82C1601.84 2468.1 1596.26 2460.47 1594.81 2451.48L1594.83 2451.48Z"
              fill="#F5F3FF"/>
        <path d="M151.279 1943.8C150.362 1938.19 150.39 1932.22 152.767 1926.69C155.172 1921.16 160.305 1916.18 166.511 1914.85C172.669 1913.52 178.632 1915.86 183.776 1918.59C205.954 1930.48 220.841 1950.59 235.067 1970.16C228.66 1948.77 222.183 1926.94 223.804 1904.13C224.231 1898.13 225.575 1891.49 230.733 1887.39C237.332 1882.12 246.828 1883.47 254.784 1885.14C263.893 1887.07 273.627 1889.34 279.268 1895.95C285.513 1903.26 285.085 1913.89 284.375 1923.65C282.788 1945.75 286.404 1993.43 259.838 2006.71C233.391 2019.94 194.935 1998.95 177.058 1984.57C164.077 1974.13 153.897 1960.2 151.25 1943.8L151.279 1943.8Z"
              fill="#F0B7FD"/>
        <path d="M1609.37 316.663C1610.68 324.002 1608.14 340.822 1611.71 346.41C1618.69 357.318 1628.67 341.193 1633.43 333.662C1638.65 325.385 1638.19 327.707 1648.36 325.606C1652.57 324.738 1663.5 322.372 1665.46 318.284C1669.58 309.659 1660.59 304.419 1651.3 301.802C1646.83 300.542 1643.95 296.231 1644.45 291.608C1645.36 283.245 1644.53 273.127 1637.61 268.207C1626.22 260.091 1622.53 281.409 1617.48 288.502C1614.47 292.737 1611.26 291.61 1606.79 291.179C1600.85 290.603 1580.44 293.308 1588.57 303.337C1591.29 306.699 1595.24 309.272 1598.88 311.507C1599.97 312.172 1609.23 315.985 1609.36 316.668L1609.37 316.663Z"
              fill="#FDE68A"/>
    </g>
</svg> 
