<svg width="1920" height="3082" viewBox="0 0 1920 3082" fill="none" xmlns="http://www.w3.org/2000/svg">
<g clip-path="url(#clip0_22_1578)">
<rect width="1920" height="3082" fill="none"/>
<rect width="1920" height="3082" fill="url(#paint0_linear_22_1578)"/>
<g filter="url(#filter0_f_22_1578)">
<circle cx="1690.5" cy="1701.5" r="355.5" fill="#F472B6"/>
</g>
<path d="M1461.01 2634.15C1494.34 2668.21 1520.44 2704.15 1541.52 2741.42C1562.85 2778.66 1578.43 2817.3 1588.52 2857.21C1597.09 2897.33 1600.07 2939.07 1588.31 2981.34C1582.05 3002.32 1571.79 3023.24 1555.69 3042.08C1539.9 3061.11 1516.82 3076.79 1491.23 3087.73C1478.76 3093.76 1465.34 3097.65 1451.8 3101.51C1445 3103.15 1438.09 3104.29 1431.25 3105.64L1420.87 3107.44L1410.6 3108.44L1389.89 3110.2C1383.13 3110.45 1376.33 3110.42 1369.52 3110.38C1355.8 3110.74 1342.66 3109.5 1329.39 3108.69C1276.64 3104.79 1217.94 3090.49 1164.64 3062.69C1111.6 3032.36 1069.97 2989.64 1045.25 2946.93C1032.43 2925.49 1022.82 2903.87 1016.17 2882.56C1009.26 2861.27 1004.75 2840.12 1002.5 2819.54C999.808 2798.82 999.18 2778.53 1000.26 2758.64C1001 2738.66 1003.81 2719.09 1007.96 2699.92C1016.29 2661.49 1030.3 2624.44 1052.54 2589.61C1057.9 2580.85 1064.18 2572.26 1070.67 2563.83C1077.6 2555.52 1085.11 2546.92 1092.04 2540.29C1099.09 2533.23 1105.92 2526.11 1113.73 2519.36C1121.21 2512.52 1128.8 2505.71 1137.26 2499.25C1169.95 2473.17 1207.65 2449.11 1254.55 2432.67C1300.61 2415.8 1357.55 2408.27 1415.19 2414.99C1473.01 2421.95 1528.61 2442.7 1574.4 2469.51C1597.36 2482.94 1618.44 2497.77 1637.94 2513.44C1657.17 2529.21 1674.74 2545.62 1691.06 2562.6C1723.18 2596.67 1749.91 2632.52 1772.01 2669.24C1821.67 2752.67 1849.9 2840.72 1854.18 2927.9C1860.73 2982.42 1857.67 3037.76 1840.15 3090.54C1822.88 3143.29 1790.09 3193.37 1741.66 3232.91C1721.65 3247.25 1700.04 3260.39 1676.78 3271.27C1665.13 3276.61 1653.16 3281.76 1641.05 3286.13C1628.77 3290.26 1616.64 3294.72 1604.01 3298.38C1553.48 3313.1 1498.45 3320.73 1442.44 3320.9C1330.06 3319.57 1218.32 3289.46 1120.08 3244.41C1019.51 3201.93 928.769 3143.72 852.317 3075.35C779.308 3005.19 721.196 2924.87 688.371 2839.2L676.158 2806.95L666.649 2774.19L659.994 2741.24L656.141 2709.11C652.622 2666.28 655.081 2623.8 663.442 2582.77C683.302 2501.63 726.679 2427.84 786.983 2366.46C839.551 2310.72 905.64 2264.06 981.271 2228.85C1055.98 2192.63 1140.54 2166.83 1231.29 2155.6C1322.59 2145.83 1418.96 2151.14 1513.08 2169.94C1559.83 2178.97 1606.64 2191.09 1652.7 2206.62C1698.58 2222.75 1743.47 2242.69 1785.85 2266.64C1871.01 2314.01 1943.32 2380.33 1991.13 2453.44C2013.76 2490.41 2031.56 2528.49 2043.65 2566.57C2055.42 2603.25 2064.46 2638.85 2072.85 2675.01C2088.94 2747.22 2100.32 2819.72 2101.2 2893.15C2102.27 2929.4 2100.79 2966.02 2093.03 3002.94C2088.96 3021.4 2083.43 3039.89 2074.78 3058.21C2066.16 3076.45 2054.23 3094.74 2036.45 3111.04C2016.89 3076.45 1988.91 3047.78 1957.02 3022.9C1971.83 2997.25 1978.28 2961.91 1979.8 2925.58C1981.38 2888.99 1978.53 2850.54 1972.99 2811.68C1969.19 2772.3 1962.57 2732.19 1954.13 2692.02C1949.9 2671.98 1945.23 2651.8 1940.03 2631.75L1931.91 2601.73C1929.1 2591.78 1926.15 2581.51 1922.9 2572.65L1915.01 2552.65C1912.08 2546.02 1908.61 2539.6 1905.52 2533.11C1899.76 2519.98 1891.19 2507.69 1884.05 2495.08C1880.03 2488.88 1875.43 2482.97 1871.25 2476.91L1864.89 2467.88C1862.58 2464.96 1860.02 2462.07 1857.69 2459.25L1843.27 2442L1827.25 2425.67C1806.58 2403.61 1783.83 2382.42 1757.31 2364.14L1747.6 2357.01C1744.25 2354.73 1740.72 2352.67 1737.35 2350.47C1730.47 2346.13 1723.61 2341.71 1716.6 2337.42C1701.84 2329.65 1687.83 2320.99 1672.19 2314.18C1654.59 2306.14 1635.72 2299.96 1617.25 2293.25C1598.2 2287.68 1579.46 2281.45 1559.9 2277.21C1540.73 2272.06 1520.78 2268.74 1501.25 2264.79C1481.68 2261.85 1462.2 2258.57 1442.7 2257.05C1364.49 2245.79 1285.54 2247.44 1210.47 2259.54C1173.85 2267.44 1138.77 2278.4 1105.51 2291.47C1072.13 2304.51 1040.69 2320.07 1011.83 2338.06C982.103 2355.24 954.58 2374.46 929.618 2395.74C904.856 2417.16 882.93 2440.53 863.965 2465.42C825.674 2515.19 801.905 2572.29 791.921 2631.74C786.4 2661.41 784.738 2692.02 786.639 2722.92C787.407 2730.69 787.815 2738.44 788.72 2746.15L792.47 2768.66L798.139 2791.27C800.178 2798.85 803.212 2806.35 805.613 2813.94C829.574 2874.21 870.205 2933.21 922.386 2986C974.73 3038.66 1037.27 3086.39 1106.77 3123.67C1176.86 3159.74 1252.74 3186.42 1327.64 3197.36C1397.02 3210.5 1467.26 3211.61 1530.54 3196.15C1594.32 3179.82 1646.52 3149.85 1681.01 3107.25C1715.87 3065.04 1732.96 3011.21 1735.14 2954.32C1733.67 2877.08 1706.78 2795.66 1660.93 2722.47C1630.03 2666.78 1587.15 2613.82 1535.16 2575.33C1521.94 2566.06 1508.41 2557.82 1494.59 2550.6C1480.8 2543.68 1466.86 2538.11 1453.02 2533.87C1439.2 2529.55 1425.5 2527.31 1411.89 2526.02C1398.27 2524.74 1384.77 2525.16 1371.17 2527.14C1316.43 2533.36 1262.41 2565.4 1218.93 2607.13L1202.2 2622.72C1197.77 2627.47 1193.08 2631.87 1188.97 2637.18C1180.42 2647.25 1172.95 2658.66 1166.47 2670.82C1153.22 2694.87 1144.34 2721.88 1139.15 2749.59C1136.11 2777.84 1137.12 2806.81 1143.06 2834.71C1145.89 2848.76 1150.31 2862.34 1155.35 2875.45C1161.05 2888.39 1167.3 2901.11 1175.26 2912.56C1205.92 2958.68 1254.6 2985.59 1318.77 2994.14C1326.66 2995.42 1334.94 2995.8 1342.94 2996.74C1350.92 2997.31 1358.27 2997.14 1365.95 2997.52C1379.96 2996.6 1393.82 2995.81 1404.34 2992.28C1407.21 2991.63 1409.96 2990.95 1412.26 2989.76L1419.55 2986.87C1423.72 2984.27 1428.32 2982.26 1431.83 2979.01C1439.25 2973.18 1445.86 2965.99 1450.36 2956.41C1454.48 2946.91 1457.39 2936.13 1458.13 2924.05C1459.4 2912.23 1458.58 2899.24 1456.84 2886.07C1452.94 2859.51 1444.44 2831.6 1431.63 2804.3C1420.25 2777.13 1405.53 2750.11 1387.45 2725.45C1378.73 2712.84 1368.58 2701.4 1358.55 2690.37C1348.17 2679.69 1337.49 2670.05 1326.94 2662.03C1346.1 2654.33 1367.84 2648.21 1390.62 2644.36C1413.42 2639.21 1436.59 2636.13 1461.44 2633.91L1461.01 2634.15Z" fill="#A06AED"/>
<path d="M-533.129 333.055C-480.025 380.916 -426.382 439.887 -358.197 460.858C-278.907 485.241 -201.421 444.154 -127.83 410.726C-62.1983 380.863 6.21305 359.613 74.8227 381.374C147.023 404.298 209.067 465.183 265.471 517.138C321.51 568.669 378.491 618.883 452.296 635.216C520.313 650.26 580.24 623.102 638.488 582.776C693.6 544.639 747.054 503.139 810.729 486.551C888.812 466.174 966.823 487.193 1035.17 526.093C1107.59 567.313 1169.3 631.333 1224.07 700.669C1314.14 645.442 1431.49 649.402 1527.05 677.02C1668.32 717.882 1788.51 817.905 1891.65 927.761C1927.83 890.086 1978.7 871.048 2028.76 867.629C2119.64 861.417 2210.32 892.461 2292.65 928.134C2376.68 964.549 2455.58 1012.94 2528.86 1070.37C2794.44 1278.57 2986.51 1604.89 3102.81 1940.15C3114.21 1973.02 3124.64 2006.42 3134.39 2039.99C3147.4 2084.74 3084.47 2110.98 3071.45 2066.3C2970.72 1719.65 2785.87 1390.7 2529.62 1164.69C2454.76 1098.66 2371.97 1046 2283.47 1004.56C2206.18 968.404 2119.38 936.59 2033.11 940.956C1993.46 942.97 1961.42 955.561 1938.74 979.975C1980.11 1027.86 2019.3 1078.18 2057.25 1129.41C2091.76 1175.94 2127.31 1222.61 2156.33 1273.74C2204.19 1358.06 2251 1450.78 2267.64 1550.82C2274.66 1593.32 2269.5 1640.24 2238.26 1671.09C2202.77 1706.05 2144.53 1698.86 2104.7 1684.43C1981.52 1639.75 1916.4 1478.57 1877.6 1352.68C1844.01 1243.8 1814.14 1111.47 1851.21 996.252C1851.83 994.238 1852.68 992.406 1853.36 990.472C1764.77 894.186 1664.43 809.214 1546.92 761.397C1465.81 728.367 1351.44 713.522 1267.24 757.909C1277.53 772.248 1287.62 786.553 1297.47 800.813C1334.53 854.432 1368.04 911.154 1394.05 972.666C1415.24 1022.91 1428.2 1078.16 1410.34 1133.38C1394.57 1182.09 1351.76 1208.3 1307.71 1198.49C1261.16 1188.07 1221.81 1148.52 1190.32 1112.06C1157.12 1073.5 1127.93 1030.15 1107.6 981.416C1082.38 920.761 1107.36 835.407 1141.54 782.23C1150.29 768.584 1159.93 756.309 1170.19 745.144C1138.6 706.819 1104.82 671.069 1069.34 639.692C1008.62 586.014 931.797 546.32 851.03 553.13C785.478 558.644 729.524 604.723 675.098 642.917C619.143 682.177 559.917 712.733 493.796 713.454C417.306 714.309 349.178 679.711 288.758 632.977C222.51 581.752 165.982 517.133 95.6402 471.895C20.0406 423.196 -56.0283 456.305 -132.544 491.818C-212.238 528.73 -294.91 557.418 -379.005 531.575C-456.432 507.752 -516.9 444.531 -577.341 390.051C-609.899 360.708 -565.48 303.964 -532.86 333.318L-533.129 333.055ZM1902.46 1065.01C1894.6 1122.72 1905.95 1183.57 1917.53 1238.77C1932.35 1309.64 1954.59 1379.54 1984.18 1443.99C2012.09 1504.86 2049.22 1568.72 2103.89 1603.02C2124.46 1615.93 2148.67 1622.56 2172.73 1622.13C2180.63 1621.96 2187.15 1620.69 2194.35 1617.48C2197.87 1615.93 2198.85 1613.41 2200.3 1610.34C2204.5 1601.75 2204.16 1584.42 2202.55 1568.85C2200.16 1545.18 2192.79 1522.29 2185.54 1500.2C2169.52 1451.49 2147.73 1405.53 2124.62 1360.83C2067.26 1250.1 1989.98 1151.36 1912.24 1058.16C1909.91 1055.31 1907.45 1052.51 1905.11 1049.73C1904.13 1054.66 1903.25 1059.75 1902.52 1065.02L1902.46 1065.01ZM1175.97 860.931C1165.6 887.062 1159.11 924.425 1168.63 950.699C1176.38 972.169 1189.13 991.654 1201.17 1010.22C1228.12 1051.67 1262.15 1093.22 1303.26 1117.54C1332.3 1134.72 1353.79 1125.93 1352.97 1082.52C1351.94 1025.86 1319.02 970.1 1293.12 924.732C1268.99 882.464 1242.02 840.45 1212.74 800.28C1198.04 816.941 1185.48 837.055 1175.96 861L1175.97 860.931Z" fill="#A587FA"/>
<g filter="url(#filter1_f_22_1578)">
<circle cx="305" cy="3074" r="557" fill="#F472B6"/>
</g>
</g>
<defs>
<filter id="filter0_f_22_1578" x="635" y="646" width="2111" height="2111" filterUnits="userSpaceOnUse" color-interpolation-filters="sRGB">
<feFlood flood-opacity="0" result="BackgroundImageFix"/>
<feBlend mode="normal" in="SourceGraphic" in2="BackgroundImageFix" result="shape"/>
<feGaussianBlur stdDeviation="350" result="effect1_foregroundBlur_22_1578"/>
</filter>
<filter id="filter1_f_22_1578" x="-952" y="1817" width="2514" height="2514" filterUnits="userSpaceOnUse" color-interpolation-filters="sRGB">
<feFlood flood-opacity="0" result="BackgroundImageFix"/>
<feBlend mode="normal" in="SourceGraphic" in2="BackgroundImageFix" result="shape"/>
<feGaussianBlur stdDeviation="350" result="effect1_foregroundBlur_22_1578"/>
</filter>
<linearGradient id="paint0_linear_22_1578" x1="960" y1="0" x2="960" y2="3082" gradientUnits="userSpaceOnUse">
<stop stop-color="#A78BFA"/>
<stop offset="1" stop-color="#8B5CF6"/>
</linearGradient>
<clipPath id="clip0_22_1578">
<rect width="1920" height="3082" fill="white"/>
</clipPath>
</defs>
</svg>
