<svg width="1024" height="1798" viewBox="0 0 1024 1798" fill="none" xmlns="http://www.w3.org/2000/svg">
<g clip-path="url(#clip0_437_1728)">
<rect width="1024" height="1796.78" transform="matrix(1 0 0 -1 0 1797.72)" fill="url(#paint0_radial_437_1728)"/>
<path d="M961.656 1425.49C956.607 1432.4 950.777 1451.05 944.283 1455.02C931.589 1462.76 929.399 1441.11 928.281 1430.94C927.047 1419.76 926.363 1422.39 916.912 1415.11C913.007 1412.1 902.906 1404.16 902.943 1398.96C903.026 1387.98 914.939 1387.09 925.851 1389.06C931.109 1390.01 936.236 1387.01 938.039 1381.98C941.314 1372.9 947.246 1362.87 956.868 1361.26C972.72 1358.62 965.797 1382.47 967.44 1392.33C968.419 1398.23 972.305 1398.67 977.128 1400.47C983.56 1402.87 1003.26 1415.92 989.831 1422.19C985.325 1424.28 979.957 1424.96 975.068 1425.43C973.611 1425.57 962.131 1424.84 961.665 1425.49L961.656 1425.49Z" fill="#F472B6"/>
<path d="M1049.35 1401.56C1043.43 1409.68 1036.59 1431.55 1028.96 1436.21C1014.07 1445.3 1011.5 1419.88 1010.18 1407.96C1008.73 1394.85 1007.92 1397.93 996.843 1389.39C992.26 1385.85 980.408 1376.53 980.455 1370.43C980.547 1357.55 994.53 1356.51 1007.33 1358.82C1013.49 1359.93 1019.51 1356.41 1021.64 1350.51C1025.48 1339.85 1032.44 1328.08 1043.73 1326.2C1062.32 1323.1 1054.21 1351.09 1056.14 1362.66C1057.29 1369.57 1061.83 1370.1 1067.5 1372.21C1075.04 1375.02 1098.17 1390.34 1082.41 1397.69C1077.12 1400.16 1070.82 1400.95 1065.09 1401.5C1063.38 1401.67 1049.92 1400.82 1049.36 1401.57L1049.35 1401.56Z" fill="#F472B6"/>
<path d="M991.063 1324.91C988.011 1329.09 984.484 1340.37 980.552 1342.77C972.877 1347.46 971.549 1334.35 970.875 1328.21C970.125 1321.46 969.713 1323.05 963.996 1318.64C961.634 1316.82 955.523 1312.01 955.547 1308.87C955.592 1302.23 962.798 1301.69 969.397 1302.89C972.574 1303.47 975.679 1301.64 976.773 1298.61C978.753 1293.11 982.34 1287.05 988.158 1286.07C997.742 1284.47 993.562 1298.9 994.554 1304.86C995.146 1308.43 997.494 1308.69 1000.41 1309.78C1004.3 1311.23 1016.22 1319.12 1008.09 1322.92C1005.37 1324.19 1002.13 1324.59 999.166 1324.88C998.285 1324.96 991.342 1324.52 991.061 1324.92L991.063 1324.91Z" fill="#F472B6"/>
<path d="M215.253 166.807C247.514 173.362 276.815 120.097 274.048 94.0702C269.494 51.2372 209.279 70.8164 208.034 106.323C208.725 93.2545 187.396 81.0595 175.938 86.6177C164.021 92.3997 167.43 112.271 170.071 122.188C173.025 133.272 178.478 144.496 187.863 152.001C196.297 158.745 212.804 165.284 215.253 166.807Z" fill="#FFFF33"/>
<path d="M200.607 250.512C193.858 263.596 167.079 258.896 158.778 250.642C145.118 237.059 168.809 221.545 181.539 231.055C176.789 227.636 178.51 216.784 183.657 214.345C189.01 211.809 194.985 218.563 197.702 222.261C200.74 226.395 203.127 231.44 203.115 236.815C203.105 241.644 200.762 249.231 200.607 250.512Z" fill="#FFFF33"/>
<path d="M814.741 638.209C829.186 653.466 864.028 636.396 872.13 621.788C885.464 597.747 846.833 585.884 833.158 603.972C838.313 597.4 831.647 583.207 823.623 581.907C815.279 580.555 809.77 592.184 807.512 598.332C804.988 605.204 803.719 613.067 805.868 620.429C807.799 627.045 814.021 636.515 814.741 638.209Z" fill="#FFFF33"/>
</g>
<defs>
<radialGradient id="paint0_radial_437_1728" cx="0" cy="0" r="1" gradientUnits="userSpaceOnUse" gradientTransform="translate(48.7997 -1049.78) rotate(80.6026) scale(2668.59 1874.86)">
<stop stop-color="#F472B6"/>
<stop offset="1" stop-color="#FFBF85"/>
</radialGradient>
<clipPath id="clip0_437_1728">
<rect width="1024" height="1796.78" fill="white" transform="translate(0 0.9375)"/>
</clipPath>
</defs>
</svg>
