<svg width="1920" height="1079" viewBox="0 0 1920 1079" fill="none" xmlns="http://www.w3.org/2000/svg">
<g clip-path="url(#clip0_1_1237)">
<path d="M147.192 397.47C141.301 405.225 139.213 413.139 138.512 421.701C118.713 421.415 101.732 437.164 119.374 457.654C133.947 474.577 159.047 495.076 178.868 505.502C263.1 549.797 206.462 319.465 147.192 397.47Z" fill="#F472B6"/>
<path d="M209.308 235.141C206.423 228.599 206.188 220.927 208.668 214.223C209.876 210.962 212.614 207.469 216.028 208.108C218.253 208.523 219.754 210.555 220.954 212.471C224.664 218.406 227.653 224.796 229.83 231.445C228.86 225.902 227.885 220.24 228.719 214.676C229.553 209.113 232.527 203.556 237.578 201.09C243.706 205.854 246.417 214.004 246.434 221.764C246.45 229.525 244.13 237.081 241.828 244.492C241.043 247.029 240.12 249.754 237.928 251.249C228.493 257.684 212.569 242.526 209.304 235.132L209.308 235.141Z" fill="#F472B6"/>
<path d="M1609.44 314.99C1636.85 339.542 1695.2 304.733 1707.24 278.07C1727.06 234.189 1657.92 219.043 1636.66 252.581C1644.71 240.369 1631.03 216.555 1616.84 215.44C1602.08 214.282 1594.14 235.372 1591.08 246.428C1587.67 258.786 1586.58 272.692 1591.39 285.233C1595.71 296.503 1607.94 312.138 1609.44 314.99Z" fill="#F472B6"/>
</g>
<defs>
<clipPath id="clip0_1_1237">
<rect width="1920" height="1079" fill="white"/>
</clipPath>
</defs>
</svg>
