<svg width="1920" height="1079" viewBox="0 0 1920 1079" fill="none" xmlns="http://www.w3.org/2000/svg">
<rect y="-0.105957" width="1920" height="1080" fill="url(#paint0_linear_1_1239)"/>
<path d="M1023.55 438.692C1041.15 412.149 1058.06 385.251 1074.99 358.014C1057.61 384.696 1040.92 411.917 1023.55 438.692Z" fill="url(#paint1_linear_1_1239)"/>
<path d="M1209.7 203.703C1231.53 188.289 1256.48 226.824 1268.92 252.103C1292.49 302.323 1328.78 333.043 1375.37 347.871C1584.12 390.831 1797.59 378.592 2004.45 323.347C2047.05 311.972 2089.39 298.777 2131.34 283.856C2166.57 271.802 2203.56 265.282 2240 257.452V174.169C2164.88 216.342 2085.91 251.44 2004.45 278.554C1822.06 339.27 1627.24 359.987 1435.55 330.438C1376.62 316.55 1320.7 293.737 1289.09 232.882C1276.77 208.327 1262.73 180.582 1236.22 171.333C1208.15 160.543 1186.32 186.747 1170.73 208.327C1135.83 259.317 1105.37 309.213 1075.02 358.014C1112.25 300.874 1152.65 246.215 1209.71 203.703H1209.7Z" fill="url(#paint2_linear_1_1239)"/>
<path d="M1197.22 120.466C1217.49 100.428 1250.24 109.677 1265.84 132.798C1298.58 185.206 1331.33 236.073 1383.45 267.749C1441.43 281.776 1502.76 288.512 1565.01 288.712C1719.55 289.205 1872.13 260.489 2004.43 192.235C2085.34 150.493 2158.66 93.9696 2220.21 20.2745C2226.32 7.60406 2232.94 -4.51145 2239.98 -16.1183V-179H2228.99C2186.68 -135.362 2152.05 -82.8924 2128.19 -21.3437C2106.36 37.2301 2068.93 89.6382 2012.79 126.632C2010 128.497 2007.21 130.347 2004.42 132.166C1835.22 242.423 1652.78 263.371 1466.75 246.292C1419.49 241.961 1375.65 229.506 1347.05 189.923C1309.49 146.671 1289.21 77.3069 1233.07 60.3513C1186.29 46.4786 1169.14 115.842 1151.98 152.836C1103.87 254.369 1060.1 355.887 1007.11 453.828C1043.91 388.303 1080.03 322.346 1116.11 254.57C1141.07 208.327 1159.78 160.543 1197.21 120.466H1197.22Z" fill="url(#paint3_linear_1_1239)"/>
<path d="M1533.33 -146.491C1547.14 -155.524 1559.82 -166.268 1571.14 -179H1420.36C1422.09 -177.751 1423.82 -176.487 1425.57 -175.239C1464.68 -146.769 1500.84 -130.214 1533.33 -146.491Z" fill="url(#paint4_linear_1_1239)"/>
<path d="M-178.778 61.5995C-135.426 104.99 -94.2099 150.123 -58.1246 199.078C-86.1944 212.951 -122.061 242.238 -104.908 273.066C21.4066 484.24 305.224 456.495 520.426 518.151C581.244 535.107 635.824 559.77 693.523 582.891C788.649 619.885 888.453 561.311 971.103 513.527C890.012 538.19 798.005 555.145 723.153 519.693C691.964 504.279 662.334 478.075 628.027 464.202C520.426 419.501 397.231 407.169 314.58 317.767C295.867 297.729 288.07 273.066 270.916 249.945C217.895 183.664 164.875 131.256 113.413 64.9753C49.4764 -16.7198 -19.1387 -79.9178 -87.7539 -155.447C-94.8805 -163.216 -101.789 -171.062 -108.479 -179H-190.614C-186.684 -174.33 -182.739 -169.659 -178.762 -165.019C-102.101 -75.5248 -16.3941 7.66543 63.5269 98.8864C100.953 140.505 130.583 182.123 168.009 223.741C189.841 249.945 186.722 285.398 200.757 313.143C255.337 422.584 405.043 413.335 511.085 451.87C579.7 476.533 642.078 513.527 706.014 542.814C770.45 572.209 846.707 558.783 917.567 534.228C826.075 571.253 720.657 614.598 638.959 542.814C615.567 521.234 582.819 515.068 553.19 507.361C429.994 471.909 306.799 461.119 186.722 419.501C124.345 397.921 43.2543 374.8 29.2194 303.895C19.8628 262.276 44.8137 212.951 10.5062 175.957C-52.6666 106.424 -115.839 39.4957 -178.762 -26.8314C-226.013 -76.65 -273.108 -126.129 -319.969 -176.117V-72.7348C-272.874 -28.2804 -224.625 15.6808 -178.762 61.5995H-178.778Z" fill="url(#paint5_linear_1_1239)"/>
<path d="M674.811 610.636C610.874 585.974 551.615 558.228 481.441 545.897C308.343 511.986 146.162 484.24 -15.3329 431.185C-80.4861 405.428 -135.846 385.682 -178.777 360.881C-185.311 357.104 -191.565 353.22 -197.506 349.182C-242.543 318.538 -274.106 275.379 -273.326 214.493C-271.767 162.085 -272.203 122.871 -287.174 75.7345C-298.495 67.4879 -309.396 60.3512 -319.969 54.0314V323.332C-285.801 374.553 -235.993 404.919 -178.762 424.618C-164.368 429.566 -149.522 433.867 -134.333 437.628C-89.2034 448.803 -37.5392 457.913 27.9883 475.732C152.4 512.001 277.155 528.957 411.266 555.161C473.644 567.492 532.902 572.116 584.363 607.569C681.064 674.143 778.498 632.987 866.169 580.008C805.725 613.396 740.853 635.253 674.811 610.652V610.636Z" fill="url(#paint6_linear_1_1239)"/>
<path d="M807.581 746.913C761.032 808.508 703.785 861.656 631.006 848.893C378.814 774.489 43.3482 721.202 -178.778 871.937C-233.795 909.27 -281.856 959.135 -319.985 1024.29V1192.49C-301.957 1168.67 -285.755 1142.79 -271.782 1114.68C-243.884 1059.53 -219.167 1000.41 -178.793 955.451C-162.747 937.586 -144.252 921.941 -122.076 909.671C110.279 781.733 364.467 824.893 615.536 881.925C632.69 886.55 651.403 888.091 669.04 883.945C714.358 879.752 754.591 845.44 790.193 798.689C820.602 759.383 844.773 717.765 864.656 674.42C884.071 632.077 926.737 576.941 970.464 515.654C970.651 515.439 970.854 515.238 971.041 515.022C971.228 514.853 971.399 514.668 971.587 514.498C969.606 517.689 967.657 520.864 965.754 524.009C967.672 520.864 969.622 517.689 971.602 514.483C971.758 514.329 971.914 514.19 972.07 514.036C942.643 567.538 916.258 616.802 906.62 657.172C892.445 773.641 854.13 885.779 774.599 980.576C745.234 1016.03 713.687 1044.28 682.031 1053.47C665.438 1060.73 648.285 1060.73 631.131 1059.19C439.32 1048.4 163.3 982.117 75.9717 1194.83C66.771 1216.91 56.853 1238.52 46.28 1259.66H134.887C136.041 1257.07 137.211 1254.49 138.349 1251.86C211.643 1082.31 429.964 1103.89 589.182 1116.54C644.339 1121.65 700.26 1112.63 755.885 1053.02C854.13 947.821 903.252 814.874 914.433 677.595C923.119 630.228 942.675 575.893 972.413 513.743C972.351 514.036 972.288 514.329 972.226 514.622C945.949 578.282 933.209 632.956 929.139 681.742C931.914 823.937 893.911 964.406 798.006 1082.32C760.969 1128.95 720.206 1167.8 677.415 1199.5C654.538 1208.72 631.146 1214.89 606.195 1216.43C506.922 1220.94 389.309 1210.6 304.008 1259.68H674.389C674.935 1259.29 675.497 1258.91 676.042 1258.52C714.202 1229.59 751.223 1195.23 785.53 1156.31C901.318 1027.99 949.567 864.122 940.788 701.117C942.893 645.796 947.306 586.898 971.914 516.117C971.914 516.148 971.914 516.178 971.898 516.209C961.559 546.282 957.193 573.627 956.522 599.199C958.861 574.922 963.4 549.226 970.729 521.743C957.411 588.008 971.462 638.844 988.07 686.304C1005.36 735.722 1015.34 785.988 1018.84 836.392C1022.33 886.781 1018.29 938.68 1008.4 990.626C979.774 1080.01 954.604 1175.5 911.174 1259.68H963.945C1003.98 1148.78 1020.88 1024.78 1048.06 916.099C1048.01 869.008 1041.56 824.338 1030.16 781.363C1018.76 738.389 1002.82 696.678 983.111 656.555C964.179 618.02 961.31 572.101 971.197 519.955C971.54 518.675 971.898 517.396 972.257 516.117C966.986 577.588 987.119 626.189 1012.54 671.214C1038.31 716.901 1057.04 764.67 1069.41 813.672C1081.78 862.673 1083.96 917.255 1066.07 990.903C1043.3 1080.58 1027.4 1169.37 1009.64 1259.68H1043.15C1054.97 1171.05 1068.16 1083.23 1088.34 995.928C1102.27 934.888 1108.69 882.249 1100.54 841.093C1083.98 784.246 1059.6 729.726 1028.16 679.198C997.099 629.257 969.513 578.359 972.397 515.639C972.522 515.176 972.647 514.73 972.772 514.267C973.099 515.177 973.411 516.086 973.754 516.995C974.971 557.442 979.898 597.55 1007.58 627.777C1036.55 659.422 1062.81 693.333 1085.52 729.372C1108.22 765.41 1125.92 804.731 1137.2 847.999C1136.4 878.889 1134.84 909.717 1127.05 942.087C1102.31 1049.35 1092.69 1154.62 1087.51 1259.71H1116.33C1117.19 1146.71 1125.16 1034.2 1152.93 922.912C1165.92 848.4 1149.86 798.15 1123.15 755.576C1096.43 713.002 1064.86 673.295 1029.54 637.133C996.21 603.006 980.257 562.097 974.534 519.092C989.364 558.737 1013.8 596.856 1052.19 629.442C1092.41 663.553 1126.67 702.073 1155.35 743.938C1183.17 784.863 1194.09 835.729 1184.73 886.596C1160.37 1014.49 1152.75 1137.25 1157.83 1259.71H1189.38C1179.37 1134.53 1182.52 1007.86 1206.56 875.806C1215.92 826.481 1205 777.155 1176.93 737.664C1142.44 694.983 1102.47 656.694 1058.17 623.677C1015.5 591.877 990.752 554.113 974.331 517.689C974.238 516.918 974.128 516.163 974.035 515.392C997.536 543.816 1020.68 578.051 1065.2 604.116C1110.72 630.767 1151.2 662.782 1186.79 699.083C1222.38 735.383 1247.08 779.529 1241.77 844.315C1217.32 983.474 1216.18 1122.8 1234.74 1259.73H1261.75C1243.35 1130.46 1245.49 998.009 1268.66 868.299C1279.9 808.677 1274.55 761.603 1249.54 727.537C1204.25 680.678 1151.79 642.22 1094.86 611.438C1038.99 581.226 1001.36 546.853 974.019 515.3C973.91 514.375 973.801 513.435 973.707 512.51C973.863 512.356 974.035 512.202 974.191 512.047C974.3 511.97 974.409 511.878 974.534 511.801C1006.35 527.754 1027.76 556.872 1074.31 576.864C1123.88 595.623 1169.4 620.44 1210.8 650.235C1252.21 680.015 1285.95 716.47 1312.84 758.211C1290.29 919.027 1288.56 1094.41 1321.4 1259.73H1360.29C1323.24 1107.47 1321.73 946.942 1339.1 786.419C1340.66 766.381 1337.54 746.343 1329.9 726.551C1298.96 688.216 1261.19 655.322 1217.76 628.532C1174.33 601.742 1127.19 580.24 1076.41 565.087C1034.7 545.296 1009.73 521.635 974.721 511.662C974.768 511.631 974.815 511.585 974.877 511.554C1023.52 519.616 1065.84 545.974 1137.32 565.704C1209.45 585.604 1277.91 617.11 1339.24 661.195C1375.45 692.223 1401.76 731.422 1395.82 787.483C1381.52 946.156 1376.76 1105.82 1424.59 1259.74H1473.29C1410.16 1094.35 1418.1 916.345 1432.65 740.192C1435.77 712.447 1421.53 687.337 1395.99 666.759C1361.01 640.432 1324.8 618.544 1286.84 600.309C1229.92 572.949 1169.1 553.773 1106.24 543.461C1057.42 525.242 1021.29 509.165 975.282 511.246C975.407 511.153 975.532 511.061 975.657 510.968C1005.78 505.835 1033.34 505.666 1057.03 512.602C1081.26 519.693 1116.19 524.379 1156.44 529.003C1196.69 533.627 1237.11 542.691 1277.45 556.887C1367.17 598.367 1459.18 641.526 1524.67 717.056C1530.91 724.763 1509.08 746.343 1496.6 760.215C1494.26 811.853 1491.74 869.363 1492.87 927.967C1495.21 1047.64 1512.91 1171.83 1578.96 1259.73H1723.92C1581.23 1204.96 1550.99 1052.78 1546.57 908.099C1546.27 859.744 1548.95 812.238 1562.14 776.57C1613.78 738.281 1586.78 696.031 1497.77 650.867C1445.62 621.072 1388.67 590.567 1330.96 560.664C1273.24 530.76 1226.23 518.799 1181.58 514.76C1136.93 510.722 1098.62 506.637 1070.69 501.396C1043.46 496.279 1011.54 500.148 976.249 510.552C976.592 510.306 976.935 510.059 977.278 509.797C1026.46 489.574 1071.62 477.181 1110.91 480.51C1151.17 483.932 1212.77 482.005 1285.78 508.194C1409.26 573.719 1540.25 619.962 1668.12 683.16C1691.52 693.95 1727.38 707.823 1722.7 735.568C1714.91 777.186 1669.68 800.307 1653.73 841.355C1637.04 877.193 1636.65 921.278 1645.59 963.035C1663.45 1046.53 1703.99 1113.2 1800.68 1122.45C1870.54 1128.75 1938.58 1139.99 2004.39 1156.22C2086.65 1176.43 2165.43 1204.48 2239.98 1240.54V1149.02C2164.62 1116.5 2085.8 1090.65 2004.43 1071.58C1953.56 1059.67 1901.7 1050.39 1849.07 1043.77C1772.65 1033.75 1735.23 983.659 1715.73 920.461C1704.04 855.721 1761.74 811.02 1799.16 763.236C1810.08 747.822 1821 721.618 1802.28 712.37C1615.15 604.471 1412.42 555.145 1220.02 466.514C1167.3 466.699 1135.45 457.373 1099.15 461.643C1064.84 465.682 1025.17 481.697 981.286 506.791C1038.8 464.418 1103.64 412.349 1179.33 426.067C1195.6 435.269 1222.17 445.705 1250.24 456.495C1460.77 548.98 1677.53 595.222 1897.41 666.127C1919.24 672.293 1951.99 680 1955.11 696.956C1970.7 760.154 1909.88 811.02 1883.87 867.436C1860.53 903.721 1898.97 923.544 1942.63 932.792C1963.34 937.725 1983.94 942.75 2004.43 947.898C2084.99 968.152 2163.77 990.472 2239.98 1017.62V934.256C2222.85 926.827 2206.88 919.474 2192.67 912.214C2148.48 886.55 2100.13 877.301 2054.91 857.263C1992.53 827.976 2056.47 760.154 2061.15 712.37C2062.41 678.474 2033.69 658.883 2004.43 646.967C1997.77 644.255 1991.1 641.927 1984.74 639.923C1867.78 601.388 1752.38 587.515 1629.18 561.311C1553.55 544.355 1481.82 522.776 1411.82 497.836C1341.81 472.895 1273.54 444.595 1214.72 404.78C1123.01 380.01 1045 454.414 978.947 508.163C978.245 508.564 977.544 508.98 976.842 509.381C988.943 497.281 1000.94 484.441 1013.01 471.385C999.766 484.672 987.462 497.774 976.436 509.612C976.031 509.859 975.626 510.09 975.204 510.321C976.624 507.932 978.027 505.543 979.415 503.153C1053.36 420.426 1112.45 309.336 1222.19 279.217C1233.1 277.675 1245.58 317.752 1255.81 342.553C1285.27 375.863 1328.49 391.817 1372 405.489C1577.27 460.333 1788.54 468.009 2004.45 440.726C2025.39 438.075 2046.36 435.115 2067.4 431.832C2125.43 422.784 2183.44 421.119 2240 439.863V367.432C2160.09 365.921 2082.5 379.748 2004.45 394.222C1957.18 402.992 1909.74 411.979 1861.56 417.944C1687.29 438.753 1523.55 411.871 1357.83 373.073C1306.99 355.378 1269.22 320.727 1242.04 272.85C1234.66 260.72 1220.63 242.223 1208.15 251.471C1112.37 320.588 1053.64 416.079 979.961 502.244C980.616 501.119 981.271 499.993 981.926 498.868C996.615 479.354 1010.29 459.146 1023.58 438.676C1010.49 458.391 997.021 477.936 982.846 497.281C991.173 482.884 999.266 468.394 1007.14 453.844C998.705 468.857 990.222 483.855 981.707 498.853C980.756 500.148 979.789 501.442 978.838 502.737C1046.75 365.289 1098.68 222.045 1153.59 77.3066C1166.06 49.5611 1178.54 18.7329 1206.61 4.86012C1239.36 -12.0954 1268.99 14.1086 1287.7 37.2298C1325.13 81.9309 1360.99 126.632 1409.21 157.599C1455.09 185.283 1510.61 189.737 1567.43 185.406C1681.08 176.743 1791.4 148.227 1895.88 92.7362C1948.9 64.9907 1981.65 11.0412 1994.12 -45.9911C1997.18 -58.8466 2000.64 -71.44 2004.46 -83.7868C2014.88 -117.39 2028.06 -149.127 2043.7 -178.969H1943.24C1928.64 -143.332 1916.89 -105.659 1908.35 -66.0142C1895.88 -10.5232 1863.13 40.3435 1811.67 65.0061C1762.55 87.742 1712.35 104.497 1661.32 116.289C1610.3 128.065 1558.45 134.863 1506.02 137.653C1470.15 139.01 1435.85 128.22 1404.66 106.64C1329.8 55.773 1283.02 -84.4958 1194.13 -50.5847C1164.5 -39.7948 1156.71 7.98913 1145.79 43.4417C1095.25 200.897 1046.19 355.363 977.965 503.955C977.902 504.032 977.855 504.109 977.793 504.171C1063.98 313.898 1096.53 116.073 1144.22 -93.7443C1152.01 -127.655 1180.08 -161.567 1217.51 -147.694C1306.4 -115.324 1354.74 -32.0877 1428.03 26.4861C1463.9 54.2315 1507.56 63.4801 1551.49 56.3587C1604.97 48.7442 1654.42 33.5767 1694.59 6.23201C1734.76 -21.0973 1765.65 -60.6039 1782.02 -116.866C1788.2 -137.937 1795.12 -158.638 1802.73 -178.954H1719.44C1716.92 -172.649 1714.38 -166.345 1711.85 -160.025C1690.41 -106.461 1656.97 -70.5306 1615.95 -46.7003C1574.92 -22.8854 1526.28 -11.1707 1474.43 -6.06862C1413.14 -59.5557 1353.09 -136.565 1282.23 -178.938H1133.25C1124.6 -157.836 1121.15 -129.69 1117.72 -107.602C1083.83 105.53 1060.6 309.66 977.388 504.741C976.545 505.866 975.703 507.007 974.861 508.132C975.142 506.329 975.423 504.525 975.703 502.737C1055.64 295.324 1067.96 73.0676 1080.28 -147.678C1080.78 -157.004 1081.2 -167.64 1081.85 -178.938H1046.91C1045.36 -105.921 1054.8 -31.5944 1052.21 40.3743C1047.64 196.859 1023.75 350.415 976.187 499.577C976.343 498.529 976.514 497.481 976.686 496.433C1037.85 277.336 1036.1 49.9928 1006.47 -178.938H982.612C1012.38 44.6595 1024.2 264.018 978.651 483.207C1002.54 318.785 1003.71 155.348 974.238 -13.5753C963.789 -70.4073 945.762 -124.896 929.03 -178.938H907.26C970.417 42.1778 998.112 268.288 975.844 496.387C975.329 498.745 974.799 501.088 974.269 503.446C974.861 271.217 946.37 39.172 859.026 -178.923H817.967C827.354 -161.474 836.43 -144.349 844.804 -127.625C943.673 70.8789 955.306 290.546 973.707 505.928C973.489 506.868 973.286 507.809 973.068 508.764C972.741 507.839 972.413 506.914 972.086 505.99C941.848 266.284 881.623 36.4129 761.328 -178.907H714.358C795.604 -57.1973 862.66 67.3337 899.369 217.668C919.985 305.991 935.766 391.925 961.653 476.518C879.174 245.46 781.819 21.2145 632.113 -178.907H574.663C740.151 -3.9876 824.766 214.231 928.983 427.3C942.503 455.508 954.589 483.716 972.179 509.165C972.304 509.535 972.429 509.905 972.553 510.259C848.828 376.511 777.25 215.402 673.235 57.3452C613.977 -30.5154 546.921 -96.7962 472.068 -167.701C468.279 -171.401 464.598 -175.146 460.981 -178.923H398.447C398.556 -178.784 398.666 -178.645 398.775 -178.491C548.481 12.6443 710.662 163.703 835.417 373.335C869.553 431.632 916.055 479.231 973.38 511.585C973.38 511.6 973.349 511.616 973.333 511.631C870.8 462.321 785.296 391.586 710.662 305.513C593.704 169.869 481.425 46.5554 364.467 -89.0892C339.516 -118.361 315.501 -148.326 292.593 -178.923H215.588C272.273 -103.779 334.791 -32.211 400.334 35.7654C512.614 151.372 617.096 260.812 730.934 374.877C797.725 443.978 876.913 500.81 973.084 511.924C973.052 511.97 973.006 512.017 972.974 512.063C823.737 511.662 685.415 437.797 578.11 334.815C521.97 279.325 470.509 225.375 414.369 171.425C299.127 61.0139 203.393 -55.5479 106.443 -178.907H17.8048C135.62 -29.3747 275.346 105.73 409.675 245.413C436.186 273.159 453.34 303.987 478.291 331.733C490.766 345.605 506.36 356.395 521.955 364.102C603.045 407.262 676.339 451.963 758.989 487.416C825.655 516.533 900.024 515.176 972.896 512.124C972.475 512.602 972.07 513.08 971.649 513.573C938.776 532.995 903.33 557.596 866.122 580.085C903.127 559.646 938.464 534.907 971.415 513.851C971.041 514.298 970.651 514.729 970.277 515.176C871.128 593.727 747.886 707.083 615.521 649.264C548.465 621.519 484.528 598.397 412.794 587.608C284.92 567.569 164.844 545.989 42.1632 517.504C-0.549721 512.818 -43.4342 509.15 -86.4278 506.267C-117.18 504.202 -147.979 502.552 -178.809 501.211C-191.097 500.672 -203.37 500.178 -215.658 499.731C-250.48 498.899 -286.69 493.92 -320 481.867V547.932C-301.645 550.475 -282.979 551.384 -264.001 550.598C-235.588 549.473 -207.19 548.579 -178.809 548.009C-116.806 546.745 -54.896 547.007 6.76407 549.643C51.6914 551.554 98.911 555.824 155.784 565.75C277.123 587.608 406.556 582.983 517.276 643.099C686.803 738.204 850.341 629.272 966.893 519.045C911.907 573.365 852.227 620.563 796.883 657.911C752.751 687.984 704.798 713.017 647.177 709.903C634.249 710.921 623.334 707.838 610.858 704.755C543.802 690.882 483.047 672.54 428.17 656.617C373.278 640.694 310.542 624.864 231.494 610.837C183.121 602.528 138.614 598.721 94.4977 597.334C2.5846 594.698 -87.5976 602.698 -178.778 613.288C-217.842 617.819 -257.077 622.829 -296.718 627.684C-304.515 628.779 -312.25 629.704 -319.969 630.459V696.247C-272.188 690.065 -225.498 680.17 -178.762 669.873C-115.168 655.861 -51.481 641.095 15.1849 633.865C249.1 610.744 465.862 693.981 683.122 757.286C728.33 733.487 770.809 703.892 809.515 668.054C848.578 634.05 904.094 586.683 958.16 529.111C921.903 569.912 883.151 608.108 845.771 641.958C820.914 674.297 793.717 704.693 764.088 732.346C734.459 759.999 701.711 781.271 662.506 781.194C631.146 780.315 599.957 774.15 570.328 763.36C326.713 668.208 67.0048 659.931 -178.778 727.691C-226.434 740.84 -273.576 756.824 -319.985 775.599V851.76C-274.667 825.648 -227.432 804.022 -178.778 786.573C76.5953 694.936 370.83 717.826 631.146 804.978C663.894 815.768 702.88 808.061 730.95 788.022C771.495 754.111 805.803 715.19 835.619 673.187C863.752 633.573 916.18 579.931 964.85 521.897C966.659 519.924 968.468 517.951 970.277 515.963C934.378 565.75 894.722 611.977 869.163 648.663C851.448 683.314 830.848 716.223 807.565 747.021L807.581 746.913Z" fill="url(#paint7_linear_1_1239)"/>
<path d="M802.543 833.972C772.508 874.974 737.39 909.224 698.638 936.584C679.488 938.974 662.334 938.974 643.621 935.891C419.063 895.814 194.504 868.068 -12.9011 963.636C-59.6842 985.216 -93.9917 1031.46 -108.027 1080.78C-125.492 1136.49 -149.461 1187.42 -178.778 1233.58C-184.408 1242.46 -190.24 1251.16 -196.259 1259.68H-94.7715C-70.1168 1218.99 -48.8929 1175.72 -31.6143 1130.11C66.6301 875.776 403.468 949.764 632.705 986.758C668.572 991.382 707.558 985.216 734.068 959.012C762.918 930.496 787.573 899.575 808.578 866.835C840.079 817.741 863.361 764.578 880.234 709.38C896.187 657.188 921.341 597.165 965.769 524.009C921.497 596.533 894.222 652.517 876.414 698.883C857.576 747.931 832.594 792.971 802.559 833.972H802.543Z" fill="url(#paint8_linear_1_1239)"/>
<path d="M955.868 674.621C996.366 882.866 929.388 1101.9 776.751 1259.66H831.425C915.151 1155.62 973.286 1033.79 986.698 894.257C992.935 832.6 986.308 771.714 972.273 712.37C963.805 676.578 955.431 640.155 956.507 599.184C953.918 625.897 953.981 650.883 955.868 674.605V674.621Z" fill="url(#paint9_linear_1_1239)"/>
<path d="M1266.85 421.859C1306.18 437.135 1345.9 450.468 1385.93 462.198C1585.94 520.757 1794.1 539.192 2004.43 559.724C2004.62 559.739 2004.81 559.754 2005.01 559.785C2086.1 567.492 2178.11 595.238 2209.29 676.933C2217.28 699.499 2225.28 721.218 2239.98 738.512V580.487C2239.11 579.747 2238.24 579.022 2237.36 578.298C2195.26 541.304 2142.24 522.807 2087.66 519.724C2059.9 518.09 2032.16 516.595 2004.43 515.13C1793.39 503.986 1583.84 494.738 1380.78 438.091C1334.94 425.174 1289.43 409.821 1245.25 390.507C1237.77 367.139 1228.41 328.604 1215.93 330.145C1131.66 340.241 1071.44 408.218 1012.99 471.447C1086.35 397.89 1188.85 319.124 1266.85 421.906V421.859Z" fill="url(#paint10_linear_1_1239)"/>
<defs>
<linearGradient id="paint0_linear_1_1239" x1="960" y1="-0.105957" x2="960" y2="1263.89" gradientUnits="userSpaceOnUse">
<stop stop-color="#FFBF85"/>
<stop offset="1" stop-color="#F086A9"/>
</linearGradient>
<linearGradient id="paint1_linear_1_1239" x1="960" y1="-254.106" x2="960" y2="981.394" gradientUnits="userSpaceOnUse">
<stop stop-color="#FFCC9E"/>
<stop offset="1" stop-color="#F086A9"/>
</linearGradient>
<linearGradient id="paint2_linear_1_1239" x1="960" y1="-254.106" x2="960" y2="981.394" gradientUnits="userSpaceOnUse">
<stop stop-color="#FFCC9E"/>
<stop offset="1" stop-color="#F086A9"/>
</linearGradient>
<linearGradient id="paint3_linear_1_1239" x1="960" y1="-254.106" x2="960" y2="981.394" gradientUnits="userSpaceOnUse">
<stop stop-color="#FFCC9E"/>
<stop offset="1" stop-color="#F086A9"/>
</linearGradient>
<linearGradient id="paint4_linear_1_1239" x1="960" y1="-254.106" x2="960" y2="981.394" gradientUnits="userSpaceOnUse">
<stop stop-color="#FFCC9E"/>
<stop offset="1" stop-color="#F086A9"/>
</linearGradient>
<linearGradient id="paint5_linear_1_1239" x1="960" y1="-254.106" x2="960" y2="981.394" gradientUnits="userSpaceOnUse">
<stop stop-color="#FFCC9E"/>
<stop offset="1" stop-color="#F086A9"/>
</linearGradient>
<linearGradient id="paint6_linear_1_1239" x1="960" y1="-254.106" x2="960" y2="981.394" gradientUnits="userSpaceOnUse">
<stop stop-color="#FFCC9E"/>
<stop offset="1" stop-color="#F086A9"/>
</linearGradient>
<linearGradient id="paint7_linear_1_1239" x1="960" y1="-254.106" x2="960" y2="981.394" gradientUnits="userSpaceOnUse">
<stop stop-color="#FFCC9E"/>
<stop offset="1" stop-color="#F086A9"/>
</linearGradient>
<linearGradient id="paint8_linear_1_1239" x1="960" y1="-254.106" x2="960" y2="981.394" gradientUnits="userSpaceOnUse">
<stop stop-color="#FFCC9E"/>
<stop offset="1" stop-color="#F086A9"/>
</linearGradient>
<linearGradient id="paint9_linear_1_1239" x1="960" y1="-254.106" x2="960" y2="981.394" gradientUnits="userSpaceOnUse">
<stop stop-color="#FFCC9E"/>
<stop offset="1" stop-color="#F086A9"/>
</linearGradient>
<linearGradient id="paint10_linear_1_1239" x1="960" y1="-254.106" x2="960" y2="981.394" gradientUnits="userSpaceOnUse">
<stop stop-color="#FFCC9E"/>
<stop offset="1" stop-color="#F086A9"/>
</linearGradient>
</defs>
</svg>
