<svg width="29" height="30" viewBox="0 0 29 30" fill="none" xmlns="http://www.w3.org/2000/svg">
<path d="M20.4538 17.7927C20.1132 17.624 18.4393 16.8064 18.1288 16.6946C17.8173 16.5818 17.5895 16.526 17.3628 16.8633C17.1361 17.2017 16.4839 17.9613 16.2852 18.187C16.0864 18.4126 15.7662 18.4792 15.4257 18.3105C15.0862 18.1418 13.8592 17.6476 12.5592 16.4969C11.5471 15.602 10.8874 14.4663 10.6887 14.1279C10.4899 13.7906 10.6908 13.5391 10.8606 13.3705C11.0142 13.219 11.2012 12.9762 11.3709 12.7796C11.5417 12.5819 11.5976 12.4422 11.7104 12.2166C11.8243 11.991 11.7674 11.7943 11.6825 11.6246C11.5976 11.4559 10.8939 9.7025 10.6102 9.02671C10.3266 8.35091 10.0816 8.44116 9.88287 8.44116C9.68411 8.44116 9.38866 8.43579 9.16196 8.43579C8.93526 8.43579 8.56567 8.52067 8.2541 8.85803C7.94253 9.19646 7.05615 10.013 7.05615 11.6751C7.05615 12.1639 7.11632 12.627 7.25921 13.0761C7.60194 14.1537 8.22616 15.039 8.3465 15.198C8.44212 15.3237 9.27047 16.6603 10.5941 17.9968C11.6363 19.0475 12.9879 20.0747 14.5114 20.6699C15.8952 21.2103 16.5978 21.4209 17.1393 21.5036C17.5003 21.5584 18.5124 21.6508 19.2054 21.365C19.9327 21.0653 20.5655 20.5324 20.8417 20.1101C20.9996 19.877 21.1146 19.3903 21.1575 19.1722C21.2521 18.6941 21.2413 18.3223 21.1833 18.2256C21.0974 18.0849 20.7944 17.9624 20.4549 17.7937L20.4538 17.7927Z" fill="#F5F3FF"/>
<path d="M14.0793 0.893066C6.41137 0.893066 0.141228 7.21371 0.141228 14.8225C0.141228 17.4258 0.754705 19.7615 2.01926 21.8372L0.0327148 29.1066L7.42989 27.1598C9.41967 28.2514 11.6071 28.882 14.0417 28.882C22.1619 28.882 28.1087 22.4625 28.1087 14.8537C28.1087 7.24487 22.0513 0.894141 14.0793 0.894141V0.893066ZM14.0868 26.528C11.7156 26.528 9.62165 25.8608 7.77907 24.65L3.33862 25.8544L4.50648 21.5224C3.16564 19.4424 2.45439 17.3882 2.45117 14.8537C2.44365 8.55885 7.46643 3.36417 14.0406 3.15681C20.7115 3.23094 25.8288 8.51372 25.8288 14.901C25.8288 21.2882 20.5235 26.5291 14.0868 26.5291V26.528Z" fill="#F5F3FF"/>
</svg>
