<svg width="29" height="25" viewBox="0 0 29 25" fill="none" xmlns="http://www.w3.org/2000/svg">
<path d="M1.30922 11.0002C1.30922 11.0002 22.8024 1.49826 26.162 0.649487C27.9111 0.207913 28.9114 0.254111 28.6847 2.9691C28.2216 8.52155 25.6399 22.1781 25.6399 22.1781C25.3713 23.7757 23.6522 24.559 22.3114 23.65L13.3349 17.641C12.5054 17.078 12.412 15.8919 13.1426 15.2064L21.6163 7.14525C22.0826 6.70798 21.5013 6.09128 20.9706 6.44797L9.4907 14.1352C8.60648 14.7304 7.27961 14.9056 6.25464 14.6144C6.25464 14.6144 2.85097 13.7216 1.42203 13.15C-0.274435 12.471 0.307885 11.4256 1.30922 11.0002Z" fill="#F5F3FF"/>
</svg>
