<svg width="27" height="17" viewBox="0 0 27 17" fill="none" xmlns="http://www.w3.org/2000/svg">
<path d="M1.74276 0.817627C0.934735 0.817627 0.79834 1.21369 0.79834 1.63792C0.79834 2.40367 1.43352 6.53737 4.90742 11.2909C7.42482 14.7399 10.7433 16.7264 13.6806 16.7264C15.46 16.7264 15.644 16.2727 15.644 15.5664V12.4136C15.644 11.563 15.8399 11.4235 16.4062 11.4235C16.8113 11.4235 17.6323 11.6886 19.2229 13.5447C21.0574 15.6849 21.3895 16.7264 22.4414 16.7264H25.2208C25.8656 16.7264 26.2374 16.457 26.2522 15.931C26.2544 15.7973 26.2346 15.6448 26.1901 15.4794C25.9844 14.8685 25.0434 13.3771 23.8663 11.9538C23.2131 11.1647 22.5705 10.3831 22.2757 9.96103C22.0742 9.68316 21.998 9.48898 22.0065 9.30231C22.015 9.10717 22.1168 8.91692 22.2716 8.65602C22.244 8.65602 25.8319 3.62072 26.1818 1.92379C26.2306 1.76258 26.2545 1.61201 26.2481 1.48049C26.2311 1.09656 25.9665 0.817627 25.3451 0.817627H22.5698C21.8699 0.817627 21.5449 1.24057 21.3561 1.66692C21.3561 1.66692 19.628 5.2286 17.6323 7.57886C16.9854 8.25763 16.6567 8.24172 16.3068 8.24172C16.1202 8.24172 15.644 8.01605 15.644 7.39243V1.89478C15.644 1.15874 15.4633 0.817627 14.8694 0.817627H9.9402C9.50756 0.817627 9.28159 1.15556 9.28159 1.49706C9.28159 2.20341 10.2338 2.37652 10.342 4.35982V8.2003C10.342 9.13361 10.1824 9.30231 9.83251 9.30231C8.88874 9.30231 7.03048 6.11886 5.78556 1.94864C5.51622 1.12775 5.24691 0.817627 4.54704 0.817627H1.74276Z" fill="#F5F3FF"/>
</svg>
