<svg width="26" height="26" viewBox="0 0 26 26" fill="none" xmlns="http://www.w3.org/2000/svg">
<path d="M7.57693 0.580566C3.54195 0.580566 0.226074 3.87064 0.226074 7.88399V18.1158C0.226074 22.1248 3.53751 25.4193 7.57693 25.4193H17.8752C21.9102 25.4193 25.2261 22.1292 25.2261 18.1158V7.88399C25.2261 3.87505 21.9146 0.580566 17.8752 0.580566H7.57693ZM7.57693 2.83863H17.8752C20.6851 2.83863 22.9533 5.09229 22.9533 7.88399V18.1158C22.9533 20.9076 20.6851 23.1612 17.8752 23.1612H7.57693C4.76709 23.1612 2.4988 20.9076 2.4988 18.1158V7.88399C2.4988 5.09229 4.76709 2.83863 7.57693 2.83863ZM19.4377 5.30839C18.8651 5.30839 18.4079 5.76265 18.4079 6.33157C18.4079 6.9005 18.8651 7.35476 19.4377 7.35476C20.0103 7.35476 20.4676 6.9005 20.4676 6.33157C20.4676 5.76265 20.0103 5.30839 19.4377 5.30839ZM12.7261 6.22573C8.97519 6.22573 5.90789 9.27323 5.90789 12.9999C5.90789 16.7266 8.97519 19.7741 12.7261 19.7741C16.477 19.7741 19.5443 16.7266 19.5443 12.9999C19.5443 9.27323 16.477 6.22573 12.7261 6.22573ZM12.7261 8.48379C15.2518 8.48379 17.2715 10.4905 17.2715 12.9999C17.2715 15.5094 15.2518 17.516 12.7261 17.516C10.2003 17.516 8.18062 15.5094 8.18062 12.9999C8.18062 10.4905 10.2003 8.48379 12.7261 8.48379Z" fill="#F5F3FF"/>
</svg>
