<svg width="33" height="24" viewBox="0 0 33 24" fill="none" xmlns="http://www.w3.org/2000/svg">
<path d="M16.187 0.547852C11.4126 0.547852 6.92927 0.905714 4.5421 1.40616C2.95159 1.76403 1.57579 2.83762 1.28763 4.48434C0.999477 6.20097 0.708496 8.7787 0.708496 11.9995C0.708496 15.2202 0.996652 17.7253 1.35826 19.5146C1.64924 21.0886 3.02222 22.2349 4.61272 22.5928C7.1468 23.0932 11.4833 23.4511 16.2576 23.4511C21.0319 23.4511 25.3684 23.0932 27.8997 22.5928C29.493 22.2349 30.866 21.1613 31.1541 19.5146C31.4451 17.7253 31.8067 15.1503 31.8773 11.9296C31.8773 8.7088 31.5157 6.13107 31.1541 4.34176C30.866 2.76772 29.493 1.62144 27.8997 1.26358C25.3684 0.905715 20.9585 0.547852 16.187 0.547852ZM16.187 1.9793C21.3935 1.9793 25.5859 2.40706 27.6115 2.76492C28.6963 3.05289 29.5636 3.76862 29.7077 4.69962C30.1427 6.98938 30.4309 9.42453 30.4309 11.9296C30.3603 15.005 29.9987 17.51 29.7077 19.2993C29.493 20.6581 28.0466 21.0886 27.6115 21.234C25.0068 21.7345 20.6675 22.0895 16.3282 22.0895C11.9889 22.0895 7.57903 21.8044 5.04778 21.234C3.96296 20.946 3.09567 20.2303 2.95159 19.2993C2.37245 17.2947 2.15492 14.6471 2.15492 11.9995C2.15492 8.70601 2.4459 6.27366 2.73406 4.77231C2.95159 3.41076 4.46864 2.9802 4.83025 2.83762C7.21742 2.33717 11.6302 1.9793 16.187 1.9793ZM12.2799 6.27366V17.7253L22.4049 11.9995L12.2799 6.27366ZM13.7263 8.7088L19.5121 11.9995L13.7263 15.2901V8.7088Z" fill="#F5F3FF"/>
<path fill-rule="evenodd" clip-rule="evenodd" d="M4.47591 1.09515C6.89507 0.587992 11.4041 0.22998 16.1869 0.22998C20.9719 0.22998 25.397 0.588685 27.9447 0.948879L27.9575 0.950695L27.9702 0.953537C29.6546 1.33186 31.1508 2.55397 31.4686 4.2822C31.8336 6.08919 32.1975 8.68703 32.1975 11.9299V11.9368C32.1264 15.1778 31.7624 17.7687 31.4702 19.5656L31.4696 19.5694C31.153 21.3787 29.6495 22.5262 27.9702 22.9034L27.9621 22.9052C25.4021 23.4114 21.0425 23.7696 16.2575 23.7696C11.4725 23.7696 7.11296 23.4113 4.55022 22.9051L4.5419 22.9035C2.86004 22.5251 1.36439 21.3028 1.0437 19.575C0.677651 17.7627 0.388184 15.2373 0.388184 11.9998C0.388184 8.76029 0.680826 6.16503 0.971683 4.43231L0.972045 4.43015C1.28868 2.62069 2.79515 1.47328 4.47129 1.09615L4.47591 1.09515ZM1.35819 19.5149C1.64917 21.0889 3.02215 22.2352 4.61265 22.5931C7.14673 23.0935 11.4832 23.4514 16.2575 23.4514C21.0319 23.4514 25.3683 23.0935 27.8996 22.5931C29.4929 22.2352 30.8659 21.1616 31.154 19.5149C31.445 17.7256 31.8066 15.1506 31.8773 11.9299C31.8773 8.70911 31.5156 6.13138 31.154 4.34206C30.8659 2.76802 29.4929 1.62174 27.8996 1.26388C25.3683 0.906019 20.9584 0.548156 16.1869 0.548156C11.4126 0.548156 6.9292 0.906019 4.54203 1.40647C2.95152 1.76433 1.57572 2.83792 1.28756 4.48465C0.999406 6.20127 0.708425 8.779 0.708425 11.9998C0.708425 15.2205 0.996581 17.7256 1.35819 19.5149ZM29.7076 4.69992C29.5635 3.76892 28.6962 3.0532 27.6114 2.76523C25.5859 2.40737 21.3935 1.97961 16.1869 1.97961C11.6301 1.97961 7.21735 2.33747 4.83018 2.83792C4.79917 2.85015 4.75967 2.86449 4.71321 2.88136C4.21794 3.0612 2.93287 3.52782 2.73399 4.77262C2.44583 6.27396 2.15485 8.70631 2.15485 11.9998C2.15485 14.6474 2.37238 17.295 2.95152 19.2996C3.0956 20.2306 3.96289 20.9463 5.04771 21.2343C7.57896 21.8047 11.9889 22.0898 16.3282 22.0898C20.6674 22.0898 25.0067 21.7348 27.6114 21.2343C27.6268 21.2292 27.6434 21.2237 27.6611 21.2178C28.147 21.0574 29.5005 20.6105 29.7076 19.2996C29.9986 17.5103 30.3602 15.0053 30.4308 11.9299C30.4308 9.42483 30.1427 6.98969 29.7076 4.69992ZM30.1106 11.9262C30.1103 9.44642 29.8249 7.03269 29.3929 4.75895L29.3919 4.75363L29.3911 4.74828C29.2744 3.99429 28.5537 3.34857 27.5417 3.07608C25.5333 2.72266 21.3674 2.29778 16.1869 2.29778C11.6559 2.29778 7.28364 2.65281 4.92185 3.14391C4.88964 3.15619 4.85322 3.16947 4.81324 3.18405C4.58586 3.26697 4.24329 3.3919 3.90425 3.61385C3.49582 3.8812 3.13988 4.2616 3.05027 4.8225L3.04949 4.82737L3.04856 4.83222C2.76457 6.3119 2.4751 8.72414 2.4751 11.9998C2.4751 14.6366 2.69242 17.2496 3.25933 19.2118L3.26495 19.2313L3.26804 19.2513C3.385 20.007 4.10882 20.654 5.12462 20.9254C7.62032 21.4866 11.9969 21.7717 16.3282 21.7717C20.6437 21.7717 24.9496 21.4191 27.5299 20.9259C27.5389 20.9229 27.5483 20.9198 27.5579 20.9166C27.7919 20.8392 28.1896 20.7075 28.5635 20.4579C28.9596 20.1935 29.3021 19.8144 29.3912 19.2503L29.3915 19.2489C29.6813 17.4665 30.0402 14.979 30.1106 11.9262ZM11.9596 5.72676L23.0522 11.9998L11.9596 18.2728V5.72676ZM12.2799 17.7256L22.4048 11.9998L12.2799 6.27396V17.7256ZM13.7263 8.70911V15.2904L19.512 11.9998L13.7263 8.70911ZM14.0465 9.25787V14.7417L18.8674 11.9998L14.0465 9.25787Z" fill="white"/>
</svg>
