<svg width="375" height="554" viewBox="0 0 375 554" fill="none" xmlns="http://www.w3.org/2000/svg">
<g clip-path="url(#clip0_283_2904)">
<rect width="375" height="554" fill="white"/>
<rect width="375" height="554" fill="url(#paint0_linear_283_2904)"/>
<path d="M119.626 322.603C111.204 334.138 101.481 365.243 90.6497 371.862C69.4777 384.775 65.8263 348.656 63.9612 331.696C61.9029 313.058 60.7624 317.441 44.9995 305.3C38.4863 300.271 21.6402 287.031 21.7012 278.365C21.839 260.048 41.7092 258.572 59.9078 261.857C68.6775 263.441 77.2285 258.426 80.2354 250.049C85.6987 234.899 95.5921 218.167 111.64 215.481C138.078 211.079 126.532 250.86 129.273 267.313C130.905 277.14 137.386 277.884 145.431 280.884C156.158 284.88 189.023 306.656 166.617 317.105C159.101 320.599 150.149 321.724 141.995 322.51C139.565 322.749 120.419 321.534 119.641 322.606L119.626 322.603Z" fill="#C86188"/>
<path d="M265.9 282.705C256.028 296.239 244.615 332.723 231.898 340.495C207.056 355.658 202.771 313.266 200.571 293.372C198.161 271.507 196.806 276.651 178.328 262.4C170.684 256.506 150.917 240.964 150.995 230.783C151.148 209.299 174.471 207.562 195.816 211.42C206.094 213.277 216.139 207.395 219.682 197.563C226.085 179.78 237.701 160.148 256.523 157.019C287.533 151.838 274.003 198.533 277.219 217.828C279.147 229.353 286.724 230.227 296.18 233.754C308.755 238.441 347.324 263.99 321.033 276.252C312.224 280.365 301.718 281.678 292.154 282.605C289.307 282.881 266.847 281.469 265.912 282.722L265.9 282.705Z" fill="#C86188"/>
<path d="M168.686 154.869C163.595 161.84 157.713 180.653 151.156 184.659C138.354 192.475 136.139 170.619 135.015 160.379C133.764 149.111 133.077 151.765 123.542 144.413C119.602 141.374 109.411 133.359 109.45 128.117C109.526 117.04 121.543 116.137 132.55 118.141C137.849 119.102 143.028 116.063 144.852 110.999C148.154 101.831 154.136 91.717 163.841 90.0903C179.825 87.4217 172.853 111.493 174.509 121.431C175.496 127.381 179.412 127.82 184.282 129.635C190.76 132.048 210.641 145.215 197.091 151.545C192.552 153.666 187.137 154.336 182.201 154.813C180.731 154.957 169.151 154.219 168.683 154.883L168.686 154.869Z" fill="#C86188"/>
<path d="M-47.814 502.754C-29.784 507.29 -10.3041 514.291 8.01916 510.9C29.3261 506.956 42.4075 488.324 55.4981 471.903C67.1671 457.246 80.508 444.217 99.0238 440.954C118.512 437.527 140.169 443.958 159.454 449.031C178.602 454.051 197.813 458.659 216.887 453.539C234.464 448.819 245.132 435.461 253.84 419.306C262.081 404.025 269.536 388.177 282.334 376.776C298.023 362.788 318.633 358.231 339.131 358.902C360.852 359.613 382.807 366.797 403.783 376.023C418.099 352.665 445.801 339.515 471.271 334.359C508.925 326.745 548.743 335.122 585.777 347.779C589.68 334.87 599.214 324.445 610.423 317.672C630.77 305.376 655.514 301.585 678.873 299.846C702.716 298.073 726.794 299.641 750.647 303.94C837.104 319.534 920.586 370.817 987.551 433.21C994.119 439.327 1000.52 445.683 1006.79 452.154C1015.14 460.783 1003.67 474.293 995.319 465.681C930.607 398.833 848.485 346.085 762.071 325.321C736.827 319.253 711.334 317.179 685.857 318.343C663.61 319.368 639.675 322.519 620.175 333.844C611.214 339.05 605.283 345.752 602.931 354.026C618.239 359.973 633.335 366.734 648.25 373.852C661.806 380.314 675.622 386.678 688.454 394.843C709.614 408.306 731.532 423.808 747.323 444.59C754.02 453.424 758.417 464.722 754.848 475.485C750.782 487.694 736.409 493.031 725.445 494.516C691.535 499.095 657.203 470.201 633.186 446.189C612.408 425.427 589.697 398.88 584.559 368.213C584.464 367.679 584.443 367.161 584.369 366.64C552.33 355.329 518.914 348.001 485.943 351.188C463.182 353.381 434.871 363.697 420.628 383.883C424.723 385.916 428.772 387.963 432.759 390.03C447.753 397.798 462.291 406.698 475.663 417.586C486.571 426.486 496.168 437.512 498.606 452.219C500.755 465.196 493.947 476.29 482.555 479.332C470.512 482.533 456.663 478.241 445.008 473.712C432.708 468.911 420.764 462.539 410.235 453.878C397.149 443.091 392.769 420.669 394.358 404.472C394.762 400.317 395.535 396.369 396.584 392.599C384.683 387.657 372.582 383.564 360.607 380.67C340.117 375.721 317.555 375.885 299.625 387.106C285.071 396.211 277.582 413.401 269.507 428.612C261.204 444.25 251.104 458.298 235.847 466.379C218.199 475.733 198.264 476.015 178.671 472.612C157.19 468.884 136.366 460.943 114.649 459.068C91.2987 457.035 77.595 473.68 64.0742 490.927C49.9826 508.873 34.2195 525.303 11.6236 529.49C-9.18435 533.338 -30.755 526.187 -51.2768 521.023C-62.3311 518.242 -58.7902 500.006 -47.7203 502.782L-47.814 502.754ZM604.651 377.727C609.709 391.805 619.6 404.297 628.869 415.479C640.76 429.837 654.255 443.087 668.808 454.214C682.543 464.728 698.773 474.82 715.549 476.081C721.863 476.557 728.271 475.166 733.804 472.186C735.617 471.202 736.977 470.131 738.264 468.539C738.897 467.765 738.823 467.075 738.796 466.202C738.745 463.743 736.601 459.84 734.37 456.488C730.992 451.386 726.554 447.057 722.236 442.898C712.71 433.726 702.172 425.875 691.479 418.465C664.965 400.127 635.257 386.906 606.103 374.997C605.223 374.628 604.318 374.285 603.444 373.933C603.805 375.173 604.207 376.437 604.667 377.722L604.651 377.727ZM411.733 418.264C412.442 425.454 415.391 434.738 420.734 439.578C425.093 443.537 430.376 446.446 435.383 449.232C446.578 455.439 459.431 460.822 471.87 461.437C480.658 461.871 484.597 457.296 479.229 447.513C472.234 434.738 457.946 425.986 446.525 418.76C435.885 412.028 424.617 405.693 413.033 400.055C411.608 405.608 411.093 411.69 411.738 418.281L411.733 418.264Z" fill="#BC70B1"/>
<path d="M62.5272 26.9462C61.3928 23.2318 58.7677 19.9933 55.3695 18.1158C53.7158 17.2029 51.3508 16.738 50.173 18.2119C49.4055 19.1719 49.5087 20.5398 49.6949 21.7537C50.2748 25.5111 51.3124 29.1994 52.7757 32.7062C51.2083 30.0826 49.6003 27.4082 47.2836 25.4157C44.9669 23.4232 41.7723 22.1932 38.8201 22.9708C37.9899 27.1037 39.7662 31.4176 42.5124 34.6153C45.2587 37.8129 48.8938 40.0977 52.4699 42.329C53.6925 43.0938 55.0391 43.8872 56.4711 43.7245C62.6341 43.024 63.8057 31.1403 62.5255 26.9409L62.5272 26.9462Z" fill="#F5F3FF"/>
<path d="M308.349 20.101C308.555 19.2998 308.891 18.5094 309.476 17.9248C310.063 17.3426 310.938 17.0031 311.734 17.2154C312.524 17.4256 313.088 18.1087 313.534 18.7933C315.452 21.7582 316.063 25.3579 316.628 28.8429C317.074 25.6063 317.536 22.3058 318.996 19.3818C319.38 18.6132 319.906 17.8175 320.734 17.5963C321.796 17.3108 322.825 18.0842 323.657 18.8049C324.61 19.6305 325.615 20.5416 325.903 21.7715C326.222 23.132 325.58 24.5151 324.954 25.7643C323.538 28.5956 321.303 35.1447 317.472 35.2419C313.659 35.3398 310.355 30.1479 309.077 27.1213C308.149 24.9238 307.74 22.439 308.346 20.0986L308.349 20.101Z" fill="#F5F3FF"/>
<path d="M328.552 35.7417C329.565 33.0658 331.876 30.7201 334.72 30.4032C335.993 31.6809 336.205 33.736 335.71 35.4717C335.215 37.2074 334.131 38.7094 333.065 40.1675C334.76 38.4035 336.717 36.5195 339.162 36.4465C339.973 36.4224 340.859 36.6573 341.336 37.3162C342.014 38.2578 341.562 39.6222 340.793 40.4938C339.341 42.143 337.048 42.7452 334.869 43.0219C333.534 43.1916 332.186 43.2673 330.863 43.5135C329.915 43.69 328.506 44.3316 327.9 43.2454C327.404 42.3552 327.694 40.4723 327.769 39.4863C327.865 38.2086 328.1 36.9392 328.554 35.7393L328.552 35.7417Z" fill="#F5F3FF"/>
</g>
<defs>
<linearGradient id="paint0_linear_283_2904" x1="256" y1="578.668" x2="105.537" y2="65.6182" gradientUnits="userSpaceOnUse">
<stop stop-color="#A78BFA"/>
<stop offset="1" stop-color="#DA4A4B"/>
</linearGradient>
<clipPath id="clip0_283_2904">
<rect width="375" height="554" fill="white"/>
</clipPath>
</defs>
</svg>
