<svg width="1920" height="1920" viewBox="0 0 1920 1920" fill="none" xmlns="http://www.w3.org/2000/svg">
<g clip-path="url(#clip0_22_1744)">
<rect width="1920" height="1920" fill="white"/>
<rect width="1920" height="1920" transform="matrix(-1 -8.74228e-08 -8.74228e-08 1 1920 0)" fill="url(#paint0_linear_22_1744)"/>
<path d="M2583.69 1341.06C2530.59 1388.92 2476.94 1447.89 2408.76 1468.86C2329.47 1493.24 2251.98 1452.15 2178.39 1418.73C2112.76 1388.86 2044.35 1367.61 1975.74 1389.37C1903.54 1412.3 1841.49 1473.18 1785.09 1525.14C1729.05 1576.67 1672.07 1626.88 1598.26 1643.22C1530.25 1658.26 1470.32 1631.1 1412.07 1590.78C1356.96 1552.64 1303.51 1511.14 1239.83 1494.55C1161.75 1474.17 1083.74 1495.19 1015.39 1534.09C942.971 1575.31 881.257 1639.33 826.494 1708.67C736.419 1653.44 619.074 1657.4 523.507 1685.02C382.241 1725.88 262.048 1825.91 158.909 1935.76C122.726 1898.09 71.8586 1879.05 21.7963 1875.63C-69.0752 1869.42 -159.756 1900.46 -242.089 1936.13C-326.124 1972.55 -405.017 2020.94 -478.297 2078.37C-743.88 2286.57 -935.948 2612.89 -1052.25 2948.15C-1063.65 2981.02 -1074.08 3014.42 -1083.83 3047.99C-1096.84 3092.74 -1033.91 3118.98 -1020.89 3074.3C-920.159 2727.65 -735.307 2398.7 -479.057 2172.69C-404.202 2106.66 -321.407 2054 -232.91 2012.56C-155.616 1976.4 -68.8228 1944.59 17.4548 1948.96C57.1042 1950.97 89.1366 1963.56 111.816 1987.97C70.4549 2035.86 31.259 2086.18 -6.68983 2137.41C-41.1946 2183.94 -76.7538 2230.61 -105.774 2281.74C-153.631 2366.06 -200.437 2458.78 -217.075 2558.82C-224.095 2601.32 -218.936 2648.24 -187.701 2679.09C-152.212 2714.05 -93.9686 2706.86 -54.1361 2692.43C69.0366 2647.75 134.156 2486.57 172.961 2360.68C206.551 2251.8 236.42 2119.47 199.354 2004.25C198.727 2002.24 197.878 2000.41 197.202 1998.47C285.792 1902.19 386.128 1817.21 503.642 1769.4C584.752 1736.37 699.125 1721.52 783.317 1765.91C773.036 1780.25 762.938 1794.55 753.086 1808.81C716.026 1862.43 682.524 1919.15 656.51 1980.67C635.32 2030.91 622.356 2086.16 640.222 2141.38C655.992 2190.09 698.803 2216.3 742.855 2206.49C789.397 2196.07 828.751 2156.52 860.242 2120.06C893.437 2081.5 922.632 2038.15 942.96 1989.42C968.182 1928.76 943.196 1843.41 909.021 1790.23C900.269 1776.58 890.63 1764.31 880.372 1753.14C911.96 1714.82 945.74 1679.07 981.22 1647.69C1041.94 1594.01 1118.76 1554.32 1199.53 1561.13C1265.08 1566.64 1321.04 1612.72 1375.46 1650.92C1431.42 1690.18 1490.64 1720.73 1556.76 1721.45C1633.25 1722.31 1701.38 1687.71 1761.8 1640.98C1828.05 1589.75 1884.58 1525.13 1954.92 1479.9C2030.52 1431.2 2106.59 1464.31 2183.1 1499.82C2262.8 1536.73 2345.47 1565.42 2429.57 1539.58C2506.99 1515.75 2567.46 1452.53 2627.9 1398.05C2660.46 1368.71 2616.04 1311.96 2583.42 1341.32L2583.69 1341.06ZM148.099 2073.01C155.959 2130.72 144.606 2191.57 133.031 2246.77C118.208 2317.64 95.9729 2387.54 66.38 2451.99C38.4702 2512.86 1.34402 2576.72 -53.3258 2611.02C-73.8973 2623.93 -98.1099 2630.56 -122.174 2630.13C-130.073 2629.96 -136.592 2628.69 -143.786 2625.48C-147.31 2623.93 -148.285 2621.41 -149.743 2618.34C-153.94 2609.75 -153.604 2592.42 -151.991 2576.85C-149.597 2553.18 -142.234 2530.29 -134.978 2508.2C-118.961 2459.49 -97.165 2413.53 -74.0583 2368.83C-16.7021 2258.1 60.5831 2159.36 138.325 2066.16C140.651 2063.31 143.114 2060.51 145.453 2057.73C146.433 2062.66 147.314 2067.75 148.038 2073.02L148.099 2073.01ZM874.588 1868.93C884.96 1895.06 891.453 1932.43 881.929 1958.7C874.177 1980.17 861.426 1999.65 849.392 2018.22C822.443 2059.67 788.409 2101.22 747.304 2125.54C718.263 2142.72 696.769 2133.93 697.592 2090.52C698.62 2033.86 731.539 1978.1 757.442 1932.73C781.572 1890.46 808.54 1848.45 837.819 1808.28C852.524 1824.94 865.078 1845.06 874.6 1869L874.588 1868.93Z" fill="#F497D2"/>
<path d="M342.581 1222.48C329.565 1186.41 258.741 1174.47 226.734 1167.2C181.207 1156.84 133.643 1156.37 88.2726 1167.76C54.3543 1176.26 22.5878 1191.33 -6.09652 1210.98L131.415 973.545C155.109 998.765 210.858 1008.41 238.259 1014.63C283.786 1024.98 331.333 1025.48 376.704 1014.09C423.125 1002.44 465.531 978.611 501.561 947.364C532.498 920.507 560.885 888.365 581.318 852.678C620.581 784.14 486.318 779.017 445.136 776.946C366.34 772.946 284.675 789.143 217.84 832.451C215.527 833.937 212.922 835.725 210.11 837.667L300.701 681.248C302.607 677.957 304.303 674.622 305.796 671.367C401.614 715.834 513.968 722.669 614.123 681.118C661.805 661.329 764.161 591.856 743.91 528.642C729.351 483.244 649.864 454.553 613.236 434.321C605.628 430.111 598.05 425.918 590.442 421.709C652.105 347.151 658.301 241.254 556.423 174.795C492.931 133.393 424.401 135.653 367.271 186.662C347.939 203.916 328.919 233.437 318.646 264.454C265.696 229.784 205.014 193.423 164.294 195.975C159.208 196.287 154.43 197.287 149.935 198.882C97.4296 217.447 85.4869 317.073 86.8719 362.179C89.2695 440.364 122.463 514.567 173.701 572.927C198.744 601.441 227.75 625.891 259.384 645.939C257.549 648.565 255.751 651.33 254.066 654.239L77.5817 958.966C80.1288 931.599 79.4309 903.804 75.5683 877.001C64.7112 801.294 19.9945 694.205 -52.8899 657.095C-91.0435 637.666 -110.951 730.717 -117.833 754.592C-137.198 821.704 -130.587 901.152 -107.147 967.194C-94.1755 1003.75 -50.5923 1086.91 -4.43189 1100.57L-181.036 1405.51C-174.271 1349.58 -182.219 1289.45 -200.611 1237.59C-214.855 1197.48 -266.011 1101.1 -316.945 1102.25C-354.762 1103.11 -366.386 1158.89 -374.75 1188.31C-387.443 1232.99 -389.955 1281.84 -383.356 1327.77C-372.831 1401.21 -330.432 1504.17 -261.36 1544.13L-300.247 1611.28C-315.547 1637.69 -317.51 1665.2 -304.61 1672.68C-291.71 1680.15 -268.841 1664.78 -253.525 1638.34L-104.406 1380.86C-71.9384 1400.96 -6.62931 1403.58 19.9451 1404.93C98.7417 1408.93 180.406 1392.73 247.241 1349.42C278.029 1329.46 358.106 1265.26 342.686 1222.5L342.581 1222.48ZM318.61 327.259C354.588 265.138 431.275 242.291 489.899 276.243C548.523 310.196 566.869 388.082 530.891 450.203C494.913 512.324 418.227 535.171 359.603 501.218C300.979 467.266 282.633 389.38 318.61 327.259Z" fill="#F5C4F5"/>
</g>
<defs>
<linearGradient id="paint0_linear_22_1744" x1="960" y1="0" x2="960" y2="1920" gradientUnits="userSpaceOnUse">
<stop stop-color="#F5D0FE"/>
<stop offset="0.5" stop-color="#F5D0FE"/>
<stop offset="1" stop-color="#F472B6"/>
</linearGradient>
<clipPath id="clip0_22_1744">
<rect width="1920" height="1920" fill="white"/>
</clipPath>
</defs>
</svg>
