<svg width="1920" height="1631" viewBox="0 0 1920 1631" fill="none" xmlns="http://www.w3.org/2000/svg">
<g clip-path="url(#clip0_22_1605)">
<path d="M1590.87 362.003C1589.06 365.934 1588.03 375.76 1585.21 378.375C1579.69 383.479 1576.44 372.964 1574.87 368.036C1573.15 362.62 1573.07 363.991 1567.66 361.326C1565.42 360.221 1559.63 357.295 1559.12 354.716C1558.07 349.265 1563.89 347.637 1569.49 347.524C1572.19 347.47 1574.43 345.468 1574.83 342.799C1575.54 337.969 1577.48 332.405 1582.09 330.647C1589.68 327.757 1588.63 340.269 1590.43 344.995C1591.5 347.817 1593.47 347.65 1596.04 348.061C1599.47 348.606 1610.54 353.111 1604.51 357.557C1602.48 359.045 1599.89 359.915 1597.51 360.636C1596.81 360.853 1591.04 361.637 1590.88 362.003H1590.87Z" fill="#FDE68A"/>
<path d="M1631.95 341.392C1629.83 346.004 1628.62 357.529 1625.3 360.6C1618.83 366.592 1615.02 354.251 1613.17 348.471C1611.15 342.117 1611.06 343.727 1604.71 340.598C1602.09 339.304 1595.28 335.868 1594.7 332.838C1593.46 326.444 1600.28 324.532 1606.86 324.402C1610.02 324.338 1612.66 321.989 1613.12 318.855C1613.96 313.188 1616.24 306.658 1621.64 304.602C1630.55 301.207 1629.32 315.893 1631.43 321.435C1632.69 324.744 1635 324.55 1638.02 325.033C1642.04 325.673 1655.03 330.958 1647.95 336.175C1645.58 337.924 1642.53 338.943 1639.75 339.791C1638.92 340.043 1632.16 340.968 1631.96 341.396L1631.95 341.392Z" fill="#FDE68A"/>
<path d="M1595.4 309.22C1594.31 311.596 1593.69 317.539 1591.98 319.122C1588.64 322.21 1586.67 315.848 1585.73 312.872C1584.68 309.599 1584.64 310.428 1581.36 308.814C1580.01 308.147 1576.5 306.375 1576.2 304.814C1575.56 301.518 1579.08 300.531 1582.47 300.468C1584.1 300.436 1585.46 299.223 1585.7 297.609C1586.13 294.687 1587.3 291.323 1590.09 290.259C1594.68 288.51 1594.05 296.08 1595.13 298.935C1595.78 300.644 1596.97 300.54 1598.53 300.788C1600.6 301.117 1607.29 303.841 1603.65 306.532C1602.42 307.434 1600.86 307.957 1599.42 308.395C1598.99 308.525 1595.5 308.999 1595.4 309.224V309.22Z" fill="#FDE68A"/>
<path d="M273.284 371.384C267.178 365.642 263.416 357.469 263.027 349.099C262.839 345.027 264.197 340.006 268.174 339.133C270.765 338.564 273.314 340.07 275.486 341.589C282.205 346.299 288.353 351.829 293.743 358.009C290.161 352.471 286.52 346.805 284.876 340.419C283.231 334.033 283.901 326.675 288.225 321.704C297.016 324.043 303.67 331.6 307.237 339.968C310.804 348.336 311.755 357.553 312.659 366.605C312.972 369.702 313.222 373.065 311.54 375.682C304.3 386.941 280.181 377.863 273.275 371.375L273.284 371.384Z" fill="#F5F3FF"/>
<path d="M329.682 315.238C329.756 310.231 331.846 305.278 335.382 301.734C337.103 300.011 339.866 298.587 341.853 299.99C343.148 300.904 343.511 302.635 343.715 304.206C344.344 309.068 344.381 314.008 343.826 318.877C344.827 315.065 345.86 311.176 348.015 307.877C350.17 304.579 353.686 301.91 357.622 301.814C360.132 306.636 359.478 312.616 357.223 317.562C354.968 322.507 351.285 326.64 347.655 330.686C346.415 332.072 345.031 333.537 343.199 333.849C335.314 335.191 329.603 320.892 329.683 315.231L329.682 315.238Z" fill="#F5F3FF"/>
</g>
<defs>
<clipPath id="clip0_22_1605">
<rect width="1920" height="1631" fill="white"/>
</clipPath>
</defs>
</svg>
