<svg width="1920" height="1631" viewBox="0 0 1920 1631" fill="none" xmlns="http://www.w3.org/2000/svg">
<g clip-path="url(#clip0_22_1605)">
<rect width="1920" height="1631" fill="white"/>
<rect width="1920" height="1631" fill="#A78BFA"/>
<g filter="url(#filter0_f_22_1605)">
<circle cx="1605" cy="298" r="467" fill="#FFB7DE"/>
</g>
<g filter="url(#filter1_f_22_1605)">
<circle cx="426.5" cy="653.5" r="355.5" fill="#FFB7DE"/>
</g>
<g filter="url(#filter2_f_22_1605)">
<ellipse cx="1344.5" cy="1729.5" rx="584.5" ry="355.5" fill="#FFB7DE"/>
</g>
<path d="M2399.32 58.0835C2346.1 105.32 2292.31 163.486 2224.1 184.321C2144.78 208.544 2067.46 168.37 1994.02 135.715C1928.51 106.543 1860.21 85.8506 1791.57 107.462C1719.34 130.23 1657.15 190.305 1600.61 241.578C1544.45 292.434 1487.35 341.997 1413.53 358.286C1345.51 373.291 1285.7 346.762 1227.61 307.276C1172.64 269.933 1119.35 229.278 1055.76 213.156C977.781 193.352 899.75 214.264 831.325 252.734C758.82 293.497 696.946 356.655 642.002 425.019C552.147 370.973 434.856 375.226 339.259 402.681C197.948 443.303 77.5178 542.051 -25.898 650.416C-61.9451 613.47 -112.726 594.9 -162.749 591.69C-253.55 585.858 -344.274 616.668 -426.669 652.006C-510.768 688.079 -589.764 735.912 -663.178 792.624C-929.246 998.22 -1122.2 1319.76 -1239.45 1649.87C-1250.96 1682.24 -1261.47 1715.12 -1271.33 1748.16C-1284.47 1792.22 -1221.65 1817.84 -1208.5 1773.85C-1106.77 1432.59 -921.02 1108.48 -664.225 885.403C-589.211 820.225 -506.302 768.174 -417.73 727.15C-340.369 691.351 -253.527 659.795 -167.312 663.826C-127.691 665.685 -95.7154 677.972 -73.1229 701.916C-114.607 749.138 -153.934 798.752 -192.018 849.253C-226.645 895.132 -262.326 941.137 -291.486 991.517C-339.573 1074.6 -386.635 1165.94 -403.569 1264.39C-410.714 1306.21 -405.702 1352.34 -374.578 1382.59C-339.216 1416.87 -280.984 1409.62 -241.13 1395.31C-117.891 1350.99 -52.3163 1192.26 -13.1495 1068.31C20.7533 961.121 51.0091 830.87 14.3159 717.659C13.6946 715.679 12.852 713.881 12.1819 711.98C101.016 617.005 201.554 533.123 319.147 485.734C400.312 452.998 514.666 438.049 598.675 481.45C588.355 495.585 578.22 509.686 568.33 523.741C531.127 576.592 497.471 632.485 471.284 693.066C449.953 742.551 436.828 796.935 454.515 851.185C470.128 899.047 512.835 924.702 556.892 914.916C603.439 904.528 642.892 865.502 674.476 829.544C707.77 791.523 737.081 748.796 757.546 700.798C782.938 641.063 758.227 557.187 724.233 504.988C715.528 491.592 705.932 479.549 695.714 468.599C727.401 430.806 761.27 395.541 796.826 364.571C857.672 311.59 934.576 272.314 1015.28 278.765C1080.78 283.989 1136.56 329.14 1190.84 366.541C1246.64 404.985 1305.74 434.858 1371.82 435.366C1448.26 435.974 1516.46 401.736 1576.99 355.586C1643.35 305 1700.05 241.27 1770.49 196.561C1846.19 148.431 1922.12 180.764 1998.48 215.461C2078.02 251.523 2160.56 279.488 2244.68 253.813C2322.14 230.144 2382.76 167.777 2443.34 114.009C2475.97 85.0482 2431.74 29.3714 2399.05 58.3431L2399.32 58.0835ZM-37.1198 785.441C-29.4403 842.177 -40.9724 902.062 -52.7099 956.399C-67.7402 1026.15 -90.1762 1094.97 -119.949 1158.45C-148.029 1218.41 -185.328 1281.33 -240.072 1315.23C-260.671 1328 -284.89 1334.59 -308.94 1334.23C-316.833 1334.09 -323.344 1332.86 -330.525 1329.72C-334.042 1328.21 -335.009 1325.74 -336.457 1322.73C-340.626 1314.28 -340.237 1297.25 -338.577 1281.93C-336.112 1258.64 -328.684 1236.1 -321.364 1214.35C-305.208 1166.39 -283.284 1121.12 -260.054 1077.08C-202.393 967.993 -124.85 870.646 -46.8683 778.733C-44.5343 775.926 -42.0644 773.163 -39.7179 770.423C-38.7542 775.271 -37.8884 780.277 -37.1813 785.452L-37.1198 785.441ZM689.579 582.501C699.866 608.171 706.242 644.901 696.643 670.772C688.83 691.913 676.026 711.117 663.943 729.42C636.883 770.263 602.741 811.235 561.586 835.285C532.508 852.274 511.054 843.69 512.008 800.991C513.208 745.259 546.279 690.313 572.305 645.612C596.551 603.964 623.632 562.558 653.017 522.959C667.662 539.301 680.148 559.046 689.592 582.569L689.579 582.501Z" fill="#AD93FA"/>
<path d="M2056.63 1110.84C2035.66 1105.24 2007.23 1134.31 1993.51 1146.84C1973.99 1164.66 1958.41 1186.62 1949.05 1211.4C1942.04 1229.91 1938.79 1249.55 1938.66 1269.23L1872.69 1128.61C1892.07 1125.74 1914.56 1102.93 1926.3 1092.2C1945.82 1074.38 1961.41 1052.44 1970.77 1027.66C1980.35 1002.32 1982.97 974.908 1980.08 948.064C1977.59 925.006 1971.81 901.427 1961.82 880.4C1942.64 840.009 1896.89 900.774 1882.62 919.251C1855.31 954.592 1836.47 997.791 1835.01 1042.85C1834.96 1044.41 1834.95 1046.2 1834.94 1048.13L1791.48 955.49C1790.57 953.541 1789.56 951.675 1788.53 949.929C1840.16 919.745 1879.62 869.719 1892.66 809.734C1898.86 781.175 1899.62 711.148 1863.69 700.145C1837.88 692.25 1798.87 719.937 1777.63 730.431C1773.22 732.608 1768.82 734.777 1764.41 736.954C1749.66 684.204 1702.43 647.118 1638.62 673.016C1598.87 689.161 1577.78 721.751 1583.04 764.787C1584.82 779.348 1592.4 797.727 1603.51 812.521C1570.28 825.94 1533.78 842.407 1521.81 862.162C1520.31 864.627 1519.24 867.171 1518.53 869.777C1510.2 900.184 1552.66 937.915 1574.07 951.841C1611.2 975.98 1656.42 984.516 1700.1 979.545C1721.45 977.112 1742.18 971.525 1761.72 963.294C1762.35 964.995 1763.05 966.724 1763.86 968.447L1848.53 1148.92C1836.63 1138.9 1823.48 1130.25 1809.77 1123.39C1771.07 1103.98 1706.84 1090.18 1666.04 1112.08C1644.68 1123.54 1681.51 1162.85 1690.39 1173.76C1715.34 1204.44 1754.41 1227.03 1792.68 1237.46C1813.87 1243.24 1866.61 1249.84 1887.87 1232.79L1972.59 1413.39C1948.78 1392.18 1918.26 1376.46 1888.21 1368.26C1864.96 1361.92 1803.63 1354.57 1787.71 1378.63C1775.89 1396.48 1798.07 1419.91 1809.04 1433.29C1825.72 1453.63 1847.62 1470.58 1871.1 1482.34C1908.64 1501.17 1970.21 1514.72 2011.1 1495.51L2029.75 1535.28C2037.09 1550.93 2049.25 1560.72 2056.89 1557.14C2064.53 1553.55 2064.77 1537.96 2057.42 1522.3L1985.89 1369.81C2005.72 1361.2 2028.03 1331.69 2037.24 1319.77C2064.55 1284.43 2083.4 1241.23 2084.85 1196.17C2085.52 1175.41 2081.53 1117.44 2056.68 1110.8L2056.63 1110.84ZM1632.69 832.824C1615.43 796.032 1629.58 753 1664.3 736.712C1699.02 720.424 1741.16 737.052 1758.42 773.844C1775.68 810.635 1761.53 853.667 1726.81 869.955C1692.09 886.244 1649.95 869.615 1632.69 832.824Z" fill="#CD9EEE"/>
<path d="M401.354 1671.98C346.3 1662.35 296.856 1645.98 251.275 1624.92C205.472 1604.04 164.203 1577.91 127.28 1546.8C91.6645 1514.46 60.256 1476.74 42.5377 1428.44C34.1479 1404.18 29.6023 1377.23 32.0414 1348.27C34.0583 1319.35 45.3092 1288.62 62.1883 1260.69C69.9375 1246.42 80.0615 1233.52 90.3143 1220.59C95.6741 1214.37 101.465 1208.56 107.059 1202.59L115.713 1193.77L124.807 1185.79L143.327 1169.95C149.596 1165.08 156.098 1160.46 162.6 1155.84C175.431 1146.1 188.793 1138.29 201.982 1129.99C254.884 1097.61 320.577 1071.05 390.354 1061.05C461.621 1053.64 530.498 1065.85 583.267 1089.6C610.15 1101.25 634.092 1115.27 655.014 1131.01C676.16 1146.56 694.931 1163.61 711.155 1181.68C727.895 1199.56 742.381 1218.46 754.963 1238.13C767.932 1257.67 778.647 1278.23 787.811 1299.33C806.176 1341.63 818.186 1386.5 820.839 1434.88C821.728 1446.9 821.619 1459.38 821.216 1471.85C820.297 1484.5 819.035 1497.83 816.973 1508.88C815.085 1520.43 813.457 1531.89 810.631 1543.66C808.192 1555.29 805.623 1566.97 801.987 1578.91C788.699 1626.13 769.26 1674.84 735.84 1722.58C703.522 1770.16 654.446 1816.31 594.952 1849.35C535.13 1882.27 467.98 1900.56 406.017 1906.37C374.971 1909.29 344.744 1909.6 315.452 1908.02C286.348 1906.15 258.377 1902.55 231.221 1897.55C177.32 1887.08 127.333 1871.23 81.161 1851.37C-23.223 1805.9 -110.365 1741.36 -174.101 1661.27C-217.639 1613.83 -252.59 1559.03 -272.022 1496.78C-291.678 1434.72 -294.721 1364.59 -275.651 1293.79C-266.407 1266.44 -254.817 1239.15 -240.114 1212.87C-232.663 1199.81 -224.79 1186.71 -216.251 1174.26C-207.384 1161.93 -198.881 1149.38 -189.358 1137.26C-151.303 1088.66 -104.118 1043.73 -50.8975 1005.24C57.0388 929.617 184.054 881.825 308.442 857.505C433.292 829.135 559.544 822.486 679.138 835.285C796.675 852.139 906.979 888.865 996.863 947.992L1030.56 970.349L1062.04 995.042L1090.92 1021.87L1116.58 1049.83C1149.24 1088.21 1175.96 1130.35 1196.07 1175.14C1232.68 1266.01 1241.87 1365.97 1226.44 1465.69C1214.52 1554.75 1183.51 1644.41 1135.57 1729.69C1089.21 1815.31 1026.34 1897.74 947.593 1970.54C867.33 2042.32 771.917 2103.21 669.41 2149.71C618.713 2173.09 565.836 2193.58 511.344 2210.31C456.608 2226.34 400.213 2238.07 343.466 2244.26C229.957 2257.43 115.713 2243.75 20.1462 2206.83C-26.7059 2187.11 -69.7186 2163.03 -107.287 2135.04C-143.593 2108.16 -176.566 2080.44 -209.301 2051.74C-274.031 1993.99 -334.478 1932.72 -385.572 1863.39C-411.392 1829.6 -435.046 1793.71 -452.914 1753.24C-461.671 1732.88 -469.053 1711.49 -473.355 1688.12C-477.622 1664.85 -478.784 1639.27 -472.997 1611.58C-430.705 1631.13 -384.438 1639.29 -337.045 1641.17C-333.597 1675.72 -315.557 1713.8 -292.136 1749.44C-268.611 1785.37 -239.581 1820.03 -207.72 1853.25C-177.156 1888.15 -143.399 1921.82 -107.878 1954.31C-90.1342 1970.5 -71.8727 1986.51 -53.2005 2002.05L-24.9228 2025.09C-15.4452 2032.64 -5.60376 2040.4 3.55103 2046.62L24.7514 2060.26C32.0733 2064.57 39.7729 2068.31 47.1543 2072.38C61.6342 2080.94 78.1991 2086.78 93.6227 2093.9C101.7 2097.06 110.121 2099.54 118.257 2102.45L130.492 2106.7C134.684 2107.89 139.099 2108.9 143.257 2109.99L168.789 2116.56L195.221 2121.14C230.002 2128.01 266.165 2132.62 303.932 2131.88L318.059 2132.02C322.807 2131.91 327.581 2131.45 332.295 2131.23C341.817 2130.66 351.375 2130.19 360.991 2129.47C380.359 2126.77 399.627 2125.43 419.189 2121.22C441.448 2116.83 463.647 2109.8 485.831 2103.55C507.787 2095.82 529.892 2088.94 551.42 2079.58C573.202 2071.37 594.477 2060.88 615.772 2051.28C636.427 2040.68 657.22 2030.48 676.836 2018.58C759.021 1975.79 833.076 1920.19 896.291 1857.3C925.758 1824.72 951.667 1790.28 974.403 1755.07C997.268 1719.81 1016.56 1683.48 1031.74 1646.59C1048.29 1609.89 1061.35 1572.75 1070.57 1535.41C1079.49 1498.06 1084.38 1460.8 1085.41 1424.12C1087.82 1350.52 1071.38 1279.88 1040.21 1216.43C1025.17 1184.4 1005.81 1154.11 982.846 1125.98C976.801 1119.11 971.107 1112 964.968 1105.28L945.993 1086.4L925.125 1068.75C917.996 1062.93 909.976 1057.87 902.495 1052.28C838.436 1011.28 759.365 982.892 673.544 968.32C587.664 953.991 495.438 951.335 403.741 963.378C312.306 976.994 221.782 1003.51 142.97 1044.34C67.8977 1079.3 0.256645 1126.31 -49.4322 1184.33C-98.9968 1243.53 -128.205 1307.79 -131.901 1371.96C-136.218 1436.01 -115.664 1498.98 -78.8062 1554.65C-24.548 1627.2 56.7768 1686.34 150.521 1724.67C218.052 1756.57 295.135 1777.65 370.987 1778.74C389.922 1778.52 408.442 1777.11 426.543 1774.52C444.41 1771.68 461.497 1767.45 477.582 1762.01C493.701 1756.67 508.281 1749.43 522.125 1741.34C535.969 1733.25 548.54 1723.61 560.134 1712.42C608.005 1669.03 637.533 1601.56 650.384 1532.06L655.65 1505.77C656.618 1498.21 658.079 1490.81 658.357 1482.94C659.604 1467.5 658.917 1451.53 656.766 1435.51C652.922 1403.54 642.899 1371.74 628.881 1341.8C612.444 1312.82 591.661 1285.92 566.908 1263.41C554.609 1251.97 541.106 1242.05 527.332 1233.02C513.051 1224.6 498.394 1216.76 482.975 1211.3C422.22 1188.36 357.435 1196.04 290.485 1231.81C282.085 1235.99 273.938 1241.3 265.677 1245.87C257.684 1250.79 250.804 1255.99 243.233 1260.87C230.517 1271.34 217.861 1281.57 210.256 1292.13C207.971 1294.71 205.814 1297.25 204.443 1299.95L199.477 1307.7C197.287 1313.02 194.276 1318.08 193.163 1323.58C190.083 1334.22 188.712 1345.59 190.972 1357.79C193.55 1369.65 198.155 1381.92 205.715 1393.92C212.595 1406.05 222.267 1417.86 232.937 1429.22C254.828 1451.84 282.013 1472.6 312.895 1489.84C342.332 1507.91 374.839 1523.58 408.935 1534.69C425.863 1540.73 443.362 1544.68 460.465 1548.33C477.652 1551.39 494.422 1553.27 509.955 1553.69C496.976 1574.14 480.454 1594.83 461.395 1614.09C443.209 1634.59 423.259 1653.39 401.105 1672.51L401.354 1671.98Z" fill="#AD93FA"/>
</g>
<defs>
<filter id="filter0_f_22_1605" x="438" y="-869" width="2334" height="2334" filterUnits="userSpaceOnUse" color-interpolation-filters="sRGB">
<feFlood flood-opacity="0" result="BackgroundImageFix"/>
<feBlend mode="normal" in="SourceGraphic" in2="BackgroundImageFix" result="shape"/>
<feGaussianBlur stdDeviation="350" result="effect1_foregroundBlur_22_1605"/>
</filter>
<filter id="filter1_f_22_1605" x="-629" y="-402" width="2111" height="2111" filterUnits="userSpaceOnUse" color-interpolation-filters="sRGB">
<feFlood flood-opacity="0" result="BackgroundImageFix"/>
<feBlend mode="normal" in="SourceGraphic" in2="BackgroundImageFix" result="shape"/>
<feGaussianBlur stdDeviation="350" result="effect1_foregroundBlur_22_1605"/>
</filter>
<filter id="filter2_f_22_1605" x="60" y="674" width="2569" height="2111" filterUnits="userSpaceOnUse" color-interpolation-filters="sRGB">
<feFlood flood-opacity="0" result="BackgroundImageFix"/>
<feBlend mode="normal" in="SourceGraphic" in2="BackgroundImageFix" result="shape"/>
<feGaussianBlur stdDeviation="350" result="effect1_foregroundBlur_22_1605"/>
</filter>
<clipPath id="clip0_22_1605">
<rect width="1920" height="1631" fill="white"/>
</clipPath>
</defs>
</svg>
