<svg width="1920" height="4885" viewBox="0 0 1920 4885" fill="none" xmlns="http://www.w3.org/2000/svg">
<path d="M299.044 3085.51C297.967 3079.5 300.052 3065.73 297.13 3061.16C291.413 3052.24 283.251 3065.43 279.36 3071.6C275.082 3078.38 275.464 3076.48 267.136 3078.19C263.693 3078.91 254.744 3080.84 253.146 3084.18C249.771 3091.24 257.128 3095.53 264.734 3097.67C268.4 3098.7 270.746 3102.23 270.334 3106.01C269.597 3112.85 270.267 3121.13 275.929 3125.17C285.262 3131.81 288.271 3114.36 292.403 3108.56C294.869 3105.09 297.498 3106.01 301.15 3106.37C306.018 3106.84 322.719 3104.62 316.067 3096.42C313.833 3093.67 310.605 3091.56 307.619 3089.73C306.731 3089.19 299.148 3086.07 299.05 3085.51L299.044 3085.51Z" fill="#FDE68A"/>
<path d="M347.765 3128.21C346.505 3121.17 348.948 3105.01 345.517 3099.65C338.811 3089.17 329.232 3104.66 324.664 3111.89C319.646 3119.84 320.089 3117.61 310.323 3119.62C306.283 3120.46 295.781 3122.73 293.906 3126.66C289.945 3134.94 298.579 3139.97 307.501 3142.48C311.797 3143.69 314.556 3147.83 314.077 3152.27C313.209 3160.3 313.997 3170.02 320.643 3174.74C331.586 3182.53 335.127 3162.06 339.973 3155.25C342.87 3151.19 345.944 3152.27 350.237 3152.68C355.945 3153.24 375.543 3150.64 367.738 3141.01C365.123 3137.78 361.333 3135.31 357.832 3133.16C356.79 3132.52 347.898 3128.86 347.773 3128.21L347.765 3128.21Z" fill="#FDE68A"/>
<path d="M286.487 3159.13C285.836 3155.5 287.097 3147.17 285.327 3144.4C281.872 3139 276.931 3146.99 274.583 3150.71C271.994 3154.8 272.226 3153.66 267.188 3154.7C265.105 3155.13 259.69 3156.3 258.724 3158.32C256.681 3162.59 261.128 3165.18 265.732 3166.47C267.947 3167.1 269.368 3169.23 269.121 3171.52C268.674 3175.66 269.08 3180.67 272.503 3183.11C278.144 3187.12 279.971 3176.57 282.466 3173.06C283.959 3170.96 285.546 3171.53 287.756 3171.74C290.697 3172.03 300.798 3170.69 296.777 3165.72C295.43 3164.06 293.476 3162.78 291.669 3161.68C291.131 3161.35 286.544 3159.46 286.489 3159.12L286.487 3159.13Z" fill="#FDE68A"/>
<path d="M306.591 1132.16C307.713 1138.42 305.541 1152.76 308.584 1157.52C314.538 1166.81 323.038 1153.07 327.089 1146.65C331.545 1139.59 331.147 1141.57 339.819 1139.78C343.405 1139.04 352.725 1137.03 354.39 1133.55C357.904 1126.19 350.242 1121.73 342.321 1119.5C338.504 1118.42 336.06 1114.75 336.49 1110.81C337.257 1103.69 336.559 1095.06 330.663 1090.86C320.943 1083.95 317.81 1102.11 313.507 1108.16C310.939 1111.78 308.201 1110.81 304.398 1110.44C299.328 1109.95 281.935 1112.26 288.863 1120.8C291.189 1123.67 294.551 1125.86 297.66 1127.77C298.586 1128.33 306.483 1131.58 306.585 1132.16L306.591 1132.16Z" fill="#FDE68A"/>
<path d="M255.853 1087.69C257.165 1095.03 254.62 1111.85 258.193 1117.44C265.177 1128.35 275.153 1112.22 279.91 1104.69C285.135 1096.41 284.675 1098.74 294.845 1096.64C299.052 1095.77 309.989 1093.4 311.942 1089.31C316.067 1080.69 307.075 1075.45 297.783 1072.83C293.31 1071.57 290.437 1067.26 290.936 1062.64C291.84 1054.27 291.019 1044.16 284.098 1039.24C272.701 1031.12 269.014 1052.44 263.967 1059.53C260.95 1063.77 257.749 1062.64 253.278 1062.21C247.334 1061.63 226.924 1064.34 235.053 1074.37C237.776 1077.73 241.723 1080.3 245.368 1082.54C246.454 1083.2 255.715 1087.01 255.844 1087.7L255.853 1087.69Z" fill="#FDE68A"/>
<path d="M319.668 1055.5C320.346 1059.28 319.033 1067.95 320.876 1070.83C324.474 1076.45 329.619 1068.14 332.065 1064.26C334.761 1060 334.519 1061.2 339.766 1060.11C341.935 1059.66 347.574 1058.44 348.58 1056.34C350.708 1051.89 346.076 1049.19 341.282 1047.85C338.975 1047.2 337.496 1044.97 337.753 1042.59C338.218 1038.28 337.796 1033.07 334.23 1030.53C328.356 1026.34 326.454 1037.33 323.855 1040.99C322.301 1043.17 320.648 1042.59 318.346 1042.36C315.284 1042.07 304.764 1043.46 308.951 1048.63C310.354 1050.37 312.39 1051.69 314.272 1052.84C314.832 1053.19 319.609 1055.15 319.666 1055.5L319.668 1055.5Z" fill="#FDE68A"/>
<path d="M1590.44 378.637C1590.23 371.489 1592.91 364.296 1597.73 359.022C1600.08 356.457 1603.93 354.256 1606.86 356.135C1608.76 357.358 1609.38 359.806 1609.77 362.033C1610.97 368.929 1611.33 375.975 1610.84 382.953C1612.03 377.454 1613.26 371.843 1616.13 367.004C1619 362.166 1623.85 358.142 1629.46 357.763C1633.34 364.485 1632.78 373.056 1629.87 380.25C1626.95 387.443 1621.96 393.567 1617.03 399.562C1615.34 401.616 1613.46 403.792 1610.87 404.35C1599.7 406.751 1590.67 386.706 1590.44 378.627V378.637Z" fill="#F5F3FF"/>
<path d="M1469.95 287.456C1470.29 285.973 1470.88 284.505 1471.94 283.407C1472.99 282.312 1474.59 281.654 1476.06 282.014C1477.53 282.37 1478.59 283.606 1479.44 284.849C1483.08 290.232 1484.35 296.835 1485.52 303.228C1486.22 297.253 1486.94 291.16 1489.52 285.721C1490.19 284.292 1491.13 282.807 1492.65 282.368C1494.59 281.801 1496.51 283.185 1498.07 284.48C1499.86 285.963 1501.74 287.601 1502.32 289.854C1502.96 292.346 1501.83 294.916 1500.73 297.24C1498.23 302.506 1494.37 314.647 1487.32 314.974C1480.31 315.301 1474.03 305.872 1471.56 300.35C1469.76 296.341 1468.91 291.783 1469.94 287.451L1469.95 287.456Z" fill="#F5F3FF"/>
<path d="M1599.2 221.141C1598.4 215.934 1599.98 210.082 1604.25 207C1607.45 207.896 1609.65 210.999 1610.43 214.229C1611.21 217.46 1610.83 220.85 1610.44 224.152C1611.56 219.79 1612.99 214.997 1616.85 212.668C1618.13 211.895 1619.76 211.47 1621.12 212.094C1623.06 212.99 1623.57 215.586 1623.12 217.68C1622.29 221.638 1619.16 224.679 1615.92 227.096C1613.93 228.576 1611.84 229.917 1609.94 231.509C1608.58 232.651 1606.9 234.955 1604.95 233.762C1603.34 232.784 1602.11 229.502 1601.33 227.854C1600.33 225.719 1599.56 223.471 1599.2 221.136V221.141Z" fill="#F5F3FF"/>
<path d="M1486.42 2286.51C1483.86 2275.92 1477.05 2266.41 1467.85 2260.58C1463.37 2257.75 1456.82 2256.05 1453.28 2259.98C1450.97 2262.54 1451.03 2266.39 1451.35 2269.82C1452.34 2280.44 1454.63 2290.95 1458.15 2301.01C1454.19 2293.4 1450.14 2285.65 1443.98 2279.68C1437.82 2273.71 1429.08 2269.73 1420.68 2271.42C1417.67 2282.85 1421.92 2295.23 1429.08 2304.65C1436.24 2314.06 1446.04 2321.07 1455.68 2327.91C1458.98 2330.26 1462.62 2332.71 1466.66 2332.49C1484.03 2331.56 1489.3 2298.47 1486.42 2286.49L1486.42 2286.51Z" fill="#F5F3FF"/>
<path d="M1627.15 2104.24C1626.04 2102.2 1624.59 2100.28 1622.6 2099.08C1620.61 2097.9 1618 2097.57 1615.97 2098.69C1613.96 2099.79 1612.89 2102.04 1612.15 2104.2C1608.94 2113.58 1609.72 2123.79 1610.55 2133.66C1607.14 2125.16 1603.64 2116.48 1597.68 2109.52C1596.11 2107.68 1594.14 2105.88 1591.73 2105.84C1588.65 2105.78 1586.37 2108.58 1584.59 2111.11C1582.56 2114.01 1580.44 2117.17 1580.5 2120.71C1580.55 2124.63 1583.24 2127.96 1585.79 2130.94C1591.57 2137.68 1602.1 2153.99 1612.6 2151.66C1623.04 2149.33 1628.51 2132.95 1629.94 2123.85C1630.97 2117.23 1630.39 2110.19 1627.15 2104.23L1627.15 2104.24Z" fill="#F5F3FF"/>
<path d="M1433.42 2110.02C1432.51 2102.05 1427.84 2094.07 1420.33 2091.25C1415.98 2093.85 1413.99 2099.29 1414.14 2104.35C1414.28 2109.41 1416.2 2114.25 1418.09 2118.95C1414.7 2112.98 1410.67 2106.5 1404.08 2104.62C1401.89 2103.99 1399.32 2104.02 1397.56 2105.48C1395.07 2107.58 1395.36 2111.6 1396.85 2114.5C1399.66 2119.99 1405.48 2123.21 1411.22 2125.46C1414.73 2126.85 1418.34 2127.98 1421.77 2129.57C1424.23 2130.7 1427.62 2133.42 1430.01 2130.88C1431.98 2128.8 1432.49 2123.48 1432.96 2120.75C1433.58 2117.21 1433.82 2113.59 1433.41 2110.02L1433.42 2110.02Z" fill="#F5F3FF"/>
<path d="M1603.41 4217.81C1605.97 4207.22 1612.78 4197.71 1621.98 4191.88C1626.46 4189.05 1633.01 4187.35 1636.55 4191.29C1638.86 4193.85 1638.8 4197.7 1638.48 4201.13C1637.49 4211.75 1635.2 4222.25 1631.68 4232.32C1635.64 4224.71 1639.69 4216.95 1645.85 4210.98C1652.01 4205.01 1660.75 4201.03 1669.15 4202.72C1672.16 4214.16 1667.91 4226.54 1660.75 4235.95C1653.59 4245.36 1643.79 4252.37 1634.15 4259.22C1630.85 4261.56 1627.21 4264.01 1623.17 4263.79C1605.8 4262.86 1600.53 4229.77 1603.41 4217.8L1603.41 4217.81Z" fill="#F5F3FF"/>
<path d="M1462.68 4035.54C1463.79 4033.5 1465.24 4031.58 1467.23 4030.38C1469.22 4029.2 1471.83 4028.87 1473.86 4029.99C1475.87 4031.1 1476.94 4033.34 1477.68 4035.51C1480.89 4044.88 1480.11 4055.09 1479.28 4064.97C1482.69 4056.46 1486.19 4047.79 1492.15 4040.82C1493.72 4038.99 1495.69 4037.18 1498.1 4037.14C1501.18 4037.08 1503.46 4039.89 1505.24 4042.41C1507.27 4045.31 1509.39 4048.47 1509.33 4052.02C1509.28 4055.94 1506.59 4059.27 1504.04 4062.24C1498.26 4068.99 1487.73 4085.3 1477.23 4082.96C1466.79 4080.64 1461.32 4064.26 1459.89 4055.15C1458.86 4048.54 1459.44 4041.5 1462.68 4035.54L1462.68 4035.54Z" fill="#F5F3FF"/>
<path d="M1704.47 4072.33C1705.38 4064.35 1710.05 4056.38 1717.56 4053.55C1721.91 4056.15 1723.9 4061.59 1723.75 4066.65C1723.6 4071.71 1721.69 4076.55 1719.8 4081.25C1723.19 4075.28 1727.21 4068.81 1733.81 4066.92C1736 4066.3 1738.57 4066.32 1740.32 4067.79C1742.82 4069.88 1742.53 4073.9 1741.04 4076.8C1738.23 4082.29 1732.41 4085.51 1726.67 4087.77C1723.16 4089.15 1719.55 4090.29 1716.12 4091.87C1713.66 4093 1710.27 4095.72 1707.88 4093.18C1705.91 4091.11 1705.4 4085.78 1704.93 4083.05C1704.31 4079.51 1704.07 4075.9 1704.47 4072.32L1704.47 4072.33Z" fill="#F5F3FF"/>
</svg>
