<svg width="4957" height="5354" viewBox="0 0 4957 5354" fill="none" xmlns="http://www.w3.org/2000/svg">
<path d="M4449.1 124.428C4411.55 183.922 4376.46 253.953 4317.41 292.497C4248.74 337.314 4164.27 320.423 4085.54 309.609C4015.31 299.918 3944.75 299.051 3885.51 338.45C3823.18 379.935 3780.63 454.089 3741.05 518.328C3701.69 582.069 3661.1 644.841 3595.48 680.608C3535 713.564 3470.91 704.817 3404.88 683.294C3342.41 662.945 3280.62 638.992 3215.79 641.168C3136.3 643.804 3067.94 685.122 3013.54 740.472C2955.89 799.122 2914.5 876.116 2881.12 956.149C2780.93 929.533 2670.71 965.826 2587.47 1018.19C2464.44 1095.63 2377.23 1222.52 2308.82 1353.87C2264.42 1328.7 2211.09 1325.03 2162.7 1335.73C2074.87 1355.17 1997.18 1409.37 1928.65 1465.59C1858.7 1522.98 1796.84 1590.12 1742.71 1664.17C1546.57 1932.59 1451.75 2291.01 1431.18 2636.75C1429.15 2670.65 1428.21 2704.77 1427.94 2738.86C1427.57 2784.31 1494.27 2791.37 1494.67 2745.98C1497.43 2393.92 1584.71 2035.03 1767.23 1752.57C1820.55 1670.04 1884.97 1597.81 1957.81 1534.5C2021.43 1479.22 2095.22 1425.38 2178.21 1405.49C2216.35 1396.37 2250.09 1399.24 2278.13 1415.77C2251.72 1472.02 2228.02 1529.95 2205.74 1588.38C2185.47 1641.48 2164.23 1694.98 2150.4 1750.84C2127.57 1842.96 2108 1942.65 2118.99 2040.8C2123.71 2082.49 2141.15 2124.92 2179.03 2145.08C2222.04 2167.92 2275.34 2145.01 2309.26 2120.46C2414.11 2044.49 2432.73 1875.71 2435.84 1747.23C2438.56 1636.11 2431.48 1504.1 2365.5 1406.67C2364.36 1404.96 2363.07 1403.49 2361.91 1401.87C2420.16 1287.24 2492.57 1179.93 2591.21 1102.59C2659.29 1049.18 2763.78 1003.54 2855.49 1021.66C2849.58 1037.92 2843.83 1054.09 2838.31 1070.16C2817.51 1130.58 2800.92 1192.92 2792.71 1257.65C2786.06 1310.51 2788.55 1365.77 2820.26 1412.43C2848.25 1453.59 2895.86 1466.21 2935.01 1444.8C2976.36 1422.13 3003.1 1374.22 3023.2 1331.39C3044.37 1286.12 3060.45 1237.49 3066.69 1186.28C3074.38 1122.56 3027.84 1049.7 2981.21 1009.48C2969.25 999.153 2956.83 990.354 2944.11 982.765C2963.81 938.161 2986.28 895.357 3011.53 856.168C3054.75 789.121 3116.98 730.673 3195.39 714.607C3259.03 701.556 3324.42 729.096 3386.25 749.689C3449.82 770.852 3514.16 782.97 3577.06 765.28C3649.82 744.836 3705.17 693.567 3749.96 633.095C3799.08 566.805 3835.39 490.691 3889.99 428.862C3948.65 362.335 4029.65 372.163 4111.71 384.114C4197.16 396.489 4283.23 400.349 4356.07 352.832C4423.11 309.055 4463.54 233.155 4506.28 165.435C4529.3 128.959 4471.99 88.2448 4448.92 124.748L4449.1 124.428ZM2335.29 1485.19C2358.19 1536.96 2363.7 1597 2367.5 1651.83C2372.4 1722.2 2370.02 1793.73 2359.21 1862.2C2349.03 1926.86 2330.91 1996.88 2288.24 2044.13C2272.19 2061.91 2251 2074.83 2228.07 2081.11C2220.53 2083.15 2214.01 2083.77 2206.33 2082.76C2202.57 2082.3 2200.97 2080.21 2198.77 2077.75C2192.49 2070.88 2188.17 2054.59 2185.53 2039.58C2181.47 2016.79 2182.33 1993.34 2183.3 1970.68C2185.45 1920.68 2193.82 1871.67 2203.77 1823.45C2228.54 1704 2275.41 1590.23 2324.19 1481.5C2325.63 1478.19 2327.22 1474.89 2328.69 1471.64C2330.94 1475.98 2333.14 1480.49 2335.24 1485.21L2335.29 1485.19ZM2969.61 1092.62C2986.44 1114.17 3002.59 1147.3 3000.59 1174.51C2998.99 1196.73 2992.11 1218.49 2985.67 1239.2C2971.2 1285.43 2950.04 1333.73 2917.57 1367.88C2894.63 1392.01 2871.9 1389.76 2861.06 1348.95C2846.87 1295.69 2863.17 1234.42 2875.59 1184.81C2887.17 1138.59 2901.5 1091.82 2918.51 1046.13C2936.92 1057.62 2954.2 1072.94 2969.64 1092.68L2969.61 1092.62Z" fill="#F5C7F7"/>
<path d="M74.5762 4336.84C141.708 4357.88 213.783 4388.56 283.742 4379.72C365.093 4369.44 418.554 4301.89 471.571 4242.69C518.835 4189.85 572.061 4143.52 642.72 4135.21C717.087 4126.49 797.513 4155.48 869.266 4178.83C940.52 4201.95 1012.1 4223.52 1085.27 4208.32C1152.7 4194.3 1195.89 4146.15 1232.3 4087.01C1266.74 4031.06 1298.35 3972.81 1349.17 3932.51C1411.48 3883.07 1490.32 3870.32 1567.62 3877.31C1649.52 3884.7 1730.91 3916.61 1808.15 3956.01C1867.31 3870.87 1974.81 3827.2 2072.16 3813.24C2216.06 3792.65 2364.67 3832.93 2501.84 3888.78C2519.38 3840.86 2557.66 3803.54 2601.48 3780.38C2681.01 3738.35 2775.32 3729.39 2863.94 3727.89C2954.4 3726.36 3045.03 3737.51 3134.21 3758.92C3457.45 3836.59 3761.71 4048.44 4001.17 4298.67C4024.66 4323.21 4047.46 4348.61 4069.73 4374.42C4099.43 4408.83 4053.15 4457.38 4023.47 4423.03C3793.5 4156.45 3494.69 3939.36 3172.73 3842.18C3078.68 3813.77 2982.82 3800.41 2886.32 3799.28C2802.04 3798.33 2710.94 3805.04 2634.81 3843.6C2599.83 3861.32 2575.97 3885.35 2565.29 3916.1C2621.83 3941.89 2677.4 3970.71 2732.2 4000.83C2782.01 4028.18 2832.83 4055.22 2879.53 4088.85C2956.55 4144.31 3035.99 4207.63 3091.14 4289.56C3114.53 4324.39 3128.69 4368.03 3112.87 4407.91C3094.86 4453.15 3039.4 4470.2 2997.66 4473.43C2868.56 4483.38 2745.13 4366.77 2659.6 4270.85C2585.61 4187.9 2505.56 4082.68 2492.8 3965.71C2492.56 3963.68 2492.59 3961.71 2492.43 3959.73C2373.84 3910.05 2249.19 3875.12 2123.93 3880C2037.47 3883.35 1928.28 3916.19 1870.09 3989.36C1885.12 3997.93 1899.97 4006.54 1914.58 4015.21C1969.55 4047.81 2022.54 4084.59 2070.69 4128.62C2109.98 4164.61 2143.84 4208.35 2149.86 4264.44C2155.17 4313.93 2127.04 4354.37 2083.34 4363.38C2037.15 4372.87 1985.76 4353.65 1942.71 4334.01C1897.28 4313.2 1853.54 4286.54 1815.64 4251.54C1768.55 4207.95 1756.86 4122.29 1766.38 4061.44C1768.8 4045.83 1772.58 4031.09 1777.36 4017.07C1733.47 3995.82 1688.64 3977.73 1644.03 3964.2C1567.7 3941.06 1482.43 3936.78 1412.25 3975.29C1355.29 4006.53 1323.27 4069.85 1289.47 4125.56C1254.71 4182.84 1213.5 4233.72 1154.11 4260.94C1085.41 4292.45 1010.04 4289.19 936.752 4272.09C856.406 4253.34 779.461 4218.83 697.821 4207.03C610.047 4194.29 554.666 4254.2 499.845 4316.42C442.716 4381.16 379.601 4439.81 293.327 4450.73C213.882 4460.76 133.941 4429.06 57.5315 4405.1C16.3729 4392.2 33.7056 4324.07 74.9242 4336.96L74.5762 4336.84ZM2566.65 4006.02C2582.7 4060.3 2617.36 4109.64 2649.95 4153.89C2691.76 4210.71 2739.87 4263.7 2792.43 4308.89C2842.04 4351.59 2901.17 4393.24 2964.28 4401.64C2988.02 4404.81 3012.54 4400.94 3034.08 4390.89C3041.15 4387.56 3046.52 4383.81 3051.73 4378.08C3054.29 4375.29 3054.16 4372.66 3054.24 4369.36C3054.58 4360.06 3047.33 4344.85 3039.63 4331.7C3027.97 4311.7 3012.14 4294.38 2996.73 4277.73C2962.73 4241.01 2924.63 4209.07 2885.84 4178.75C2789.65 4103.72 2680.28 4047.33 2572.72 3996.02C2569.48 3994.43 2566.13 3992.94 2562.91 3991.42C2564 3996.18 2565.25 4001.05 2566.71 4006L2566.65 4006.02ZM1829.03 4117.32C1830.15 4144.63 1839.27 4180.34 1858.41 4199.79C1874.02 4215.69 1893.35 4227.83 1911.66 4239.44C1952.61 4265.32 1999.99 4288.44 2046.85 4293.46C2079.96 4297.01 2095.83 4280.58 2077.68 4242.45C2054.02 4192.67 2001.94 4156.51 1960.36 4126.74C1921.63 4098.99 1880.43 4072.62 1837.89 4048.81C1831.3 4069.48 1828.03 4092.34 1829.04 4117.38L1829.03 4117.32Z" fill="#F5C7F7"/>
<path d="M3520.72 2778.21C3473.22 2774.41 3429.94 2764.43 3389.57 2750.16C3349.02 2736.08 3311.91 2717.16 3278.09 2693.68C3245.29 2669.04 3215.63 2639.52 3196.75 2599.91C3187.7 2579.98 3181.71 2557.46 3181.48 2532.68C3180.9 2507.96 3188.01 2480.98 3200.13 2455.93C3205.57 2443.19 3213.15 2431.44 3220.82 2419.65C3224.88 2413.94 3229.34 2408.55 3233.61 2403.04L3240.26 2394.86L3247.35 2387.37L3261.81 2372.45C3266.75 2367.81 3271.9 2363.37 3277.06 2358.94C3287.18 2349.65 3297.91 2341.96 3308.44 2333.87C3350.79 2302.17 3404.46 2274.41 3462.91 2260.39C3522.83 2248.44 3582.28 2253.34 3628.96 2269.32C3652.71 2277.08 3674.15 2287.08 3693.16 2298.78C3712.35 2310.31 3729.64 2323.3 3744.85 2337.35C3760.48 2351.2 3774.28 2366.1 3786.52 2381.8C3799.09 2397.36 3809.81 2413.96 3819.27 2431.15C3838.22 2465.61 3851.98 2502.75 3858.07 2543.62C3859.78 2553.75 3860.67 2564.36 3861.32 2574.98C3861.54 2585.79 3861.53 2597.21 3860.66 2606.76C3859.97 2616.71 3859.5 2626.57 3858.03 2636.79C3856.88 2646.86 3855.63 2656.98 3853.49 2667.4C3845.95 2708.55 3833.32 2751.45 3808.73 2794.64C3785.07 2837.6 3747.06 2880.67 3699.17 2913.44C3650.99 2946.14 3595.43 2967 3543.28 2976.85C3517.16 2981.79 3491.52 2984.45 3466.52 2985.43C3441.66 2986.15 3417.63 2985.32 3394.18 2983.23C3347.58 2978.61 3303.88 2969.12 3263.11 2955.93C3170.87 2925.6 3091.76 2877.73 3031.3 2814.78C2990.56 2777.95 2956.54 2734.21 2935.1 2682.89C2913.49 2631.76 2905.34 2572.46 2915.92 2510.84C2921.59 2486.88 2929.27 2462.79 2939.67 2439.32C2944.96 2427.63 2950.6 2415.89 2956.86 2404.64C2963.41 2393.46 2969.64 2382.14 2976.76 2371.09C3005.21 2326.81 3041.71 2284.92 3083.84 2248.02C3169.48 2175.24 3273.53 2124.59 3377.21 2094.07C3480.96 2060.08 3587.62 2044.41 3690.18 2045.79C3791.31 2050.77 3887.88 2073.2 3968.88 2116.27L3999.27 2132.58L4027.95 2151.04L4054.6 2171.53L4078.6 2193.23C4109.38 2223.23 4135.41 2256.88 4156.04 2293.32C4194.34 2367.56 4210.07 2451.7 4204.88 2537.6C4201.83 2614.15 4182.61 2692.74 4148.68 2768.95C4116.11 2845.32 4069.27 2920.3 4008.19 2988.35C3945.74 3055.66 3869.56 3114.93 3786.22 3162.55C3745.03 3186.43 3701.77 3208.02 3656.83 3226.54C3611.63 3244.5 3564.68 3258.94 3516.99 3268.69C3421.66 3288.88 3323.58 3286.33 3239.51 3262.57C3198.16 3249.54 3159.73 3232.51 3125.62 3211.72C3092.66 3191.78 3062.46 3170.86 3032.39 3149.1C2972.85 3105.2 2916.67 3057.98 2867.79 3003.17C2843.18 2976.53 2820.25 2947.94 2801.87 2914.99C2792.82 2898.4 2784.86 2880.82 2779.35 2861.33C2773.88 2841.91 2770.86 2820.28 2773.58 2796.31C2811.04 2809.56 2850.97 2812.81 2891.36 2810.65C2897.02 2839.71 2915.36 2870.61 2938.08 2899.01C2960.9 2927.65 2988.3 2954.77 3017.99 2980.45C3046.7 3007.66 3078.04 3033.56 3110.77 3058.32C3127.12 3070.67 3143.9 3082.81 3160.98 3094.52L3186.82 3111.84C3195.47 3117.5 3204.44 3123.3 3212.71 3127.86L3231.79 3137.76C3238.35 3140.84 3245.18 3143.4 3251.77 3146.27C3264.74 3152.39 3279.27 3156.03 3292.93 3160.86C3300.04 3162.9 3307.39 3164.34 3314.53 3166.16L3325.25 3168.8C3328.9 3169.48 3332.73 3169.98 3336.35 3170.58L3358.55 3174.13L3381.35 3175.92C3411.43 3178.99 3442.5 3180.04 3474.5 3176.42L3486.51 3175.41C3490.53 3174.94 3494.55 3174.17 3498.53 3173.61C3506.57 3172.37 3514.65 3171.21 3522.76 3169.84C3538.99 3166.01 3555.24 3163.34 3571.51 3158.21C3590.07 3152.72 3608.36 3144.99 3626.69 3137.92C3644.72 3129.62 3662.94 3122.02 3680.48 3112.37C3698.32 3103.67 3715.55 3093.08 3732.87 3083.24C3749.57 3072.6 3766.41 3062.29 3782.12 3050.63C3848.5 3007.77 3906.97 2954.69 3955.65 2896.28C3978.08 2866.28 3997.35 2834.98 4013.86 2803.28C4030.47 2771.54 4043.97 2739.16 4053.93 2706.63C4065.07 2674.16 4073.21 2641.59 4078.07 2609.16C4082.68 2576.74 4083.88 2544.72 4081.84 2513.49C4078.04 2450.81 4058.49 2392.14 4026.98 2340.74C4011.67 2314.74 3992.83 2290.56 3971.1 2268.5C3965.43 2263.14 3960.03 2257.56 3954.28 2252.34L3936.67 2237.82L3917.56 2224.49C3911.04 2220.11 3903.83 2216.45 3897.04 2212.3C3839.39 2182.57 3770.01 2164.75 3695.99 2159.18C3621.93 2153.83 3543.42 2158.9 3466.52 2176.4C3389.97 2195.21 3315.22 2224.91 3251.54 2265.83C3190.58 2301.47 3136.88 2346.75 3099.3 2399.96C3061.91 2454.15 3042.21 2511.02 3044.17 2565.8C3045.58 2620.52 3068.03 2672.35 3103.74 2716.7C3155.57 2773.99 3229.31 2817.75 3311.94 2842.86C3371.81 2864.57 3438.93 2876.36 3503.41 2871.26C3519.47 2869.57 3535.09 2866.91 3550.25 2863.28C3565.19 2859.44 3579.36 2854.49 3592.59 2848.6C3605.85 2842.79 3617.66 2835.49 3628.77 2827.52C3639.88 2819.55 3649.79 2810.37 3658.74 2799.95C3695.94 2759.31 3715.66 2699.68 3721.06 2639.65L3723.44 2616.91C3723.66 2610.42 3724.32 2604.02 3723.93 2597.31C3723.76 2584.11 3721.91 2570.6 3718.81 2557.17C3713.01 2530.34 3701.98 2504.14 3687.7 2479.82C3671.45 2456.52 3651.67 2435.33 3628.87 2418.19C3617.51 2409.45 3605.26 2402.1 3592.85 2395.52C3580.06 2389.51 3566.99 2384.02 3553.47 2380.6C3500.06 2365.94 3445.67 2377.61 3391.67 2413.29C3384.86 2417.5 3378.37 2422.66 3371.72 2427.2C3365.32 2432.01 3359.89 2436.97 3353.85 2441.71C3343.89 2451.61 3333.95 2461.3 3328.34 2470.87C3326.6 2473.25 3324.97 2475.57 3324.02 2477.97L3320.42 2484.94C3318.98 2489.64 3316.83 2494.17 3316.32 2498.93C3314.55 2508.21 3314.29 2517.97 3317.17 2528.15C3320.3 2538.02 3325.19 2548.06 3332.56 2557.65C3339.36 2567.41 3348.51 2576.67 3358.47 2585.46C3378.85 2602.93 3403.58 2618.4 3431.17 2630.59C3457.59 2643.6 3486.44 2654.32 3516.27 2661.05C3531.12 2664.83 3546.29 2666.8 3561.1 2668.54C3575.94 2669.77 3590.32 2670.04 3603.54 2669.16C3594.15 2687.55 3581.76 2706.44 3567.11 2724.3C3553.29 2743.15 3537.85 2760.69 3520.56 2778.68L3520.72 2778.21Z" fill="#F5C7F7"/>
</svg>
