<svg width="1920" height="4885" viewBox="0 0 1920 4885" fill="none" xmlns="http://www.w3.org/2000/svg">
<g clip-path="url(#clip0_22_679)">
<rect width="1920" height="4885" fill="white"/>
<rect width="1920" height="5303" transform="matrix(-1 -8.74228e-08 -8.74228e-08 1 1920 0)" fill="url(#paint0_linear_22_679)"/>
<path d="M2453.1 89.1258C2415.55 148.62 2380.46 218.652 2321.41 257.195C2252.74 302.012 2168.27 285.121 2089.54 274.307C2019.31 264.616 1948.75 263.749 1889.51 303.149C1827.18 344.633 1784.63 418.788 1745.05 483.026C1705.69 546.767 1665.1 609.539 1599.48 645.306C1539 678.262 1474.91 669.516 1408.88 647.992C1346.41 627.643 1284.62 603.691 1219.8 605.866C1140.3 608.502 1071.94 649.82 1017.54 705.17C959.893 763.821 918.501 840.814 885.122 920.847C784.926 894.231 674.708 930.524 591.472 982.887C468.443 1060.32 381.228 1187.22 312.817 1318.57C268.424 1293.4 215.092 1289.72 166.703 1300.43C78.8679 1319.86 1.18237 1374.07 -67.3485 1430.29C-137.295 1487.67 -199.161 1554.82 -253.285 1628.87C-449.425 1897.29 -544.247 2255.71 -564.823 2601.45C-566.845 2635.35 -567.791 2669.47 -568.063 2703.56C-568.427 2749.01 -501.728 2756.07 -501.334 2710.68C-498.566 2358.62 -411.293 1999.73 -228.766 1717.27C-175.451 1634.74 -111.028 1562.51 -38.1941 1499.19C25.4285 1443.92 99.222 1390.07 182.207 1370.19C220.345 1361.06 254.091 1363.94 282.131 1380.46C255.72 1436.72 232.016 1494.65 209.736 1553.08C189.468 1606.17 168.233 1659.68 154.396 1715.54C131.575 1807.66 111.999 1907.35 122.991 2005.5C127.706 2047.19 145.152 2089.61 183.028 2109.78C226.037 2132.61 279.344 2109.71 313.257 2085.16C418.107 2009.18 436.731 1840.41 439.842 1711.93C442.563 1600.81 435.478 1468.79 369.498 1371.37C368.364 1369.66 367.069 1368.18 365.91 1366.56C424.156 1251.94 496.568 1144.63 595.211 1067.29C663.29 1013.88 767.777 968.238 859.493 986.353C853.58 1002.61 847.833 1018.79 842.306 1034.86C821.508 1095.28 804.916 1157.62 796.707 1222.35C790.057 1275.21 792.548 1330.47 824.264 1377.12C852.252 1418.28 899.865 1430.9 939.014 1409.5C980.362 1386.83 1007.1 1338.92 1027.2 1296.09C1048.37 1250.82 1064.45 1202.18 1070.69 1150.97C1078.38 1087.26 1031.84 1014.4 985.206 974.179C973.255 963.851 960.83 955.053 948.115 947.464C967.815 902.859 990.282 860.055 1015.53 820.866C1058.75 753.819 1120.98 695.371 1199.39 679.305C1263.03 666.255 1328.42 693.794 1390.25 714.387C1453.82 735.55 1518.16 747.668 1581.06 729.978C1653.82 709.534 1709.17 658.266 1753.96 597.793C1803.08 531.503 1839.39 455.39 1893.99 393.56C1952.65 327.034 2033.65 336.861 2115.71 348.812C2201.16 361.187 2287.23 365.048 2360.07 317.531C2427.11 273.754 2467.54 197.853 2510.28 130.133C2533.3 93.6575 2475.99 52.9431 2452.92 89.4465L2453.1 89.1258ZM339.291 1449.89C362.186 1501.65 367.702 1561.7 371.498 1616.53C376.405 1686.9 374.023 1758.43 363.206 1826.9C353.026 1891.56 334.907 1961.57 292.242 2008.83C276.189 2026.61 255.001 2039.53 232.065 2045.81C224.53 2047.85 218.007 2048.47 210.326 2047.46C206.57 2046.99 204.972 2044.91 202.768 2042.45C196.488 2035.58 192.171 2019.29 189.535 2004.28C185.471 1981.49 186.328 1958.04 187.299 1935.38C189.452 1885.38 197.825 1836.37 207.775 1788.15C232.536 1668.7 279.406 1554.93 328.188 1446.2C329.633 1442.89 331.219 1439.58 332.694 1436.34C334.942 1440.68 337.141 1445.19 339.236 1449.91L339.291 1449.89ZM973.611 1057.32C990.439 1078.87 1006.6 1112 1004.59 1139.21C1002.99 1161.43 996.109 1183.19 989.667 1203.9C975.2 1250.12 954.043 1298.42 921.573 1332.58C898.631 1356.71 875.896 1354.46 865.06 1313.65C850.874 1260.39 867.17 1199.11 879.594 1149.51C891.167 1103.29 905.499 1056.52 922.515 1010.83C940.918 1022.32 958.205 1037.64 973.642 1057.38L973.611 1057.32Z" fill="#F5C7F7"/>
<path d="M-1921.42 4301.53C-1854.29 4322.58 -1782.22 4353.25 -1712.26 4344.42C-1630.91 4334.14 -1577.45 4266.59 -1524.43 4207.39C-1477.17 4154.55 -1423.94 4108.22 -1353.28 4099.91C-1278.91 4091.19 -1198.49 4120.18 -1126.73 4143.53C-1055.48 4166.65 -983.905 4188.22 -910.734 4173.02C-843.304 4159 -800.105 4110.85 -763.705 4051.7C-729.256 3995.76 -697.653 3937.51 -646.832 3897.21C-584.524 3847.77 -505.676 3835.02 -428.38 3842C-346.477 3849.4 -265.091 3881.3 -187.846 3920.71C-128.695 3835.57 -21.1858 3791.9 76.1553 3777.94C220.059 3757.34 368.673 3797.63 505.836 3853.48C523.384 3805.56 561.662 3768.24 605.479 3745.08C685.012 3703.04 779.316 3694.09 867.943 3692.59C958.404 3691.06 1049.03 3702.2 1138.21 3723.62C1461.45 3801.28 1765.71 4013.13 2005.17 4263.37C2028.66 4287.91 2051.46 4313.31 2073.73 4339.11C2103.43 4373.53 2057.15 4422.08 2027.47 4387.73C1797.5 4121.15 1498.69 3904.06 1176.73 3806.87C1082.68 3778.47 986.817 3765.11 890.315 3763.98C806.043 3763.03 714.938 3769.74 638.811 3808.29C603.83 3826.02 579.967 3850.05 569.288 3880.8C625.83 3906.59 681.395 3935.41 736.198 3965.53C786.011 3992.88 836.826 4019.92 883.531 4053.55C960.552 4109.01 1039.99 4172.32 1095.14 4254.26C1118.53 4289.09 1132.69 4332.72 1116.87 4372.61C1098.86 4417.85 1043.4 4434.9 1001.66 4438.13C872.56 4448.08 749.125 4331.47 663.598 4235.55C589.606 4152.6 509.562 4047.38 496.802 3930.41C496.561 3928.38 496.592 3926.41 496.427 3924.43C377.838 3874.75 253.186 3839.81 127.933 3844.7C41.4697 3848.05 -67.7229 3880.89 -125.912 3954.06C-110.88 3962.62 -96.0277 3971.24 -81.4151 3979.91C-26.4547 4012.51 26.5387 4049.29 74.6942 4093.32C113.976 4129.31 147.841 4173.04 153.861 4229.14C159.166 4278.63 131.039 4319.06 87.3391 4328.08C41.1501 4337.57 -10.2396 4318.35 -53.2895 4298.71C-98.7179 4277.9 -142.46 4251.24 -180.358 4216.24C-227.454 4172.65 -239.14 4086.99 -229.623 4026.14C-227.197 4010.53 -223.42 3995.78 -218.639 3981.77C-262.525 3960.52 -307.356 3942.43 -351.968 3928.9C-428.305 3905.76 -513.575 3901.48 -583.747 3939.99C-640.706 3971.23 -672.728 4034.54 -706.534 4090.26C-741.293 4147.54 -782.496 4198.42 -841.891 4225.64C-910.59 4257.15 -985.965 4253.89 -1059.25 4236.78C-1139.59 4218.04 -1216.54 4183.52 -1298.18 4171.73C-1385.95 4158.98 -1441.33 4218.9 -1496.16 4281.12C-1553.28 4345.86 -1616.4 4404.51 -1702.67 4415.43C-1782.12 4425.46 -1862.06 4393.76 -1938.47 4369.8C-1979.63 4356.9 -1962.29 4288.77 -1921.08 4301.66L-1921.42 4301.53ZM570.647 3970.71C586.701 4025 621.357 4074.34 653.951 4118.59C695.758 4175.41 743.869 4228.39 796.433 4273.59C846.042 4316.29 905.169 4357.93 968.275 4366.34C992.023 4369.51 1016.54 4365.64 1038.08 4355.58C1045.15 4352.26 1050.52 4348.51 1055.73 4342.77C1058.29 4339.99 1058.16 4337.36 1058.24 4334.06C1058.58 4324.76 1051.33 4309.55 1043.63 4296.4C1031.97 4276.39 1016.14 4259.08 1000.73 4242.43C966.735 4205.71 928.627 4173.77 889.837 4143.45C793.648 4068.42 684.283 4012.03 576.722 3960.72C573.48 3959.13 570.133 3957.64 566.907 3956.12C568.002 3960.88 569.249 3965.74 570.707 3970.7L570.647 3970.71ZM-166.972 4082.01C-165.853 4109.33 -156.726 4145.04 -137.59 4164.49C-121.981 4180.39 -102.655 4192.53 -84.3434 4204.14C-43.3948 4230.02 3.99347 4253.14 50.8527 4258.16C83.9599 4261.71 99.8328 4245.28 81.6774 4207.15C58.0224 4157.37 5.94021 4121.21 -35.6388 4091.44C-74.3749 4063.69 -115.571 4037.32 -158.112 4013.5C-164.702 4034.17 -167.966 4057.04 -166.956 4082.08L-166.972 4082.01Z" fill="#F5C7F7"/>
<path d="M1524.72 2742.91C1477.22 2739.11 1433.94 2729.13 1393.57 2714.86C1353.02 2700.77 1315.91 2681.86 1282.09 2658.38C1249.29 2633.74 1219.63 2604.22 1200.75 2564.61C1191.7 2544.68 1185.71 2522.16 1185.48 2497.38C1184.9 2472.66 1192.01 2445.68 1204.13 2420.63C1209.57 2407.89 1217.15 2396.14 1224.82 2384.34C1228.88 2378.64 1233.34 2373.24 1237.61 2367.74L1244.26 2359.56L1251.35 2352.07L1265.81 2337.15C1270.75 2332.51 1275.9 2328.07 1281.06 2323.63C1291.18 2314.35 1301.91 2306.66 1312.44 2298.56C1354.79 2266.87 1408.46 2239.11 1466.91 2225.09C1526.83 2213.14 1586.28 2218.04 1632.96 2234.02C1656.71 2241.77 1678.15 2251.77 1697.16 2263.48C1716.35 2275.01 1733.64 2288 1748.85 2302.04C1764.48 2315.9 1778.28 2330.79 1790.52 2346.5C1803.09 2362.06 1813.81 2378.66 1823.27 2395.85C1842.22 2430.31 1855.98 2467.45 1862.07 2508.32C1863.78 2518.45 1864.67 2529.06 1865.32 2539.68C1865.54 2550.49 1865.53 2561.91 1864.66 2571.46C1863.97 2581.41 1863.5 2591.27 1862.03 2601.49C1860.88 2611.56 1859.63 2621.68 1857.49 2632.1C1849.95 2673.24 1837.32 2716.14 1812.73 2759.33C1789.07 2802.29 1751.06 2845.37 1703.17 2878.14C1654.99 2910.84 1599.43 2931.7 1547.28 2941.54C1521.16 2946.49 1495.52 2949.15 1470.52 2950.13C1445.66 2950.85 1421.63 2950.01 1398.18 2947.93C1351.58 2943.31 1307.88 2933.82 1267.11 2920.63C1174.87 2890.3 1095.77 2842.43 1035.3 2779.48C994.565 2742.65 960.543 2698.9 939.105 2647.59C917.492 2596.46 909.343 2537.16 919.916 2475.54C925.594 2451.58 933.268 2427.49 943.667 2404.01C948.957 2392.33 954.602 2380.59 960.864 2369.34C967.413 2358.16 973.637 2346.84 980.76 2335.79C1009.21 2291.51 1045.71 2249.62 1087.84 2212.71C1173.48 2139.94 1277.53 2089.29 1381.21 2058.77C1484.96 2024.77 1591.62 2009.11 1694.18 2010.49C1795.31 2015.47 1891.88 2037.9 1972.88 2080.97L2003.27 2097.27L2031.95 2115.74L2058.6 2136.23L2082.6 2157.93C2113.38 2187.93 2139.41 2221.58 2160.04 2258.02C2198.34 2332.26 2214.07 2416.4 2208.88 2502.29C2205.83 2578.85 2186.61 2657.44 2152.68 2733.65C2120.11 2810.02 2073.27 2885 2012.19 2953.05C1949.74 3020.36 1873.56 3079.63 1790.22 3127.25C1749.03 3151.13 1705.77 3172.72 1660.83 3191.24C1615.63 3209.2 1568.68 3223.63 1520.99 3233.39C1425.66 3253.57 1327.58 3251.03 1243.51 3227.27C1202.16 3214.24 1163.73 3197.21 1129.62 3176.42C1096.66 3156.48 1066.46 3135.56 1036.39 3113.8C976.854 3069.9 920.671 3022.68 871.789 2967.87C847.185 2941.23 824.254 2912.64 805.872 2879.69C796.822 2863.1 788.856 2845.52 783.35 2826.02C777.881 2806.61 774.864 2784.98 777.58 2761.01C815.039 2774.25 854.968 2777.51 895.356 2775.34C901.025 2804.41 919.363 2835.31 942.076 2863.7C964.901 2892.35 992.299 2919.47 1021.99 2945.15C1050.7 2972.35 1082.04 2998.26 1114.77 3023.02C1131.12 3035.36 1147.9 3047.51 1164.99 3059.22L1190.82 3076.54C1199.47 3082.2 1208.44 3088 1216.71 3092.56L1235.79 3102.46C1242.35 3105.54 1249.18 3108.1 1255.77 3110.97C1268.74 3117.09 1283.27 3120.73 1296.93 3125.56C1304.04 3127.6 1311.39 3129.03 1318.53 3130.86L1329.25 3133.5C1332.9 3134.18 1336.73 3134.68 1340.35 3135.27L1362.55 3138.82L1385.35 3140.62C1415.43 3143.69 1446.5 3144.73 1478.5 3141.11L1490.51 3140.11C1494.53 3139.64 1498.55 3138.87 1502.53 3138.31C1510.57 3137.07 1518.65 3135.91 1526.76 3134.54C1542.99 3130.7 1559.24 3128.04 1575.52 3122.91C1594.07 3117.42 1612.36 3109.69 1630.69 3102.62C1648.72 3094.32 1666.94 3086.72 1684.48 3077.07C1702.32 3068.37 1719.55 3057.78 1736.87 3047.94C1753.57 3037.3 1770.41 3026.99 1786.12 3015.33C1852.5 2972.47 1910.97 2919.39 1959.65 2860.98C1982.08 2830.98 2001.35 2799.68 2017.86 2767.98C2034.47 2736.23 2047.97 2703.85 2057.93 2671.33C2069.07 2638.86 2077.21 2606.29 2082.07 2573.86C2086.68 2541.44 2087.88 2509.41 2085.84 2478.19C2082.04 2415.51 2062.49 2356.84 2030.98 2305.44C2015.67 2279.44 1996.83 2255.26 1975.1 2233.19C1969.43 2227.84 1964.03 2222.26 1958.28 2217.04L1940.67 2202.52L1921.56 2189.19C1915.04 2184.81 1907.83 2181.15 1901.04 2177C1843.39 2147.27 1774.01 2129.44 1699.99 2123.88C1625.93 2118.53 1547.42 2123.59 1470.52 2141.1C1393.97 2159.91 1319.22 2189.61 1255.54 2230.53C1194.58 2266.17 1140.88 2311.45 1103.3 2364.65C1065.91 2418.85 1046.21 2475.72 1048.17 2530.5C1049.58 2585.22 1072.03 2637.05 1107.74 2681.4C1159.57 2738.69 1233.31 2782.45 1315.94 2807.55C1375.81 2829.27 1442.93 2841.06 1507.41 2835.96C1523.47 2834.27 1539.09 2831.61 1554.25 2827.97C1569.19 2824.14 1583.36 2819.19 1596.59 2813.3C1609.85 2807.49 1621.66 2800.19 1632.77 2792.22C1643.88 2784.25 1653.79 2775.06 1662.74 2764.65C1699.94 2724.01 1719.66 2664.38 1725.06 2604.35L1727.44 2581.61C1727.66 2575.12 1728.32 2568.72 1727.93 2562.01C1727.76 2548.81 1725.91 2535.3 1722.81 2521.87C1717.01 2495.03 1705.98 2468.83 1691.7 2444.52C1675.45 2421.22 1655.67 2400.03 1632.87 2382.89C1621.51 2374.14 1609.26 2366.8 1596.85 2360.22C1584.06 2354.21 1570.99 2348.72 1557.47 2345.3C1504.06 2330.64 1449.67 2342.31 1395.67 2377.99C1388.86 2382.2 1382.37 2387.36 1375.72 2391.89C1369.32 2396.71 1363.89 2401.67 1357.85 2406.41C1347.89 2416.31 1337.95 2426 1332.34 2435.57C1330.6 2437.94 1328.97 2440.27 1328.02 2442.67L1324.42 2449.64C1322.98 2454.34 1320.83 2458.87 1320.32 2463.63C1318.55 2472.9 1318.29 2482.66 1321.17 2492.84C1324.3 2502.71 1329.19 2512.76 1336.56 2522.35C1343.36 2532.1 1352.51 2541.37 1362.47 2550.16C1382.85 2567.63 1407.58 2583.1 1435.17 2595.28C1461.59 2608.3 1490.44 2619.02 1520.27 2625.75C1535.12 2629.53 1550.29 2631.5 1565.1 2633.24C1579.94 2634.47 1594.32 2634.73 1607.54 2633.86C1598.15 2652.25 1585.76 2671.13 1571.11 2689C1557.29 2707.85 1541.85 2725.39 1524.56 2743.38L1524.72 2742.91Z" fill="#F5C7F7"/>
</g>
<defs>
<linearGradient id="paint0_linear_22_679" x1="960" y1="0" x2="959.999" y2="5426.5" gradientUnits="userSpaceOnUse">
<stop stop-color="#F5D0FE"/>
<stop offset="0.691698" stop-color="#F5D0FE"/>
<stop offset="1" stop-color="#F472B6"/>
</linearGradient>
<clipPath id="clip0_22_679">
<rect width="1920" height="4885" fill="white"/>
</clipPath>
</defs>
</svg>
