<svg width="375" height="938" viewBox="0 0 375 938" fill="none" xmlns="http://www.w3.org/2000/svg">
<g clip-path="url(#clip0_208_1946)">
<rect width="375" height="938" fill="url(#paint0_linear_208_1946)"/>
<rect width="375" height="938" fill="url(#paint1_radial_208_1946)"/>
<path d="M1039.73 -121.847C1025.65 -89.5399 1013.6 -52.2026 987.293 -28.6353C956.7 -1.23145 913.595 -3.17871 873.794 -2.55317C838.288 -2.01734 803.288 2.91248 776.95 26.918C749.24 52.1911 733.808 92.1357 719.088 126.946C704.446 161.493 689.113 195.655 659.341 218.347C631.904 239.256 599.506 239.794 565.182 234.152C532.708 228.822 500.295 221.656 468.367 227.656C429.208 234.999 398.504 260.646 375.773 292.182C351.687 325.598 337.041 366.861 326.593 409.02C274.965 403.452 223.153 429.791 185.92 462.037C130.89 509.72 97.3476 579.169 73.453 649.396C49.5623 640.304 22.8791 642.537 -0.264817 651.514C-42.2761 667.805 -76.6211 700.543 -106.281 733.581C-136.553 767.304 -162.083 805.248 -183.256 846.019C-259.979 993.807 -279.704 1178.46 -263.632 1351.2C-262.059 1368.14 -259.936 1385.1 -257.482 1402C-254.21 1424.53 -220.651 1422.96 -223.903 1400.46C-249.271 1225.94 -233.319 1041.63 -164.403 887.922C-144.274 843.014 -117.865 802.36 -86.6135 765.481C-59.3119 733.284 -26.8666 701.02 12.7091 684.874C30.898 677.458 47.8237 676.318 62.9612 682.371C54.1577 712.228 46.8215 742.71 40.2287 773.332C34.2264 801.157 27.7765 829.258 25.168 857.967C20.8662 905.31 18.7449 956.15 31.6414 1003.91C37.142 1024.19 49.0017 1043.87 69.2856 1050.98C92.3131 1059.02 116.966 1043.63 131.892 1028.9C178.032 983.32 174.435 898.345 166.217 834.499C159.125 779.279 145.591 714.456 105.526 671.233C104.835 670.473 104.081 669.84 103.384 669.126C123.516 607.952 151.217 549.325 194.181 503.541C223.831 471.929 272.096 441.395 318.88 443.398C317.187 451.898 315.57 460.345 314.054 468.719C308.347 500.214 304.866 532.336 305.718 565.009C306.44 591.685 311.87 618.853 331.116 639.543C348.099 657.796 372.63 660.428 390.387 646.855C409.137 632.493 418.735 606.742 425.436 584.008C432.476 559.991 436.746 534.689 435.945 508.862C434.912 476.734 406.34 444.196 380.195 427.823C373.494 423.617 366.674 420.205 359.802 417.413C366.168 393.834 374.041 370.935 383.566 349.615C399.869 313.138 426.241 279.474 463.843 265.565C494.36 254.27 528.826 262.939 561.003 268.438C594.082 274.088 626.857 275.202 656.653 261.666C691.125 246.019 714.634 216.432 732.217 183.091C751.5 146.54 763.699 106.099 786.035 71.3403C810.025 33.9481 850.872 32.6622 892.409 32.3465C935.655 31.9838 978.563 27.3578 1011.01 -1.69914C1040.88 -28.4652 1055.13 -69.1135 1071.15 -105.887C1079.78 -125.695 1048.31 -141.5 1039.66 -121.675L1039.73 -121.847ZM96.5333 712.4C111.8 736.292 119.092 765.599 125.135 792.457C132.909 826.926 137.162 862.521 137.007 897.243C136.878 930.029 133.225 966.069 115.69 992.703C109.093 1002.73 99.5841 1010.73 88.7054 1015.58C85.1295 1017.16 81.947 1017.97 78.0677 1018.05C76.1728 1018.11 75.2232 1017.2 73.9452 1016.14C70.3138 1013.22 66.9397 1005.48 64.4949 998.254C60.7517 987.277 59.3954 975.604 58.1547 964.309C55.4237 939.393 55.8464 914.489 57.1107 889.863C60.2979 828.842 74.8625 768.954 90.7563 711.416C91.2203 709.669 91.7545 707.913 92.2382 706.193C93.6809 708.171 95.1126 710.24 96.5081 712.418L96.5333 712.4ZM380.769 469.867C390.737 479.258 401.252 494.433 402.327 508.056C403.22 519.181 401.467 530.476 399.85 541.216C396.199 565.203 389.392 590.722 375.911 610.099C366.384 623.789 354.957 624.4 346.493 605.017C335.425 579.727 338.839 548.152 341.223 522.647C343.442 498.886 346.986 474.642 351.941 450.73C361.925 455.022 371.647 461.293 380.789 469.895L380.769 469.867Z" fill="#FFBF85"/>
</g>
<defs>
<linearGradient id="paint0_linear_208_1946" x1="187.5" y1="0" x2="187.5" y2="573.888" gradientUnits="userSpaceOnUse">
<stop stop-color="#FFBF85"/>
<stop offset="1" stop-color="#8B5CF6"/>
</linearGradient>
<radialGradient id="paint1_radial_208_1946" cx="0" cy="0" r="1" gradientUnits="userSpaceOnUse" gradientTransform="translate(-82.5 -470) rotate(78.648) scale(2136.29 1067.31)">
<stop stop-color="#F472B6"/>
<stop offset="1" stop-color="#FFBF85"/>
</radialGradient>
<clipPath id="clip0_208_1946">
<rect width="375" height="938" fill="white"/>
</clipPath>
</defs>
</svg>
