<svg width="1920" height="1080" viewBox="0 0 1920 1080" fill="none" xmlns="http://www.w3.org/2000/svg">
<path d="M162.944 437.362C157.858 441.483 155.231 446.316 153.405 451.793C140.525 448.443 126.923 456.011 135.166 472.207C141.976 485.583 155.086 502.975 166.36 512.949C214.271 555.326 214.101 395.909 162.944 437.362Z" fill="#F5D0FE"/>
<path d="M1642.84 620.82C1645.09 614.031 1650.05 608.18 1656.39 604.867C1659.47 603.256 1663.84 602.499 1665.95 605.262C1667.32 607.061 1667.07 609.575 1666.68 611.801C1665.45 618.693 1663.39 625.438 1660.55 631.831C1663.54 627.068 1666.62 622.213 1670.96 618.643C1675.31 615.072 1681.24 612.943 1686.65 614.498C1688 622.14 1684.55 630.006 1679.36 635.776C1674.17 641.546 1667.38 645.599 1660.71 649.556C1658.43 650.912 1655.91 652.316 1653.29 651.957C1641.97 650.409 1640.31 628.486 1642.85 620.81L1642.84 620.82Z" fill="#F5D0FE"/>
<path d="M1634.44 914.096C1661.85 938.648 1720.2 903.839 1732.24 877.176C1752.06 833.295 1682.92 818.149 1661.66 851.687C1669.71 839.475 1656.03 815.661 1641.84 814.546C1627.08 813.388 1619.14 834.478 1616.08 845.534C1612.67 857.892 1611.58 871.798 1616.39 884.339C1620.71 895.609 1632.94 911.244 1634.44 914.096Z" fill="#F5D0FE"/>
</svg>
