<svg width="1920" height="1080" viewBox="0 0 1920 1080" fill="none" xmlns="http://www.w3.org/2000/svg">
<g clip-path="url(#clip0_22_1662)">
<rect width="1920" height="1080" fill="none"/>
<rect y="0.000244141" width="1920" height="1080" fill="url(#paint0_linear_22_1662)"/>
<path d="M2469.62 -134.098C2427.71 -86.4778 2386.48 -29.1249 2328.41 -3.2228C2260.89 26.8943 2188.08 -0.185628 2119.52 -21.0357C2058.37 -39.6743 1995.67 -50.5031 1937.31 -23.8664C1875.89 4.18616 1827.44 64.1479 1783.04 115.702C1738.92 166.847 1693.82 216.951 1630.3 239.445C1571.76 260.169 1515.93 243.245 1460.21 214.67C1407.49 187.648 1355.89 157.514 1297.86 150.212C1226.7 141.227 1159.95 168.273 1103.62 209.802C1043.93 253.807 996.105 316.461 954.978 382.963C869.559 344.983 766.25 361.588 684.674 396.347C564.095 447.76 468.354 548.314 388.72 655.515C352.782 626.774 305.819 615.903 261.209 618.541C180.232 623.322 103.336 660.515 34.3047 700.802C-36.1535 741.927 -100.809 792.898 -159.554 851.113C-372.451 1062.15 -507.965 1367.76 -575.564 1672.67C-582.197 1702.57 -587.902 1732.82 -593.004 1763.13C-599.806 1803.54 -541.424 1819.34 -534.604 1778.98C-481.959 1465.9 -353.101 1158.8 -150.322 933.315C-91.0883 867.434 -23.4326 812.303 50.4421 766.309C114.968 726.165 188.348 688.737 265.07 682.863C300.329 680.171 329.965 687.541 352.576 706.252C321.042 752.574 291.679 800.777 263.514 849.629C237.9 894.012 211.367 938.623 191.084 986.39C157.634 1065.16 125.996 1151.13 121.793 1240.09C120.05 1277.88 129.536 1318.14 160.385 1341.5C195.425 1367.96 246.154 1355.16 279.848 1338.14C384.034 1285.43 424.672 1137.81 445.755 1023.86C464.015 925.309 476.523 806.755 431.663 710.607C430.896 708.923 429.954 707.424 429.153 705.816C497.351 612.059 577.12 526.835 675.974 472.031C744.202 434.181 843.742 408.433 922.822 437.635C915.239 451.272 907.816 464.857 900.604 478.376C873.475 529.21 849.817 582.347 833.281 638.814C819.826 684.933 814.168 734.487 835.757 780.549C854.811 821.186 895.405 839.209 933.314 825.727C973.36 811.439 1003.99 772.591 1028 737.318C1053.3 700.033 1074.55 659.02 1087.4 614.313C1103.33 558.681 1072.28 487.176 1036.49 444.713C1027.32 433.815 1017.51 424.21 1007.27 415.64C1031.17 378.733 1057.28 343.824 1085.34 312.529C1133.38 258.991 1197.12 215.821 1269.23 212.692C1327.75 210.143 1382.05 243.984 1434.16 271.132C1487.75 299.036 1543.31 318.996 1601.83 312.21C1669.53 304.378 1726.12 266.619 1774.62 219.16C1827.8 167.137 1870.98 104.542 1928.41 57.2731C1990.12 6.40002 2060.84 26.6947 2132.2 49.0319C2206.52 72.2303 2282.61 87.9355 2354.23 56.0083C2420.17 26.5867 2466.98 -35.2316 2514.69 -89.4367C2540.39 -118.632 2495.16 -163.052 2469.41 -133.839L2469.62 -134.098ZM393.575 776.21C406.582 825.567 402.936 879.814 398.5 929.175C392.839 992.533 380.523 1055.88 361.132 1115.31C342.852 1171.43 316.74 1231.18 272.017 1267.17C255.189 1280.72 234.482 1289.2 213.165 1291.53C206.166 1292.27 200.27 1291.89 193.573 1289.9C190.296 1288.95 189.17 1286.86 187.559 1284.36C182.946 1277.34 181.425 1262.23 181.216 1248.49C180.847 1227.61 184.952 1206.86 189.047 1186.82C198.09 1142.61 212.531 1100.16 228.262 1058.65C267.335 955.822 325.284 861.202 384.216 771.342C385.974 768.603 387.856 765.888 389.632 763.207C391.016 767.391 392.33 771.725 393.522 776.227L393.575 776.21ZM1014.32 517.089C1026.23 538.675 1035.89 570.474 1030.23 594.415C1025.63 613.975 1016.41 632.368 1007.72 649.885C988.249 688.984 962.527 728.973 928.748 754.758C904.881 772.973 884.959 767.727 881.129 729.844C876.088 680.403 899.332 628.167 917.465 585.768C934.357 546.265 953.784 506.665 975.447 468.411C990.194 481.267 1003.4 497.37 1014.33 517.147L1014.32 517.089Z" fill="#D69CAD"/>
</g>
<defs>
<linearGradient id="paint0_linear_22_1662" x1="960" y1="0.000244141" x2="960" y2="1080" gradientUnits="userSpaceOnUse">
<stop stop-color="#FFBF85"/>
<stop offset="1" stop-color="#8B5CF6"/>
</linearGradient>
<clipPath id="clip0_22_1662">
<rect width="1920" height="1080" fill="none"/>
</clipPath>
</defs>
</svg>
