<svg width="1024" height="2377" viewBox="0 0 1024 2377" fill="none" xmlns="http://www.w3.org/2000/svg">
<rect width="1024" height="2375.68" transform="translate(0 0.539062)" fill="url(#paint0_radial_437_1602)"/>
<path d="M571.165 1901.69C578.772 1929.24 615.438 1983.17 612.344 2008.38C606.254 2057.63 545.093 2018.43 516.188 2000.26C484.412 1980.31 489.864 1987.54 451.228 1997.15C435.244 2001.11 393.538 2011.05 380.028 2000.18C351.487 1977.18 373.885 1944.2 401.669 1919.75C415.059 1907.98 417.832 1888.34 408.44 1873.2C391.486 1845.8 377.562 1809.48 393.31 1780.98C419.29 1734.06 467.29 1801.64 496.491 1817.8C513.926 1827.47 523.152 1818.23 537.86 1809.35C557.466 1797.51 632.475 1773.07 620.989 1821.19C617.117 1837.32 607.749 1852.75 598.839 1866.51C596.191 1870.62 570.474 1899.12 571.188 1901.67L571.165 1901.69Z" fill="#F086A9"/>
<path d="M690.517 1622.8C699.455 1655.11 742.453 1718.37 738.82 1747.97C731.693 1805.77 659.91 1759.77 625.988 1738.47C588.717 1715.06 595.096 1723.58 549.774 1734.82C531.028 1739.47 482.081 1751.13 466.218 1738.35C432.731 1711.39 459.013 1672.67 491.609 1644C507.302 1630.2 510.575 1607.14 499.569 1589.36C479.656 1557.2 463.328 1514.58 481.833 1481.18C512.279 1426.13 568.649 1505.41 602.895 1524.37C623.359 1535.68 634.152 1524.89 651.442 1514.45C674.429 1500.57 762.448 1471.88 748.97 1528.35C744.462 1547.27 733.454 1565.37 723.013 1581.52C719.905 1586.33 689.758 1619.78 690.559 1622.8L690.517 1622.8Z" fill="#F086A9"/>
<path d="M369.281 1616.19C373.877 1632.84 396.053 1665.46 394.177 1680.72C390.507 1710.51 353.493 1686.8 336.042 1675.82C316.823 1663.77 320.129 1668.15 296.745 1673.95C287.081 1676.35 261.842 1682.35 253.674 1675.77C236.405 1661.88 249.936 1641.92 266.766 1627.16C274.863 1620.04 276.539 1608.15 270.869 1598.99C260.606 1582.41 252.191 1560.45 261.71 1543.22C277.406 1514.84 306.47 1555.71 324.107 1565.48C334.661 1571.33 340.221 1565.73 349.122 1560.36C360.961 1553.2 406.328 1538.42 399.399 1567.53C397.078 1577.28 391.394 1586.6 386.003 1594.93C384.4 1597.42 368.84 1614.65 369.3 1616.21L369.281 1616.19Z" fill="#F086A9"/>
<path d="M904.992 144.563C901.298 149.623 897.032 163.268 892.281 166.172C882.993 171.837 881.391 155.992 880.573 148.552C879.67 140.376 879.17 142.299 872.255 136.973C869.398 134.766 862.008 128.958 862.034 125.156C862.095 117.121 870.812 116.474 878.795 117.915C882.642 118.61 886.393 116.41 887.712 112.735C890.109 106.089 894.449 98.749 901.489 97.5707C913.087 95.6395 908.022 113.09 909.224 120.308C909.94 124.619 912.784 124.945 916.312 126.262C921.018 128.015 935.435 137.567 925.606 142.151C922.309 143.684 918.382 144.178 914.805 144.522C913.739 144.627 905.34 144.094 904.999 144.564L904.992 144.563Z" fill="#F086A9"/>
<path d="M969.148 127.059C964.817 132.996 959.81 149.001 954.232 152.41C943.334 159.062 941.454 140.465 940.489 131.738C939.432 122.147 938.838 124.403 930.731 118.151C927.378 115.566 918.707 108.748 918.741 104.282C918.808 94.8568 929.039 94.0948 938.403 95.7873C942.912 96.602 947.319 94.0216 948.873 89.7085C951.682 81.9074 956.777 73.2952 965.034 71.9227C978.638 69.6499 972.702 90.1339 974.113 98.5984C974.959 103.654 978.283 104.037 982.431 105.585C987.947 107.641 1004.87 118.849 993.334 124.228C989.469 126.032 984.86 126.608 980.665 127.015C979.416 127.136 969.563 126.517 969.153 127.066L969.148 127.059Z" fill="#F086A9"/>
<path d="M926.502 70.9811C924.269 74.0392 921.688 82.2925 918.812 84.0496C913.196 87.4782 912.224 77.8907 911.731 73.3983C911.182 68.4554 910.881 69.6195 906.698 66.3943C904.97 65.0612 900.499 61.5451 900.516 59.2455C900.55 54.3865 905.822 53.9904 910.65 54.8695C912.975 55.291 915.246 53.9579 916.046 51.7361C917.495 47.7147 920.119 43.2776 924.377 42.564C931.388 41.3934 928.33 51.9532 929.056 56.3128C929.489 58.9227 931.208 59.1156 933.344 59.9118C936.186 60.97 944.907 66.7465 938.963 69.5233C936.972 70.4536 934.596 70.7474 932.431 70.9569C931.786 71.0201 926.706 70.696 926.501 70.9875L926.502 70.9811Z" fill="#F086A9"/>
<path d="M198.046 106.891C194.948 96.7478 187.78 87.9046 178.501 82.7779C173.985 80.2849 167.527 79.0154 164.311 83.0402C162.215 85.6616 162.497 89.397 163.005 92.7115C164.589 102.972 167.422 113.043 171.418 122.619C167.138 115.455 162.747 108.152 156.421 102.711C150.095 97.2705 141.371 93.9117 133.31 96.0353C131.043 107.321 135.893 119.101 143.392 127.832C150.891 136.564 160.818 142.803 170.583 148.896C173.921 150.984 177.598 153.151 181.509 152.707C198.338 150.794 201.537 118.343 198.041 106.876L198.046 106.891Z" fill="#FFFF33"/>
<defs>
<radialGradient id="paint0_radial_437_1602" cx="0" cy="0" r="1" gradientUnits="userSpaceOnUse" gradientTransform="translate(689.6 -42.8944) rotate(96.4098) scale(2732.62 1412.89)">
<stop stop-color="#A78BFA"/>
<stop offset="1" stop-color="#F086A9"/>
</radialGradient>
</defs>
</svg>
