<svg width="1920" height="1080" viewBox="0 0 1920 1080" fill="none" xmlns="http://www.w3.org/2000/svg">
<path d="M1689.89 236.616C1691.6 229.673 1696.09 223.454 1702.15 219.659C1705.1 217.813 1709.4 216.719 1711.71 219.31C1713.22 220.997 1713.17 223.522 1712.95 225.772C1712.26 232.739 1710.73 239.624 1708.4 246.218C1711.01 241.237 1713.7 236.158 1717.75 232.261C1721.81 228.363 1727.56 225.779 1733.07 226.91C1735.01 234.424 1732.18 242.534 1727.46 248.69C1722.73 254.846 1716.28 259.414 1709.93 263.877C1707.76 265.407 1705.37 267.002 1702.72 266.847C1691.32 266.183 1687.96 244.455 1689.89 236.606L1689.89 236.616Z" fill="#FDE68A"/>
<path d="M1580.72 121.084C1581.46 119.748 1582.41 118.49 1583.72 117.713C1585.04 116.941 1586.75 116.732 1588.07 117.472C1589.39 118.206 1590.08 119.68 1590.57 121.104C1592.64 127.265 1592.1 133.965 1591.53 140.44C1593.79 134.868 1596.12 129.188 1600.05 124.634C1601.08 123.437 1602.38 122.256 1603.96 122.237C1605.98 122.21 1607.47 124.057 1608.63 125.721C1609.95 127.626 1611.33 129.708 1611.29 132.033C1611.24 134.606 1609.47 136.782 1607.78 138.727C1603.97 143.136 1597.01 153.806 1590.13 152.241C1583.28 150.685 1579.74 139.921 1578.84 133.941C1578.18 129.598 1578.58 124.98 1580.72 121.079L1580.72 121.084Z" fill="#FDE68A"/>
<path d="M1699.61 81.9301C1700.23 76.6988 1703.32 71.4806 1708.26 69.65C1711.1 71.3667 1712.39 74.944 1712.28 78.2651C1712.17 81.5862 1710.9 84.7518 1709.64 87.8307C1711.89 83.9256 1714.54 79.6892 1718.88 78.472C1720.32 78.0682 1722 78.0941 1723.15 79.0593C1724.78 80.4402 1724.58 83.0784 1723.59 84.9778C1721.73 88.5696 1717.9 90.6652 1714.13 92.1287C1711.82 93.0251 1709.45 93.7595 1707.19 94.7877C1705.58 95.5249 1703.35 97.2976 1701.78 95.6264C1700.5 94.2567 1700.18 90.7634 1699.88 88.9683C1699.48 86.6431 1699.33 84.2708 1699.61 81.9251L1699.61 81.9301Z" fill="#FDE68A"/>
</svg>
