<svg width="1920" height="1080" viewBox="0 0 1920 1080" fill="none" xmlns="http://www.w3.org/2000/svg">
<g clip-path="url(#clip0_1_1968)">
<rect x="-0.126953" width="1920" height="1080" fill="url(#paint0_radial_1_1968)"/>
<path d="M470.203 500.54C461.75 507.327 453.168 515.669 442.481 518.721C430.053 522.269 418.176 516.656 406.872 512.107C396.792 508.044 386.243 505.19 375.487 508.353C364.168 511.685 354.271 520.309 345.288 527.674C336.364 534.98 327.298 542.103 315.757 544.515C305.12 546.738 295.915 543.043 287.025 537.503C278.614 532.263 270.475 526.551 260.644 524.341C248.588 521.626 236.373 524.701 225.587 530.261C214.158 536.152 204.3 545.215 195.501 555.009C181.724 547.439 163.464 548.197 148.493 552.226C126.362 558.186 107.264 572.386 90.777 587.932C85.3069 582.725 77.477 580.15 69.7079 579.758C55.6058 579.047 41.38 583.547 28.4329 588.679C15.2181 593.919 2.75348 600.824 -8.8758 608.985C-51.0229 638.57 -82.227 684.549 -101.688 731.648C-103.597 736.266 -105.355 740.956 -107.01 745.668C-109.217 751.95 -99.5413 755.513 -97.3327 749.24C-80.2448 700.575 -50.1517 654.24 -9.38232 622.181C2.52726 612.814 15.6161 605.304 29.5452 599.354C41.7108 594.163 55.3355 589.562 68.731 590.023C74.887 590.236 79.8152 591.942 83.2407 595.318C76.6131 602.087 70.3122 609.194 64.2014 616.426C58.6454 622.996 52.9249 629.585 48.2027 636.787C40.4152 648.665 32.7566 661.716 29.7579 675.74C28.4917 681.697 29.1005 688.251 33.8296 692.512C39.203 697.341 48.2877 696.234 54.5398 694.147C73.8732 687.684 84.661 665.025 91.2123 647.347C96.8827 632.059 102.071 613.496 96.7831 597.443C96.6938 597.162 96.5694 596.907 96.4722 596.638C110.642 583.016 126.591 570.956 145.057 564.063C157.803 559.302 175.646 557.027 188.552 563.091C186.895 565.114 185.266 567.133 183.676 569.144C177.693 576.709 172.251 584.702 167.954 593.351C164.452 600.417 162.209 608.168 164.76 615.86C167.011 622.647 173.559 626.24 180.448 624.791C187.726 623.253 194.008 617.651 199.054 612.496C204.373 607.046 209.091 600.931 212.452 594.079C216.623 585.55 213.09 573.654 207.995 566.275C206.691 564.381 205.243 562.681 203.694 561.137C208.763 555.721 214.162 550.662 219.807 546.211C229.467 538.597 241.575 532.911 254.104 533.724C264.272 534.382 272.782 540.73 281.086 545.979C289.624 551.374 298.706 555.545 308.983 555.531C320.871 555.519 331.605 550.561 341.191 543.919C351.701 536.638 360.756 527.501 371.878 521.051C383.832 514.108 395.522 518.608 407.271 523.443C419.509 528.468 432.244 532.338 445.425 528.577C457.56 525.11 467.221 516.162 476.842 508.436C482.025 504.275 475.353 496.415 470.161 500.577L470.203 500.54ZM88.5314 607.149C89.5158 615.208 87.5003 623.74 85.4733 631.483C82.8771 641.422 79.1324 651.238 74.2662 660.305C69.6765 668.868 63.6416 677.865 55.0009 682.758C51.7495 684.6 47.958 685.569 44.2185 685.55C42.9912 685.54 41.983 685.373 40.8776 684.937C40.3362 684.726 40.195 684.376 39.981 683.949C39.3638 682.754 39.4873 680.33 39.8023 678.149C40.272 674.834 41.5108 671.619 42.7299 668.517C45.4206 661.674 48.9984 655.209 52.7749 648.915C62.1479 633.326 74.5698 619.381 87.04 606.208C87.4134 605.806 87.8078 605.41 88.183 605.017C88.3149 605.705 88.431 606.416 88.5218 607.151L88.5314 607.149ZM202.318 577.343C203.823 580.981 204.679 586.196 203.09 589.888C201.796 592.904 199.733 595.652 197.786 598.271C193.426 604.115 187.963 609.986 181.473 613.46C176.887 615.914 173.582 614.721 173.888 608.647C174.281 600.719 179.629 592.862 183.843 586.471C187.768 580.517 192.134 574.593 196.851 568.923C199.069 571.228 200.938 574.02 202.32 577.353L202.318 577.343Z" fill="#FDE68A"/>
<path d="M262.773 684.03C226.168 686.529 206.664 727.174 190.718 755.678C163.308 804.679 162.582 807.003 113.366 797.644C73.497 790.061 51.2519 792.805 26.0954 834.124C10.3962 859.9 8.67247 908.436 -21.8746 922.889C-62.096 941.931 -66.1705 893.025 -106.105 897.892C-160.027 904.466 -177.475 963.44 -186.625 1008.7C-189.723 1024.02 -203.138 1061.12 -197.762 1075.85C-192.518 1090.22 -170.701 1090.55 -160.078 1082.35C-147.136 1072.37 -151.349 1046.72 -148.492 1031.31C-141.522 993.703 -122.887 950.163 -77.3433 954.797C-43.626 958.218 -41.9594 988.718 -4.48818 968.79C14.2719 958.809 28.3651 929.171 38.5134 910.898C55.3016 880.693 61.9903 846.174 101.435 840.793C137.021 835.935 154.182 861.442 187.841 829.722C209.826 809.006 222.05 775.543 239.706 751.174C246.043 742.427 258.486 721.66 271.357 722.256C289.869 723.125 277.492 742.602 280.472 754.589C287.771 784.016 312.164 750.587 313.498 735.743C315.985 708.169 290.303 682.146 262.769 684.019L262.773 684.03Z" fill="#A78BFA"/>
<path d="M2016.57 760.444C2005.56 757.506 1990.64 772.762 1983.44 779.338C1973.2 788.691 1965.02 800.216 1960.11 813.218C1956.43 822.934 1954.73 833.24 1954.66 843.569L1920.04 769.768C1930.21 768.262 1942.01 756.295 1948.17 750.663C1958.42 741.311 1966.6 729.794 1971.51 716.792C1976.53 703.491 1977.91 689.105 1976.39 675.017C1975.09 662.916 1972.05 650.541 1966.81 639.506C1956.74 618.308 1932.73 650.199 1925.25 659.896C1910.91 678.443 1901.02 701.115 1900.26 724.763C1900.23 725.58 1900.23 726.518 1900.22 727.534L1877.41 678.914C1876.93 677.891 1876.41 676.912 1875.87 675.996C1902.96 660.155 1923.67 633.9 1930.51 602.419C1933.77 587.431 1934.17 550.68 1915.31 544.905C1901.77 540.762 1881.29 555.292 1870.15 560.8C1867.83 561.942 1865.52 563.081 1863.2 564.223C1855.47 536.539 1830.68 517.076 1797.19 530.667C1776.33 539.141 1765.26 556.245 1768.02 578.831C1768.96 586.472 1772.93 596.118 1778.76 603.882C1761.33 610.924 1742.17 619.566 1735.89 629.934C1735.1 631.228 1734.54 632.563 1734.16 633.931C1729.79 649.889 1752.08 669.691 1763.32 676.999C1782.8 689.668 1806.53 694.148 1829.46 691.539C1840.66 690.262 1851.54 687.33 1861.79 683.01C1862.12 683.903 1862.49 684.81 1862.92 685.714L1907.35 780.432C1901.11 775.171 1894.21 770.63 1887.01 767.029C1866.7 756.844 1832.99 749.601 1811.58 761.094C1800.37 767.109 1819.7 787.74 1824.36 793.467C1837.45 809.568 1857.96 821.423 1878.05 826.899C1889.16 829.93 1916.84 833.394 1928 824.448L1972.47 919.229C1959.97 908.098 1943.95 899.844 1928.18 895.541C1915.98 892.217 1883.79 888.361 1875.43 900.983C1869.23 910.355 1880.87 922.648 1886.63 929.674C1895.38 940.346 1906.88 949.24 1919.2 955.416C1938.9 965.296 1971.21 972.405 1992.67 962.327L2002.46 983.197C2006.32 991.409 2012.69 996.551 2016.7 994.67C2020.71 992.789 2020.84 984.605 2016.99 976.384L1979.44 896.354C1989.85 891.839 2001.56 876.349 2006.39 870.093C2020.73 851.545 2030.62 828.874 2031.38 805.225C2031.73 794.33 2029.64 763.907 2016.59 760.422L2016.57 760.444ZM1794.08 614.537C1785.02 595.228 1792.45 572.644 1810.67 564.096C1828.89 555.548 1851 564.275 1860.06 583.583C1869.12 602.892 1861.7 625.476 1843.47 634.025C1825.25 642.573 1803.14 633.846 1794.08 614.537Z" fill="#F086A9"/>
</g>
<defs>
<radialGradient id="paint0_radial_1_1968" cx="0" cy="0" r="1" gradientUnits="userSpaceOnUse" gradientTransform="translate(1292.87 -19.5001) rotate(114.86) scale(1360.58 2418.81)">
<stop stop-color="#A78BFA"/>
<stop offset="1" stop-color="#F086A9"/>
</radialGradient>
<clipPath id="clip0_1_1968">
<rect width="1920" height="1080" fill="white"/>
</clipPath>
</defs>
</svg>
