<svg width="247" height="167" viewBox="0 0 247 167" fill="none" xmlns="http://www.w3.org/2000/svg">
<g clip-path="url(#clip0_437_1794)">
<path d="M158.954 61.9961C168.466 62.7107 177.442 65.8051 186.734 67.8385C182.606 72.7968 178.042 74.6607 172.008 71.4191C170.291 70.4908 168.207 70.0782 166.253 69.7319C161.172 68.8184 156.247 67.4406 151.082 65.2525C153.717 63.2338 156 61.7677 158.954 61.9961Z" fill="#A78BFA"/>
<path d="M137.509 127.184C137.087 124.657 137.782 124.598 139.935 124.908C147.762 126.042 155.423 127.891 163.115 129.755C164.334 130.05 164.717 130.735 164.929 131.73C165.302 133.491 165.676 135.251 166.148 137.476C158.252 135.833 150.813 133.999 143.283 132.828C139.491 132.231 138.095 130.625 137.509 127.184Z" fill="#A78BFA"/>
<path d="M161.691 114.205C153.95 112.105 145.926 111.177 138.236 108.812C136.878 108.399 136.373 107.773 136.582 106.138C137.152 105.283 135.082 102.395 138.307 102.903C146.504 104.185 154.513 106.359 162.499 108.576C165.292 109.357 163.361 111.405 163.539 112.849C163.7 114.072 163.079 114.588 161.691 114.205Z" fill="#A78BFA"/>
<path d="M139.528 84.4741C139.364 80.5472 141.602 78.5875 145.519 79.3684C153.153 80.9082 160.553 83.31 168.005 85.5497C169.003 85.8518 171.203 85.7192 170.078 87.5021C169.066 89.1156 170.353 92.9172 166.351 92.0404C158.033 90.2059 149.75 88.1873 141.438 86.2128C140.51 85.9918 139.332 85.9107 139.528 84.4741Z" fill="#A78BFA"/>
<path d="M225.351 147.242C221.83 151.227 219.272 151.456 215.191 147.949C207.401 141.296 204.957 132.301 203.301 124.042C202.218 113.3 204.807 104.533 210.349 96.5758C212.52 93.4446 215.558 90.6081 219.544 91.4627C223.407 92.2879 226.615 95.0949 228.124 98.9333C231.528 107.664 233.376 116.608 232.607 125.979C231.985 133.686 230.748 141.097 225.35 147.234L225.351 147.242ZM223.045 97.5335C222.167 96.3916 221.047 96.7157 220.022 97.2683C216.111 99.3607 213.746 102.816 212.226 106.632C209.996 112.283 208.824 118.221 209.391 124.395C209.645 125.707 209.883 127.018 210.167 128.315C210.434 129.486 211.141 130.414 212.455 130.319C213.815 130.238 214.274 129.037 214.29 127.946C214.36 125.545 214.008 123.113 214.169 120.719C214.677 113.057 215.3 105.424 222.646 100.458C223.654 99.7732 223.815 98.5723 223.037 97.5335H223.045Z" fill="#A78BFA"/>
<path d="M162.503 104.742C154.762 102.613 147.007 100.572 138.998 99.6511C137.697 99.5037 136.85 99.0322 136.839 97.6029C137.209 95.3559 137.57 93.0941 137.985 90.8396C138.221 89.5061 139.087 89.6387 140.228 89.845C147.011 91.1343 153.764 92.5489 160.364 94.516C166.933 96.4757 166.856 96.5052 165.309 102.974C164.91 104.639 164.236 105.221 162.503 104.742Z" fill="#F5D0FE"/>
<path d="M136.239 140.623C126.678 139.068 120.827 133.381 116.676 125.483C109.407 111.595 108.5 97.1844 112.298 82.4274C116.782 65.0403 129.7 55.7278 150.522 60.2883C141.776 66.3885 137.322 74.5811 134.955 83.9525C131.254 98.5548 130.958 113.356 133.416 128.223C134.102 132.379 135.277 136.453 136.239 140.623Z" fill="#F5D0FE"/>
<path d="M176.338 77.2763C176.644 79.0961 172.059 82.9345 170.172 82.4262C161.795 80.2012 153.58 77.3795 145.041 75.6923C144.359 75.5597 143.518 75.545 143.452 75.1324C143.202 72.8485 147.79 68.0817 149.319 68.6711C157.669 71.8612 166.71 72.7453 174.935 76.2964C175.465 76.5248 176.199 76.5027 176.338 77.2763Z" fill="#F5D0FE"/>
<path d="M136.451 117.565C136.569 116.608 136.595 115.62 136.484 114.677C136.248 112.32 137.337 112.003 139.379 112.703C145.929 114.92 152.87 115.488 159.529 117.271C162.26 118 164.25 118.81 163.696 121.603C164.159 126.163 164.114 126.296 160.116 125.087C153.37 123.039 146.401 122.067 139.476 121.05C136.995 120.674 136.166 119.798 136.443 117.565H136.451Z" fill="#F5D0FE"/>
<path d="M168.072 113.16C168.635 102.603 171.351 92.4355 177.301 83.4251C180.91 77.9953 185.232 73.2433 192.011 71.2173C200.823 68.565 208.229 73.2507 216.207 75.4093C206.473 76.485 199.353 81.1928 194.166 88.8549C181.503 107.539 180.419 126.598 192.668 146.211C195.087 150.101 198.135 153.519 201.361 157.144C196.743 157.755 193.049 155.803 189.147 155.007C183.475 153.858 179.063 150.742 175.696 146.196C168.215 136.169 167.467 124.683 168.072 113.16Z" fill="#F5D0FE"/>
<path d="M140.495 138.304C139.687 136.05 140.586 135.792 142.556 136.227C150.383 137.943 158.233 139.623 166.068 141.318C167.203 141.568 168.277 141.885 168.728 143.078C169.842 145.937 171.76 148.309 173.25 151.323C164.429 148.972 155.651 146.46 146.778 144.331C143.197 143.469 141.588 141.34 140.487 138.304H140.495Z" fill="#F5D0FE"/>
<path d="M153.649 21.0373C156.082 20.632 158.079 21.2951 158.094 24.3452C158.113 25.8924 158.446 27.4617 158.718 29.0015C159.031 30.7991 158.167 31.4106 156.446 31.3148C155.061 31.2338 153.258 31.9558 153.364 29.4509C153.404 28.3826 153.169 27.2922 153.056 26.2166C153.018 26.2166 152.995 26.2166 152.957 26.2166C152.882 25.7451 152.646 25.2367 152.748 24.7947C153.03 23.5201 150.932 21.4793 153.649 21.0299L153.649 21.0373Z" fill="#F5D0FE"/>
<path d="M145.841 22.5779C145.678 21.7528 145.368 20.8097 146.728 20.6918C147.659 20.6108 148.518 20.8097 148.662 21.9075C148.857 23.462 149.007 25.0239 149.171 26.5784C149.24 26.5637 149.317 26.5637 149.385 26.5637C149.489 27.5215 149.608 28.4719 149.681 29.4444C149.753 30.2843 150.547 31.4336 148.798 31.5809C147.195 31.7209 147.463 30.5716 147.291 29.6654C146.841 27.3004 146.315 24.9429 145.841 22.5779Z" fill="#F5D0FE"/>
<path d="M162.444 20.5975C163.899 20.126 163.713 21.1796 163.891 21.9679C164.167 23.2645 164.826 24.5612 164.781 25.8358C164.7 27.3387 167.056 29.8805 163.979 30.2268C161.353 30.5289 162.816 27.6555 162.096 26.3441C161.978 26.1305 161.983 25.8726 161.942 25.6369C161.942 25.6369 161.965 25.6369 161.995 25.6221C161.737 24.5686 161.548 23.4929 161.252 22.4468C160.94 21.3637 161.492 20.907 162.437 20.6123L162.444 20.5975Z" fill="#F5D0FE"/>
<path d="M191.015 33.3287C172.698 35.2737 154.409 37.6313 136.143 39.9226C133.418 40.2689 131.635 40.151 130.307 37.2556C128.892 34.1465 126.312 31.4353 123.414 29.5934C118.089 26.2265 114.088 21.2093 107.943 18.8517C108.426 18.3654 108.575 18.0928 108.743 18.0781C113.868 17.6729 119.017 17.3635 124.149 16.8772C132.694 16.0742 132.686 16.03 134.756 23.8615C135.101 25.1582 135.599 26.4402 135.707 27.7516C136.119 31.9215 138.665 33.7634 142.702 34.4117C155.044 36.4157 167.014 35.0159 178.553 30.9343C185.251 28.5472 186.424 24.5099 183.218 18.1812C182.292 16.3394 180.356 13.7239 181.641 12.5894C183.169 11.2337 186.051 12.4641 188.205 13.5324C195.875 17.3119 202.832 22.1891 209.834 26.9706C212.186 28.5915 214.963 29.9176 216.425 33.1224C207.655 31.2511 199.299 32.4373 191.015 33.3214L191.015 33.3287Z" fill="#F472B6"/>
<path d="M177.2 27.1838C176.137 27.7143 175.682 27.4122 175.18 26.4545C172.556 21.4225 173.289 18.3208 178.234 15.1602C179.064 17.2746 179.782 19.0796 180.485 20.8847C181.749 24.1484 179.875 25.8503 177.2 27.1912L177.2 27.1838Z" fill="#F5D0FE"/>
<path d="M169.945 19.6854C170.469 22.3892 171 25.0931 171.553 27.7969C171.717 28.6663 171.364 29.1673 170.511 29.403C169.277 29.7493 168.998 28.8873 168.781 28.0622C168.26 26.0951 167.807 24.1058 167.236 21.8588C167.324 20.9673 167.017 19.6338 168.531 19.0812C169.132 18.8602 169.774 18.816 169.945 19.678L169.945 19.6854Z" fill="#F5D0FE"/>
<path d="M142.116 21.8697C142.28 24.0063 142.91 26.106 143.22 28.2352C143.33 29.0751 144.309 30.3349 142.953 30.7181C141.582 31.1012 140.69 30.136 140.382 28.7509C139.599 25.384 138.776 22.0097 137.897 18.3555C140.53 18.5618 141.947 19.4237 142.123 21.8624L142.116 21.8697Z" fill="#F5D0FE"/>
<path d="M64.0387 39.1863C65.7428 39.7315 66.6054 40.2398 65.3912 42.1775C64.2519 43.9972 63.6674 46.1559 62.8747 48.1819C62.6077 48.8376 62.6491 49.6996 61.4313 49.5228C60.9472 49.3313 60.3409 49.1397 59.7719 48.8818C57.526 47.8062 55.3322 46.62 53.034 45.6475C44.4874 42.0596 35.904 38.5821 27.3421 34.9942C26.5506 34.67 25.2508 34.67 25.2573 33.3586C25.2699 30.7063 30.0434 27.8772 32.6247 28.8718C35.0752 29.8001 37.4362 30.9126 39.9841 31.6788C48.0413 34.0438 56.0181 36.6961 64.0389 39.201L64.0387 39.1863Z" fill="#F472B6"/>
<path d="M51.8386 74.2296C51.7729 88.493 51.5775 102.778 53.8964 116.99C56.3054 131.674 56.5769 146.615 59.7419 161.232C48.3005 158.469 37.136 154.631 26.2918 150.114C16.6158 146.084 9.28515 139.476 9.20399 128.13C9.19198 127.172 8.97346 126.207 8.77787 125.242C6.37713 113.653 5.28216 101.939 5.81519 90.1875C6.39628 78.0017 7.26054 65.8381 8.36962 53.6891C8.89378 47.9352 11.6358 42.8443 15.2478 38.247C16.5948 36.5304 18.2072 35.8599 20.4892 36.7588C33.7663 42.0265 47.2594 46.8301 59.9869 53.3797C53.2463 61.506 51.8811 64.2099 51.8385 74.2222L51.8386 74.2296ZM46.3647 127.872C45.0863 121.042 44.6348 114.301 43.0755 107.626C42.186 103.758 41.6441 99.5663 41.7456 95.47C41.7991 93.6355 41.233 92.3904 39.3083 91.9336C35.9729 91.16 32.5758 88.5151 29.5307 92.604C28.6432 93.7681 27.1891 92.4346 26.7363 91.6831C23.7459 86.7248 19.0529 88.0436 14.6529 88.3383C12.9646 88.4414 11.7635 88.9866 12.2636 91.0642C15.009 102.101 15.4251 113.329 15.6427 124.579C15.753 130.325 17.4364 134.709 23.6675 137.155C29.9216 139.616 36.2289 142.047 42.2985 145.031C46.345 147.027 48.2511 145.392 47.7766 141.089C47.285 136.639 46.8162 132.175 46.3647 127.872Z" fill="#F472B6"/>
<path d="M20.1617 127.172C18.8608 116.106 19.5077 104.901 16.977 93.9157C16.3954 91.4403 18.4466 90.4015 20.979 91.7644C21.9336 92.2875 22.6714 93.2011 23.4988 93.9452C26.1904 96.4207 29.0114 97.0174 32.3273 95.0209C35.2866 93.2379 37.8495 94.5935 38.2898 97.9973C38.847 102.197 39.0839 106.455 39.9236 110.618C41.9378 120.645 42.2566 130.819 44.0579 141.554C36.932 138.467 30.6739 135.697 24.3562 133.044C21.6048 131.895 20.5032 130.016 20.1695 127.18L20.1617 127.172ZM22.4192 107.833C22.5618 108.842 23.2782 109.27 24.1754 109.491C26.8597 110.161 29.2982 111.354 31.73 112.614C32.638 113.086 33.6065 113.498 34.2875 112.327C34.9015 111.296 34.5103 110.581 33.4705 109.969C30.9209 108.452 28.4751 106.684 25.4711 106.124C24.0228 105.858 22.6877 106.079 22.4192 107.833ZM23.7747 116.549C23.9529 116.74 24.2273 117.285 24.6187 117.403C27.596 118.273 30.6031 119.083 33.6248 119.834C34.223 119.982 34.83 119.613 35.1281 118.995C35.4262 118.383 35.2885 117.764 34.7333 117.388C31.9265 115.48 28.8663 114.103 25.3519 114.294C24.351 114.346 23.5346 115.082 23.7824 116.556L23.7747 116.549ZM33.4581 102.889C30.5834 101.659 27.6934 100.436 24.8039 99.2571C23.8818 98.8814 23.0371 99.1982 22.504 99.9718C22.0385 100.65 22.1177 101.475 22.8114 101.924C25.8716 103.921 29.3783 104.937 32.6178 105.984C33.7408 105.917 34.1693 105.335 34.4125 104.613C34.6849 103.781 34.2419 103.206 33.4581 102.889ZM24.4238 124.417C27.4541 125.854 30.559 127.143 33.6492 128.484C34.7794 128.992 35.8944 129.501 36.8554 129.928C38.6521 129.316 38.2104 128.241 37.4993 127.622C33.7192 124.314 29.1899 122.221 24.4375 120.63C23.708 120.38 22.8473 120.63 22.6596 121.514C22.3561 122.921 23.2855 123.872 24.4238 124.417Z" fill="#F5D0FE"/>
<path d="M80.5643 34.44C91.126 31.0583 102.077 30.0932 113.19 30.4247C118.444 30.5794 122.496 32.9517 125.65 37.0112C128.098 40.1718 127.836 41.1959 123.693 41.8884C114.935 43.3398 106.185 44.8723 97.3678 45.9479C87.3297 47.1783 77.3642 48.7181 66.9503 50.4642C69.3106 42.9862 72.7516 36.9375 80.5643 34.44Z" fill="#F472B6"/>
<path d="M113.324 26.2238C105.435 26.3048 98.5835 26.7985 91.8386 27.8815C83.85 29.1634 75.4776 29.7086 69.6338 36.192C68.5781 37.356 67.6366 36.6561 66.6145 36.2362C61.8879 34.269 57.2052 32.1399 52.3821 30.3938C46.8827 28.3751 41.2347 26.6953 35.3158 24.7577C39.8341 21.7002 44.1912 19.2026 49.4757 18.1122C58.3519 16.2851 67.3924 15.9683 76.372 15.0695C79.9607 14.7085 83.593 12.9403 87.1417 14.2591C94.4156 16.9555 101.542 20.0572 108.675 23.1C110.081 23.7041 111.25 24.8166 113.324 26.2312L113.324 26.2238Z" fill="#F472B6"/>
<path d="M172.084 14.2279C168.536 15.3625 164.958 16.5708 161.272 17.1012C154.205 18.1253 147.071 18.6337 140.226 15.4509C138.827 14.81 137.47 13.889 138.424 12.5334C139.791 10.6031 141.462 8.51079 143.551 7.47198C147.996 5.27648 152.882 4.07558 159.553 3.83982C162.829 3.49355 167.481 4.38501 172.05 5.97638C174.015 6.66156 176.458 6.94152 176.363 9.77799C176.282 12.4155 174.247 13.5354 172.092 14.2206L172.084 14.2279ZM169.961 8.9381C168.39 7.98033 166.592 7.28779 164.796 6.75733C161.597 5.82904 158.339 6.38159 155.115 6.55105C152.557 6.82364 150.085 7.21412 148.282 9.18122C147.717 9.80009 146.876 10.4263 147.453 11.362C148.039 12.3198 148.983 12.003 149.797 11.6567C156.223 8.95283 162.587 8.5992 168.842 12.3566C169.682 12.8502 170.337 12.6439 170.709 11.8924C171.284 10.7652 170.871 9.50539 169.954 8.9381H169.961Z" fill="#F5D0FE"/>
<path d="M210.538 53.8835C207.651 54.1561 203.491 52.2184 203.257 50.6492C203.033 49.2346 206.148 45.853 207.881 45.6467C210.247 45.352 213.47 48.1148 213.809 50.7155C214.163 53.3678 212.039 53.4488 210.538 53.8835Z" fill="#FDE68A"/>
<path d="M226.718 75.2758C222.734 73.9791 219.253 72.0046 215.424 70.87C197.935 65.6539 179.902 62.7658 162.231 58.3233C155.382 56.5993 148.372 56.0394 141.339 55.4721C127.785 54.367 115.02 62.4712 109.907 76.6535C103.967 93.1271 104.702 109.645 112.145 125.861C116.296 134.945 122.904 141.244 132.851 144.338C137.84 145.893 142.873 147.315 147.948 149.024C144.797 150.1 141.555 150.122 138.397 150.704C124.599 153.246 110.686 155.168 96.8536 157.467C94.5649 157.858 93.6175 157.298 93.2089 155.198C90.8452 142.909 88.6723 130.591 87.11 118.184C85.5983 106.16 84.5829 94.0849 83.1934 82.0465C82.2609 74.1412 82.1387 74.1559 90.0929 72.5719C97.4675 71.0984 98.3683 69.7797 96.7885 62.6848C96.5214 61.506 96.0255 60.3641 95.7584 59.1853C95.442 57.7339 94.4872 57.1961 93.0937 57.034C84.5256 55.9952 76.0517 56.3709 67.6577 58.2496C66.2016 58.5738 65.2414 59.4358 65.6252 60.7766C66.6797 64.3867 66.6814 68.1809 68.1326 71.7247C69.4577 74.9663 71.1081 77.3313 75.3721 75.9462C76.6361 75.5336 78.7476 75.04 78.534 77.5155C78.1112 82.2012 79.7648 86.6438 80.1128 91.2263C80.7616 100.288 81.4793 109.358 82.7085 118.361C84.3927 130.731 86.1611 143.108 89.1351 155.294C89.9571 158.653 88.6259 160.414 85.1372 160.827C80.656 161.35 76.1276 161.77 71.6179 161.858C66.1988 161.969 63.1675 159.228 62.5449 154.093C61.9995 149.621 61.5765 145.149 61.0848 140.691C59.3162 124.645 55.9133 108.739 56.2146 92.5303C56.376 84.6766 55.3137 76.7861 56.5382 68.9619C57.5639 62.3533 60.4891 57.2403 67.5229 54.8164C70.172 53.8954 72.8193 53.4534 75.5359 53.0408C97.4589 49.696 119.333 46.0786 141.322 43.139C160.594 40.553 179.966 38.6448 199.33 36.6777C204.889 36.1104 210.603 35.1526 216.127 37.3113C220.184 38.8953 222.949 41.1424 223.643 45.9239C224.387 50.9558 224.711 56.032 225.286 61.0566C225.818 65.6686 227.213 70.2659 226.726 75.2979L226.718 75.2758ZM206.461 41.3634C203.193 41.717 198.699 47.9057 199.148 51.4052C199.588 54.7869 205.707 58.1023 210.733 57.6823C215.414 57.2845 218.238 54.4701 217.861 50.558C217.3 44.8629 212.202 40.7445 206.461 41.3708L206.461 41.3634Z" fill="#F472B6"/>
<path d="M236.681 141.845C234.213 148.085 230.044 152.727 223.875 155.858C215.777 159.991 209.025 159.269 203.009 152.624C195.551 144.409 190.159 135.126 189.079 123.994C189.047 121.452 188.855 118.91 188.983 116.376C189.694 102.326 195.066 90.4938 207.428 82.5664C214.747 77.8807 227.298 79.5089 232.663 88.4604C243.158 105.98 243.928 123.529 236.681 141.838L236.681 141.845ZM228.15 92.6009C220.754 85.6092 214.018 85.565 207.703 93.4997C194.908 109.62 196.97 129.541 206.976 145.263C208.013 146.906 209.491 148.321 210.923 149.669C218.534 156.72 223.851 156.351 230.179 148.233C235.461 141.462 236.315 133.372 236.893 125.253C237.1 122.248 236.963 119.205 236.993 115.521C234.599 108.117 235.028 99.0769 228.158 92.5935L228.15 92.6009Z" fill="#F5D0FE"/>
<path d="M70.3342 66.5505C70.1816 65.9611 70.0135 65.3643 69.9831 64.7676C69.8777 62.4616 70.5154 60.8776 73.3796 60.6565C77.8783 60.3103 82.3079 59.9345 86.8516 60.1261C92.0073 60.3471 92.0806 60.0892 92.7331 65.1801C93.4936 67.2946 92.1593 68.1934 90.032 68.6502C86.1281 69.4901 82.2325 70.3816 78.3451 71.3172C72.0491 72.8276 71.9106 72.7612 70.3342 66.5505Z" fill="#FDE68A"/>
<path d="M244.898 128.764C243.516 136.868 241.476 144.891 236.063 151.573C230.062 158.978 221.788 163.074 212.374 162.882C201.225 162.654 190.218 159.84 179.483 156.731C168.726 153.614 158.005 151.654 146.865 154.034C144.303 154.579 141.676 154.808 139.066 155.191C127.78 156.849 116.492 158.403 105.245 160.179C96.7143 161.534 88.7899 165.491 79.5589 165.247C77.7642 165.402 75.6284 165.793 73.5098 165.726C69.2723 165.564 64.9967 166.632 60.7922 165.454C49.2063 162.146 37.6929 158.521 26.4612 154.196C17.104 150.594 8.66387 145.134 6.22736 134.96C4.1776 126.362 3.21789 117.506 2.2744 108.724C0.379476 91.1382 2.83676 73.7142 3.89404 56.2165C4.34574 48.9522 7.01418 42.8741 11.0017 37.1201C12.864 34.431 15.0706 31.764 19.1215 32.287C20.4004 32.4565 20.8504 31.7566 21.4129 30.8872C27.3881 21.4716 37.0446 17.2427 47.5585 14.9367C60.0394 12.1813 72.9059 11.5256 85.7018 10.7299C87.2525 10.6267 88.5559 10.9214 89.9946 11.6434C93.2184 13.2643 96.7037 15.0177 100.31 14.8188C110.845 14.2368 121.344 13.1832 131.861 12.3213C133.014 12.2255 133.852 11.9234 134.649 10.892C143.482 -0.453907 163.4 -2.17052 176.368 4.07708C179.366 9.61003 185.594 8.77751 190.36 10.833C198.5 14.3105 205.575 19.4677 212.77 24.4112C222.619 31.1967 228.464 40.0965 228.666 51.9581C228.833 60.9464 231.787 69.6916 231.456 78.7241C231.414 79.645 231.981 80.3007 232.517 81.0006C243.363 95.3745 247.874 111.273 244.898 128.764ZM189.141 155.007C193.035 155.802 196.736 157.755 201.354 157.143C198.121 153.518 195.081 150.1 192.662 146.21C180.413 126.598 181.504 107.538 194.16 88.8543C199.346 81.1922 206.474 76.4844 216.201 75.4087C208.222 73.2501 200.816 68.5644 192.004 71.2166C185.225 73.2501 180.896 77.9947 177.295 83.4245C171.337 92.4349 168.621 102.602 168.065 113.16C167.461 124.682 168.209 136.168 175.689 146.195C179.064 150.741 183.469 153.85 189.141 155.007ZM134.954 83.955C137.321 74.5909 141.775 66.391 150.521 60.2907C129.699 55.7303 116.773 65.0427 112.297 82.4299C108.499 97.1869 109.406 111.598 116.675 125.485C120.826 133.383 126.677 139.071 136.238 140.625C135.276 136.455 134.101 132.381 133.415 128.226C130.957 113.351 131.253 98.5573 134.954 83.955ZM160.362 94.5199C153.762 92.5528 147.009 91.1382 140.227 89.8489C139.093 89.6426 138.219 89.51 137.984 90.8435C137.569 93.098 137.207 95.3598 136.838 97.6069C136.856 99.0361 137.695 99.515 138.997 99.655C147.005 100.583 154.76 102.617 162.501 104.746C164.235 105.217 164.908 104.635 165.308 102.978C166.855 96.5091 166.931 96.487 160.362 94.5199ZM166.348 92.0371C170.35 92.9212 169.063 89.1122 170.075 87.4987C171.2 85.7158 169.007 85.8484 168.002 85.5463C160.55 83.3066 153.157 80.9048 145.516 79.365C141.599 78.5841 139.368 80.5438 139.525 84.4707C139.329 85.9073 140.507 85.9884 141.435 86.2094C149.74 88.1839 158.029 90.1952 166.348 92.0371ZM162.503 108.577C154.517 106.359 146.508 104.186 138.311 102.904C135.078 102.388 137.148 105.284 136.585 106.138C136.377 107.774 136.881 108.4 138.24 108.813C145.938 111.178 153.962 112.113 161.695 114.206C163.083 114.589 163.704 114.073 163.543 112.85C163.364 111.406 165.288 109.358 162.503 108.577ZM164.919 131.726C164.708 130.731 164.324 130.046 163.105 129.751C155.413 127.887 147.753 126.038 139.925 124.903C137.773 124.594 137.078 124.653 137.499 127.18C138.085 130.62 139.489 132.234 143.273 132.823C150.804 133.995 158.242 135.829 166.138 137.472C165.666 135.247 165.293 133.486 164.919 131.726ZM139.464 121.043C146.388 122.059 153.35 123.032 160.103 125.08C164.101 126.288 164.146 126.156 163.683 121.595C164.245 118.803 162.247 117.993 159.516 117.263C152.857 115.473 145.916 114.906 139.367 112.695C137.324 111.995 136.227 112.305 136.471 114.67C136.574 115.613 136.556 116.6 136.438 117.558C136.153 119.798 136.982 120.674 139.471 121.043H139.464ZM149.311 68.6601C147.782 68.0707 143.194 72.8375 143.444 75.1214C143.511 75.534 144.352 75.5487 145.034 75.6813C153.572 77.3685 161.788 80.1976 170.164 82.4152C172.044 82.9235 176.636 79.0851 176.331 77.2653C176.191 76.4917 175.457 76.5065 174.927 76.2855C166.71 72.7343 157.662 71.8502 149.311 68.6601ZM166.244 69.7432C168.205 70.0894 170.29 70.502 171.999 71.4303C178.034 74.672 182.597 72.808 186.725 67.8497C177.433 65.8163 168.457 62.7146 158.945 62.0073C155.991 61.7863 153.708 63.2524 151.073 65.2637C156.238 67.4519 161.156 68.8296 166.244 69.7432ZM173.246 151.323C171.748 148.31 169.837 145.93 168.723 143.079C168.265 141.885 167.198 141.568 166.064 141.318C158.237 139.623 150.379 137.951 142.552 136.227C140.581 135.792 139.682 136.05 140.491 138.305C141.591 141.34 143.201 143.469 146.782 144.331C155.646 146.46 164.432 148.973 173.253 151.323H173.246ZM20.4774 36.7665C18.1955 35.8676 16.5754 36.5381 15.2361 38.2547C11.624 42.852 8.88205 47.9429 8.35789 53.6968C7.24871 65.8384 6.37681 78.0021 5.80345 90.1952C5.27042 101.946 6.3654 113.661 8.76613 125.25C8.96164 126.207 9.18789 127.18 9.19226 128.138C9.27341 139.483 16.6041 146.092 26.2801 150.122C37.1243 154.638 48.2964 158.477 59.7302 161.24C56.5652 146.622 56.2937 131.681 53.8847 116.998C51.5657 102.786 51.7612 88.5007 51.8269 74.2373C51.8695 64.2249 53.2423 61.5211 59.9753 53.3948C47.2401 46.8451 33.7547 42.0415 20.4775 36.7738L20.4774 36.7665ZM25.2512 33.3553C25.2371 34.6667 26.5444 34.6667 27.3359 34.9909C35.8902 38.5788 44.4814 42.0636 53.0279 45.6442C55.326 46.6167 57.5275 47.8029 59.7657 48.8785C60.3348 49.1438 60.9335 49.328 61.4252 49.5195C62.643 49.6963 62.6093 48.8343 62.8686 48.1786C63.6689 46.1526 64.2534 43.9939 65.3851 42.1742C66.6069 40.2365 65.7443 39.7282 64.0325 39.183C56.0195 36.6854 48.0427 34.0331 39.9777 31.6608C37.4223 30.902 35.0688 29.7821 32.6183 28.8538C30.037 27.8592 25.2636 30.6883 25.251 33.3406L25.2512 33.3553ZM66.934 50.4625C77.3479 48.7165 87.3134 47.1767 97.3516 45.9463C106.168 44.8706 114.918 43.3382 123.677 41.8868C127.82 41.1943 128.082 40.1702 125.634 37.0096C122.479 32.9575 118.428 30.5852 113.174 30.4231C102.061 30.0915 91.1097 31.0567 80.5481 34.4383C72.7353 36.9359 69.2943 42.9846 66.934 50.4625ZM87.1298 14.2515C83.5811 12.9328 79.9488 14.7009 76.36 15.0619C67.3804 15.9608 58.34 16.2776 49.4637 18.1047C44.1715 19.1877 39.8221 21.6926 35.3039 24.7501C41.2228 26.6951 46.8632 28.3749 52.3701 30.3862C57.1934 32.1397 61.8761 34.2689 66.6025 36.2286C67.6247 36.6559 68.5739 37.3558 69.6219 36.1844C75.4733 29.7011 83.8457 29.1559 91.8267 27.8739C98.5791 26.7836 105.423 26.2899 113.312 26.2163C111.238 24.7943 110.069 23.6892 108.663 23.0851C101.53 20.0497 94.3961 16.948 87.1297 14.2442L87.1298 14.2515ZM172.042 5.98524C167.481 4.39388 162.821 3.50241 159.546 3.84868C152.867 4.08444 147.981 5.27797 143.544 7.48084C141.462 8.51228 139.783 10.6046 138.416 12.5423C137.454 13.8979 138.819 14.8188 140.219 15.4598C147.063 18.6352 154.197 18.1342 161.264 17.1101C164.95 16.5796 168.528 15.3714 172.077 14.2368C174.232 13.5516 176.267 12.4318 176.348 9.79422C176.443 6.96512 174 6.67778 172.034 5.99261L172.042 5.98524ZM137.885 18.3552C138.764 22.0094 139.586 25.3764 140.37 28.7507C140.686 30.1284 141.569 31.1009 142.941 30.7178C144.304 30.3347 143.325 29.0748 143.208 28.2349C142.898 26.1058 142.268 24.006 142.103 21.8695C141.927 19.4235 140.51 18.5688 137.877 18.3626L137.885 18.3552ZM148.8 31.5798C150.549 31.4251 149.747 30.2831 149.683 29.4432C149.61 28.4781 149.491 27.5203 149.387 26.5625C149.318 26.5625 149.242 26.5625 149.173 26.5773C149.008 25.0154 148.859 23.4535 148.664 21.9063C148.52 20.8086 147.661 20.6096 146.729 20.6907C145.37 20.8086 145.68 21.7516 145.843 22.5767C146.316 24.9417 146.843 27.2919 147.293 29.6642C147.465 30.5778 147.197 31.7271 148.8 31.5798ZM152.76 24.8017C152.658 25.2364 152.894 25.7521 152.969 26.2236C153.007 26.2236 153.03 26.2236 153.068 26.2236C153.181 27.2993 153.416 28.3897 153.376 29.4579C153.27 31.9629 155.073 31.2409 156.458 31.3219C158.179 31.4177 159.043 30.7988 158.73 29.0085C158.458 27.4687 158.125 25.8995 158.106 24.3523C158.09 21.3022 156.094 20.6391 153.66 21.0443C150.944 21.5011 153.042 23.5345 152.76 24.8091L152.76 24.8017ZM161.96 25.6269C161.993 25.8626 161.996 26.1279 162.114 26.3341C162.834 27.6455 161.363 30.5189 163.997 30.2168C167.074 29.8705 164.71 27.3287 164.798 25.8258C164.851 24.5586 164.185 23.2619 163.909 21.9579C163.731 21.1696 163.916 20.116 162.462 20.5875C161.518 20.8822 160.958 21.3464 161.277 22.422C161.573 23.4682 161.762 24.5439 162.02 25.5974C161.99 25.6195 161.975 25.6195 161.967 25.6121L161.96 25.6269ZM167.249 21.8547C167.82 24.1018 168.273 26.091 168.794 28.0581C169.019 28.8833 169.29 29.7453 170.524 29.399C171.377 29.1632 171.722 28.6623 171.566 27.7929C171.013 25.089 170.482 22.3852 169.958 19.6813C169.787 18.812 169.145 18.8635 168.544 19.0846C167.03 19.6371 167.337 20.9706 167.249 21.8621L167.249 21.8547ZM180.478 20.8675C179.775 19.0625 179.057 17.2574 178.227 15.143C173.282 18.3036 172.549 21.4053 175.173 26.4373C175.682 27.4024 176.137 27.6971 177.193 27.1667C179.867 25.8258 181.742 24.1313 180.478 20.8601L180.478 20.8675ZM209.828 26.9677C202.826 22.1863 195.869 17.3016 188.199 13.5295C186.045 12.4686 183.163 11.2382 181.636 12.5865C180.35 13.7211 182.287 16.3365 183.212 18.1784C186.426 24.5144 185.246 28.5444 178.548 30.9314C167.009 35.0204 155.031 36.4202 142.696 34.4089C138.659 33.7605 136.113 31.9113 135.702 27.7487C135.593 26.4373 135.096 25.1553 134.751 23.8587C132.68 16.0271 132.688 16.0713 124.143 16.8743C119.011 17.3532 113.87 17.6627 108.738 18.0752C108.577 18.09 108.428 18.3626 107.937 18.8488C114.083 21.2138 118.083 26.2236 123.408 29.5906C126.306 31.4324 128.886 34.1436 130.301 37.2527C131.629 40.1481 133.412 40.2586 136.137 39.9197C154.411 37.6284 172.692 35.2709 191.009 33.3259C199.293 32.4418 207.65 31.2556 216.419 33.1269C214.957 29.9221 212.188 28.5959 209.829 26.9751L209.828 26.9677ZM223.621 45.8947C222.926 41.1132 220.161 38.8662 216.105 37.2822C210.581 35.1235 204.866 36.0813 199.308 36.6486C179.944 38.6157 160.572 40.5312 141.3 43.1098C119.31 46.0494 97.4366 49.6742 75.5134 53.0117C72.7969 53.4243 70.1495 53.8663 67.5005 54.7872C60.4666 57.2111 57.5491 62.3241 56.5157 68.9327C55.2912 76.757 56.3535 84.6475 56.1921 92.5012C55.8908 108.71 59.2937 124.616 61.0623 140.662C61.5616 145.12 61.9771 149.592 62.5225 154.064C63.145 159.199 66.1763 161.939 71.5955 161.829C76.105 161.733 80.6334 161.313 85.1148 160.797C88.6035 160.385 89.9347 158.631 89.1127 155.265C86.1387 143.079 84.3703 130.701 82.686 118.331C81.4569 109.328 80.739 100.252 80.0903 91.1972C79.7423 86.6146 78.0886 82.1647 78.5116 77.4863C78.7252 75.0109 76.6135 75.4971 75.3497 75.9171C71.0857 77.3022 69.4352 74.9372 68.1101 71.6955C66.6589 68.1518 66.6573 64.3649 65.6027 60.7475C65.219 59.414 66.1791 58.5446 67.6353 58.2205C76.0292 56.3418 84.4956 55.9734 93.0713 57.0048C94.4648 57.1669 95.4196 57.7121 95.7359 59.1561C96.003 60.3349 96.499 61.4769 96.7661 62.6557C98.3459 69.7505 97.4373 71.0693 90.0704 72.5428C82.1163 74.1268 82.2384 74.1121 83.1709 82.0173C84.5604 94.0557 85.5758 106.131 87.0875 118.155C88.6575 130.561 90.8304 142.88 93.1864 155.169C93.5874 157.268 94.5425 157.836 96.8311 157.438C110.663 155.139 124.584 153.216 138.375 150.675C141.533 150.093 144.774 150.07 147.926 148.995C142.851 147.286 137.818 145.856 132.829 144.309C122.882 141.215 116.274 134.916 112.123 125.832C104.679 109.616 103.952 93.098 109.885 76.6244C114.997 62.442 127.763 54.3378 141.317 55.4429C148.342 56.0102 155.36 56.5702 162.209 58.2941C179.879 62.7367 197.913 65.6248 215.402 70.8409C219.231 71.9829 222.704 73.95 226.696 75.2466C227.183 70.2147 225.787 65.6247 225.255 61.0054C224.68 55.9734 224.357 50.8972 223.613 45.8726L223.621 45.8947ZM90.0291 68.638C92.1564 68.1813 93.4907 67.2824 92.7303 65.168C92.0777 60.0771 92.0045 60.3349 86.8488 60.1139C82.3051 59.9223 77.8755 60.2981 73.3767 60.6444C70.5125 60.8654 69.8749 62.4494 69.9803 64.7554C70.0108 65.3595 70.1787 65.9489 70.3314 66.5383C71.9078 72.7491 72.0462 72.8154 78.3423 71.3051C82.2297 70.3694 86.1253 69.4779 90.0291 68.638ZM207.422 82.5699C195.06 90.5046 189.688 102.329 188.977 116.379C188.849 118.914 189.041 121.455 189.073 123.997C190.153 135.129 195.537 144.405 203.002 152.627C209.018 159.265 215.771 159.987 223.869 155.861C230.038 152.73 234.207 148.089 236.675 141.848C243.922 123.54 243.152 105.984 232.657 88.4712C227.292 79.5198 214.741 77.8916 207.422 82.5773L207.422 82.5699Z" fill="#A78BFA"/>
<path d="M210.728 57.6787C205.695 58.0987 199.583 54.7833 199.143 51.4016C198.694 47.9021 203.189 41.7208 206.456 41.3598C212.198 40.7336 217.303 44.852 217.856 50.547C218.234 54.4591 215.417 57.2735 210.728 57.6713L210.728 57.6787ZM207.886 45.6403C206.153 45.8466 203.038 49.2282 203.262 50.6428C203.496 52.2194 207.656 54.1497 210.543 53.8771C212.044 53.4424 214.168 53.354 213.814 50.7091C213.475 48.101 210.252 45.3382 207.886 45.6403Z" fill="#A78BFA"/>
<path d="M42.2957 145.033C36.2261 142.049 29.9188 139.617 23.6647 137.157C17.426 134.711 15.7503 130.335 15.6399 124.581C15.4224 113.338 15.0063 102.102 12.2608 91.066C11.7606 88.981 12.9618 88.4432 14.6501 88.34C19.0578 88.0453 23.7431 86.7266 26.7335 91.6849C27.1863 92.4363 28.648 93.7698 29.5279 92.6058C32.573 88.5169 35.9776 91.1544 39.3055 91.9354C41.2302 92.3921 41.7962 93.6299 41.7428 95.4717C41.649 99.568 42.1832 103.76 43.0727 107.628C44.6243 114.303 45.0835 121.044 46.3619 127.874C46.8134 132.176 47.2822 136.641 47.7738 141.091C48.2483 145.394 46.3422 147.029 42.2957 145.033ZM39.9144 110.612C39.0824 106.457 38.8455 102.191 38.2805 97.9914C37.8404 94.595 35.285 93.232 32.3181 95.0149C29.0021 97.0115 26.1888 96.4148 23.4895 93.9393C22.6622 93.1952 21.9167 92.2816 20.9698 91.7585C18.4373 90.3882 16.3861 91.427 16.9677 93.9098C19.5061 104.895 18.8592 116.101 20.1525 127.166C20.4861 129.996 21.58 131.874 24.3392 133.031C30.6646 135.683 36.915 138.453 44.0409 141.54C42.2397 130.813 41.9285 120.632 39.9067 110.604L39.9144 110.612Z" fill="#A78BFA"/>
<path d="M236.881 125.261C236.303 133.38 235.448 141.469 230.166 148.24C223.838 156.352 218.522 156.727 210.911 149.677C209.472 148.328 208.001 146.914 206.964 145.271C196.958 129.549 194.904 109.627 207.691 93.5072C214.005 85.5651 220.742 85.6167 228.138 92.6084C235.009 99.0918 234.579 108.132 236.973 115.536C236.943 119.22 237.081 122.27 236.874 125.268L236.881 125.261ZM228.111 98.937C226.602 95.0986 223.387 92.2916 219.531 91.4665C215.552 90.6118 212.507 93.4483 210.336 96.5795C204.794 104.536 202.205 113.304 203.288 124.045C204.951 132.304 207.396 141.293 215.178 147.953C219.259 151.46 221.809 151.224 225.337 147.245C230.735 141.116 231.964 133.697 232.594 125.99C233.363 116.619 231.515 107.675 228.111 98.9444L228.111 98.937Z" fill="#A78BFA"/>
<path d="M168.854 12.3618C162.598 8.60442 156.242 8.96542 149.808 11.6619C148.987 12.0082 148.05 12.325 147.465 11.3672C146.895 10.4315 147.728 9.80531 148.294 9.18644C150.096 7.21197 152.568 6.82886 155.126 6.55627C158.35 6.38681 161.608 5.83425 164.808 6.76255C166.603 7.28564 168.393 7.97818 169.973 8.94332C170.882 9.50324 171.303 10.7631 170.728 11.8977C170.348 12.6491 169.701 12.8554 168.861 12.3618H168.854Z" fill="#A78BFA"/>
<path d="M22.6477 121.516C22.8354 120.632 23.6962 120.389 24.4256 120.632C29.178 122.223 33.7073 124.316 37.4874 127.624C38.2062 128.242 38.6402 129.325 36.8435 129.93C35.8825 129.502 34.7675 128.994 33.6373 128.486C30.5547 127.145 27.4422 125.855 24.4119 124.419C23.2735 123.866 22.3442 122.923 22.6477 121.516Z" fill="#A78BFA"/>
<path d="M25.4548 106.122C28.4588 106.682 30.9044 108.442 33.4541 109.967C34.4939 110.579 34.8852 111.294 34.2712 112.325C33.5901 113.496 32.6293 113.084 31.7136 112.612C29.2895 111.352 26.8433 110.159 24.1591 109.489C23.2694 109.268 22.5454 108.84 22.4028 107.831C22.6713 106.077 24.0066 105.864 25.4548 106.122Z" fill="#A78BFA"/>
<path d="M32.6105 105.982C29.371 104.936 25.872 103.919 22.8041 101.923C22.1103 101.466 22.0312 100.648 22.4967 99.9703C23.0299 99.1967 23.8745 98.8799 24.7967 99.2556C27.6861 100.434 30.5762 101.665 33.4509 102.888C34.227 103.205 34.6777 103.787 34.4052 104.612C34.162 105.334 33.7335 105.916 32.6105 105.982Z" fill="#A78BFA"/>
<path d="M25.3232 114.283C28.8453 114.092 31.8978 115.477 34.7046 117.378C35.2675 117.761 35.4051 118.372 35.0993 118.984C34.8088 119.595 34.1942 119.964 33.5961 119.824C30.5744 119.072 27.5749 118.262 24.59 117.392C24.1911 117.282 23.9243 116.737 23.7459 116.538C23.4981 115.064 24.3222 114.328 25.3154 114.276L25.3232 114.283Z" fill="#A78BFA"/>
<path d="M222.655 100.46C215.309 105.419 214.686 113.059 214.178 120.721C214.009 123.115 214.369 125.554 214.299 127.948C214.282 129.039 213.823 130.232 212.464 130.321C211.15 130.416 210.442 129.495 210.175 128.317C209.884 127.02 209.653 125.709 209.4 124.397C208.833 118.223 210.005 112.285 212.235 106.634C213.747 102.818 216.12 99.3626 220.031 97.2703C221.056 96.7103 222.183 96.3862 223.054 97.5355C223.824 98.5743 223.663 99.7752 222.662 100.46H222.655Z" fill="#A78BFA"/>
</g>
<defs>
<clipPath id="clip0_437_1794">
<rect width="243.939" height="165.53" fill="white" transform="matrix(-1 0 0.0125427 0.999921 244.336 0.496094)"/>
</clipPath>
</defs>
</svg>
