<svg width="1024" height="1721" viewBox="0 0 1024 1721" fill="none" xmlns="http://www.w3.org/2000/svg">
<g clip-path="url(#clip0_437_1781)">
<rect width="1024" height="1720.32" transform="translate(0 0.21875)" fill="url(#paint0_radial_437_1781)"/>
<path d="M634.84 668.188C663.461 707.387 696.502 813.089 733.31 835.583C805.259 879.464 817.667 756.721 824.005 699.087C831 635.752 834.876 650.647 888.442 609.387C910.576 592.297 967.824 547.305 967.617 517.853C967.148 455.609 899.624 450.592 837.78 461.756C807.978 467.139 778.919 450.096 768.701 421.629C750.135 370.144 716.515 313.286 661.98 304.158C572.136 289.198 611.372 424.383 602.058 480.296C596.51 513.691 574.485 516.218 547.148 526.415C510.695 539.995 399.011 613.995 475.151 649.504C500.693 661.376 531.114 665.202 558.825 667.872C567.083 668.684 632.147 664.554 634.789 668.199L634.84 668.188Z" fill="#F29997"/>
<path d="M137.566 532.596C171.114 578.589 209.897 702.573 253.114 728.985C337.533 780.512 352.097 636.453 359.572 568.845C367.762 494.544 372.365 512.025 435.161 463.596C461.137 443.567 528.309 390.749 528.046 356.153C527.524 283.142 448.268 277.239 375.731 290.351C340.805 296.662 306.666 276.672 294.627 243.261C272.868 182.828 233.395 116.114 169.431 105.482C64.0496 87.8753 110.028 246.556 99.1003 312.127C92.5495 351.293 66.7994 354.261 34.6665 366.248C-8.06844 382.175 -139.137 468.999 -49.7932 510.666C-19.8567 524.644 15.8466 529.108 48.3463 532.257C58.0229 533.196 134.348 528.398 137.525 532.656L137.566 532.596Z" fill="#F29997"/>
<path d="M467.922 98.1878C485.222 121.878 505.212 185.812 527.495 199.423C571 225.983 578.525 151.713 582.345 116.913C586.597 78.6223 588.93 87.6401 621.333 62.6559C634.722 52.3285 669.354 25.0908 669.222 7.27688C668.964 -30.3634 628.126 -33.4321 590.722 -26.6222C572.714 -23.3569 555.116 -33.684 548.917 -50.8951C537.694 -82.0477 517.365 -116.419 484.387 -121.947C430.07 -131.016 453.761 -49.2133 448.135 -15.4414C444.781 4.77612 431.471 6.27039 414.924 12.4383C392.907 20.6358 325.347 65.3837 371.393 86.8945C386.818 94.101 405.219 96.3768 421.994 98.0004C426.991 98.4895 466.343 95.9793 467.932 98.2374L467.922 98.1878Z" fill="#F29997"/>
<path d="M935.232 119.554C932.607 123.149 929.577 132.843 926.201 134.906C919.603 138.93 918.465 127.673 917.883 122.388C917.242 116.579 916.886 117.945 911.974 114.161C909.944 112.594 904.694 108.468 904.713 105.767C904.756 100.058 910.948 99.5981 916.62 100.622C919.353 101.116 922.018 99.5526 922.955 96.9419C924.658 92.2201 927.741 87.0056 932.743 86.1685C940.983 84.7965 937.384 97.1945 938.238 102.322C938.747 105.385 940.767 105.617 943.274 106.552C946.617 107.797 956.86 114.584 949.877 117.84C947.535 118.929 944.745 119.28 942.203 119.525C941.446 119.599 935.479 119.221 935.237 119.555L935.232 119.554Z" fill="#FFFF33"/>
<path d="M980.814 107.119C977.738 111.337 974.181 122.707 970.217 125.13C962.475 129.855 961.139 116.643 960.454 110.443C959.703 103.629 959.281 105.232 953.521 100.79C951.139 98.9536 944.979 94.1097 945.003 90.9368C945.051 84.2409 952.319 83.6996 958.972 84.902C962.175 85.4808 965.306 83.6476 966.41 80.5833C968.406 75.041 972.026 68.9226 977.892 67.9475C987.556 66.3328 983.34 80.8856 984.342 86.8991C984.943 90.4911 987.304 90.7633 990.251 91.8626C994.17 93.3234 1006.19 101.286 997.997 105.107C995.252 106.389 991.977 106.799 988.997 107.087C988.109 107.174 981.109 106.734 980.818 107.124L980.814 107.119Z" fill="#FFFF33"/>
<path d="M950.516 67.2803C948.929 69.4529 947.096 75.3164 945.052 76.5647C941.062 79.0005 940.372 72.1892 940.022 68.9976C939.632 65.4859 939.418 66.313 936.446 64.0216C935.218 63.0745 932.042 60.5765 932.054 58.9428C932.078 55.4908 935.823 55.2093 939.254 55.8339C940.905 56.1333 942.519 55.1862 943.088 53.6078C944.117 50.7507 945.981 47.5985 949.006 47.0915C953.987 46.2598 951.814 53.762 952.33 56.8593C952.638 58.7134 953.859 58.8505 955.376 59.4161C957.395 60.1679 963.591 64.2718 959.369 66.2446C957.954 66.9055 956.266 67.1142 954.728 67.2631C954.27 67.308 950.661 67.0778 950.515 67.2849L950.516 67.2803Z" fill="#FFFF33"/>
</g>
<defs>
<radialGradient id="paint0_radial_437_1781" cx="0" cy="0" r="1" gradientUnits="userSpaceOnUse" gradientTransform="translate(573.44 972.117) rotate(92.2026) scale(923.648 1096.71)">
<stop stop-color="#FFFF33"/>
<stop offset="1" stop-color="#F086A9"/>
</radialGradient>
<clipPath id="clip0_437_1781">
<rect width="1024" height="1720.32" fill="white" transform="translate(0 0.21875)"/>
</clipPath>
</defs>
</svg>
